<svg xmlns="http://www.w3.org/2000/svg" xmlns:xlink="http://www.w3.org/1999/xlink" width="190" height="203" viewBox="0 0 190 203">
  <defs>
    <linearGradient id="linear-gradient" x1="0.5" x2="0.5" y2="1" gradientUnits="objectBoundingBox">
      <stop offset="0" stop-color="#defff8"/>
      <stop offset="0.803" stop-color="#eaf5ff"/>
      <stop offset="1" stop-color="#f0feff"/>
    </linearGradient>
    <clipPath id="clip-path">
      <rect id="Rectángulo_377396" data-name="Rectángulo 377396" width="136" height="136" transform="translate(319 1885.867)" fill="none" stroke="#707070" stroke-width="1"/>
    </clipPath>
    <clipPath id="clip-path-2">
      <rect id="Rectángulo_377401" data-name="Rectángulo 377401" width="116" height="120.917" fill="none"/>
    </clipPath>
  </defs>
  <g id="Grupo_1073529" data-name="Grupo 1073529" transform="translate(-915 -3950)">
    <rect id="Rectángulo_377387" data-name="Rectángulo 377387" width="190" height="203" rx="20" transform="translate(915 3950)" fill="url(#linear-gradient)"/>
    <path id="Trazado_822142" data-name="Trazado 822142" d="M-29.652-1.883h4.977V0H-32V-11.375h2.344Zm5.82-2.422a5.013,5.013,0,0,1,.484-2.242A3.546,3.546,0,0,1-21.953-8.07a4.069,4.069,0,0,1,2.113-.539,3.849,3.849,0,0,1,2.793,1.047A4.2,4.2,0,0,1-15.84-4.719l.016.578A4.418,4.418,0,0,1-16.91-1.02,3.775,3.775,0,0,1-19.824.156a3.793,3.793,0,0,1-2.918-1.172A4.5,4.5,0,0,1-23.832-4.2Zm2.258.16A3.16,3.16,0,0,0-21.121-2.3a1.5,1.5,0,0,0,1.3.638,1.5,1.5,0,0,0,1.281-.63,3.457,3.457,0,0,0,.461-2.015,3.128,3.128,0,0,0-.461-1.831,1.5,1.5,0,0,0-1.3-.649,1.474,1.474,0,0,0-1.281.646A3.516,3.516,0,0,0-21.574-4.144Zm6.813-.145a4.954,4.954,0,0,1,.926-3.133,3,3,0,0,1,2.5-1.187,2.631,2.631,0,0,1,2.164.953l.094-.8h2.047V-.281a3.613,3.613,0,0,1-.5,1.93A3.236,3.236,0,0,1-8.957,2.9a4.985,4.985,0,0,1-2.141.43,4.635,4.635,0,0,1-1.812-.371A3.217,3.217,0,0,1-14.246,2l1-1.375A2.645,2.645,0,0,0-11.2,1.57a1.936,1.936,0,0,0,1.4-.48A1.8,1.8,0,0,0-9.3-.273V-.727a2.612,2.612,0,0,1-2.055.883A2.992,2.992,0,0,1-13.82-1.035a4.953,4.953,0,0,1-.941-3.16Zm2.258.168a3.085,3.085,0,0,0,.461,1.8,1.466,1.466,0,0,0,1.266.653A1.568,1.568,0,0,0-9.3-2.439V-6a1.564,1.564,0,0,0-1.461-.775,1.476,1.476,0,0,0-1.277.665A3.477,3.477,0,0,0-12.5-4.121ZM-2.863,0H-5.121V-8.453h2.258Zm-.664-11.883h2.461L-3.23-9.461H-5.066ZM3.66-2.336a.727.727,0,0,0-.41-.652,4.659,4.659,0,0,0-1.316-.426q-3.016-.633-3.016-2.562A2.323,2.323,0,0,1-.148-7.855a3.766,3.766,0,0,1,2.441-.754,4.053,4.053,0,0,1,2.574.758,2.388,2.388,0,0,1,.965,1.969H3.574a1.092,1.092,0,0,0-.312-.8A1.322,1.322,0,0,0,2.285-7a1.351,1.351,0,0,0-.883.258.814.814,0,0,0-.312.656.7.7,0,0,0,.355.605,3.657,3.657,0,0,0,1.2.4A9.8,9.8,0,0,1,4.066-4.7,2.336,2.336,0,0,1,5.855-2.43,2.2,2.2,0,0,1,4.863-.559,4.28,4.28,0,0,1,2.3.156,4.47,4.47,0,0,1,.414-.223,3.166,3.166,0,0,1-.879-1.262a2.414,2.414,0,0,1-.469-1.426H.793a1.179,1.179,0,0,0,.445.922,1.766,1.766,0,0,0,1.109.32,1.635,1.635,0,0,0,.98-.246A.766.766,0,0,0,3.66-2.336Zm6.352-8.2v2.078h1.445V-6.8H10.012v4.219a1.007,1.007,0,0,0,.18.672.9.9,0,0,0,.688.2,3.6,3.6,0,0,0,.664-.055V-.047a4.648,4.648,0,0,1-1.367.2,2.156,2.156,0,0,1-2.422-2.4V-6.8H6.52V-8.453H7.754v-2.078ZM15.1,0H12.832V-8.453H15.1ZM12.7-10.641a1.112,1.112,0,0,1,.34-.836,1.277,1.277,0,0,1,.926-.328,1.28,1.28,0,0,1,.922.328,1.105,1.105,0,0,1,.344.836,1.108,1.108,0,0,1-.348.844,1.283,1.283,0,0,1-.918.328,1.283,1.283,0,0,1-.918-.328A1.108,1.108,0,0,1,12.7-10.641Zm7.773,8.977a1.481,1.481,0,0,0,1.016-.344,1.2,1.2,0,0,0,.406-.914h2.117a2.9,2.9,0,0,1-.469,1.574A3.093,3.093,0,0,1,22.281-.238a3.949,3.949,0,0,1-1.77.395A3.67,3.67,0,0,1,17.652-1,4.56,4.56,0,0,1,16.605-4.18v-.148a4.508,4.508,0,0,1,1.039-3.117A3.627,3.627,0,0,1,20.5-8.609a3.555,3.555,0,0,1,2.543.9,3.2,3.2,0,0,1,.973,2.4H21.895a1.551,1.551,0,0,0-.406-1.072,1.354,1.354,0,0,0-1.031-.412,1.36,1.36,0,0,0-1.191.575,3.333,3.333,0,0,0-.4,1.866v.235a3.375,3.375,0,0,0,.4,1.878A1.377,1.377,0,0,0,20.473-1.664ZM30.2,0a2.507,2.507,0,0,1-.227-.758A2.732,2.732,0,0,1,27.84.156a3,3,0,0,1-2.059-.719,2.312,2.312,0,0,1-.816-1.812,2.389,2.389,0,0,1,1-2.062,4.915,4.915,0,0,1,2.879-.727h1.039v-.484a1.393,1.393,0,0,0-.3-.937,1.183,1.183,0,0,0-.949-.352,1.345,1.345,0,0,0-.895.273.929.929,0,0,0-.324.75H25.152a2.268,2.268,0,0,1,.453-1.359,3,3,0,0,1,1.281-.98,4.669,4.669,0,0,1,1.859-.355,3.689,3.689,0,0,1,2.48.785,2.747,2.747,0,0,1,.918,2.207v3.664a4.041,4.041,0,0,0,.336,1.82V0ZM28.332-1.57a1.945,1.945,0,0,0,.922-.223,1.462,1.462,0,0,0,.625-.6V-3.844h-.844q-1.7,0-1.8,1.172l-.008.133a.9.9,0,0,0,.3.7A1.153,1.153,0,0,0,28.332-1.57Zm-42.3,16.813,1.57-5.7h2.359L-12.891,18h-2.156L-17.9,9.547h2.359Zm8.711,2.914a4.15,4.15,0,0,1-3.027-1.141,4.054,4.054,0,0,1-1.168-3.039v-.219a5.106,5.106,0,0,1,.492-2.277A3.612,3.612,0,0,1-7.566,9.934a3.914,3.914,0,0,1,2.059-.543,3.508,3.508,0,0,1,2.73,1.094,4.444,4.444,0,0,1,1,3.1v.922H-7.164a2.1,2.1,0,0,0,.66,1.328,2,2,0,0,0,1.395.5,2.437,2.437,0,0,0,2.039-.945l1.109,1.242a3.389,3.389,0,0,1-1.375,1.121A4.511,4.511,0,0,1-5.258,18.156Zm-.258-6.945a1.411,1.411,0,0,0-1.09.455,2.357,2.357,0,0,0-.535,1.3H-4v-.181a1.681,1.681,0,0,0-.406-1.165A1.456,1.456,0,0,0-5.516,11.211Zm9.766.453a6.134,6.134,0,0,0-.812-.062,1.654,1.654,0,0,0-1.68.867V18H-.5V9.547H1.633L1.7,10.555A2.092,2.092,0,0,1,3.578,9.391a2.366,2.366,0,0,1,.7.1Zm.586,2.047a5.094,5.094,0,0,1,.887-3.148A2.877,2.877,0,0,1,8.148,9.391a2.589,2.589,0,0,1,2.039.922V6h2.266V18H10.414l-.109-.9a2.657,2.657,0,0,1-2.172,1.055A2.869,2.869,0,0,1,5.738,16.98,5.258,5.258,0,0,1,4.836,13.711Zm2.258.168A3.337,3.337,0,0,0,7.508,15.7a1.349,1.349,0,0,0,1.2.634,1.511,1.511,0,0,0,1.477-.884V12.111a1.489,1.489,0,0,0-1.461-.884Q7.094,11.227,7.094,13.879Zm11,4.277a4.15,4.15,0,0,1-3.027-1.141A4.054,4.054,0,0,1,13.9,13.977v-.219a5.106,5.106,0,0,1,.492-2.277,3.612,3.612,0,0,1,1.395-1.547,3.914,3.914,0,0,1,2.059-.543,3.508,3.508,0,0,1,2.73,1.094,4.444,4.444,0,0,1,1,3.1v.922H16.188a2.1,2.1,0,0,0,.66,1.328,2,2,0,0,0,1.395.5,2.437,2.437,0,0,0,2.039-.945l1.109,1.242a3.389,3.389,0,0,1-1.375,1.121A4.511,4.511,0,0,1,18.094,18.156Zm-.258-6.945a1.411,1.411,0,0,0-1.09.455,2.357,2.357,0,0,0-.535,1.3h3.141v-.181a1.681,1.681,0,0,0-.406-1.165A1.456,1.456,0,0,0,17.836,11.211Z" transform="translate(1010 4120.133)"/>
    <g id="Grupo_322" data-name="Grupo 322" transform="translate(623 2078.133)" clip-path="url(#clip-path)">
      <g id="Grupo_1073025" data-name="Grupo 1073025" transform="translate(329 1893.867)">
        <g id="Grupo_1073024" data-name="Grupo 1073024" clip-path="url(#clip-path-2)">
          <path id="Trazado_819595" data-name="Trazado 819595" d="M50.619,328.508q-1.889-2.424-3.777-4.849c-.409-.527-.884-.756-1.5-.341a25.789,25.789,0,0,1-8.243,3.189,21.983,21.983,0,0,1-8.267.41,47.771,47.771,0,0,1-5.123-.838,22.356,22.356,0,0,1-5.3-2.239,27.229,27.229,0,0,1-7.369-5.532,28.349,28.349,0,0,1-6.062-10.477,31.93,31.93,0,0,1-1.064-12.22,23.449,23.449,0,0,1,2.1-7.366,29.674,29.674,0,0,1,4-6.684,20.763,20.763,0,0,1,5.685-5.13,31.01,31.01,0,0,1,8.622-3.781,27.965,27.965,0,0,1,13.642-.157,27.368,27.368,0,0,1,8.824,3.652,56.111,56.111,0,0,1,4.865,3.867c1.9,1.6,3.56,3.452,5.614,4.909a21.917,21.917,0,0,1,2.564,2.336c1.134,1.129,2.325,2.2,3.521,3.266,1.731,1.54,3.5,3.043,5.233,4.577q4.254,3.754,8.489,7.529a89.129,89.129,0,0,0,6.824,6.03A11.481,11.481,0,0,0,94.58,310.42a10.974,10.974,0,0,0,7.913-8.69c.46-2.416.54-5.138-.721-7.4a11.667,11.667,0,0,0-4.82-4.994,14.986,14.986,0,0,0-6.619-1.529,10.676,10.676,0,0,0-4.368,1.1c-1.569.72-2.673,2.027-4.176,2.8-.508.26-.772.961-1.257,1.309-.783.563-1.327,1.388-2.475,1.573a2.1,2.1,0,0,1-1.778-.575c-1.44-1.109-2.77-2.362-4.17-3.525-1.872-1.555-3.8-3.04-5.638-4.636a1.135,1.135,0,0,1,.083-1.959c2.359-1.816,4.594-3.8,6.774-5.806,3.059-2.811,6.729-4.089,10.511-5.357a23.484,23.484,0,0,1,9.805-.831,26.99,26.99,0,0,1,11.15,3.512,27.633,27.633,0,0,1,9.082,7.879,24.309,24.309,0,0,1,4.2,9.026,25.549,25.549,0,0,1,.577,4.489,26.228,26.228,0,0,1,.211,2.773,32.419,32.419,0,0,1-2.908,11.976,27.125,27.125,0,0,1-12.193,12.417,23.887,23.887,0,0,1-10.44,2.908c-.965.023-1.965.438-2.9.183-1.655-.452-3.368-.1-5.074-.824-1.169-.5-2.679-.532-4.009-.991a24.236,24.236,0,0,1-7.86-4.48c-4.34-3.691-8.584-7.494-12.821-11.3-2.267-2.038-4.676-3.95-6.834-6.091-.957-.949-2.035-1.853-2.992-2.784-1.523-1.482-3.46-2.631-4.964-4.175-1.3-1.337-2.971-2.2-4.186-3.616a16.229,16.229,0,0,0-7.372-4.81,8.766,8.766,0,0,0-3.515-.073,11.391,11.391,0,0,0-6.269,2.029,11.262,11.262,0,0,0-4.6,7.359,11.567,11.567,0,0,0,8.409,13.11,12.838,12.838,0,0,0,6.857-.183c.438-.119.471-.3.15-.679-.9-1.064-1.73-2.185-2.607-3.268a1.587,1.587,0,0,1-.443-1.691c.281-.744.868-.7,1.451-.64,2.689.294,5.38.572,8.068.872,1.806.2,3.624.38,5.438.548,2.2.2,4.389.448,6.578.721a.916.916,0,0,1,.8,1.108c-.168,2.009-.31,4.02-.512,6.025-.19,1.88-.45,3.754-.667,5.631q-.474,4.088-.924,8.179c-.053.487-.017.983-.022,1.475Zm-14.2-21.775c.86,1.06,1.62,1.945,2.32,2.875a1.254,1.254,0,0,1-.506,2.107c-1.314.49-2.413,1.392-3.944,1.511-3.324.26-6.539.286-9.521-1.509a15.549,15.549,0,0,1-5.622-5.307,13.9,13.9,0,0,1,7.432-20.156,10.01,10.01,0,0,1,2.7-.823c.938-.03,1.936.044,2.905.077a13.841,13.841,0,0,1,6.754,1.853c2.325,1.382,3.875,3.663,6.083,5.181,1.241.853,2.129,2.1,3.392,2.966,1.837,1.252,3.15,3.125,4.908,4.469.871.666,1.493,1.7,2.339,2.148,1.25.664,1.962,1.821,3.067,2.6,1.231.867,2.377,1.947,3.54,2.957,3.366,2.92,6.7,5.871,10.068,8.793a35.841,35.841,0,0,0,7.389,5.4,24.6,24.6,0,0,0,16.394,2.1,25.89,25.89,0,0,0,17.846-13.806,23.151,23.151,0,0,0,2.061-6.367,28.154,28.154,0,0,0,.04-8.884,21.626,21.626,0,0,0-5.383-11.562,33.345,33.345,0,0,0-4.966-4.715,29.9,29.9,0,0,0-3.57-2c-1.1-.585-2.538-.528-3.5-1.546a.39.39,0,0,0-.518-.107c-.662.353-1.283-.068-1.922-.1-1.1-.047-2.029-.613-3.209-.613a39.639,39.639,0,0,0-6.508.349,22.862,22.862,0,0,0-9.121,3.556,94.438,94.438,0,0,0-8.03,6.663,25.587,25.587,0,0,1,3.047,2.691,23.693,23.693,0,0,0,2.423,2.082c.813.759,1.707,1.482,2.562,2.219.516.445,1.072.279,1.206-.032.558-1.3,1.893-1.8,2.839-2.528,2.158-1.658,4.34-3.35,7.371-3.629a18.63,18.63,0,0,1,8.756,1.238,10.734,10.734,0,0,1,4.489,3.573c1.4,1.771,2.738,3.474,2.981,5.9a22.475,22.475,0,0,1-.1,6.447,12.048,12.048,0,0,1-4.512,7.251,14.533,14.533,0,0,1-9.314,3.351c-1.032,0-1.995-.542-2.884-.517a7.017,7.017,0,0,1-3.89-1.2c-3.469-2.048-6.192-5.02-9.207-7.628-4.281-3.7-8.5-7.484-12.743-11.227-2.634-2.321-5.317-4.587-7.9-6.959-2.311-2.12-4.585-4.323-7.017-6.253A20.181,20.181,0,0,0,40.1,275.7a24.477,24.477,0,0,0-7.422-1.277c-2.481.119-4.952-.222-7.437.628a31.874,31.874,0,0,0-7.54,3.191,24.591,24.591,0,0,0-7.356,7.3A30.615,30.615,0,0,0,7.351,292c-.785,2.251-.728,4.566-.914,6.855A20.545,20.545,0,0,0,7.666,307.7a24.417,24.417,0,0,0,10.978,13.275,24.968,24.968,0,0,0,16.285,3.284,25.488,25.488,0,0,0,10.584-3.944,1.419,1.419,0,0,1,2.15.361c.791,1.048,1.682,2.02,2.6,3.109a5.253,5.253,0,0,0,.367-1.456,18.857,18.857,0,0,1,.484-5.36c.253-1.132-.235-2.451.122-3.282.654-1.523.279-3.085.765-4.55.116-.35.066-.774-.472-.7a11.384,11.384,0,0,1-2.432-.275,38.981,38.981,0,0,1-5.766-.444c-2.248-.5-4.527-.4-6.918-.992" transform="translate(-2.883 -207.591)"/>
          <path id="Trazado_819596" data-name="Trazado 819596" d="M169.293,118.4c-1.237.191-1.867-.825-2.724-1.367a3.671,3.671,0,0,1-.5-.5c-1.239-1.188-2.415-1.185-4.009-.426-1.484.707-1.749,2.049-2.065,3.325-.468,1.885-1.738,2.574-3.782,2.237-.629-.1-1.5.265-2.271.231-2.119-.092-2.924-.512-3.374-2.5-.228-1.009-.491-2.011-.736-3.017a1.422,1.422,0,0,0-.037-.23c-.493-1.122-3.479-1.731-4.475-1.005a20.376,20.376,0,0,1-2.762,1.622,1.923,1.923,0,0,1-2.269-.291c-1.119-1-2.235-2-3.3-3.058a2.556,2.556,0,0,1-.524-3.3c.359-.72.673-1.47,1.1-2.148a2.431,2.431,0,0,0,.05-2.331c-.627-1.922-2.064-2.254-3.713-2.387a3.822,3.822,0,0,1-2.964-1.3c-.17-.218-.6-.474-.557-.585.656-1.783-.669-3.383-.422-5.145.161-1.15.415-1.92,1.71-2.248a16.586,16.586,0,0,0,3.15-1.438c.409-.2.479-.662.645-1.051.945-2.2-.171-3.714-1.668-5.113a2.735,2.735,0,0,1-.465-3.772c.663-1.085,1.38-2.137,2.092-3.191a2.424,2.424,0,0,1,3.009-1.115c.768.223,1.538.444,2.3.675.544.164,1.108.663,1.642.335a21.255,21.255,0,0,0,2.574-1.957c.148-.125.086-.519.089-.79.013-1.141,0-2.282.025-3.423a2.162,2.162,0,0,1,1.709-2.289,32.579,32.579,0,0,1,4.2-1.175,2.375,2.375,0,0,1,2.78,1.213c.3.574.857,1.031,1.094,1.622.671,1.671,2.138,1.7,3.564,1.93,1.156.188,1.564-.749,2.03-1.385A22.225,22.225,0,0,0,162.3,70.89c.407-.727,2.222-.671,3.459-.032a14.153,14.153,0,0,0,2.56.986,2.763,2.763,0,0,1,1.932,3.621c-.3.852-.068,1.842-.327,2.749-.118.415.184.687.415,1.019,1.545,2.22,3.659,1.8,5.789,1.3a2.448,2.448,0,0,1,3.042,1.358c.551,1.054,1.08,2.119,1.613,3.183a2.46,2.46,0,0,1-.5,3.425c-.462.484-.951.941-1.417,1.42s-1.25.937-1.293,1.455a8.12,8.12,0,0,0,.441,3.145c.193.583,1,.824,1.572,1.154a9.586,9.586,0,0,1,2.574,1.59c1.092,1.223.335,2.644.169,3.971a18.294,18.294,0,0,1-.614,2.448c-.311,1.152-1.462,1.829-3.255,1.916-.393.019-.788-.01-1.18.011-1.508.081-3.5,1.484-3.684,2.878a4.561,4.561,0,0,0,.573,2.506c1.229,2.379,1.3,2.789-.563,4.5-1.055.967-2.166,1.877-3.3,2.753-.235.182-.67.1-1.013.147m3.492-34.767a2.88,2.88,0,0,1-2.47-.876,16.662,16.662,0,0,0-1.929-1.907c-1.389-1.093-1.3-2.45-.812-3.883a2.493,2.493,0,0,0-1.41-3.215,6.645,6.645,0,0,1-.884-.5c-.747-.361-1.474-.8-2.082.352a9.767,9.767,0,0,1-1.706,2.031c-.586.61-1.123,1.511-2.2.707-.083-.062-.326-.005-.433.076-.994.76-2.131.374-3.173.295a2.34,2.34,0,0,1-2.047-1.335,13.814,13.814,0,0,0-1.869-2.783.556.556,0,0,0-.563-.287,7.732,7.732,0,0,0-3.289.992c-.662.446-.2,1.452-.279,2.2-.054.506-.007,1.022-.013,1.533a2.823,2.823,0,0,1-1.336,2.583,10.024,10.024,0,0,0-1.283.986c-1.411,1.225-2.911,1.841-4.771.967a18.225,18.225,0,0,0-2.089-.587c-.269-.088-.477-.267-.7.057q-.943,1.391-1.9,2.772c-.216.312-.008.508.165.721.609.754,1.266,1.475,1.812,2.272.422.617,1.287,1.073,1.14,1.923-.241,1.4-.671,2.765-.982,4.153-.19.846-.843,1.646-1.432,1.718-1,.121-1.667.935-2.7.945-.483,0-1.432.4-1.176,1.22a7.376,7.376,0,0,1,.447,2.718c-.036.541.111.865.74.961,1.136.173,2.248.558,3.387.648a2.4,2.4,0,0,1,1.992,1.512c.318.568.468,1.242.835,1.769a3.71,3.71,0,0,1,0,4.607,4.709,4.709,0,0,0-1.076,2.465c.041.755,1.269,1.075,1.778,1.746.825,1.087,1.52.889,2.617.3,1.235-.659,2.346-1.935,4.091-1.313.556.2.981.646,1.544.72,2.472.327,3.522,1.87,3.787,4.2a4.623,4.623,0,0,0,.481,1.984c.424.589,1.387.119,2.107.228.039.006.079,0,.118,0,1.832.321,2.819-.3,3.059-2.086a3.512,3.512,0,0,1,2.88-3.406,7.746,7.746,0,0,0,1.457-.312,3.385,3.385,0,0,1,3.8.369c.65.541,1.393.971,2.055,1.5a.919.919,0,0,0,1.245-.007c2.884-2.015,2.884-2.015,1.588-5.3a2.994,2.994,0,0,0-.168-.309,2.192,2.192,0,0,1,.145-2.41c.506-.773,1.023-1.543,1.459-2.355a3.121,3.121,0,0,1,2.073-1.527,36.75,36.75,0,0,1,3.669-.456c.313-.056.744,0,.777-.356.062-.686.622-1.16.685-1.8A4.188,4.188,0,0,0,179.9,98.8c-.436-.911-1.528-1.258-2.394-1.613a2.97,2.97,0,0,1-2.171-2.52,19.81,19.81,0,0,0-.3-2.18,3.2,3.2,0,0,1,1.37-3.714,6.985,6.985,0,0,0,2.1-2.186c.318-.672-.7-1.345-.982-2.086-.11-.287-.264-.556-.393-.836-.246-.533-.451-.843-1.224-.59a19.454,19.454,0,0,1-3.126.555" transform="translate(-99.263 -53.19)"/>
          <path id="Trazado_819597" data-name="Trazado 819597" d="M31.667,4.926c.14,1.293-.637,2.25-1.082,3.295a1.554,1.554,0,0,0,.109,1.791,2.221,2.221,0,0,1,.466.784c.643,2.607,2.523,3.537,4.971,3.849a2.047,2.047,0,0,1,1.906,2.341,16.371,16.371,0,0,1-.151,3.845,2.381,2.381,0,0,1-1.912,1.805,12.291,12.291,0,0,1-3.182.482.787.787,0,0,0-.795.493c-.727,1.193-1.525,2.342-2.282,3.517-.277.43-.114.845,0,1.316.327,1.337,1.193,2.578.776,4.063a2.085,2.085,0,0,1-1.018,1.4c-.951.5-1.893,1.012-2.866,1.459-1.515.7-2.661.6-3.439-.874-1.292-2.439-3.2-2.815-5.669-2.69a3.589,3.589,0,0,0-3.252,1.777,2.867,2.867,0,0,1-4.341.955c-.772-.5-1.557-.982-2.329-1.484a2.225,2.225,0,0,1-.962-2.992c.014-.037.019-.077.034-.113.455-1.107,1.494-2.382,1.233-3.282a22.579,22.579,0,0,0-2.1-4.313c-.4-.737-1.177-.324-1.734-.645a8.764,8.764,0,0,0-1.76-.435A2.905,2.905,0,0,1,.132,17.437a3.629,3.629,0,0,0,.125-1.155c-.25-2.713,1.157-3.212,3.153-3.245a4.265,4.265,0,0,0,3.943-2.41C8.863,8.1,8.928,7.866,7.794,5.116a2.575,2.575,0,0,1,.748-3.007,19.521,19.521,0,0,1,3.3-1.866c1.542-.65,2.511.068,3.665,1.412.072.084.075.223.137.32.919,1.431,2,2.549,3.93,2.009a.944.944,0,0,1,.469.005c2.091.546,3.342-.711,4.394-2.168a2.7,2.7,0,0,1,3.768-.7c.746.391,1.389.977,2.131,1.377a2.234,2.234,0,0,1,1.332,2.426M12.83,2.688c-.609.287-1.2.6-1.814.847-.688.279-.962.637-.609,1.4.32.694.47,1.464.739,2.184a2.782,2.782,0,0,1-.382,2.851A28.049,28.049,0,0,0,8.544,13.5a3.635,3.635,0,0,1-2.572,1.79,16.914,16.914,0,0,1-2.425.266c-.3.03-.538.015-.721.416-.71,1.562-.217,2.933,1.415,3.117a5.306,5.306,0,0,1,4.773,3.9,3.588,3.588,0,0,0,.444.82,4.956,4.956,0,0,1,.289,5.419c-.81,1.62-.663,1.616.775,2.671.895.656,1.351.709,2.076-.309.692-.971,1.448-2.155,2.836-2.3a43.868,43.868,0,0,1,6.208.254,2.159,2.159,0,0,1,1.734,1.048c.479.745,1.015,1.453,1.533,2.172a.681.681,0,0,0,.912.262c2.2-.875,2.335-1.149,1.595-3.426-.048-.146-.127-.282-.174-.428a3.391,3.391,0,0,1,.366-3.41,12.564,12.564,0,0,0,1.561-2.433c.916-1.975,2.278-3.043,4.563-2.833.529.049,1.423.071,1.643-.521a10.168,10.168,0,0,0,.321-2.528c.026-.271-.1-.406-.4-.458-.755-.131-1.5-.371-2.254-.455a3.238,3.238,0,0,1-2.8-1.934c-.652-1.371-1.32-2.74-2.091-4.045a2.506,2.506,0,0,1-.173-2.5c.353-.777.668-1.575,1.086-2.315.348-.618.18-.942-.367-1.306-1.993-1.324-1.983-1.339-3.527.481-.905,1.068-1.979,2.051-3.426,1.862-1.293-.169-2.568-.115-3.85-.18a8.254,8.254,0,0,1-1.016-.165c-1.744-.308-2.25-1.882-3.2-3-.251-.294-.435-.649-.849-.741" transform="translate(0 0)"/>
          <path id="Trazado_819598" data-name="Trazado 819598" d="M44.814,315.011c2.391.6,4.671.493,6.918.992a38.973,38.973,0,0,0,5.766.444,11.378,11.378,0,0,0,2.432.275c.538-.077.588.347.472.7-.486,1.465-.111,3.027-.765,4.55-.357.831.131,2.15-.122,3.282a18.857,18.857,0,0,0-.484,5.36,5.253,5.253,0,0,1-.367,1.456c-.919-1.089-1.81-2.061-2.6-3.109a1.419,1.419,0,0,0-2.15-.361,25.489,25.489,0,0,1-10.584,3.944,24.968,24.968,0,0,1-16.285-3.284,24.417,24.417,0,0,1-10.978-13.275,20.545,20.545,0,0,1-1.229-8.851c.186-2.29.129-4.6.914-6.855a30.614,30.614,0,0,1,2.993-6.454,24.591,24.591,0,0,1,7.356-7.3,31.874,31.874,0,0,1,7.54-3.191c2.486-.85,4.957-.509,7.437-.628a24.479,24.479,0,0,1,7.422,1.277,20.183,20.183,0,0,1,7.336,3.925c2.431,1.93,4.706,4.133,7.017,6.253,2.586,2.372,5.27,4.638,7.9,6.959,4.248,3.743,8.462,7.523,12.743,11.227,3.015,2.608,5.738,5.58,9.207,7.628a7.018,7.018,0,0,0,3.89,1.2c.889-.026,1.852.514,2.884.517a14.534,14.534,0,0,0,9.314-3.351,12.048,12.048,0,0,0,4.512-7.251,22.475,22.475,0,0,0,.1-6.447c-.244-2.429-1.579-4.132-2.981-5.9a10.734,10.734,0,0,0-4.489-3.573,18.63,18.63,0,0,0-8.756-1.238c-3.03.279-5.213,1.971-7.371,3.629-.945.726-2.281,1.227-2.839,2.528-.133.311-.689.477-1.206.032-.855-.737-1.749-1.46-2.562-2.219a23.693,23.693,0,0,1-2.423-2.082,25.58,25.58,0,0,0-3.047-2.691,94.436,94.436,0,0,1,8.03-6.663,22.86,22.86,0,0,1,9.121-3.556,39.629,39.629,0,0,1,6.508-.349c1.18,0,2.112.566,3.209.613.639.027,1.26.448,1.922.1a.39.39,0,0,1,.518.107c.958,1.017,2.393.961,3.5,1.545a29.905,29.905,0,0,1,3.57,2,33.348,33.348,0,0,1,4.966,4.715,21.626,21.626,0,0,1,5.383,11.562,28.154,28.154,0,0,1-.04,8.884,23.15,23.15,0,0,1-2.061,6.366,25.89,25.89,0,0,1-17.846,13.806,24.6,24.6,0,0,1-16.394-2.1,35.844,35.844,0,0,1-7.389-5.4c-3.363-2.923-6.7-5.873-10.068-8.793-1.164-1.009-2.309-2.089-3.54-2.957-1.1-.778-1.816-1.935-3.067-2.6-.846-.45-1.468-1.482-2.339-2.148-1.758-1.345-3.071-3.217-4.908-4.469-1.263-.861-2.151-2.113-3.392-2.966-2.208-1.518-3.758-3.8-6.083-5.181a13.842,13.842,0,0,0-6.754-1.853c-.969-.033-1.967-.107-2.905-.077a10.01,10.01,0,0,0-2.7.823,13.9,13.9,0,0,0-7.432,20.156A15.548,15.548,0,0,0,33.162,320c2.982,1.8,6.2,1.769,9.521,1.509,1.531-.119,2.63-1.021,3.944-1.511a1.254,1.254,0,0,0,.506-2.107c-.7-.93-1.46-1.815-2.32-2.875" transform="translate(-11.282 -215.87)" fill="#cedc62"/>
          <path id="Trazado_819599" data-name="Trazado 819599" d="M180.576,92.294a19.456,19.456,0,0,0,3.126-.555c.773-.253.978.058,1.224.59.129.28.283.549.394.836.286.742,1.3,1.414.982,2.086a6.989,6.989,0,0,1-2.1,2.186,3.2,3.2,0,0,0-1.37,3.714,19.814,19.814,0,0,1,.3,2.18,2.97,2.97,0,0,0,2.171,2.519c.867.355,1.958.7,2.394,1.613a4.187,4.187,0,0,1,.043,2.056c-.063.641-.623,1.116-.685,1.8-.033.356-.464.3-.777.356a36.834,36.834,0,0,0-3.669.456,3.121,3.121,0,0,0-2.073,1.527c-.437.812-.954,1.582-1.46,2.355a2.192,2.192,0,0,0-.145,2.41,2.919,2.919,0,0,1,.168.308c1.3,3.285,1.3,3.286-1.588,5.3a.919.919,0,0,1-1.245.007c-.662-.529-1.4-.958-2.055-1.5a3.385,3.385,0,0,0-3.8-.369,7.738,7.738,0,0,1-1.457.312,3.512,3.512,0,0,0-2.88,3.406c-.24,1.782-1.227,2.407-3.059,2.086-.038-.007-.079,0-.118,0-.72-.109-1.683.361-2.107-.228a4.626,4.626,0,0,1-.481-1.984c-.265-2.328-1.315-3.871-3.787-4.2-.562-.074-.987-.522-1.544-.72-1.745-.623-2.856.654-4.091,1.313-1.1.585-1.792.783-2.617-.3-.509-.671-1.737-.991-1.778-1.746a4.711,4.711,0,0,1,1.076-2.465,3.71,3.71,0,0,0,0-4.607c-.368-.527-.517-1.2-.835-1.769a2.4,2.4,0,0,0-1.993-1.512c-1.138-.089-2.25-.474-3.387-.648-.629-.1-.776-.42-.74-.961a7.381,7.381,0,0,0-.447-2.718c-.257-.821.692-1.215,1.176-1.219,1.036-.01,1.7-.824,2.7-.945.59-.071,1.243-.872,1.432-1.718.311-1.389.742-2.754.983-4.153.146-.85-.719-1.307-1.141-1.923-.545-.8-1.2-1.518-1.812-2.272-.172-.214-.381-.41-.165-.722q.958-1.381,1.9-2.772c.22-.324.427-.146.7-.057a18.18,18.18,0,0,1,2.089.587c1.86.874,3.36.258,4.771-.967a10,10,0,0,1,1.283-.986,2.823,2.823,0,0,0,1.336-2.583c.006-.511-.04-1.028.014-1.533.08-.751-.384-1.757.279-2.2A7.735,7.735,0,0,1,159,80.969a.556.556,0,0,1,.563.287,13.8,13.8,0,0,1,1.869,2.783,2.34,2.34,0,0,0,2.047,1.335c1.042.08,2.178.465,3.173-.295.107-.082.35-.138.433-.077,1.074.8,1.611-.1,2.2-.707a9.783,9.783,0,0,0,1.706-2.031c.608-1.147,1.335-.713,2.082-.352a6.63,6.63,0,0,0,.883.5,2.493,2.493,0,0,1,1.41,3.215c-.488,1.433-.578,2.791.812,3.883a16.638,16.638,0,0,1,1.929,1.907,2.881,2.881,0,0,0,2.47.876m-32.155,12.1a12.3,12.3,0,0,0,.019,2.238c.955,5.079,3.433,9.17,8.015,11.761a14.8,14.8,0,0,0,12.219,1.2,17.755,17.755,0,0,0,8.259-5.574,15.765,15.765,0,0,0,.77-18.484,12.174,12.174,0,0,0-2.274-2.9,28.413,28.413,0,0,0-5.416-3.321,16.951,16.951,0,0,0-9.35-.8,13.906,13.906,0,0,0-7.492,4.191,15.321,15.321,0,0,0-4.751,11.687" transform="translate(-107.054 -61.854)" fill="#e0e0e0"/>
          <path id="Trazado_819600" data-name="Trazado 819600" d="M20.957,11.389c.414.092.6.447.85.742.95,1.116,1.456,2.69,3.2,3a8.213,8.213,0,0,0,1.017.165c1.282.065,2.557.011,3.85.18,1.447.189,2.521-.794,3.426-1.861,1.544-1.821,1.534-1.806,3.527-.481.547.363.715.687.367,1.305-.418.74-.733,1.539-1.086,2.315a2.507,2.507,0,0,0,.173,2.5c.771,1.305,1.439,2.675,2.091,4.045a3.237,3.237,0,0,0,2.8,1.934c.759.084,1.5.324,2.254.456.3.051.425.186.4.458a10.166,10.166,0,0,1-.321,2.528c-.22.592-1.114.57-1.643.521-2.284-.21-3.646.858-4.562,2.833a12.568,12.568,0,0,1-1.561,2.432,3.393,3.393,0,0,0-.366,3.41c.047.146.127.282.174.428.74,2.277.6,2.55-1.595,3.426a.681.681,0,0,1-.912-.262c-.518-.719-1.054-1.427-1.533-2.172a2.158,2.158,0,0,0-1.734-1.048,43.838,43.838,0,0,0-6.208-.254c-1.387.149-2.144,1.332-2.836,2.3-.725,1.019-1.181.965-2.076.309-1.438-1.055-1.585-1.05-.775-2.671a4.955,4.955,0,0,0-.289-5.419,3.6,3.6,0,0,1-.444-.82,5.307,5.307,0,0,0-4.773-3.9c-1.632-.183-2.125-1.555-1.415-3.117.182-.4.42-.386.721-.416a16.88,16.88,0,0,0,2.425-.266,3.635,3.635,0,0,0,2.572-1.79,28.044,28.044,0,0,1,2.22-3.522,2.782,2.782,0,0,0,.382-2.851c-.269-.72-.419-1.49-.739-2.184-.353-.766-.079-1.124.609-1.4.615-.249,1.2-.559,1.814-.846m6.19,6.739c-5.068-.425-8.531,4-8.6,8.386a8.812,8.812,0,0,0,8.377,8.846,8.63,8.63,0,0,0,9.042-8.48c.064-4.812-2.967-9-8.817-8.752" transform="translate(-8.126 -8.701)" fill="#e0e0e0"/>
          <path id="Trazado_819601" data-name="Trazado 819601" d="M175.119,127.866a15.321,15.321,0,0,1,4.751-11.687,13.907,13.907,0,0,1,7.492-4.191,16.953,16.953,0,0,1,9.35.8,28.415,28.415,0,0,1,5.416,3.321,12.178,12.178,0,0,1,2.274,2.9,15.765,15.765,0,0,1-.77,18.485,17.755,17.755,0,0,1-8.259,5.574,14.8,14.8,0,0,1-12.219-1.2c-4.583-2.592-7.06-6.682-8.016-11.761a12.305,12.305,0,0,1-.019-2.238m9.365,4.2c-1.008.72-1.281,2.144-2.528,2.634-1-.074-1.353-.638-1.435-1.618-.171-2.035.9-3.744,1.53-5.5a10.857,10.857,0,0,1,5.661-5.931,14.149,14.149,0,0,1,6.58-1.66,16.976,16.976,0,0,1,6.073,1.206c.625.247,1.15.6,1.169,1.292.018.632-.45,1.018-1,1.308a5.079,5.079,0,0,0-1.847,1.526c-1.278,1.772-1.609,3.889-2.32,5.867a8.415,8.415,0,0,1-3.353,4.613,9.489,9.489,0,0,1-7.2,1.017c-1.338-.26-1.516.752-1.894,1.527s.2,1.062.8,1.372a12.476,12.476,0,0,0,13.144-.407c3.357-2.113,5.946-4.908,6.493-9.089a18.57,18.57,0,0,0-1.7-9.889.493.493,0,0,0-.158-.173c-1.9-1.471-2.937-3.946-5.543-4.61-.847-.216-1.652-1.15-2.405-1.072-1.807.187-3.515-.835-5.364-.168-.861.311-1.94.146-2.832.506a14.788,14.788,0,0,0-5.636,4A12.231,12.231,0,0,0,177.48,127c-.015,1.15.277,2.306.349,3.414.188,2.887,2.028,4.7,3.521,6.97l.643-1.981c.769-.242,1.3-.878,2.194-1.013a54.892,54.892,0,0,1,5.759-.161,4.926,4.926,0,0,0,4.071-3.251c.823-2.629,1.049-5.5,3.018-7.685a1,1,0,0,0-1.075-.828c-2.074.391-4.233.033-6.26,1a9.518,9.518,0,0,0-4.658,3.949c.355.248.557.1.807-.058a15.47,15.47,0,0,1,3.89-1.782c.758-.219,1.625-.335,1.85.594a1.356,1.356,0,0,1-1.024,1.778,10.738,10.738,0,0,0-3.392,1.579c-1,.718-2.209,1.259-2.689,2.542" transform="translate(-133.752 -85.331)"/>
          <path id="Trazado_819602" data-name="Trazado 819602" d="M52.741,39.848c5.849-.244,8.881,3.94,8.817,8.752a8.63,8.63,0,0,1-9.042,8.48,8.812,8.812,0,0,1-8.377-8.846c.072-4.383,3.534-8.812,8.6-8.386m.165,14.645a6.2,6.2,0,0,0,6.122-6.209,6.131,6.131,0,0,0-6.2-6.1c-3.654-.082-6.193,3.54-6.142,6.268.057,3.054,3.1,6.312,6.224,6.043" transform="translate(-33.72 -30.422)"/>
          <path id="Trazado_819603" data-name="Trazado 819603" d="M189.787,143.122l-.643,1.981c-1.493-2.267-3.333-4.084-3.521-6.97-.072-1.107-.364-2.263-.349-3.414a12.23,12.23,0,0,1,3.248-8.185,14.788,14.788,0,0,1,5.636-4c.892-.361,1.971-.2,2.832-.506,1.849-.667,3.557.355,5.364.168.753-.078,1.558.856,2.406,1.072,2.606.664,3.646,3.139,5.542,4.61a.5.5,0,0,1,.158.174,18.572,18.572,0,0,1,1.7,9.889c-.547,4.18-3.136,6.976-6.493,9.089a12.476,12.476,0,0,1-13.144.407c-.6-.31-1.173-.6-.8-1.372s.555-1.787,1.894-1.527a9.488,9.488,0,0,0,7.2-1.017,8.413,8.413,0,0,0,3.353-4.613c.711-1.978,1.042-4.094,2.32-5.867a5.082,5.082,0,0,1,1.847-1.526c.549-.29,1.017-.676,1-1.309-.02-.693-.545-1.046-1.169-1.292a16.969,16.969,0,0,0-6.073-1.206,14.146,14.146,0,0,0-6.58,1.66,10.858,10.858,0,0,0-5.661,5.931c-.635,1.758-1.7,3.467-1.531,5.5.082.98.43,1.544,1.435,1.618q.018.353.037.706" transform="translate(-141.546 -93.051)" fill="#b9b9b9"/>
          <path id="Trazado_819604" data-name="Trazado 819604" d="M214.949,166.888c.481-1.282,1.691-1.824,2.689-2.542a10.739,10.739,0,0,1,3.392-1.579,1.356,1.356,0,0,0,1.024-1.778c-.225-.929-1.092-.813-1.85-.594a15.47,15.47,0,0,0-3.89,1.782c-.25.156-.452.305-.807.058a9.519,9.519,0,0,1,4.658-3.949c2.027-.964,4.186-.605,6.26-1a1,1,0,0,1,1.075.828,1.692,1.692,0,0,0-1.006.249,14.616,14.616,0,0,0-4.412,5.5c-1.1,2.346-3.006,3.63-5.152,3.2a12.564,12.564,0,0,0-1.982-.178" transform="translate(-164.217 -120.157)" fill="#cedc62"/>
          <path id="Trazado_819605" data-name="Trazado 819605" d="M206.767,169.606a12.566,12.566,0,0,1,1.982.177c2.147.433,4.054-.851,5.152-3.2a14.616,14.616,0,0,1,4.412-5.5,1.692,1.692,0,0,1,1.006-.25c-1.969,2.181-2.2,5.056-3.018,7.685a4.926,4.926,0,0,1-4.071,3.251,54.9,54.9,0,0,0-5.759.161c-.9.135-1.425.771-2.194,1.013q-.018-.353-.037-.706c1.247-.49,1.52-1.915,2.528-2.634" transform="translate(-156.035 -122.876)" fill="#7ba15b"/>
          <path id="Trazado_819606" data-name="Trazado 819606" d="M61.141,62.135c-3.119.269-6.166-2.989-6.224-6.043-.051-2.729,2.488-6.35,6.142-6.268a6.131,6.131,0,0,1,6.2,6.1,6.2,6.2,0,0,1-6.122,6.209" transform="translate(-41.955 -38.064)" fill="#b9b9b9"/>
        </g>
      </g>
    </g>
  </g>
</svg>
