<svg xmlns="http://www.w3.org/2000/svg" xmlns:xlink="http://www.w3.org/1999/xlink" width="190" height="203" viewBox="0 0 190 203">
  <defs>
    <linearGradient id="linear-gradient" x1="0.5" x2="0.5" y2="1" gradientUnits="objectBoundingBox">
      <stop offset="0" stop-color="#defff8"/>
      <stop offset="0.803" stop-color="#eaf5ff"/>
      <stop offset="1" stop-color="#f0feff"/>
    </linearGradient>
    <clipPath id="clip-path">
      <rect id="Rectángulo_377390" data-name="Rectángulo 377390" width="136" height="136" transform="translate(319 1885.867)" fill="none" stroke="#707070" stroke-width="1"/>
    </clipPath>
    <clipPath id="clip-path-2">
      <rect id="Rectángulo_377389" data-name="Rectángulo 377389" width="117.234" height="116.634" fill="none"/>
    </clipPath>
  </defs>
  <g id="Grupo_1073526" data-name="Grupo 1073526" transform="translate(-285 -3950)">
    <rect id="Rectángulo_377340" data-name="Rectángulo 377340" width="190" height="203" rx="20" transform="translate(285 3950)" fill="url(#linear-gradient)"/>
    <path id="Trazado_822139" data-name="Trazado 822139" d="M-41.281-3.789A4.025,4.025,0,0,1-42.637-.9,4.76,4.76,0,0,1-45.859.156,4.28,4.28,0,0,1-49.3-1.316a6.038,6.038,0,0,1-1.254-4.043v-.7a6.819,6.819,0,0,1,.578-2.891,4.332,4.332,0,0,1,1.652-1.918,4.629,4.629,0,0,1,2.5-.668,4.637,4.637,0,0,1,3.172,1.055,4.326,4.326,0,0,1,1.391,2.961h-2.344a2.376,2.376,0,0,0-.613-1.6,2.271,2.271,0,0,0-1.605-.5,1.991,1.991,0,0,0-1.754.84,4.707,4.707,0,0,0-.6,2.605V-5.3a5.038,5.038,0,0,0,.559,2.7,1.954,1.954,0,0,0,1.762.852,2.314,2.314,0,0,0,1.621-.5,2.241,2.241,0,0,0,.613-1.535Zm1.039-.516a5.013,5.013,0,0,1,.484-2.242A3.546,3.546,0,0,1-38.363-8.07a4.069,4.069,0,0,1,2.113-.539,3.849,3.849,0,0,1,2.793,1.047A4.2,4.2,0,0,1-32.25-4.719l.016.578A4.418,4.418,0,0,1-33.32-1.02,3.775,3.775,0,0,1-36.234.156a3.793,3.793,0,0,1-2.918-1.172A4.5,4.5,0,0,1-40.242-4.2Zm2.258.16A3.16,3.16,0,0,0-37.531-2.3a1.5,1.5,0,0,0,1.3.638,1.5,1.5,0,0,0,1.281-.63,3.457,3.457,0,0,0,.461-2.015,3.128,3.128,0,0,0-.461-1.831,1.5,1.5,0,0,0-1.3-.649,1.474,1.474,0,0,0-1.281.646A3.516,3.516,0,0,0-37.984-4.144Zm9.219-4.309.07.977a2.951,2.951,0,0,1,2.43-1.133,2.453,2.453,0,0,1,2,.789,3.682,3.682,0,0,1,.672,2.359V0h-2.258V-5.406a1.465,1.465,0,0,0-.312-1.043A1.4,1.4,0,0,0-27.2-6.773a1.553,1.553,0,0,0-1.43.813V0h-2.258V-8.453ZM-17.3-2.336a.727.727,0,0,0-.41-.652,4.659,4.659,0,0,0-1.316-.426q-3.016-.633-3.016-2.562a2.323,2.323,0,0,1,.934-1.879,3.766,3.766,0,0,1,2.441-.754,4.053,4.053,0,0,1,2.574.758,2.388,2.388,0,0,1,.965,1.969h-2.258a1.092,1.092,0,0,0-.312-.8A1.322,1.322,0,0,0-18.68-7a1.351,1.351,0,0,0-.883.258.814.814,0,0,0-.312.656.7.7,0,0,0,.355.605,3.657,3.657,0,0,0,1.2.4A9.8,9.8,0,0,1-16.9-4.7,2.336,2.336,0,0,1-15.109-2.43,2.2,2.2,0,0,1-16.1-.559a4.28,4.28,0,0,1-2.562.715,4.47,4.47,0,0,1-1.887-.379,3.166,3.166,0,0,1-1.293-1.039,2.414,2.414,0,0,1-.469-1.426h2.141a1.179,1.179,0,0,0,.445.922,1.766,1.766,0,0,0,1.109.32,1.635,1.635,0,0,0,.98-.246A.766.766,0,0,0-17.3-2.336ZM-9.766.156A4.15,4.15,0,0,1-12.793-.984a4.054,4.054,0,0,1-1.168-3.039v-.219a5.106,5.106,0,0,1,.492-2.277,3.612,3.612,0,0,1,1.395-1.547,3.914,3.914,0,0,1,2.059-.543,3.508,3.508,0,0,1,2.73,1.094,4.444,4.444,0,0,1,1,3.1v.922h-5.383a2.1,2.1,0,0,0,.66,1.328,2,2,0,0,0,1.395.5,2.437,2.437,0,0,0,2.039-.945l1.109,1.242A3.389,3.389,0,0,1-7.844-.246,4.511,4.511,0,0,1-9.766.156Zm-.258-6.945a1.411,1.411,0,0,0-1.09.455,2.357,2.357,0,0,0-.535,1.3h3.141v-.181a1.681,1.681,0,0,0-.406-1.165A1.456,1.456,0,0,0-10.023-6.789Zm9.766.453A6.134,6.134,0,0,0-1.07-6.4a1.654,1.654,0,0,0-1.68.867V0H-5.008V-8.453h2.133l.063,1.008A2.092,2.092,0,0,1-.93-8.609a2.366,2.366,0,0,1,.7.1ZM4.133-2.758l1.57-5.7H8.063L5.211,0H3.055L.2-8.453H2.563ZM13.836,0a2.507,2.507,0,0,1-.227-.758,2.732,2.732,0,0,1-2.133.914A3,3,0,0,1,9.418-.562,2.312,2.312,0,0,1,8.6-2.375a2.389,2.389,0,0,1,1-2.062,4.915,4.915,0,0,1,2.879-.727h1.039v-.484a1.393,1.393,0,0,0-.3-.937,1.183,1.183,0,0,0-.949-.352,1.345,1.345,0,0,0-.895.273.929.929,0,0,0-.324.75H8.789a2.268,2.268,0,0,1,.453-1.359,3,3,0,0,1,1.281-.98,4.669,4.669,0,0,1,1.859-.355,3.689,3.689,0,0,1,2.48.785,2.747,2.747,0,0,1,.918,2.207v3.664a4.041,4.041,0,0,0,.336,1.82V0ZM11.969-1.57a1.945,1.945,0,0,0,.922-.223,1.462,1.462,0,0,0,.625-.6V-3.844h-.844q-1.7,0-1.8,1.172l-.008.133a.9.9,0,0,0,.3.7A1.153,1.153,0,0,0,11.969-1.57Zm9.063-.094a1.481,1.481,0,0,0,1.016-.344,1.2,1.2,0,0,0,.406-.914H24.57A2.9,2.9,0,0,1,24.1-1.348,3.093,3.093,0,0,1,22.84-.238a3.949,3.949,0,0,1-1.77.395A3.67,3.67,0,0,1,18.211-1,4.56,4.56,0,0,1,17.164-4.18v-.148A4.508,4.508,0,0,1,18.2-7.445a3.627,3.627,0,0,1,2.852-1.164,3.555,3.555,0,0,1,2.543.9,3.2,3.2,0,0,1,.973,2.4H22.453a1.551,1.551,0,0,0-.406-1.072,1.354,1.354,0,0,0-1.031-.412,1.36,1.36,0,0,0-1.191.575,3.333,3.333,0,0,0-.4,1.866v.235a3.375,3.375,0,0,0,.4,1.878A1.377,1.377,0,0,0,21.031-1.664ZM28.242,0H25.977V-8.453h2.266Zm-2.4-10.641a1.112,1.112,0,0,1,.34-.836,1.277,1.277,0,0,1,.926-.328,1.28,1.28,0,0,1,.922.328,1.105,1.105,0,0,1,.344.836,1.108,1.108,0,0,1-.348.844,1.283,1.283,0,0,1-.918.328,1.283,1.283,0,0,1-.918-.328A1.108,1.108,0,0,1,25.844-10.641ZM29.75-4.3a5.013,5.013,0,0,1,.484-2.242A3.546,3.546,0,0,1,31.629-8.07a4.069,4.069,0,0,1,2.113-.539,3.849,3.849,0,0,1,2.793,1.047,4.2,4.2,0,0,1,1.207,2.844l.016.578A4.418,4.418,0,0,1,36.672-1.02,3.775,3.775,0,0,1,33.758.156,3.793,3.793,0,0,1,30.84-1.016,4.5,4.5,0,0,1,29.75-4.2Zm2.258.16A3.16,3.16,0,0,0,32.461-2.3a1.5,1.5,0,0,0,1.3.638,1.5,1.5,0,0,0,1.281-.63A3.457,3.457,0,0,0,35.5-4.309a3.128,3.128,0,0,0-.461-1.831,1.5,1.5,0,0,0-1.3-.649,1.474,1.474,0,0,0-1.281.646A3.516,3.516,0,0,0,32.008-4.144ZM34.188-12h2.461L34.484-9.578H32.648Zm7.039,3.547.07.977a2.951,2.951,0,0,1,2.43-1.133,2.453,2.453,0,0,1,2,.789A3.682,3.682,0,0,1,46.4-5.461V0H44.141V-5.406a1.465,1.465,0,0,0-.312-1.043,1.4,1.4,0,0,0-1.039-.324,1.553,1.553,0,0,0-1.43.813V0H39.1V-8.453ZM-56.555,13.711a5.094,5.094,0,0,1,.887-3.148,2.877,2.877,0,0,1,2.426-1.172,2.589,2.589,0,0,1,2.039.922V6h2.266V18h-2.039l-.109-.9a2.657,2.657,0,0,1-2.172,1.055,2.869,2.869,0,0,1-2.395-1.176A5.258,5.258,0,0,1-56.555,13.711Zm2.258.168a3.337,3.337,0,0,0,.414,1.823,1.349,1.349,0,0,0,1.2.634,1.511,1.511,0,0,0,1.477-.884V12.111a1.489,1.489,0,0,0-1.461-.884Q-54.3,11.227-54.3,13.879Zm11,4.277a4.15,4.15,0,0,1-3.027-1.141,4.054,4.054,0,0,1-1.168-3.039v-.219A5.106,5.106,0,0,1-47,11.48a3.612,3.612,0,0,1,1.395-1.547,3.914,3.914,0,0,1,2.059-.543,3.508,3.508,0,0,1,2.73,1.094,4.444,4.444,0,0,1,1,3.1v.922H-45.2a2.1,2.1,0,0,0,.66,1.328,2,2,0,0,0,1.395.5,2.437,2.437,0,0,0,2.039-.945L-40,16.633a3.389,3.389,0,0,1-1.375,1.121A4.511,4.511,0,0,1-43.3,18.156Zm-.258-6.945a1.411,1.411,0,0,0-1.09.455,2.357,2.357,0,0,0-.535,1.3h3.141v-.181a1.681,1.681,0,0,0-.406-1.165A1.456,1.456,0,0,0-43.555,11.211ZM-32.172,18h-2.266V6h2.266Zm6.758,0a2.507,2.507,0,0,1-.227-.758,2.732,2.732,0,0,1-2.133.914,3,3,0,0,1-2.059-.719,2.312,2.312,0,0,1-.816-1.812,2.389,2.389,0,0,1,1-2.062,4.915,4.915,0,0,1,2.879-.727h1.039v-.484a1.393,1.393,0,0,0-.3-.937,1.183,1.183,0,0,0-.949-.352,1.345,1.345,0,0,0-.895.273.929.929,0,0,0-.324.75h-2.258a2.268,2.268,0,0,1,.453-1.359,3,3,0,0,1,1.281-.98,4.669,4.669,0,0,1,1.859-.355,3.689,3.689,0,0,1,2.48.785,2.747,2.747,0,0,1,.918,2.207v3.664a4.041,4.041,0,0,0,.336,1.82V18Zm-1.867-1.57a1.945,1.945,0,0,0,.922-.223,1.462,1.462,0,0,0,.625-.6V14.156h-.844q-1.7,0-1.8,1.172l-.008.133a.9.9,0,0,0,.3.7A1.153,1.153,0,0,0-27.281,16.43Zm11.609-6.883.07.977a2.951,2.951,0,0,1,2.43-1.133,2.453,2.453,0,0,1,2,.789,3.682,3.682,0,0,1,.672,2.359V18h-2.258V12.594a1.465,1.465,0,0,0-.312-1.043,1.4,1.4,0,0,0-1.039-.324,1.553,1.553,0,0,0-1.43.813V18H-17.8V9.547ZM-3.891,18a2.507,2.507,0,0,1-.227-.758,2.732,2.732,0,0,1-2.133.914,3,3,0,0,1-2.059-.719,2.312,2.312,0,0,1-.816-1.812,2.389,2.389,0,0,1,1-2.062,4.915,4.915,0,0,1,2.879-.727h1.039v-.484a1.393,1.393,0,0,0-.3-.937,1.183,1.183,0,0,0-.949-.352,1.345,1.345,0,0,0-.895.273.929.929,0,0,0-.324.75H-8.937a2.268,2.268,0,0,1,.453-1.359A3,3,0,0,1-7.2,9.746a4.669,4.669,0,0,1,1.859-.355,3.689,3.689,0,0,1,2.48.785,2.747,2.747,0,0,1,.918,2.207v3.664a4.041,4.041,0,0,0,.336,1.82V18Zm-1.867-1.57a1.945,1.945,0,0,0,.922-.223,1.462,1.462,0,0,0,.625-.6V14.156h-.844q-1.7,0-1.8,1.172l-.008.133a.9.9,0,0,0,.3.7A1.153,1.153,0,0,0-5.758,16.43Zm8.25-8.961V9.547H3.938V11.2H2.492v4.219a1.007,1.007,0,0,0,.18.672.9.9,0,0,0,.688.2,3.6,3.6,0,0,0,.664-.055v1.711a4.648,4.648,0,0,1-1.367.2,2.156,2.156,0,0,1-2.422-2.4V11.2H-1V9.547H.234V7.469Zm7.766,9.672a2.831,2.831,0,0,1-2.312,1.016,2.67,2.67,0,0,1-2.074-.781,3.335,3.335,0,0,1-.73-2.289V9.547H7.4v5.467q0,1.322,1.2,1.322a1.63,1.63,0,0,0,1.578-.8V9.547h2.266V18H10.32ZM18.9,11.664a6.134,6.134,0,0,0-.812-.062,1.654,1.654,0,0,0-1.68.867V18H14.148V9.547h2.133l.063,1.008a2.092,2.092,0,0,1,1.883-1.164,2.366,2.366,0,0,1,.7.1ZM24.648,18a2.507,2.507,0,0,1-.227-.758,2.732,2.732,0,0,1-2.133.914,3,3,0,0,1-2.059-.719,2.312,2.312,0,0,1-.816-1.812,2.389,2.389,0,0,1,1-2.062,4.915,4.915,0,0,1,2.879-.727h1.039v-.484a1.393,1.393,0,0,0-.3-.937,1.183,1.183,0,0,0-.949-.352,1.345,1.345,0,0,0-.895.273.929.929,0,0,0-.324.75H19.6a2.268,2.268,0,0,1,.453-1.359,3,3,0,0,1,1.281-.98A4.669,4.669,0,0,1,23.2,9.391a3.689,3.689,0,0,1,2.48.785,2.747,2.747,0,0,1,.918,2.207v3.664a4.041,4.041,0,0,0,.336,1.82V18Zm-1.867-1.57a1.945,1.945,0,0,0,.922-.223,1.462,1.462,0,0,0,.625-.6V14.156h-.844q-1.7,0-1.8,1.172l-.008.133a.9.9,0,0,0,.3.7A1.153,1.153,0,0,0,22.781,16.43ZM30.711,18H28.445V6h2.266Zm5.75.156a4.15,4.15,0,0,1-3.027-1.141,4.054,4.054,0,0,1-1.168-3.039v-.219a5.106,5.106,0,0,1,.492-2.277,3.612,3.612,0,0,1,1.395-1.547,3.914,3.914,0,0,1,2.059-.543,3.508,3.508,0,0,1,2.73,1.094,4.444,4.444,0,0,1,1,3.1v.922H34.555a2.1,2.1,0,0,0,.66,1.328,2,2,0,0,0,1.395.5,2.437,2.437,0,0,0,2.039-.945l1.109,1.242a3.389,3.389,0,0,1-1.375,1.121A4.511,4.511,0,0,1,36.461,18.156ZM36.2,11.211a1.411,1.411,0,0,0-1.09.455,2.357,2.357,0,0,0-.535,1.3h3.141v-.181a1.681,1.681,0,0,0-.406-1.165A1.456,1.456,0,0,0,36.2,11.211Zm7.609,4.969h4.133V18H40.93V16.625l3.977-5.258H41.047V9.547H47.82v1.33ZM54.258,18a2.507,2.507,0,0,1-.227-.758,2.732,2.732,0,0,1-2.133.914,3,3,0,0,1-2.059-.719,2.312,2.312,0,0,1-.816-1.812,2.389,2.389,0,0,1,1-2.062,4.915,4.915,0,0,1,2.879-.727h1.039v-.484a1.393,1.393,0,0,0-.3-.937,1.183,1.183,0,0,0-.949-.352,1.345,1.345,0,0,0-.895.273.929.929,0,0,0-.324.75H49.211a2.268,2.268,0,0,1,.453-1.359,3,3,0,0,1,1.281-.98A4.669,4.669,0,0,1,52.8,9.391a3.689,3.689,0,0,1,2.48.785,2.747,2.747,0,0,1,.918,2.207v3.664a4.041,4.041,0,0,0,.336,1.82V18Zm-1.867-1.57a1.945,1.945,0,0,0,.922-.223,1.462,1.462,0,0,0,.625-.6V14.156h-.844q-1.7,0-1.8,1.172l-.008.133a.9.9,0,0,0,.3.7A1.153,1.153,0,0,0,52.391,16.43Z" transform="translate(380 4120.133)"/>
    <g id="Enmascarar_grupo_319" data-name="Enmascarar grupo 319" transform="translate(-7 2078.133)" clip-path="url(#clip-path)">
      <g id="Grupo_1073011" data-name="Grupo 1073011" transform="translate(328 1895.867)">
        <g id="Grupo_1073010" data-name="Grupo 1073010" clip-path="url(#clip-path-2)">
          <path id="Trazado_819385" data-name="Trazado 819385" d="M117.235,82.744c-.63.54-.6,1.376-.888,2.064a9.664,9.664,0,0,1-4.9,5.5,4.637,4.637,0,0,1-.682.37c-2.411.608-3.225,2.335-3.646,4.621a56.782,56.782,0,0,1-2.048,7.68,7.93,7.93,0,0,1-6.363,5.437,10.588,10.588,0,0,1-4,.028c-.944-.165-1.6.815-2.407,1.231a35.111,35.111,0,0,0-3.347,2.155,4.827,4.827,0,0,1-3.04.905,4.633,4.633,0,0,0-2.906.89,22.532,22.532,0,0,1-4.377,2.592,6.1,6.1,0,0,1-5.794-.8,1.32,1.32,0,0,0-1.618-.063,7.121,7.121,0,0,1-4.132,1.1,5.116,5.116,0,0,1-4.356-2.678,18.446,18.446,0,0,1-1.37-2.773c-.159-.37-.322-.552-.724-.549-1.412.01-2.826.038-4.237-.015-.471-.017-.582.273-.716.545-.4.826-.743,1.683-1.148,2.508a6.037,6.037,0,0,1-7.7,2.415,3.173,3.173,0,0,0-3.5-.066,5.641,5.641,0,0,1-6.259-.331c-1.307-.916-2.749-1.719-4.156-2.528a1.114,1.114,0,0,0-.615-.218c-2.6.389-4.558-1.025-6.559-2.318-.282-.182-.566-.365-.832-.57a5.172,5.172,0,0,0-4.112-1.314,8.269,8.269,0,0,1-8.768-5.421c-.839-2.356-1.358-4.828-2-7.254-.264-1-.468-2.019-.706-3.027a1.763,1.763,0,0,0-1.068-1.188c-1.963-.963-4.028-1.743-5.525-3.482A9.923,9.923,0,0,1,.027,82.34c-.136-2.8.2-5.54,2.276-7.937q4.4-5.075,8.736-10.221c.875-1.041,1.16-2.516,2.28-3.413a44.88,44.88,0,0,1,6.788-4.79c1.276-.682,2.5-1.511,3.752-2.263a111.329,111.329,0,0,1,12.775-6.735C38.828,46.02,41,45,43.242,44.164c1.613-.6,3.313-1,4.923-1.577a45.006,45.006,0,0,1,5.653-1.437c.936-.205,1.878-.394,2.827-.516.427-.055.6-.162.581-.61-.031-.79-.009-1.583-.009-2.176H52.491a16.915,16.915,0,0,1-5.171-.919,14.483,14.483,0,0,1-5.533-3.389,15.96,15.96,0,0,1-4.34-5.549c-.55-1.413-1.691-2.678-1.359-4.416.07-.365-.341-.844-.437-1.335-.272-1.381-.041-1.747,1.319-2.041A19.566,19.566,0,0,1,48.53,21.387a15.9,15.9,0,0,1,7.753,6.558,5.375,5.375,0,0,0,.934,1.04V19.928c0-.993-.067-1.991.02-2.976.075-.852-.329-.989-.984-.845a11.612,11.612,0,0,1-8.172-1.4,15.115,15.115,0,0,1-6.5-6.876,14.607,14.607,0,0,1-1.762-5.986C39.777.756,40.292.42,41.369.254a18.513,18.513,0,0,1,5.386.03,13.373,13.373,0,0,1,5.366,1.88,16.817,16.817,0,0,1,6.3,7.848,21.621,21.621,0,0,1,4.222-6.135A13.865,13.865,0,0,1,69.3.31,21.942,21.942,0,0,1,75.064.074c1.7.057,2.386,1.148,2.084,2.8a18.119,18.119,0,0,1-6.093,10.493c-.114.1-.2.272-.333.3-1.66.426-2.82,1.834-4.541,2.2a18.745,18.745,0,0,1-5.144.426c-.857-.054-1.142.152-1.126,1.081.062,3.733.025,7.469.025,11.428,1.025-1.27,1.828-2.457,2.805-3.512a16.757,16.757,0,0,1,8.613-5,13.481,13.481,0,0,1,6.572-.35,6.8,6.8,0,0,0,1.484.031c1.593.048,1.935.63,1.895,2.18a14,14,0,0,1-2.846,7.648A16.857,16.857,0,0,1,75.4,33.36a18.838,18.838,0,0,1-4.024,2.8,18.334,18.334,0,0,1-8.165,1.91,14.32,14.32,0,0,1-2.905-.309c-.512-.122-.594-.075-.571.384.006.114,0,.229,0,.344.013,2.071-.2,1.747,1.79,1.924a35.739,35.739,0,0,1,5.274.751,35.181,35.181,0,0,1,4.673,1.254c2.233.882,4.551,1.507,6.73,2.617,1.956,1,4.011,1.861,5.956,2.906,2.858,1.535,5.7,3.114,8.461,4.811,3.238,1.989,6.407,4.095,9.566,6.21a9.2,9.2,0,0,1,3.876,4.892,6.008,6.008,0,0,0,1.334,2.035c2.408,2.77,4.862,5.5,7.29,8.252a9.166,9.166,0,0,1,2.079,4.007,1.411,1.411,0,0,0,.471.936Zm-95.086.238c.415,1.264,1.09,2.45.977,4,.505-.317.818-.517,1.134-.711a6.685,6.685,0,0,1,8.759,1.3c.926,1.115,1.631,2.186,3.223,1.133.112-.074.3-.018.449-.051a7.057,7.057,0,0,1,8.236,4.89c.248.98.709,1.061,1.565,1.147A6.343,6.343,0,0,1,52,98.33a3.251,3.251,0,0,0,1.469,1.625,6.7,6.7,0,0,1,3.652,7.428c-.045.3-.114.6.16.674a3.971,3.971,0,0,0,2.466,0c.589-.237.04-.938,0-1.435a3.233,3.233,0,0,1,0-.8,7.355,7.355,0,0,1,4.117-5.912,2.018,2.018,0,0,0,1.105-1.2,6.2,6.2,0,0,1,5.2-3.947A2.179,2.179,0,0,0,72.366,93c.976-3.124,6.086-5.925,9.661-3.921.606.34.789.132,1.1-.375a6.718,6.718,0,0,1,6.018-3.461,7.5,7.5,0,0,1,4.666,1.637A8.321,8.321,0,0,1,97.249,80.8c1.253-.927,2.368-2.04,3.558-3.053a5.374,5.374,0,0,0,1.517-2.225c1.22-3.107,1.454-6.392,1.855-9.649a3.511,3.511,0,0,0-.6-2.387,9.7,9.7,0,0,0-2.617-2.669c-3.54-2.4-7.035-4.862-10.721-7.045-3.13-1.855-6.371-3.489-9.587-5.182a58.986,58.986,0,0,0-15.759-5.639,11.8,11.8,0,0,0-4.172-.316c-.552.107-.806.189-.789.8.037,1.3.011,2.595.011,3.892,0,1.8,0,1.77-1.834,1.77-.7,0-.931-.188-.907-.9.051-1.525.013-3.052.016-4.579,0-.4.021-.692-.57-.738a7.314,7.314,0,0,0-2.945.365c-2.162.777-4.43,1.123-6.589,1.895-1.869.668-3.833,1.17-5.652,1.887-2.242.884-4.4,2.1-6.577,3.19-3.056,1.529-6.1,3.085-9.02,4.858q-3.87,2.346-7.77,4.643a11.507,11.507,0,0,0-4.368,4.282,6.333,6.333,0,0,0-.51,5.142c.515,1.686.5,3.5,1.167,5.16a8,8,0,0,0,2.007,3.488,58.267,58.267,0,0,1,5.757,5.2m-1.823,3.861a3.621,3.621,0,0,0-1.434-3.354c-1.2-1.088-2.388-2.2-3.681-3.171a9.778,9.778,0,0,1-3.2-4.379A34.853,34.853,0,0,1,10.7,70.162c-.131-.606-.4-.972-.995-.284C8.026,71.82,6.3,73.718,4.632,75.672,3.008,77.58,2.052,79.719,2.718,82.3c.551,2.132,1.339,4.179,3.38,5.31,2.2,1.22,4.491,2.285,6.757,3.386,1.1.536,2.287,1.192,3.5.863,2-.542,4.186-2.187,3.966-5.013m81.253,4.834a3.11,3.11,0,0,0,2.027-.485c2.132-1.056,4.235-2.176,6.4-3.165a7.58,7.58,0,0,0,4.165-5.1,7.182,7.182,0,0,0-1.116-6.462,47.737,47.737,0,0,0-3.195-3.721c-.8-.908-1.626-1.8-2.442-2.693-.309-.339-.768-.632-1.012-.123-.23.478-.708,1.125-.564,1.488.4,1.014-.1,1.846-.323,2.693-.43,1.633-.688,3.436-1.9,4.678a54.964,54.964,0,0,1-4.942,4.3C97.093,84.354,96.2,86.418,96.7,87.99a4.857,4.857,0,0,0,4.876,3.687m-69.256-.548c-.242-.38-.483-.761-.726-1.14-1.54-2.4-3.624-2.6-6.017-1.372-1.226.63-1.619,2.008-2.475,2.979-.987,1.12-1.575,2.542-2.678,3.594a1.494,1.494,0,0,1-1.467.349.9.9,0,0,1-.694-1.035c.023-.292.1-.6-.466-.43A7.078,7.078,0,0,1,12.966,94c-.183-.075-.725-.262-.541.422.675,2.515,1.225,5.067,1.988,7.554a5.951,5.951,0,0,0,5.842,4.115,6.535,6.535,0,0,0,5.085-2.888c1.513-2.037,3.033-4.076,4.41-6.2,1.133-1.751,2.956-3.268,2.572-5.868M96.848,105.89c2.38.33,5.358-1.763,5.969-4.511.491-2.208.97-4.428,1.661-6.577.363-1.128-.138-.911-.736-.726a7.984,7.984,0,0,1-4.308.135c-.136-.033-.326-.344-.554.134-.781,1.641-1.847,1.69-2.888.217-1.1-1.554-2.2-3.108-3.269-4.679-1.391-2.037-3.118-2.173-5.036-1.723-2.628.616-3.635,4.193-2.065,6.387q3.062,4.279,6.065,8.6a5.6,5.6,0,0,0,5.161,2.744M31.552,110c2.5.156,3.967-1.142,5.012-3.108,1.764-3.318,3.514-6.643,5.312-9.943a3.467,3.467,0,0,0-.75-4.514A5.677,5.677,0,0,0,39.4,91.424c-2.026-.7-3.74-.449-4.6,1.951a9.146,9.146,0,0,1-.756,2.069c-2.089,3.094-4.266,6.129-6.377,9.208-.61.89-2.09,1.591-1.874,2.457.188.754,1.72,1.118,2.564,1.775A4.182,4.182,0,0,0,31.552,110m60.065-3.046a3.87,3.87,0,0,1-1.421-1.288c-1.871-2.611-3.778-5.2-5.607-7.838a12.236,12.236,0,0,1-2.441-4.713,2.163,2.163,0,0,0-1.244-1.495,4.261,4.261,0,0,0-4.6.563c-1.7,1.177-2.169,2.708-1.215,4.521,1.889,3.593,3.825,7.162,5.742,10.741a4.954,4.954,0,0,0,6.645,2.126,42.581,42.581,0,0,0,4.139-2.618m-15.1-84.435a19.15,19.15,0,0,0-5.048.6,13.834,13.834,0,0,0-7.388,4.842,25.208,25.208,0,0,0-3.51,6.059c-.124.277-.52.918.317,1.038a14.784,14.784,0,0,0,11.33-2.545A15.059,15.059,0,0,0,78.126,24.6c.61-2.113.711-2.084-1.5-2.083h-.114M53.371,35.347c.984-.084,1.962-.183,2.942-.246.449-.029.486-.225.365-.593a17.915,17.915,0,0,0-5.4-8.367,16.538,16.538,0,0,0-12.239-3.654c-.761.051-.647.424-.512.9a16.94,16.94,0,0,0,1.686,4.021,15.074,15.074,0,0,0,13.161,7.936m-17.5,76.276c.609.456,1.164.835,1.676,1.264a4.419,4.419,0,0,0,6.56-1c1.926-3.31,3.65-6.739,5.429-10.133a2.2,2.2,0,0,0,.339-1.386,4.079,4.079,0,0,0-5.058-2.925.823.823,0,0,0-.387.361c-1.615,2.963-3.315,5.884-4.791,8.914a13.253,13.253,0,0,1-3.768,4.9M71.1,97.4c-3.025-.021-4.587,2.469-3.247,5.04q2.349,4.509,4.759,8.988a4.191,4.191,0,0,0,5.057,2.241c1.231-.287,2.09-1.231,3.175-1.778.311-.156.181-.319-.1-.558a8.011,8.011,0,0,1-1.791-1.876c-2.128-3.512-3.926-7.2-5.872-10.815-.508-.943-1.068-1.37-1.979-1.241M42.549,2.843a25.106,25.106,0,0,0,1.159,3.321c2.273,4.931,6.736,7.926,12.355,7.4.508-.047.82-.246.623-.8-1.353-3.789-3.265-7.142-7.078-9a11.837,11.837,0,0,0-7.058-.928M62.444,13.555a11.461,11.461,0,0,0,8.988-4.331,24.006,24.006,0,0,0,2.33-3.631,3.4,3.4,0,0,0,.457-2.56C74,2.482,72.775,2.855,72,2.84a10,10,0,0,0-7.884,3.535,22.91,22.91,0,0,0-3.1,4.891c-1.217,2.3-1.279,2.271,1.422,2.289M54.454,106.1a3.408,3.408,0,0,0-1.481-3.19c-.443-.378-.8-.422-1.136.207-1.623,3.072-3.285,6.122-4.914,9.191-.091.172-.407.334-.071.66a3.45,3.45,0,0,0,5.421-.9c.644-1.3,1.12-2.685,1.774-3.98a3.473,3.473,0,0,0,.408-1.984m13.413,7.83c.616.077,1.192-.6,1.929-.829.513-.162.485-.409.263-.819-1.65-3.048-3.295-6.1-4.907-9.167-.292-.555-.63-.574-1.074-.3a4.236,4.236,0,0,0-1.463,4.222c.673,1.7,1.41,3.374,2.179,5.032a3.224,3.224,0,0,0,3.073,1.864" transform="translate(0 0)"/>
          <path id="Trazado_819386" data-name="Trazado 819386" d="M46.272,162.536a58.185,58.185,0,0,0-5.757-5.2,8,8,0,0,1-2.007-3.489c-.668-1.658-.652-3.474-1.167-5.16a6.333,6.333,0,0,1,.51-5.142,11.511,11.511,0,0,1,4.368-4.282q3.9-2.289,7.769-4.643c2.925-1.773,5.965-3.328,9.021-4.858,2.181-1.092,4.335-2.307,6.577-3.19,1.82-.717,3.784-1.219,5.653-1.887,2.158-.771,4.427-1.118,6.588-1.895a7.314,7.314,0,0,1,2.945-.365c.59.046.571.34.57.738,0,1.527.034,3.054-.016,4.579-.024.714.211.9.907.9,1.834,0,1.834.034,1.834-1.77,0-1.3.027-2.6-.01-3.892-.017-.61.237-.691.788-.8a11.81,11.81,0,0,1,4.172.316,58.976,58.976,0,0,1,15.759,5.639c3.216,1.693,6.457,3.327,9.587,5.182,3.686,2.184,7.181,4.646,10.721,7.045a3.2,3.2,0,0,1-.7,1.784,37.414,37.414,0,0,1-10.028,10.945c-.952.7-1.72,1.761-3.049,1.864a26.586,26.586,0,0,1,.456-3.231c.082-.358.28-.925-.252-1.074a3.818,3.818,0,0,0-2.118-.233c-.713.212-.252.922-.417,1.385a5.757,5.757,0,0,0-.33,2.424c.125,1.254,1.447.388,2.021.95.045.044.146.031.221.045-.031.471-.46.6-.758.781-1.136.69-2.281,1.374-3.466,1.976a69.646,69.646,0,0,1-12.944,5.031,74.974,74.974,0,0,1-19.152,2.91,98.827,98.827,0,0,1-10.342-.15,90.825,90.825,0,0,1-10.888-1.561c-2.366-.511-4.712-1.114-7.067-1.677m41.952-23.372c.014-1.076-1.464-.017-1.768-.867a.414.414,0,0,0-.668-.025c-.109.148-.288.305-.293.462-.033,1.206-.328,2.375-.472,3.564-.032.261-.125.736.315.713.589-.03,1.093.277,1.662.276.393,0,.677-.136.736-.545.161-1.114.306-2.231.489-3.578M106,134.671c-.278-.061-.533-.1-.781-.173-1.861-.524-2.021-.414-2.336,1.508-.091.553-.27,1.091-.386,1.64-.069.326-.182.687.3.839a6.044,6.044,0,0,0,1.741.448c.362.006.55-.087.629-.474.255-1.252.548-2.5.836-3.788M100.665,146c-.875.105-1.547.2-2.22.264-1.411.137-1.854.726-1.48,2.1.138.507.242,1.1,1.122.7a5.947,5.947,0,0,1,2-.28c1.7-.115,1.856-.372,1.311-2.068-.161-.5-.369-.8-.733-.719m-27.629,6.162c-1.036.172-2.069.355-3.108.507-.3.044-.586.117-.463.454a7,7,0,0,1,.22,1.786c.039.391.253.5.719.4a18.506,18.506,0,0,1,2.679-.338c.649-.05,1.367-.128,1.116-.962-.2-.654.335-1.933-1.164-1.842m-9.065-16.675c-.581.323-.744.995-1.146,1.468-.371.438-.351.758.189,1.083.908.546,1.774,1.164,2.658,1.749.261.173.461.285.767-.034,1.254-1.3,1.226-1.813-.25-2.811-.435-.294-.878-.575-1.317-.863l-.9-.593m-6.843,16.79c.166-.229-.088-.209-.254-.3-1.544-.807-2.241-.52-2.677,1.122-.172.651-.335,1.306-.511,1.956-.13.484-.015.8.524.907.476.1.936.27,1.413.357.242.045.594.1.674-.247.29-1.241.546-2.489.829-3.8" transform="translate(-24.124 -79.554)" fill="#9a5645"/>
          <path id="Trazado_819387" data-name="Trazado 819387" d="M128.612,189.156c1.329-.1,2.1-1.164,3.049-1.864a37.425,37.425,0,0,0,10.028-10.945,3.2,3.2,0,0,0,.7-1.784,9.713,9.713,0,0,1,2.617,2.669,3.51,3.51,0,0,1,.6,2.387c-.4,3.258-.635,6.543-1.855,9.649a5.369,5.369,0,0,1-1.517,2.225c-1.191,1.013-2.3,2.126-3.558,3.053a8.318,8.318,0,0,0-3.434,6.081,7.5,7.5,0,0,0-4.666-1.637,6.717,6.717,0,0,0-6.018,3.461c-.315.507-.5.715-1.1.375-3.575-2-8.685.8-9.661,3.921a2.18,2.18,0,0,1-2.2,1.763,6.2,6.2,0,0,0-5.2,3.947,2.02,2.02,0,0,1-1.105,1.2,7.355,7.355,0,0,0-4.117,5.912,3.234,3.234,0,0,0,0,.8c.041.5.59,1.2,0,1.435a3.974,3.974,0,0,1-2.466,0c-.273-.076-.2-.377-.159-.674a6.7,6.7,0,0,0-3.652-7.428,3.249,3.249,0,0,1-1.469-1.625,6.343,6.343,0,0,0-5.509-3.641c-.856-.086-1.316-.167-1.565-1.147a7.057,7.057,0,0,0-8.235-4.89c-.148.032-.338-.024-.449.05-1.593,1.053-2.3-.017-3.223-1.133a6.684,6.684,0,0,0-8.758-1.3c-.316.194-.629.394-1.134.711.113-1.547-.562-2.734-.977-4,2.355.562,4.7,1.166,7.067,1.677a90.767,90.767,0,0,0,10.887,1.56,98.736,98.736,0,0,0,10.342.15,74.972,74.972,0,0,0,19.152-2.91,69.646,69.646,0,0,0,12.943-5.031c1.184-.6,2.33-1.285,3.466-1.976.3-.181.727-.31.758-.781l.42-.267" transform="translate(-41.429 -113.75)" fill="#87483c"/>
          <path id="Trazado_819388" data-name="Trazado 819388" d="M25.008,216.856c.22,2.825-1.964,4.47-3.966,5.012-1.218.33-2.4-.326-3.5-.863-2.266-1.1-4.555-2.166-6.757-3.386-2.041-1.131-2.829-3.177-3.38-5.31-.666-2.578.29-4.717,1.914-6.625,1.663-1.954,3.394-3.852,5.072-5.794.6-.688.864-.323,1,.284a34.853,34.853,0,0,0,1.308,5.777,9.773,9.773,0,0,0,3.2,4.379c1.293.97,2.481,2.083,3.681,3.171a3.621,3.621,0,0,1,1.434,3.354" transform="translate(-4.682 -130.012)" fill="#fec8a3"/>
          <path id="Trazado_819389" data-name="Trazado 819389" d="M282.2,221.96a4.857,4.857,0,0,1-4.876-3.687c-.505-1.572.389-3.636,1.971-4.908a54.963,54.963,0,0,0,4.942-4.3c1.213-1.242,1.472-3.045,1.9-4.678.223-.847.726-1.679.323-2.693-.144-.363.334-1.01.564-1.488.244-.509.7-.216,1.012.123.816.9,1.64,1.784,2.442,2.693a47.728,47.728,0,0,1,3.195,3.72,7.183,7.183,0,0,1,1.116,6.463,7.579,7.579,0,0,1-4.165,5.1c-2.163.989-4.266,2.109-6.4,3.165a3.109,3.109,0,0,1-2.026.485" transform="translate(-180.62 -130.282)" fill="#fec8a3"/>
          <path id="Trazado_819390" data-name="Trazado 819390" d="M55.493,255.51c.385,2.6-1.438,4.117-2.572,5.868-1.377,2.129-2.9,4.168-4.41,6.2a6.535,6.535,0,0,1-5.086,2.888,5.951,5.951,0,0,1-5.842-4.114c-.763-2.487-1.314-5.039-1.988-7.554-.183-.684.358-.5.541-.422a7.08,7.08,0,0,0,4.835.077c.563-.165.489.138.466.43a.9.9,0,0,0,.694,1.034,1.494,1.494,0,0,0,1.467-.349c1.1-1.053,1.692-2.474,2.678-3.594.856-.972,1.249-2.349,2.475-2.979,2.393-1.23,4.477-1.023,6.017,1.372.244.379.484.76.726,1.14" transform="translate(-23.17 -164.381)" fill="#fec8a3"/>
          <path id="Trazado_819391" data-name="Trazado 819391" d="M255.608,270.4a5.6,5.6,0,0,1-5.161-2.744q-3-4.323-6.065-8.6c-1.569-2.194-.563-5.771,2.065-6.387,1.918-.45,3.644-.313,5.036,1.723,1.074,1.571,2.171,3.126,3.269,4.679,1.041,1.473,2.107,1.424,2.888-.217.228-.478.418-.167.554-.134a7.985,7.985,0,0,0,4.309-.135c.6-.185,1.1-.4.736.726-.691,2.148-1.17,4.369-1.661,6.577-.612,2.748-3.589,4.841-5.969,4.511" transform="translate(-158.76 -164.51)" fill="#fec8a3"/>
          <path id="Trazado_819392" data-name="Trazado 819392" d="M79.771,280.369a4.183,4.183,0,0,1-3.188-1.112c-.844-.657-2.376-1.022-2.564-1.776-.216-.866,1.263-1.566,1.873-2.457,2.111-3.08,4.288-6.114,6.377-9.208a9.145,9.145,0,0,0,.756-2.069c.856-2.4,2.57-2.651,4.6-1.951a5.669,5.669,0,0,1,1.723,1.007,3.466,3.466,0,0,1,.75,4.514c-1.8,3.3-3.548,6.625-5.312,9.943-1.045,1.966-2.509,3.264-5.012,3.108" transform="translate(-48.22 -170.373)" fill="#fec8a3"/>
          <path id="Trazado_819393" data-name="Trazado 819393" d="M231.165,277.5a42.613,42.613,0,0,1-4.139,2.618,4.954,4.954,0,0,1-6.645-2.126c-1.917-3.579-3.853-7.147-5.743-10.741-.953-1.813-.48-3.343,1.215-4.521a4.26,4.26,0,0,1,4.6-.563,2.163,2.163,0,0,1,1.244,1.495,12.236,12.236,0,0,0,2.441,4.713c1.828,2.641,3.736,5.227,5.607,7.838a3.875,3.875,0,0,0,1.421,1.288" transform="translate(-139.549 -170.546)" fill="#fec8a3"/>
          <path id="Trazado_819394" data-name="Trazado 819394" d="M189.424,64.614h.114c2.21,0,2.109-.03,1.5,2.083a15.056,15.056,0,0,1-5.913,7.913A14.782,14.782,0,0,1,173.8,77.155c-.838-.12-.442-.761-.317-1.038a25.2,25.2,0,0,1,3.51-6.059,13.83,13.83,0,0,1,7.388-4.841,19.208,19.208,0,0,1,5.048-.6" transform="translate(-112.911 -42.101)" fill="#8cc53f"/>
          <path id="Trazado_819395" data-name="Trazado 819395" d="M125.247,77.312a15.074,15.074,0,0,1-13.161-7.936,16.938,16.938,0,0,1-1.685-4.021c-.134-.48-.249-.853.512-.9a16.539,16.539,0,0,1,12.239,3.654,17.917,17.917,0,0,1,5.4,8.367c.121.368.084.564-.365.593-.98.062-1.958.161-2.942.245" transform="translate(-71.877 -41.965)" fill="#8cc53f"/>
          <path id="Trazado_819396" data-name="Trazado 819396" d="M102.961,293.538a13.253,13.253,0,0,0,3.768-4.9c1.476-3.03,3.176-5.952,4.791-8.914a.825.825,0,0,1,.387-.361,4.079,4.079,0,0,1,5.057,2.925,2.192,2.192,0,0,1-.339,1.386c-1.779,3.395-3.5,6.823-5.428,10.134a4.42,4.42,0,0,1-6.56,1c-.513-.429-1.068-.807-1.676-1.264" transform="translate(-67.093 -181.915)" fill="#fec8a3"/>
          <path id="Trazado_819397" data-name="Trazado 819397" d="M197.125,279.561c.911-.13,1.472.3,1.979,1.241,1.946,3.611,3.744,7.3,5.873,10.816a8,8,0,0,0,1.79,1.876c.282.24.412.4.1.558-1.086.546-1.944,1.49-3.175,1.778a4.191,4.191,0,0,1-5.057-2.241q-2.412-4.476-4.759-8.988c-1.34-2.572.223-5.061,3.247-5.04" transform="translate(-126.022 -182.156)" fill="#fec8a3"/>
          <path id="Trazado_819398" data-name="Trazado 819398" d="M122.138,7.862a11.837,11.837,0,0,1,7.058.928c3.813,1.858,5.725,5.211,7.078,9,.2.552-.115.75-.623.8-5.619.523-10.082-2.473-12.355-7.4a25.055,25.055,0,0,1-1.159-3.321" transform="translate(-79.589 -5.018)" fill="#8cc53f"/>
          <path id="Trazado_819399" data-name="Trazado 819399" d="M175.082,18.664c-2.7-.018-2.639.015-1.423-2.289a22.944,22.944,0,0,1,3.1-4.891,10,10,0,0,1,7.884-3.535c.775.015,2-.358,2.218.193a3.4,3.4,0,0,1-.457,2.56,24.029,24.029,0,0,1-2.33,3.63,11.461,11.461,0,0,1-8.988,4.331" transform="translate(-112.639 -5.108)" fill="#8cc53f"/>
          <path id="Trazado_819400" data-name="Trazado 819400" d="M141.807,298.074a3.474,3.474,0,0,1-.408,1.984c-.654,1.3-1.13,2.679-1.774,3.98a3.45,3.45,0,0,1-5.421.9c-.335-.326-.02-.489.071-.66,1.629-3.068,3.291-6.119,4.914-9.191.332-.629.693-.585,1.136-.207a3.409,3.409,0,0,1,1.481,3.19" transform="translate(-87.354 -191.975)" fill="#fec8a3"/>
          <path id="Trazado_819401" data-name="Trazado 819401" d="M184.72,305.92a3.224,3.224,0,0,1-3.073-1.864c-.77-1.658-1.506-3.333-2.179-5.032a4.236,4.236,0,0,1,1.463-4.222c.444-.27.782-.251,1.074.3,1.613,3.067,3.258,6.119,4.907,9.167.222.409.25.657-.263.819-.737.232-1.313.905-1.929.829" transform="translate(-116.854 -191.991)" fill="#fec8a3"/>
          <path id="Trazado_819402" data-name="Trazado 819402" d="M177.955,169.141c-.183,1.347-.327,2.464-.488,3.578-.059.41-.343.544-.736.546-.569,0-1.072-.307-1.661-.276-.441.022-.347-.453-.316-.713.144-1.189.44-2.357.473-3.564,0-.157.183-.314.293-.462a.413.413,0,0,1,.668.025c.3.85,1.782-.209,1.768.867" transform="translate(-113.855 -109.53)"/>
          <path id="Trazado_819403" data-name="Trazado 819403" d="M245.244,207.815l-.42.266c-.075-.014-.175,0-.22-.045-.574-.561-1.9.3-2.021-.95a5.75,5.75,0,0,1,.329-2.424c.165-.464-.3-1.173.418-1.385a3.818,3.818,0,0,1,2.118.233c.532.15.334.716.252,1.074a26.578,26.578,0,0,0-.456,3.231" transform="translate(-158.06 -132.409)"/>
          <path id="Trazado_819404" data-name="Trazado 819404" d="M228.347,157.389c-.288,1.292-.581,2.536-.836,3.788-.079.387-.268.48-.63.474a6.064,6.064,0,0,1-1.741-.449c-.477-.152-.364-.512-.3-.839.116-.549.295-1.087.385-1.64.315-1.922.476-2.032,2.336-1.508.248.07.5.112.781.173" transform="translate(-146.475 -102.271)"/>
          <path id="Trazado_819405" data-name="Trazado 819405" d="M212.556,190.7c.364-.086.572.217.733.719.545,1.7.389,1.953-1.311,2.068a5.955,5.955,0,0,0-2,.28c-.88.4-.984-.2-1.122-.7-.373-1.376.069-1.964,1.48-2.1.673-.066,1.345-.159,2.22-.264" transform="translate(-136.015 -124.259)"/>
          <path id="Trazado_819406" data-name="Trazado 819406" d="M133.67,208.411c1.5-.092.967,1.188,1.164,1.842.251.834-.467.912-1.116.962a18.566,18.566,0,0,0-2.68.338c-.466.106-.68,0-.719-.395a7,7,0,0,0-.22-1.786c-.123-.337.163-.41.463-.454,1.038-.152,2.072-.335,3.108-.507" transform="translate(-84.757 -135.804)"/>
          <path id="Trazado_819407" data-name="Trazado 819407" d="M111.771,160.554c.336.221.618.408.9.593.439.288.882.569,1.317.863,1.476,1,1.5,1.507.25,2.811-.306.318-.506.206-.767.033-.884-.586-1.75-1.2-2.658-1.749-.54-.325-.56-.645-.189-1.083.4-.473.565-1.145,1.146-1.468" transform="translate(-71.923 -104.622)"/>
          <path id="Trazado_819408" data-name="Trazado 819408" d="M88.215,207.384c-.283,1.312-.539,2.561-.829,3.8-.08.345-.433.291-.674.247-.477-.087-.937-.26-1.413-.357-.54-.11-.654-.423-.524-.907.176-.651.338-1.3.511-1.956.435-1.642,1.132-1.93,2.677-1.122.165.086.419.066.254.3" transform="translate(-55.209 -134.663)"/>
        </g>
      </g>
    </g>
  </g>
</svg>
