<svg xmlns="http://www.w3.org/2000/svg" xmlns:xlink="http://www.w3.org/1999/xlink" width="135" height="135" viewBox="0 0 135 135">
  <defs>
    <clipPath id="clip-path">
      <rect id="Rect치ngulo_377696" data-name="Rect치ngulo 377696" width="135" height="135" transform="translate(1180 2584)" fill="#fff" stroke="#707070" stroke-width="1"/>
    </clipPath>
    <clipPath id="clip-path-2">
      <rect id="Rect치ngulo_377697" data-name="Rect치ngulo 377697" width="135" height="123.893" fill="none"/>
    </clipPath>
  </defs>
  <g id="Enmascarar_grupo_368" data-name="Enmascarar grupo 368" transform="translate(-1180 -2584)" clip-path="url(#clip-path)">
    <g id="Grupo_1073447" data-name="Grupo 1073447" transform="translate(1180 2595.107)">
      <g id="Grupo_1073446" data-name="Grupo 1073446" clip-path="url(#clip-path-2)">
        <path id="Trazado_821550" data-name="Trazado 821550" d="M58.1,168.9a11,11,0,0,1-2.865.112c-.785,0-1.569-.106-2.354-.166a1.793,1.793,0,0,0-.633-1.257,2.339,2.339,0,0,0-1.7-.525c-1.669-.027-3.338-.014-5.007,0-.384,0-.673-.058-.59-.537a12.593,12.593,0,0,0-.192-4.936,14.707,14.707,0,0,0-17.451-11.233,14.064,14.064,0,0,0-9.74,7.285,1.846,1.846,0,0,1-1.711.981c-.769.065-.829,0-.829-.77,0-2.217-.021-4.435.008-6.653a35.747,35.747,0,0,1,.1-4.669,3.244,3.244,0,0,1,2.551-2.684,17.687,17.687,0,0,1,1.938-.218c2.657-.33,5.313-.669,7.972-.981,2.239-.263,4.483-.527,6.716-.858a3.16,3.16,0,0,0,2.249-1.294c2.608-3.529,5.252-7.032,7.883-10.544,1.974-2.634,3.958-5.259,5.918-7.9a3.667,3.667,0,0,1,3.324-1.627c.876.044,1.757.023,2.635-.005a1.981,1.981,0,0,0,1.852-1.15c.142-.3.035-.653.226-.938a50.111,50.111,0,0,0,5.234.1,2.033,2.033,0,0,0,2.091,2c.241.01.483.01.724.01,7.312,0,14.625.018,21.937-.02,2.31-.012,3.546.824,4.149,3.285,1.308,5.332,2.652,10.655,3.994,15.979.417,1.655.92,2.035,2.636,2.048,1.8.013,3.6.007,5.4.011a2.483,2.483,0,0,1,1.845.518,2.221,2.221,0,0,1,.539,1.742c.059,4.632.039,9.264.05,13.9a.8.8,0,0,1-.25.645,1.86,1.86,0,0,1-2.052-.487,14.592,14.592,0,0,0-15.571-7.812,14.932,14.932,0,0,0-12.309,14.579c-.014.594.206,1.151.161,1.751-.03.4-.119.5-.531.5-5.006-.02-10.013.012-15.019-.038-1.5-.015-2.777.154-3.3,1.809a.387.387,0,0,1-.03.059m14.321-29.036a1.964,1.964,0,0,0,2.1,1.848c.153.011.307.015.46.015q7.08,0,14.16,0a5.666,5.666,0,0,0,.851-.067,1.9,1.9,0,0,0,1.666-2.426q-1.359-5.543-2.77-11.075a4.046,4.046,0,0,0-4.152-3.133c-3.4-.011-6.805-.006-10.208,0a1.838,1.838,0,0,0-2.062,1.886c-.151,4.3-.061,8.6-.056,12.9l-.023.032ZM55.6,141.73v.006c3.2,0,6.409,0,9.614,0a2.332,2.332,0,0,0,2.3-.976,3.059,3.059,0,0,0,.325-1.592q.011-3.028.007-6.056c0-1.887.017-3.774-.01-5.661-.025-1.711-.772-2.42-2.47-2.42-2.985,0-5.971.036-8.955-.014a4.455,4.455,0,0,0-3.933,1.921c-2.305,3.121-4.655,6.21-6.983,9.315-.618.824-1.278,1.624-1.814,2.5a1.876,1.876,0,0,0,1.457,2.907,9.389,9.389,0,0,0,1.182.07q4.643.009,9.285,0" transform="translate(-7.077 -55.767)" fill="#fea85c"/>
        <path id="Trazado_821551" data-name="Trazado 821551" d="M96.511,132.621a.383.383,0,0,0,.03-.059c.527-1.655,1.808-1.824,3.3-1.809,5.006.049,10.013.017,15.019.038.412,0,.5-.106.531-.5.045-.6-.175-1.157-.161-1.751a14.932,14.932,0,0,1,12.309-14.579,14.592,14.592,0,0,1,15.571,7.812,1.86,1.86,0,0,0,2.052.487.8.8,0,0,0,.25-.645c-.011-4.632.01-9.265-.05-13.9a2.221,2.221,0,0,0-.538-1.742,2.487,2.487,0,0,0-1.845-.518c-1.8,0-3.6,0-5.4-.01-1.716-.012-2.219-.393-2.636-2.048-1.342-5.324-2.686-10.648-3.994-15.979-.6-2.461-1.839-3.3-4.149-3.285-7.312.038-14.624.018-21.937.02-.242,0-.483,0-.724-.01a2.033,2.033,0,0,1-2.091-2,2.636,2.636,0,0,1,.735-1.726c.215-.256.835-.232,1.272-.232q11.683-.006,23.366.012a24.874,24.874,0,0,1,2.759.415c.383.043.736.409,1.091.645a8.175,8.175,0,0,1,3.345,4.931c.345,1.3.616,2.619.941,3.924.513,2.061,1.018,4.125,1.573,6.175.458,1.692.762,3.424,1.34,5.085.014.042.029.084.042.126l.085-.049,3.5.019a.724.724,0,0,0,.6-.008,6.6,6.6,0,0,1,3.815.841,5.584,5.584,0,0,1,2.733,4.327c.32,4.092.061,8.193.136,12.289.017.966.021,1.933-.015,2.9-.014.375.115.438.444.435,1.3-.013,2.591-.005,3.887,0a.776.776,0,0,0,.763-.381,8.4,8.4,0,0,1,4.562-3.475.955.955,0,0,0,.71-.738,11.714,11.714,0,0,1,2.267-4.38,1.027,1.027,0,0,0-.583-1.732,11.658,11.658,0,0,1-5.273-2.324A9.506,9.506,0,0,1,152.693,103a1.932,1.932,0,0,0-1.1-1.7,5.771,5.771,0,0,1-3.122-5.754,5.149,5.149,0,0,1,.223-1.06.39.39,0,0,0-.227-.525,11.378,11.378,0,0,1-4.2-3.712,12.621,12.621,0,0,1-2.264-6.145,6.2,6.2,0,0,1-.049-1.919c.071-.348-.419-.437-.7-.542a10.086,10.086,0,0,1-5.591-5.279,11.157,11.157,0,0,1-.943-3.551,12.96,12.96,0,0,1-2.15.384,5.839,5.839,0,0,1-3.71-1.228,1.879,1.879,0,0,0-1.307-.389,8.2,8.2,0,0,1-4.76-.905,10.859,10.859,0,0,1-5.168-6.132,9.289,9.289,0,0,1-.314-4.817,10.243,10.243,0,0,1,3.373-5.754,7.925,7.925,0,0,1,1.979-1.193c.421-.206.659-.351.532-.956a7.122,7.122,0,0,1,.365-3.177,9.7,9.7,0,0,1,8.069-7.2,10.048,10.048,0,0,1,7.32,1.711c.281.2.515.374.877.132a5.823,5.823,0,0,1,4.859-.718,5.2,5.2,0,0,1,2.06.927.61.61,0,0,0,.9-.038,5.662,5.662,0,0,1,3.3-1.376,1.686,1.686,0,0,1,1.611.8.79.79,0,0,0,.475.3.223.223,0,0,0-.2.278c.113,1.333-.144,1.817-1.267,2.351a10.526,10.526,0,0,0-3.386,2.27,1.488,1.488,0,0,1-1.448.565,2.671,2.671,0,0,1-1.562-1.1c-1.049-1.6-1.359-1.322-2.974-1.16a1.225,1.225,0,0,0-.826.535c-.382.445-.625,1.017-1.262,1.239a2.153,2.153,0,0,1-2.461-.905,4.671,4.671,0,0,0-2.154-1.517,7.579,7.579,0,0,0-3.63-.286,5.987,5.987,0,0,0-4.526,7.261,5.892,5.892,0,0,1,.149.707,1.815,1.815,0,0,1-1.152,2.179c-.46.2-.96.306-1.428.487a5.939,5.939,0,0,0-3.813,6.262,6.05,6.05,0,0,0,7.4,5.2,1.948,1.948,0,0,1,1.917.6,3.661,3.661,0,0,0,.821.751,2.3,2.3,0,0,0,2.706-.154,2.084,2.084,0,0,1,2.614-.012c.365.244.736.478,1.114.7a2.172,2.172,0,0,1,1.159,2.127c-.011.219-.011.439-.023.658a5.915,5.915,0,0,0,5.458,6.111,1.955,1.955,0,0,1,1.84,2.321c-.052.453-.113.906-.172,1.358A8.358,8.358,0,0,0,147.69,88.3a8.746,8.746,0,0,0,4.178,2.961,1.92,1.92,0,0,1,1.47,2.25,2.831,2.831,0,0,1-.609,1.219,2.346,2.346,0,0,0,1.825,3.6,2.059,2.059,0,0,1,2.02,2.479,4.132,4.132,0,0,0,.079,1.894,5.515,5.515,0,0,0,1.341,2.876,5.712,5.712,0,0,0,4.4,2.013,2.175,2.175,0,0,1,2.247,1.06,11.789,11.789,0,0,0,2.059,3.1,1.736,1.736,0,0,1-.2,2.55,3.864,3.864,0,0,1-.458.373,6.262,6.262,0,0,0-2.571,4.727c-.125,1.735-.6,2.267-2.359,2.562a4.522,4.522,0,0,0-2.933,1.415,7.88,7.88,0,0,0-.987,1.621,1.974,1.974,0,0,1-1.837,1.16c-.527.019-1.055.02-1.581,0-.373-.016-.5.119-.489.495.021,1.185.024,2.372,0,3.557-.008.426.122.581.56.577,2.548-.019,5.1.027,7.643-.032a4.268,4.268,0,0,0,4.1-2.779c.67-1.59,1.3-1.943,3.023-1.607a6.508,6.508,0,0,0,7.885-6.49,6.846,6.846,0,0,0-.769-3.147,1.879,1.879,0,0,1,.317-2.274,2.086,2.086,0,0,0,.187-2.5,2.592,2.592,0,0,1-.27-2.371,5.974,5.974,0,0,0,.565-2.452,6.186,6.186,0,0,0-3.383-5.618,2.158,2.158,0,0,1-1.354-1.86,1.959,1.959,0,0,1,1.246-1.848,5.891,5.891,0,0,0,3.372-6.055,5.548,5.548,0,0,0-2.052-4.079c-1.42-1.157-1.6-1.883-.775-3.521a5.823,5.823,0,0,0,.556-3.322,2.554,2.554,0,0,0-.007-.652,2.561,2.561,0,0,1,.795-2.683,6.373,6.373,0,0,0,.772-7.166,12.09,12.09,0,0,0-1.031-1.362,1.81,1.81,0,0,1,.013-2.56c.151-.189.3-.381.455-.564a5.815,5.815,0,0,0,1.058-5.764,5.237,5.237,0,0,0-3.156-3.583c-1.539-.593-1.882-1.753-1.894-3.161a4.976,4.976,0,0,0-1.23-3.154c-1.819-2.185-4.172-2.632-6.846-1.827a2.129,2.129,0,0,1-2.147-.417,9.363,9.363,0,0,0-1.562-1.272,2.3,2.3,0,0,1-1.242-2.687l.012-.013c.088-.018.1-.08.093-.156a1.967,1.967,0,0,1,3.051-.546.557.557,0,0,1,.112.066,2.758,2.758,0,0,0,3.007.713c.235.043.472.106.678-.082a9.9,9.9,0,0,1,9.313,6.186,6.55,6.55,0,0,1,.566,2.111,1.588,1.588,0,0,0,.824,1.3,9.829,9.829,0,0,1,3.011,13.9c-.153.233-.129.307.019.531a9.653,9.653,0,0,1,1.583,4.42,9.986,9.986,0,0,1-2.124,7.144.877.877,0,0,0-.161.609,11.03,11.03,0,0,1-.559,4.73c-.124.3.075.447.227.621a9.846,9.846,0,0,1,2.5,4.938,9.459,9.459,0,0,1-2.59,8.675c-.377.376-.409.56-.043.935a9.351,9.351,0,0,1,2.683,5.321,7.416,7.416,0,0,1-.014,3.133c-.159.542-.231,1.108-.439,1.646-.17.44.186.822.307,1.218a5.463,5.463,0,0,1-.388,4.353.69.69,0,0,0,.01.609,10.624,10.624,0,0,1,.679,3.314,10.234,10.234,0,0,1-4.945,9.181,9.31,9.31,0,0,1-6,1.549,1.054,1.054,0,0,0-1.189.574,8.094,8.094,0,0,1-5.181,3.586,10.745,10.745,0,0,1-2.491.124c-5.622,0-11.243-.023-16.865-.027-.62,0-.77.617-.969.988a14.343,14.343,0,0,1-7.456,6.573,12.594,12.594,0,0,1-4.158.986l-.3.014a14.548,14.548,0,0,1-7.352-1.416,14.859,14.859,0,0,1-6.316-6.124,7.2,7.2,0,0,1-.422-.792c-.148-.343-.437-.234-.679-.235q-3.652-.01-7.305,0c-3.29.006-6.581,0-9.871.036a2.135,2.135,0,0,1-2.248-1.393c-.1-.212.012-.489-.207-.662m51.831-1.859a1.93,1.93,0,0,1,.328.008c.582.112.738-.124.713-.7-.049-1.114-.033-2.233-.005-3.349.01-.418-.091-.564-.535-.551-1.137.033-2.277.011-3.415.011-.839,0-.92.067-.77.865a8.2,8.2,0,0,1,0,3.1c-.081.421.06.643.56.623.984-.038,1.97-.015,2.955-.017l.172,0m-7.515-2.2a10.8,10.8,0,0,0-21.586-.446,10.462,10.462,0,0,0,10.515,11.129c6.4.1,10.8-4.317,11.071-10.682" transform="translate(-45.486 -19.486)"/>
        <path id="Trazado_821552" data-name="Trazado 821552" d="M178.5,104.354a4.13,4.13,0,0,1-.079-1.893,2.059,2.059,0,0,0-2.019-2.479,2.346,2.346,0,0,1-1.825-3.6,2.828,2.828,0,0,0,.609-1.219,1.92,1.92,0,0,0-1.47-2.25,8.743,8.743,0,0,1-4.178-2.961,8.36,8.36,0,0,1-1.767-6.284c.06-.453.12-.9.172-1.358a1.954,1.954,0,0,0-1.84-2.32,5.916,5.916,0,0,1-5.458-6.111c.013-.219.012-.439.023-.658a2.172,2.172,0,0,0-1.159-2.128c-.378-.221-.749-.456-1.114-.7a2.084,2.084,0,0,0-2.614.012,2.3,2.3,0,0,1-2.706.154,3.648,3.648,0,0,1-.821-.751,1.947,1.947,0,0,0-1.917-.6,6.049,6.049,0,0,1-7.4-5.2,5.938,5.938,0,0,1,3.812-6.262c.469-.181.968-.288,1.428-.487a1.816,1.816,0,0,0,1.152-2.179,5.777,5.777,0,0,0-.149-.707A5.987,5.987,0,0,1,153.7,47.1a7.585,7.585,0,0,1,3.63.286,4.671,4.671,0,0,1,2.154,1.517,2.153,2.153,0,0,0,2.461.905c.636-.222.88-.794,1.261-1.239a1.229,1.229,0,0,1,.826-.535c1.616-.162,1.925-.44,2.974,1.16a2.67,2.67,0,0,0,1.562,1.1,1.488,1.488,0,0,0,1.448-.565,10.526,10.526,0,0,1,3.386-2.27c1.123-.533,1.38-1.018,1.267-2.351a.222.222,0,0,1,.2-.278,3.759,3.759,0,0,0,2.218.116c.84-.159,1.573.385,2.378.513a2.979,2.979,0,0,1,.491.166,2.3,2.3,0,0,0,1.242,2.687,9.36,9.36,0,0,1,1.562,1.272A2.128,2.128,0,0,0,184.91,50c2.674-.805,5.026-.358,6.845,1.827a4.974,4.974,0,0,1,1.23,3.153c.012,1.408.355,2.569,1.894,3.161a5.237,5.237,0,0,1,3.156,3.583,5.816,5.816,0,0,1-1.058,5.764c-.158.182-.3.374-.455.564a1.809,1.809,0,0,0-.014,2.559,12.137,12.137,0,0,1,1.031,1.362,6.373,6.373,0,0,1-.772,7.166,2.563,2.563,0,0,0-.795,2.684,2.55,2.55,0,0,1,.007.651,1.558,1.558,0,0,0-.89.906c-.488.98-.967,1.964-1.466,2.938a33.414,33.414,0,0,1-3.391,5.462c-1.492,1.894-2.951,3.818-4.5,5.668a63.341,63.341,0,0,1-6.133,6.218,2.069,2.069,0,0,1-1.1.683m2.062-22.379a5.9,5.9,0,0,0,5.2-3.337,3.529,3.529,0,0,1,1.677-1.676,5.8,5.8,0,0,0,3.292-5.549A1.921,1.921,0,0,0,189.1,69.6a1.872,1.872,0,0,0-2.023,1.132,4.787,4.787,0,0,0-.286,1c-.215,1.379-.637,1.839-2.018,2.064-1.6.26-2.074.9-2.2,2.424a1.9,1.9,0,0,1-.35.909,2.451,2.451,0,0,1-2.037,1,1.918,1.918,0,0,0-1.455,3,2.039,2.039,0,0,0,1.834.851m6.481-24.2a1.969,1.969,0,0,0-1.918-2.079,2,2,0,0,0-2.035,2.033,1.972,1.972,0,0,1-1.825,2.1,10.272,10.272,0,0,0-1.077.259,1.883,1.883,0,0,0-1.135,2.525c.466,1.052,1.349,1.412,2.791,1.162a6.273,6.273,0,0,0,5.2-5.994m2.11,32.729c0-.088,0-.176,0-.263a1.96,1.96,0,0,0-1.758-1.961,1.9,1.9,0,0,0-2.075,1.752c-.027.2-.068.389-.094.584a2.02,2.02,0,0,1-1.541,1.764c-.349.109-.714.169-1.073.245a1.758,1.758,0,0,0-1.52,1.569,2.019,2.019,0,0,0,1.054,2.024,2.351,2.351,0,0,0,1.365.11,6,6,0,0,0,5.642-5.825m-22.544-20.03a3.783,3.783,0,0,0,.4,1.785,6.169,6.169,0,0,0,5.648,3.92,1.862,1.862,0,0,0,1.994-1.674,1.891,1.891,0,0,0-1.881-2.186,2.244,2.244,0,0,1-2.237-1.935,7.433,7.433,0,0,0-.177-.968,1.932,1.932,0,0,0-2.29-1.3c-1,.2-1.507.979-1.461,2.359M155.968,60.1a3.361,3.361,0,0,0,.01.848A6.649,6.649,0,0,0,161.341,66a2.383,2.383,0,0,0,1.7-.3,1.907,1.907,0,0,0,.934-2.128,2.017,2.017,0,0,0-1.855-1.5,2.343,2.343,0,0,1-2.356-2.449,1.9,1.9,0,0,0-2.1-1.792c-1.116.084-1.74.905-1.7,2.273" transform="translate(-67.333 -21.13)" fill="#9b9b9b"/>
        <path id="Trazado_821553" data-name="Trazado 821553" d="M51.329,116.654c-.191.285-.084.643-.226.938a1.981,1.981,0,0,1-1.852,1.15c-.878.028-1.758.05-2.635.005a3.667,3.667,0,0,0-3.324,1.627c-1.959,2.645-3.945,5.27-5.918,7.9-2.632,3.512-5.275,7.015-7.883,10.544a3.16,3.16,0,0,1-2.249,1.294c-2.233.331-4.477.6-6.716.858-2.659.312-5.316.65-7.972.981a17.676,17.676,0,0,0-1.938.218,3.245,3.245,0,0,0-2.551,2.684,35.655,35.655,0,0,0-.1,4.669c-.03,2.217-.008,4.435-.008,6.653,0,.766.06.835.829.77a1.846,1.846,0,0,0,1.71-.981,14.064,14.064,0,0,1,9.74-7.285,14.707,14.707,0,0,1,17.451,11.233,12.6,12.6,0,0,1,.191,4.936c-.083.48.206.539.59.537,1.669-.01,3.338-.023,5.007,0a2.339,2.339,0,0,1,1.7.525,1.793,1.793,0,0,1,.633,1.257c-.1,1.479-.689,2.086-2.221,2.106-2.129.026-4.258,0-6.386-.044a.717.717,0,0,0-.761.441,15.041,15.041,0,0,1-6.36,6.525,14.785,14.785,0,0,1-4.7,1.458,14.813,14.813,0,0,1-3.262.128,14.3,14.3,0,0,1-5.632-1.618,13.692,13.692,0,0,1-5.829-5.694,2.079,2.079,0,0,0-2.286-1.24,32.786,32.786,0,0,1-4.6-.024A3.744,3.744,0,0,1,.2,166.073c-.4-1.486-.059-3.045-.171-4.565a4.2,4.2,0,0,1,.3-2.208,3.832,3.832,0,0,1,2.137-2.068c.467-.141.941-.262,1.412-.392.262.026.3-.1.2-.3l-.049-.136.025-.048-.039-.038Q4,154.725,3.98,153.136a10.607,10.607,0,0,0,0-3.294v-.263c.134-.088.134-.176,0-.263,0-.088,0-.176,0-.264.134-.088.135-.176,0-.263.023-1.271.093-2.544.053-3.812a6.478,6.478,0,0,1,.623-2.541,6.74,6.74,0,0,1,.353-.964,7.956,7.956,0,0,1,.766-.833,7.007,7.007,0,0,1,4.64-2.4c1.914-.242,3.83-.483,5.742-.744,1.252-.171,2.522-.289,3.78-.443a24.132,24.132,0,0,0,3.844-.5,4.937,4.937,0,0,1,1.421-.084c1.18.019,1.722-.688,2.3-1.534.8-1.182,1.733-2.276,2.562-3.441,1.143-1.608,2.359-3.161,3.521-4.754.889-1.219,1.817-2.423,2.749-3.616,1.284-1.644,2.584-3.28,3.779-4.989a7.8,7.8,0,0,1,3.791-2.95,8.24,8.24,0,0,1,2.269-.352c.72-.058,1.452.024,2.172-.032,1.47-.115,2.563.321,2.989,1.858M12.551,163.17a10.5,10.5,0,0,0,10.733,10.7c5.972-.05,10.692-4.1,10.791-10.866a10.566,10.566,0,0,0-11.307-10.654A10.639,10.639,0,0,0,12.551,163.17m-6.2,2.218v0H7.67c.306,0,.665.1.907-.027.411-.211,0-.576.01-.879.048-1.093.008-2.189.022-3.284,0-.3-.065-.422-.4-.417q-1.873.028-3.748,0c-.384-.006-.483.14-.478.5.016,1.2.024,2.411-.01,3.615-.013.44.162.514.536.5.613-.022,1.227-.006,1.841-.006" transform="translate(0 -54.095)"/>
        <path id="Trazado_821554" data-name="Trazado 821554" d="M122.444,12.5a6.329,6.329,0,0,1-3.54,5.981c-.53.3-.511.807-.639,1.206a6.754,6.754,0,0,1-4.107,4.384,5.533,5.533,0,0,1-4.454.034,4.608,4.608,0,0,0-3.384-.12,1.7,1.7,0,0,0-1.063.774,6.055,6.055,0,0,1-4.5,2.59c-2.369.2-4.784-1.937-5.426-3.7a4.538,4.538,0,0,1-.309-2.955.4.4,0,0,0-.157-.459,5.762,5.762,0,0,1-1.912-3.475,6.609,6.609,0,0,1,2.018-6.368A6.159,6.159,0,0,1,98.8,8.626a7.744,7.744,0,0,1,1.483-.1c.418.035.53-.335.647-.524a5.369,5.369,0,0,1,3.084-2.228.506.506,0,0,0,.364-.441,6.537,6.537,0,0,1,5.18-5.142,6.363,6.363,0,0,1,4.192.383,6.612,6.612,0,0,1,3.881,4.487,1.668,1.668,0,0,0,1.079,1.252,6.88,6.88,0,0,1,3.717,4.877,6.378,6.378,0,0,1,.013,1.315m-22.6.1a2.886,2.886,0,0,0-2.819,4.072,3.366,3.366,0,0,0,1.324,1.423,1.886,1.886,0,0,1,.814,2.494,7.786,7.786,0,0,0-.24.751,1.674,1.674,0,0,0,1.9,1.965c1.042-.128,1.382-.765,1.581-1.636a1.894,1.894,0,0,1,2.45-1.643,2.408,2.408,0,0,0,2.193-.485,1.731,1.731,0,0,1,2.5.077c.154.124.3.26.458.375a2.844,2.844,0,0,0,3.241.13,2.6,2.6,0,0,0,1.42-2.466,2.177,2.177,0,0,1,1.564-2.263c.2-.075.4-.176.6-.254a2.521,2.521,0,0,0,1.515-1.509,3,3,0,0,0-2.5-4.094A2.038,2.038,0,0,1,114.021,8c-.172-.656-.017-1.311-.165-1.939a2.975,2.975,0,0,0-2.433-2.044,2.86,2.86,0,0,0-3.131,1.82,3.837,3.837,0,0,0-.2,1.556,2.027,2.027,0,0,1-2.127,2.161c-1.608.1-1.746.184-2.123,1.728-.036.149-.088.293-.137.439a1.987,1.987,0,0,1-2.476,1.12,2.4,2.4,0,0,0-1.384-.248" transform="translate(-43.727 0)"/>
        <path id="Trazado_821555" data-name="Trazado 821555" d="M7.378,181.1a10.607,10.607,0,0,1,0,3.294,9.182,9.182,0,0,1-.1-2.806c0-.123-.193-.392.1-.489" transform="translate(-3.399 -85.352)" fill="#838283"/>
        <path id="Trazado_821556" data-name="Trazado 821556" d="M225.57,46.153c-.206.189-.443.126-.678.083a.385.385,0,0,1,.678-.083" transform="translate(-105.991 -21.674)" fill="#838283"/>
        <path id="Trazado_821557" data-name="Trazado 821557" d="M183.333,154.853a.724.724,0,0,1-.6.008c.194-.317.392-.321.6-.008" transform="translate(-86.124 -72.873)" fill="#838283"/>
        <path id="Trazado_821558" data-name="Trazado 821558" d="M161.575,234l.3-.014c-.05.063-.09.165-.151.18-.1.023-.14-.071-.145-.166" transform="translate(-76.15 -110.278)" fill="#9b9b9b"/>
        <path id="Trazado_821559" data-name="Trazado 821559" d="M7.4,179.1c.135.088.134.176,0,.263q-.291-.131,0-.263" transform="translate(-3.417 -84.412)" fill="#838283"/>
        <path id="Trazado_821560" data-name="Trazado 821560" d="M7.4,180.1c.135.087.134.176,0,.263q-.291-.131,0-.263" transform="translate(-3.417 -84.882)" fill="#838283"/>
        <path id="Trazado_821561" data-name="Trazado 821561" d="M7.529,193.757c.1.209.063.33-.2.3l.2-.3" transform="translate(-3.455 -91.318)" fill="#838283"/>
        <path id="Trazado_821562" data-name="Trazado 821562" d="M213.133,46.019c.01.076,0,.138-.093.156-.026-.086.018-.13.093-.156" transform="translate(-100.402 -21.689)" fill="#9b9b9b"/>
        <path id="Trazado_821563" data-name="Trazado 821563" d="M7.5,193.338l.038.038-.025.048c-.053.019-.11.036-.109-.05,0-.012.063-.024.1-.036" transform="translate(-3.49 -91.12)" fill="#838283"/>
        <path id="Trazado_821564" data-name="Trazado 821564" d="M176,154.97l-.085.049c-.014-.042-.029-.084-.042-.126l.127.078" transform="translate(-82.891 -73)" fill="#838283"/>
        <path id="Trazado_821565" data-name="Trazado 821565" d="M80.879,147.69q-4.643,0-9.285,0a9.38,9.38,0,0,1-1.182-.07,1.876,1.876,0,0,1-1.457-2.907c.536-.876,1.2-1.676,1.814-2.5,2.328-3.106,4.678-6.194,6.983-9.315a4.455,4.455,0,0,1,3.933-1.921c2.984.05,5.97.014,8.955.014,1.7,0,2.445.709,2.47,2.421.027,1.886.01,3.774.01,5.661q0,3.028-.007,6.056a3.053,3.053,0,0,1-.324,1.592,2.332,2.332,0,0,1-2.3.976c-3.2.008-6.409,0-9.613,0Zm8.275-4.444q.006-3.821.011-7.642c0-.047,0-.094,0-.14-.011-.207.083-.461-.236-.531-.04-.073-.079-.066-.118,0q-3.485-.01-6.97-.017c-.342,0-.686-.036-.944.31-2,2.685-4.02,5.359-6.027,8.04-.089.119-.3.254-.064.436a.116.116,0,0,0,.178.028c.394-.007.788-.021,1.183-.022q6.178-.017,12.355-.032c.054.1.11.1.168,0l.374-.066c.219-.075.136-.225.091-.366" transform="translate(-32.352 -61.727)"/>
        <path id="Trazado_821566" data-name="Trazado 821566" d="M123.55,145.786c-.006-4.3-.1-8.6.056-12.9A1.838,1.838,0,0,1,125.667,131c3.4,0,6.806-.01,10.209,0a4.047,4.047,0,0,1,4.152,3.133q1.412,5.53,2.77,11.075a1.9,1.9,0,0,1-1.666,2.426,5.666,5.666,0,0,1-.852.067q-7.08,0-14.16,0c-.154,0-.308,0-.461-.015a1.964,1.964,0,0,1-2.1-1.847l.023-.032Zm10.333-2.085.174,0,3.664,0a.356.356,0,0,0,.518-.048c.206-.117.064-.268.03-.4-.612-2.395-1.248-4.783-1.8-7.192-.083-.362,0-.878-.47-1.109-.076-.081-.154-.117-.241-.013-2.721.036-5.443-.084-8.165.042-.1-.015-.141.015-.1.117,0,.328,0,.656,0,.984q.008,3.771.016,7.542c.007.157.106.147.215.118l.369-.021h.163l5.629-.02" transform="translate(-58.214 -61.737)"/>
        <path id="Trazado_821567" data-name="Trazado 821567" d="M123.557,158.973l.034.02-.023.032-.034-.02Z" transform="translate(-58.222 -74.924)" fill="#838283"/>
        <path id="Trazado_821568" data-name="Trazado 821568" d="M207.256,137.912a2.066,2.066,0,0,0,1.1-.682,63.453,63.453,0,0,0,6.133-6.217c1.551-1.85,3.01-3.774,4.5-5.668a33.412,33.412,0,0,0,3.39-5.462c.5-.974.978-1.959,1.467-2.938a1.557,1.557,0,0,1,.89-.906,5.823,5.823,0,0,1-.556,3.323c-.829,1.638-.644,2.363.775,3.52a5.552,5.552,0,0,1,2.052,4.08,5.892,5.892,0,0,1-3.372,6.055,1.958,1.958,0,0,0-1.246,1.848,2.158,2.158,0,0,0,1.354,1.859,6.186,6.186,0,0,1,3.382,5.618,5.979,5.979,0,0,1-.564,2.451,2.591,2.591,0,0,0,.27,2.372,2.087,2.087,0,0,1-.187,2.5,1.88,1.88,0,0,0-.317,2.275,6.842,6.842,0,0,1,.769,3.146,6.507,6.507,0,0,1-7.885,6.49c-1.726-.335-2.354.017-3.023,1.608a4.27,4.27,0,0,1-4.1,2.779c-2.547.058-5.1.012-7.643.031-.439,0-.569-.152-.561-.577q.033-1.778,0-3.557c-.007-.376.116-.511.49-.495.526.022,1.055.02,1.581,0a1.972,1.972,0,0,0,1.837-1.16,7.886,7.886,0,0,1,.986-1.621,4.523,4.523,0,0,1,2.933-1.415c1.755-.294,2.233-.826,2.358-2.561a6.264,6.264,0,0,1,2.571-4.727,3.927,3.927,0,0,0,.459-.373,1.736,1.736,0,0,0,.2-2.551,11.786,11.786,0,0,1-2.058-3.1A2.174,2.174,0,0,0,213,142.8a5.713,5.713,0,0,1-4.4-2.013,5.51,5.51,0,0,1-1.341-2.877" transform="translate(-96.09 -54.689)" fill="#838283"/>
        <path id="Trazado_821569" data-name="Trazado 821569" d="M161.086,196.661c-.273,6.366-4.666,10.787-11.07,10.682-5.912-.1-10.64-4.5-10.515-11.129a10.8,10.8,0,0,1,21.586.446m-10.753-6.218c-2.9-.331-6.212,2.509-6.248,6.028a6.329,6.329,0,0,0,6.463,6.347,6.194,6.194,0,0,0,5.932-6.74c-.178-3.3-3.62-6.042-6.147-5.635" transform="translate(-65.745 -87.58)" fill="#518ed6"/>
        <path id="Trazado_821570" data-name="Trazado 821570" d="M191.034,206.374c-.985,0-1.971-.021-2.955.017-.5.019-.641-.2-.56-.623a8.2,8.2,0,0,0,0-3.1c-.15-.8-.069-.865.77-.865,1.138,0,2.278.022,3.415-.011.444-.013.545.133.535.551-.027,1.116-.043,2.234.005,3.348.025.575-.131.811-.713.7a1.934,1.934,0,0,0-.328-.008c-.056-.072-.113-.078-.172,0" transform="translate(-88.35 -95.102)" fill="#f8f9fb"/>
        <path id="Trazado_821571" data-name="Trazado 821571" d="M194.219,210.416c.059-.073.116-.068.172,0l-.172,0" transform="translate(-91.535 -99.144)" fill="#518ed6"/>
        <path id="Trazado_821572" data-name="Trazado 821572" d="M212.19,104.027a2.038,2.038,0,0,1-1.833-.851,1.918,1.918,0,0,1,1.454-3,2.45,2.45,0,0,0,2.037-1,1.9,1.9,0,0,0,.35-.909c.128-1.522.605-2.164,2.2-2.424,1.381-.225,1.8-.684,2.019-2.064a4.753,4.753,0,0,1,.285-1,1.871,1.871,0,0,1,2.023-1.132,1.92,1.92,0,0,1,1.628,1.811,5.8,5.8,0,0,1-3.292,5.549,3.528,3.528,0,0,0-1.677,1.677,5.9,5.9,0,0,1-5.2,3.337" transform="translate(-98.961 -43.183)"/>
        <path id="Trazado_821573" data-name="Trazado 821573" d="M219.164,67.465a6.274,6.274,0,0,1-5.2,5.994c-1.442.249-2.325-.11-2.791-1.162a1.883,1.883,0,0,1,1.135-2.525,10.231,10.231,0,0,1,1.077-.259,1.971,1.971,0,0,0,1.825-2.1,2,2,0,0,1,2.035-2.032,1.969,1.969,0,0,1,1.918,2.079" transform="translate(-99.454 -30.816)"/>
        <path id="Trazado_821574" data-name="Trazado 821574" d="M223.215,129.233a6,6,0,0,1-5.642,5.825,2.351,2.351,0,0,1-1.365-.11,2.02,2.02,0,0,1-1.054-2.024,1.758,1.758,0,0,1,1.519-1.569c.359-.076.724-.135,1.073-.245a2.021,2.021,0,0,0,1.541-1.764c.025-.2.066-.389.094-.584a1.9,1.9,0,0,1,2.075-1.752,1.958,1.958,0,0,1,1.758,1.961c0,.087,0,.175,0,.262" transform="translate(-101.395 -59.857)"/>
        <path id="Trazado_821575" data-name="Trazado 821575" d="M187.759,91.194c-.046-1.38.462-2.159,1.461-2.358a1.931,1.931,0,0,1,2.29,1.3,7.409,7.409,0,0,1,.177.967,2.243,2.243,0,0,0,2.237,1.935,1.891,1.891,0,0,1,1.881,2.186,1.861,1.861,0,0,1-1.994,1.674,6.17,6.17,0,0,1-5.648-3.92,3.788,3.788,0,0,1-.4-1.785" transform="translate(-88.483 -41.848)"/>
        <path id="Trazado_821576" data-name="Trazado 821576" d="M167.626,71.67c-.041-1.368.584-2.189,1.7-2.273a1.9,1.9,0,0,1,2.1,1.792,2.343,2.343,0,0,0,2.356,2.449,2.017,2.017,0,0,1,1.855,1.5,1.907,1.907,0,0,1-.934,2.128,2.383,2.383,0,0,1-1.7.3,6.649,6.649,0,0,1-5.363-5.051,3.361,3.361,0,0,1-.01-.848" transform="translate(-78.99 -32.704)"/>
        <path id="Trazado_821577" data-name="Trazado 821577" d="M23.738,196.655a10.762,10.762,0,0,1,21.524-.168c-.1,6.765-4.819,10.817-10.791,10.866a10.5,10.5,0,0,1-10.733-10.7m10.641,6.174a6.326,6.326,0,0,0,6.369-6.253c0-3.612-2.852-6.226-6.957-6.105a5.939,5.939,0,0,0-5.52,6.053,6.263,6.263,0,0,0,6.108,6.306" transform="translate(-11.186 -87.581)" fill="#518ed6"/>
        <path id="Trazado_821578" data-name="Trazado 821578" d="M9.9,206.393c-.614,0-1.228-.016-1.841.006-.374.014-.549-.06-.536-.5.034-1.2.026-2.41.01-3.615,0-.361.094-.506.478-.5q1.874.029,3.748,0c.33,0,.4.115.4.417-.014,1.094.025,2.191-.022,3.284-.013.3.4.668-.01.879-.243.125-.6.026-.907.027H9.9Z" transform="translate(-3.545 -95.1)" fill="#f8f9fb"/>
        <path id="Trazado_821579" data-name="Trazado 821579" d="M103.407,16.178a2.4,2.4,0,0,1,1.384.248,1.987,1.987,0,0,0,2.476-1.12c.049-.146.1-.291.137-.439.377-1.544.515-1.626,2.123-1.728a2.027,2.027,0,0,0,2.128-2.161,3.837,3.837,0,0,1,.2-1.556,2.86,2.86,0,0,1,3.131-1.82,2.975,2.975,0,0,1,2.433,2.044c.149.629-.006,1.283.165,1.939a2.038,2.038,0,0,0,1.831,1.529,3,3,0,0,1,2.5,4.094,2.521,2.521,0,0,1-1.515,1.509c-.2.078-.4.179-.6.254a2.177,2.177,0,0,0-1.564,2.263,2.6,2.6,0,0,1-1.42,2.466,2.844,2.844,0,0,1-3.241-.13c-.159-.116-.3-.252-.458-.375a1.731,1.731,0,0,0-2.5-.077,2.408,2.408,0,0,1-2.193.485,1.894,1.894,0,0,0-2.45,1.643c-.2.872-.539,1.508-1.581,1.636a1.674,1.674,0,0,1-1.9-1.965,7.783,7.783,0,0,1,.24-.751,1.886,1.886,0,0,0-.814-2.494,3.366,3.366,0,0,1-1.324-1.423,2.886,2.886,0,0,1,2.818-4.072" transform="translate(-47.287 -3.58)" fill="#9b9b9b"/>
        <path id="Trazado_821580" data-name="Trazado 821580" d="M94.324,138.446c.319.071.225.324.236.531-.1.047-.1.094,0,.14q0,3.822-.01,7.642c-.151.092-.1.234-.091.366l-.374.066-.168,0q-6.178.015-12.355.032c-.394,0-.788.015-1.183.023-.049-.078-.107-.1-.178-.029-.233-.181-.025-.317.065-.436,2.007-2.682,4.024-5.356,6.027-8.04.259-.347.6-.311.944-.31q3.485,0,6.97.017h.118" transform="translate(-37.748 -65.241)" fill="#f8f9fb"/>
        <path id="Trazado_821581" data-name="Trazado 821581" d="M107.25,154.553c-.011-.133-.059-.274.091-.366.044.141.127.291-.091.366" transform="translate(-50.539 -72.668)" fill="#9b9b9b"/>
        <path id="Trazado_821582" data-name="Trazado 821582" d="M106.238,155l.168,0c-.058.1-.114.1-.168,0" transform="translate(-50.07 -73.051)" fill="#838283"/>
        <path id="Trazado_821583" data-name="Trazado 821583" d="M80.294,155.012c.071-.066.13-.049.179.029a.116.116,0,0,1-.179-.029" transform="translate(-37.842 -73.038)" fill="#838283"/>
        <path id="Trazado_821584" data-name="Trazado 821584" d="M107.39,139.608c-.1-.047-.1-.094,0-.14,0,.047,0,.094,0,.14" transform="translate(-50.578 -65.731)" fill="#9b9b9b"/>
        <path id="Trazado_821585" data-name="Trazado 821585" d="M106.9,138.416h-.118c.039-.066.079-.073.118,0" transform="translate(-50.328 -65.211)" fill="#838283"/>
        <path id="Trazado_821586" data-name="Trazado 821586" d="M139.538,138.453c.469.231.387.748.47,1.109.554,2.41,1.191,4.8,1.8,7.192.034.132.176.282-.03.4a.6.6,0,0,0-.518.047l-3.663,0c-.06-.1-.118-.089-.174,0l-5.629.021c-.054-.106-.108-.1-.163,0l-.368.02a.164.164,0,0,0-.215-.118q-.008-3.771-.016-7.542c0-.328,0-.656,0-.983.084,0,.094-.054.1-.117,2.721-.126,5.443-.006,8.164-.042l.241.013" transform="translate(-61.756 -65.239)" fill="#f8f9fb"/>
        <path id="Trazado_821587" data-name="Trazado 821587" d="M150.381,154.955a.6.6,0,0,1,.518-.047.357.357,0,0,1-.518.047" transform="translate(-70.874 -72.991)" fill="#838283"/>
        <path id="Trazado_821588" data-name="Trazado 821588" d="M131.063,154.875a.164.164,0,0,1,.215.118c-.109.029-.208.039-.215-.118" transform="translate(-61.77 -72.989)" fill="#9b9b9b"/>
        <path id="Trazado_821589" data-name="Trazado 821589" d="M146.905,138.411l-.241-.013c.086-.1.165-.069.241.013" transform="translate(-69.123 -65.197)" fill="#838283"/>
        <path id="Trazado_821590" data-name="Trazado 821590" d="M143.122,154.965c.057-.092.115-.1.174,0l-.174,0" transform="translate(-67.453 -73.001)" fill="#838283"/>
        <path id="Trazado_821591" data-name="Trazado 821591" d="M132.167,155c.054-.1.108-.105.163,0h-.163" transform="translate(-62.29 -73.013)" fill="#9b9b9b"/>
        <path id="Trazado_821592" data-name="Trazado 821592" d="M131.12,138.531c0,.063-.014.121-.1.117-.042-.1,0-.133.1-.117" transform="translate(-61.743 -65.288)" fill="#9b9b9b"/>
        <path id="Trazado_821593" data-name="Trazado 821593" d="M154.42,194.523c2.527-.407,5.97,2.34,6.147,5.635a6.194,6.194,0,0,1-5.932,6.74,6.329,6.329,0,0,1-6.463-6.347c.035-3.519,3.35-6.359,6.248-6.028m-.069,3.94a2.057,2.057,0,0,0-2.262,2.208,2.212,2.212,0,0,0,2.331,2.3c1.387-.012,2.213-.978,2.2-2.578a2.045,2.045,0,0,0-2.273-1.926" transform="translate(-69.834 -91.66)"/>
        <path id="Trazado_821594" data-name="Trazado 821594" d="M38.422,206.963a6.263,6.263,0,0,1-6.108-6.306,5.94,5.94,0,0,1,5.52-6.053c4.105-.121,6.962,2.494,6.957,6.106a6.326,6.326,0,0,1-6.369,6.253m2.3-6.141a2.037,2.037,0,0,0-1.937-2.3c-1.614-.008-2.558.8-2.568,2.2a2.27,2.27,0,0,0,2.192,2.308,2.027,2.027,0,0,0,2.314-2.2" transform="translate(-15.23 -91.715)"/>
        <path id="Trazado_821595" data-name="Trazado 821595" d="M157.843,202.011a2.045,2.045,0,0,1,2.273,1.926c.008,1.6-.818,2.566-2.2,2.578a2.212,2.212,0,0,1-2.331-2.3,2.057,2.057,0,0,1,2.262-2.208" transform="translate(-73.325 -95.208)" fill="#9b9b9b"/>
        <path id="Trazado_821596" data-name="Trazado 821596" d="M44.2,204.314a2.027,2.027,0,0,1-2.314,2.2,2.27,2.27,0,0,1-2.192-2.308c.011-1.4.954-2.205,2.568-2.2a2.037,2.037,0,0,1,1.937,2.3" transform="translate(-18.706 -95.207)" fill="#9b9b9b"/>
      </g>
    </g>
  </g>
</svg>
