<svg xmlns="http://www.w3.org/2000/svg" xmlns:xlink="http://www.w3.org/1999/xlink" width="144" height="144" viewBox="0 0 144 144">
  <defs>
    <clipPath id="clip-path">
      <rect id="Rect치ngulo_377749" data-name="Rect치ngulo 377749" width="144" height="144" transform="translate(299 5681)" fill="none" stroke="#707070" stroke-width="1"/>
    </clipPath>
    <clipPath id="clip-path-2">
      <rect id="Rect치ngulo_377693" data-name="Rect치ngulo 377693" width="137" height="136.922" fill="none"/>
    </clipPath>
  </defs>
  <g id="Enmascarar_grupo_380" data-name="Enmascarar grupo 380" transform="translate(-299 -5681)" clip-path="url(#clip-path)">
    <g id="Grupo_1073507" data-name="Grupo 1073507" transform="translate(302 5685)">
      <g id="Grupo_1073440" data-name="Grupo 1073440" clip-path="url(#clip-path-2)">
        <path id="Trazado_821522" data-name="Trazado 821522" d="M54.079,71.769a10.564,10.564,0,0,1,2.315,1.389,47.592,47.592,0,0,1,4.043,3.088,51.449,51.449,0,0,1,3.973,3.986,42.3,42.3,0,0,1,4.826,6.614,39.453,39.453,0,0,1,3.839,8.581,46.7,46.7,0,0,1,1.5,6.685,35.41,35.41,0,0,1,.522,6.882c0,.067-.009.133-.014.2-.1,1.259-.1,1.256,1.217,1.255,5.279,0,10.559-.014,15.838.006.576,0,.709-.18.707-.72-.019-5.925.065-11.852-.058-17.775a32.531,32.531,0,0,1,.759-7.161,23.345,23.345,0,0,1,3.206-7.927,17.891,17.891,0,0,1,1.6-2.277.54.54,0,0,0,.063-.756q-1.8-2.951-3.563-5.929c-.267-.45-.533-.491-.958-.185a16.648,16.648,0,0,1-6.791,2.7,21.246,21.246,0,0,1-4.175.211,16.3,16.3,0,0,1-4.467-.6,16.59,16.59,0,0,1-7.751-4.693,19.23,19.23,0,0,1-3.644-5.6,7.781,7.781,0,0,1-.577-1.666c-.1-.631-.528-.67-.967-.7a4.47,4.47,0,0,1-3.831-2.592,25.794,25.794,0,0,1-1.371-3.226,32.8,32.8,0,0,0-1.857-4.519,7.567,7.567,0,0,1-.9-3.925,4.653,4.653,0,0,1,1.378-2.925c.2-.229.242-.34.138-.593-.293-.714-.565-1.437-.841-2.159-.084-.219-.182-.383-.459-.4-1.554-.121-3.107-.248-4.658-.395-.674-.064-1.344-.173-2.013-.278-1.117-.175-2.254-.156-3.366-.4a11.122,11.122,0,0,1-3.5-1.5,9.649,9.649,0,0,1-4.064-5.5c-.137-.421-.086-.939-.5-1.254.452-.735-.041-1.558.215-2.312.052-.081.078-.158-.036-.212a9.476,9.476,0,0,1,2.3-5.374,8.552,8.552,0,0,1,1.97-1.736c.38-.24.271-.639.19-.894a5.671,5.671,0,0,1,.044-2.615,11.807,11.807,0,0,1,9.28-9.953,10.169,10.169,0,0,1,2.248-.155c2.317-.019,4.635-.034,6.951,0a6.92,6.92,0,0,1,3.118.665,2.063,2.063,0,0,0,1.757.082c1.614-.586,3.2-1.258,4.837-1.762a62.331,62.331,0,0,1,7.56-2.047c1.856-.324,3.707-.679,5.57-.957,1.058-.158,2.139-.162,3.2-.283A26.139,26.139,0,0,1,92.933.028a38.281,38.281,0,0,1,7.078.858,30.8,30.8,0,0,1,5.749,1.884,27.043,27.043,0,0,1,4.884,2.783,35.777,35.777,0,0,1,3.962,3.418,31.317,31.317,0,0,1,5.24,6.926,26.194,26.194,0,0,1,1.969,4.422,40.417,40.417,0,0,1,1.411,5.3,26.134,26.134,0,0,1,.426,6.1,31.925,31.925,0,0,1-3.69,13.659,53.609,53.609,0,0,1-4.236,6.306c-.81,1.129-1.616,2.261-2.447,3.375a.868.868,0,0,0-.124.981c.39.857.749,1.729,1.134,2.586.3.67.512,1.42.776,2.13.372,1,.825,1.971,1.158,2.983a1.329,1.329,0,0,0,1.015.955,24.793,24.793,0,0,1,7.561,3.467,27.333,27.333,0,0,1,10.58,13.885,26.244,26.244,0,0,1,1.51,7.749c.044,1.26.086,2.522.087,3.782q.018,21.322.024,42.644c0,.6-.159.709-.726.709Q70.535,136.9,4.8,136.878c-2.493,0-4.635-1.125-4.7-4.649-.027-1.4-.046-2.809.008-4.211a4.456,4.456,0,0,1,4.338-4.333q4.11-.042,8.221,0c.58.006.711-.194.709-.719-.006-1.38,0-2.762.06-4.141a4.287,4.287,0,0,1,4.16-3.966q6.75-.059,13.5.005a4.5,4.5,0,0,1,3.977,2.991,18.559,18.559,0,0,1,.3,4.311c.056,1.521.012,1.524,1.524,1.524,5.169,0,10.338-.011,15.507.006.62,0,.907-.086,1.121-.806a10.789,10.789,0,0,1,3.894-5.745,1.285,1.285,0,0,0,.126-.145,10.072,10.072,0,0,1-2.42-2.523,11.18,11.18,0,0,1-1.679-3.651c-.117-.466-.411-.38-.7-.381q-5.18-.01-10.36-.014-18.582,0-37.164.014a4.859,4.859,0,0,1-4.716-2.7,3.425,3.425,0,0,1-.387-1.552c-.03-1.715-.044-3.431-.017-5.146a4.506,4.506,0,0,1,3.169-3.7,7.083,7.083,0,0,1,1.7-.182q24.1.006,48.193.016l1.068,0c.1.027.215.064.234-.089.016-.132-.083-.173-.2-.181a8.315,8.315,0,0,0-1.3-2.915c-.383-.569-.625-1.26-1.051-1.822-.477-.629-1.143-1.17-1.557-1.76a15.619,15.619,0,0,0-1.826-2.026,21,21,0,0,0-6.568-4.436,26.205,26.205,0,0,0-5.7-1.661c-.86-.161-1.738-.228-2.607-.339a.863.863,0,0,0-.6.224,5.861,5.861,0,0,0-2.079,3.123c-.613,1.567-1.195,3.15-1.892,4.679a4.4,4.4,0,0,1-4.192,2.708A3.491,3.491,0,0,1,23.4,92.4a22.422,22.422,0,0,1-3.951-2.039,3.247,3.247,0,0,1-1.242-1.689.709.709,0,0,0-1.039-.527,3.48,3.48,0,0,1-2.959-.311c-.97-.436-1.91-.941-2.856-1.431a4.051,4.051,0,0,1-1.986-2.168c-.25-.656-.669-.643-1.131-.454A2.86,2.86,0,0,1,5.75,83.59c-.992-.495-1.994-.971-2.988-1.464a4.44,4.44,0,0,1-2.648-4.8,9.548,9.548,0,0,1,.9-2.743c.234-.531.451-1.07.675-1.606.063-.151.09-.349-.03-.439A5.172,5.172,0,0,1,.2,70.051a2.952,2.952,0,0,1,0-2.126,35.119,35.119,0,0,1,1.79-3.754,4.357,4.357,0,0,1,2.592-2.086.742.742,0,0,0,.576-.534A16.776,16.776,0,0,1,8.333,55.3a17.209,17.209,0,0,1,9.519-6.133,9.351,9.351,0,0,1,2.906-.565,40.406,40.406,0,0,1,4.071.255A29.254,29.254,0,0,1,29.206,50.1a1.183,1.183,0,0,0,.947-.067c3.827-1.838,7.723-3.526,11.607-5.238,1.957-.862,3.934-1.679,5.913-2.489a4.594,4.594,0,0,1,2.482-.281A4.3,4.3,0,0,1,52.2,43.066,6.788,6.788,0,0,1,53.842,45.9c1.031,2.591,2.13,5.154,3.15,7.749,1.035,2.632.206,5.209-2.5,6.248-2.834,1.091-5.747,1.978-8.629,2.939-1.926.642-3.864,1.253-5.79,1.9-.214.072-.547.173-.329.554a.38.38,0,0,1,.043.19c-.034,1.156-.043,1.245,1.057,1.36a24.532,24.532,0,0,1,4.111.9,24.437,24.437,0,0,1,6.021,2.394c1.006.607,2.11,1.006,3.1,1.635l0,0M4.455,102.134c.009,1.158.035,2.316.019,3.473-.005.391.161.41.478.41q22.755-.021,45.51-.025c.757,0,1.515,0,2.271.022a.643.643,0,0,0,.767-.6,10.007,10.007,0,0,1,1.42-3.191c.1-.165.34-.306.239-.509s-.358-.091-.542-.091q-24.759-.006-49.52,0c-.134,0-.267,0-.4,0-.327-.011-.282.2-.244.406l-.032.053ZM36.725,70.715l-.154,0c-2.6-.006-5.2.015-7.814.006,1.233.648,2.482,1.157,3.715,1.7a4.559,4.559,0,0,1,2.9,4.246c.056,1.241.025,1.242,1.272,1.285a1.84,1.84,0,0,1,.267.012,28.261,28.261,0,0,1,7.374,2.289A27.734,27.734,0,0,1,58.654,95.912c.521,1.4.529,1.4,2.1,1.294.066,0,.13-.03.2-.03a19.062,19.062,0,0,1,6.129.44c.539.173,1.063.39,1.587.605a.6.6,0,0,0,.534,0,.306.306,0,0,0,.124-.408,16.2,16.2,0,0,1-1-2.972,37.908,37.908,0,0,0-6.354-10.814,38.573,38.573,0,0,0-6.9-6.474,35.709,35.709,0,0,0-6.762-3.887c-.663-.293-1.4-.467-2.03-.76a19.058,19.058,0,0,0-2.063-.753,36.934,36.934,0,0,0-4.48-1.107c-.986-.2-2-.229-3.008-.336M97.064,132.5v.033c3.431,0,6.862.015,10.293-.009a25.426,25.426,0,0,0,2.919-.133,15.186,15.186,0,0,0,9.44-4.923,14.71,14.71,0,0,0,4.025-10.35c.035-9.893,0-19.785.014-29.677a5.523,5.523,0,0,0-1.329-3.918c-.2-.217-.21-.354-.007-.551.831-.807,1.654-1.621,2.481-2.432a.445.445,0,0,1,.773.073c.451.625.9,1.249,1.287,1.919a11.392,11.392,0,0,1,1.154,5.9c.033,9.224-.007,18.448.032,27.672a23.451,23.451,0,0,1-1.024,6.936,18.716,18.716,0,0,1-2.293,4.84,16.77,16.77,0,0,1-3.719,4.136c-.109.085-.384.142-.277.38.095.21.318.1.474.1q3.609.022,7.219.019c1.18,0,2.362-.025,3.542-.006.418.006.523-.138.513-.541-.018-.755.044-1.511.045-2.267,0-9.826.031-19.652-.008-29.477-.014-3.6.16-7.193-.155-10.791a26.305,26.305,0,0,0-.827-4.975,21.694,21.694,0,0,0-2.734-6,22.71,22.71,0,0,0-3.935-4.606,27.7,27.7,0,0,0-2.47-2.023,21.95,21.95,0,0,0-5.827-2.854,4.24,4.24,0,0,0-2.63-.272,23.411,23.411,0,0,0-14.8,12.735,17.706,17.706,0,0,0-1.922,7.076c-.146,3.8-.062,7.617-.075,11.426q-.017,4.946-.031,9.892c0,.246-.09.5.338.543,1.186.107,2.373.022,3.558.073.477.02.594-.127.589-.592-.023-2.473-.043-4.947,0-7.42.057-3.533-.183-7.07.145-10.6a20.713,20.713,0,0,1,.974-4.614,25.337,25.337,0,0,1,10.454-13.657c.382-.248.552-.217.772.169.527.927,1.073,1.845,1.652,2.741.249.386.143.573-.2.793a21.194,21.194,0,0,0-7.523,8.661,18.742,18.742,0,0,0-1.94,8.5c.013,5.213-.01,10.426-.026,15.639,0,.257.074.4.329.366a16.344,16.344,0,0,1,1.843.139,7.88,7.88,0,0,1,5.764,2.532c.18.177.15.284.014.42-.883.879-1.767,1.759-2.662,2.626-.094.091-.188.257-.42.034a4.988,4.988,0,0,0-3.634-1.362q-11.2.023-22.392-.011c-.7,0-.822.163-.819.818q.041,8.088,0,16.176c0,.544.1.711.671.707,4.121-.026,8.244-.014,12.366-.014M59.452,8.856v-.01c-1.114,0-2.23-.037-3.341.012a9.559,9.559,0,0,0-2.554.337,7.322,7.322,0,0,0-4.684,5.2,7.591,7.591,0,0,0,.893,5.319A13.841,13.841,0,0,0,51.971,22.3c.309.31.383.533.02.875-.794.748-1.557,1.53-2.314,2.316-.27.28-.454.333-.759.026a27.545,27.545,0,0,1-2.5-2.78c-.4-.532-.7-.554-1.035.018-.844,1.454-1.508,2.92-.958,4.711a5.511,5.511,0,0,0,4.21,4.107,36.5,36.5,0,0,0,3.771.47c1.54.2,3.08.394,4.621.578.223.027.557.107.537-.286a5.7,5.7,0,0,1,.255-1.5.632.632,0,0,0-.39-.8,8.51,8.51,0,0,1-3.851-4.286c-.153-.322-.1-.487.209-.7.923-.63,2-.965,2.93-1.578a.476.476,0,0,1,.726.222c.172.359.383.7.579,1.048a3.272,3.272,0,0,0,4,1.526c1.492-.528,2.99-1.035,4.458-1.633,1.51-.615,3.047-1.164,4.576-1.73,1.675-.62,3.358-1.217,5.032-1.839a13.727,13.727,0,0,1,6.567-1.033,11.932,11.932,0,0,1,7.367,3.642.764.764,0,0,0,1.082.2A21.134,21.134,0,0,1,93.917,22.5a4.608,4.608,0,0,1,5.643,1.748,22.355,22.355,0,0,1,1.466,2.769,4.835,4.835,0,0,1-.226,5.01.941.941,0,0,0-.163.877c.162.457.294.926.49,1.368a7.988,7.988,0,0,1,.347,4.414,9.339,9.339,0,0,1-3.183,5.886c-.121.107-.5.385-.217.581.314.215.344.546.534.8a17.762,17.762,0,0,0,3.647,3.63,17.063,17.063,0,0,0,6.615,3.1.825.825,0,0,0,.946-.4q1.252-1.863,2.563-3.685c.729-1.015,1.518-2,2.192-3.04a32.65,32.65,0,0,0,2.2-3.944,27.742,27.742,0,0,0,2.412-8.718,25.826,25.826,0,0,0-8.457-21.511A25.485,25.485,0,0,0,96.26,4.659a44.458,44.458,0,0,0-11.432.373A64.5,64.5,0,0,0,70.653,8.7c-.535.2-.606.4-.431.917a7.3,7.3,0,0,1-.451,6.2c-2.438,4.256-6.56,4.766-10.052,3.242a8.1,8.1,0,0,1-3.937-4.368c-.165-.355-.073-.559.282-.741a29.444,29.444,0,0,0,2.648-1.315c.455-.293.851-.21,1.094.369a7.794,7.794,0,0,0,.673,1.133,3.208,3.208,0,0,0,5.679-2.717,3.472,3.472,0,0,0-3.231-2.555c-1.157-.034-2.317-.007-3.475-.007m37.7,28.281a5.167,5.167,0,0,0-.194-1.772c-.1-.3-.219-.389-.524-.217-.922.52-1.865,1-2.786,1.526-2.135,1.21-4.252,2.454-6.4,3.644A2.4,2.4,0,0,0,85.9,42.188a11.835,11.835,0,0,1-5.066,7.933,25.987,25.987,0,0,1-3.9,2.171c-1.956.941-3.824,2.062-5.864,2.833-.686.259-.844.7-.6,1.265.252.592.5,1.188.74,1.784a12.308,12.308,0,0,0,5.8,6.566,15.21,15.21,0,0,0,7.12,1.51,12.968,12.968,0,0,0,8.9-3.306c.687-.6,1.335-1.247,1.965-1.907.377-.395.557-.408.86.1,1.787,3.022,3.61,6.024,5.426,9.029.4.662.411.657,1.02.119a26.5,26.5,0,0,1,9-5.217c.586-.2.658-.44.447-.959q-1.3-3.207-2.559-6.433a1.011,1.011,0,0,0-.871-.705A16.011,16.011,0,0,1,105,56.011a21.55,21.55,0,0,1-7.559-4.847,22.593,22.593,0,0,1-4.54-6.389c-.251-.525-.819-1.124-.7-1.539.132-.473.962-.6,1.491-.879,2.122-1.1,3.513-2.687,3.469-5.22m-35.243,6.6c.1.288.195.579.308.862,1.019,2.554,2.051,5.1,3.06,7.662.343.869.354.894,1.17.485,3.379-1.69,6.753-3.39,10.138-5.068a9.288,9.288,0,0,0,3.369-2.559,8.69,8.69,0,0,0,1.813-5.975.794.794,0,0,1,.42-.867c3.426-1.934,6.839-3.892,10.256-5.843,1.41-.8,2.812-1.623,4.231-2.409.566-.314.78-.634.385-1.261a17.145,17.145,0,0,1-.917-1.85c-.2-.419-.43-.512-.891-.3-2.1.952-4.129,2.043-6.19,3.072-3.874,1.935-7.731,3.9-11.608,5.83-4.915,2.444-9.788,4.971-14.742,7.337-.324.155-.849.292-.8.888m-35.3,22.54V66.3c2.761,0,5.521-.01,8.282.011.38,0,.54-.074.488-.464-.09-.677-.134-1.362-.265-2.031A13.066,13.066,0,0,0,19.461,53.331c-4.9.964-8.127,4.052-9.884,8.715-.239.634-.043.838.506,1.058q3.276,1.312,6.522,2.7a5.927,5.927,0,0,0,2.4.477q3.807,0,7.614,0m3.2,66.221v.006H54.683c.149,0,.342.086.436-.058.114-.174-.029-.34-.13-.483a10.439,10.439,0,0,1-1.532-3.435c-.107-.414-.27-.462-.631-.461q-23.126.018-46.252.02c-.535,0-1.07.03-1.6,0-.394-.019-.489.135-.482.5.019,1.047.054,2.1-.019,3.139-.045.64.137.78.754.779q12.3-.03,24.6-.013m40.862-6.609h0c0-2.027-.012-4.054.01-6.081,0-.424-.092-.563-.542-.557-1.96.026-3.92.012-5.88.011a7.984,7.984,0,0,0-2.209.354,6.6,6.6,0,0,0-2.063,11.472,5.717,5.717,0,0,0,3.478,1.388c2.225.066,4.454,0,6.68.032.452.006.546-.1.541-.537-.024-2.027-.011-4.054-.011-6.081M81.616,24.323a7.749,7.749,0,0,0-2.748.415c-1.757.649-3.513,1.3-5.274,1.939-3.627,1.315-7.186,2.812-10.865,3.984a.721.721,0,0,0-.546.509,13.717,13.717,0,0,0-.323,1.663,10.419,10.419,0,0,0,.814,4.222.675.675,0,0,0,1.078.408c.671-.377,1.36-.721,2.049-1.063q4.746-2.352,9.5-4.695,5.253-2.6,10.5-5.208c.636-.316.624-.339.066-.746a7.972,7.972,0,0,0-4.251-1.428M70.672,108.148a6.457,6.457,0,0,0-6.715-6.517,6.381,6.381,0,0,0-6.547,6.657,6.473,6.473,0,0,0,6.5,6.54,6.623,6.623,0,0,0,6.758-6.68M30.981,76.932c-.01-.626-.489-.616-.8-.745q-8.695-3.629-17.4-7.231c-1.988-.825-3.976-1.65-5.97-2.461-.858-.349-.933-.3-1.332.494-.289.576-.578,1.152-.893,1.713-.176.312-.095.5.2.637q.667.3,1.343.581l22.119,9.225c1.632.68,1.274.59,2-.742.273-.5.513-1.027.733-1.47M79.6,123.672c0-2.76,0-5.519.005-8.279,0-.357-.012-.587-.482-.573-1.156.035-2.314.033-3.471.019-.369,0-.5.1-.5.487q0,8.346-.032,16.69c0,.374.081.505.47.5q1.768-.036,3.538-.007c.38.006.486-.1.483-.49-.018-2.782-.009-5.563-.011-8.345M34.025,53.061c.034.081.04.132.069.16a18.916,18.916,0,0,1,4.617,7c.116.312.285.377.617.26,1.627-.567,3.259-1.126,4.9-1.644.57-.179.622-.439.4-.94-1.058-2.431-2.107-4.867-3.127-7.315-.252-.6-.55-.658-1.108-.4-2.107.975-4.232,1.911-6.375,2.873M24.4,119.27c-2.049,0-4.1.012-6.148-.01-.406,0-.531.088-.519.51q.049,1.7,0,3.407c-.012.434.149.512.539.51q6.081-.032,12.162-.026c.454,0,.57-.15.57-.575,0-1.091.014-2.184.08-3.272.028-.457-.1-.558-.538-.554-2.049.02-4.1.009-6.148.009m28.62-63.69a.973.973,0,0,0-.114-.517c-1.083-2.717-2.168-5.433-3.235-8.157-.2-.521-.495-.6-.977-.38-.844.393-1.7.751-2.554,1.133-.99.446-1,.457-.582,1.45q1.6,3.766,3.222,7.519c.123.285.2.654.7.471,1.07-.391,2.156-.74,3.236-1.1.206-.07.37-.161.3-.416M27.065,83.555c.059-.231-.1-.291-.244-.348a17.721,17.721,0,0,1-2.194-.9c-.635-.363-.807-.071-1,.427-.462,1.194-.874,2.413-1.437,3.559-.255.519-.074.659.289.847.689.358,1.4.677,2.064,1.078.452.274.62.111.78-.294.528-1.341,1.071-2.676,1.607-4.014.05-.124.095-.249.136-.356m-9.073-3.8c.017-.205-.111-.262-.234-.313q-1.26-.521-2.524-1.037c-.34-.139-.478.067-.584.347-.409,1.079-.814,2.16-1.247,3.229a.524.524,0,0,0,.283.763c.69.359,1.384.709,2.069,1.075.35.187.557.118.707-.265.469-1.2.96-2.389,1.443-3.582l.087-.217M6.2,74.641c-.483-.1-.57.1-.657.324-.341.868-.667,1.743-1.045,2.595a.513.513,0,0,0,.29.789c.677.334,1.364.655,2.015,1.035.447.262.688.163.865-.287.3-.759.581-1.526.916-2.269.454-1.008.476-1.009-.543-1.449-.665-.287-1.345-.54-1.841-.738" transform="translate(0 0)" fill="#060607"/>
        <path id="Trazado_821523" data-name="Trazado 821523" d="M101.42,181.187c.114.008.213.049.2.181-.019.153-.133.117-.234.089.012-.09.024-.18.036-.27" transform="translate(-47.161 -84.284)" fill="#97a2af"/>
        <path id="Trazado_821524" data-name="Trazado 821524" d="M74.441,47.076c.113.054.088.131.036.212-.272-.027-.021-.142-.036-.212" transform="translate(-34.586 -21.899)" fill="#a46332"/>
        <path id="Trazado_821525" data-name="Trazado 821525" d="M101.067,134.094l0,0q-.026-.055-.053-.109l.056.111" transform="translate(-46.988 -62.326)" fill="#dfe3e8"/>
        <path id="Trazado_821526" data-name="Trazado 821526" d="M170.148,192.16c-4.122,0-8.244-.012-12.366.014-.575,0-.673-.163-.671-.707q.038-8.087,0-16.175c0-.656.121-.821.819-.818q11.2.051,22.391.011a4.989,4.989,0,0,1,3.634,1.362c.232.224.326.057.42-.034.9-.867,1.779-1.747,2.662-2.626.136-.135.165-.243-.014-.419a7.881,7.881,0,0,0-5.764-2.533,16.34,16.34,0,0,0-1.843-.139c-.255.031-.33-.109-.329-.366.016-5.213.039-10.426.026-15.638a18.752,18.752,0,0,1,1.94-8.5,21.192,21.192,0,0,1,7.523-8.661c.343-.22.449-.408.2-.794-.578-.9-1.124-1.814-1.652-2.741-.22-.386-.39-.417-.772-.169A25.338,25.338,0,0,0,175.9,146.883a20.749,20.749,0,0,0-.974,4.614c-.328,3.53-.088,7.067-.145,10.6-.04,2.473-.019,4.946,0,7.419,0,.465-.113.612-.589.592-1.185-.05-2.371.035-3.558-.073-.429-.038-.339-.3-.338-.543q.014-4.947.031-9.892c.013-3.809-.071-7.622.075-11.425a17.686,17.686,0,0,1,1.922-7.076,23.407,23.407,0,0,1,14.8-12.735,4.231,4.231,0,0,1,2.63.272,21.924,21.924,0,0,1,5.827,2.853,27.713,27.713,0,0,1,2.47,2.024,22.7,22.7,0,0,1,3.935,4.606,21.7,21.7,0,0,1,2.735,6,26.355,26.355,0,0,1,.827,4.975c.314,3.6.14,7.195.155,10.791.039,9.825.012,19.651.007,29.476,0,.756-.063,1.512-.045,2.267.01.4-.1.547-.513.541-1.18-.018-2.361.007-3.542.006q-3.609,0-7.219-.02c-.156,0-.38.111-.474-.1-.107-.238.168-.3.277-.38a16.749,16.749,0,0,0,3.719-4.136,18.739,18.739,0,0,0,2.293-4.84,23.465,23.465,0,0,0,1.024-6.935c-.04-9.224,0-18.448-.032-27.672a11.389,11.389,0,0,0-1.153-5.9,23.1,23.1,0,0,0-1.288-1.919c-.234-.324-.487-.355-.773-.073-.826.811-1.65,1.625-2.481,2.433-.2.2-.19.334.007.551a5.525,5.525,0,0,1,1.328,3.918c-.011,9.893.021,19.785-.014,29.677a14.709,14.709,0,0,1-4.026,10.35,15.185,15.185,0,0,1-9.44,4.922,25.309,25.309,0,0,1-2.919.133c-3.431.024-6.862.01-10.294.01Z" transform="translate(-73.085 -59.657)" fill="#dfe3e8"/>
        <path id="Trazado_821527" data-name="Trazado 821527" d="M97.917,12.7c1.158,0,2.318-.027,3.475.007a3.472,3.472,0,0,1,3.231,2.555,3.208,3.208,0,0,1-5.679,2.717,7.824,7.824,0,0,1-.673-1.133c-.242-.579-.639-.662-1.094-.369A29.367,29.367,0,0,1,94.529,17.8c-.355.181-.447.386-.282.741a8.1,8.1,0,0,0,3.937,4.368c3.492,1.524,7.614,1.014,10.052-3.242a7.294,7.294,0,0,0,.451-6.2c-.175-.512-.1-.719.431-.917A64.494,64.494,0,0,1,123.293,8.88a44.458,44.458,0,0,1,11.432-.373,25.482,25.482,0,0,1,14.469,6.717,25.825,25.825,0,0,1,8.457,21.511,27.741,27.741,0,0,1-2.412,8.718,32.65,32.65,0,0,1-2.2,3.944c-.674,1.04-1.463,2.025-2.192,3.039q-1.31,1.823-2.563,3.685a.825.825,0,0,1-.946.4,17.063,17.063,0,0,1-6.615-3.1,17.748,17.748,0,0,1-3.647-3.63c-.19-.255-.22-.585-.534-.8-.287-.2.1-.474.217-.581a9.339,9.339,0,0,0,3.183-5.886,7.983,7.983,0,0,0-.347-4.414c-.2-.441-.328-.911-.49-1.368a.94.94,0,0,1,.163-.877,4.835,4.835,0,0,0,.226-5.01,22.354,22.354,0,0,0-1.466-2.769,4.608,4.608,0,0,0-5.643-1.748,21.133,21.133,0,0,0-2.812,1.382.764.764,0,0,1-1.082-.2,11.929,11.929,0,0,0-7.367-3.642,13.732,13.732,0,0,0-6.567,1.032c-1.674.622-3.357,1.219-5.032,1.839-1.53.566-3.067,1.115-4.576,1.73-1.468.6-2.966,1.105-4.458,1.633a3.272,3.272,0,0,1-4-1.526c-.2-.347-.407-.688-.579-1.048a.476.476,0,0,0-.726-.222c-.932.612-2.007.948-2.93,1.578-.312.213-.362.378-.209.7a8.507,8.507,0,0,0,3.851,4.286.632.632,0,0,1,.39.8,5.68,5.68,0,0,0-.255,1.5c.019.393-.314.312-.538.286-1.541-.185-3.081-.383-4.621-.578a36.5,36.5,0,0,1-3.771-.47,5.511,5.511,0,0,1-4.21-4.107c-.55-1.791.113-3.257.958-4.711.332-.572.634-.55,1.035-.018a27.48,27.48,0,0,0,2.5,2.78c.3.307.489.254.759-.026.757-.786,1.52-1.568,2.314-2.316.363-.342.289-.565-.02-.875a13.841,13.841,0,0,1-2.205-2.579,7.592,7.592,0,0,1-.893-5.319,7.322,7.322,0,0,1,4.684-5.2,9.559,9.559,0,0,1,2.554-.337c1.111-.05,2.227-.012,3.341-.012v.01" transform="translate(-38.465 -3.849)" fill="#a46332"/>
        <path id="Trazado_821528" data-name="Trazado 821528" d="M158.351,67.632c.044,2.533-1.347,4.118-3.469,5.22-.529.275-1.358.405-1.491.879-.116.414.452,1.014.7,1.539a22.609,22.609,0,0,0,4.54,6.389,21.56,21.56,0,0,0,7.56,4.847,16.045,16.045,0,0,0,3.311.963,1.01,1.01,0,0,1,.871.7q1.251,3.228,2.559,6.434c.211.519.139.757-.448.959a26.489,26.489,0,0,0-9,5.217c-.609.538-.62.543-1.02-.119-1.816-3.005-3.639-6.006-5.426-9.029-.3-.512-.483-.5-.86-.1-.63.659-1.278,1.308-1.965,1.907a12.966,12.966,0,0,1-8.9,3.306,15.221,15.221,0,0,1-7.12-1.51,12.307,12.307,0,0,1-5.8-6.566c-.244-.6-.488-1.192-.74-1.784-.242-.569-.083-1,.6-1.264,2.04-.771,3.908-1.893,5.864-2.834a25.984,25.984,0,0,0,3.9-2.171,11.837,11.837,0,0,0,5.066-7.933,2.4,2.4,0,0,1,1.355-1.871c2.146-1.189,4.263-2.433,6.4-3.643.921-.522,1.864-1.006,2.786-1.526.3-.171.425-.08.523.217a5.17,5.17,0,0,1,.195,1.773" transform="translate(-61.196 -30.495)" fill="#efc4a4"/>
        <path id="Trazado_821529" data-name="Trazado 821529" d="M61.738,132.215c1,.106,2.022.141,3.008.336a36.733,36.733,0,0,1,4.48,1.107,19.058,19.058,0,0,1,2.063.753c.629.293,1.366.467,2.03.76a35.682,35.682,0,0,1,6.762,3.887,38.535,38.535,0,0,1,6.9,6.474,37.913,37.913,0,0,1,6.354,10.813,16.171,16.171,0,0,0,1,2.972.306.306,0,0,1-.124.409.605.605,0,0,1-.534,0c-.524-.215-1.048-.433-1.587-.605a19.062,19.062,0,0,0-6.129-.44c-.066,0-.131.026-.2.03-1.573.106-1.581.109-2.1-1.294A27.734,27.734,0,0,0,69.3,141.748a28.263,28.263,0,0,0-7.374-2.289,1.841,1.841,0,0,0-.267-.012c-1.248-.043-1.216-.044-1.272-1.285a4.56,4.56,0,0,0-2.9-4.246c-1.233-.542-2.482-1.051-3.715-1.7,2.61.008,5.212-.013,7.813-.006l.155,0" transform="translate(-25.013 -61.5)" fill="#efc4a4"/>
        <path id="Trazado_821530" data-name="Trazado 821530" d="M115.757,66.788c-.047-.6.478-.733.8-.888,4.954-2.366,9.827-4.893,14.742-7.337,3.877-1.928,7.734-3.9,11.608-5.83,2.06-1.029,4.09-2.12,6.19-3.072.461-.209.693-.117.89.3a17.1,17.1,0,0,0,.918,1.85c.4.627.181.948-.385,1.261-1.419.787-2.822,1.6-4.231,2.409-3.416,1.952-6.83,3.909-10.256,5.843a.794.794,0,0,0-.42.868,8.691,8.691,0,0,1-1.813,5.975,9.293,9.293,0,0,1-3.369,2.559c-3.385,1.678-6.759,3.378-10.138,5.069-.816.408-.827.383-1.17-.486-1.01-2.558-2.041-5.108-3.06-7.662-.113-.283-.205-.575-.308-.863" transform="translate(-53.846 -23.052)" fill="#97a2af"/>
        <path id="Trazado_821531" data-name="Trazado 821531" d="M34.858,112.427q-3.807,0-7.614,0a5.927,5.927,0,0,1-2.4-.477q-3.242-1.393-6.522-2.7c-.549-.22-.745-.424-.506-1.058,1.757-4.663,4.979-7.751,9.884-8.715a13.066,13.066,0,0,1,15.658,10.488c.132.669.175,1.354.265,2.031.052.389-.107.466-.488.463-2.761-.021-5.521-.011-8.282-.011v-.024" transform="translate(-8.243 -46.15)" fill="#97a2af"/>
        <path id="Trazado_821532" data-name="Trazado 821532" d="M8.3,190.394c-.037-.206-.083-.417.244-.406.133,0,.267,0,.4,0q24.76,0,49.52,0c.184,0,.44-.115.542.091s-.139.344-.239.509a10,10,0,0,0-1.42,3.191.643.643,0,0,1-.766.6c-.757-.019-1.515-.023-2.272-.022q-22.755.007-45.51.025c-.317,0-.483-.019-.478-.41.016-1.157-.01-2.315-.019-3.473a.294.294,0,0,0,.041-.025.9.9,0,0,0-.044-.08" transform="translate(-3.848 -88.365)" fill="#dfe3e8"/>
        <path id="Trazado_821533" data-name="Trazado 821533" d="M33.7,243.887q-12.3,0-24.6.013c-.616,0-.8-.139-.754-.779.073-1.042.038-2.093.019-3.139-.007-.369.089-.524.482-.5.533.026,1.069,0,1.6,0q23.126-.007,46.252-.02c.36,0,.524.047.631.461a10.43,10.43,0,0,0,1.532,3.435c.1.144.244.31.13.484-.094.144-.287.058-.436.058H33.7Z" transform="translate(-3.882 -111.388)" fill="#97a2af"/>
        <path id="Trazado_821534" data-name="Trazado 821534" d="M120.665,229.611c0,2.027-.013,4.055.011,6.081,0,.433-.089.543-.541.537-2.226-.03-4.455.035-6.68-.031a5.721,5.721,0,0,1-3.479-1.389,6.6,6.6,0,0,1,2.063-11.472,7.984,7.984,0,0,1,2.209-.354c1.96,0,3.921.016,5.881-.011.45-.006.546.133.541.557-.021,2.026-.01,4.054-.01,6.081Z" transform="translate(-49.984 -103.722)" fill="#efc4a4"/>
        <path id="Trazado_821535" data-name="Trazado 821535" d="M135.4,45.476a7.971,7.971,0,0,1,4.251,1.429c.558.407.57.43-.066.746q-5.249,2.609-10.5,5.208-4.748,2.35-9.5,4.694c-.689.342-1.378.687-2.049,1.063a.675.675,0,0,1-1.078-.408,10.426,10.426,0,0,1-.813-4.222,13.608,13.608,0,0,1,.323-1.662.72.72,0,0,1,.545-.509c3.679-1.172,7.239-2.669,10.865-3.984,1.761-.639,3.516-1.29,5.273-1.939a7.764,7.764,0,0,1,2.748-.415" transform="translate(-53.786 -21.154)" fill="#efc4a4"/>
        <path id="Trazado_821536" data-name="Trazado 821536" d="M120.6,196.542a6.624,6.624,0,0,1-6.758,6.68,6.472,6.472,0,0,1-6.5-6.54,6.381,6.381,0,0,1,6.547-6.658,6.458,6.458,0,0,1,6.715,6.517m-8.7.041a2.154,2.154,0,1,0,4.305.063,2.158,2.158,0,0,0-2.238-2.226,2.091,2.091,0,0,0-2.067,2.164" transform="translate(-49.93 -88.395)" fill="#efc4a4"/>
        <path id="Trazado_821537" data-name="Trazado 821537" d="M34.891,134.586c-.22.443-.459.965-.733,1.47-.723,1.333-.366,1.423-2,.742l-22.118-9.225q-.676-.282-1.344-.581c-.3-.133-.377-.324-.2-.636.316-.561.6-1.138.893-1.713.4-.8.475-.842,1.332-.494,1.994.811,3.982,1.637,5.971,2.462q8.7,3.609,17.4,7.231c.309.128.788.119.8.745" transform="translate(-3.91 -57.655)" fill="#97a2af"/>
        <path id="Trazado_821538" data-name="Trazado 821538" d="M144.931,223.539c0,2.782-.008,5.564.01,8.345,0,.387-.1.5-.484.49q-1.769-.03-3.538.007c-.389.008-.472-.124-.47-.5q.034-8.345.032-16.69c0-.388.133-.492.5-.487,1.157.013,2.315.017,3.472-.019.47-.014.483.216.481.572-.01,2.76-.005,5.519,0,8.279" transform="translate(-65.333 -99.868)" fill="#dfe3e8"/>
        <path id="Trazado_821539" data-name="Trazado 821539" d="M63.619,96.584c2.143-.962,4.267-1.9,6.374-2.873.559-.259.857-.2,1.109.4,1.019,2.448,2.069,4.883,3.127,7.315.218.5.166.761-.4.94-1.644.518-3.275,1.076-4.9,1.644-.332.116-.5.051-.617-.26a18.923,18.923,0,0,0-4.617-7c-.029-.028-.035-.08-.069-.16" transform="translate(-29.594 -43.524)" fill="#dfe3e8"/>
        <path id="Trazado_821540" data-name="Trazado 821540" d="M39.82,223c2.049,0,4.1.011,6.148-.009.433,0,.565.1.538.554-.066,1.088-.08,2.181-.081,3.272,0,.425-.117.576-.57.575q-6.081-.012-12.162.025c-.39,0-.551-.075-.539-.51q.047-1.7,0-3.407c-.012-.422.113-.514.519-.51,2.049.022,4.1.01,6.148.011" transform="translate(-15.422 -103.729)" fill="#dfe3e8"/>
        <path id="Trazado_821541" data-name="Trazado 821541" d="M92.414,95.945c.065.255-.1.346-.3.416-1.08.364-2.166.713-3.236,1.1-.5.183-.575-.186-.7-.471q-1.622-3.755-3.222-7.519c-.421-.994-.408-1,.582-1.45.849-.382,1.709-.741,2.554-1.133.482-.224.772-.141.977.38,1.066,2.724,2.152,5.44,3.234,8.157a.968.968,0,0,1,.114.517" transform="translate(-39.396 -40.365)" fill="#dfe3e8"/>
        <path id="Trazado_821542" data-name="Trazado 821542" d="M46.261,155c-.041.107-.086.233-.135.357-.536,1.338-1.079,2.673-1.607,4.013-.159.4-.327.569-.78.294-.663-.4-1.374-.72-2.064-1.077-.363-.189-.543-.328-.289-.847.562-1.146.975-2.365,1.437-3.559.193-.5.365-.79,1-.427a17.7,17.7,0,0,0,2.195.9c.141.057.3.118.244.348" transform="translate(-19.197 -71.448)" fill="#dfe3e8"/>
        <path id="Trazado_821543" data-name="Trazado 821543" d="M29.59,147.905l-.088.217c-.482,1.193-.974,2.383-1.443,3.582-.15.383-.356.452-.706.266-.686-.366-1.38-.717-2.069-1.076a.524.524,0,0,1-.283-.762c.433-1.07.838-2.151,1.247-3.23.106-.28.244-.485.583-.347q1.264.514,2.524,1.038c.123.051.25.107.234.313" transform="translate(-11.599 -68.153)" fill="#dfe3e8"/>
        <path id="Trazado_821544" data-name="Trazado 821544" d="M10.031,139.539c.5.2,1.176.451,1.841.738,1.019.44,1,.442.543,1.449-.335.743-.617,1.51-.916,2.269-.177.45-.418.549-.865.287-.651-.381-1.338-.7-2.015-1.035a.513.513,0,0,1-.29-.789c.378-.852.7-1.727,1.045-2.595.087-.22.173-.42.657-.324" transform="translate(-3.835 -64.899)" fill="#97a2af"/>
        <path id="Trazado_821545" data-name="Trazado 821545" d="M68.534,132.216l-.155,0,.155,0" transform="translate(-31.808 -61.501)" fill="#a46332"/>
        <path id="Trazado_821546" data-name="Trazado 821546" d="M8.294,190.771a.9.9,0,0,1,.044.08.294.294,0,0,1-.041.025l-.036-.051Z" transform="translate(-3.843 -88.742)" fill="#a46332"/>
        <path id="Trazado_821547" data-name="Trazado 821547" d="M115.859,200.406a2.091,2.091,0,0,1,2.067-2.164,2.158,2.158,0,0,1,2.238,2.226,2.154,2.154,0,1,1-4.305-.063" transform="translate(-53.891 -92.217)" fill="#060607"/>
      </g>
    </g>
  </g>
</svg>
