<svg xmlns="http://www.w3.org/2000/svg" xmlns:xlink="http://www.w3.org/1999/xlink" width="506.835" height="369.483" viewBox="0 0 506.835 369.483">
  <defs>
    <linearGradient id="linear-gradient" x1="0.5" x2="0.5" y2="1" gradientUnits="objectBoundingBox">
      <stop offset="0" stop-color="#defff8"/>
      <stop offset="0.803" stop-color="#eaf5ff"/>
      <stop offset="1" stop-color="#f0feff"/>
    </linearGradient>
    <radialGradient id="radial-gradient" cx="0.5" cy="0.5" r="0.5" gradientUnits="objectBoundingBox">
      <stop offset="0" stop-color="#8a7800"/>
      <stop offset="0.456" stop-color="#796a00"/>
      <stop offset="1" stop-color="#554c01"/>
    </radialGradient>
    <radialGradient id="radial-gradient-2" cx="0.5" cy="0.5" r="0.5" gradientUnits="objectBoundingBox">
      <stop offset="0" stop-color="#c1e29a"/>
      <stop offset="0.824" stop-color="#a9cb81"/>
      <stop offset="1" stop-color="#7ea153"/>
    </radialGradient>
    <radialGradient id="radial-gradient-3" cx="0.5" cy="0.5" r="0.5" gradientUnits="objectBoundingBox">
      <stop offset="0" stop-color="#ffae7e"/>
      <stop offset="0.833" stop-color="#ff9b5f"/>
      <stop offset="1" stop-color="#ff721e"/>
    </radialGradient>
  </defs>
  <g id="Grupo_1073534" data-name="Grupo 1073534" transform="translate(-808.165 -1031.85)">
    <rect id="Rectángulo_376022" data-name="Rectángulo 376022" width="506.835" height="369.483" transform="translate(1315 1401.333) rotate(180)" fill="url(#linear-gradient)"/>
    <g id="Trazado_822209" data-name="Trazado 822209" transform="translate(895 1042.699)" fill="url(#radial-gradient)">
      <path d="M 69.48935699462891 138.4787139892578 C 60.17562866210938 138.4787139892578 51.14077377319336 136.6547241210938 42.63573837280273 133.0573883056641 C 38.54793930053711 131.3284149169922 34.60522842407227 129.1883544921875 30.9171028137207 126.6967239379883 C 27.26388359069824 124.228645324707 23.82853889465332 121.3942260742188 20.70652008056641 118.2721939086914 C 17.5844841003418 115.1501770019531 14.75006580352783 111.7148284912109 12.28199291229248 108.0616149902344 C 9.790356636047363 104.3734817504883 7.650302410125732 100.430778503418 5.92132043838501 96.34297180175781 C 2.323993444442749 87.83793640136719 0.4999933540821075 78.80308532714844 0.4999933540821075 69.48935699462891 C 0.4999933540821075 60.17562866210938 2.323993444442749 51.14077377319336 5.92132043838501 42.63573837280273 C 7.650302410125732 38.54793930053711 9.790356636047363 34.60522842407227 12.28199291229248 30.9171028137207 C 14.75006580352783 27.26388359069824 17.5844841003418 23.82853889465332 20.70652008056641 20.70652008056641 C 23.82853889465332 17.5844841003418 27.26388359069824 14.75006580352783 30.9171028137207 12.28199291229248 C 34.60522842407227 9.790356636047363 38.54793930053711 7.650302410125732 42.63573837280273 5.92132043838501 C 51.14077377319336 2.323993444442749 60.17562866210938 0.4999933540821075 69.48935699462891 0.4999933540821075 C 78.80308532714844 0.4999933540821075 87.83793640136719 2.323993444442749 96.34297180175781 5.92132043838501 C 100.430778503418 7.650302410125732 104.3734817504883 9.790356636047363 108.0616149902344 12.28199291229248 C 111.7148284912109 14.75006580352783 115.1501770019531 17.5844841003418 118.2721939086914 20.70652008056641 C 121.3942260742188 23.82853889465332 124.228645324707 27.26388359069824 126.6967239379883 30.9171028137207 C 129.1883544921875 34.60522842407227 131.3284149169922 38.54793930053711 133.0573883056641 42.63573837280273 C 136.6547241210938 51.14077377319336 138.4787139892578 60.17562866210938 138.4787139892578 69.48935699462891 C 138.4787139892578 78.80308532714844 136.6547241210938 87.83793640136719 133.0573883056641 96.34297180175781 C 131.3284149169922 100.430778503418 129.1883544921875 104.3734817504883 126.6967239379883 108.0616149902344 C 124.228645324707 111.7148284912109 121.3942260742188 115.1501770019531 118.2721939086914 118.2721939086914 C 115.1501770019531 121.3942260742188 111.7148284912109 124.228645324707 108.0616149902344 126.6967239379883 C 104.3734817504883 129.1883544921875 100.430778503418 131.3284149169922 96.34297180175781 133.0573883056641 C 87.83793640136719 136.6547241210938 78.80308532714844 138.4787139892578 69.48935699462891 138.4787139892578 Z" stroke="none"/>
      <path d="M 69.48935699462891 1 C 60.242919921875 1 51.27357482910156 2.810699462890625 42.83052062988281 6.381805419921875 C 38.77244567871094 8.098236083984375 34.85837554931641 10.22273254394531 31.19701385498047 12.69630432128906 C 27.57015991210938 15.14656066894531 24.15959167480469 17.96054077148438 21.06006622314453 21.06006622314453 C 17.96054077148438 24.15959167480469 15.14656066894531 27.57015991210938 12.69630432128906 31.19701385498047 C 10.22273254394531 34.85837554931641 8.098236083984375 38.77244567871094 6.381805419921875 42.83052062988281 C 2.810699462890625 51.27357482910156 1 60.242919921875 1 69.48935699462891 C 1 78.73579406738281 2.810699462890625 87.70513916015625 6.381805419921875 96.148193359375 C 8.098236083984375 100.2062683105469 10.22273254394531 104.1203384399414 12.69630432128906 107.7817001342773 C 15.14656066894531 111.4085540771484 17.96054077148438 114.8191223144531 21.06006622314453 117.9186477661133 C 24.15959167480469 121.0181732177734 27.57015991210938 123.8321533203125 31.19701385498047 126.2824096679688 C 34.85837554931641 128.7559814453125 38.77244567871094 130.8804779052734 42.83052062988281 132.5969085693359 C 51.27357482910156 136.1680145263672 60.242919921875 137.9787139892578 69.48935699462891 137.9787139892578 C 78.73579406738281 137.9787139892578 87.70513916015625 136.1680145263672 96.148193359375 132.5969085693359 C 100.2062683105469 130.8804779052734 104.1203384399414 128.7559814453125 107.7817001342773 126.2824096679688 C 111.4085540771484 123.8321533203125 114.8191223144531 121.0181732177734 117.9186477661133 117.9186477661133 C 121.0181732177734 114.8191223144531 123.8321533203125 111.4085540771484 126.2824096679688 107.7817001342773 C 128.7559814453125 104.1203384399414 130.8804779052734 100.2062683105469 132.5969085693359 96.148193359375 C 136.1680145263672 87.70513916015625 137.9787139892578 78.73579406738281 137.9787139892578 69.48935699462891 C 137.9787139892578 60.242919921875 136.1680145263672 51.27357482910156 132.5969085693359 42.83052062988281 C 130.8804779052734 38.77244567871094 128.7559814453125 34.85837554931641 126.2824096679688 31.19701385498047 C 123.8321533203125 27.57015991210938 121.0181732177734 24.15959167480469 117.9186477661133 21.06006622314453 C 114.8191223144531 17.96054077148438 111.4085540771484 15.14656066894531 107.7817001342773 12.69630432128906 C 104.1203384399414 10.22273254394531 100.2062683105469 8.098236083984375 96.148193359375 6.381805419921875 C 87.70513916015625 2.810699462890625 78.73579406738281 1 69.48935699462891 1 M 69.48935699462891 0 C 107.8672637939453 0 138.9787139892578 31.1114501953125 138.9787139892578 69.48935699462891 C 138.9787139892578 107.8672637939453 107.8672637939453 138.9787139892578 69.48935699462891 138.9787139892578 C 31.1114501953125 138.9787139892578 0 107.8672637939453 0 69.48935699462891 C 0 31.1114501953125 31.1114501953125 0 69.48935699462891 0 Z" stroke="none" fill="#707070"/>
    </g>
    <path id="Trazado_822210" data-name="Trazado 822210" d="M69.489,0A69.489,69.489,0,1,1,0,69.489,69.489,69.489,0,0,1,69.489,0Z" transform="translate(895 1242.538)" fill="url(#radial-gradient-2)"/>
    <path id="Trazado_822211" data-name="Trazado 822211" d="M92.058,0A92.058,92.058,0,1,1,0,92.058,92.058,92.058,0,0,1,92.058,0Z" transform="translate(1078.77 1120.958)" fill="url(#radial-gradient-3)"/>
    <path id="Trazado_822212" data-name="Trazado 822212" d="M-37.273-3.859V0h-2.742V-11.375h4.539a5.287,5.287,0,0,1,2.309.48,3.621,3.621,0,0,1,1.555,1.367,3.734,3.734,0,0,1,.551,2.012,3.291,3.291,0,0,1-1.191,2.66,4.943,4.943,0,0,1-3.27,1Zm0-2.117h1.8a1.7,1.7,0,0,0,1.215-.4A1.48,1.48,0,0,0-33.844-7.5a1.83,1.83,0,0,0-.43-1.273,1.522,1.522,0,0,0-1.172-.484h-1.828Zm12.664-.094-.867-.062a1.558,1.558,0,0,0-1.594.781V0H-29.7V-8.453h2.469l.086,1.086A2.039,2.039,0,0,1-25.3-8.609a2.567,2.567,0,0,1,.734.094Zm.336,1.766a4.989,4.989,0,0,1,.492-2.254,3.52,3.52,0,0,1,1.414-1.52A4.259,4.259,0,0,1-20.2-8.609a3.887,3.887,0,0,1,2.992,1.176,4.512,4.512,0,0,1,1.094,3.2v.094A4.378,4.378,0,0,1-17.215-1,3.9,3.9,0,0,1-20.187.156a3.942,3.942,0,0,1-2.9-1.082,4.232,4.232,0,0,1-1.18-2.934Zm2.633.164a3.145,3.145,0,0,0,.367,1.719,1.223,1.223,0,0,0,1.086.547q1.406,0,1.438-2.164V-4.3q0-2.273-1.453-2.273-1.32,0-1.43,1.961Zm14.531-.016a5.152,5.152,0,0,1-.859,3.2A2.878,2.878,0,0,1-10.391.156,2.5,2.5,0,0,1-12.469-.867L-12.578,0h-2.359V-12H-12.3v4.227a2.41,2.41,0,0,1,1.9-.836A2.879,2.879,0,0,1-7.969-7.477a5.179,5.179,0,0,1,.859,3.188ZM-9.75-4.324a3.437,3.437,0,0,0-.324-1.735,1.093,1.093,0,0,0-1-.519A1.261,1.261,0,0,0-12.3-5.9v3.354a1.268,1.268,0,0,0,1.25.671,1.118,1.118,0,0,0,1.18-.9A6.5,6.5,0,0,0-9.75-4.324ZM-3.172,0H-5.812V-12h2.641ZM2.539.156A4.345,4.345,0,0,1-.609-1a4.006,4.006,0,0,1-1.2-3.02v-.219a5.191,5.191,0,0,1,.48-2.289A3.516,3.516,0,0,1,.07-8.066a4.233,4.233,0,0,1,2.188-.543A3.659,3.659,0,0,1,5.07-7.5,4.344,4.344,0,0,1,6.1-4.422V-3.4H.867a1.9,1.9,0,0,0,.617,1.117,1.836,1.836,0,0,0,1.234.406A2.366,2.366,0,0,0,4.672-2.75l1.2,1.422A3.363,3.363,0,0,1,4.48-.246,4.713,4.713,0,0,1,2.539.156Zm-.3-6.734q-1.156,0-1.375,1.531H3.523v-.2a1.3,1.3,0,0,0-.32-.98A1.275,1.275,0,0,0,2.242-6.578ZM9.648-8.453l.086.992a2.906,2.906,0,0,1,2.414-1.148,2.14,2.14,0,0,1,2.164,1.273A2.813,2.813,0,0,1,16.8-8.609q2.57,0,2.641,3.109V0H16.8V-5.336a1.611,1.611,0,0,0-.219-.945.931.931,0,0,0-.8-.3,1.247,1.247,0,0,0-1.164.7l.008.109V0H11.984V-5.32a1.694,1.694,0,0,0-.211-.961.929.929,0,0,0-.8-.3,1.263,1.263,0,0,0-1.156.7V0H7.18V-8.453ZM25.7,0a2.973,2.973,0,0,1-.25-.758,2.448,2.448,0,0,1-2.031.914,3,3,0,0,1-2.031-.723,2.3,2.3,0,0,1-.836-1.816A2.364,2.364,0,0,1,21.57-4.461a5.174,5.174,0,0,1,2.953-.7h.813v-.448q0-1.17-1.008-1.17a.824.824,0,0,0-.937.926H20.758A2.36,2.36,0,0,1,21.8-7.845a4.383,4.383,0,0,1,2.66-.765,3.843,3.843,0,0,1,2.555.789,2.743,2.743,0,0,1,.961,2.164v3.742a3.832,3.832,0,0,0,.359,1.781V0ZM24.055-1.719a1.469,1.469,0,0,0,.816-.211,1.322,1.322,0,0,0,.465-.477V-3.758H24.57q-1.375,0-1.375,1.234a.754.754,0,0,0,.242.582A.876.876,0,0,0,24.055-1.719Zm9.8-.656a.608.608,0,0,0-.352-.539,5.348,5.348,0,0,0-1.336-.422,6.092,6.092,0,0,1-1.625-.574,2.722,2.722,0,0,1-.977-.863,2.061,2.061,0,0,1-.336-1.164A2.336,2.336,0,0,1,30.2-7.855a3.958,3.958,0,0,1,2.516-.754,4.386,4.386,0,0,1,2.688.758,2.37,2.37,0,0,1,1.016,1.992H33.773q0-1.016-1.07-1.016a1.061,1.061,0,0,0-.7.23.714.714,0,0,0-.281.574.655.655,0,0,0,.344.57,3.248,3.248,0,0,0,1.1.359,9.485,9.485,0,0,1,1.324.336A2.406,2.406,0,0,1,36.4-2.453,2.214,2.214,0,0,1,35.371-.57a4.505,4.505,0,0,1-2.66.727,4.6,4.6,0,0,1-1.937-.391A3.24,3.24,0,0,1,29.445-1.3a2.406,2.406,0,0,1-.477-1.414H31.43a1.017,1.017,0,0,0,.391.855,1.607,1.607,0,0,0,.961.27A1.264,1.264,0,0,0,33.59-1.8.7.7,0,0,0,33.859-2.375ZM-40.426,16.711a5.164,5.164,0,0,1,.867-3.164,2.854,2.854,0,0,1,2.422-1.156,2.428,2.428,0,0,1,1.906.891V9h2.641V21h-2.367l-.133-.906a2.493,2.493,0,0,1-2.062,1.063A2.849,2.849,0,0,1-39.543,20,5.327,5.327,0,0,1-40.426,16.711Zm2.633.164q0,2.25,1.313,2.25a1.3,1.3,0,0,0,1.25-.734V15.172a1.261,1.261,0,0,0-1.234-.75q-1.219,0-1.32,1.969ZM-27,21.156A4.345,4.345,0,0,1-30.152,20a4.006,4.006,0,0,1-1.2-3.02v-.219a5.191,5.191,0,0,1,.48-2.289,3.516,3.516,0,0,1,1.4-1.535,4.233,4.233,0,0,1,2.188-.543A3.659,3.659,0,0,1-24.473,13.5a4.344,4.344,0,0,1,1.031,3.082V17.6h-5.234a1.9,1.9,0,0,0,.617,1.117,1.836,1.836,0,0,0,1.234.406,2.366,2.366,0,0,0,1.953-.875l1.2,1.422a3.363,3.363,0,0,1-1.395,1.082A4.713,4.713,0,0,1-27,21.156Zm-.3-6.734q-1.156,0-1.375,1.531h2.656v-.2a1.3,1.3,0,0,0-.32-.98A1.275,1.275,0,0,0-27.3,14.422ZM-15.621,21h-2.641V9h2.641Zm6.383,0a2.973,2.973,0,0,1-.25-.758,2.448,2.448,0,0,1-2.031.914,3,3,0,0,1-2.031-.723,2.3,2.3,0,0,1-.836-1.816,2.364,2.364,0,0,1,1.016-2.078,5.174,5.174,0,0,1,2.953-.7h.813v-.448q0-1.17-1.008-1.17a.824.824,0,0,0-.937.926h-2.633a2.36,2.36,0,0,1,1.043-1.99,4.383,4.383,0,0,1,2.66-.765,3.843,3.843,0,0,1,2.555.789,2.743,2.743,0,0,1,.961,2.164v3.742a3.832,3.832,0,0,0,.359,1.781V21Zm-1.648-1.719a1.469,1.469,0,0,0,.816-.211,1.322,1.322,0,0,0,.465-.477V17.242h-.766q-1.375,0-1.375,1.234a.754.754,0,0,0,.242.582A.876.876,0,0,0-10.887,19.281ZM2.9,18.625a.608.608,0,0,0-.352-.539,5.348,5.348,0,0,0-1.336-.422A6.092,6.092,0,0,1-.41,17.09a2.722,2.722,0,0,1-.977-.863,2.061,2.061,0,0,1-.336-1.164,2.336,2.336,0,0,1,.961-1.918,3.958,3.958,0,0,1,2.516-.754,4.386,4.386,0,0,1,2.688.758,2.37,2.37,0,0,1,1.016,1.992H2.816q0-1.016-1.07-1.016a1.061,1.061,0,0,0-.7.23.714.714,0,0,0-.281.574.655.655,0,0,0,.344.57,3.248,3.248,0,0,0,1.1.359,9.485,9.485,0,0,1,1.324.336,2.406,2.406,0,0,1,1.906,2.352A2.214,2.214,0,0,1,4.414,20.43a4.505,4.505,0,0,1-2.66.727,4.6,4.6,0,0,1-1.937-.391A3.24,3.24,0,0,1-1.512,19.7a2.406,2.406,0,0,1-.477-1.414H.473a1.017,1.017,0,0,0,.391.855,1.607,1.607,0,0,0,.961.27,1.264,1.264,0,0,0,.809-.219A.7.7,0,0,0,2.9,18.625ZM11.434,21a2.973,2.973,0,0,1-.25-.758,2.448,2.448,0,0,1-2.031.914,3,3,0,0,1-2.031-.723,2.3,2.3,0,0,1-.836-1.816A2.364,2.364,0,0,1,7.3,16.539a5.174,5.174,0,0,1,2.953-.7h.813v-.448q0-1.17-1.008-1.17a.824.824,0,0,0-.937.926H6.488a2.36,2.36,0,0,1,1.043-1.99,4.383,4.383,0,0,1,2.66-.765,3.843,3.843,0,0,1,2.555.789,2.743,2.743,0,0,1,.961,2.164v3.742a3.832,3.832,0,0,0,.359,1.781V21ZM9.785,19.281a1.469,1.469,0,0,0,.816-.211,1.322,1.322,0,0,0,.465-.477V17.242H10.3q-1.375,0-1.375,1.234a.754.754,0,0,0,.242.582A.876.876,0,0,0,9.785,19.281ZM17.941,21H15.3V9h2.641Zm6.656-.914a2.714,2.714,0,0,1-2.258,1.07,2.662,2.662,0,0,1-2.105-.809,3.4,3.4,0,0,1-.715-2.324V12.547h2.633v5.492a.946.946,0,0,0,1.055,1.086,1.376,1.376,0,0,0,1.289-.648v-5.93h2.648V21H24.676Zm3.656-3.375a5.164,5.164,0,0,1,.867-3.164,2.854,2.854,0,0,1,2.422-1.156,2.428,2.428,0,0,1,1.906.891V9H36.09V21H33.723l-.133-.906a2.493,2.493,0,0,1-2.062,1.063A2.849,2.849,0,0,1,29.137,20,5.327,5.327,0,0,1,28.254,16.711Zm2.633.164q0,2.25,1.313,2.25a1.3,1.3,0,0,0,1.25-.734V15.172a1.261,1.261,0,0,0-1.234-.75q-1.219,0-1.32,1.969ZM-22.535,42.156A4.345,4.345,0,0,1-25.684,41a4.006,4.006,0,0,1-1.2-3.02v-.219a5.191,5.191,0,0,1,.48-2.289A3.516,3.516,0,0,1-25,33.934a4.233,4.233,0,0,1,2.188-.543A3.659,3.659,0,0,1-20,34.5a4.344,4.344,0,0,1,1.031,3.082V38.6h-5.234a1.9,1.9,0,0,0,.617,1.117,1.836,1.836,0,0,0,1.234.406A2.366,2.366,0,0,0-20.4,39.25l1.2,1.422a3.363,3.363,0,0,1-1.395,1.082A4.713,4.713,0,0,1-22.535,42.156Zm-.3-6.734q-1.156,0-1.375,1.531h2.656v-.2a1.3,1.3,0,0,0-.32-.98A1.275,1.275,0,0,0-22.832,35.422Zm7.336-1.875.086.992A2.867,2.867,0,0,1-13,33.391a2.412,2.412,0,0,1,1.973.789,3.757,3.757,0,0,1,.676,2.375V42h-2.641V36.664a1.426,1.426,0,0,0-.258-.941,1.193,1.193,0,0,0-.937-.3,1.256,1.256,0,0,0-1.148.609V42h-2.633V33.547Zm9.672-2.1v2.1h1.391v1.828H-5.824v3.867a.987.987,0,0,0,.172.664.922.922,0,0,0,.68.188,3.862,3.862,0,0,0,.656-.047V41.93a4.859,4.859,0,0,1-1.484.227,2.758,2.758,0,0,1-2.008-.641,2.626,2.626,0,0,1-.648-1.945v-4.2H-9.535V33.547h1.078v-2.1ZM1.715,35.93l-.867-.062a1.558,1.558,0,0,0-1.594.781V42H-3.379V33.547H-.91l.086,1.086a2.039,2.039,0,0,1,1.852-1.242,2.567,2.567,0,0,1,.734.094Zm4.891,6.227A4.345,4.345,0,0,1,3.457,41a4.006,4.006,0,0,1-1.2-3.02v-.219a5.191,5.191,0,0,1,.48-2.289,3.516,3.516,0,0,1,1.4-1.535,4.233,4.233,0,0,1,2.188-.543A3.659,3.659,0,0,1,9.137,34.5a4.344,4.344,0,0,1,1.031,3.082V38.6H4.934a1.9,1.9,0,0,0,.617,1.117,1.836,1.836,0,0,0,1.234.406,2.366,2.366,0,0,0,1.953-.875l1.2,1.422a3.363,3.363,0,0,1-1.395,1.082A4.713,4.713,0,0,1,6.605,42.156Zm-.3-6.734q-1.156,0-1.375,1.531H7.59v-.2a1.3,1.3,0,0,0-.32-.98A1.275,1.275,0,0,0,6.309,35.422ZM17.988,42H15.348V30h2.641Zm6.383,0a2.973,2.973,0,0,1-.25-.758,2.448,2.448,0,0,1-2.031.914,3,3,0,0,1-2.031-.723,2.3,2.3,0,0,1-.836-1.816,2.364,2.364,0,0,1,1.016-2.078,5.174,5.174,0,0,1,2.953-.7H24v-.448q0-1.17-1.008-1.17a.824.824,0,0,0-.937.926H19.426a2.36,2.36,0,0,1,1.043-1.99,4.383,4.383,0,0,1,2.66-.765,3.843,3.843,0,0,1,2.555.789,2.743,2.743,0,0,1,.961,2.164v3.742A3.832,3.832,0,0,0,27,41.867V42Zm-1.648-1.719a1.469,1.469,0,0,0,.816-.211A1.322,1.322,0,0,0,24,39.594V38.242h-.766q-1.375,0-1.375,1.234a.754.754,0,0,0,.242.582A.876.876,0,0,0,22.723,40.281ZM-26.719,58.836a5.1,5.1,0,0,1-.887,3.145A2.843,2.843,0,0,1-30,63.156a2.437,2.437,0,0,1-1.914-.852V66.25h-2.633v-11.7h2.461l.078.781a2.437,2.437,0,0,1,1.992-.937,2.866,2.866,0,0,1,2.43,1.152,5.16,5.16,0,0,1,.867,3.168Zm-2.633-.164q0-2.25-1.312-2.25a1.239,1.239,0,0,0-1.25.672v3.328a1.279,1.279,0,0,0,1.266.7q1.258,0,1.3-2.172Zm3.461.023a4.989,4.989,0,0,1,.492-2.254,3.52,3.52,0,0,1,1.414-1.52,4.259,4.259,0,0,1,2.164-.531,3.887,3.887,0,0,1,2.992,1.176,4.512,4.512,0,0,1,1.094,3.2v.094A4.378,4.378,0,0,1-18.832,62a3.9,3.9,0,0,1-2.973,1.16,3.942,3.942,0,0,1-2.9-1.082,4.232,4.232,0,0,1-1.18-2.934Zm2.633.164a3.145,3.145,0,0,0,.367,1.719,1.223,1.223,0,0,0,1.086.547q1.406,0,1.438-2.164V58.7q0-2.273-1.453-2.273-1.32,0-1.43,1.961Zm14.531-.016a5.152,5.152,0,0,1-.859,3.2,2.878,2.878,0,0,1-2.422,1.117,2.5,2.5,0,0,1-2.078-1.023L-14.2,63h-2.359V51h2.633v4.227a2.41,2.41,0,0,1,1.9-.836,2.879,2.879,0,0,1,2.438,1.133,5.179,5.179,0,0,1,.859,3.188Zm-2.641-.168a3.437,3.437,0,0,0-.324-1.735,1.093,1.093,0,0,0-1-.519,1.261,1.261,0,0,0-1.234.679v3.354a1.268,1.268,0,0,0,1.25.671,1.118,1.118,0,0,0,1.18-.9A6.5,6.5,0,0,0-11.367,58.676ZM-4.789,63H-7.43V51h2.641Zm6.383,0a2.973,2.973,0,0,1-.25-.758,2.448,2.448,0,0,1-2.031.914,3,3,0,0,1-2.031-.723,2.3,2.3,0,0,1-.836-1.816,2.364,2.364,0,0,1,1.016-2.078,5.174,5.174,0,0,1,2.953-.7h.813v-.448q0-1.17-1.008-1.17a.824.824,0,0,0-.937.926H-3.352a2.36,2.36,0,0,1,1.043-1.99,4.383,4.383,0,0,1,2.66-.765,3.843,3.843,0,0,1,2.555.789,2.743,2.743,0,0,1,.961,2.164v3.742a3.832,3.832,0,0,0,.359,1.781V63ZM-.055,61.281a1.469,1.469,0,0,0,.816-.211,1.322,1.322,0,0,0,.465-.477V59.242H.461q-1.375,0-1.375,1.234a.754.754,0,0,0,.242.582A.876.876,0,0,0-.055,61.281ZM8.9,61.125a1.171,1.171,0,0,0,.859-.3,1.1,1.1,0,0,0,.3-.84h2.469a2.923,2.923,0,0,1-1,2.281,3.705,3.705,0,0,1-2.566.891A3.751,3.751,0,0,1,6.055,62a4.556,4.556,0,0,1-1.062-3.2v-.109a5.149,5.149,0,0,1,.473-2.262,3.441,3.441,0,0,1,1.363-1.508,4.065,4.065,0,0,1,2.109-.527,3.658,3.658,0,0,1,2.617.914,3.242,3.242,0,0,1,.969,2.477H10.055a1.445,1.445,0,0,0-.32-1.008,1.106,1.106,0,0,0-.859-.352q-1.023,0-1.2,1.3a9.206,9.206,0,0,0-.055,1.141,3.616,3.616,0,0,0,.3,1.766A1.055,1.055,0,0,0,8.9,61.125ZM16.414,63H13.773V54.547h2.641Zm-2.8-10.633a1.175,1.175,0,0,1,.406-.922,1.727,1.727,0,0,1,2.109,0,1.249,1.249,0,0,1,0,1.844,1.727,1.727,0,0,1-2.109,0A1.175,1.175,0,0,1,13.617,52.367ZM17.7,58.7a4.989,4.989,0,0,1,.492-2.254,3.52,3.52,0,0,1,1.414-1.52,4.259,4.259,0,0,1,2.164-.531,3.887,3.887,0,0,1,2.992,1.176,4.512,4.512,0,0,1,1.094,3.2v.094A4.378,4.378,0,0,1,24.762,62a3.9,3.9,0,0,1-2.973,1.16,3.942,3.942,0,0,1-2.9-1.082,4.232,4.232,0,0,1-1.18-2.934Zm2.633.164a3.145,3.145,0,0,0,.367,1.719,1.223,1.223,0,0,0,1.086.547q1.406,0,1.438-2.164V58.7q0-2.273-1.453-2.273-1.32,0-1.43,1.961ZM22.133,51h2.781l-2.172,2.453-2.148,0Zm7.3,3.547.086.992a2.867,2.867,0,0,1,2.414-1.148,2.412,2.412,0,0,1,1.973.789,3.757,3.757,0,0,1,.676,2.375V63H31.945V57.664a1.426,1.426,0,0,0-.258-.941,1.193,1.193,0,0,0-.937-.3,1.256,1.256,0,0,0-1.148.609V63H26.969V54.547Z" transform="translate(964.159 1084.95)" fill="#fff"/>
    <path id="Trazado_822213" data-name="Trazado 822213" d="M-38.508-4.531H-42.93V0h-2.742V-11.375h7.609v2.117H-42.93v2.617h4.422ZM-32.547,0a2.973,2.973,0,0,1-.25-.758,2.448,2.448,0,0,1-2.031.914,3,3,0,0,1-2.031-.723A2.3,2.3,0,0,1-37.7-2.383,2.364,2.364,0,0,1-36.68-4.461a5.174,5.174,0,0,1,2.953-.7h.813v-.448q0-1.17-1.008-1.17a.824.824,0,0,0-.937.926h-2.633a2.36,2.36,0,0,1,1.043-1.99,4.383,4.383,0,0,1,2.66-.765,3.843,3.843,0,0,1,2.555.789,2.743,2.743,0,0,1,.961,2.164v3.742a3.832,3.832,0,0,0,.359,1.781V0ZM-34.2-1.719a1.469,1.469,0,0,0,.816-.211,1.322,1.322,0,0,0,.465-.477V-3.758h-.766q-1.375,0-1.375,1.234a.754.754,0,0,0,.242.582A.876.876,0,0,0-34.2-1.719Zm8.953-.156a1.171,1.171,0,0,0,.859-.3,1.1,1.1,0,0,0,.3-.84h2.469a2.922,2.922,0,0,1-1,2.281A3.705,3.705,0,0,1-25.18.156,3.751,3.751,0,0,1-28.086-1a4.556,4.556,0,0,1-1.062-3.2v-.109a5.149,5.149,0,0,1,.473-2.262,3.441,3.441,0,0,1,1.363-1.508A4.065,4.065,0,0,1-25.2-8.609a3.658,3.658,0,0,1,2.617.914,3.242,3.242,0,0,1,.969,2.477h-2.469a1.445,1.445,0,0,0-.32-1.008,1.106,1.106,0,0,0-.859-.352q-1.023,0-1.2,1.3a9.206,9.206,0,0,0-.055,1.141,3.616,3.616,0,0,0,.3,1.766A1.055,1.055,0,0,0-25.242-1.875Zm7.8-8.68v2.1h1.391v1.828h-1.391v3.867a.987.987,0,0,0,.172.664.922.922,0,0,0,.68.188,3.862,3.862,0,0,0,.656-.047V-.07a4.859,4.859,0,0,1-1.484.227,2.758,2.758,0,0,1-2.008-.641A2.626,2.626,0,0,1-20.07-2.43v-4.2h-1.078V-8.453h1.078v-2.1Zm1.859,6.25a4.989,4.989,0,0,1,.492-2.254,3.52,3.52,0,0,1,1.414-1.52,4.259,4.259,0,0,1,2.164-.531A3.887,3.887,0,0,1-8.516-7.434a4.512,4.512,0,0,1,1.094,3.2v.094A4.378,4.378,0,0,1-8.52-1,3.9,3.9,0,0,1-11.492.156a3.942,3.942,0,0,1-2.9-1.082,4.232,4.232,0,0,1-1.18-2.934Zm2.633.164a3.145,3.145,0,0,0,.367,1.719,1.223,1.223,0,0,0,1.086.547q1.406,0,1.438-2.164V-4.3q0-2.273-1.453-2.273-1.32,0-1.43,1.961Zm11.8-1.93-.867-.062a1.558,1.558,0,0,0-1.594.781V0H-6.242V-8.453h2.469l.086,1.086A2.039,2.039,0,0,1-1.836-8.609a2.567,2.567,0,0,1,.734.094ZM3.742.156A4.345,4.345,0,0,1,.594-1a4.006,4.006,0,0,1-1.2-3.02v-.219a5.191,5.191,0,0,1,.48-2.289,3.516,3.516,0,0,1,1.4-1.535,4.233,4.233,0,0,1,2.188-.543A3.659,3.659,0,0,1,6.273-7.5,4.344,4.344,0,0,1,7.3-4.422V-3.4H2.07a1.9,1.9,0,0,0,.617,1.117,1.836,1.836,0,0,0,1.234.406A2.366,2.366,0,0,0,5.875-2.75l1.2,1.422A3.363,3.363,0,0,1,5.684-.246,4.713,4.713,0,0,1,3.742.156Zm-.3-6.734q-1.156,0-1.375,1.531H4.727v-.2a1.3,1.3,0,0,0-.32-.98A1.275,1.275,0,0,0,3.445-6.578Zm9.344,4.2a.608.608,0,0,0-.352-.539A5.348,5.348,0,0,0,11.1-3.336,6.092,6.092,0,0,1,9.477-3.91,2.722,2.722,0,0,1,8.5-4.773a2.061,2.061,0,0,1-.336-1.164,2.336,2.336,0,0,1,.961-1.918,3.958,3.958,0,0,1,2.516-.754,4.386,4.386,0,0,1,2.688.758,2.37,2.37,0,0,1,1.016,1.992H12.7q0-1.016-1.07-1.016a1.061,1.061,0,0,0-.7.23.714.714,0,0,0-.281.574A.655.655,0,0,0,11-5.5a3.248,3.248,0,0,0,1.1.359,9.485,9.485,0,0,1,1.324.336,2.406,2.406,0,0,1,1.906,2.352A2.214,2.214,0,0,1,14.3-.57a4.505,4.505,0,0,1-2.66.727A4.6,4.6,0,0,1,9.7-.234,3.24,3.24,0,0,1,8.375-1.3,2.406,2.406,0,0,1,7.9-2.711h2.461a1.017,1.017,0,0,0,.391.855,1.607,1.607,0,0,0,.961.27A1.264,1.264,0,0,0,12.52-1.8.7.7,0,0,0,12.789-2.375Zm7.422-1.937a5.074,5.074,0,0,1,.875-3.156A2.874,2.874,0,0,1,23.5-8.609a2.454,2.454,0,0,1,2.078,1.063l.188-.906h2.281V3.25H25.406V-.7a2.451,2.451,0,0,1-1.922.859A2.849,2.849,0,0,1,21.1-1,5.357,5.357,0,0,1,20.211-4.312Zm2.633.164q0,2.273,1.313,2.273a1.271,1.271,0,0,0,1.25-.687V-5.906a1.244,1.244,0,0,0-1.234-.672q-1.227,0-1.32,1.961ZM34.57-.914A2.714,2.714,0,0,1,32.313.156a2.662,2.662,0,0,1-2.105-.809,3.4,3.4,0,0,1-.715-2.324V-8.453h2.633v5.492A.946.946,0,0,0,33.18-1.875a1.376,1.376,0,0,0,1.289-.648v-5.93h2.648V0H34.648ZM42.648.156A4.345,4.345,0,0,1,39.5-1a4.006,4.006,0,0,1-1.2-3.02v-.219a5.191,5.191,0,0,1,.48-2.289,3.516,3.516,0,0,1,1.4-1.535,4.233,4.233,0,0,1,2.188-.543A3.659,3.659,0,0,1,45.18-7.5a4.344,4.344,0,0,1,1.031,3.082V-3.4H40.977a1.9,1.9,0,0,0,.617,1.117,1.836,1.836,0,0,0,1.234.406,2.366,2.366,0,0,0,1.953-.875l1.2,1.422A3.363,3.363,0,0,1,44.59-.246,4.713,4.713,0,0,1,42.648.156Zm-.3-6.734q-1.156,0-1.375,1.531h2.656v-.2a1.3,1.3,0,0,0-.32-.98A1.275,1.275,0,0,0,42.352-6.578Zm-73.98,23.414a5.1,5.1,0,0,1-.887,3.145,2.843,2.843,0,0,1-2.395,1.176,2.437,2.437,0,0,1-1.914-.852V24.25h-2.633v-11.7H-37l.078.781a2.437,2.437,0,0,1,1.992-.937,2.866,2.866,0,0,1,2.43,1.152,5.16,5.16,0,0,1,.867,3.168Zm-2.633-.164q0-2.25-1.312-2.25a1.239,1.239,0,0,0-1.25.672v3.328a1.279,1.279,0,0,0,1.266.7q1.258,0,1.3-2.172Zm8.828,3.414a2.714,2.714,0,0,1-2.258,1.07,2.662,2.662,0,0,1-2.105-.809,3.4,3.4,0,0,1-.715-2.324V12.547h2.633v5.492a.946.946,0,0,0,1.055,1.086,1.376,1.376,0,0,0,1.289-.648v-5.93h2.648V21h-2.469Zm8.078,1.07A4.345,4.345,0,0,1-20.5,20a4.006,4.006,0,0,1-1.2-3.02v-.219a5.191,5.191,0,0,1,.48-2.289,3.516,3.516,0,0,1,1.4-1.535,4.233,4.233,0,0,1,2.188-.543A3.659,3.659,0,0,1-14.824,13.5a4.344,4.344,0,0,1,1.031,3.082V17.6h-5.234a1.9,1.9,0,0,0,.617,1.117,1.836,1.836,0,0,0,1.234.406,2.366,2.366,0,0,0,1.953-.875l1.2,1.422a3.363,3.363,0,0,1-1.395,1.082A4.713,4.713,0,0,1-17.355,21.156Zm-.3-6.734q-1.156,0-1.375,1.531h2.656v-.2a1.3,1.3,0,0,0-.32-.98A1.275,1.275,0,0,0-17.652,14.422Zm4.586,2.289a5.164,5.164,0,0,1,.867-3.164,2.854,2.854,0,0,1,2.422-1.156,2.428,2.428,0,0,1,1.906.891V9H-5.23V21H-7.6l-.133-.906a2.493,2.493,0,0,1-2.062,1.063A2.849,2.849,0,0,1-12.184,20,5.327,5.327,0,0,1-13.066,16.711Zm2.633.164q0,2.25,1.313,2.25a1.3,1.3,0,0,0,1.25-.734V15.172a1.261,1.261,0,0,0-1.234-.75q-1.219,0-1.32,1.969ZM.355,21.156A4.345,4.345,0,0,1-2.793,20,4.006,4.006,0,0,1-4,16.977v-.219a5.191,5.191,0,0,1,.48-2.289,3.516,3.516,0,0,1,1.4-1.535,4.233,4.233,0,0,1,2.188-.543A3.659,3.659,0,0,1,2.887,13.5a4.344,4.344,0,0,1,1.031,3.082V17.6H-1.316A1.9,1.9,0,0,0-.7,18.719a1.836,1.836,0,0,0,1.234.406,2.366,2.366,0,0,0,1.953-.875l1.2,1.422A3.363,3.363,0,0,1,2.3,20.754,4.713,4.713,0,0,1,.355,21.156Zm-.3-6.734q-1.156,0-1.375,1.531H1.34v-.2a1.3,1.3,0,0,0-.32-.98A1.275,1.275,0,0,0,.059,14.422Zm7.336-1.875.086.992a2.867,2.867,0,0,1,2.414-1.148,2.412,2.412,0,0,1,1.973.789,3.757,3.757,0,0,1,.676,2.375V21H9.9V15.664a1.426,1.426,0,0,0-.258-.941,1.193,1.193,0,0,0-.937-.3,1.256,1.256,0,0,0-1.148.609V21H4.926V12.547ZM22.41,18.625a.608.608,0,0,0-.352-.539,5.348,5.348,0,0,0-1.336-.422A6.092,6.092,0,0,1,19.1,17.09a2.722,2.722,0,0,1-.977-.863,2.061,2.061,0,0,1-.336-1.164,2.336,2.336,0,0,1,.961-1.918,3.958,3.958,0,0,1,2.516-.754,4.386,4.386,0,0,1,2.688.758,2.37,2.37,0,0,1,1.016,1.992H22.324q0-1.016-1.07-1.016a1.061,1.061,0,0,0-.7.23.714.714,0,0,0-.281.574.655.655,0,0,0,.344.57,3.248,3.248,0,0,0,1.1.359,9.485,9.485,0,0,1,1.324.336,2.406,2.406,0,0,1,1.906,2.352,2.214,2.214,0,0,1-1.027,1.883,4.505,4.505,0,0,1-2.66.727,4.6,4.6,0,0,1-1.937-.391A3.24,3.24,0,0,1,18,19.7a2.406,2.406,0,0,1-.477-1.414H19.98a1.017,1.017,0,0,0,.391.855,1.607,1.607,0,0,0,.961.27,1.264,1.264,0,0,0,.809-.219A.7.7,0,0,0,22.41,18.625Zm7.859,2.531A4.345,4.345,0,0,1,27.121,20a4.006,4.006,0,0,1-1.2-3.02v-.219a5.191,5.191,0,0,1,.48-2.289,3.516,3.516,0,0,1,1.4-1.535,4.233,4.233,0,0,1,2.188-.543A3.659,3.659,0,0,1,32.8,13.5a4.344,4.344,0,0,1,1.031,3.082V17.6H28.6a1.9,1.9,0,0,0,.617,1.117,1.836,1.836,0,0,0,1.234.406A2.366,2.366,0,0,0,32.4,18.25l1.2,1.422a3.363,3.363,0,0,1-1.395,1.082A4.713,4.713,0,0,1,30.27,21.156Zm-.3-6.734q-1.156,0-1.375,1.531h2.656v-.2a1.3,1.3,0,0,0-.32-.98A1.275,1.275,0,0,0,29.973,14.422ZM40,14.93l-.867-.062a1.558,1.558,0,0,0-1.594.781V21H34.91V12.547h2.469l.086,1.086a2.039,2.039,0,0,1,1.852-1.242,2.567,2.567,0,0,1,.734.094ZM-40.039,37.711a5.164,5.164,0,0,1,.867-3.164,2.854,2.854,0,0,1,2.422-1.156,2.428,2.428,0,0,1,1.906.891V30H-32.2V42H-34.57l-.133-.906a2.493,2.493,0,0,1-2.062,1.063A2.849,2.849,0,0,1-39.156,41,5.327,5.327,0,0,1-40.039,37.711Zm2.633.164q0,2.25,1.313,2.25a1.3,1.3,0,0,0,1.25-.734V36.172a1.261,1.261,0,0,0-1.234-.75q-1.219,0-1.32,1.969Zm10.789,4.281A4.345,4.345,0,0,1-29.766,41a4.006,4.006,0,0,1-1.2-3.02v-.219a5.191,5.191,0,0,1,.48-2.289,3.516,3.516,0,0,1,1.4-1.535,4.233,4.233,0,0,1,2.188-.543A3.659,3.659,0,0,1-24.086,34.5a4.344,4.344,0,0,1,1.031,3.082V38.6h-5.234a1.9,1.9,0,0,0,.617,1.117,1.836,1.836,0,0,0,1.234.406,2.366,2.366,0,0,0,1.953-.875l1.2,1.422a3.363,3.363,0,0,1-1.395,1.082A4.713,4.713,0,0,1-26.617,42.156Zm-.3-6.734q-1.156,0-1.375,1.531h2.656v-.2a1.3,1.3,0,0,0-.32-.98A1.275,1.275,0,0,0-26.914,35.422Zm7.984-3.977v2.1h1.391v1.828H-18.93v3.867a.987.987,0,0,0,.172.664.922.922,0,0,0,.68.188,3.862,3.862,0,0,0,.656-.047V41.93a4.859,4.859,0,0,1-1.484.227,2.758,2.758,0,0,1-2.008-.641,2.626,2.626,0,0,1-.648-1.945v-4.2h-1.078V33.547h1.078v-2.1Zm1.859,6.25a4.989,4.989,0,0,1,.492-2.254,3.52,3.52,0,0,1,1.414-1.52A4.259,4.259,0,0,1-13,33.391a3.887,3.887,0,0,1,2.992,1.176,4.512,4.512,0,0,1,1.094,3.2v.094A4.378,4.378,0,0,1-10.012,41a3.9,3.9,0,0,1-2.973,1.16,3.942,3.942,0,0,1-2.9-1.082,4.232,4.232,0,0,1-1.18-2.934Zm2.633.164a3.145,3.145,0,0,0,.367,1.719,1.223,1.223,0,0,0,1.086.547q1.406,0,1.438-2.164V37.7q0-2.273-1.453-2.273-1.32,0-1.43,1.961Zm9.1-4.312.086.992a2.867,2.867,0,0,1,2.414-1.148,2.412,2.412,0,0,1,1.973.789,3.757,3.757,0,0,1,.676,2.375V42H-2.828V36.664a1.426,1.426,0,0,0-.258-.941,1.193,1.193,0,0,0-.937-.3,1.256,1.256,0,0,0-1.148.609V42H-7.8V33.547ZM6.031,42a2.973,2.973,0,0,1-.25-.758,2.448,2.448,0,0,1-2.031.914,3,3,0,0,1-2.031-.723,2.3,2.3,0,0,1-.836-1.816A2.364,2.364,0,0,1,1.9,37.539a5.174,5.174,0,0,1,2.953-.7h.813v-.448q0-1.17-1.008-1.17a.824.824,0,0,0-.937.926H1.086a2.36,2.36,0,0,1,1.043-1.99,4.383,4.383,0,0,1,2.66-.765,3.843,3.843,0,0,1,2.555.789A2.743,2.743,0,0,1,8.3,36.344v3.742a3.832,3.832,0,0,0,.359,1.781V42ZM4.383,40.281A1.469,1.469,0,0,0,5.2,40.07a1.322,1.322,0,0,0,.465-.477V38.242H4.9q-1.375,0-1.375,1.234a.754.754,0,0,0,.242.582A.876.876,0,0,0,4.383,40.281Zm7.8-6.734.086.992a2.867,2.867,0,0,1,2.414-1.148,2.412,2.412,0,0,1,1.973.789,3.757,3.757,0,0,1,.676,2.375V42H14.688V36.664a1.426,1.426,0,0,0-.258-.941,1.193,1.193,0,0,0-.937-.3,1.256,1.256,0,0,0-1.148.609V42H9.711V33.547Zm9.672-2.1v2.1h1.391v1.828H21.852v3.867a.987.987,0,0,0,.172.664.922.922,0,0,0,.68.188,3.862,3.862,0,0,0,.656-.047V41.93a4.859,4.859,0,0,1-1.484.227,2.758,2.758,0,0,1-2.008-.641,2.626,2.626,0,0,1-.648-1.945v-4.2H18.141V33.547h1.078v-2.1Zm6.516,10.711A4.345,4.345,0,0,1,25.219,41a4.006,4.006,0,0,1-1.2-3.02v-.219a5.191,5.191,0,0,1,.48-2.289,3.516,3.516,0,0,1,1.4-1.535,4.233,4.233,0,0,1,2.188-.543A3.659,3.659,0,0,1,30.9,34.5a4.344,4.344,0,0,1,1.031,3.082V38.6H26.7a1.9,1.9,0,0,0,.617,1.117,1.836,1.836,0,0,0,1.234.406A2.366,2.366,0,0,0,30.5,39.25l1.2,1.422a3.363,3.363,0,0,1-1.395,1.082A4.713,4.713,0,0,1,28.367,42.156Zm-.3-6.734q-1.156,0-1.375,1.531h2.656v-.2a1.3,1.3,0,0,0-.32-.98A1.275,1.275,0,0,0,28.07,35.422Zm9.344,4.2a.608.608,0,0,0-.352-.539,5.347,5.347,0,0,0-1.336-.422A6.092,6.092,0,0,1,34.1,38.09a2.722,2.722,0,0,1-.977-.863,2.061,2.061,0,0,1-.336-1.164,2.336,2.336,0,0,1,.961-1.918,3.958,3.958,0,0,1,2.516-.754,4.386,4.386,0,0,1,2.688.758,2.37,2.37,0,0,1,1.016,1.992H37.328q0-1.016-1.07-1.016a1.061,1.061,0,0,0-.7.23.714.714,0,0,0-.281.574.655.655,0,0,0,.344.57,3.248,3.248,0,0,0,1.1.359,9.486,9.486,0,0,1,1.324.336,2.406,2.406,0,0,1,1.906,2.352,2.214,2.214,0,0,1-1.027,1.883,4.505,4.505,0,0,1-2.66.727,4.6,4.6,0,0,1-1.937-.391A3.24,3.24,0,0,1,33,40.7a2.406,2.406,0,0,1-.477-1.414h2.461a1.017,1.017,0,0,0,.391.855,1.607,1.607,0,0,0,.961.27,1.264,1.264,0,0,0,.809-.219A.7.7,0,0,0,37.414,39.625Z" transform="translate(964.709 1295.688)"/>
    <path id="Trazado_822214" data-name="Trazado 822214" d="M-39.216-5.947h-5.8V0h-3.6V-14.93h9.987v2.779H-45.02v3.435h5.8ZM-32.141.205a5.7,5.7,0,0,1-4.132-1.523,5.258,5.258,0,0,1-1.579-3.963v-.287a6.814,6.814,0,0,1,.631-3,4.614,4.614,0,0,1,1.841-2.015A5.556,5.556,0,0,1-32.51-11.3a4.8,4.8,0,0,1,3.691,1.451A5.7,5.7,0,0,1-27.465-5.8V-4.46h-6.87a2.491,2.491,0,0,0,.81,1.466,2.41,2.41,0,0,0,1.62.533,3.106,3.106,0,0,0,2.563-1.148l1.579,1.866a4.414,4.414,0,0,1-1.83,1.42A6.185,6.185,0,0,1-32.141.205Zm-.39-8.839q-1.518,0-1.8,2.01h3.486v-.267a1.712,1.712,0,0,0-.42-1.287A1.673,1.673,0,0,0-32.531-8.634Zm9.628-2.461.113,1.3A3.762,3.762,0,0,1-19.621-11.3a3.165,3.165,0,0,1,2.589,1.036,4.93,4.93,0,0,1,.887,3.117V0h-3.466V-7a1.872,1.872,0,0,0-.338-1.236,1.565,1.565,0,0,0-1.23-.395,1.648,1.648,0,0,0-1.507.8V0h-3.456V-11.095Zm8.234,5.445a6.548,6.548,0,0,1,.646-2.958A4.62,4.62,0,0,1-12.166-10.6a5.59,5.59,0,0,1,2.84-.7A5.1,5.1,0,0,1-5.4-9.757a5.922,5.922,0,0,1,1.436,4.2v.123A5.746,5.746,0,0,1-5.4-1.318,5.115,5.115,0,0,1-9.305.205a5.173,5.173,0,0,1-3.8-1.42,5.555,5.555,0,0,1-1.548-3.85Zm3.456.215a4.128,4.128,0,0,0,.482,2.256,1.606,1.606,0,0,0,1.425.718q1.846,0,1.887-2.84V-5.65q0-2.984-1.907-2.984-1.733,0-1.876,2.574ZM-8.854-15.75H-5.2l-2.851,3.22-2.82-.005Zm9.68,4.655.113,1.3A3.815,3.815,0,0,1,4.107-11.3a2.808,2.808,0,0,1,2.84,1.671A3.692,3.692,0,0,1,10.208-11.3q3.374,0,3.466,4.081V0H10.208V-7a2.115,2.115,0,0,0-.287-1.241,1.222,1.222,0,0,0-1.046-.39,1.637,1.637,0,0,0-1.528.913l.01.144V0H3.891V-6.983a2.223,2.223,0,0,0-.277-1.261,1.219,1.219,0,0,0-1.056-.39,1.657,1.657,0,0,0-1.518.913V0H-2.415V-11.095ZM21.015.205a5.7,5.7,0,0,1-4.132-1.523A5.258,5.258,0,0,1,15.3-5.281v-.287a6.814,6.814,0,0,1,.631-3,4.614,4.614,0,0,1,1.841-2.015,5.556,5.556,0,0,1,2.871-.713,4.8,4.8,0,0,1,3.691,1.451A5.7,5.7,0,0,1,25.691-5.8V-4.46h-6.87a2.491,2.491,0,0,0,.81,1.466,2.41,2.41,0,0,0,1.62.533,3.106,3.106,0,0,0,2.563-1.148l1.579,1.866a4.414,4.414,0,0,1-1.83,1.42A6.185,6.185,0,0,1,21.015.205Zm-.39-8.839q-1.518,0-1.8,2.01h3.486v-.267a1.712,1.712,0,0,0-.42-1.287A1.673,1.673,0,0,0,20.626-8.634Zm9.628-2.461.113,1.3A3.762,3.762,0,0,1,33.535-11.3a3.165,3.165,0,0,1,2.589,1.036,4.93,4.93,0,0,1,.887,3.117V0H33.546V-7a1.872,1.872,0,0,0-.338-1.236,1.565,1.565,0,0,0-1.23-.395,1.648,1.648,0,0,0-1.507.8V0H27.014V-11.095ZM38.488-5.65a6.548,6.548,0,0,1,.646-2.958A4.62,4.62,0,0,1,40.99-10.6a5.59,5.59,0,0,1,2.84-.7,5.1,5.1,0,0,1,3.927,1.543,5.922,5.922,0,0,1,1.436,4.2v.123a5.746,5.746,0,0,1-1.441,4.117,5.115,5.115,0,0,1-3.9,1.523,5.173,5.173,0,0,1-3.8-1.42A5.555,5.555,0,0,1,38.5-5.065Zm3.456.215a4.128,4.128,0,0,0,.482,2.256,1.606,1.606,0,0,0,1.425.718q1.846,0,1.887-2.84V-5.65q0-2.984-1.907-2.984-1.733,0-1.876,2.574ZM-51.813,28h-3.466V16.905h3.466Zm-3.671-13.956a1.542,1.542,0,0,1,.533-1.21,2.012,2.012,0,0,1,1.384-.472,2.012,2.012,0,0,1,1.384.472,1.542,1.542,0,0,1,.533,1.21,1.542,1.542,0,0,1-.533,1.21,2.012,2.012,0,0,1-1.384.472,2.012,2.012,0,0,1-1.384-.472A1.542,1.542,0,0,1-55.484,14.044Zm5.363,8.326a6.777,6.777,0,0,1,1.138-4.153A3.746,3.746,0,0,1-45.8,16.7a3.186,3.186,0,0,1,2.5,1.169V12.25h3.466V28h-3.107l-.174-1.189a3.272,3.272,0,0,1-2.707,1.395,3.74,3.74,0,0,1-3.138-1.518A6.992,6.992,0,0,1-50.121,22.371Zm3.456.215q0,2.953,1.723,2.953a1.7,1.7,0,0,0,1.641-.964V20.351a1.655,1.655,0,0,0-1.62-.984q-1.6,0-1.733,2.584ZM-32.5,28.205a5.7,5.7,0,0,1-4.132-1.523,5.258,5.258,0,0,1-1.579-3.963v-.287a6.814,6.814,0,0,1,.631-3,4.614,4.614,0,0,1,1.841-2.015,5.556,5.556,0,0,1,2.871-.713,4.8,4.8,0,0,1,3.691,1.451A5.7,5.7,0,0,1-27.829,22.2V23.54H-34.7a2.491,2.491,0,0,0,.81,1.466,2.41,2.41,0,0,0,1.62.533,3.106,3.106,0,0,0,2.563-1.148l1.579,1.866a4.414,4.414,0,0,1-1.83,1.42A6.185,6.185,0,0,1-32.5,28.205Zm-.39-8.839q-1.518,0-1.8,2.01h3.486v-.267a1.712,1.712,0,0,0-.42-1.287A1.673,1.673,0,0,0-32.895,19.366Zm9.628-2.461.113,1.3A3.762,3.762,0,0,1-19.985,16.7,3.165,3.165,0,0,1-17.4,17.736a4.93,4.93,0,0,1,.887,3.117V28h-3.466V21a1.872,1.872,0,0,0-.338-1.236,1.565,1.565,0,0,0-1.23-.395,1.648,1.648,0,0,0-1.507.8V28h-3.456V16.905Zm12.694-2.758v2.758h1.825v2.4h-1.825V24.38a1.3,1.3,0,0,0,.226.872,1.21,1.21,0,0,0,.892.246,5.069,5.069,0,0,0,.861-.062v2.471a6.377,6.377,0,0,1-1.948.3,3.62,3.62,0,0,1-2.635-.841,3.446,3.446,0,0,1-.851-2.553V19.3h-1.415v-2.4h1.415V14.147ZM-3.743,28H-7.208V16.905h3.466ZM-7.414,14.044a1.542,1.542,0,0,1,.533-1.21A2.012,2.012,0,0,1-5.5,12.363a2.012,2.012,0,0,1,1.384.472,1.542,1.542,0,0,1,.533,1.21,1.542,1.542,0,0,1-.533,1.21,2.012,2.012,0,0,1-1.384.472,2.012,2.012,0,0,1-1.384-.472A1.542,1.542,0,0,1-7.414,14.044ZM-.81,28V19.3H-2.42v-2.4H-.81v-.369A4.236,4.236,0,0,1,.646,13.142,5.818,5.818,0,0,1,4.43,12.035a13.427,13.427,0,0,1,3.609.595l-.472,2.728L6.993,15.2a9.137,9.137,0,0,0-2.358-.3q-1.979,0-1.979,1.8v.195H4.83v2.4H2.656V28ZM9.628,28H6.152V16.905H9.628Zm6.8-2.461a1.537,1.537,0,0,0,1.128-.395,1.448,1.448,0,0,0,.39-1.1h3.24a3.836,3.836,0,0,1-1.307,2.994,4.863,4.863,0,0,1-3.368,1.169,4.924,4.924,0,0,1-3.814-1.518,5.979,5.979,0,0,1-1.395-4.2V22.34a6.758,6.758,0,0,1,.62-2.969,4.517,4.517,0,0,1,1.789-1.979,5.335,5.335,0,0,1,2.769-.692,4.8,4.8,0,0,1,3.435,1.2,4.255,4.255,0,0,1,1.271,3.25h-3.24a1.9,1.9,0,0,0-.42-1.323,1.451,1.451,0,0,0-1.128-.461q-1.343,0-1.569,1.712a12.083,12.083,0,0,0-.072,1.5,4.746,4.746,0,0,0,.4,2.317A1.384,1.384,0,0,0,16.427,25.539ZM28.9,28a3.9,3.9,0,0,1-.328-.995,3.213,3.213,0,0,1-2.666,1.2,3.936,3.936,0,0,1-2.666-.948,3.019,3.019,0,0,1-1.1-2.384,3.1,3.1,0,0,1,1.333-2.728,6.791,6.791,0,0,1,3.876-.923h1.066v-.587q0-1.535-1.323-1.535a1.081,1.081,0,0,0-1.23,1.216H22.4A3.1,3.1,0,0,1,23.774,17.7a5.753,5.753,0,0,1,3.491-1,5.044,5.044,0,0,1,3.353,1.036,3.6,3.6,0,0,1,1.261,2.84v4.912a5.03,5.03,0,0,0,.472,2.338V28Zm-2.164-2.256a1.928,1.928,0,0,0,1.072-.277,1.735,1.735,0,0,0,.61-.625V23.068h-1q-1.8,0-1.8,1.62a.989.989,0,0,0,.318.764A1.15,1.15,0,0,0,26.732,25.744Zm6.624-3.374a6.777,6.777,0,0,1,1.138-4.153A3.746,3.746,0,0,1,37.673,16.7a3.186,3.186,0,0,1,2.5,1.169V12.25h3.466V28H40.534l-.174-1.189a3.272,3.272,0,0,1-2.707,1.395,3.74,3.74,0,0,1-3.138-1.518A6.992,6.992,0,0,1,33.356,22.371Zm3.456.215q0,2.953,1.723,2.953a1.7,1.7,0,0,0,1.641-.964V20.351a1.655,1.655,0,0,0-1.62-.984q-1.6,0-1.733,2.584Zm8.357-.236a6.548,6.548,0,0,1,.646-2.958A4.62,4.62,0,0,1,47.67,17.4a5.59,5.59,0,0,1,2.84-.7,5.1,5.1,0,0,1,3.927,1.543,5.922,5.922,0,0,1,1.436,4.2v.123a5.746,5.746,0,0,1-1.441,4.117,5.115,5.115,0,0,1-3.9,1.523,5.173,5.173,0,0,1-3.8-1.42,5.555,5.555,0,0,1-1.548-3.85Zm3.456.215a4.128,4.128,0,0,0,.482,2.256,1.606,1.606,0,0,0,1.425.718q1.846,0,1.887-2.84V22.35q0-2.984-1.907-2.984-1.733,0-1.876,2.574Z" transform="translate(1169.667 1205.941)"/>
    <path id="Trazado_822215" data-name="Trazado 822215" d="M19.984,0,39.968,34.607H0Z" transform="translate(1065.317 1195.304) rotate(90)" fill="#7816c2"/>
    <path id="Trazado_822216" data-name="Trazado 822216" d="M0,0H30.964V17.562H0Z" transform="translate(1006.728 1206.204)" fill="#7816c2"/>
    <g id="Trazado_822217" data-name="Trazado 822217" transform="translate(957.777 1192.875)" fill="#7816c2">
      <path d="M 12.92758083343506 39.78273773193359 L 0.5000004172325134 39.78273773193359 L 0.5000004172325134 0.4999988675117493 L 12.92758083343506 0.4999988675117493 L 12.92758083343506 39.78273773193359 Z" stroke="none"/>
      <path d="M 1 1 L 1 39.28273773193359 L 12.42758083343506 39.28273773193359 L 12.42758083343506 1 L 1 1 M 0 0 L 13.42758083343506 0 L 13.42758083343506 40.28273773193359 L 0 40.28273773193359 L 0 0 Z" stroke="none" fill="#707070"/>
    </g>
    <g id="Trazado_822218" data-name="Trazado 822218" transform="matrix(-0.017, -1, 1, -0.017, 944.584, 1220.432)" fill="#7816c2">
      <path d="M 12.92758083343506 39.78273773193359 L 0.5000004172325134 39.78273773193359 L 0.5000004172325134 0.4999988675117493 L 12.92758083343506 0.4999988675117493 L 12.92758083343506 39.78273773193359 Z" stroke="none"/>
      <path d="M 1 1 L 1 39.28273773193359 L 12.42758083343506 39.28273773193359 L 12.42758083343506 1 L 1 1 M 0 0 L 13.42758083343506 0 L 13.42758083343506 40.28273773193359 L 0 40.28273773193359 L 0 0 Z" stroke="none" fill="#707070"/>
    </g>
  </g>
</svg>
