<svg xmlns="http://www.w3.org/2000/svg" xmlns:xlink="http://www.w3.org/1999/xlink" width="149.728" height="148.396" viewBox="0 0 149.728 148.396">
  <defs>
    <clipPath id="clip-path">
      <rect id="Rectángulo_376089" data-name="Rectángulo 376089" width="74.659" height="75.913" fill="none"/>
    </clipPath>
  </defs>
  <g id="Grupo_1073524" data-name="Grupo 1073524" transform="translate(11909.061 12076.837)">
    <path id="Trazado_819132" data-name="Trazado 819132" d="M241.315,360.15a17.313,17.313,0,0,1-8.322-5.053l-29.212-32.05a17.356,17.356,0,0,1-3.7-16.908l13.151-41.324a17.358,17.358,0,0,1,12.792-11.66l42.362-9.272a17.356,17.356,0,0,1,16.493,5.248l29.212,32.05a17.353,17.353,0,0,1,3.7,16.91l-13.148,41.322a17.361,17.361,0,0,1-12.794,11.66l-.067-.309.067.309-42.36,9.272a17.264,17.264,0,0,1-8.174-.2" transform="translate(-12173.818 -12209.951) rotate(-18)" fill="#264100"/>
    <g id="Grupo_1072926" data-name="Grupo 1072926" transform="translate(-11864.387 -12040.979)">
      <g id="Grupo_1071224" data-name="Grupo 1071224">
        <g id="Grupo_1071223" data-name="Grupo 1071223" clip-path="url(#clip-path)">
          <path id="Trazado_815304" data-name="Trazado 815304" d="M60.765,16.286c.784-1.626,1.53-3.271,2.45-4.827a5.676,5.676,0,0,1,5.963-2.745,6.834,6.834,0,0,1,3.269,1.45,5.882,5.882,0,0,1,2.14,3.681,6.48,6.48,0,0,1-.646,3.82c-.559,1.234-1.206,2.422-1.79,3.642-.555,1.159-1.162,2.291-1.736,3.441Q67.406,30.773,64.4,36.8c-1.158,2.308-2.286,4.63-3.508,6.9a2.688,2.688,0,0,0-.324,1.343c.08,8.211.023,16.422.038,24.633a6.3,6.3,0,0,1-1.188,3.926,5.7,5.7,0,0,1-3.943,2.229,13.778,13.778,0,0,1-1.8.06q-8.634.009-17.269,0a1.573,1.573,0,0,1-1.6-1.035,1.493,1.493,0,0,1,1.633-1.927q9.1-.006,18.195.007a2.928,2.928,0,0,0,2.239-.879,3.11,3.11,0,0,0,.741-1.707,2.977,2.977,0,0,0,.025-.517q0-8.82,0-17.639c0-.489-.028-.978-.035-1.467a2.113,2.113,0,0,1,.06-.351c-.174.116-.29.162-.324.407-.042.3-.3.562-.4.862a7.58,7.58,0,0,1-2.466,3.078q-1.992,1.753-3.985,3.506-1.135.994-2.284,1.972c-.7.589-1.347,1.229-2.093,1.76a1.165,1.165,0,0,1-.738.2c-2.347-.007-4.694,0-7.041,0q-6.782,0-13.563,0a1.5,1.5,0,0,1-1.545-1.02,1.436,1.436,0,0,1,1.219-1.921,4.6,4.6,0,0,1,.665-.03q5.039,0,10.079,0,4.294,0,8.588-.013c.226,0,.406.058.3-.326-.074-.26.107-.58.118-.885.03-.865.165-1.724.2-2.586.034-.794.144-1.58.175-2.374.029-.727.139-1.45.2-2.176a9.751,9.751,0,0,1,.09-1.28c.039-.178-.042-.25-.247-.247-.827.011-1.655,0-2.482,0q-3.1,0-6.206.01-5.447,0-10.894,0a2.184,2.184,0,0,1-1.1-.173,1.619,1.619,0,0,1-.786-1.522,1.5,1.5,0,0,1,1.277-1.223,6.809,6.809,0,0,1,.994-.056q9.932,0,19.862,0a.561.561,0,0,0,.568-.354q2.893-5.8,5.789-11.593c1.317-2.643,2.611-5.3,3.948-7.93.612-1.205,1.237-2.4,1.841-3.615a2.155,2.155,0,0,0,.237-1.005c-.014-2.235-.008-4.472-.017-6.707,0-.211.075-.437-.069-.635l.029-.017-.027-.019-.01.032c-.068-.16-.211-.1-.323-.1-1.9-.009-3.8.017-5.705-.034a4.315,4.315,0,0,1-2.4-.94A5.886,5.886,0,0,1,47.577,11.8a5.236,5.236,0,0,1-.658-1.7,8.571,8.571,0,0,1-.109-1.637c-.007-1.4.012-2.791.005-4.186a3.454,3.454,0,0,1,.027-1.152c.033-.1-.03-.161-.142-.159s-.2,0-.3,0H5.718a2.7,2.7,0,0,0-2.3,1.175,2.138,2.138,0,0,0-.448,1.234q.006,12.469,0,24.939,0,19.936-.009,39.873a2.885,2.885,0,0,0,2.225,2.737,3.159,3.159,0,0,0,.7.013q9.06,0,18.12,0a1.988,1.988,0,0,1,1.325.39,1.451,1.451,0,0,1,.42,1.536,1.519,1.519,0,0,1-1.412,1.03c-.135.011-.272.005-.407.005-5.929,0-11.858-.02-17.787.014a6.132,6.132,0,0,1-4.206-1.492A5.734,5.734,0,0,1,.287,71.83a8.188,8.188,0,0,1-.281-2.6Q.007,37.507,0,5.786A5.221,5.221,0,0,1,.242,4,6.436,6.436,0,0,1,1.23,2.225,5.592,5.592,0,0,1,4.05.29,5.558,5.558,0,0,1,5.7,0Q26.824,0,47.946,0a2.015,2.015,0,0,1,1.538.632c2.576,2.687,5.153,5.374,7.691,8.1.874.938,1.772,1.854,2.659,2.78a2.277,2.277,0,0,1,.756,1.568c.021,1.086.028,2.17-.047,3.253l-.031.01a.107.107,0,0,0,.014.029c.084.095.1.094.178,0l.06-.078,0-.008m10.911-1.559a2,2,0,0,0-.173-1.053,3.612,3.612,0,0,0-3.577-2.093,2.8,2.8,0,0,0-2.439,1.751q-3.365,6.676-6.7,13.37-1.858,3.717-3.712,7.436c-.727,1.452-1.467,2.9-2.195,4.351q-2.162,4.318-4.321,8.637c-.108.214-.068.3.133.388.442.2.879.415,1.313.635q1.985,1.007,3.964,2.024c.243.125.392.082.519-.175.685-1.391,1.382-2.775,2.076-4.161q4.871-9.726,9.744-19.452,2.49-4.973,4.974-9.951a3.27,3.27,0,0,0,.393-1.706M55.654,11.408c-1.9-2.126-3.943-4.045-5.834-6.206a1.577,1.577,0,0,0-.036.206c.01,1.27.007,2.54.037,3.809a2.328,2.328,0,0,0,2.2,2.188c1.181.01,2.361,0,3.629,0M47.513,53.432l.03,0c-.105,1.064-.214,2.128-.312,3.192-.013.138-.081.334.042.413.14.09.227-.1.32-.187,1.466-1.32,2.934-2.638,4.442-3.91.338-.285.342-.315-.05-.513q-1.564-.789-3.129-1.575c-.275-.138-.548-.281-.828-.405-.111-.05-.267-.144-.286.11-.073.958-.153,1.915-.23,2.873" transform="translate(0 -0.001)" fill="#fff"/>
          <path id="Trazado_815305" data-name="Trazado 815305" d="M70,34.957c0-.61.015-1.08,0-1.549a3.115,3.115,0,0,1,1.3-2.6,3.487,3.487,0,0,1,2.212-.658,9.009,9.009,0,0,1,1.074,0c.243.017.3-.069.3-.287-.005-.469.009-.938.008-1.407A3.223,3.223,0,0,1,76.3,25.827a2.738,2.738,0,0,1,1.742-.565,24.928,24.928,0,0,1,3.4.053,3.056,3.056,0,0,1,2.777,2.97,11.22,11.22,0,0,1,.024,1.592c0,.223.072.262.275.268a10.977,10.977,0,0,1,2.164.118,2.868,2.868,0,0,1,1.976,1.457,4.2,4.2,0,0,1,.471,2.055c0,.766.029,1.533-.008,2.3a3.377,3.377,0,0,1-.7,2.214,3.413,3.413,0,0,1-2.544,1.249c-.457.009-.914.013-1.371,0-.2-.005-.254.06-.253.254a17.472,17.472,0,0,1-.033,1.776,2.581,2.581,0,0,1-.824,1.762c-.257.231-.515.454-.792.659a2.531,2.531,0,0,1-1.5.436c-1.136.024-2.274.04-3.408-.011a2.912,2.912,0,0,1-1.628-.684A3.038,3.038,0,0,1,74.94,41.9a9.089,9.089,0,0,1-.061-1.693c-.022-.764.124-.643-.668-.67a7.2,7.2,0,0,1-1.754-.075,3.28,3.28,0,0,1-2.315-2.243A9.527,9.527,0,0,1,70,34.957m11.258,4.694h.008c0-.469.014-.939,0-1.407a1.661,1.661,0,0,1,1.647-1.686c.9.031,1.8.007,2.7.007.548,0,.58-.036.573-.6q-.012-1.129-.016-2.259c0-.58,0-.592-.6-.6-.827-.005-1.655-.022-2.481.009A1.645,1.645,0,0,1,81.262,31.3c-.007-.9-.012-1.8,0-2.7,0-.262-.058-.38-.345-.375-.852.014-1.7,0-2.555.006-.459,0-.511.061-.511.511,0,.914.013,1.827,0,2.74a1.518,1.518,0,0,1-1.1,1.571,2.676,2.676,0,0,1-.808.067c-.839,0-1.679,0-2.518,0-.292,0-.482.059-.462.452.04.8.012,1.6.012,2.407,0,.576.008.574.606.589a26.4,26.4,0,0,1,3.059.067,1.411,1.411,0,0,1,1.148,1.1,7.023,7.023,0,0,1,.077.988c-.017.765-.01,1.531-.009,2.3,0,.23.007.447.344.443.938-.012,1.876-.01,2.815,0,.2,0,.254-.062.25-.254-.011-.518,0-1.037,0-1.555" transform="translate(-49.238 -17.748)" fill="#fff"/>
          <path id="Trazado_815306" data-name="Trazado 815306" d="M89.808,115.946q-5.131,0-10.261,0a1.613,1.613,0,0,1-1.564-1.632,1.594,1.594,0,0,1,.963-1.19,3.267,3.267,0,0,1,1.072-.145q9.983,0,19.967.008a1.666,1.666,0,0,1,1.488.6,1.46,1.46,0,0,1-.865,2.294,4.548,4.548,0,0,1-.872.064H89.808Z" transform="translate(-54.856 -79.48)" fill="#fff"/>
          <path id="Trazado_815307" data-name="Trazado 815307" d="M41.04,144.5a1.453,1.453,0,0,1-.415,1.114c-1.485,2.119-2.922,4.272-4.508,6.32-.239.309-.438.652-.693.952a1.517,1.517,0,0,1-2.284.025c-.628-.64-1.337-1.2-2.018-1.789a1.5,1.5,0,0,1-.034-2.528,1.447,1.447,0,0,1,1.94.278,7.081,7.081,0,0,1,.863.77c.1.144.207.063.305-.075.549-.77,1.117-1.526,1.669-2.294.879-1.222,1.728-2.465,2.635-3.667a1.65,1.65,0,0,1,1.449-.518A1.359,1.359,0,0,1,41.04,144.5" transform="translate(-21.392 -100.639)" fill="#fff"/>
          <path id="Trazado_815308" data-name="Trazado 815308" d="M30.509,110.711a1.368,1.368,0,0,1,1.272-1.446,1.668,1.668,0,0,1,1.408.563c.24.248.5.477.754.709.1.093.206.191.321,0,.527-.887,1.195-1.676,1.777-2.526.711-1.038,1.459-2.05,2.188-3.075a1.74,1.74,0,0,1,1.39-.953,1.415,1.415,0,0,1,1.326.753,1.357,1.357,0,0,1-.062,1.49q-1.256,1.845-2.549,3.666c-.869,1.221-1.765,2.423-2.641,3.639a1.8,1.8,0,0,1-1.2.824,1.548,1.548,0,0,1-1.241-.5c-.633-.563-1.259-1.134-1.895-1.7-.439-.387-.9-.772-.851-1.45" transform="translate(-21.46 -73.148)" fill="#fff"/>
          <path id="Trazado_815309" data-name="Trazado 815309" d="M41.088,183.6a2.439,2.439,0,0,1-.682,1.509c-.76,1.131-1.561,2.233-2.349,3.344-.755,1.066-1.5,2.139-2.278,3.189a1.977,1.977,0,0,1-1.145.879,1.3,1.3,0,0,1-1.113-.242c-.618-.451-1.116-1.043-1.721-1.506a7.294,7.294,0,0,1-.919-.88,1.314,1.314,0,0,1-.339-1.347,1.4,1.4,0,0,1,1.207-1.042c.6-.113.928.229,1.316.505a4.1,4.1,0,0,1,.736.666c.236.276.384.158.536-.056.435-.616.861-1.238,1.3-1.852.952-1.34,1.9-2.681,2.866-4.013a1.407,1.407,0,0,1,1.714-.459,1.25,1.25,0,0,1,.874,1.305" transform="translate(-21.44 -128.158)" fill="#fff"/>
          <path id="Trazado_815310" data-name="Trazado 815310" d="M100.119,247.6a1.445,1.445,0,0,1-1.62,1.323,1.481,1.481,0,0,1,.074-2.948c1.16.145,1.65.718,1.546,1.625" transform="translate(-68.388 -173.032)" fill="#060607"/>
          <path id="Trazado_815311" data-name="Trazado 815311" d="M204.261,55.105c-.077.1-.093.1-.178,0a.116.116,0,0,1-.014-.029l.031-.009a.16.16,0,0,1,.16.037" transform="translate(-143.558 -38.734)" fill="#feb045"/>
          <path id="Trazado_815312" data-name="Trazado 815312" d="M194.1,48.814l.01-.032.027.019-.029.017-.008,0" transform="translate(-136.542 -34.317)" fill="#feb045"/>
          <path id="Trazado_815313" data-name="Trazado 815313" d="M204.92,54.922l0,.008,0-.008" transform="translate(-144.155 -38.636)" fill="#feb045"/>
        </g>
      </g>
    </g>
  </g>
</svg>
