<svg xmlns="http://www.w3.org/2000/svg" xmlns:xlink="http://www.w3.org/1999/xlink" width="190" height="190" viewBox="0 0 190 190">
  <defs>
    <clipPath id="clip-path">
      <rect id="Rect치ngulo_377577" data-name="Rect치ngulo 377577" width="190" height="190" transform="translate(1125 2520.811)" fill="#fff" stroke="#707070" stroke-width="1"/>
    </clipPath>
    <clipPath id="clip-path-2">
      <rect id="Rect치ngulo_377582" data-name="Rect치ngulo 377582" width="170.667" height="170.065" fill="none"/>
    </clipPath>
  </defs>
  <g id="Enmascarar_grupo_348" data-name="Enmascarar grupo 348" transform="translate(-1125 -2520.811)" clip-path="url(#clip-path)">
    <g id="Grupo_1073313" data-name="Grupo 1073313" transform="translate(1135 2530.778)">
      <g id="Grupo_1073312" data-name="Grupo 1073312" clip-path="url(#clip-path-2)">
        <path id="Trazado_820764" data-name="Trazado 820764" d="M99.057,82.677c.01-3.4.039-6.8.011-10.2-.006-.644.153-.814.8-.789,1.373.054,2.752.039,4.127.006.494-.012.62.139.611.617-.03,1.543-.008,3.086-.014,4.628,0,.431.045.658.606.793a12.669,12.669,0,0,1,9.1,7.575,14.5,14.5,0,0,1,1.01,7.636,13.109,13.109,0,0,1-2.41,5.929c-.1.153-.331.345-.157.517a.752.752,0,0,0,.567.081,15.808,15.808,0,0,1,12.213,3.1,15.569,15.569,0,0,1,4.35,5.061,12.92,12.92,0,0,1,1.69,4.279c.5,2.962.758,5.932-.395,8.828-.21.527-.023.671.522.7a15.28,15.28,0,0,1,5.6,1.543,36.4,36.4,0,0,1,3.295,1.862,14.716,14.716,0,0,1,3.473,3.26,18.319,18.319,0,0,1,3.578,6.669,15.615,15.615,0,0,1,.613,2.5c.078.577.339.676.791.58a13.4,13.4,0,0,1,5.645.165A12.376,12.376,0,0,1,161,141.485a13.162,13.162,0,0,1,3.671,6.663c.892,4.325.208,8.32-2.764,11.755-.946,1.093-.94,1.041.3,1.776a15.948,15.948,0,0,1,8.1,11.787c1.091,7.221-1.873,12.617-7.728,16.544a14.084,14.084,0,0,1-6.79,2.251c-1.51.119-3.013.133-4.517.133q-66.606.011-133.213.03a20.913,20.913,0,0,1-5.623-.554,16.381,16.381,0,0,1-7.4-4.189,16.611,16.611,0,0,1-4.5-7.968C-.9,173.863.651,168.844,4.8,164.557a17.127,17.127,0,0,1,4.326-3.172c.473-.251.562-.386.152-.831a13.174,13.174,0,0,1-3.7-10.913,13.4,13.4,0,0,1,8.549-11.092,11.36,11.36,0,0,1,4.659-.98,22.376,22.376,0,0,1,2.842.3c.484.07.664-.087.738-.555a18.667,18.667,0,0,1,7.851-12.611,16.512,16.512,0,0,1,8.214-3.288c.249-.023.491-.126.74-.155.426-.049.407-.235.286-.585a14.9,14.9,0,0,1-.306-9.557,16.574,16.574,0,0,1,9.453-10.634,12.453,12.453,0,0,1,5.453-1.167,11.789,11.789,0,0,1,3.4.152c.116.037.3.056.341-.139a.793.793,0,0,0-.182-.632,13.36,13.36,0,0,1-1.81-3.518,12.192,12.192,0,0,1-.541-6.98c1.281-4.923,4.084-8.612,9.173-10.194,1.623-.505,1.623-.507,1.621-2.183,0-1.171.023-2.343-.011-3.514-.014-.479.117-.63.61-.619,1.4.034,2.81.04,4.213,0,.56-.017.709.136.706.7-.019,3.427,0,6.856.013,10.284-.009,1.625-.035,3.25-.017,4.875.006.465-.1.639-.6.626-1.43-.035-2.862-.045-4.291,0-.579.02-.654-.2-.63-.687.035-.74.036-1.484,0-2.224-.031-.635.321-1.57-.151-1.837-.659-.372-1.3.366-1.892.782a7.5,7.5,0,0,0-3.3,4.733,8.74,8.74,0,0,0,.771,6.044c.7,1.3.957,1.338,2.336.638a17.745,17.745,0,0,1,3.764-1.451,11.342,11.342,0,0,0,2.434-.528c.153.254.334.182.522.045a25.792,25.792,0,0,1,3.388.261,16.715,16.715,0,0,1,5.863,1.977A15.392,15.392,0,0,1,85,100.6c.154.211.239.469.572.014A15.8,15.8,0,0,1,89.5,96.7a16.993,16.993,0,0,1,7.764-2.889,16.608,16.608,0,0,1,10.076,2.163c.678.378,1.027.237,1.371-.363a8.972,8.972,0,0,0,1.252-5.819,7.949,7.949,0,0,0-4.8-6.448c-.461-.227-.587-.142-.579.363.022,1.313-.008,2.627.017,3.941.008.414-.118.531-.53.524-1.461-.023-2.922-.03-4.383,0-.494.011-.617-.142-.612-.619.02-1.627-.008-3.253-.017-4.881M85.406,132.054c-8.025,0-16.051.009-24.077-.017-.654,0-.813.167-.788.8.052,1.34.049,2.686,0,4.027-.021.588.184.692.72.689,3.841-.021,7.682-.012,11.523-.012,1.232,0,2.465,0,3.7,0,.256,0,.6-.126.591.365-.014,1.6-.009,3.2,0,4.8,0,.277-.141.361-.37.313a10.034,10.034,0,0,0-2.058.017c-4.385-.021-8.771,0-13.157-.027-.7,0-1.008.088-.952.9a35.308,35.308,0,0,1,.009,3.769c-.025.641.115.863.82.853,3.181-.043,6.363-.007,9.544-.031.517,0,.689.107.672.653-.043,1.37-.048,2.743,0,4.113.022.61-.158.753-.756.747-3.153-.031-6.306.01-9.459-.033-.7-.01-.848.2-.823.85.05,1.284.063,2.574,0,3.855-.038.716.231.815.861.813,4.959-.024,9.917,0,14.876-.028.612,0,.847.1.814.775-.064,1.283-.063,2.573,0,3.855.035.708-.154.893-.879.888-4.959-.036-9.918,0-14.876-.035-.65,0-.817.158-.791.8.054,1.312.059,2.629,0,3.941-.031.666.184.787.807.781,3.123-.034,6.249.013,9.372-.036.75-.012.895.217.864.9-.057,1.254-.052,2.514,0,3.769.025.645-.122.863-.824.853-3.181-.043-6.363-.005-9.545-.031-.523,0-.7.114-.667.656.052.854.009,1.713.024,2.57a8,8,0,0,0,2.309,5.324,7.893,7.893,0,0,0,6.089,2.416q16.253.04,32.5,0a8.745,8.745,0,0,0,5.073-1.451c2.7-1.859,3.539-4.565,3.543-7.627q.026-21.941.007-43.882c0-.328-.153-.731-.071-.963.356-1-.233-.924-.884-.923q-11.866.012-23.733.006M10.989,166.393a12.145,12.145,0,0,0-4.862,5.563,11.393,11.393,0,0,0-.539,5.907,10.322,10.322,0,0,0,3.8,6.474,10.187,10.187,0,0,0,6.752,2.585q20.554-.013,41.108-.012c.182,0,.395.093.6-.131-.164-.247-.325-.5-.5-.749a11.881,11.881,0,0,1-2.268-6.6c-.087-4.656-.025-9.314-.025-13.971q0-5.572,0-11.143c0-.353.046-.567-.513-.709a16.982,16.982,0,0,1-4.378-1.855,11.275,11.275,0,0,1-4.127-4.5,11.71,11.71,0,0,1-1.162-2.386c-.255-.9-.492-1.784-.663-2.706a11.638,11.638,0,0,1,.572-6.242,15.4,15.4,0,0,1,3.442-5.4,16.62,16.62,0,0,1-5.115-3.7.917.917,0,0,0-.621-.25,15.463,15.463,0,0,0-4.088.218,12.873,12.873,0,0,0-7.832,4.793,14.426,14.426,0,0,0-2.986,6.241c-.254,1.334-.372,2.583,1,3.675a12.032,12.032,0,0,1,3.937,6.754.746.746,0,0,0,.691.619,16.282,16.282,0,0,1,6.53,2.355c-.8,1.4-1.612,2.83-2.414,4.264-.178.318-.346.247-.623.116a23.523,23.523,0,0,0-2.646-1.023,13.486,13.486,0,0,0-7.974,0,11.277,11.277,0,0,0-5.936,3.793c-2.075,2.576-3.77,5.319-3.626,8.813.03.741-.012,1.486.01,2.228.013.446-.113.638-.609.7-1.354.175-2.7.427-4.045.661-.432.075-.581-.073-.678-.513a26.843,26.843,0,0,1-.208-3.868m148.556.069c.279,1.215-.138,2.233-.1,3.288.034.981-.343,1.2-1.316,1a13.422,13.422,0,0,0-3.07-.479c-.7.012-1.167-.229-1.134-1.147a20.105,20.105,0,0,0-.11-3.639,12.285,12.285,0,0,0-3.145-6.884,14.374,14.374,0,0,0-9.778-4.586,12.614,12.614,0,0,0-6.518,1.307c-.813.393-1.2.139-1.487-.537a29.406,29.406,0,0,0-1.554-2.846c-.505-.9-.552-.9.425-1.356a18.14,18.14,0,0,1,5.5-1.711c.334-.04.627-.207.652-.445a7.673,7.673,0,0,1,.564-1.642,12.051,12.051,0,0,1,3.921-5.715,1.578,1.578,0,0,0,.751-1.5,17.92,17.92,0,0,0-1.17-4.778,12.987,12.987,0,0,0-6.581-6.81,17.606,17.606,0,0,0-5.02-1.3,4.33,4.33,0,0,0-4.149,1.2,8.425,8.425,0,0,1-3.057,2.048c-.757.27-.817.691-.29,1.243a13.121,13.121,0,0,1,3.568,7.714,13.346,13.346,0,0,1-2.078,8.776,12.841,12.841,0,0,1-7.849,5.733c-.836.233-.947.5-.934,1.218q.055,3.17.008,6.342c-.091,6.275.189,12.552-.151,18.827a13.182,13.182,0,0,1-2.273,6.426c-.118.187-.406.35-.318.567.12.3.456.135.687.135q20.595.013,41.19,0a10.127,10.127,0,0,0,6.816-2.858,10.393,10.393,0,0,0,3.185-5.142,11.73,11.73,0,0,0-.555-7.549,9.8,9.8,0,0,0-1.7-2.531,8.962,8.962,0,0,0-2.93-2.367m-110-41.365c0-1.451-.084-2.768.019-4.071.174-2.225,1.043-4.03,3.295-4.888a8.147,8.147,0,0,1,2.945-.547c8.652.01,17.3,0,25.957.023.694,0,.851-.2.822-.845-.093-2.128.1-4.261-.171-6.39a9.144,9.144,0,0,0-1.352-4.019c-2.033-2.947-4.784-5-8.528-5.2-4.271-.235-7.816,1.148-10.239,4.864a8.985,8.985,0,0,0-1.726,5.459c.03.574-.2.648-.692.638-1.375-.028-2.751-.034-4.125,0-.546.014-.758-.11-.7-.694a28.98,28.98,0,0,1,.79-4.138c.088-.365.224-.638-.36-.677a10.67,10.67,0,0,0-4.475.619,10.16,10.16,0,0,0-5.073,3.994,9.57,9.57,0,0,0-1.905,6.4,12.322,12.322,0,0,0,.622,3.87,10.743,10.743,0,0,0,4.9,5.6m71.554.025a10.975,10.975,0,0,0-6.549-20.419,24.393,24.393,0,0,1,1.029,4.8c.048.29.131.623-.409.613-1.546-.028-3.094-.017-4.641,0-.324,0-.436-.086-.448-.428a11.393,11.393,0,0,0-.66-3.331c-1.965-5.685-7.358-7.755-12.021-7.145a10.481,10.481,0,0,0-6.759,3.774,9.579,9.579,0,0,0-2.533,5.519c-.14,2.075.007,4.168-.055,6.25-.022.749.221.86.9.857q10.227-.039,20.454,0a51.765,51.765,0,0,1,7.013.149,4.964,4.964,0,0,1,3.814,2.45,7.51,7.51,0,0,1,.848,3.485c.061,1.105.013,2.216.013,3.428m-35.77,1.447q14.74,0,29.482.015c.641,0,.829-.147.8-.795a35.285,35.285,0,0,1,0-3.767c.051-.813-.235-.956-.988-.955q-27.246.031-54.494,0c-.491,0-.976.267-1.414.153a18.65,18.65,0,0,0-3.06-.147c-.493-.047-.633.128-.621.615.032,1.341.061,2.686-.008,4.025-.039.745.215.869.9.867q14.7-.035,29.4-.016M19.206,143.1c-.451-.151-.679.1-.971.107a6.916,6.916,0,0,0-4.853,2.229,8,8,0,0,0-2.451,6.626,7.733,7.733,0,0,0,2.214,4.783c.809.815.788.831,1.456-.089a18.914,18.914,0,0,1,11.7-7.74c.809-.171.884-.323.505-1.093a8.068,8.068,0,0,0-7.6-4.824m140.436,8.046a9.562,9.562,0,0,0-.595-2.939,8.326,8.326,0,0,0-11.127-4.428,7.748,7.748,0,0,0-4.2,4.5c-.191.512-.03.709.524.771a9.77,9.77,0,0,1,1.894.412,19.2,19.2,0,0,1,9.994,7.425c.534.751.663.753,1.268.1a8.826,8.826,0,0,0,2.238-5.842M55.007,147.989c.021-.22.045-.357.045-.494q0-6.893,0-13.786c0-.745-.367-.952-1.087-.666a7.266,7.266,0,0,0-3.58,3.545,8.2,8.2,0,0,0,4.623,11.4m60.59-7.579c0,2.284.026,4.568-.014,6.85-.014.779.217.767.82.487a8.346,8.346,0,0,0,4.5-9.218,8.063,8.063,0,0,0-4.267-5.513c-.64-.356-1.038-.111-1.04.629q0,3.382,0,6.765" transform="translate(-0.002 -22.359)" fill="#060607"/>
        <path id="Trazado_820765" data-name="Trazado 820765" d="M127.995,60.131c0-5.6,0-11.2-.016-16.794a14.2,14.2,0,0,1,.355-4.447,7.659,7.659,0,0,1,4.575-5.146.806.806,0,0,0,.591-.911c-.012-5.542-.035-11.084.017-16.626a5.142,5.142,0,0,1,4.544-5.109,34.237,34.237,0,0,1,6.32-.116c3.194.153,4.773,1.541,5.583,4.978.1.414.213.48.582.479q8.77-.013,17.54,0a1.746,1.746,0,0,0,1.023-.362c2.954-2,5.9-4.012,8.87-5.991,4.074-2.716,8.167-5.4,12.248-8.108A11.181,11.181,0,0,1,196.463,0a11.577,11.577,0,0,1,6.64,1.849,33.051,33.051,0,0,1,5.091,3.727,7.318,7.318,0,0,1,2.179,5.113c.4,10.725.069,21.454.171,32.181a9,9,0,0,1-4.62,8.2,35.056,35.056,0,0,1-4.03,2.511c-4.072,1.8-8.007,1.737-11.811-.8-5.438-3.63-10.928-7.182-16.364-10.815a47.766,47.766,0,0,1-4.546-3.238,1.622,1.622,0,0,0-1.1-.349q-8.727.006-17.454-.01c-.468,0-.587.14-.679.579a5.418,5.418,0,0,1-.946,2.371,6.063,6.063,0,0,1-4.665,2.542c-1.49.022-2.982-.023-4.471.013a6.116,6.116,0,0,1-5.989-3.451c-.052-.18-.092-.37-.334-.385q-.008.2-.018.4-.013,9.426-.028,18.851c0,.343-.011.685-.017,1.027-.936,0-1.872.028-2.808,0a7.582,7.582,0,0,1-2.669-.183m77.048-41.107c0-2.6-.021-5.2.01-7.8a2.657,2.657,0,0,0-1.148-2.353c-.977-.7-1.972-1.367-2.973-2.029a6.966,6.966,0,0,0-8.439.084c-6.631,4.481-13.316,8.881-19.992,13.3a1,1,0,0,0-.492.977c.021,1.857,0,3.713.018,5.57,0,.441-.045.662-.582.648-1.461-.039-2.923-.034-4.384,0-.481.011-.562-.167-.555-.588.022-1.343-.052-2.688.031-4.026.05-.8-.238-.933-.95-.9-1.229.057-2.465.057-3.7,0-.685-.032-.945.105-.9.858.073,1.31,0,2.627.032,3.94.014.532-.094.741-.687.72-1.374-.049-2.752-.04-4.126,0-.542.014-.737-.107-.718-.689.047-1.4,0-2.8.025-4.2.01-.474-.11-.634-.608-.622-1.4.034-2.809.039-4.212,0-.557-.016-.714.132-.708.7.029,3.142.039,6.285,0,9.426-.01.711.162.884.88.88,5.96-.03,11.922-.058,17.881.016a6.431,6.431,0,0,0,4.863-1.844,11.559,11.559,0,0,1,9.265-3.531,10.841,10.841,0,0,1,5.3,1.584c1.086.7,2.019,1.592,3.026,2.392a5.618,5.618,0,0,0,3.464,1.4,6.57,6.57,0,0,0,4.714-1.824,13.457,13.457,0,0,1,4.966-3.1c.63-.186.714-.47.711-1.014-.019-2.656-.009-5.313-.01-7.969M182.058,32.892a5.239,5.239,0,0,0-3.478,1.155c-.861.663-1.682,1.379-2.561,2.015-.559.4-.385.61.075.912,2.317,1.516,4.619,3.054,6.93,4.579q5.072,3.347,10.152,6.683a6.167,6.167,0,0,0,5.533.776,19.532,19.532,0,0,0,5.526-3.374,2.21,2.21,0,0,0,.809-1.821q-.007-4.754,0-9.508a.549.549,0,0,0-.226-.519c-.239-.147-.331.091-.48.211-.858.692-1.71,1.393-2.6,2.05a10.913,10.913,0,0,1-10.223,1.787,14.45,14.45,0,0,1-5.111-3.216,6.253,6.253,0,0,0-4.352-1.73M139,27.363c0,3.427.017,6.855-.015,10.282-.006.617.175.761.766.742,1.373-.044,2.75-.032,4.125,0,.475.01.632-.116.63-.611q-.023-10.368,0-20.735c0-.5-.16-.619-.632-.61-1.375.028-2.752.041-4.126,0-.593-.019-.769.131-.764.745.032,3.4.015,6.8.016,10.2" transform="translate(-39.911 0)" fill="#060607"/>
        <path id="Trazado_820766" data-name="Trazado 820766" d="M77.076,62.572c0-5.657-.02-11.315.01-16.972,0-.683-.02-1.363-.024-2.045,0-.272-.076-.61-.343-.676-.226-.056-.288.279-.4.467a5.964,5.964,0,0,1-5.089,2.943c-1.716.078-3.439.039-5.159.01a5.084,5.084,0,0,1-4.822-2.986,4.447,4.447,0,0,1-.685-2.152c.018-.355-.189-.358-.432-.341-1.3.089-2.6-.051-3.91.125a27.7,27.7,0,0,1-3.774-.053c-1.718-.01-3.437.025-5.156.027s-3.437-.023-5.156-.025-3.438.019-5.156.02S33.539,40.9,31.82,40.9s-3.437.009-5.156.01-3.438-.026-5.156,0a44.628,44.628,0,0,0-4.72.078c-.626.076-1.209-.229-1.848-.18A13.733,13.733,0,0,1,5.8,38.28,13.464,13.464,0,0,1,1.576,33.3,13.635,13.635,0,0,1,.015,26.306a13.078,13.078,0,0,1,3.728-8.564,13.031,13.031,0,0,1,8.4-4.214,28.683,28.683,0,0,1,2.89-.131q22.145-.018,44.29.008a1.281,1.281,0,0,0,1.405-1.187,5.21,5.21,0,0,1,4.469-4.153,27.447,27.447,0,0,1,7.562.05,4.841,4.841,0,0,1,4.137,4.634c.405,5.124.086,10.259.169,15.389.038,2.371.018,4.742,0,7.114a.846.846,0,0,0,.559.912A8.055,8.055,0,0,1,82.394,42.4a9.467,9.467,0,0,1,.169,1.591q.008,9.386-.01,18.771c-.936,0-1.872.028-2.808,0a7.537,7.537,0,0,1-2.67-.184M36.562,35.329v0q11.609,0,23.218,0c.426,0,.8.109.794-.609-.037-5.085-.027-10.171-.008-15.256,0-.5-.158-.614-.629-.6-1.4.029-2.81.044-4.213-.006-.6-.021-.7.2-.685.725.033,1.4,0,2.8.02,4.2.008.429-.085.6-.56.589-1.462-.031-2.924-.027-4.385,0-.443.008-.587-.11-.578-.567.029-1.456-.008-2.914.021-4.371.009-.456-.133-.576-.578-.568-1.4.027-2.81.045-4.213-.006-.623-.023-.744.177-.738.76.03,3.114-.006,6.228.03,9.342.008.676-.1.949-.862.906-1.285-.073-2.58-.054-3.868,0-.622.024-.817-.113-.809-.778.041-3.171,0-6.342.031-9.514,0-.55-.128-.727-.7-.709-1.4.043-2.809.035-4.213,0-.492-.012-.625.138-.614.619.031,1.4-.006,2.8.02,4.2.01.478-.047.714-.631.695-1.431-.047-2.867-.04-4.3,0-.523.014-.6-.187-.593-.639.026-1.4-.013-2.8.021-4.2.012-.508-.093-.692-.65-.674q-2.061.067-4.127,0c-.6-.021-.762.134-.755.743.033,3.171,0,6.342.031,9.513.006.61-.161.767-.759.745-1.316-.047-2.639-.061-3.954,0-.708.034-.828-.214-.822-.853.032-3.142.019-6.285.006-9.428,0-.28.22-.748-.405-.712-1.277.074-2.552-.058-3.837.142A8.236,8.236,0,0,0,6.233,30.5a7.7,7.7,0,0,0,7.112,4.792c7.737.123,15.478.04,23.217.04m29.506-8.315c0,4.341.008,8.683-.01,13.023,0,.535.034.82.707.791,1.4-.06,2.808-.034,4.211-.009.432.008.588-.087.588-.558q-.022-13.152,0-26.3c0-.454-.134-.576-.577-.567-1.375.026-2.752.042-4.125-.006-.621-.022-.815.112-.81.778.035,4.284.018,8.568.018,12.852" transform="translate(0 -2.441)" fill="#060607"/>
        <path id="Trazado_820767" data-name="Trazado 820767" d="M26.876,63.986A18.95,18.95,0,0,1,46.383,81.5,18.618,18.618,0,0,1,40.8,96.525a18.525,18.525,0,0,1-14.368,5.644A19.384,19.384,0,0,1,8.019,82.816c-.061-9.945,9.081-19.26,18.857-18.83M26.85,96.731c8.322.065,14-5.931,14.152-13.358.162-7.833-5.462-13.94-13.811-14.033a13.7,13.7,0,0,0-.341,27.392" transform="translate(-2.501 -19.952)" fill="#060607"/>
        <path id="Trazado_820768" data-name="Trazado 820768" d="M104.5,87.385a7.533,7.533,0,0,0,2.669.184c.935.028,1.872,0,2.808,0,1.583,0,3.165.008,4.747,0,.271,0,.575.087.786-.186a7.563,7.563,0,0,0,2.669.184c.934.028,1.871,0,2.807,0l5.494,0c.01,1.627.037,3.254.017,4.881-.006.478.118.63.612.619,1.461-.032,2.922-.026,4.383,0,.411.006.537-.111.529-.525-.025-1.313.006-2.627-.017-3.94-.008-.5.118-.59.579-.363a7.949,7.949,0,0,1,4.8,6.449,8.972,8.972,0,0,1-1.251,5.819c-.344.6-.694.74-1.371.363A16.612,16.612,0,0,0,124.68,98.71a16.992,16.992,0,0,0-7.765,2.89,15.8,15.8,0,0,0-3.931,3.911c-.332.455-.418.2-.572-.014a15.385,15.385,0,0,0-5.206-4.666,16.729,16.729,0,0,0-5.864-1.978,25.773,25.773,0,0,0-3.387-.26c-.145-.352-.325-.287-.522-.045A11.383,11.383,0,0,1,95,99.076a17.745,17.745,0,0,0-3.764,1.451c-1.379.7-1.634.658-2.336-.638a8.736,8.736,0,0,1-.771-6.044,7.5,7.5,0,0,1,3.3-4.733c.591-.416,1.234-1.155,1.892-.782.472.266.12,1.2.151,1.837.036.74.034,1.484,0,2.223-.023.483.052.707.63.687,1.429-.048,2.861-.039,4.291,0,.505.012.608-.161.6-.627-.018-1.624.008-3.249.017-4.874h5.032a.5.5,0,0,0,.453-.189" transform="translate(-27.42 -27.254)" fill="#dfe3e8"/>
        <path id="Trazado_820769" data-name="Trazado 820769" d="M207.984,120.955A13.548,13.548,0,0,1,220.6,107.685c9.779-.369,14.757,6.435,14.821,13.636.072,8.124-6.006,13.53-13.912,13.693-7.478.154-13.523-6.33-13.522-14.057m13.581,8.606a8.013,8.013,0,0,0,8.4-8.195c0-4.792-3.327-8.172-8.442-8.228a8.213,8.213,0,0,0,.043,16.423" transform="translate(-64.867 -33.581)" fill="#060607"/>
        <path id="Trazado_820770" data-name="Trazado 820770" d="M175.984,87.8a8.049,8.049,0,0,1,7.826-8.031c5.38.067,8.513,3.227,8.637,8.145.122,4.815-3.734,8.177-8.352,8.271-4.094.083-8.381-3.889-8.111-8.385m8.277,2.891a2.619,2.619,0,0,0,2.7-2.766,2.917,2.917,0,0,0-3.039-2.71,2.747,2.747,0,0,0,.343,5.476" transform="translate(-54.883 -24.879)" fill="#060607"/>
        <path id="Trazado_820771" data-name="Trazado 820771" d="M136.034,58.582c.006-.134.012-.269.018-.4.242.016.282.206.334.385l-.352.018" transform="translate(-42.427 -18.145)" fill="#dfe3e8"/>
        <path id="Trazado_820772" data-name="Trazado 820772" d="M112.837,159.408q11.866,0,23.733-.006c.65,0,1.239-.076.883.923-.083.232.071.635.071.963q0,21.941-.007,43.882c0,3.062-.844,5.768-3.542,7.627a8.754,8.754,0,0,1-5.073,1.451q-16.252.047-32.5,0a7.894,7.894,0,0,1-6.09-2.416A8,8,0,0,1,88,206.51c-.015-.857.028-1.716-.023-2.57-.033-.542.144-.66.666-.656,3.182.025,6.364-.012,9.545.031.7.01.85-.208.824-.853-.049-1.255-.055-2.515,0-3.769.032-.685-.114-.915-.864-.9-3.123.049-6.248,0-9.372.036-.623.006-.837-.115-.806-.781.061-1.312.056-2.629,0-3.941-.026-.638.142-.8.791-.8,4.959.03,9.917,0,14.876.035.725.006.914-.18.879-.888-.063-1.283-.063-2.573,0-3.855.034-.676-.2-.778-.813-.776-4.959.025-9.918,0-14.876.028-.63,0-.9-.1-.86-.813.068-1.282.054-2.571,0-3.855-.025-.645.124-.859.824-.85,3.152.043,6.306,0,9.458.033.6.006.779-.136.757-.747-.05-1.369-.045-2.743,0-4.113.017-.546-.154-.657-.672-.653-3.182.024-6.364-.012-9.545.031-.705.01-.845-.213-.82-.853a35.309,35.309,0,0,0-.008-3.769c-.056-.811.25-.9.952-.9,4.385.031,8.771.005,13.156.027a10.037,10.037,0,0,1,2.058-.017c.229.048.372-.036.37-.313-.007-1.6-.012-3.2,0-4.8,0-.491-.336-.363-.592-.365-1.232-.008-2.465,0-3.7,0-3.841,0-7.682-.01-11.522.012-.537,0-.742-.1-.72-.689.047-1.34.051-2.686,0-4.027-.024-.632.133-.8.789-.8,8.025.026,16.051.017,24.077.017m2.672,13.557a8.346,8.346,0,0,0,8.122,8.371c4.844-.114,8.251-3.407,8.321-8.074.071-4.75-3.213-8.324-8.443-8.326-4.592,0-7.765,3.538-8,8.028m-5.5,27.4a8.419,8.419,0,0,0,8.145,8.411,8.3,8.3,0,0,0,8.311-8.153,7.943,7.943,0,0,0-8.369-8.251,8.111,8.111,0,0,0-8.087,7.993" transform="translate(-27.433 -49.712)" fill="#ffe593"/>
        <path id="Trazado_820773" data-name="Trazado 820773" d="M13.448,191.245a26.847,26.847,0,0,0,.208,3.868c.1.44.246.588.678.513,1.347-.233,2.691-.485,4.045-.66.5-.064.621-.257.609-.7-.022-.742.021-1.487-.01-2.229-.145-3.493,1.552-6.236,3.626-8.812a11.283,11.283,0,0,1,5.936-3.793,13.483,13.483,0,0,1,7.975,0,23.567,23.567,0,0,1,2.646,1.023c.277.131.445.2.623-.116.8-1.434,1.618-2.861,2.415-4.264a16.281,16.281,0,0,0-6.53-2.355.747.747,0,0,1-.69-.619,12.044,12.044,0,0,0-3.937-6.755c-1.373-1.091-1.254-2.341-1-3.675a14.418,14.418,0,0,1,2.985-6.24,12.878,12.878,0,0,1,7.832-4.793,15.5,15.5,0,0,1,4.089-.217.915.915,0,0,1,.621.25,16.6,16.6,0,0,0,5.115,3.7,15.39,15.39,0,0,0-3.442,5.4,11.638,11.638,0,0,0-.572,6.242c.171.921.407,1.808.662,2.706a11.745,11.745,0,0,0,1.162,2.386,11.28,11.28,0,0,0,4.127,4.5A16.967,16.967,0,0,0,57,178.456c.56.142.513.356.513.709q0,5.572,0,11.143c0,4.657-.061,9.316.025,13.971a11.877,11.877,0,0,0,2.267,6.6c.172.248.334.5.5.749-.2.224-.414.131-.6.131q-20.554.01-41.108.012a10.184,10.184,0,0,1-6.752-2.584,10.326,10.326,0,0,1-3.8-6.474,11.391,11.391,0,0,1,.539-5.906,12.138,12.138,0,0,1,4.862-5.563m30.275-1.251c-.467,0-.725,0-.982,0a7.343,7.343,0,0,0-4.028,1.336,8.9,8.9,0,0,0-3.054,8.149c.68,3.617,4.5,7.616,9.309,6.652a8.409,8.409,0,0,0,5.4-3.218,8.082,8.082,0,0,0,1.347-6.587,7.813,7.813,0,0,0-3.539-5.237,6.579,6.579,0,0,0-4.449-1.095" transform="translate(-2.462 -47.21)" fill="#dfe3e8"/>
        <path id="Trazado_820774" data-name="Trazado 820774" d="M210.684,191.341a8.962,8.962,0,0,1,2.93,2.367,9.8,9.8,0,0,1,1.7,2.531,11.73,11.73,0,0,1,.555,7.549,10.39,10.39,0,0,1-3.185,5.142,10.122,10.122,0,0,1-6.816,2.857q-20.595.021-41.19,0c-.232,0-.568.164-.687-.135-.088-.217.2-.38.318-.567a13.184,13.184,0,0,0,2.273-6.426c.341-6.275.061-12.552.151-18.827q.045-3.17-.008-6.342c-.012-.715.1-.985.934-1.218a12.845,12.845,0,0,0,7.849-5.733,13.35,13.35,0,0,0,2.078-8.776,13.125,13.125,0,0,0-3.568-7.714c-.527-.552-.467-.972.29-1.243a8.421,8.421,0,0,0,3.057-2.047,4.33,4.33,0,0,1,4.149-1.2,17.6,17.6,0,0,1,5.021,1.3,12.987,12.987,0,0,1,6.581,6.81,17.948,17.948,0,0,1,1.17,4.777,1.578,1.578,0,0,1-.751,1.506,12.048,12.048,0,0,0-3.921,5.715,7.667,7.667,0,0,0-.564,1.641c-.025.238-.318.405-.652.446a18.133,18.133,0,0,0-5.5,1.711c-.976.457-.93.45-.425,1.356a29.248,29.248,0,0,1,1.553,2.846c.285.676.674.93,1.487.537a12.618,12.618,0,0,1,6.518-1.307,14.372,14.372,0,0,1,9.778,4.586,12.282,12.282,0,0,1,3.145,6.884,20.166,20.166,0,0,1,.11,3.639c-.033.918.437,1.159,1.134,1.147a13.423,13.423,0,0,1,3.07.479c.972.208,1.349-.016,1.316-1-.036-1.056.381-2.073.1-3.288m-30.39-1.32c-4.1-.4-8.044,3.6-8.076,7.809-.03,4,3.507,8.767,8.439,8.451,4.579-.292,8.015-3.338,8.021-8.127.006-4.405-2.864-8.181-8.383-8.134" transform="translate(-51.141 -47.238)" fill="#dfe3e8"/>
        <path id="Trazado_820775" data-name="Trazado 820775" d="M69.476,137.535a10.739,10.739,0,0,1-4.9-5.6,12.322,12.322,0,0,1-.623-3.869,9.567,9.567,0,0,1,1.9-6.4,10.161,10.161,0,0,1,5.074-3.995,10.652,10.652,0,0,1,4.474-.618c.584.039.449.312.361.676a29.174,29.174,0,0,0-.791,4.138c-.054.584.159.708.7.694,1.373-.037,2.75-.031,4.125,0,.489.01.723-.064.692-.638a8.98,8.98,0,0,1,1.726-5.459c2.425-3.716,5.969-5.1,10.24-4.864,3.745.206,6.5,2.254,8.528,5.2a9.136,9.136,0,0,1,1.353,4.019c.272,2.129.079,4.261.172,6.39.028.649-.129.848-.822.846-8.653-.027-17.3-.014-25.958-.023a8.161,8.161,0,0,0-2.944.547c-2.251.858-3.121,2.663-3.3,4.888-.1,1.3-.018,2.62-.018,4.07" transform="translate(-19.929 -34.798)" fill="#dfe3e8"/>
        <path id="Trazado_820776" data-name="Trazado 820776" d="M161.006,137.549c0-1.212.047-2.323-.013-3.428a7.512,7.512,0,0,0-.848-3.485,4.963,4.963,0,0,0-3.814-2.45,51.656,51.656,0,0,0-7.013-.15q-10.228-.049-20.455,0c-.681,0-.924-.109-.9-.858.062-2.082-.085-4.175.055-6.249a9.579,9.579,0,0,1,2.533-5.519,10.48,10.48,0,0,1,6.759-3.774c4.663-.611,10.057,1.459,12.021,7.145a11.384,11.384,0,0,1,.66,3.33c.012.342.124.431.448.429,1.547-.013,3.094-.025,4.641,0,.54.01.457-.322.409-.613a24.394,24.394,0,0,0-1.029-4.8,10.975,10.975,0,0,1,6.549,20.419" transform="translate(-39.907 -34.787)" fill="#dfe3e8"/>
        <path id="Trazado_820777" data-name="Trazado 820777" d="M110.271,148.949q-14.7,0-29.4.016c-.689,0-.942-.122-.9-.868.07-1.338.041-2.684.008-4.025-.012-.487.129-.663.622-.615a18.562,18.562,0,0,1,3.059.147c.438.114.923-.153,1.414-.153q27.247.021,54.494,0c.753,0,1.038.142.989.955a35.287,35.287,0,0,0-.006,3.767c.029.648-.159.8-.8.795q-14.741-.033-29.482-.015" transform="translate(-24.941 -44.739)" fill="#98a2af"/>
        <path id="Trazado_820778" data-name="Trazado 820778" d="M24.142,175.438a8.068,8.068,0,0,1,7.6,4.824c.378.77.3.921-.505,1.093a18.914,18.914,0,0,0-11.7,7.74c-.667.92-.647.9-1.456.089a7.733,7.733,0,0,1-2.214-4.783,8,8,0,0,1,2.451-6.626,6.917,6.917,0,0,1,4.853-2.229c.292,0,.52-.258.971-.107" transform="translate(-4.938 -54.702)" fill="#59bfe3"/>
        <path id="Trazado_820779" data-name="Trazado 820779" d="M224.746,183.49a8.826,8.826,0,0,1-2.238,5.842c-.6.648-.734.646-1.268-.105a19.193,19.193,0,0,0-9.994-7.424,9.771,9.771,0,0,0-1.894-.412c-.554-.061-.716-.259-.524-.771a7.752,7.752,0,0,1,4.2-4.5,8.326,8.326,0,0,1,11.127,4.428,9.57,9.57,0,0,1,.595,2.94" transform="translate(-65.107 -54.707)" fill="#59bfe3"/>
        <path id="Trazado_820780" data-name="Trazado 820780" d="M77.406,175.742a8.2,8.2,0,0,1-4.623-11.4,7.266,7.266,0,0,1,3.58-3.545c.72-.286,1.087-.078,1.087.666q.006,6.894,0,13.786c0,.137-.024.274-.045.494" transform="translate(-22.401 -50.111)" fill="#59bfe3"/>
        <path id="Trazado_820781" data-name="Trazado 820781" d="M167.982,168.134q0-3.382,0-6.765c0-.74.4-.985,1.04-.629a8.063,8.063,0,0,1,4.267,5.513,8.346,8.346,0,0,1-4.5,9.218c-.6.28-.833.292-.82-.487.041-2.282.014-4.566.014-6.85" transform="translate(-52.387 -50.082)" fill="#59bfe3"/>
        <path id="Trazado_820782" data-name="Trazado 820782" d="M101.75,103.516c.2-.242.377-.307.522.045-.187.137-.368.208-.522-.045" transform="translate(-31.734 -32.223)" fill="#98a2af"/>
        <path id="Trazado_820783" data-name="Trazado 820783" d="M215.023,21.5c0,2.656-.01,5.313.009,7.969,0,.544-.081.828-.711,1.014a13.457,13.457,0,0,0-4.966,3.1,6.57,6.57,0,0,1-4.714,1.824,5.618,5.618,0,0,1-3.464-1.4c-1.007-.8-1.94-1.691-3.026-2.393a10.841,10.841,0,0,0-5.3-1.583,11.561,11.561,0,0,0-9.265,3.531,6.429,6.429,0,0,1-4.863,1.845c-5.96-.074-11.921-.046-17.881-.016-.718,0-.89-.169-.881-.88.044-3.141.034-6.284.006-9.426-.006-.566.151-.714.708-.7,1.4.04,2.809.035,4.212,0,.5-.012.619.148.608.622-.03,1.4.021,2.8-.025,4.2-.019.583.176.7.718.689,1.374-.036,2.752-.045,4.126,0,.593.021.7-.188.687-.72-.035-1.313.041-2.631-.032-3.94-.042-.753.218-.89.9-.858,1.23.058,2.466.058,3.7,0,.712-.033,1,.1.949.9-.083,1.338-.008,2.684-.03,4.026-.007.42.074.6.555.588,1.46-.034,2.923-.038,4.384,0,.537.014.587-.206.582-.648-.021-1.857,0-3.713-.018-5.57a1,1,0,0,1,.492-.977c6.675-4.415,13.36-8.815,19.992-13.3a6.965,6.965,0,0,1,8.439-.084c1,.662,2,1.334,2.973,2.029a2.657,2.657,0,0,1,1.148,2.353c-.031,2.6-.01,5.2-.01,7.8" transform="translate(-49.89 -2.476)" fill="#dfe3e8"/>
        <path id="Trazado_820784" data-name="Trazado 820784" d="M203.678,47.8a6.245,6.245,0,0,1,4.353,1.729,14.462,14.462,0,0,0,5.111,3.216,10.914,10.914,0,0,0,10.224-1.787c.886-.656,1.738-1.358,2.6-2.051.149-.12.24-.358.48-.211a.55.55,0,0,1,.226.519q-.009,4.753,0,9.507a2.21,2.21,0,0,1-.809,1.822,19.532,19.532,0,0,1-5.526,3.374,6.168,6.168,0,0,1-5.532-.776q-5.089-3.323-10.152-6.684c-2.311-1.525-4.612-3.063-6.929-4.579-.461-.3-.634-.507-.076-.912.879-.637,1.7-1.352,2.561-2.015a5.232,5.232,0,0,1,3.477-1.154" transform="translate(-61.532 -14.907)" fill="#59bfe3"/>
        <path id="Trazado_820785" data-name="Trazado 820785" d="M143.991,34.807c0-3.4.017-6.8-.015-10.2-.006-.614.171-.764.764-.745,1.374.045,2.751.032,4.126,0,.472-.01.633.111.632.61q-.024,10.367,0,20.735c0,.5-.156.621-.63.611-1.375-.028-2.752-.04-4.126,0-.59.019-.771-.125-.766-.742.032-3.427.016-6.854.015-10.282" transform="translate(-44.904 -7.443)" fill="#98a2af"/>
        <path id="Trazado_820786" data-name="Trazado 820786" d="M39.042,40.327c-7.739,0-15.479.083-23.216-.039A7.707,7.707,0,0,1,8.713,35.5a8.236,8.236,0,0,1,6.037-11.48c1.285-.2,2.56-.069,3.837-.143.625-.036.4.432.405.712.014,3.143.026,6.285-.006,9.428-.007.638.113.887.821.852,1.316-.065,2.638-.051,3.955,0,.6.021.764-.134.758-.745-.033-3.171,0-6.343-.031-9.514-.007-.609.156-.764.756-.743q2.061.071,4.127,0c.556-.018.661.167.649.674-.034,1.4,0,2.8-.021,4.2-.008.453.07.653.592.64,1.433-.037,2.867-.045,4.3,0,.584.019.641-.217.632-.695-.026-1.4.01-2.8-.02-4.2-.011-.48.122-.63.614-.619,1.4.032,2.81.041,4.213,0,.573-.018.7.159.7.709C41,27.74,41.04,30.911,41,34.082c-.009.666.187.8.809.779,1.288-.05,2.582-.068,3.868,0,.761.043.87-.23.862-.906-.037-3.114,0-6.228-.03-9.342-.006-.583.114-.783.738-.76,1.4.052,2.809.033,4.213.007.444-.008.586.111.577.568-.028,1.456.008,2.914-.021,4.371-.01.457.135.575.578.566,1.461-.025,2.924-.03,4.385,0,.475.01.568-.159.561-.589-.024-1.4.013-2.8-.02-4.2-.012-.527.085-.746.685-.725,1.4.049,2.809.034,4.213.006.471-.01.63.1.628.6-.019,5.086-.029,10.171.008,15.256.006.718-.368.61-.794.61q-11.609,0-23.218,0Z" transform="translate(-2.48 -7.44)" fill="#ffe593"/>
        <path id="Trazado_820787" data-name="Trazado 820787" d="M96,29.531c0-4.284.017-8.568-.018-12.852-.006-.666.189-.8.81-.778,1.373.047,2.75.032,4.125.006.443-.009.579.113.578.567q-.021,13.153,0,26.3c0,.471-.156.566-.588.558-1.4-.025-2.81-.051-4.211.009-.674.029-.709-.255-.707-.791.019-4.341.01-8.682.01-13.023" transform="translate(-29.937 -4.959)" fill="#ffe593"/>
        <path id="Trazado_820788" data-name="Trazado 820788" d="M29.331,99.163a13.7,13.7,0,0,1,.341-27.392c8.35.094,13.974,6.2,13.812,14.033-.154,7.427-5.83,13.424-14.152,13.358m5.906-13.715h1.2c1.742,0,1.794-.013,1.371-1.67a8.375,8.375,0,0,0-7.432-6.55c-.361-.053-.648-.057-.632.495.042,1.48.019,2.962.011,4.444,0,.329.076.484.453.563.83.175,1.744.526,1.919,1.379.3,1.464,1.232,1.457,2.337,1.343a7.585,7.585,0,0,1,.771,0" transform="translate(-4.983 -22.384)" fill="#59bfe3"/>
        <path id="Trazado_820789" data-name="Trazado 820789" d="M224.048,132.039A8.213,8.213,0,0,1,224,115.616c5.115.056,8.438,3.436,8.442,8.228a8.013,8.013,0,0,1-8.4,8.195" transform="translate(-67.35 -36.059)" fill="#59bfe3"/>
        <path id="Trazado_820790" data-name="Trazado 820790" d="M186.76,93.16a2.747,2.747,0,0,1-.343-5.476,2.917,2.917,0,0,1,3.039,2.71,2.619,2.619,0,0,1-2.7,2.766" transform="translate(-57.383 -27.347)" fill="#59bfe3"/>
        <path id="Trazado_820791" data-name="Trazado 820791" d="M127.994,175.478c.235-4.49,3.408-8.03,8-8.028,5.23,0,8.514,3.575,8.443,8.325-.069,4.667-3.476,7.959-8.32,8.073a8.346,8.346,0,0,1-8.122-8.37m10.832.306a2.654,2.654,0,0,0-2.871-2.849,2.746,2.746,0,0,0-2.453,2.716,2.7,2.7,0,0,0,2.8,2.728,2.4,2.4,0,0,0,2.528-2.595" transform="translate(-39.919 -52.225)" fill="#060607"/>
        <path id="Trazado_820792" data-name="Trazado 820792" d="M120,215.317a8.111,8.111,0,0,1,8.086-7.993,7.944,7.944,0,0,1,8.37,8.251,8.3,8.3,0,0,1-8.312,8.153A8.418,8.418,0,0,1,120,215.317m10.828.336a2.6,2.6,0,0,0-2.867-2.833,2.717,2.717,0,0,0,.251,5.422,2.411,2.411,0,0,0,2.616-2.589" transform="translate(-37.426 -64.662)" fill="#060607"/>
        <path id="Trazado_820793" data-name="Trazado 820793" d="M56.238,207.475a6.581,6.581,0,0,1,4.45,1.095,7.818,7.818,0,0,1,3.539,5.237,8.082,8.082,0,0,1-1.347,6.587,8.4,8.4,0,0,1-5.4,3.218c-4.808.965-8.629-3.035-9.309-6.651a8.9,8.9,0,0,1,3.054-8.149,7.343,7.343,0,0,1,4.028-1.336c.258,0,.516,0,.982,0m.087,10.807a2.61,2.61,0,0,0,2.657-2.719,2.931,2.931,0,0,0-3.077-2.758,2.751,2.751,0,0,0,.419,5.477" transform="translate(-14.976 -64.691)" fill="#060607"/>
        <path id="Trazado_820794" data-name="Trazado 820794" d="M184.031,207.487c5.52-.047,8.389,3.728,8.383,8.134-.006,4.789-3.441,7.833-8.021,8.127-4.931.316-8.469-4.453-8.438-8.451.032-4.207,3.972-8.209,8.076-7.809m.275,10.807a2.613,2.613,0,0,0,2.644-2.732,2.932,2.932,0,0,0-3.089-2.746,2.752,2.752,0,0,0,.445,5.478" transform="translate(-54.878 -64.704)" fill="#060607"/>
        <path id="Trazado_820795" data-name="Trazado 820795" d="M41.478,87.912a7.587,7.587,0,0,0-.771,0c-1.1.114-2.038.12-2.337-1.343-.175-.854-1.089-1.2-1.919-1.379-.378-.08-.456-.235-.453-.563.008-1.482.031-2.964-.011-4.445-.016-.552.271-.548.632-.495a8.376,8.376,0,0,1,7.432,6.55c.423,1.658.371,1.67-1.371,1.67h-1.2" transform="translate(-11.223 -24.848)" fill="#060607"/>
        <path id="Trazado_820796" data-name="Trazado 820796" d="M141.323,178.27a2.4,2.4,0,0,1-2.528,2.595,2.7,2.7,0,0,1-2.8-2.728,2.746,2.746,0,0,1,2.453-2.716,2.654,2.654,0,0,1,2.871,2.849" transform="translate(-42.416 -54.711)" fill="#59bfe3"/>
        <path id="Trazado_820797" data-name="Trazado 820797" d="M133.323,218.145a2.411,2.411,0,0,1-2.616,2.589,2.717,2.717,0,0,1-.251-5.422,2.6,2.6,0,0,1,2.867,2.833" transform="translate(-39.921 -67.153)" fill="#59bfe3"/>
        <path id="Trazado_820798" data-name="Trazado 820798" d="M58.815,220.722a2.751,2.751,0,0,1-.419-5.477A2.931,2.931,0,0,1,61.472,218a2.61,2.61,0,0,1-2.657,2.719" transform="translate(-17.467 -67.132)" fill="#59bfe3"/>
        <path id="Trazado_820799" data-name="Trazado 820799" d="M186.81,220.723a2.752,2.752,0,0,1-.445-5.478,2.932,2.932,0,0,1,3.089,2.746,2.613,2.613,0,0,1-2.644,2.732" transform="translate(-57.383 -67.132)" fill="#59bfe3"/>
      </g>
    </g>
  </g>
</svg>
