<svg xmlns="http://www.w3.org/2000/svg" xmlns:xlink="http://www.w3.org/1999/xlink" width="57" height="57" viewBox="0 0 57 57">
  <defs>
    <clipPath id="clip-path">
      <rect id="Rect치ngulo_377526" data-name="Rect치ngulo 377526" width="57" height="57" transform="translate(1092 1536.811)" fill="#fff" stroke="#707070" stroke-width="1"/>
    </clipPath>
    <clipPath id="clip-path-2">
      <rect id="Rect치ngulo_377510" data-name="Rect치ngulo 377510" width="53.499" height="53.509" fill="none"/>
    </clipPath>
  </defs>
  <g id="Enmascarar_grupo_333" data-name="Enmascarar grupo 333" transform="translate(-1092 -1536.811)" clip-path="url(#clip-path)">
    <g id="Grupo_1073249" data-name="Grupo 1073249" transform="translate(1094 1538.811)">
      <g id="Grupo_1073248" data-name="Grupo 1073248" clip-path="url(#clip-path-2)">
        <path id="Trazado_819902" data-name="Trazado 819902" d="M55.748,66.94a8.513,8.513,0,0,1-1.619-2.014,5.094,5.094,0,0,1-.838-2.692,2.481,2.481,0,0,1,.522-1.331,2.971,2.971,0,0,1,.728-.709l.061-.042.254-.168.058-.034.056-.018.049-.035a2.833,2.833,0,0,1,1.333-.326c2.639-.009,5.277.006,7.916-.006a3.655,3.655,0,0,1,1.574.305,2.843,2.843,0,0,1,1.189.987,3,3,0,0,1,.528,1.89,4.9,4.9,0,0,1-.414,1.489,6.991,6.991,0,0,1-2.089,2.729,3.257,3.257,0,0,0,.838.17,16.579,16.579,0,0,1,4.758,1.453,8.575,8.575,0,0,1,2.474,1.857,6.755,6.755,0,0,1,1.623,3.026.183.183,0,0,0,.025.045c0,.019,0,.038,0,.057a7.328,7.328,0,0,1-.337,3.968,1.484,1.484,0,0,0-.135.574c0,.016,0,.032,0,.049a5.8,5.8,0,0,0,.507,1.075c.346.666.637,1.355.923,2.049.175.425.377.848.528,1.274.215.61.42,1.23.613,1.851.3.966.572,1.941.8,2.925.147.643.256,1.3.353,1.959.12.809.147,1.622.218,2.433a17.453,17.453,0,0,1-.031,2.12,6.909,6.909,0,0,1-.828,3.128,6.671,6.671,0,0,1-3.394,3.028,6.5,6.5,0,0,1-2.193.537c-.282.014-.567.036-.85.036q-10.789.005-21.578.005a6.145,6.145,0,0,1-2.32-.51c-.39-.157-.752-.364-1.122-.558l-.055-.033a6.805,6.805,0,0,1-1.1-.883,7.242,7.242,0,0,1-1.755-2.838,8.252,8.252,0,0,1-.336-1.932c-.04-.485-.034-.967-.035-1.452.155-.088.155-.175,0-.261a14.4,14.4,0,0,1,.137-2.3c.023-.2.015-.438.049-.613a5.511,5.511,0,0,1,.179-.85,8.039,8.039,0,0,0,.212-.989l.043-.053c.1-.568.253-1.124.4-1.68A40.418,40.418,0,0,1,46.217,79a1.559,1.559,0,0,1,.185-.364.911.911,0,0,0,.081-.988,9.017,9.017,0,0,1-.43-1.639,7.01,7.01,0,0,1-.035-1.778,6.775,6.775,0,0,1,1.865-3.9,8.31,8.31,0,0,1,2.494-1.771,16.166,16.166,0,0,1,3.834-1.3c.415-.094.84-.15,1.262-.208.094-.013.178-.052.27-.063.038,0,.1,0,.085-.052s-.056-.024-.081.009M73.571,80.724l-.04-.046c-.028-.073-.061-.154-.116-.019-.267.647-.53,1.295-.795,1.943a.606.606,0,0,0-.04.064c-.211.456-.413.916-.636,1.366a.87.87,0,0,1-.854.492.8.8,0,0,1-.767-.581,1.17,1.17,0,0,1,.13-.9c.221-.513.5-1,.672-1.535l.041-.048.485-1.2a13.716,13.716,0,0,0,.677-1.828,16.242,16.242,0,0,0,.784-2.911,4.665,4.665,0,0,0-.928-3.461,7.112,7.112,0,0,0-3.2-2.295,2.61,2.61,0,0,0-.944-.278c-.194-.06-.389-.115-.581-.18a10,10,0,0,0-2.193-.452c-.008-.05-.014-.1-.088-.072a5.99,5.99,0,0,1-1.118-.1,10.37,10.37,0,0,0-1.5-.134h-.424a14.881,14.881,0,0,1,1.3,2.432,12.311,12.311,0,0,1,.782,2.907,6.368,6.368,0,0,1,.1,1.06c-.013.47-.539.957-.96.856a.9.9,0,0,1-.8-.875c-.066-.439-.118-.879-.191-1.318-.094-.554-.295-1.076-.429-1.617,0-.007.012-.016.01-.019a.26.26,0,0,0-.027-.03,1,1,0,0,1-.14-.369c0-.007.012-.017.01-.019a.245.245,0,0,0-.03-.029.949.949,0,0,1-.064-.108,11.969,11.969,0,0,0-1.116-2.046c-.105-.152-.156-.157-.267,0A10.87,10.87,0,0,0,59.152,71.5a11.278,11.278,0,0,0-.84,3.488.867.867,0,0,1-1.731-.084,5.447,5.447,0,0,1,.126-1.236l.031-.07a1.836,1.836,0,0,1,.017-.234,12.385,12.385,0,0,1,1.39-3.83c.185-.32.378-.635.58-.975l-.193-.009a17.17,17.17,0,0,0-1.885.149,17.109,17.109,0,0,0-3.427.637,9.341,9.341,0,0,0-3.558,1.743,4.826,4.826,0,0,0-1.738,5.149,33.49,33.49,0,0,0,1.793,5.193c.264.615.552,1.219.817,1.834a.841.841,0,0,1-.34,1.129.906.906,0,0,1-1.269-.432c-.43-.921-.857-1.844-1.224-2.793-.076-.2-.161-.391-.243-.59-.124.067-.139.168-.179.252A29.534,29.534,0,0,0,45.5,85.579a12.863,12.863,0,0,0-.42,1.629c-.006,0-.016.009-.016.013a.183.183,0,0,0,.011.035,4.342,4.342,0,0,0-.174.626,15.92,15.92,0,0,1-.243,1.6c-.075.966-.253,1.924-.253,2.9,0,.374.008.748.012,1.122,0,.061-.021.125.035.174a10.326,10.326,0,0,0,.142,1.046,6.213,6.213,0,0,0,.465,1.391,4.943,4.943,0,0,0,2.269,2.2,4.792,4.792,0,0,0,2.186.486c.758,0,1.515,0,2.273.006.033-.007.073-.012.073-.054s-.039-.047-.072-.053a4.621,4.621,0,0,1-1.21-1.728l-.04-.047-.012-.058-.031-.044c0-.194-.151-.342-.169-.531.069-.08.05-.13-.052-.153l-.062-.419-.043-.05a16.452,16.452,0,0,1-.059-1.942,4.335,4.335,0,0,1,.094-.84c.105-.441.145-.894.275-1.331a2.142,2.142,0,0,1,.274-.643c.063-.008.085-.049.085-.107a.176.176,0,0,1,.1-.1l.051-.033.164-.051.047-.01.051-.009c.8-.105,1.218.474.986,1.219a8.015,8.015,0,0,0-.3,3.422,3.592,3.592,0,0,0,.5,1.564,3.8,3.8,0,0,0,1.931,1.526,7.3,7.3,0,0,0,2.324.457c2.2.036,4.4.007,6.607.014a10.787,10.787,0,0,0,1.995-.161,4.839,4.839,0,0,0,2.5-1.1,3.915,3.915,0,0,0,1.18-2.751,7.954,7.954,0,0,0-.416-3.107.809.809,0,0,1,.267-.906.773.773,0,0,1,.893-.159,1,1,0,0,1,.557.652,9.973,9.973,0,0,1,.429,2.056,9.165,9.165,0,0,1,0,1.79,5.486,5.486,0,0,1-1.459,3.431c-.06.064-.15.113-.16.214a.441.441,0,0,0,.269.032c.705,0,1.41-.006,2.115,0a1.962,1.962,0,0,0,.684-.118.488.488,0,0,0,.128.01,4.8,4.8,0,0,0,2.957-1.665A5.917,5.917,0,0,0,76.5,93.355a23.753,23.753,0,0,0-.489-5.253,29.106,29.106,0,0,0-2.438-7.378M61.715,66.63a2.879,2.879,0,0,0,1.178-.3,5.008,5.008,0,0,0,2.844-3.371,1.194,1.194,0,0,0-.624-1.473,2.655,2.655,0,0,0-1.427-.113,1.56,1.56,0,0,0-.181-.02c-2.4,0-4.8-.013-7.2,0a1.18,1.18,0,0,0-1.144,1.531,4.935,4.935,0,0,0,1.773,2.783,3.532,3.532,0,0,0,1.437.762l.044.035a7.328,7.328,0,0,0,3.3.166" transform="translate(-33.694 -47.076)"/>
        <path id="Trazado_819903" data-name="Trazado 819903" d="M197.976,68.207a3.953,3.953,0,0,1,3.1,1.754,3.993,3.993,0,0,1,.452.752.28.28,0,0,0,.307.177.338.338,0,0,0,.347-.2,4.712,4.712,0,0,1,1.127-1.519,3.575,3.575,0,0,1,2.353-.958,2.541,2.541,0,0,0,.417,0,1.29,1.29,0,0,1,.974.27A2.157,2.157,0,0,1,208,69.727a3.531,3.531,0,0,1-.77,3.048,4.3,4.3,0,0,1-1.616,1.279.341.341,0,0,0-.226.372,3.447,3.447,0,0,1-2.59,3.437,3.6,3.6,0,0,1-4.242-2.129,3.669,3.669,0,0,1-.283-1.46c0-.107-.044-.1-.093-.128a5.076,5.076,0,0,1-1.818-1.526A3.613,3.613,0,0,1,195.63,70a1.947,1.947,0,0,1,.518-1.083,2.129,2.129,0,0,1,1.827-.705m3.428,7.926a1.47,1.47,0,0,0,1.2-.1,1.663,1.663,0,0,0,1.008-1.7,1.755,1.755,0,0,0-2.312-1.618,1.794,1.794,0,0,0-1.25,1.65,1.818,1.818,0,0,0,1.35,1.763m4.88-5.618c.013-.479-.227-.654-.692-.555a2.853,2.853,0,0,0-1.769,1.3c-.079.115-.061.16.046.242a3.652,3.652,0,0,1,.843.843c.079.118.171.148.281.075a2.459,2.459,0,0,0,1.291-1.9m-8.233-.521c-.548,0-.7.145-.654.554a1.873,1.873,0,0,0,.19.652,3.78,3.78,0,0,0,1.064,1.2c.138.111.231.109.342-.035a4.072,4.072,0,0,1,.87-.857c.093-.066.106-.127.038-.212a4.451,4.451,0,0,0-.893-.942,2.054,2.054,0,0,0-.957-.358" transform="translate(-154.588 -53.899)" fill="#010101"/>
        <path id="Trazado_819904" data-name="Trazado 819904" d="M159.218,9.827a2.506,2.506,0,0,1-1.144-.2,4.016,4.016,0,0,1-1.445-1.071,4.554,4.554,0,0,1-.783-1.422,4.53,4.53,0,0,0-.163-.595c-.069-.131.055-.231.043-.366a.3.3,0,0,0-.172-.274c-.324-.2-.652-.39-.959-.612a3.975,3.975,0,0,1-1.353-1.95,2.483,2.483,0,0,1-.038-1.874A2.2,2.2,0,0,1,155.293,0,3.813,3.813,0,0,1,157,.464a4.674,4.674,0,0,1,1.868,1.892c.072.121.09.278.285.329.218.056.349.036.46-.173a5.7,5.7,0,0,1,1.042-1.379,3.874,3.874,0,0,1,2.2-1.085,2.22,2.22,0,0,1,2.633,2.612,4.015,4.015,0,0,1-.759,1.875,4.387,4.387,0,0,1-1.7,1.366.25.25,0,0,0-.167.267,4.014,4.014,0,0,1-.247,1.35A3.276,3.276,0,0,1,161.3,9.17a3.542,3.542,0,0,1-2.085.656m-.435-1.882a1.749,1.749,0,0,0,2.207-1.1,2.262,2.262,0,0,0,.043-.7,1.7,1.7,0,0,0-2.251-1.6,1.717,1.717,0,0,0-1.263,1.71,1.721,1.721,0,0,0,1.264,1.684m-3.619-6.16c-.192,0-.417.289-.343.632a2.842,2.842,0,0,0,1.338,1.858c.114.072.178.057.252-.049a4.148,4.148,0,0,1,.64-.683c.372-.339.374-.335.061-.753a2.419,2.419,0,0,0-1.948-1.005m8,.048a1.2,1.2,0,0,0-.636.127,3.643,3.643,0,0,0-1.3,1.17c-.059.077-.025.108.026.144a4.063,4.063,0,0,1,.987.987c.047.066.094.079.17.027a2.732,2.732,0,0,0,1.34-1.842,1.153,1.153,0,0,0,0-.338c-.053-.34-.321-.272-.585-.274" transform="translate(-120.951 0)" fill="#010101"/>
        <path id="Trazado_819905" data-name="Trazado 819905" d="M19.068,60.813a3.524,3.524,0,0,1-3.441-2.484,1.889,1.889,0,0,1-.165-1.184c.03-.091-.058-.121-.13-.16a5.281,5.281,0,0,1-1.225-.867,4.344,4.344,0,0,1-1.315-2.457,2.172,2.172,0,0,1,.328-1.648,2.019,2.019,0,0,1,1.65-.964A3.874,3.874,0,0,1,18.126,52.7a3.21,3.21,0,0,1,.543.885c.068.2.229.162.383.173s.23-.078.286-.2A4.017,4.017,0,0,1,21.668,51.3a2.693,2.693,0,0,1,2.67.161,2.021,2.021,0,0,1,.845,1.423,3.526,3.526,0,0,1-1.006,2.92,4.58,4.58,0,0,1-1.58,1.188c-.125.056-.075.147-.071.217a2.936,2.936,0,0,1-.276,1.533,3.472,3.472,0,0,1-2.671,2.023,3.714,3.714,0,0,1-.511.046m-.691-5.181a1.245,1.245,0,0,0-.757.494,1.785,1.785,0,0,0,.752,2.818,1.879,1.879,0,0,0,.922.09,1.77,1.77,0,0,0,1.487-1.441,2.359,2.359,0,0,0-.137-1.022,1.765,1.765,0,0,0-2.267-.94m-3.339-2.817a.463.463,0,0,0-.506.534,1.855,1.855,0,0,0,.092.392,2.792,2.792,0,0,0,1.187,1.532c.121.082.191.1.275-.025a2.981,2.981,0,0,1,.843-.842A.191.191,0,0,0,17,54.12a2.433,2.433,0,0,0-1.967-1.305m8.373.566c.095-.516-.259-.614-.65-.545a2.716,2.716,0,0,0-1.825,1.331c-.039.06-.065.115.021.166a3.142,3.142,0,0,1,.919.871.184.184,0,0,0,.3.052,3.478,3.478,0,0,0,.9-.86,1.529,1.529,0,0,0,.331-1.015" transform="translate(-10.081 -40.329)" fill="#010101"/>
        <path id="Trazado_819906" data-name="Trazado 819906" d="M88.556,13.79a3.886,3.886,0,0,1-1.567,3.018,4.9,4.9,0,0,1-.822.508.835.835,0,0,1-1.131-.746.932.932,0,0,1,.571-.92,1.878,1.878,0,0,0,.893-.931,2.284,2.284,0,0,0,.282-1.009,1.238,1.238,0,0,0-.245-.716,8.25,8.25,0,0,1-1.271-1.988,6.142,6.142,0,0,1-.209-.793,3.266,3.266,0,0,1-.064-.794.9.9,0,0,1,.768-.955.915.915,0,0,1,1.012.828,3.337,3.337,0,0,0,.925,2.376,3.125,3.125,0,0,1,.858,2.122" transform="translate(-67.174 -6.679)" fill="#010101"/>
        <path id="Trazado_819907" data-name="Trazado 819907" d="M109.831,14.231a3.9,3.9,0,0,1-1.874,2.909,1.437,1.437,0,0,1-.654.278.837.837,0,0,1-.815-.353.847.847,0,0,1,.269-1.254,2.587,2.587,0,0,0,1.268-1.524,1.254,1.254,0,0,0-.135-1.124c-.194-.287-.416-.556-.626-.833a4.547,4.547,0,0,1-.941-2.405,1.64,1.64,0,0,1,.095-.937.889.889,0,0,1,.842-.444c.608.134.8.385.793.825a3.478,3.478,0,0,0,1,2.427,3.3,3.3,0,0,1,.782,2.435" transform="translate(-84.012 -6.746)" fill="#010101"/>
        <path id="Trazado_819908" data-name="Trazado 819908" d="M24.791,103.295a4.558,4.558,0,0,1-1.168,2.981,2.569,2.569,0,0,0-.557.889,1.427,1.427,0,0,0,.163,1.017,2.458,2.458,0,0,0,1.126,1.221.854.854,0,0,1,.433.9.793.793,0,0,1-.629.7.843.843,0,0,1-.651-.088,4.389,4.389,0,0,1-1.917-2.095,3.242,3.242,0,0,1-.344-1.316,3.285,3.285,0,0,1,.707-1.97,8.043,8.043,0,0,0,.793-1.058,2.513,2.513,0,0,0,.265-1.06,2.256,2.256,0,0,1,.082-.687.855.855,0,0,1,.983-.583.814.814,0,0,1,.714.865c0,.1,0,.191,0,.287" transform="translate(-16.791 -80.715)" fill="#010101"/>
        <path id="Trazado_819909" data-name="Trazado 819909" d="M3.545,103.231a4.392,4.392,0,0,1-1.092,2.941c-.156.187-.3.381-.451.575a1.2,1.2,0,0,0-.143,1.177,2.55,2.55,0,0,0,1.021,1.344c.095.062.184.131.278.194a.91.91,0,0,1,.272,1.19.871.871,0,0,1-1.134.308,4.313,4.313,0,0,1-2.073-2.382A2.955,2.955,0,0,1,.844,105.4a3.237,3.237,0,0,0,.8-1.265,4.905,4.905,0,0,0,.143-1.062.866.866,0,0,1,.745-.881.842.842,0,0,1,.938.522,1,1,0,0,1,.078.521" transform="translate(0 -80.752)" fill="#010101"/>
        <path id="Trazado_819910" data-name="Trazado 819910" d="M42.669,214.828c.156.086.156.173,0,.261v-.261" transform="translate(-33.723 -169.786)" fill="#010101"/>
        <path id="Trazado_819911" data-name="Trazado 819911" d="M105.171,94.587c.025-.033.064-.068.081-.009s-.047.048-.085.052a.141.141,0,0,0,0-.043" transform="translate(-83.117 -74.723)" fill="#010101"/>
        <path id="Trazado_819912" data-name="Trazado 819912" d="M193.677,148.1c0-.016,0-.033,0-.049l.037.033-.038.016" transform="translate(-153.07 -117.007)" fill="#010101"/>
        <path id="Trazado_819913" data-name="Trazado 819913" d="M45.458,191.893l-.043.053c-.01-.037.012-.049.043-.053" transform="translate(-35.892 -151.66)" fill="#010101"/>
        <path id="Trazado_819914" data-name="Trazado 819914" d="M195.926,126.165c0-.019,0-.038,0-.057l.04.018-.038.04" transform="translate(-154.846 -99.668)" fill="#010101"/>
        <path id="Trazado_819915" data-name="Trazado 819915" d="M99.485,62.356l-.061.041c.011-.027.021-.055.061-.041" transform="translate(-78.578 -49.279)" fill="#010101"/>
        <path id="Trazado_819916" data-name="Trazado 819916" d="M100.984,61.374l-.058.034c.012-.025.018-.058.058-.034" transform="translate(-79.765 -48.499)" fill="#010101"/>
        <path id="Trazado_819917" data-name="Trazado 819917" d="M101.519,61.117l-.049.035c0-.031.008-.058.049-.035" transform="translate(-80.195 -48.297)" fill="#010101"/>
        <path id="Trazado_819918" data-name="Trazado 819918" d="M58.066,249.964l.055.033c-.039.024-.045-.009-.055-.033" transform="translate(-45.892 -197.555)" fill="#010101"/>
        <path id="Trazado_819919" data-name="Trazado 819919" d="M51.768,121.08a12.9,12.9,0,0,1,.42-1.629,29.536,29.536,0,0,1,1.779-4.755c.04-.084.055-.185.179-.252.082.2.166.393.242.59.368.949.794,1.872,1.224,2.793a.906.906,0,0,0,1.27.432.84.84,0,0,0,.34-1.129c-.264-.615-.553-1.219-.816-1.834a33.489,33.489,0,0,1-1.793-5.193,4.826,4.826,0,0,1,1.738-5.149,9.341,9.341,0,0,1,3.558-1.743,17.1,17.1,0,0,1,3.427-.637,17.172,17.172,0,0,1,1.885-.149l.193.009c-.2.339-.4.655-.58.975a12.38,12.38,0,0,0-1.39,3.83,1.917,1.917,0,0,0-.017.234l-.03.07a5.449,5.449,0,0,0-.127,1.236.867.867,0,0,0,1.731.084,11.272,11.272,0,0,1,.84-3.488A10.858,10.858,0,0,1,67,103.252c.111-.158.162-.153.267,0a11.982,11.982,0,0,1,1.116,2.046.95.95,0,0,0,.064.108l.021.048a1,1,0,0,0,.14.369l.017.049c.134.541.336,1.063.429,1.617.074.438.125.879.191,1.318a.9.9,0,0,0,.8.875c.421.1.947-.386.96-.856a6.372,6.372,0,0,0-.1-1.06,12.321,12.321,0,0,0-.782-2.907,14.881,14.881,0,0,0-1.3-2.432h.424a10.367,10.367,0,0,1,1.5.134,6.011,6.011,0,0,0,1.118.1c0,.064.035.076.088.071a10,10,0,0,1,2.193.452c.192.064.387.12.581.18,0,.135.1.2.191.26.344.247.7.476,1.02.756a5.741,5.741,0,0,1,2.054,5.113,12.032,12.032,0,0,1-.581,2.393.531.531,0,0,0,.047.442c.241.451.476.9.687,1.37.066.145.038.336.2.438l-.485,1.2c-.031,0-.05.013-.041.048-.177.533-.451,1.022-.672,1.535a1.169,1.169,0,0,0-.13.9.8.8,0,0,0,.767.581.869.869,0,0,0,.853-.492c.223-.45.424-.91.636-1.366a.642.642,0,0,1,.04-.064c.042.011.087.021.1.069.225.7.463,1.4.67,2.1a34.384,34.384,0,0,1,1.082,4.725,23.371,23.371,0,0,1,.239,2.867,15.078,15.078,0,0,1-.1,1.789,6.439,6.439,0,0,1-.556,2.1,6.165,6.165,0,0,1-1.59,2.064.9.9,0,0,0-.319.37,1.963,1.963,0,0,1-.684.118c-.7-.007-1.41,0-2.115,0a.443.443,0,0,1-.269-.032c.01-.1.1-.151.16-.214A5.484,5.484,0,0,0,77.393,129a9.134,9.134,0,0,0,0-1.79,9.974,9.974,0,0,0-.429-2.056,1,1,0,0,0-.557-.652.773.773,0,0,0-.893.159.808.808,0,0,0-.267.906,7.963,7.963,0,0,1,.416,3.107,3.914,3.914,0,0,1-1.181,2.751,4.84,4.84,0,0,1-2.5,1.1,10.784,10.784,0,0,1-1.995.161c-2.2-.008-4.4.021-6.606-.014a7.3,7.3,0,0,1-2.324-.457,3.8,3.8,0,0,1-1.931-1.526,3.592,3.592,0,0,1-.5-1.564,8.018,8.018,0,0,1,.3-3.422c.231-.745-.188-1.325-.986-1.219l-.052.009a.042.042,0,0,0-.047.01l-.164.051c-.034-.016-.043.008-.051.033a.177.177,0,0,0-.1.1c-.067,0-.115.025-.085.107a2.143,2.143,0,0,0-.275.643c-.13.438-.169.89-.275,1.331a4.351,4.351,0,0,0-.094.839,16.454,16.454,0,0,0,.059,1.942c-.006.034.013.046.043.05l.062.419c0,.057-.016.119.052.153.019.189.166.337.17.531-.017.034.007.039.031.044l.012.058c-.009.035.01.046.04.047a4.618,4.618,0,0,0,1.21,1.728v.107c-.758,0-1.515,0-2.273-.006a4.793,4.793,0,0,1-2.186-.486,4.943,4.943,0,0,1-2.269-2.2,6.223,6.223,0,0,1-.465-1.391,10.389,10.389,0,0,1-.142-1.046c.114-.083.028-.127-.035-.174,0-.374-.012-.748-.012-1.122,0-.973.178-1.931.253-2.9a15.98,15.98,0,0,0,.243-1.6,4.313,4.313,0,0,1,.174-.626.049.049,0,0,0,0-.048m9.146-5.646c-.005.006-.016.013-.015.017a.227.227,0,0,0,.017.039c.036.184-.015.273-.227.258a6.242,6.242,0,0,0-.73,0,.894.894,0,0,0-.819.83c-.021.538.362.892.995.935.256.017.606-.114.742.063s.043.5.044.759a.942.942,0,0,0,.517.869c.182.106.43.189.549.117.324-.2.677-.418.685-.881,0-.226.025-.452.011-.677-.011-.189.035-.26.24-.254.5.013.991,0,1.487,0l.057.023c.006.588.026,1.176.01,1.763a.856.856,0,0,0,.26.636c.007.027.019.048.053.042a.85.85,0,0,0,.481.221.943.943,0,0,0,.978-.957c.008-.5.009-.99,0-1.485,0-.177.038-.245.229-.239a3.128,3.128,0,0,0,.856-.04.877.877,0,0,0-.138-1.722c-.277-.014-.555-.008-.833-.011l-.1-.043a8.479,8.479,0,0,0-.047-1.04.9.9,0,0,0-.74-.683.833.833,0,0,0-.909.484,2.548,2.548,0,0,0-.1,1.127c0,.179-.062.163-.168.162l-1.54-.009L62.7,115.7c-.042-.607.035-1.217-.039-1.823a.89.89,0,0,0-.929-.8.835.835,0,0,0-.8.867c-.01.5-.007.992-.01,1.488m12.413,4.806a.64.64,0,0,0-.522.193c-.336.315-.671.634-.979.976a.852.852,0,0,0,.044,1.162.805.805,0,0,0,1.129.094,6.444,6.444,0,0,0,1.084-1.088.754.754,0,0,0,.057-.881.818.818,0,0,0-.812-.456m-8.9,7.944a.582.582,0,0,0-.11-.392,5.746,5.746,0,0,0-1.214-1.2.763.763,0,0,0-1.018.133.779.779,0,0,0-.148,1.033,4.621,4.621,0,0,0,1.213,1.2.859.859,0,0,0,1.278-.773m9.877-19.16c0,.209-.008.418,0,.626a.87.87,0,0,0,1.72-.012,3.416,3.416,0,0,0-.013-1.245.818.818,0,0,0-.648-.637c-.537-.057-.811.065-1,.451a2.074,2.074,0,0,0-.064.817" transform="translate(-40.381 -80.948)" fill="#539586"/>
        <path id="Trazado_819920" data-name="Trazado 819920" d="M105.422,73.134a3.532,3.532,0,0,1-1.437-.762,4.936,4.936,0,0,1-1.773-2.783,1.18,1.18,0,0,1,1.144-1.531c2.4-.018,4.8-.006,7.2,0a1.564,1.564,0,0,1,.181.021,5.566,5.566,0,0,1,.184.6,1.749,1.749,0,0,1,.13.732,6.645,6.645,0,0,1-.312,1.1,5.88,5.88,0,0,1-1.645,2.37c-.141.118-.354.217-.328.466a7.331,7.331,0,0,1-3.3-.166c0-.028-.008-.05-.044-.035" transform="translate(-80.749 -53.781)" fill="#539586"/>
        <path id="Trazado_819921" data-name="Trazado 819921" d="M183.434,177.926a.905.905,0,0,1,.319-.37,6.17,6.17,0,0,0,1.59-2.064,6.439,6.439,0,0,0,.556-2.1,15.123,15.123,0,0,0,.1-1.789,23.375,23.375,0,0,0-.24-2.867,34.372,34.372,0,0,0-1.082-4.725c-.207-.706-.445-1.4-.67-2.1-.015-.048-.06-.058-.1-.069.264-.648.528-1.3.795-1.943.055-.134.089-.054.116.02,0,.031.013.043.04.046a29.111,29.111,0,0,1,2.438,7.378,23.766,23.766,0,0,1,.489,5.253,5.917,5.917,0,0,1-1.259,3.677,4.8,4.8,0,0,1-2.957,1.665.488.488,0,0,1-.128-.01" transform="translate(-144.974 -126.316)" fill="#3a685c"/>
        <path id="Trazado_819922" data-name="Trazado 819922" d="M167.409,117.66c-.16-.1-.132-.292-.2-.438-.211-.466-.446-.919-.687-1.37a.531.531,0,0,1-.047-.442,12.036,12.036,0,0,0,.581-2.393A5.741,5.741,0,0,0,165,107.9c-.325-.28-.677-.509-1.02-.756-.09-.065-.193-.126-.191-.26a2.607,2.607,0,0,1,.944.278,7.113,7.113,0,0,1,3.205,2.295,4.666,4.666,0,0,1,.927,3.461,16.242,16.242,0,0,1-.784,2.911,13.71,13.71,0,0,1-.677,1.828" transform="translate(-129.451 -84.477)" fill="#3a685c"/>
        <path id="Trazado_819923" data-name="Trazado 819923" d="M133.638,73.276c-.026-.249.187-.347.328-.466a5.879,5.879,0,0,0,1.645-2.37,6.635,6.635,0,0,0,.312-1.1,1.749,1.749,0,0,0-.13-.732,5.572,5.572,0,0,0-.184-.6,2.655,2.655,0,0,1,1.427.113,1.194,1.194,0,0,1,.624,1.473,5.008,5.008,0,0,1-2.844,3.371,2.879,2.879,0,0,1-1.178.3" transform="translate(-105.617 -53.722)" fill="#3a685c"/>
        <path id="Trazado_819924" data-name="Trazado 819924" d="M51.126,221.452c.063.048.149.091.035.174-.057-.049-.04-.113-.035-.174" transform="translate(-40.402 -175.021)" fill="#010101"/>
        <path id="Trazado_819925" data-name="Trazado 819925" d="M79.122,234.171c-.068-.034-.052-.1-.052-.153.1.022.121.073.052.153" transform="translate(-62.491 -184.953)" fill="#010101"/>
        <path id="Trazado_819926" data-name="Trazado 819926" d="M150.229,103.569c-.053,0-.092-.007-.088-.072.074-.03.08.021.088.072" transform="translate(-118.662 -81.79)" fill="#010101"/>
        <path id="Trazado_819927" data-name="Trazado 819927" d="M81.328,208.694c-.03-.082.018-.1.085-.107a.093.093,0,0,1-.085.107" transform="translate(-64.269 -164.854)" fill="#010101"/>
        <path id="Trazado_819928" data-name="Trazado 819928" d="M86.3,246.335v-.106c.034.005.073.01.073.053s-.04.047-.073.054" transform="translate(-68.203 -194.604)" fill="#010101"/>
        <path id="Trazado_819929" data-name="Trazado 819929" d="M134.635,118.681l-.017-.049a.218.218,0,0,1,.027.03s-.006.012-.01.019" transform="translate(-106.393 -93.759)" fill="#010101"/>
        <path id="Trazado_819930" data-name="Trazado 819930" d="M178.524,164.048c-.009-.035.011-.047.041-.048l-.041.048" transform="translate(-141.092 -129.615)" fill="#010101"/>
        <path id="Trazado_819931" data-name="Trazado 819931" d="M190.039,160.31c-.027,0-.045-.015-.041-.046l.041.046" transform="translate(-150.162 -126.662)" fill="#010101"/>
        <path id="Trazado_819932" data-name="Trazado 819932" d="M54.249,191.409a.05.05,0,0,1,0,.049.185.185,0,0,1-.011-.036s.01-.009.016-.013" transform="translate(-42.862 -151.277)" fill="#010101"/>
        <path id="Trazado_819933" data-name="Trazado 819933" d="M109.761,126.578l.03-.07-.03.07" transform="translate(-86.748 -99.984)" fill="#010101"/>
        <path id="Trazado_819934" data-name="Trazado 819934" d="M83.285,207.649a.043.043,0,0,1,.047-.01l-.047.01" transform="translate(-65.823 -164.103)" fill="#010101"/>
        <path id="Trazado_819935" data-name="Trazado 819935" d="M82.26,207.954c.008-.025.017-.049.051-.033l-.051.033" transform="translate(-65.013 -164.323)" fill="#010101"/>
        <path id="Trazado_819936" data-name="Trazado 819936" d="M133.87,116.692l-.021-.048a.259.259,0,0,1,.03.028s-.006.013-.01.019" transform="translate(-105.786 -92.188)" fill="#010101"/>
        <path id="Trazado_819937" data-name="Trazado 819937" d="M117.676,92.287c.036-.015.042.007.044.035l-.044-.035" transform="translate(-93.003 -72.934)" fill="#010101"/>
        <path id="Trazado_819938" data-name="Trazado 819938" d="M78.616,231.831c-.029,0-.049-.016-.043-.05l.043.05" transform="translate(-62.098 -183.185)" fill="#010101"/>
        <path id="Trazado_819939" data-name="Trazado 819939" d="M80.141,237.32c-.024,0-.048-.01-.031-.044l.031.044" transform="translate(-63.309 -187.528)" fill="#010101"/>
        <path id="Trazado_819940" data-name="Trazado 819940" d="M80.367,237.812c-.03,0-.05-.012-.04-.047l.04.047" transform="translate(-63.483 -187.914)" fill="#010101"/>
        <path id="Trazado_819941" data-name="Trazado 819941" d="M222.812,89.458a1.756,1.756,0,0,1,2.312,1.618,1.664,1.664,0,0,1-1.008,1.7,1.47,1.47,0,0,1-1.2.1,1.091,1.091,0,0,1,.159-.539,2.674,2.674,0,0,0,.146-1.989c-.1-.315-.3-.575-.4-.884" transform="translate(-176.096 -70.636)" fill="#6e6e6e"/>
        <path id="Trazado_819942" data-name="Trazado 819942" d="M218.1,89.771c.1.309.306.569.4.884a2.674,2.674,0,0,1-.146,1.989,1.091,1.091,0,0,0-.159.539,1.818,1.818,0,0,1-1.35-1.763,1.794,1.794,0,0,1,1.25-1.65" transform="translate(-171.385 -70.949)" fill="#539586"/>
        <path id="Trazado_819943" data-name="Trazado 819943" d="M237.1,77.061a2.459,2.459,0,0,1-1.291,1.9c-.11.073-.2.042-.281-.075a3.651,3.651,0,0,0-.843-.843c-.107-.082-.125-.127-.046-.242a2.851,2.851,0,0,1,1.769-1.3c.465-.1.705.077.692.555" transform="translate(-185.404 -60.444)" fill="#f8f9fb"/>
        <path id="Trazado_819944" data-name="Trazado 819944" d="M204.8,76.769a2.055,2.055,0,0,1,.957.358,4.45,4.45,0,0,1,.893.942c.067.085.055.146-.038.212a4.072,4.072,0,0,0-.87.857c-.11.144-.2.146-.342.035a3.78,3.78,0,0,1-1.064-1.2,1.872,1.872,0,0,1-.19-.652c-.045-.408.106-.554.654-.554" transform="translate(-161.337 -60.673)" fill="#f8f9fb"/>
        <path id="Trazado_819945" data-name="Trazado 819945" d="M180.441,21.422a1.7,1.7,0,0,1,2.251,1.6,2.268,2.268,0,0,1-.043.7,1.749,1.749,0,0,1-2.207,1.1.47.47,0,0,1,.107-.286,2.444,2.444,0,0,0,.408-1.472,2.694,2.694,0,0,0-.438-1.369.5.5,0,0,1-.078-.267" transform="translate(-142.609 -16.872)" fill="#6e6e6e"/>
        <path id="Trazado_819946" data-name="Trazado 819946" d="M175.681,21.7a.5.5,0,0,0,.078.267,2.694,2.694,0,0,1,.438,1.369,2.444,2.444,0,0,1-.408,1.472.47.47,0,0,0-.107.286,1.771,1.771,0,0,1,0-3.394" transform="translate(-137.849 -17.152)" fill="#539586"/>
        <path id="Trazado_819947" data-name="Trazado 819947" d="M161.834,8.51a2.42,2.42,0,0,1,1.948,1.005c.313.418.311.414-.061.753a4.13,4.13,0,0,0-.64.683c-.074.107-.138.121-.252.049a2.842,2.842,0,0,1-1.338-1.858c-.074-.343.152-.631.343-.632" transform="translate(-127.62 -6.726)" fill="#f8f9fb"/>
        <path id="Trazado_819948" data-name="Trazado 819948" d="M193.921,8.721c.264,0,.532-.066.585.274a1.152,1.152,0,0,1,0,.338,2.731,2.731,0,0,1-1.34,1.842c-.076.053-.124.04-.17-.027a4.063,4.063,0,0,0-.987-.987c-.051-.036-.085-.067-.026-.144a3.643,3.643,0,0,1,1.3-1.17,1.2,1.2,0,0,1,.636-.127" transform="translate(-151.705 -6.888)" fill="#f8f9fb"/>
        <path id="Trazado_819949" data-name="Trazado 819949" d="M39.549,72.573a1.765,1.765,0,0,1,2.267.939,2.359,2.359,0,0,1,.137,1.022,1.771,1.771,0,0,1-1.487,1.441,1.877,1.877,0,0,1-.922-.09,2.215,2.215,0,0,0,.624-1.844,2.269,2.269,0,0,0-.62-1.469" transform="translate(-31.253 -57.27)" fill="#6e6e6e"/>
        <path id="Trazado_819950" data-name="Trazado 819950" d="M35.14,72.988a2.269,2.269,0,0,1,.62,1.469,2.215,2.215,0,0,1-.624,1.844,1.785,1.785,0,0,1-.753-2.818,1.244,1.244,0,0,1,.757-.494" transform="translate(-26.845 -57.685)" fill="#539586"/>
        <path id="Trazado_819951" data-name="Trazado 819951" d="M21.725,59.552a2.434,2.434,0,0,1,1.967,1.305.191.191,0,0,1-.076.285,2.984,2.984,0,0,0-.843.842c-.084.129-.154.107-.275.025a2.791,2.791,0,0,1-1.187-1.532,1.856,1.856,0,0,1-.092-.392.463.463,0,0,1,.506-.534" transform="translate(-16.769 -47.066)" fill="#f8f9fb"/>
        <path id="Trazado_819952" data-name="Trazado 819952" d="M54.108,60.124a1.526,1.526,0,0,1-.33,1.015,3.485,3.485,0,0,1-.9.86.184.184,0,0,1-.3-.052,3.139,3.139,0,0,0-.919-.871c-.086-.051-.06-.106-.021-.166a2.716,2.716,0,0,1,1.825-1.331c.39-.069.744.03.649.545" transform="translate(-40.78 -47.073)" fill="#f8f9fb"/>
        <path id="Trazado_819953" data-name="Trazado 819953" d="M95.058,160.1a.857.857,0,0,1-.26-.636c.016-.587,0-1.176-.01-1.763,0-.045-.026-.043-.057-.023-.5,0-.991.017-1.487,0-.205-.005-.252.065-.24.254.013.225-.007.451-.011.677-.008.462-.361.684-.685.881-.119.072-.367-.011-.549-.117a.942.942,0,0,1-.517-.868c0-.26.084-.592-.044-.759s-.486-.046-.742-.063c-.633-.042-1.016-.4-.995-.935a.894.894,0,0,1,.819-.83,6.246,6.246,0,0,1,.73,0c.212.015.263-.074.227-.258,0-.019,0-.037,0-.056,0-.5,0-.992.01-1.488a.836.836,0,0,1,.8-.867.89.89,0,0,1,.929.8c.074.607,0,1.216.039,1.824a.045.045,0,0,0,.059.036l1.54.009c.107,0,.169.017.169-.162a2.543,2.543,0,0,1,.1-1.127.832.832,0,0,1,.909-.484.9.9,0,0,1,.74.683,8.567,8.567,0,0,1,.047,1.04c.017.056.058.053.1.043.278,0,.556,0,.833.011a.877.877,0,0,1,.138,1.722,3.12,3.12,0,0,1-.856.04c-.191-.006-.233.062-.229.239.011.495.01.99,0,1.485a.943.943,0,0,1-.978.957.85.85,0,0,1-.481-.22l-.052-.042" transform="translate(-70.704 -121.114)"/>
        <path id="Trazado_819954" data-name="Trazado 819954" d="M150.687,187.377a.817.817,0,0,1,.812.456.753.753,0,0,1-.056.881,6.439,6.439,0,0,1-1.084,1.088.805.805,0,0,1-1.129-.094.853.853,0,0,1-.044-1.163c.308-.342.643-.661.979-.976a.64.64,0,0,1,.522-.193" transform="translate(-117.742 -148.086)" fill="#010101"/>
        <path id="Trazado_819955" data-name="Trazado 819955" d="M104.8,218.746a.859.859,0,0,1-1.278.773,4.621,4.621,0,0,1-1.213-1.2.78.78,0,0,1,.149-1.033.763.763,0,0,1,1.018-.133,5.741,5.741,0,0,1,1.214,1.2.58.58,0,0,1,.11.392" transform="translate(-80.75 -171.511)" fill="#010101"/>
        <path id="Trazado_819956" data-name="Trazado 819956" d="M161.775,129.076a2.074,2.074,0,0,1,.064-.817c.186-.386.46-.508,1-.451a.818.818,0,0,1,.648.637,3.417,3.417,0,0,1,.013,1.245.87.87,0,0,1-1.72.012c-.01-.208,0-.417,0-.626" transform="translate(-127.85 -101.001)" fill="#010101"/>
        <path id="Trazado_819957" data-name="Trazado 819957" d="M123.514,165.768c-.045.01-.086.014-.1-.043l.1.043" transform="translate(-97.536 -130.978)" fill="#3a685c"/>
        <path id="Trazado_819958" data-name="Trazado 819958" d="M97.872,164.479c0,.019,0,.037,0,.056a.225.225,0,0,1-.017-.039s.01-.011.015-.017" transform="translate(-77.34 -129.994)" fill="#3a685c"/>
        <path id="Trazado_819959" data-name="Trazado 819959" d="M106.485,165.782a.044.044,0,0,1-.059-.036l.059.036" transform="translate(-84.112 -130.995)" fill="#3a685c"/>
        <path id="Trazado_819960" data-name="Trazado 819960" d="M114.6,174.316c.03-.02.053-.022.057.023l-.057-.023" transform="translate(-90.572 -137.758)" fill="#3a685c"/>
        <path id="Trazado_819961" data-name="Trazado 819961" d="M116.157,185.923l.052.042c-.033.006-.046-.014-.052-.042" transform="translate(-91.803 -146.941)" fill="#010101"/>
      </g>
    </g>
  </g>
</svg>
