<svg xmlns="http://www.w3.org/2000/svg" xmlns:xlink="http://www.w3.org/1999/xlink" width="190" height="190" viewBox="0 0 190 190">
  <defs>
    <clipPath id="clip-path">
      <rect id="Rect치ngulo_377569" data-name="Rect치ngulo 377569" width="190" height="190" transform="translate(1125 2520.811)" fill="#fff" stroke="#707070" stroke-width="1"/>
    </clipPath>
    <clipPath id="clip-path-2">
      <rect id="Rect치ngulo_377574" data-name="Rect치ngulo 377574" width="170.667" height="170.294" fill="none"/>
    </clipPath>
  </defs>
  <g id="Enmascarar_grupo_347" data-name="Enmascarar grupo 347" transform="translate(-1125 -2520.811)" clip-path="url(#clip-path)">
    <g id="Grupo_1073307" data-name="Grupo 1073307" transform="translate(1135 2530.811)">
      <g id="Grupo_1073306" data-name="Grupo 1073306" clip-path="url(#clip-path-2)">
        <path id="Trazado_820698" data-name="Trazado 820698" d="M28.455,113.542c-2.162-.562-2.921-1.709-2.881-3.816a65.74,65.74,0,0,1,1.137-10.31,50.14,50.14,0,0,1,2.664-9.466,59.277,59.277,0,0,1,9.007-15.841,65.491,65.491,0,0,1,9.372-9.49,1.806,1.806,0,0,0,.619-1.563q-.02-18.436-.026-36.873a3.428,3.428,0,0,1,.867-2.4,3.174,3.174,0,0,0,.752-1.94c.034-.459-.143-.594-.563-.422-.136.056-.262.136-.4.2-2.41,1.119-4.407.6-6.319-1.341-.272-.275-.376-.226-.626-.033-.531.412-.747,1.057-1.2,1.53-.234.248.006.461.191.611a11.54,11.54,0,0,1,4,6.111A11.059,11.059,0,0,1,45.2,32.94c-.564,4.082-2.927,6.8-6.5,8.616-.262.133-.537.241-.9.4a11.877,11.877,0,0,1,3.083,3.34,10.936,10.936,0,0,1,1.468,7.442,10.216,10.216,0,0,1-4.332,7.336,2.577,2.577,0,0,0-1.234,2.59,7.433,7.433,0,0,1-2.435,5.754,1.424,1.424,0,0,0-.441,1.393,8.186,8.186,0,0,1-4.4,8.615,9.228,9.228,0,0,1-3.864,1.043c-.327.024-.492.071-.612.45a11.264,11.264,0,0,1-2.659,4.441.808.808,0,0,0-.186.976c.929,3.185.465,6.225-1.916,8.536A8.3,8.3,0,0,1,7.214,92.659,7.4,7.4,0,0,1,6.122,85.54a1.376,1.376,0,0,0-.363-1.507,10.955,10.955,0,0,1-2.9-8.236,10.682,10.682,0,0,1,3.451-7.115,1.359,1.359,0,0,0,.369-1.855,9.939,9.939,0,0,1-.994-5.156,1.26,1.26,0,0,0-.663-1.257A10.926,10.926,0,0,1,.185,52.8c-.653-3.4.475-6.322,2.572-8.949A3.072,3.072,0,0,1,6.2,42.75c1.907,1.487,2.058,2.347.988,4.508-.239.484-.566.9-.8,1.368a5.217,5.217,0,0,0,1.043,6.314,9.979,9.979,0,0,0,2.66,1.734,2.92,2.92,0,0,1,1.721,3.565,9.57,9.57,0,0,0-.363,2.778,7.528,7.528,0,0,0,1.955,3.7,2.975,2.975,0,0,1-.263,4.017c-.7.722-1.687.979-2.424,1.622A5.4,5.4,0,0,0,8.66,77.413a5.962,5.962,0,0,0,2.482,3.841c2.073,1.68,2.285,2.807.862,5.063a3.277,3.277,0,0,0-.606,1.73,3.106,3.106,0,0,0,2.1,2.62,2.6,2.6,0,0,0,2.83-.972,2.4,2.4,0,0,0,.251-3.022c-.213-.388-.468-.754-.667-1.148a2.7,2.7,0,0,1,.789-3.681,7.2,7.2,0,0,0,3.124-4.835,7.824,7.824,0,0,1,.29-2.443c1.25-1.593,2.208-1.855,4.093-1.114a2.726,2.726,0,0,0,1.8.256,2.962,2.962,0,0,0,2.019-4.246c-.9-2.336-.568-3.239,1.656-4.458a2.679,2.679,0,0,0,.923-.809,3.472,3.472,0,0,0,.154-3.529,2.739,2.739,0,0,1,1.329-3.8c.3-.17.644-.278.959-.432,2.224-1.094,3.9-2.8,3.729-5.614a5.626,5.626,0,0,0-3.889-5.183,2.838,2.838,0,0,1-2.1-3.343c.134-.784.3-1.563.466-2.341.455-2.134,1.07-2.689,3.216-3.035a5.861,5.861,0,0,0,4.8-3.615,5.7,5.7,0,0,0-2.758-7.229,3.378,3.378,0,0,1-1.777-4.525,6.847,6.847,0,0,1,.714-1.518c.826-1.294,1.667-2.582,2.563-3.829a5.155,5.155,0,0,1,8.2-.581c.584.683,1.084.9,1.87.514a3.737,3.737,0,0,1,.59-.192c3.884-1.148,6.978,1.127,6.989,5.139,0,1.8,0,1.791,1.929,1.671a.679.679,0,0,0,.729-.6,35.25,35.25,0,0,0,1.277-9.164,5.492,5.492,0,0,0-7.487-5.036c-1.277.533-2.45,1.308-3.7,1.918a6.343,6.343,0,0,1-6.638-.483c-.99-.648-1.98-1.3-2.978-1.931-.292-.186-.68-.455-.91,0a10.429,10.429,0,0,1-1.666,1.882,5.792,5.792,0,0,1-4.6,2.037,22.9,22.9,0,0,1-9.061-1.818c-.867-.354-1.649-1.062-2.7-.857-1.734-.045-2.482,1.086-2.761,2.648a3.229,3.229,0,0,1-2.842,2.919c-1.7.317-2.591,1.167-2.769,2.568a6.331,6.331,0,0,0,.453,2.4,2.79,2.79,0,0,1-.3,2.6A5.94,5.94,0,0,1,9.162,23.3a5.872,5.872,0,0,0-3.446,5.486,4.867,4.867,0,0,0,1.536,3.275,18.085,18.085,0,0,1,1.7,1.684,2.645,2.645,0,0,1,.314,3.064,2.527,2.527,0,0,1-2.44,1.546c-.376-.006-.749-.2-1.127-.029-.051-.312-.338-.383-.548-.534A12.479,12.479,0,0,1,.619,31.79C-1.154,27.053,1.213,21.709,5,19.153a1.517,1.517,0,0,0,.686-1.536,8.447,8.447,0,0,1,4.89-8.109A3.451,3.451,0,0,0,12.291,7.8,8.371,8.371,0,0,1,23.665,3.879a18.93,18.93,0,0,0,7.973,1.852,1.152,1.152,0,0,0,1.134-.61,6.546,6.546,0,0,1,6.068-3.293c2.067.114,3.686,1.276,5.224,2.516,1.235,1,1.285,1.008,2.475.221a13.435,13.435,0,0,1,5.268-2.446c4.435-.688,8.236.379,11.068,4.092A8.439,8.439,0,0,1,64.2,8.323a14.98,14.98,0,0,1,1.116,7.236,65.607,65.607,0,0,1-1.262,7.022.7.7,0,0,0,.185.8,3.945,3.945,0,0,1,1.185,3.244c.045,5.966.033,11.934,0,17.9,0,.7.107.981.892.935a36.57,36.57,0,0,1,3.911,0c.727.035.93-.146.926-.9-.036-6.085-.009-12.17-.031-18.255a3.271,3.271,0,0,1,.824-2.487,1.216,1.216,0,0,0,.212-1.244,16.389,16.389,0,0,1-.083-7.36A18.159,18.159,0,0,1,87.16,1.2c2.475-.41,4.955-.775,7.462-1a78.008,78.008,0,0,1,9.564-.107c3.166.107,6.411.137,9.423,1.23a5.532,5.532,0,0,0,4.664-.341A9.58,9.58,0,0,1,125.55.707c1.218.417,2.637.71,3.556,1.848a1.211,1.211,0,0,0,1.141.325,3.225,3.225,0,0,1,3.5,3.552c-.451.588-.66,1.438-1.5,1.613a19.084,19.084,0,0,1-2.386.675,3.427,3.427,0,0,1-2.921-.873,6.429,6.429,0,0,0-5.154-1.956,8.4,8.4,0,0,0-3.624,1.542,3.082,3.082,0,0,1-2.6.32,32.758,32.758,0,0,0-6.909-1.593,14.342,14.342,0,0,0-3.767-.4c-5.584-.124-11.157-.146-16.685,1.007-5.08,1.059-8.652,3.7-10.273,8.713a14.114,14.114,0,0,0-.174,6.633c.078.5.46.634.922.631.86-.006,1.721-.036,2.578.01a1.169,1.169,0,0,0,1.24-.778c.384-.8.821-1.568,1.24-2.349a9.275,9.275,0,0,1,5.252-4.879,15.618,15.618,0,0,1,5.446-.5,9.1,9.1,0,0,1,6.117,2.627c1.195,1.134,2.358,2.3,3.513,3.479a4.354,4.354,0,0,0,4.489,1.316,7.551,7.551,0,0,1,6.645,1.361c1.818,1.423,3,2.872,2.045,5.464a7.9,7.9,0,0,0-.4,3.99,8.87,8.87,0,0,0,6.371,6.978,10.691,10.691,0,0,0,4.209.016,2.873,2.873,0,0,1,3.5,2.8,7.32,7.32,0,0,0,.187,1.4,5.671,5.671,0,0,0,3.948,4.315c2.471.793,3.078,1.4,2.98,3.455a4.765,4.765,0,0,1-.433,1.609,8.5,8.5,0,0,0-.545,5.969A8.57,8.57,0,0,0,147.1,65.03c2.05-.458,3.091.063,4.032,1.929.08.158.157.317.238.475,1.745,3.423,5.863,4.816,9.071,1.777a5.126,5.126,0,0,0,1.624-4.624,3.472,3.472,0,0,0-.71-2.144c-1.353-2.182-1.255-3.116.524-4.888.273-.272.556-.534.816-.817a8.13,8.13,0,0,0,2.155-4.514A8.841,8.841,0,0,0,159.32,43.1a8.37,8.37,0,0,1-.974-.427,2.655,2.655,0,0,1-.986-4.052c.343-.517.757-.991,1.065-1.526a5.528,5.528,0,0,0-3.852-8.438c-2.486-.292-3.6-1.454-4.561-3.663a5.94,5.94,0,0,1,.13-5.616,5.487,5.487,0,0,0-5.381-7.85A11.761,11.761,0,0,0,141.29,12.8a2.828,2.828,0,0,1-4.071-2.306c-.106-.8.439-1.381.626-2.079A16.867,16.867,0,0,1,142.211,6.2c6.014-1.893,12.621,2.487,13.811,8.01a12.074,12.074,0,0,1-.694,7.684c-.4.892-.348,1,.643,1.2a10.6,10.6,0,0,1,6.655,4.188A10.808,10.808,0,0,1,163.89,38.7c-.186.427.083.485.327.645a13.861,13.861,0,0,1,5.734,7.407,13.687,13.687,0,0,1-.728,10.483,14.858,14.858,0,0,1-2.121,3.133.6.6,0,0,0-.149.747,11.154,11.154,0,0,1-6.5,14.725,11.643,11.643,0,0,1-3.95.658,10.921,10.921,0,0,1-8.834-4.272,1.523,1.523,0,0,1-.353-.5c-.2-.723-.724-.828-1.358-.794a14.077,14.077,0,0,1-13.648-8.148,14.671,14.671,0,0,1-1.386-7.038,9.763,9.763,0,0,1,.423-2.459.684.684,0,0,0-.367-.923,11.608,11.608,0,0,1-5.184-6.455.617.617,0,0,0-.707-.478,14.165,14.165,0,0,1-6.2-1.554,13.956,13.956,0,0,1-5.8-5.375,13.789,13.789,0,0,1-2.09-7.816c.032-.922.238-1.838.357-2.758.1-.75-.3-.823-.951-.814-1.123.015-2.187.374-3.3.428a7.861,7.861,0,0,1-5.974-2.255c-1.575-1.474-3.017-3.086-4.732-4.416a3.743,3.743,0,0,0-1.776-.859A13.887,13.887,0,0,0,91,19.962c-1.14.128-1.7,1.119-2.264,2.012-.046.073-.042.185-.1.245-1.178,1.269-.729,2.757-.527,4.188a7.576,7.576,0,0,1,.1,1.04c.006,5.7.021,11.4-.016,17.106,0,.757.2.917.927.907a6.9,6.9,0,0,1,2.663.223,4.356,4.356,0,0,1,1.608,1c1.642,1.621,3.335,3.2,4.88,4.908a7.328,7.328,0,0,0,3.888,2.146,51.984,51.984,0,0,1,13.32,5.651,58.822,58.822,0,0,1,16.231,13.9,52.522,52.522,0,0,1,4.189,5.858,8.2,8.2,0,0,1,.9,1.552c.527,1.574,1.85,1.922,3.222,2.331a10.8,10.8,0,0,1,7.171,6.8c.208.527-.04,1.12.225,1.642-.049.105-.1.209-.147.317a2.772,2.772,0,0,1-2.393,1.852,2.6,2.6,0,0,1-2.63-1.455c-.135-.228-.235-.476-.366-.706a5.81,5.81,0,0,0-5.349-3.338c-2.736.051-4.4,1.627-5.4,4.025-.968,2.3-2.135,2.818-4.48,1.946a3.032,3.032,0,0,0-2.571,0,3.824,3.824,0,0,0-1.575,1.748,2.844,2.844,0,0,1-3.128,1.511,8.447,8.447,0,0,1-1.276-.359,2.639,2.639,0,0,0-2.992.181,2.557,2.557,0,0,0-1.108,2.537,2.836,2.836,0,0,0,2.965,2.393,3.722,3.722,0,0,1,3.15,1.651,2.989,2.989,0,0,0,.542.573,2.837,2.837,0,0,0,4.339-.95c1.109-1.8,5.284-1.617,6.077.248a7.627,7.627,0,0,0,.947,1.6,5.417,5.417,0,0,0,5.676,2.412,7.683,7.683,0,0,0,3.556-2.074,2.7,2.7,0,0,1,2.579-.776c1.4.334,2.8.448,3.706-1.025a3.316,3.316,0,0,1,3.115-1.645,2.915,2.915,0,0,0,2.652-1.646,2.4,2.4,0,0,0-.266-2.728,5.748,5.748,0,0,0-1.289-1.452,8.943,8.943,0,0,1-.576-2.3c.638-.786,1.085-1.763,2.269-1.951a2.99,2.99,0,0,1,2.372.492,8.463,8.463,0,0,1-1.113,14.3,8.807,8.807,0,0,1-2.69.831,1.593,1.593,0,0,0-.937.418,8.517,8.517,0,0,1-6.261,2.579c-1.171.032-1.859.892-2.736,1.435a2.65,2.65,0,0,0-1,.342,10.918,10.918,0,0,1-6.812.748,11.78,11.78,0,0,1-5.914-3.357c-.742-.793-1.134-.781-1.947-.34a7.07,7.07,0,0,1-3.838,1.16,8.392,8.392,0,0,1-6-2.463c-.453-.5-.833-.542-1.335-.057-2.654,2.563-5.314,5.12-8.1,7.547-.585.51-.66.919-.039,1.508,1.608,1.526,3.153,3.12,4.729,4.68,2.186,2.164,2.221,2.3,1.127,5.036-.4.166-.814.317-1.209.5a2.3,2.3,0,0,1-2.652-.508c-2.458-2.335-4.846-4.743-7.225-7.161a8.985,8.985,0,0,1-2.013-2.309,2.13,2.13,0,0,1-.045-2.21,18.835,18.835,0,0,1,2.585-2.617c2.111-2.172,4.5-4.043,6.586-6.234.424-.446,1.238-.576,1.317-1.238s-.634-1.073-.946-1.628a10.482,10.482,0,0,1-1.284-3.429,9.27,9.27,0,0,1,5.408-8.546,10.306,10.306,0,0,1,4.606-.508,1.221,1.221,0,0,0,1.011-.373,8.052,8.052,0,0,1,6.059-2.5,2.263,2.263,0,0,0,2.195-1.028,9.1,9.1,0,0,1,4.081-3.469c.6-.26.376-.65.128-1-1.336-1.9-2.62-3.834-4.041-5.666a54.639,54.639,0,0,0-6.84-7.086A26.794,26.794,0,0,0,115.21,66a2.158,2.158,0,0,0-.723-.747,64.774,64.774,0,0,0-8.332-4.335c-.719-.317-.89-.223-.88.561.033,2.864.078,5.731-.007,8.593-.069,2.347-.89,3.722-3.725,3.724q-24.714.018-49.428.014c-1.527,0-2.812-.416-3.5-1.849-.332-.694-.549-.391-.853-.079-1.43,1.465-2.877,2.909-4.18,4.5A56.974,56.974,0,0,0,35.5,89.545a1.582,1.582,0,0,0,.43,2.079c2.774,2.7,5.475,5.481,8.26,8.173a3.332,3.332,0,0,1,.89,3.912c-1.336,3.8-2.862,7.549-2.436,11.751.218,2.148-.692,3.139-2.8,3.8a2.932,2.932,0,0,1-2.8-2.647,20.628,20.628,0,0,1,.222-6.953c.552-1.97,1.28-3.89,1.924-5.834a1.223,1.223,0,0,0-.211-1.448c-1.855-1.776-3.594-3.669-5.527-5.363-.123-.108-.179-.416-.442-.255a.6.6,0,0,0-.258.536c-.028,1.493-.659,2.872-.824,4.343-.154,1.374-.488,2.731-.593,4.108s.055,2.778-.043,4.157c-.139,1.961-.342,2.949-2.834,3.638M76.994,68.136c7.26,0,14.52-.009,21.78.014.648,0,.865-.139.848-.822-.048-1.889-.027-3.78,0-5.67A1.9,1.9,0,0,0,99,60.175q-4.521-4.5-8.988-9.043a.665.665,0,0,0-.786-.174,2.717,2.717,0,0,1-1.218.13Q72.8,51.1,57.592,51.1c-1.008,0-2.015,0-3.022,0-.278,0-.633.014-.5.389a6.163,6.163,0,0,1-.041,2.148c.042,4.223.021,8.446.021,12.67,0,1.83,0,1.83,1.877,1.83H76.994m2.671-22.722c.741,0,1.483-.021,2.222.008.448.017.628-.107.621-.59q-.032-2.214.021-4.43c.012-.5-.142-.663-.649-.65-1.482.036-2.963.033-4.446.025-.384,0-.6.056-.595.522.023,1.536.018,3.072,0,4.608,0,.381.124.524.512.514.77-.021,1.541-.006,2.311-.006M54.078,42.6c0,.768.014,1.536-.006,2.3-.009.376.115.522.507.519,1.541-.016,3.082-.014,4.623,0,.364,0,.534-.092.532-.495q-.016-2.3.021-4.607c.007-.416-.122-.57-.553-.562q-2.311.038-4.623.021c-.392,0-.517.142-.507.519.019.767.006,1.536.006,2.3m25.506-8.531v.021c.769,0,1.539-.03,2.306.011.522.027.646-.174.638-.66-.027-1.473-.024-2.948,0-4.421.007-.451-.116-.623-.595-.612-1.507.033-3.016.035-4.524.023-.413,0-.574.115-.569.547.021,1.5.025,3.007,0,4.51-.009.48.169.608.618.59.708-.029,1.419-.008,2.129-.008m-22.758,0v.02c.8,0,1.6-.011,2.4.006.359.007.537-.083.533-.489q-.025-2.343,0-4.687c0-.386-.134-.513-.515-.507-1.538.021-3.076.031-4.614.018-.426,0-.561.14-.557.559.019,1.5.026,3.007,0,4.51-.009.495.2.594.63.578.709-.026,1.42-.007,2.129-.007" transform="translate(0 0)" fill="#272727"/>
        <path id="Trazado_820699" data-name="Trazado 820699" d="M142.708,156.063a12.109,12.109,0,0,1,5.9,2.34,3.474,3.474,0,0,0,2.136.534,9.847,9.847,0,0,1,6.383,2.336c.741.594,1.638.251,2.442.491,1.651.495,3.333.046,5,0a8.315,8.315,0,0,1,7.762,6.137c.939,3.757-.283,6.677-3.219,9.063a8.69,8.69,0,0,1-4.056,1.624,1.894,1.894,0,0,0-1.682,1.116,8.187,8.187,0,0,1-4.787,4.066,7.168,7.168,0,0,1-4.918.179c-.8-.275-1.1.2-1.087.864a5.909,5.909,0,0,1-.959,2.592c-2.2,4.713-6.022,7.27-11.107,8.063a13.231,13.231,0,0,1-10.429-2.995,1.908,1.908,0,0,0-2.328-.391,7.409,7.409,0,0,1-6.781-.231,1.322,1.322,0,0,0-1.5.079,70.7,70.7,0,0,1-10.954,5.5,58.945,58.945,0,0,1-12.951,3.324,51.16,51.16,0,0,1-10.31.539,62.026,62.026,0,0,1-9.039-1.1,60.806,60.806,0,0,1-19.351-7.442,58.725,58.725,0,0,1-13.042-10.728,3.547,3.547,0,0,0-4.029-1.193,8.378,8.378,0,0,1-4.925.446.868.868,0,0,0-.941.3,8.19,8.19,0,0,1-11.871.293,1.876,1.876,0,0,0-1.909-.552,6.438,6.438,0,0,1-3.807-.308A11.427,11.427,0,0,1,8.2,172.359a9.752,9.752,0,0,1,.312-5.732,11.723,11.723,0,0,1,2.808-4.552,9.71,9.71,0,0,1,4.924-2.783c.463-.089.489-.479.66-.9A12.743,12.743,0,0,1,22.26,151.8a11.037,11.037,0,0,1,5.266-1.5,14.192,14.192,0,0,1,3.888.51,17.3,17.3,0,0,1,4.288,2.447,1.948,1.948,0,0,0,.451.848,9.684,9.684,0,0,1,2.558,4.323,1.363,1.363,0,0,0,1.1,1.013,9.08,9.08,0,0,1,5.033,3.3,6.41,6.41,0,0,0,3.473,2.538,2.6,2.6,0,0,0,1.953-.045,7.043,7.043,0,0,1,5.109-.423,4.019,4.019,0,0,0,3.452-.442c3.869-2.162,7.7-4.387,11.649-6.419,2.412-1.243,4.745-2.652,7.132-3.954.226-.123.567-.173.577-.484.012-.379-.369-.421-.627-.53-3.89-1.663-7.758-3.382-11.686-4.951a7.411,7.411,0,0,1-4.353-3.941c-2.4-5.136-5-10.177-7.6-15.216a2.421,2.421,0,0,1,.222-2.842q4.217-5.813,8.632-11.478a2.622,2.622,0,0,1,3.588-.623c2.078,1.154,4.244,2.131,6.344,3.244,2.338,1.239,4.753,2.34,7.118,3.54,2.1,1.067,4.246,2.055,6.338,3.145a.588.588,0,0,0,.843-.156c.7-.87,1.417-1.734,2.1-2.622q2.43-3.165,4.834-6.349a3.243,3.243,0,0,1,1.889-1.228q5.257-1.29,10.5-2.617,6.143-1.553,12.28-3.135c.317.043.637.08.954.131a2.663,2.663,0,0,1,2.059,2.364c.051,1.731-.725,2.676-2.588,3.138q-10.075,2.5-20.151,4.981a2.9,2.9,0,0,0-1.791,1.188c-.8,1.134-1.654,2.233-2.487,3.345-1.467,1.958-2.922,3.926-4.409,5.87-1.316,1.721-2.552,2-4.428,1.059-3.232-1.617-6.485-3.2-9.695-4.855s-6.519-3.1-9.629-4.94a.859.859,0,0,0-1.36.337c-1.472,2.241-3.146,4.338-4.788,6.453a1.66,1.66,0,0,0-.231,2.054q3.212,6.316,6.357,12.666a2.482,2.482,0,0,0,1.32,1.235c4.027,1.714,8.055,3.427,12.067,5.177a57.911,57.911,0,0,1,6.421,2.9,2.552,2.552,0,0,1,.325,4.166,17.916,17.916,0,0,1-2.549,1.627c-1.916,1.057-3.821,2.138-5.733,3.2q-5.921,3.294-11.845,6.586c-.174.1-.431.172-.429.406,0,.275.253.363.487.442,1.351.455,2.584,1.174,3.888,1.734,3.126,1.34,6.268,2.646,9.372,4.034,2.453,1.1,2.831,3.015,1.062,5.026q-5.828,6.624-11.668,13.237c-.682.774-.678.806.273,1.147a29.506,29.506,0,0,0,4.147,1.238c1.306.261,1.272.323,1.948-.858.292-.51.424-1.082.756-1.581a31.548,31.548,0,0,0,2.6-4.491,4.662,4.662,0,0,1,2.276-2.329c2.79-1.368,5.549-2.8,8.355-4.132a3.041,3.041,0,0,0,1.707-1.88,7.418,7.418,0,0,1,4.079-4.448,2.84,2.84,0,0,0,1.66-1.881,11.243,11.243,0,0,1,15.35-6.522,2.1,2.1,0,0,0,1.286.224,21.221,21.221,0,0,1,4.961-1.275,2.1,2.1,0,0,0,1.286-.865,14.034,14.034,0,0,1,13.326-4.451,1.221,1.221,0,0,0,1.186-.376,10.554,10.554,0,0,1,3.737-2.177,13.935,13.935,0,0,1,4.634-.6m-39.42,37.227a26.634,26.634,0,0,0,5.092-1.728,53.9,53.9,0,0,0,7.79-4.022c.2-.119.508-.2.5-.455-.016-.338-.395-.287-.622-.38a18.273,18.273,0,0,1-1.813-.7,1.983,1.983,0,0,0-1.927-.018,11.232,11.232,0,0,1-5.669,1.119c-.745-.071-1.327-.2-1.7.581-.95.539-1.869,1.148-2.858,1.6a6.917,6.917,0,0,1-5.871.057c0,1.775.009,3.447,0,5.119,0,.527.319.49.65.41,2.147-.522,4.291-1.055,6.437-1.586M50.664,171.738a3.52,3.52,0,0,1-2.523.171c-1.011-.792-1.961-1.71-3.348-1.788a3.326,3.326,0,0,1-3.02-1.98,6.494,6.494,0,0,0-5.1-3.676c-2.181-.384-2.8-1.03-3.115-3.2a5.807,5.807,0,0,0-7.3-4.979,5.9,5.9,0,0,0-4.087,5.15,3.038,3.038,0,0,1-3,3.015,6.991,6.991,0,0,0-3.2,1.21,5.032,5.032,0,0,0-1.929,5.664,4.555,4.555,0,0,0,2.506,3.606c1.635,1.045,3.36.838,5.124.408a2.969,2.969,0,0,1,3.644,1.46c1.191,2.23,3.832,2.466,5.127-.018A2.986,2.986,0,0,1,33,175.137a5.944,5.944,0,0,1,2.163.39,5.08,5.08,0,0,0,3.947-.426,3.765,3.765,0,0,1,4.449.213,2.493,2.493,0,0,0,3.328-.283,3.781,3.781,0,0,1,2.358-1.066,4.115,4.115,0,0,1,2.77,1.195,2.3,2.3,0,0,0,2.721.21,2.675,2.675,0,0,0,1.376-2.978,2.609,2.609,0,0,0-4.175-1.6c-.433.3-.848.633-1.271.951m49.785,6.527c-.881.418-1.911.342-2.769.857a2.836,2.836,0,0,0-1.388,2.578,2.564,2.564,0,0,0,2.088,2.431,2.935,2.935,0,0,0,3.226-1.45,3.209,3.209,0,0,1,2.033-1.712,5.192,5.192,0,0,1,2.371.145,5.831,5.831,0,0,0,5.406-1.1,2.663,2.663,0,0,1,3.363-.2,9.705,9.705,0,0,0,4.4,1.727,2.53,2.53,0,0,1,2.436,1.994,12.478,12.478,0,0,0,.728,2.255,1.832,1.832,0,0,0,1.125,1.034,2.864,2.864,0,0,0,3.511-.828,2.982,2.982,0,0,1,2.363-1.193c1.423.023,2.134,1.026,2.92,1.93a7.512,7.512,0,0,0,1.628,1.614c3.193,1.953,6.465,2.172,9.647.069a7.248,7.248,0,0,0,3.513-5.371,6.262,6.262,0,0,0,.3-3.222,4.152,4.152,0,0,1,2.725-3.861c1.206-.48,2.384-.046,3.471,1.274a3.148,3.148,0,0,0,.938.913,2.919,2.919,0,0,0,4.325-2.718c.084-2.49,1.758-3.672,4.123-2.912a6.548,6.548,0,0,1,.673.225c1.261.566,2.935-.5,3.39-1.508a2.733,2.733,0,0,0-1.049-3.4,2.782,2.782,0,0,0-2.718-.115,3.246,3.246,0,0,1-3.117-.016,2.651,2.651,0,0,0-2.078-.209,3.466,3.466,0,0,1-3.6-1.149,5.164,5.164,0,0,0-4.641-1.719,4.988,4.988,0,0,1-4.387-1.555,5.221,5.221,0,0,0-5.233-1.053,7.62,7.62,0,0,0-3.207,2.148,2.964,2.964,0,0,1-3.173,1.013c-3.824-1.275-7.575-.591-10.321,2.916a5.091,5.091,0,0,1-4.908,2.216,4.591,4.591,0,0,0-3.229,1.275,3.512,3.512,0,0,1-2.769.652,5.688,5.688,0,0,1-2.077-1.149,5.631,5.631,0,0,0-8.576,4.361,3.94,3.94,0,0,1-1.455,2.813m-49.738,2.849a52.979,52.979,0,0,0,11.848,8.434c.562.3.8-.012,1.106-.357q5.108-5.84,10.23-11.664c.458-.519.486-.789-.216-1.082q-5.526-2.314-11.026-4.692c-.561-.242-.67-.063-.621.45a8.191,8.191,0,0,1-.183,2.112c-.883,5.355-6.385,8.055-10.037,6.871a5.422,5.422,0,0,0-1.1-.073m39.77,9.813c0-1.24,0-2.481,0-3.721,0-1-.194-1.143-1.065-.72-1.541.749-3.067,1.527-4.6,2.289a3.2,3.2,0,0,0-1.4,1.317c-.865,1.545-1.684,3.117-2.683,4.582-.228.334-.111.485.191.582a2.874,2.874,0,0,0,.855.187c2.63,0,5.251.3,7.884.2.609-.023.846-.2.829-.821-.034-1.3-.01-2.6-.009-3.9" transform="translate(-2.282 -31.072)" fill="#272727"/>
        <path id="Trazado_820700" data-name="Trazado 820700" d="M181.865,10.794c-.187.7-.732,1.277-.626,2.08a2.828,2.828,0,0,0,4.071,2.305,11.8,11.8,0,0,1,3.472-1.272,5.488,5.488,0,0,1,5.381,7.85,5.94,5.94,0,0,0-.13,5.616c.961,2.208,2.075,3.371,4.561,3.662a5.528,5.528,0,0,1,3.852,8.439c-.307.535-.722,1.009-1.065,1.526a2.655,2.655,0,0,0,.986,4.052,8.245,8.245,0,0,0,.974.426,8.841,8.841,0,0,1,5.532,9.126,8.13,8.13,0,0,1-2.155,4.513c-.26.283-.544.544-.816.816-1.779,1.773-1.877,2.707-.524,4.888a3.474,3.474,0,0,1,.71,2.145,2.081,2.081,0,0,1-1.16-.4,9.122,9.122,0,0,1-3.7-4.16c-.287-.611-.587-.828-1.287-.675a9.837,9.837,0,0,1-8.112-1.763,16.96,16.96,0,0,1-3.3-3.316,10.214,10.214,0,0,1-2.164-6.408,9.385,9.385,0,0,1,1.277-4.549c.349-.633.255-.9-.487-1.094a8.808,8.808,0,0,1-6.527-7.362c-.179-1.276-.186-1.27-1.523-1.011a7.425,7.425,0,0,1-3.481-.138,13.5,13.5,0,0,1-5.692-3.607A10.152,10.152,0,0,1,167.105,21.3a1.536,1.536,0,0,0-.618-1.852,5.891,5.891,0,0,0-4.935-1.113,6.856,6.856,0,0,1-2.526.351c-2.734-.421-4.335-2.169-5.478-4.526a12.376,12.376,0,0,1-.885-5.62,32.756,32.756,0,0,1,6.909,1.593,3.08,3.08,0,0,0,2.6-.321A8.4,8.4,0,0,1,165.8,8.272a6.434,6.434,0,0,1,5.154,1.956,3.429,3.429,0,0,0,2.921.873,19.084,19.084,0,0,0,2.386-.675c.845-.174,1.053-1.026,1.5-1.613a6.079,6.079,0,0,1,4.1,1.981" transform="translate(-44.02 -2.38)" fill="#828889"/>
        <path id="Trazado_820701" data-name="Trazado 820701" d="M22.406,78.09a7.824,7.824,0,0,0-.29,2.443,7.2,7.2,0,0,1-3.125,4.835A2.7,2.7,0,0,0,18.2,89.05c.2.394.454.759.667,1.148a2.4,2.4,0,0,1-.251,3.021,2.6,2.6,0,0,1-2.829.972,3.108,3.108,0,0,1-2.1-2.62,3.278,3.278,0,0,1,.606-1.73c1.423-2.255,1.211-3.382-.863-5.063a5.959,5.959,0,0,1-2.481-3.841,5.4,5.4,0,0,1,2.053-5.063c.737-.643,1.728-.9,2.424-1.622a2.975,2.975,0,0,0,.263-4.017,7.528,7.528,0,0,1-1.955-3.7,9.594,9.594,0,0,1,.362-2.778A2.919,2.919,0,0,0,12.381,60.2a9.978,9.978,0,0,1-2.659-1.734,5.218,5.218,0,0,1-1.043-6.314c.237-.472.563-.884.8-1.368,1.07-2.161.919-3.021-.988-4.508a10.887,10.887,0,0,1-.5-4.42c.379-.174.752.023,1.127.029a2.528,2.528,0,0,0,2.441-1.546,2.645,2.645,0,0,0-.314-3.064,18.008,18.008,0,0,0-1.7-1.684A4.87,4.87,0,0,1,8.01,32.315a5.871,5.871,0,0,1,3.445-5.486,5.935,5.935,0,0,0,2.472-1.473,2.79,2.79,0,0,0,.3-2.6,6.331,6.331,0,0,1-.453-2.4c.178-1.4,1.074-2.25,2.768-2.568a3.23,3.23,0,0,0,2.843-2.919c.28-1.562,1.028-2.692,2.761-2.647a5.679,5.679,0,0,0,.507,2.136c.306.631.238.889-.472,1.139a7.611,7.611,0,0,0-3.551,2.266c-2.965,3.812-3.01,8.863,1.154,12.216a1.035,1.035,0,0,1,.366,1.49,7.106,7.106,0,0,0-.12,6.383,1.291,1.291,0,0,1-.395,1.868,7.418,7.418,0,0,0-1.644,1.714A8.319,8.319,0,0,0,21.94,53.913c.627.233.9.474.663,1.227a7.711,7.711,0,0,0,1.8,7.769c.495.564.562.8-.17,1.211-3.275,1.855-5.1,4.566-4.7,8.457a8.561,8.561,0,0,0,2.875,5.512" transform="translate(-2.294 -3.524)" fill="#525864"/>
        <path id="Trazado_820702" data-name="Trazado 820702" d="M183.641,168.669a13.972,13.972,0,0,0-4.634.6,10.563,10.563,0,0,0-3.737,2.176,1.221,1.221,0,0,1-1.186.378,14.032,14.032,0,0,0-13.326,4.451,2.106,2.106,0,0,1-1.286.865,21.22,21.22,0,0,0-4.961,1.274,2.894,2.894,0,0,1,.2-.944c.673-1.693,1.31-3.4,1.993-5.089a1.275,1.275,0,0,0-.539-1.8c1.093-2.731,1.059-2.871-1.128-5.036-1.576-1.56-3.121-3.153-4.729-4.68-.621-.589-.545-1,.039-1.508,2.783-2.426,5.443-4.984,8.1-7.547.5-.485.881-.44,1.334.058a8.4,8.4,0,0,0,6,2.462,7.067,7.067,0,0,0,3.839-1.16c.813-.44,1.2-.453,1.946.34a11.778,11.778,0,0,0,5.914,3.357,10.912,10.912,0,0,0,6.812-.748,2.665,2.665,0,0,1,1-.342,33.263,33.263,0,0,1-.408,6.228c-.273,2.252-.828,4.44-1.238,6.66" transform="translate(-43.215 -43.677)" fill="#bec716"/>
        <path id="Trazado_820703" data-name="Trazado 820703" d="M165.943,132.72a8.45,8.45,0,0,0,1.276.36,2.844,2.844,0,0,0,3.128-1.511,3.824,3.824,0,0,1,1.575-1.748,3.032,3.032,0,0,1,2.571,0c2.345.872,3.512.354,4.48-1.946,1.009-2.4,2.669-3.974,5.4-4.025a5.809,5.809,0,0,1,5.349,3.339c.132.229.231.477.366.705a2.6,2.6,0,0,0,2.63,1.455,2.772,2.772,0,0,0,2.393-1.852c.043-.108.1-.211.147-.317a4.854,4.854,0,0,1,2.041,1.574,2.834,2.834,0,0,0,1.712.954,8.949,8.949,0,0,0,.576,2.3c-1.538-.038-2.387,1.139-3.461,1.932a4.435,4.435,0,0,1-3.481,1,2.886,2.886,0,0,0-2.807.823,8.188,8.188,0,0,1-8.835,1.279,8.923,8.923,0,0,1-4.213-4.138,1.087,1.087,0,0,0-1.913-.311c-.28.262-.524.566-.818.811-2.183,1.815-4.639,2.2-7.066.554a1.976,1.976,0,0,1-1.055-1.24" transform="translate(-47.85 -35.713)" fill="#828889"/>
        <path id="Trazado_820704" data-name="Trazado 820704" d="M16.885,152.119a8.3,8.3,0,0,1-8.629,8.5,8.461,8.461,0,0,1-8.224-8.163,8.316,8.316,0,0,1,7.713-8.621c5.553-.048,9.149,3.269,9.14,8.284M8.529,154.69a3.532,3.532,0,0,0,1.385-.192,2.752,2.752,0,0,0,1.219-3.18,2.783,2.783,0,0,0-2.955-1.864,2.346,2.346,0,0,0-2.171,2.52,2.436,2.436,0,0,0,2.459,2.869c.029-.006.042-.1.063-.153" transform="translate(-0.007 -41.475)" fill="#272727"/>
        <path id="Trazado_820705" data-name="Trazado 820705" d="M44.949,161.376a17.272,17.272,0,0,0-4.288-2.447c-.158-1.81-.563-3.592-.619-5.414-.008-.263-.038-.524-.057-.787,2.492-.689,2.7-1.677,2.834-3.638.1-1.38-.062-2.778.043-4.157s.439-2.733.593-4.108c.165-1.472.8-2.85.824-4.343a.6.6,0,0,1,.258-.536c.263-.162.319.147.442.255,1.934,1.694,3.673,3.587,5.527,5.363a1.222,1.222,0,0,1,.211,1.448c-.644,1.944-1.372,3.864-1.924,5.834a20.646,20.646,0,0,0-.222,6.953,2.933,2.933,0,0,0,2.8,2.647c-.107.9.4,2.126-.236,2.608-.587.448-1.758.118-2.67.164a15.081,15.081,0,0,0-3.518.158" transform="translate(-11.53 -39.187)" fill="#3ba8e2"/>
        <path id="Trazado_820706" data-name="Trazado 820706" d="M136.256,153.649a1.275,1.275,0,0,1,.539,1.8c-.682,1.689-1.32,3.4-1.993,5.089a2.889,2.889,0,0,0-.195.943,2.093,2.093,0,0,1-1.287-.223,11.243,11.243,0,0,0-15.349,6.523,2.843,2.843,0,0,1-1.66,1.88,7.418,7.418,0,0,0-4.078,4.449,3.044,3.044,0,0,1-1.708,1.88c-2.806,1.333-5.565,2.764-8.355,4.132a4.665,4.665,0,0,0-2.276,2.329,31.549,31.549,0,0,1-2.6,4.491c-.332.5-.464,1.071-.756,1.581-.675,1.181-.642,1.119-1.948.858a29.441,29.441,0,0,1-4.147-1.238c-.951-.34-.955-.373-.273-1.146q5.835-6.617,11.668-13.237c1.769-2.01,1.391-3.928-1.062-5.025-3.1-1.389-6.245-2.7-9.372-4.035-1.3-.559-2.537-1.279-3.888-1.734-.234-.078-.484-.166-.487-.441,0-.233.256-.309.43-.406q5.919-3.3,11.844-6.586c1.913-1.064,3.817-2.144,5.733-3.2a17.882,17.882,0,0,0,2.549-1.628,2.552,2.552,0,0,0-.325-4.166,57.979,57.979,0,0,0-6.421-2.9c-4.012-1.751-8.04-3.463-12.067-5.177a2.483,2.483,0,0,1-1.32-1.236q-3.161-6.341-6.357-12.665a1.66,1.66,0,0,1,.231-2.054c1.642-2.116,3.316-4.212,4.789-6.454a.859.859,0,0,1,1.36-.337c3.109,1.837,6.423,3.283,9.628,4.94s6.462,3.238,9.695,4.854c1.877.939,3.112.663,4.428-1.058,1.487-1.944,2.941-3.911,4.409-5.87.833-1.112,1.685-2.211,2.487-3.345a2.906,2.906,0,0,1,1.791-1.188q10.08-2.473,20.151-4.981c1.863-.462,2.639-1.407,2.589-3.138a2.664,2.664,0,0,0-2.06-2.363c-.317-.052-.635-.088-.954-.131-.075-1.114-.4-2.2-.508-3.293-.165-1.692-.361-3.379-.549-5.068-.086-.766-.45-1.542-.063-2.326a26.794,26.794,0,0,1,5.456,3.895,54.735,54.735,0,0,1,6.84,7.086c1.42,1.832,2.7,3.769,4.04,5.666.249.353.471.742-.127,1a9.1,9.1,0,0,0-4.081,3.469,2.264,2.264,0,0,1-2.2,1.028,8.053,8.053,0,0,0-6.059,2.5,1.219,1.219,0,0,1-1.011.373,10.3,10.3,0,0,0-4.606.508,9.27,9.27,0,0,0-5.408,8.545,10.45,10.45,0,0,0,1.284,3.429c.311.554,1.026.953.945,1.628s-.892.792-1.317,1.238c-2.084,2.192-4.475,4.063-6.586,6.235a18.843,18.843,0,0,0-2.585,2.617,2.13,2.13,0,0,0,.045,2.21,9,9,0,0,0,2.013,2.309c2.378,2.417,4.766,4.826,7.225,7.161a2.3,2.3,0,0,0,2.651.508c.395-.184.806-.336,1.21-.5m-27.165-15.732a10.758,10.758,0,0,0,3.708-.342,14.677,14.677,0,0,0,9.609-7.284,2.667,2.667,0,0,0-2.442-4.073,3.025,3.025,0,0,0-2.276,1.319,10.864,10.864,0,0,1-2.464,2.764c-2.7,1.76-5.544,2.733-8.808,1.665-1.193-.391-3.377.84-3.575,1.885a3.651,3.651,0,0,0,2.416,3.528c1.3.282,2.565.838,3.832.539m8.218,10.991a6.017,6.017,0,0,0-1.217.157c-1.328.538-1.586,1.692-1.719,2.9a8.88,8.88,0,0,1-2.933,5.75,33.559,33.559,0,0,1-4.3,2.975,2.579,2.579,0,0,0-1.27,2.515,2.787,2.787,0,0,0,1.551,2.292,2.207,2.207,0,0,0,2.244-.02c1.6-.978,3.149-2.021,4.688-3.088a12.709,12.709,0,0,0,3.854-4.187,16.438,16.438,0,0,0,1.8-5.777c.262-1.68-1.144-3.819-2.7-3.517" transform="translate(-23.311 -26.742)" fill="#3ba8e2"/>
        <path id="Trazado_820707" data-name="Trazado 820707" d="M128.75,90.613c-.387.784-.023,1.559.063,2.326.189,1.689.384,3.376.549,5.068.107,1.1.433,2.178.508,3.293q-6.139,1.568-12.28,3.135-5.249,1.327-10.505,2.617a3.241,3.241,0,0,0-1.888,1.226q-2.41,3.18-4.834,6.349c-.682.887-1.4,1.751-2.1,2.622a.587.587,0,0,1-.843.156c-2.092-1.09-4.239-2.079-6.339-3.145-2.364-1.2-4.779-2.3-7.117-3.54-2.1-1.113-4.266-2.09-6.344-3.243a2.621,2.621,0,0,0-3.588.622q-4.414,5.666-8.633,11.477a2.421,2.421,0,0,0-.222,2.842c2.6,5.039,5.208,10.08,7.6,15.216a7.414,7.414,0,0,0,4.353,3.943c3.928,1.567,7.8,3.286,11.686,4.95.258.11.64.152.628.531-.011.312-.352.361-.577.484-2.388,1.3-4.721,2.711-7.133,3.954-3.945,2.032-7.78,4.257-11.648,6.418a4.023,4.023,0,0,1-3.453.443,7.045,7.045,0,0,0-5.108.421,2.6,2.6,0,0,1-1.953.045,6.4,6.4,0,0,1-3.474-2.538,9.073,9.073,0,0,0-5.032-3.3,1.367,1.367,0,0,1-1.1-1.013,9.681,9.681,0,0,0-2.557-4.324,1.954,1.954,0,0,1-.452-.848,15.049,15.049,0,0,1,3.518-.158c.912-.046,2.082.284,2.67-.164.633-.483.129-1.712.235-2.608,2.111-.66,3.021-1.651,2.8-3.8-.426-4.2,1.1-7.952,2.437-11.751a3.333,3.333,0,0,0-.891-3.913c-2.784-2.692-5.486-5.469-8.259-8.173a1.583,1.583,0,0,1-.43-2.079,56.964,56.964,0,0,1,8.082-13.166c1.3-1.588,2.75-3.032,4.18-4.5.3-.312.522-.615.853.079a3.45,3.45,0,0,0,3.5,1.85q24.714-.021,49.428-.015c2.835,0,3.656-1.376,3.725-3.723.085-2.862.041-5.729.007-8.594-.009-.784.161-.877.88-.56a64.77,64.77,0,0,1,8.332,4.335,2.16,2.16,0,0,1,.723.747" transform="translate(-13.541 -24.614)" fill="#bec716"/>
        <path id="Trazado_820708" data-name="Trazado 820708" d="M25.876,77.486A8.561,8.561,0,0,1,23,71.973c-.4-3.891,1.422-6.6,4.7-8.457.732-.415.665-.648.17-1.211a7.711,7.711,0,0,1-1.8-7.769c.235-.753-.036-.993-.663-1.227A8.319,8.319,0,0,1,21.463,40.83a7.418,7.418,0,0,1,1.644-1.714,1.291,1.291,0,0,0,.395-1.868,7.106,7.106,0,0,1,.12-6.383,1.035,1.035,0,0,0-.366-1.49c-4.165-3.353-4.119-8.4-1.154-12.216a7.611,7.611,0,0,1,3.551-2.266c.71-.25.778-.507.472-1.139a5.679,5.679,0,0,1-.507-2.136c1.054-.206,1.836.5,2.7.856a22.9,22.9,0,0,0,9.061,1.818,5.793,5.793,0,0,0,4.6-2.037,10.417,10.417,0,0,0,1.665-1.881c.231-.453.618-.183.911,0,1,.635,1.988,1.284,2.978,1.931a6.341,6.341,0,0,0,6.638.483c1.248-.61,2.421-1.385,3.7-1.918a5.492,5.492,0,0,1,7.487,5.036,35.25,35.25,0,0,1-1.277,9.164.679.679,0,0,1-.729.6c-1.924.12-1.924.133-1.929-1.671-.011-4.012-3.1-6.286-6.99-5.139a3.7,3.7,0,0,0-.589.192c-.786.389-1.286.169-1.87-.514a5.155,5.155,0,0,0-8.2.581c-.9,1.248-1.736,2.536-2.563,3.829a6.892,6.892,0,0,0-.713,1.518,3.378,3.378,0,0,0,1.777,4.525,5.7,5.7,0,0,1,2.758,7.229,5.859,5.859,0,0,1-4.8,3.615c-2.146.347-2.761.9-3.216,3.035-.166.778-.333,1.556-.466,2.341a2.837,2.837,0,0,0,2.1,3.343,5.626,5.626,0,0,1,3.89,5.183c.168,2.81-1.506,4.52-3.729,5.613-.315.154-.654.262-.959.432a2.738,2.738,0,0,0-1.329,3.8,3.475,3.475,0,0,1-.154,3.529,2.692,2.692,0,0,1-.923.809c-2.224,1.219-2.554,2.123-1.656,4.458a2.962,2.962,0,0,1-2.019,4.246,2.726,2.726,0,0,1-1.8-.256c-1.885-.74-2.844-.478-4.093,1.114" transform="translate(-5.764 -2.92)" fill="#828889"/>
        <path id="Trazado_820709" data-name="Trazado 820709" d="M140.019,8.471a12.369,12.369,0,0,0,.885,5.621c1.143,2.356,2.743,4.1,5.477,4.525a6.851,6.851,0,0,0,2.526-.35,5.891,5.891,0,0,1,4.935,1.112,1.535,1.535,0,0,1,.618,1.852,10.152,10.152,0,0,0,2.827,11.186,13.5,13.5,0,0,0,5.692,3.608,7.434,7.434,0,0,0,3.481.138c1.336-.258,1.344-.265,1.522,1.01a8.809,8.809,0,0,0,6.528,7.363c.742.19.835.46.487,1.093a9.4,9.4,0,0,0-1.277,4.549,10.219,10.219,0,0,0,2.164,6.408,16.9,16.9,0,0,0,3.3,3.316,9.831,9.831,0,0,0,8.111,1.763c.7-.152,1,.064,1.288.675a9.118,9.118,0,0,0,3.7,4.16,2.075,2.075,0,0,0,1.16.4,5.124,5.124,0,0,1-1.625,4.624c-3.207,3.039-7.326,1.646-9.071-1.776-.08-.158-.158-.317-.238-.476-.941-1.865-1.982-2.385-4.031-1.929a8.57,8.57,0,0,1-10.056-6.008,8.5,8.5,0,0,1,.544-5.969,4.778,4.778,0,0,0,.434-1.609c.1-2.052-.509-2.662-2.98-3.455a5.667,5.667,0,0,1-3.948-4.314,7.263,7.263,0,0,1-.187-1.4,2.873,2.873,0,0,0-3.5-2.8,10.7,10.7,0,0,1-4.209-.016A8.872,8.872,0,0,1,148.2,34.8a7.887,7.887,0,0,1,.4-3.99c.955-2.591-.227-4.041-2.045-5.463a7.552,7.552,0,0,0-6.645-1.361,4.352,4.352,0,0,1-4.49-1.316c-1.154-1.176-2.318-2.343-3.513-3.479a9.107,9.107,0,0,0-6.117-2.627,15.6,15.6,0,0,0-5.445.5,9.269,9.269,0,0,0-5.252,4.879c-.419.78-.856,1.551-1.24,2.349a1.169,1.169,0,0,1-1.24.777c-.857-.046-1.719-.016-2.578-.01-.461,0-.845-.133-.922-.631a14.115,14.115,0,0,1,.174-6.633c1.622-5.01,5.193-7.653,10.273-8.713,5.528-1.153,11.1-1.131,16.685-1.007a14.318,14.318,0,0,1,3.768.4" transform="translate(-31.376 -2.31)" fill="#525864"/>
        <path id="Trazado_820710" data-name="Trazado 820710" d="M98.885,88.757H77.816c-1.877,0-1.877,0-1.877-1.83,0-4.223.021-8.447-.021-12.67a6.162,6.162,0,0,0,.041-2.148c-.132-.375.223-.389.5-.389q1.512,0,3.022,0,15.209,0,30.418-.011a2.717,2.717,0,0,0,1.218-.13.665.665,0,0,1,.786.174q4.467,4.549,8.988,9.043a1.9,1.9,0,0,1,.618,1.485c-.026,1.889-.046,3.781,0,5.67.017.682-.2.823-.848.821-7.26-.023-14.52-.014-21.779-.014M86.971,83.024v.016c1.1,0,2.193.009,3.289-.008a2.557,2.557,0,0,0,.69-.159,2.765,2.765,0,0,0,1.883-3.123,2.575,2.575,0,0,0-2.24-2.164,29.439,29.439,0,0,0-5.569-.134,3.226,3.226,0,0,0-2.831,1.268,2.333,2.333,0,0,0-.417,2.357,2.635,2.635,0,0,0,2.442,1.946c.918.006,1.836,0,2.754,0m17.181.043c.833,0,1.487-.037,2.134.01a3.532,3.532,0,0,0,1.882-.357,2.729,2.729,0,0,0,1.736-3.027,2.686,2.686,0,0,0-2.259-2.106,35.5,35.5,0,0,0-5.736-.143,4.367,4.367,0,0,0-1.379.294c-.965.32-2.1,1.81-1.765,2.891a3.049,3.049,0,0,0,2.128,2.26,16.278,16.278,0,0,0,3.258.179" transform="translate(-21.891 -20.622)" fill="#bec716"/>
        <path id="Trazado_820711" data-name="Trazado 820711" d="M164.273,136.027a1.977,1.977,0,0,0,1.055,1.24c2.427,1.644,4.883,1.262,7.066-.554.295-.245.538-.549.818-.811a1.087,1.087,0,0,1,1.913.311,8.923,8.923,0,0,0,4.213,4.138,8.188,8.188,0,0,0,8.835-1.279,2.886,2.886,0,0,1,2.807-.823,4.435,4.435,0,0,0,3.481-1c1.075-.793,1.924-1.971,3.461-1.932a5.737,5.737,0,0,1,1.29,1.452,2.4,2.4,0,0,1,.265,2.728,2.914,2.914,0,0,1-2.651,1.646,3.317,3.317,0,0,0-3.116,1.645c-.91,1.473-2.306,1.359-3.706,1.025a2.7,2.7,0,0,0-2.579.775,7.682,7.682,0,0,1-3.556,2.074,5.416,5.416,0,0,1-5.676-2.412,7.64,7.64,0,0,1-.947-1.6c-.793-1.866-4.967-2.046-6.077-.25a2.837,2.837,0,0,1-4.339.951,3.012,3.012,0,0,1-.542-.573,3.718,3.718,0,0,0-3.15-1.65,2.838,2.838,0,0,1-2.966-2.393,2.558,2.558,0,0,1,1.109-2.538,2.639,2.639,0,0,1,2.992-.181" transform="translate(-46.179 -39.02)" fill="#525864"/>
        <path id="Trazado_820712" data-name="Trazado 820712" d="M110.8,61.52c-.771,0-1.541-.015-2.311.006-.388.011-.515-.134-.512-.515.015-1.536.021-3.071,0-4.607-.007-.465.211-.524.595-.522,1.482.007,2.964.011,4.445-.025.508-.012.662.149.65.65q-.052,2.214-.021,4.43c.007.482-.172.607-.621.59-.74-.029-1.482-.008-2.222-.009" transform="translate(-31.134 -16.106)" fill="#3ba8e2"/>
        <path id="Trazado_820713" data-name="Trazado 820713" d="M75.986,58.705c0-.767.014-1.536-.006-2.3-.01-.376.115-.52.507-.518,1.541.01,3.082.006,4.623-.021.431-.008.559.146.553.562q-.037,2.3-.021,4.608c0,.4-.168.5-.532.494-1.541-.012-3.082-.015-4.623,0-.392,0-.517-.142-.507-.519.019-.767.006-1.536.006-2.3" transform="translate(-21.909 -16.108)" fill="#3ba8e2"/>
        <path id="Trazado_820714" data-name="Trazado 820714" d="M110.717,45.577c-.71,0-1.42-.021-2.129.008-.449.019-.627-.11-.618-.59.027-1.5.023-3.007,0-4.51-.006-.433.156-.55.568-.547,1.508.012,3.017.011,4.525-.023.478-.01.6.161.595.612q-.035,2.21,0,4.421c.009.486-.115.687-.638.66-.766-.041-1.537-.011-2.306-.011Z" transform="translate(-31.133 -11.509)" fill="#3ba8e2"/>
        <path id="Trazado_820715" data-name="Trazado 820715" d="M78.733,45.579c-.71,0-1.42-.019-2.129.007-.433.016-.639-.083-.63-.578C76,43.5,76,42,75.977,40.5c0-.419.131-.563.557-.559,1.538.014,3.076,0,4.614-.018.381-.006.519.122.515.507q-.023,2.343,0,4.687c0,.406-.174.5-.533.489-.8-.016-1.6-.006-2.4-.006v-.02" transform="translate(-21.907 -11.511)" fill="#3ba8e2"/>
        <path id="Trazado_820716" data-name="Trazado 820716" d="M137.942,200.141a3.938,3.938,0,0,0,1.455-2.814,5.631,5.631,0,0,1,8.576-4.36,5.706,5.706,0,0,0,2.077,1.149,3.514,3.514,0,0,0,2.769-.651,4.585,4.585,0,0,1,3.229-1.276,5.093,5.093,0,0,0,4.908-2.215c2.746-3.508,6.5-4.191,10.321-2.916a2.963,2.963,0,0,0,3.173-1.014,7.627,7.627,0,0,1,3.207-2.148,5.224,5.224,0,0,1,5.233,1.053,4.983,4.983,0,0,0,4.387,1.556,5.167,5.167,0,0,1,4.641,1.719,3.463,3.463,0,0,0,3.6,1.148,2.657,2.657,0,0,1,2.078.21,3.242,3.242,0,0,0,3.117.016,2.784,2.784,0,0,1,2.718.115,2.734,2.734,0,0,1,1.049,3.4c-.455,1.007-2.129,2.074-3.39,1.508a6.156,6.156,0,0,0-.673-.226c-2.365-.76-4.039.421-4.123,2.911a2.919,2.919,0,0,1-4.325,2.718,3.147,3.147,0,0,1-.938-.913c-1.087-1.319-2.265-1.755-3.471-1.273a4.15,4.15,0,0,0-2.725,3.861,6.265,6.265,0,0,1-.3,3.222,4.3,4.3,0,0,0-1.349.414,10.9,10.9,0,0,1-6.015.522,10.784,10.784,0,0,1-6.967-4.338c-.477-.639-.85-.613-1.29.006a3.627,3.627,0,0,1-1.308,1.03,5.553,5.553,0,0,1-8.1-3.878c-.162-.7-.428-1.09-1.154-1.174a7.708,7.708,0,0,1-4.128-1.669.91.91,0,0,0-1.27,0,9.118,9.118,0,0,1-1.991,1.146,8.953,8.953,0,0,1-5.548.238c-.431-.109-.875-.267-1.164.268a5.673,5.673,0,0,1-4.224,2.908c-.68.125-1.48.472-2.094-.256" transform="translate(-39.775 -52.948)" fill="#828889"/>
        <path id="Trazado_820717" data-name="Trazado 820717" d="M16.422,190.91a5.032,5.032,0,0,1,1.929-5.664,6.972,6.972,0,0,1,3.2-1.209,3.039,3.039,0,0,0,3-3.016,5.9,5.9,0,0,1,4.087-5.149,5.807,5.807,0,0,1,7.3,4.979c.31,2.169.934,2.816,3.115,3.2a6.5,6.5,0,0,1,5.1,3.676,3.327,3.327,0,0,0,3.02,1.981c1.387.077,2.338.995,3.348,1.787,0,.215-.157.27-.325.357a5.746,5.746,0,0,1-5.673-.184,1.576,1.576,0,0,0-1.664-.184,8.884,8.884,0,0,1-6.376.635,1.31,1.31,0,0,0-1.6.649,5.5,5.5,0,0,1-9.227-.025,1.221,1.221,0,0,0-1.6-.617,8.4,8.4,0,0,1-5.611-.376c-.67-.283-1.24-.828-2.023-.838" transform="translate(-4.654 -50.655)" fill="#828889"/>
        <path id="Trazado_820718" data-name="Trazado 820718" d="M136.25,204.984c.614.728,1.413.381,2.094.256a5.673,5.673,0,0,0,4.224-2.908c.289-.535.733-.377,1.164-.268a8.953,8.953,0,0,0,5.548-.238,9.118,9.118,0,0,0,1.991-1.146.91.91,0,0,1,1.27,0,7.708,7.708,0,0,0,4.128,1.669c.725.085.992.473,1.154,1.174a5.553,5.553,0,0,0,8.1,3.878,3.626,3.626,0,0,0,1.308-1.03c.44-.619.813-.645,1.29-.006a10.784,10.784,0,0,0,6.967,4.338,10.9,10.9,0,0,0,6.015-.522,4.3,4.3,0,0,1,1.349-.414,7.248,7.248,0,0,1-3.513,5.371c-3.182,2.1-6.454,1.884-9.647-.069a7.529,7.529,0,0,1-1.628-1.614c-.786-.9-1.5-1.908-2.92-1.93a2.98,2.98,0,0,0-2.363,1.193,2.864,2.864,0,0,1-3.511.828,1.834,1.834,0,0,1-1.126-1.033,12.557,12.557,0,0,1-.727-2.255,2.53,2.53,0,0,0-2.436-1.993,9.713,9.713,0,0,1-4.4-1.727,2.663,2.663,0,0,0-3.363.194,5.832,5.832,0,0,1-5.406,1.1,5.183,5.183,0,0,0-2.371-.145,3.209,3.209,0,0,0-2.033,1.712,2.933,2.933,0,0,1-3.226,1.45,2.563,2.563,0,0,1-2.088-2.431,2.834,2.834,0,0,1,1.388-2.578c.858-.515,1.888-.439,2.769-.858" transform="translate(-38.083 -57.791)" fill="#525864"/>
        <path id="Trazado_820719" data-name="Trazado 820719" d="M68.05,207a5.425,5.425,0,0,1,1.1.073c3.651,1.184,9.153-1.516,10.036-6.871a8.163,8.163,0,0,0,.183-2.113c-.049-.512.06-.692.621-.45q5.5,2.375,11.026,4.693c.7.293.673.563.216,1.082Q86.1,209.23,81,215.078c-.3.345-.544.653-1.106.357A53.013,53.013,0,0,1,68.05,207" transform="translate(-19.622 -56.959)" fill="#bec716"/>
        <path id="Trazado_820720" data-name="Trazado 820720" d="M16.536,197.083c.784.009,1.353.555,2.023.838a8.4,8.4,0,0,0,5.611.376,1.221,1.221,0,0,1,1.6.617,5.5,5.5,0,0,0,9.227.025,1.31,1.31,0,0,1,1.6-.649,8.884,8.884,0,0,0,6.376-.635,1.576,1.576,0,0,1,1.664.184,5.746,5.746,0,0,0,5.673.184c.168-.087.321-.142.325-.357a3.524,3.524,0,0,0,2.523-.17c.053.13.068.325.164.379a4.586,4.586,0,0,0,3.155.751c.714-.133,1.418-.317,2.127-.477a2.677,2.677,0,0,1-1.376,2.979,2.3,2.3,0,0,1-2.721-.211,4.119,4.119,0,0,0-2.771-1.2,3.79,3.79,0,0,0-2.358,1.067,2.493,2.493,0,0,1-3.329.283,3.764,3.764,0,0,0-4.448-.213,5.083,5.083,0,0,1-3.947.427,5.949,5.949,0,0,0-2.164-.391,2.985,2.985,0,0,0-2.545,1.646c-1.3,2.483-3.936,2.247-5.128.016a2.968,2.968,0,0,0-3.644-1.458c-1.763.43-3.489.637-5.124-.409a4.553,4.553,0,0,1-2.505-3.606" transform="translate(-4.768 -56.829)" fill="#525864"/>
        <path id="Trazado_820721" data-name="Trazado 820721" d="M119.934,222.736c0,1.3-.024,2.6.011,3.9.016.624-.221.8-.829.821-2.634.1-5.255-.2-7.884-.2a2.87,2.87,0,0,1-.855-.187c-.3-.1-.42-.248-.191-.582,1-1.465,1.818-3.037,2.682-4.582a3.194,3.194,0,0,1,1.4-1.317c1.534-.762,3.06-1.54,4.6-2.289.871-.423,1.062-.282,1.065.72,0,1.24,0,2.481,0,3.721" transform="translate(-31.737 -62.88)" fill="#bec716"/>
        <path id="Trazado_820722" data-name="Trazado 820722" d="M143.56,219.287c.371-.78.953-.653,1.7-.581a11.233,11.233,0,0,0,5.669-1.119,1.982,1.982,0,0,1,1.926.018,18.346,18.346,0,0,0,1.813.7c.228.093.606.042.623.38.013.255-.3.336-.5.455a53.858,53.858,0,0,1-7.79,4.022,26.616,26.616,0,0,1-5.092,1.728c-.174-.608.179-1.1.341-1.642.4-1.333,1.3-2.5,1.307-3.962" transform="translate(-40.907 -62.671)" fill="#bec716"/>
        <path id="Trazado_820723" data-name="Trazado 820723" d="M140.708,220.073c0,1.462-.908,2.629-1.307,3.962-.162.54-.515,1.035-.341,1.642-2.145.529-4.29,1.063-6.437,1.586-.331.08-.653.117-.649-.41.014-1.672,0-3.345,0-5.119a6.914,6.914,0,0,0,5.871-.058c.989-.455,1.908-1.064,2.858-1.6" transform="translate(-38.055 -63.458)" fill="#3ba8e2"/>
        <path id="Trazado_820724" data-name="Trazado 820724" d="M73.431,197.708c-.709.161-1.413.344-2.127.477a4.587,4.587,0,0,1-3.155-.751c-.1-.055-.111-.25-.164-.379.423-.317.838-.648,1.271-.951a2.609,2.609,0,0,1,4.175,1.6" transform="translate(-19.603 -56.389)" fill="#828889"/>
        <path id="Trazado_820725" data-name="Trazado 820725" d="M8.432,154.239a2.345,2.345,0,0,1,2.17-2.52,2.784,2.784,0,0,1,2.955,1.864,2.752,2.752,0,0,1-1.22,3.18,3.514,3.514,0,0,1-1.385.191c-.033-.167-.015-.438-.109-.484-1.031-.506-1.444-1.667-2.412-2.231" transform="translate(-2.431 -43.739)" fill="#828889"/>
        <path id="Trazado_820726" data-name="Trazado 820726" d="M8.4,155.273c.968.564,1.381,1.725,2.412,2.231.094.046.075.317.109.484-.02.054-.033.149-.062.154A2.436,2.436,0,0,1,8.4,155.273" transform="translate(-2.403 -44.773)" fill="#525864"/>
        <path id="Trazado_820727" data-name="Trazado 820727" d="M117.993,151.477c-1.267.3-2.536-.257-3.832-.539a3.651,3.651,0,0,1-2.416-3.529c.2-1.045,2.382-2.275,3.575-1.884,3.264,1.068,6.1.1,8.808-1.665a10.86,10.86,0,0,0,2.464-2.763,3.025,3.025,0,0,1,2.276-1.319,2.667,2.667,0,0,1,2.442,4.074,14.676,14.676,0,0,1-9.609,7.283,10.758,10.758,0,0,1-3.708.343" transform="translate(-32.214 -40.302)" fill="#272727"/>
        <path id="Trazado_820728" data-name="Trazado 820728" d="M127.443,171.654c1.551-.3,2.957,1.837,2.7,3.517a16.438,16.438,0,0,1-1.8,5.777,12.709,12.709,0,0,1-3.854,4.187c-1.539,1.067-3.091,2.11-4.688,3.088a2.207,2.207,0,0,1-2.244.02,2.787,2.787,0,0,1-1.551-2.292,2.579,2.579,0,0,1,1.27-2.515,33.561,33.561,0,0,0,4.3-2.975,8.88,8.88,0,0,0,2.933-5.75c.132-1.208.391-2.362,1.719-2.9a6.016,6.016,0,0,1,1.217-.157" transform="translate(-33.445 -49.488)" fill="#272727"/>
        <path id="Trazado_820729" data-name="Trazado 820729" d="M89.279,85.4c-.918,0-1.836,0-2.754,0a2.633,2.633,0,0,1-2.442-1.945A2.331,2.331,0,0,1,84.5,81.1a3.228,3.228,0,0,1,2.831-1.268,29.38,29.38,0,0,1,5.569.134,2.575,2.575,0,0,1,2.24,2.164,2.766,2.766,0,0,1-1.882,3.123,2.562,2.562,0,0,1-.69.159c-1.1.016-2.193.007-3.289.007V85.4" transform="translate(-24.199 -23.001)" fill="#272727"/>
        <path id="Trazado_820730" data-name="Trazado 820730" d="M113.385,85.451a16.278,16.278,0,0,1-3.258-.179A3.049,3.049,0,0,1,108,83.012c-.336-1.08.8-2.57,1.765-2.891a4.367,4.367,0,0,1,1.379-.294,35.5,35.5,0,0,1,5.736.143,2.686,2.686,0,0,1,2.259,2.106A2.729,2.729,0,0,1,117.4,85.1a3.533,3.533,0,0,1-1.882.357c-.648-.047-1.3-.01-2.134-.01" transform="translate(-31.124 -23.005)" fill="#272727"/>
      </g>
    </g>
  </g>
</svg>
