<svg xmlns="http://www.w3.org/2000/svg" xmlns:xlink="http://www.w3.org/1999/xlink" width="57" height="57" viewBox="0 0 57 57">
  <defs>
    <clipPath id="clip-path">
      <rect id="Rect치ngulo_377524" data-name="Rect치ngulo 377524" width="57" height="57" transform="translate(1090 1431.81)" fill="#fff" stroke="#707070" stroke-width="1"/>
    </clipPath>
    <clipPath id="clip-path-2">
      <rect id="Rect치ngulo_377509" data-name="Rect치ngulo 377509" width="52.676" height="52.616" fill="none"/>
    </clipPath>
  </defs>
  <g id="Enmascarar_grupo_332" data-name="Enmascarar grupo 332" transform="translate(-1090 -1431.81)" clip-path="url(#clip-path)">
    <g id="Grupo_1073247" data-name="Grupo 1073247" transform="translate(1093 1434.811)">
      <g id="Grupo_1073246" data-name="Grupo 1073246" clip-path="url(#clip-path-2)">
        <path id="Trazado_819873" data-name="Trazado 819873" d="M.329,54.565q0-1.693.007-3.386a3.417,3.417,0,0,0,.914-.049,7.425,7.425,0,0,0,1.316-.268A18.244,18.244,0,0,0,4.7,49.886a5.271,5.271,0,0,1,1.779-.413,7.633,7.633,0,0,1,1.366.107,5.536,5.536,0,0,1,2.258.809,6.186,6.186,0,0,0,2.637.78,7.937,7.937,0,0,0,2.144-.095,6.807,6.807,0,0,0,1.778-.616c.416-.214.837-.421,1.269-.6a5.96,5.96,0,0,1,2.851-.331,4.9,4.9,0,0,1,1.8.519,8.617,8.617,0,0,0,3.056,1.09,9.2,9.2,0,0,0,2.428-.081,6.894,6.894,0,0,0,2.185-.813,5.749,5.749,0,0,1,3.326-.719,4.508,4.508,0,0,1,2.155.741,5.989,5.989,0,0,0,1.658.861c.2.055.243.147.242.344-.009,1.8,0,3.6-.01,5.4,0,.193.039.257.243.248a11.164,11.164,0,0,1,1.165,0c.244.014.3-.061.3-.3-.008-1.881,0-3.761,0-5.641h3.374c0,.5.011,1.006.005,1.509,0,.149.04.194.19.191.432-.01.866-.013,1.3,0,.179.006.217-.054.214-.221-.038-2.275.045-4.55-.043-6.825a3,3,0,0,0-.522-1.564,3.385,3.385,0,0,0-2.992-1.567c-.433,0-.866-.009-1.3,0-.173,0-.243-.024-.241-.222.011-.98.01-1.96,0-2.94,0-.177.031-.244.225-.236,1.043.037,2.086-.041,3.13.1a5.29,5.29,0,0,1,1.649.438A5.82,5.82,0,0,1,47.8,45.352c.032,2.066.006,4.133.006,6.2,0,.936,0,1.872,0,2.808,0,.172.041.23.217.219.211-.014.423,0,.635,0q0,.839,0,1.678c-.229,0-.458.013-.687.006-.125,0-.167.033-.164.162q.011.688,0,1.376c0,.127.036.167.163.163.229-.007.458,0,.687.006q0,.882,0,1.764a.627.627,0,0,1-.057.358c-.073-.063-.15-.121-.218-.189-.687-.686-1.377-1.368-2.054-2.064-.166-.171-.26-.16-.422.006-1,1.02-2.017,2.027-3.025,3.041-.115.116-.178.146-.311,0a3.191,3.191,0,0,0-4.539-.5,3.043,3.043,0,0,0-1.188,3c.029.189.159.422.09.553-.084.159-.358.107-.552.138-.051.008-.1.03-.149.041a8.169,8.169,0,0,0-3.548,1.71c-1.088.924-2.146,1.883-3.213,2.831q-1.673,1.489-3.338,2.987-3.156,2.825-6.312,5.65a.494.494,0,0,1-.37.164,6.581,6.581,0,0,1-1.053-.192,9.038,9.038,0,0,1-1.421-.628,8.441,8.441,0,0,0-1.335-.56,7.95,7.95,0,0,0-1.7-.268,8.18,8.18,0,0,0-2.242.159,7.748,7.748,0,0,0-2.142.878,5.857,5.857,0,0,1-3.261.607,5.558,5.558,0,0,1-2.362-.772,7.409,7.409,0,0,0-3.593-.911c0-.167-.006-.335-.006-.5q0-9.37,0-18.739c0-.088,0-.176.006-.265q4.99,0,9.98.007c.148,0,.2-.037.192-.189q-.015-.662,0-1.324c0-.151-.042-.193-.191-.189-.441.009-.882,0-1.323.006-.162,0-.244-.036-.24-.22a2.7,2.7,0,0,0-.546-1.666,3.447,3.447,0,0,0-1.7-1.314,4.636,4.636,0,0,0-1.375-.143,2.438,2.438,0,0,0-1.325.345,3.339,3.339,0,0,0-1.774,2.843c-.008.139-.054.155-.168.154-.512-.007-1.023-.007-1.535-.01m12.052,9.492c-.163-.06-.259.075-.4.119A6.833,6.833,0,0,0,8.076,67.24a6.379,6.379,0,0,0-.919,2.728,7.718,7.718,0,0,0,.051,1.849,9.229,9.229,0,0,0,.357,1.3c.052.175.021.268-.158.344-.453.193-.894.414-1.345.611-.131.057-.155.115-.093.238.2.4.4.8.591,1.21.055.118.093.151.231.085q3.875-1.845,7.756-3.676,4-1.892,8-3.779c.162-.076.159-.151.1-.283-.169-.348-.346-.693-.493-1.051-.1-.234-.22-.254-.425-.152-.5.246-1,.485-1.5.722-.336.159-.335.153-.528-.166a6.733,6.733,0,0,0-4.111-3.1,8.63,8.63,0,0,0-2.531-.163,5.5,5.5,0,0,0-.676.1M7.939,63.051c1.607,0,3.214,0,4.821,0,.215,0,.312-.025.295-.277a11.671,11.671,0,0,1,0-1.191c.006-.179-.033-.244-.227-.236-.432.016-.865,0-1.3.008-.172,0-.232-.055-.232-.229a2.754,2.754,0,0,0-.412-1.446,3.453,3.453,0,0,0-1.7-1.49A3.671,3.671,0,0,0,7.2,58.071a3.319,3.319,0,0,0-2.623,3.1c-.007.157-.049.188-.191.185-.442-.008-.883,0-1.324-.006-.152,0-.192.045-.189.192.009.424.017.848,0,1.271-.009.208.061.241.25.24,1.607-.007,3.214,0,4.821,0m16.114,1.7c1.624,0,3.249,0,4.873,0,.181,0,.242-.037.235-.228-.016-.432-.011-.865,0-1.3,0-.139-.036-.18-.177-.177-.45.009-.9,0-1.35.005-.15,0-.23-.034-.227-.205a2.594,2.594,0,0,0-.423-1.488,3.83,3.83,0,0,0-1.066-1.133,3.243,3.243,0,0,0-1.956-.522,3.129,3.129,0,0,0-1.906.628,3.3,3.3,0,0,0-1.369,2.543c-.01.167-.066.18-.2.178-.415-.006-.83.007-1.244-.006-.2-.007-.276.032-.265.252.02.4.017.795,0,1.192-.008.2.042.263.255.261,1.607-.01,3.213-.006,4.82-.005m6.8-7.63c1.616,0,3.231,0,4.847,0,.165,0,.253-.011.245-.218-.018-.432-.013-.865,0-1.3,0-.156-.05-.189-.195-.187-.441.008-.883,0-1.324.006-.166,0-.253-.044-.234-.224a1.72,1.72,0,0,0-.1-.689,3.376,3.376,0,0,0-6.621.727c-.014.187-.084.186-.218.185-.432,0-.865,0-1.3,0-.148,0-.2.038-.192.189.01.423.016.848,0,1.271-.008.2.052.244.247.243,1.615-.008,3.231,0,4.846,0" transform="translate(-0.222 -26.557)" fill="#91d4f1"/>
        <path id="Trazado_819874" data-name="Trazado 819874" d="M48.65,28.026c-.212,0-.424-.019-.635-.005-.176.012-.219-.047-.217-.218.008-.936,0-1.872,0-2.808,0-2.066.026-4.133-.006-6.2a5.819,5.819,0,0,0-3.471-5.508,5.3,5.3,0,0,0-1.649-.438c-1.044-.138-2.087-.06-3.13-.1-.195-.007-.227.059-.226.236.009.98.01,1.96,0,2.94,0,.2.068.227.241.223.432-.012.866-.008,1.3,0a3.386,3.386,0,0,1,2.992,1.567,3.006,3.006,0,0,1,.522,1.564c.087,2.275,0,4.55.043,6.825,0,.168-.035.227-.214.221-.432-.014-.865-.011-1.3,0-.15,0-.192-.042-.19-.191.006-.5,0-1.006-.005-1.509q0-2.343.008-4.686a3.426,3.426,0,0,0-.048-.755,1.5,1.5,0,0,0-1.1-1.241,9.922,9.922,0,0,0-2.144-.1c-.135-.008-.1.091-.1.163q0,3.309.007,6.619c0,1.881-.01,3.761,0,5.641,0,.238-.054.314-.3.3a11.074,11.074,0,0,0-1.165,0c-.2.01-.244-.054-.243-.248.008-1.8,0-3.6.01-5.4,0-.2-.042-.288-.242-.343a5.99,5.99,0,0,1-1.658-.862,4.512,4.512,0,0,0-2.156-.741,5.748,5.748,0,0,0-3.326.719,6.908,6.908,0,0,1-2.185.813,9.213,9.213,0,0,1-2.428.081,8.618,8.618,0,0,1-3.056-1.09,4.9,4.9,0,0,0-1.8-.519,5.963,5.963,0,0,0-2.851.331c-.432.179-.853.386-1.269.6a6.82,6.82,0,0,1-1.778.616,7.95,7.95,0,0,1-2.144.095,6.193,6.193,0,0,1-2.637-.78,5.535,5.535,0,0,0-2.258-.81,7.629,7.629,0,0,0-1.366-.106A5.271,5.271,0,0,0,4.7,23.33a18.294,18.294,0,0,1-2.136.975,7.432,7.432,0,0,1-1.316.268,3.432,3.432,0,0,1-.914.048c0-.5,0-1.007-.009-1.509,0-.158.053-.184.2-.186a5.047,5.047,0,0,0,2.549-.673c.09-.053.2-.071.294-.12a.593.593,0,0,0,.364-.584q-.013-9.444,0-18.889a6.028,6.028,0,0,1,.043-1.284A1.584,1.584,0,0,1,5.073.1,7.135,7.135,0,0,1,7.219.1c1,.146,1.318.459,1.531,1.472.024.114.076.191.212.17a1.035,1.035,0,0,1,.159,0H33.786c.425,0,.432,0,.518-.4a1.42,1.42,0,0,1,1.11-1.18,6.048,6.048,0,0,1,2.757.006,1.413,1.413,0,0,1,1.095,1.394c.133,2.476.025,4.955.056,7.433.007.609.009,1.219,0,1.828,0,.189.032.254.239.249q.966-.024,1.934,0a8.888,8.888,0,0,1,2.471.314A7.354,7.354,0,0,1,47.676,13.8a8.435,8.435,0,0,1,1.387,2.426,6.4,6.4,0,0,1,.386,1.968c.108,3.184.014,6.369.054,9.554,0,.221-.05.293-.271.27a4.975,4.975,0,0,0-.582,0M21.344,3.431q-6.145,0-12.291,0c-.181,0-.256.021-.256.236q.011,8.794,0,17.589a.252.252,0,0,0,.219.293,5.8,5.8,0,0,1,1.251.492,6.526,6.526,0,0,0,2.5.857,8.453,8.453,0,0,0,1.805-.042,5.326,5.326,0,0,0,1.529-.526c.059-.028.158,0,.173-.094s-.075-.127-.139-.172a9.354,9.354,0,0,1-2.465-2.6A9.177,9.177,0,0,1,12.2,15.006,8.643,8.643,0,0,1,12.53,12a9.35,9.35,0,0,1,7.815-6.776,9.748,9.748,0,0,1,2.61.028,8.129,8.129,0,0,1,2.238.65,9.37,9.37,0,0,1,4.376,3.873,8.9,8.9,0,0,1,1.123,3.1,9.086,9.086,0,0,1,.136,1.638c-.005.341-.041.695-.074,1.041a8.313,8.313,0,0,1-.64,2.479,9,9,0,0,1-4.344,4.687c-.042.021-.095.041-.091.081s.057.072.114.081a6.417,6.417,0,0,0,1.933-.033,5.655,5.655,0,0,0,1.931-.736,7.161,7.161,0,0,1,4.292-.807c.268.025.293-.04.293-.271Q34.233,12.768,34.23,4.5c0-.3-.026-.6,0-.9.006-.066.032-.2-.093-.161a1.673,1.673,0,0,1-.586-.012q-6.106.008-12.212,0M13.882,14.422a7.277,7.277,0,0,0,.486,2.717,7.716,7.716,0,0,0,3.417,4,1.688,1.688,0,0,0,1.331.184,5.344,5.344,0,0,1,1.852-.022,5.686,5.686,0,0,1,2.092.6.308.308,0,0,0,.228,0,7.918,7.918,0,0,0,1.49-.524,7.221,7.221,0,0,0,2.823-2.31,8.447,8.447,0,0,0,1.1-2.043,10.207,10.207,0,0,0,.392-1.688,6.5,6.5,0,0,0,.019-1.461,7,7,0,0,0-.563-2.449A7.461,7.461,0,0,0,25.634,8a7.6,7.6,0,0,0-5.319-1.071,6.85,6.85,0,0,0-3.59,1.559,7.557,7.557,0,0,0-2.844,5.936m23.744-2.173V9.071q0-3.549,0-7.1c0-.177-.031-.247-.226-.239-.414.016-.83.016-1.244,0-.2-.008-.226.062-.226.238q.007,9.84,0,19.679a.362.362,0,0,0,.168.354c.4.244.8.5,1.207.733.248.145.307.105.317-.187,0-.044,0-.088,0-.132V12.249M5.414,11.541v6.542c0,1.015,0,2.03,0,3.045,0,.185.042.261.237.215a6.025,6.025,0,0,1,1.121-.092c.309-.015.342-.108.341-.376Q7.1,11.486,7.1,2.1a1.41,1.41,0,0,1,0-.185c.019-.142-.042-.179-.178-.176-.415.008-.83.017-1.244,0-.222-.01-.274.053-.273.273q.012,4.767.006,9.534" transform="translate(-0.217 0)"/>
        <path id="Trazado_819875" data-name="Trazado 819875" d="M.336,114.116a7.405,7.405,0,0,1,3.593.911,5.563,5.563,0,0,0,2.362.772,5.858,5.858,0,0,0,3.261-.607,7.747,7.747,0,0,1,2.142-.878,8.18,8.18,0,0,1,2.242-.159,7.95,7.95,0,0,1,1.7.268,8.412,8.412,0,0,1,1.335.56,9.076,9.076,0,0,0,1.421.628,6.549,6.549,0,0,0,1.053.192.491.491,0,0,0,.37-.164l6.312-5.65Q27.8,108.494,29.468,107c1.066-.949,2.125-1.907,3.213-2.831a8.17,8.17,0,0,1,3.548-1.711c.05-.011.1-.033.149-.041.194-.03.468.021.552-.138.07-.131-.061-.364-.09-.553a3.043,3.043,0,0,1,1.188-3,3.191,3.191,0,0,1,4.539.5c.133.15.2.12.311,0,1.008-1.014,2.023-2.022,3.025-3.041.163-.165.256-.177.422-.006.677.7,1.367,1.378,2.054,2.064.068.068.145.126.218.189.72.813,1.511,1.557,2.277,2.325.441.441.88.884,1.324,1.322.125.124.129.21,0,.345-1.017,1.023-2.024,2.055-3.079,3.038-.153.143-.139.211.007.34a3.356,3.356,0,0,1,1.14,1.886,2.9,2.9,0,0,1-.741,2.715,3.706,3.706,0,0,1-.916.768,3.3,3.3,0,0,1-2.5.258c-.1-.027-.191-.108-.213.091a6.554,6.554,0,0,1-.656,2.1,7.125,7.125,0,0,1-1.026,1.621c-.109.126-.038.193.068.228a5.576,5.576,0,0,0,2.483.291,7.659,7.659,0,0,0,1.334-.208,15.378,15.378,0,0,0,1.73-.808,6.455,6.455,0,0,1,2.1-.593c.271-.023.54-.042.811-.05.11,0,.155.022.153.144-.007.468-.008.936,0,1.4,0,.143-.061.151-.174.152a5.772,5.772,0,0,0-2.617.665,7.983,7.983,0,0,1-2.6.94,8.727,8.727,0,0,1-2.062.052,7.711,7.711,0,0,1-1-.179,6.3,6.3,0,0,1-1.58-.639,6.472,6.472,0,0,0-1.808-.723,4.077,4.077,0,0,0-.437-.051,6.086,6.086,0,0,0-3.521.53,9.314,9.314,0,0,1-2.185.9,6.985,6.985,0,0,1-.785.138,6.849,6.849,0,0,1-4.162-.674,7.527,7.527,0,0,0-1.723-.758,6.516,6.516,0,0,0-.786-.139,6.166,6.166,0,0,0-3.888.727,7.026,7.026,0,0,1-2.025.779,8.119,8.119,0,0,1-2.472.083,6.554,6.554,0,0,1-1.576-.371,8.759,8.759,0,0,1-1.068-.528,6.763,6.763,0,0,0-1.676-.642,1.789,1.789,0,0,0-.411-.042,13.1,13.1,0,0,0-1.412-.034,7.443,7.443,0,0,0-1.319.237,2.039,2.039,0,0,0-.9.444c-.106.109-.224.034-.333.1a7.668,7.668,0,0,1-1.681.688,6.237,6.237,0,0,1-1.247.189,9.108,9.108,0,0,1-1.164,0,5.838,5.838,0,0,1-2.429-.648,8.509,8.509,0,0,0-1.909-.841,8.091,8.091,0,0,0-.915-.156,5.81,5.81,0,0,0-.6-.044c-.131,0-.109-.084-.108-.159q0-.768.006-1.536m31.736,1.577c-.086-.113-.149-.2-.212-.28a4.947,4.947,0,0,1-1-2.519,4.711,4.711,0,0,1,1.042-3.511,4.825,4.825,0,0,1,4.3-2.01,5.1,5.1,0,0,1,1.354.232,5.184,5.184,0,0,1,3.462,4.744,4.042,4.042,0,0,1-.3,1.675c-.048.115-.01.193.122.193a3.91,3.91,0,0,1,1.354.326c.286.106.454.089.6-.172a1.631,1.631,0,0,1,.147-.187,5.892,5.892,0,0,0,1.011-1.843,8.547,8.547,0,0,0,.4-1.647c.02-.2.117-.433-.065-.614-.708-.7-1.408-1.411-2.112-2.117-1.29-1.294-2.6-2.568-3.863-3.888a.442.442,0,0,0-.324-.142,5.429,5.429,0,0,0-1.327.13,6.442,6.442,0,0,0-2.945,1.391c-.657.554-1.283,1.146-1.924,1.719q-2.012,1.8-4.026,3.6c-.571.51-1.137,1.025-1.711,1.532-.82.725-1.607,1.486-2.457,2.177-.151.122-.3.249-.491.414a.846.846,0,0,0,.534-.164,4.886,4.886,0,0,1,1.55-.506,8.84,8.84,0,0,1,1.957-.077,7.484,7.484,0,0,1,2.2.487c.732.28,1.4.708,2.143.958a1.19,1.19,0,0,0,.582.1M48.6,108.319a1.4,1.4,0,0,0-.5-1.2q-.9-.9-1.8-1.8-2.528-2.529-5.055-5.06a1.708,1.708,0,0,0-1.641-.5,1.367,1.367,0,0,0-1.054.906,1.679,1.679,0,0,0,.482,1.8q2.63,2.614,5.242,5.246c.574.575,1.14,1.158,1.728,1.718a1.506,1.506,0,0,0,1.794.281,1.308,1.308,0,0,0,.8-1.387m-12.733.707a2.805,2.805,0,0,0-.878.13,3.4,3.4,0,0,0-.325,6.412.316.316,0,0,0,.224,0,7.992,7.992,0,0,0,1.491-.66,6.13,6.13,0,0,1,2.248-.694.385.385,0,0,0,.353-.262,3.853,3.853,0,0,0,.311-1.8,3.224,3.224,0,0,0-.28-1.16,3.314,3.314,0,0,0-3.145-1.961m11.572-9.34a.582.582,0,0,0-.055-.072c-.392-.392-.787-.78-1.176-1.176-.08-.082-.12-.038-.2,0-.225.122-.341.345-.513.515-.482.478-.962.957-1.45,1.429-.115.112-.154.183-.014.313.373.349.737.709,1.091,1.076.114.118.175.124.291,0,.638-.657,1.285-1.307,1.93-1.958.036-.036.09-.059.091-.136m2.57,2.6a.782.782,0,0,0-.071-.112c-.4-.4-.8-.8-1.195-1.2-.069-.07-.109-.033-.177,0-.233.126-.354.357-.533.534-.483.478-.963.958-1.452,1.43-.113.109-.13.179-.006.3.371.352.737.71,1.092,1.079.132.138.207.1.319-.016.628-.644,1.262-1.283,1.9-1.922a1.029,1.029,0,0,1,.129-.1" transform="translate(-0.222 -64.9)"/>
        <path id="Trazado_819876" data-name="Trazado 819876" d="M.107,79.4c.512,0,1.023,0,1.535.01.114,0,.16-.014.168-.154a3.34,3.34,0,0,1,1.774-2.843,2.442,2.442,0,0,1,1.326-.345,4.635,4.635,0,0,1,1.374.143,3.445,3.445,0,0,1,1.7,1.314,2.706,2.706,0,0,1,.546,1.666c0,.184.078.222.24.219.441-.007.882,0,1.324-.006.149,0,.195.039.191.19q-.015.661,0,1.323c0,.152-.044.189-.192.189Q5.1,81.095.114,81.1q0-.577-.006-1.153A.69.69,0,0,0,.022,79.5c-.065-.089.031-.088.085-.1m5.081.006h1.3c.467,0,.477-.013.349-.461a1.7,1.7,0,0,0-1.791-1.223,1.668,1.668,0,0,0-1.535,1.435c-.041.192.019.261.228.254.484-.017.969-.005,1.454-.005" transform="translate(0 -51.387)"/>
        <path id="Trazado_819877" data-name="Trazado 819877" d="M147.529,93.277c-.229,0-.458-.013-.687-.006-.127,0-.165-.036-.163-.163q.01-.688,0-1.376c0-.129.039-.165.165-.162.229.007.458,0,.687-.006s.459.014.688.006c.129,0,.163.037.162.163q-.011.689,0,1.377c0,.128-.036.166-.163.162-.229-.007-.458,0-.688.006" transform="translate(-99.096 -61.86)"/>
        <path id="Trazado_819878" data-name="Trazado 819878" d="M24.06,115.362a5.5,5.5,0,0,1,.677-.1,8.62,8.62,0,0,1,2.531.163,6.733,6.733,0,0,1,4.111,3.1c.193.32.191.325.528.166.5-.237,1-.476,1.5-.722.205-.1.329-.081.425.152.147.357.323.7.493,1.051.064.132.067.207-.1.283q-4,1.882-8,3.779-3.879,1.835-7.756,3.676c-.138.066-.176.033-.231-.085-.191-.406-.39-.809-.591-1.21-.062-.124-.038-.181.093-.238.451-.2.892-.418,1.345-.611.179-.076.211-.168.158-.344a9.186,9.186,0,0,1-.358-1.3,7.735,7.735,0,0,1-.051-1.849,6.384,6.384,0,0,1,.919-2.728,6.834,6.834,0,0,1,3.908-3.064c.138-.044.234-.179.4-.119M20.491,122.1a4.923,4.923,0,0,0,.221,1.433c.076.333.181.366.486.222q4.307-2.041,8.618-4.074c.216-.1.232-.182.111-.365a5.1,5.1,0,0,0-9.436,2.785" transform="translate(-11.902 -77.861)"/>
        <path id="Trazado_819879" data-name="Trazado 819879" d="M13.225,101.962c-1.607,0-3.214,0-4.821,0-.189,0-.26-.032-.25-.24.019-.423.012-.847,0-1.271,0-.148.037-.2.189-.192.442.01.883,0,1.325.006.142,0,.185-.028.191-.185a3.319,3.319,0,0,1,2.624-3.1,3.67,3.67,0,0,1,1.988.123,3.452,3.452,0,0,1,1.7,1.49,2.752,2.752,0,0,1,.412,1.446c0,.174.061.232.232.229.432-.009.866.008,1.3-.008.194-.007.233.057.226.236a11.766,11.766,0,0,0,0,1.191c.017.252-.079.279-.295.277-1.607-.008-3.214,0-4.821,0m.015-1.7h1.3c.467,0,.477-.013.348-.461a1.7,1.7,0,0,0-1.791-1.223,1.669,1.669,0,0,0-1.535,1.435c-.041.192.019.26.228.253.484-.017.969-.005,1.454-.005" transform="translate(-5.508 -65.468)"/>
        <path id="Trazado_819880" data-name="Trazado 819880" d="M62.886,107.22c-1.606,0-3.213,0-4.82.006-.213,0-.263-.06-.255-.262.016-.4.019-.8,0-1.191-.012-.22.068-.259.265-.252.414.014.83,0,1.244.006.133,0,.189-.011.2-.177a3.3,3.3,0,0,1,1.369-2.544,3.132,3.132,0,0,1,1.906-.628,3.243,3.243,0,0,1,1.956.522,3.833,3.833,0,0,1,1.066,1.133,2.591,2.591,0,0,1,.423,1.488c0,.171.077.207.227.205.45-.006.9,0,1.35-.005.14,0,.18.038.177.177-.008.432-.014.866,0,1.3.007.191-.054.229-.235.228-1.624-.007-3.249,0-4.873,0m0-1.7c.493,0,.987-.013,1.48.006.217.008.25-.07.224-.255a1.692,1.692,0,0,0-1.759-1.434,1.658,1.658,0,0,0-1.622,1.454c-.03.156,0,.239.2.234.493-.015.987,0,1.48,0" transform="translate(-39.055 -69.03)"/>
        <path id="Trazado_819881" data-name="Trazado 819881" d="M83.813,83.653c-1.616,0-3.231,0-4.846,0-.195,0-.256-.041-.247-.243.018-.423.012-.847,0-1.271,0-.151.043-.193.192-.189.432.009.865,0,1.3,0,.134,0,.2,0,.218-.185a3.376,3.376,0,0,1,6.621-.727,1.719,1.719,0,0,1,.1.689c-.019.18.068.226.234.223.441-.008.883,0,1.324-.006.144,0,.2.031.195.187-.011.432-.017.866,0,1.3.009.208-.079.219-.245.218-1.616-.005-3.231,0-4.847,0m0-1.7c.493,0,.987-.01,1.48,0,.2.006.234-.066.212-.241a1.693,1.693,0,0,0-1.773-1.446,1.659,1.659,0,0,0-1.612,1.466c-.032.178.04.223.212.22.493-.011.987,0,1.48,0" transform="translate(-53.182 -53.093)"/>
        <path id="Trazado_819882" data-name="Trazado 819882" d="M39,10.567q6.106,0,12.212,0a1.673,1.673,0,0,0,.586.012c.124-.042.1.095.093.161a9.025,9.025,0,0,0,0,.9Q51.9,19.9,51.9,28.169c0,.23-.025.3-.293.271a7.16,7.16,0,0,0-4.292.807,5.657,5.657,0,0,1-1.931.736,6.417,6.417,0,0,1-1.933.033c-.056-.009-.11-.028-.114-.081s.05-.06.091-.081a9.007,9.007,0,0,0,4.344-4.687,8.322,8.322,0,0,0,.639-2.479c.033-.346.069-.7.075-1.041a9.118,9.118,0,0,0-.136-1.638,8.9,8.9,0,0,0-1.123-3.1,9.37,9.37,0,0,0-4.376-3.873,8.122,8.122,0,0,0-2.238-.65A9.746,9.746,0,0,0,38,12.36a9.352,9.352,0,0,0-7.815,6.776,8.651,8.651,0,0,0-.325,3.006,9.173,9.173,0,0,0,1.465,4.453,9.345,9.345,0,0,0,2.465,2.6c.064.045.154.076.138.172s-.114.066-.173.094a5.324,5.324,0,0,1-1.528.526,8.453,8.453,0,0,1-1.805.042,6.524,6.524,0,0,1-2.5-.857,5.8,5.8,0,0,0-1.251-.492.252.252,0,0,1-.219-.293q.008-8.794,0-17.589c0-.215.074-.236.256-.236q6.146.007,12.291,0" transform="translate(-17.87 -7.136)" fill="#d1af8b"/>
        <path id="Trazado_819883" data-name="Trazado 819883" d="M42.121,28.656a7.558,7.558,0,0,1,2.844-5.936,6.849,6.849,0,0,1,3.59-1.559,7.6,7.6,0,0,1,5.319,1.07,7.462,7.462,0,0,1,2.915,3.425,7,7,0,0,1,.563,2.449,6.5,6.5,0,0,1-.019,1.461,10.171,10.171,0,0,1-.392,1.688,8.444,8.444,0,0,1-1.1,2.044,7.222,7.222,0,0,1-2.823,2.31,7.933,7.933,0,0,1-1.49.524.306.306,0,0,1-.228,0,5.684,5.684,0,0,0-2.092-.6,5.344,5.344,0,0,0-1.852.021,1.687,1.687,0,0,1-1.33-.183,7.716,7.716,0,0,1-3.417-4,7.279,7.279,0,0,1-.487-2.717m4.83-1.531c-.168,0-.335,0-.5,0l-2.3.007c-.094,0-.2-.013-.214.128-.032.273-.09.544-.1.817a6.177,6.177,0,0,0,.462,2.878A6.255,6.255,0,0,0,46.282,33.5a8.674,8.674,0,0,0,1.669.843c.214.1.309.043.416-.144.4-.7.818-1.4,1.232-2.1.148-.249.17-.248.325-.006.451.7.868,1.43,1.273,2.161a.214.214,0,0,0,.313.119,9,9,0,0,0,.969-.437,5.627,5.627,0,0,0,2.028-1.706,5.973,5.973,0,0,0,1.008-2.116,6.294,6.294,0,0,0,.162-1.416,9.187,9.187,0,0,0-.1-1.19c-.043-.385-.058-.388-.454-.388-.75,0-1.5.008-2.251.012a1.571,1.571,0,0,1-.238,0c-.139-.02-.19-.048-.091-.213.459-.761.895-1.535,1.338-2.305.047-.081.064-.145-.029-.221a7.22,7.22,0,0,0-1.8-1.158,5.845,5.845,0,0,0-3.235-.413,5.515,5.515,0,0,0-2.8,1.265c-.144.127-.37.208-.432.375-.08.218.18.352.274.533.351.675.784,1.305,1.091,2,0,.042,0,.085,0,.128" transform="translate(-28.456 -14.235)" fill="#e5e7eb"/>
        <path id="Trazado_819884" data-name="Trazado 819884" d="M111.789,15.857v10.17c0,.044,0,.089,0,.133-.01.292-.069.332-.317.186-.406-.238-.8-.489-1.207-.733a.362.362,0,0,1-.168-.355q.006-9.839,0-19.679c0-.177.031-.246.226-.239.414.016.83.016,1.244,0,.2-.007.227.063.226.239q-.009,3.549,0,7.1v3.178" transform="translate(-74.381 -3.609)" fill="#d1af8b"/>
        <path id="Trazado_819885" data-name="Trazado 819885" d="M16.012,15.146q0-4.767-.006-9.534c0-.22.052-.284.273-.273.414.019.83.011,1.244,0,.137,0,.2.034.178.176a1.41,1.41,0,0,0,0,.185q0,9.389.006,18.777c0,.268-.033.361-.341.376a6.026,6.026,0,0,0-1.121.092c-.195.047-.238-.03-.237-.215.008-1.015,0-2.03,0-3.045V15.146" transform="translate(-10.814 -3.606)" fill="#d1af8b"/>
        <path id="Trazado_819886" data-name="Trazado 819886" d="M79.515,132.068a1.189,1.189,0,0,1-.581-.1c-.745-.249-1.412-.677-2.143-.958a7.486,7.486,0,0,0-2.2-.487,8.82,8.82,0,0,0-1.957.077,4.875,4.875,0,0,0-1.55.506.847.847,0,0,1-.534.163c.195-.164.341-.292.491-.414.85-.691,1.637-1.453,2.457-2.177.574-.507,1.141-1.021,1.711-1.531l4.026-3.6c.641-.574,1.267-1.165,1.924-1.719a6.443,6.443,0,0,1,2.945-1.391,5.429,5.429,0,0,1,1.327-.13.442.442,0,0,1,.324.142c1.264,1.32,2.573,2.595,3.863,3.888.7.706,1.4,1.415,2.112,2.117.183.181.085.416.066.614a8.594,8.594,0,0,1-.4,1.647,5.893,5.893,0,0,1-1.012,1.843,1.667,1.667,0,0,0-.147.187c-.145.261-.314.278-.6.172a3.912,3.912,0,0,0-1.354-.326c-.132,0-.171-.078-.122-.193a4.043,4.043,0,0,0,.3-1.675A5.184,5.184,0,0,0,85,123.98a5.079,5.079,0,0,0-1.354-.232,4.825,4.825,0,0,0-4.3,2.01A4.713,4.713,0,0,0,78.3,129.27a4.951,4.951,0,0,0,1,2.519c.063.084.127.167.212.279" transform="translate(-47.665 -81.276)" fill="#e5e7eb"/>
        <path id="Trazado_819887" data-name="Trazado 819887" d="M128.017,115.931a1.308,1.308,0,0,1-.8,1.387,1.506,1.506,0,0,1-1.794-.281c-.588-.56-1.154-1.144-1.728-1.718q-2.62-2.624-5.242-5.246a1.679,1.679,0,0,1-.482-1.8,1.367,1.367,0,0,1,1.054-.906,1.708,1.708,0,0,1,1.641.5q2.522,2.536,5.055,5.06.9.9,1.8,1.8a1.4,1.4,0,0,1,.5,1.2" transform="translate(-79.639 -72.512)" fill="#f7e7a6"/>
        <path id="Trazado_819888" data-name="Trazado 819888" d="M102.936,136.021a3.313,3.313,0,0,1,3.145,1.961,3.223,3.223,0,0,1,.28,1.16,3.854,3.854,0,0,1-.311,1.8.386.386,0,0,1-.353.262,6.124,6.124,0,0,0-2.248.694,8,8,0,0,1-1.491.66.316.316,0,0,1-.224,0,3.4,3.4,0,0,1,.325-6.412,2.8,2.8,0,0,1,.878-.13" transform="translate(-67.291 -91.895)" fill="#d1af8b"/>
        <path id="Trazado_819889" data-name="Trazado 819889" d="M138.276,104.535c0,.078-.055.1-.091.136-.644.652-1.291,1.3-1.93,1.958-.116.119-.177.114-.291,0q-.532-.552-1.091-1.076c-.14-.131-.1-.2.014-.314.487-.472.968-.951,1.449-1.429.172-.17.287-.394.513-.515.076-.041.115-.085.2,0,.388.4.783.784,1.176,1.176a.584.584,0,0,1,.055.072" transform="translate(-91.059 -69.75)" fill="#f7e7a6"/>
        <path id="Trazado_819890" data-name="Trazado 819890" d="M146.141,112.423a1.03,1.03,0,0,0-.129.1c-.633.639-1.267,1.277-1.9,1.922-.112.115-.186.154-.319.016-.355-.369-.721-.727-1.092-1.079-.123-.117-.106-.186.006-.3.489-.472.969-.952,1.452-1.43.178-.176.3-.408.533-.534.068-.037.108-.074.177,0,.4.4.8.8,1.195,1.2a.782.782,0,0,1,.071.112" transform="translate(-96.354 -75.042)" fill="#f7e7a6"/>
        <path id="Trazado_819891" data-name="Trazado 819891" d="M12.466,82.831c-.485,0-.97-.011-1.454.005-.209.007-.268-.061-.228-.253a1.668,1.668,0,0,1,1.535-1.435,1.7,1.7,0,0,1,1.791,1.223c.128.448.119.461-.349.461h-1.3" transform="translate(-7.278 -54.817)" fill="#f7e7a6"/>
        <path id="Trazado_819892" data-name="Trazado 819892" d="M26.466,125.564a5.1,5.1,0,0,1,9.436-2.785c.121.183.105.263-.111.365q-4.314,2.027-8.618,4.075c-.3.144-.409.112-.486-.222a4.923,4.923,0,0,1-.221-1.433" transform="translate(-17.876 -81.321)" fill="#f7e7a6"/>
        <path id="Trazado_819893" data-name="Trazado 819893" d="M20.305,103.739c-.485,0-.97-.011-1.454.005-.209.007-.269-.061-.228-.253a1.668,1.668,0,0,1,1.535-1.435,1.7,1.7,0,0,1,1.791,1.223c.128.448.119.461-.348.461h-1.3" transform="translate(-12.574 -68.943)" fill="#f7e7a6"/>
        <path id="Trazado_819894" data-name="Trazado 819894" d="M69.955,108.984c-.493,0-.987-.01-1.48,0-.2.006-.226-.078-.2-.234A1.658,1.658,0,0,1,69.9,107.3a1.692,1.692,0,0,1,1.759,1.434c.026.185-.007.263-.224.255-.493-.019-.987-.006-1.48-.006" transform="translate(-46.122 -72.492)" fill="#f7e7a6"/>
        <path id="Trazado_819895" data-name="Trazado 819895" d="M90.876,85.464c-.493,0-.987-.007-1.48,0-.172,0-.244-.042-.212-.22A1.659,1.659,0,0,1,90.8,83.782a1.693,1.693,0,0,1,1.773,1.446c.022.176-.012.248-.212.241-.493-.015-.987,0-1.48-.005" transform="translate(-60.247 -56.602)" fill="#f7e7a6"/>
        <path id="Trazado_819896" data-name="Trazado 819896" d="M50.494,30.486c-.307-.7-.74-1.33-1.091-2-.094-.181-.354-.315-.274-.533.061-.167.288-.248.432-.375a5.513,5.513,0,0,1,2.8-1.265,5.845,5.845,0,0,1,3.235.413,7.22,7.22,0,0,1,1.8,1.158c.092.075.076.139.029.221-.444.769-.88,1.544-1.338,2.305-.1.165-.048.193.091.213a1.614,1.614,0,0,0,.238,0c.751,0,1.5-.011,2.252-.012.4,0,.411,0,.454.388a9.244,9.244,0,0,1,.1,1.19,6.294,6.294,0,0,1-.162,1.416,5.976,5.976,0,0,1-1.008,2.115,5.63,5.63,0,0,1-2.028,1.706,9,9,0,0,1-.97.438.214.214,0,0,1-.313-.119c-.4-.732-.822-1.457-1.273-2.161-.155-.242-.177-.243-.325.006-.414.7-.829,1.393-1.232,2.1-.107.187-.2.239-.416.144a8.671,8.671,0,0,1-1.669-.843,6.252,6.252,0,0,1-1.992-2.545,6.177,6.177,0,0,1-.462-2.878c.012-.273.07-.545.1-.817.017-.141.12-.128.214-.128l2.3-.007c.167,0,.335,0,.5,0,.042.019.08.021.092-.034s-.044-.075-.087-.093m-1.065,1.8c-.4,0-.415.015-.371.419.009.085.045.166.062.25a4.311,4.311,0,0,0,1.738,2.71c.154.113.226.115.321-.053.2-.352.4-.7.623-1.041.127-.191.127-.3-.07-.445a2.292,2.292,0,0,1-.917-1.6c-.026-.205-.115-.24-.285-.238-.367,0-.733,0-1.1,0m7.227,0v0c-.212,0-.424.009-.635,0-.164-.009-.235.029-.244.213a1.8,1.8,0,0,1-.123.583,2.6,2.6,0,0,1-.884,1.131c-.081.06-.136.092-.069.2q.363.6.712,1.205a.171.171,0,0,0,.283.064,3.953,3.953,0,0,0,1.782-2.968c.05-.507.088-.416-.4-.424-.141,0-.282,0-.424,0m-1.389-3.772c0-.125-.082-.144-.156-.176a4.247,4.247,0,0,0-1.181-.316,4.561,4.561,0,0,0-2.513.322c-.146.066-.158.113-.054.266A8.039,8.039,0,0,1,52,29.739c.078.17.149.191.288.133a2.5,2.5,0,0,1,1.963-.016c.186.075.268.02.352-.137.191-.357.4-.706.594-1.059.03-.053.056-.108.074-.142m-2.035,2.86a.743.743,0,0,0-.785.808.818.818,0,0,0,.853.843.808.808,0,0,0,.84-.8.79.79,0,0,0-.908-.853" transform="translate(-31.994 -17.723)"/>
        <path id="Trazado_819897" data-name="Trazado 819897" d="M57.019,39.342c.043.018.1.024.087.093s-.05.053-.092.034c0-.042,0-.085,0-.128" transform="translate(-38.519 -26.579)" fill="#d1af8b"/>
        <path id="Trazado_819898" data-name="Trazado 819898" d="M52.937,44.891c.367,0,.733,0,1.1,0,.17,0,.26.033.285.238a2.293,2.293,0,0,0,.917,1.6c.2.148.2.254.07.445-.224.336-.424.689-.623,1.041-.095.168-.166.165-.321.053a4.311,4.311,0,0,1-1.738-2.71c-.017-.084-.053-.166-.062-.25-.043-.4-.028-.418.371-.419" transform="translate(-35.502 -30.327)" fill="#ffc81a"/>
        <path id="Trazado_819899" data-name="Trazado 819899" d="M71.893,44.886c.141,0,.283,0,.424,0,.487.009.449-.083.4.424a3.954,3.954,0,0,1-1.782,2.968.171.171,0,0,1-.283-.064q-.35-.606-.712-1.205c-.067-.11-.012-.142.068-.2a2.6,2.6,0,0,0,.884-1.131,1.8,1.8,0,0,0,.123-.583c.009-.184.079-.223.243-.213.211.012.423,0,.635,0v0" transform="translate(-47.231 -30.319)" fill="#ffc81a"/>
        <path id="Trazado_819900" data-name="Trazado 819900" d="M63.466,32.151c-.018.035-.044.09-.074.142-.2.353-.4.7-.594,1.059-.084.157-.166.212-.352.137a2.5,2.5,0,0,0-1.963.016c-.139.058-.21.037-.288-.133a8.007,8.007,0,0,0-.635-1.125c-.1-.153-.091-.2.054-.266a4.561,4.561,0,0,1,2.513-.322,4.258,4.258,0,0,1,1.181.316c.074.032.153.051.156.176" transform="translate(-40.193 -21.357)" fill="#ffc81a"/>
        <path id="Trazado_819901" data-name="Trazado 819901" d="M63.834,42.092a.79.79,0,0,1,.908.853.808.808,0,0,1-.84.8.818.818,0,0,1-.853-.843.743.743,0,0,1,.785-.808" transform="translate(-42.596 -28.437)" fill="#d1af8b"/>
      </g>
    </g>
  </g>
</svg>
