<svg xmlns="http://www.w3.org/2000/svg" xmlns:xlink="http://www.w3.org/1999/xlink" width="57" height="57" viewBox="0 0 57 57">
  <defs>
    <clipPath id="clip-path">
      <rect id="Rect치ngulo_377528" data-name="Rect치ngulo 377528" width="57" height="57" transform="translate(1090 1768.81)" fill="#fff" stroke="#707070" stroke-width="1"/>
    </clipPath>
    <clipPath id="clip-path-2">
      <rect id="Rect치ngulo_377512" data-name="Rect치ngulo 377512" width="52.337" height="55.864" fill="none"/>
    </clipPath>
  </defs>
  <g id="Enmascarar_grupo_335" data-name="Enmascarar grupo 335" transform="translate(-1090 -1768.81)" clip-path="url(#clip-path)">
    <g id="Grupo_1073254" data-name="Grupo 1073254" transform="translate(1092.001 1769.811)">
      <g id="Grupo_1073253" data-name="Grupo 1073253" clip-path="url(#clip-path-2)">
        <path id="Trazado_819992" data-name="Trazado 819992" d="M40.42,16.812A4.378,4.378,0,0,1,39.2,19.584a4.078,4.078,0,0,1-2.6,1.255c-.088.008-.175.041-.263.048-.567.039-.546.051-.651.612a8.718,8.718,0,0,1-3.243,5.758.455.455,0,0,0-.211.406c.005.782.008,1.564-.006,2.345,0,.2.122.233.244.262.571.137,1.11.37,1.67.535s1.1.41,1.658.605c.983.346,1.966.7,2.926,1.1.59.251,1.167.528,1.741.824a.288.288,0,0,0-.038-.312,15.316,15.316,0,0,1-1.244-2.407,11.718,11.718,0,0,1-.76-2.322,3.93,3.93,0,0,1,.407-2.383,7.413,7.413,0,0,1,3.33-3.5,3.074,3.074,0,0,1,3.065-.1,4.527,4.527,0,0,1,1.662,1.91,16.426,16.426,0,0,1,1.1,2.484c.173.495.312,1,.476,1.531a3.415,3.415,0,0,1,1.5-.767,1.953,1.953,0,0,1,2.37,1.8,4.325,4.325,0,0,1-.723,2.231c-.494.868-1.1,1.671-1.536,2.573a8.063,8.063,0,0,0-.809,2.762c-.049.516-.07,1.029-.068,1.548q.018,7.786,0,15.572a5.994,5.994,0,0,1-.03,1.241.67.67,0,0,1-.562.594c-.225.012-.442.068-.668.068q-21.783-.005-43.566,0a1.554,1.554,0,0,1-.732-.1.95.95,0,0,1-.484-.829c.065-.058.047-.111-.007-.164.008-.217.023-.434.023-.651q0-8.086,0-16.172a8.85,8.85,0,0,0-.666-3.43,21.881,21.881,0,0,0-1.479-2.584,8.9,8.9,0,0,1-.954-1.983,1.99,1.99,0,0,1,2.246-2.5,2.987,2.987,0,0,1,1.577.777c.2-.562.373-1.108.574-1.645a11.4,11.4,0,0,1,1.788-3.5,2.845,2.845,0,0,1,1.671-1.079,3.169,3.169,0,0,1,1.5.085,6.786,6.786,0,0,1,4.241,4.139,4.2,4.2,0,0,1,.051,3.022,17.94,17.94,0,0,1-1.785,3.831c-.036.058-.079.127-.034.168.077.071.164.009.245-.029.948-.454,1.9-.89,2.888-1.258,1.022-.382,2.044-.765,3.072-1.132.612-.219,1.232-.417,1.854-.6a.221.221,0,0,0,.193-.259q-.011-1.172,0-2.345a.376.376,0,0,0-.149-.326,8.033,8.033,0,0,1-2.6-3.378,14.022,14.022,0,0,1-.485-1.505A7.312,7.312,0,0,1,16.586,21c-.007-.174-.167-.109-.259-.1a3.949,3.949,0,0,1-2.113-.546,4.443,4.443,0,0,1-1.855-2.029,3.921,3.921,0,0,1-.4-2.211,4.119,4.119,0,0,1,1.62-2.925,5.683,5.683,0,0,1,.871-.545c.085-.043.173-.091.1-.194a2.324,2.324,0,0,1-.292-.8,5.905,5.905,0,0,1-.152-1.908A7.236,7.236,0,0,1,14.53,7.7a12.224,12.224,0,0,1,1.69-3.259,13.085,13.085,0,0,1,1.434-1.663A9.473,9.473,0,0,1,22.1.375a11.671,11.671,0,0,1,3.119-.37A13.123,13.123,0,0,1,27.95.35a7.161,7.161,0,0,1,.955.282,7.122,7.122,0,0,1,1.365.718c.374.262.747.525,1.131.772a.964.964,0,0,0,.564.113,3.037,3.037,0,0,1,.9.111,5.531,5.531,0,0,1,1.621.586A5.9,5.9,0,0,1,36.138,4.4a9.129,9.129,0,0,1,1.2,2.118,9.184,9.184,0,0,1,.553,1.833,8.839,8.839,0,0,1,.155,2.351,5.712,5.712,0,0,1-.375,1.685c-.06.136.066.147.132.186a6.734,6.734,0,0,1,1.252.84,4.086,4.086,0,0,1,.993,1.393,4.568,4.568,0,0,1,.375,1.929l-.066.036.062.039M30.589,29.351q-.009-.277-.017-.555c.005,0,.015-.009.014-.01a.252.252,0,0,0-.016-.03c0-.079,0-.159,0-.238-.019-.052-.042-.046-.068-.005-.408.175-.812.361-1.226.522a.839.839,0,0,1-1.235-.453c-.061-.645.108-.85.695-1.082.1-.04.2-.078.3-.12a8.615,8.615,0,0,0,3.8-2.857,8.276,8.276,0,0,0,1.159-2.886,24.185,24.185,0,0,0,.5-2.469,12.782,12.782,0,0,1,.231-1.461c.08-.294-.014-.576.08-.871a11.1,11.1,0,0,0,.279-2c.029-.2.044-.4.091-.591s-.035-.221-.191-.234a3.305,3.305,0,0,1-1.051-.229,8.932,8.932,0,0,1-2.564-1.715A22.09,22.09,0,0,1,29.6,10.2a.348.348,0,0,0-.515-.09c-.61.373-1.176.812-1.778,1.2A23.832,23.832,0,0,1,23.034,13.5a12.717,12.717,0,0,1-2.859.77,7.406,7.406,0,0,1-2.933-.075,5.094,5.094,0,0,0,.1.969c.014.233.024.465.057.7.107.76.149,1.532.29,2.285.157.831.3,1.666.47,2.5A19.045,19.045,0,0,0,18.9,23.3a6.152,6.152,0,0,0,1.992,2.641A9.764,9.764,0,0,0,23.648,27.5c.331.124.644.288.69.689.013.114.044.224.053.338-.456.684-.676.753-1.465.435-.327-.132-.651-.277-.968-.431-.143-.069-.165-.043-.164.106.005.663,0,1.326,0,1.989a4.877,4.877,0,0,0,.353,1.872,4.4,4.4,0,0,0,8.315-.712,8.978,8.978,0,0,0,.138-2.114.674.674,0,0,0-.01-.322m-17.9,24.827c-.07-.415-.128-.831-.211-1.243-.133-.655-.237-1.316-.344-1.975-.113-.7-.25-1.388-.35-2.087-.117-.818-.283-1.629-.424-2.443-.124-.712-.238-1.426-.365-2.138-.067-.376-.119-.754-.2-1.129-.061-.277-.077-.585-.12-.879-.089-.615-.193-1.228-.29-1.842q-.157-.993-.313-1.986c-.064-.414-.144-.827-.179-1.244-.043-.5-.169-.992-.2-1.493a5.662,5.662,0,0,1,.024-1.455,6.552,6.552,0,0,1,.868-2.014,17.52,17.52,0,0,0,1.652-3.63,2.838,2.838,0,0,0,.056-1.425,4.231,4.231,0,0,0-.973-1.863,4.451,4.451,0,0,0-2.257-1.627,1.244,1.244,0,0,0-1.619.508,4.226,4.226,0,0,0-.5.746A17.135,17.135,0,0,0,5.57,28.43,15.038,15.038,0,0,0,5.2,29.907a.875.875,0,0,1-.582.75.767.767,0,0,1-.906-.292c-.143-.165-.274-.341-.424-.5a2.292,2.292,0,0,0-1.179-.778.344.344,0,0,0-.373.09.312.312,0,0,0-.053.373c.066.126.085.276.14.41A12.463,12.463,0,0,0,3.1,32.2a10.082,10.082,0,0,1,1.7,5.758c.012,5.3,0,10.6,0,15.9a1.357,1.357,0,0,1,0,.164c-.018.151.035.208.2.2.309-.012.618,0,.927,0l6.684-.012c.036.012.065.009.076-.034m13.525.043v0q5.8,0,11.595,0c.178,0,.257-.042.281-.232.064-.49.148-.977.231-1.465.16-.944.326-1.888.487-2.832q.488-2.851.974-5.7c.155-.921.3-1.843.445-2.765.2-1.242.4-2.484.589-3.728a16.352,16.352,0,0,0,.224-1.918c0-.1,0-.185-.121-.241-.362-.168-.713-.36-1.074-.531a62.3,62.3,0,0,0-7.333-2.832c-.4-.129-.387-.133-.48.267a6.026,6.026,0,0,1-6.989,4.429,5.924,5.924,0,0,1-4.7-4.549c-.06-.224-.153-.249-.341-.186-.455.153-.914.3-1.369.451a55.832,55.832,0,0,0-7.168,2.949.252.252,0,0,0-.15.323c.162.731.194,1.479.32,2.215.241,1.406.425,2.822.662,4.228.242,1.435.465,2.874.716,4.307.226,1.292.43,2.587.668,3.877.215,1.166.429,2.333.607,3.505.077.51.094.423.5.423q5.716,0,11.431,0m17.423.008v-.005c1.218,0,2.437-.009,3.655.007.264,0,.3-.084.3-.317q-.01-7.91,0-15.819a11.69,11.69,0,0,1,.25-2.493A9.956,9.956,0,0,1,49,32.688c.425-.729.94-1.4,1.316-2.161a2.752,2.752,0,0,0,.381-1.037c.022-.354-.129-.475-.478-.4a1.939,1.939,0,0,0-.793.461,5.667,5.667,0,0,0-.73.807.828.828,0,0,1-.835.338.88.88,0,0,1-.658-.713c-.122-.485-.226-.973-.364-1.455a18.888,18.888,0,0,0-1.055-2.923,5.57,5.57,0,0,0-1.063-1.636,1.173,1.173,0,0,0-.927-.357,3.036,3.036,0,0,0-1.69.728,5.629,5.629,0,0,0-1.9,2.444,2.279,2.279,0,0,0-.191,1.268,11.142,11.142,0,0,0,.718,2.106c.416.979.983,1.879,1.481,2.816a4.078,4.078,0,0,1,.52,2.045,10.22,10.22,0,0,1-.11,1.179c-.086.6-.158,1.206-.249,1.807-.111.739-.236,1.475-.352,2.213-.1.643-.2,1.287-.3,1.93-.116.722-.239,1.444-.357,2.166-.1.59-.165,1.185-.29,1.769-.121.566-.2,1.139-.3,1.707q-.215,1.251-.43,2.5c-.126.74-.234,1.483-.382,2.22-.094.469-.139.956-.25,1.421-.069.288.011.3.236.3,1.228-.005,2.455,0,3.683,0M15.715,10.339a3.051,3.051,0,0,0,.1.827A1.669,1.669,0,0,0,17.13,12.5a7.475,7.475,0,0,0,4.144-.141,18.124,18.124,0,0,0,3.711-1.578A23.42,23.42,0,0,0,28.007,8.9,2.144,2.144,0,0,1,29.2,8.4a1.971,1.971,0,0,1,1.7.814,16.468,16.468,0,0,0,1.983,2.023,4.436,4.436,0,0,0,1.947,1.1c.853.182,1.234-.05,1.46-.9A6,6,0,0,0,36.4,9.459a7.648,7.648,0,0,0-1.085-3.425A4.315,4.315,0,0,0,33.175,4.1a4.133,4.133,0,0,0-1.813-.282,1.085,1.085,0,0,1-.885-.332,5.926,5.926,0,0,0-1.647-1.106,8.557,8.557,0,0,0-3.66-.726,12.537,12.537,0,0,0-2.02.182,7.8,7.8,0,0,0-4.01,1.8,10.076,10.076,0,0,0-2.25,2.743,8.444,8.444,0,0,0-1.174,3.958m23.03,6.245a3.579,3.579,0,0,0-.021-.651A2.747,2.747,0,0,0,37.2,14.091a.579.579,0,0,0-.259-.074c-.107,0-.158.015-.163.144-.03.715-.152,1.421-.223,2.133-.053.532-.123,1.067-.2,1.6q-.084.573-.179,1.144c-.027.165.017.235.2.214a2.6,2.6,0,0,0,2.372-2.665M15.6,14.455l.016,0c0-.054-.006-.109-.009-.163-.014-.3-.063-.329-.345-.231a.981.981,0,0,0-.126.049,2.72,2.72,0,0,0,.768,5.145c.278.054.36-.052.3-.342a5.624,5.624,0,0,1-.148-.81c-.04-.635-.193-1.253-.236-1.888-.041-.588-.143-1.173-.218-1.759" transform="translate(0 0.001)"/>
        <path id="Trazado_819993" data-name="Trazado 819993" d="M14.188,250.19c.055.052.073.106.007.164-.094-.051-.09-.105-.007-.164" transform="translate(-11.033 -195.42)" fill="#838282"/>
        <path id="Trazado_819994" data-name="Trazado 819994" d="M184.416,76.534l-.062-.039.066-.035c0,.025,0,.05,0,.075" transform="translate(-143.996 -59.721)" fill="#838282"/>
        <path id="Trazado_819995" data-name="Trazado 819995" d="M66.508,168.054q-5.716,0-11.431,0c-.4,0-.421.087-.5-.423-.178-1.172-.391-2.339-.607-3.505-.238-1.29-.442-2.585-.668-3.877-.251-1.433-.474-2.872-.716-4.307-.237-1.407-.421-2.823-.662-4.229-.126-.736-.158-1.485-.32-2.215a.252.252,0,0,1,.15-.323,55.8,55.8,0,0,1,7.168-2.949c.455-.155.914-.3,1.369-.452.188-.063.281-.038.341.186a5.923,5.923,0,0,0,4.7,4.549,6.026,6.026,0,0,0,6.989-4.429c.093-.4.083-.4.48-.267a62.3,62.3,0,0,1,7.333,2.832c.361.171.712.363,1.074.531.121.056.124.138.121.241a16.3,16.3,0,0,1-.224,1.918c-.187,1.244-.391,2.486-.589,3.728-.147.922-.29,1.844-.445,2.765q-.481,2.853-.974,5.7c-.162.944-.327,1.888-.487,2.832-.083.487-.167.975-.231,1.465-.025.19-.1.232-.281.232q-5.8-.007-11.595,0Z" transform="translate(-40.299 -113.832)" fill="#e0626d"/>
        <path id="Trazado_819996" data-name="Trazado 819996" d="M86.278,68.771c-.009-.114-.04-.224-.053-.338-.045-.4-.359-.565-.69-.689a9.759,9.759,0,0,1-2.755-1.556,6.151,6.151,0,0,1-1.992-2.641,18.992,18.992,0,0,1-.738-2.659c-.173-.829-.314-1.664-.47-2.5-.142-.753-.183-1.525-.291-2.285-.033-.233-.043-.465-.057-.7a6.75,6.75,0,0,1,.762.011,7.65,7.65,0,0,0,2.111-.039,16.055,16.055,0,0,0,2.13-.5,21.08,21.08,0,0,0,4.421-1.99c.628-.359,1.245-.739,1.839-1.157a.707.707,0,0,1,1.1.116,13.987,13.987,0,0,0,2.85,2.42,4.807,4.807,0,0,0,2.524.815,11.1,11.1,0,0,1-.279,2c-.093.3,0,.577-.079.871a12.833,12.833,0,0,0-.231,1.461,24.191,24.191,0,0,1-.5,2.469,8.279,8.279,0,0,1-1.158,2.886,8.618,8.618,0,0,1-3.8,2.858c-.1.042-.2.079-.3.119-.586.231-.755.436-.695,1.082a.825.825,0,0,0-.317.062,5.51,5.51,0,0,1-2.3.158,6.519,6.519,0,0,1-1.03-.273m1.836-8.337a2.239,2.239,0,0,0-1.392.312,2.874,2.874,0,0,0-1.27,1.477,2.418,2.418,0,0,0-.209.776c-.022.488.273.658.669.843a1.028,1.028,0,0,0,.827-.366c.056-.086.146-.154.144-.281a1.107,1.107,0,0,1,.491-.93,1.354,1.354,0,0,1,2.084.807.821.821,0,1,0,1.588-.362,2.838,2.838,0,0,0-2.116-2.21c-.106-.027-.154-.172-.252-.121-.185.1-.375.009-.564.055M82.81,57.7a1.734,1.734,0,0,0,.664-.112,3.641,3.641,0,0,0,1.516-.764.9.9,0,0,0,.336-.77.809.809,0,0,0-1.339-.507,2.275,2.275,0,0,1-1.223.528.856.856,0,0,0-.8.935.912.912,0,0,0,.843.69m11.273-.8a.743.743,0,0,0-.547-.777,3.061,3.061,0,0,1-1.463-.626.79.79,0,0,0-.991,1.231,3.827,3.827,0,0,0,2.037.963.8.8,0,0,0,.965-.791" transform="translate(-61.888 -40.241)" fill="#f0c69e"/>
        <path id="Trazado_819997" data-name="Trazado 819997" d="M185.243,138.486c-1.228,0-2.455,0-3.683,0-.225,0-.305-.007-.236-.3.111-.465.156-.952.25-1.421.148-.737.256-1.48.382-2.22q.213-1.252.43-2.5c.1-.568.178-1.141.3-1.707.125-.584.194-1.179.29-1.769.118-.722.242-1.443.357-2.166.1-.642.2-1.287.3-1.929.116-.738.241-1.475.352-2.213.09-.6.163-1.2.249-1.807a10.276,10.276,0,0,0,.11-1.179,4.073,4.073,0,0,0-.52-2.045c-.5-.937-1.065-1.837-1.481-2.816a11.147,11.147,0,0,1-.718-2.106,2.279,2.279,0,0,1,.191-1.268,5.628,5.628,0,0,1,1.9-2.444,3.039,3.039,0,0,1,1.69-.728,1.173,1.173,0,0,1,.927.357,5.567,5.567,0,0,1,1.063,1.636,18.938,18.938,0,0,1,1.055,2.923c.138.482.243.971.364,1.455a.88.88,0,0,0,.658.713.828.828,0,0,0,.835-.338,5.656,5.656,0,0,1,.73-.807,1.938,1.938,0,0,1,.793-.461c.349-.078.5.042.478.4a2.749,2.749,0,0,1-.381,1.037c-.376.758-.891,1.432-1.316,2.161a9.956,9.956,0,0,0-1.161,2.914,11.678,11.678,0,0,0-.25,2.493q0,7.909,0,15.819c0,.234-.038.321-.3.317-1.218-.016-2.437-.007-3.656-.007Zm-.629-28a.871.871,0,0,0,.756.823.839.839,0,0,0,.874-.808.815.815,0,1,0-1.631-.014m1.4,24.608c-.546,0-.852.268-.853.755a.85.85,0,0,0,.82.825.791.791,0,0,0,.811-.793.767.767,0,0,0-.778-.787m1.015-5.564a.718.718,0,0,0-.783.754.855.855,0,0,0,.763.858.838.838,0,0,0,.824-.819.728.728,0,0,0-.8-.792m1.439-11.838a.774.774,0,0,0,.842-.726.8.8,0,0,0-.824-.861.844.844,0,0,0-.81.791.793.793,0,0,0,.792.8m-2.476,3.339a.762.762,0,0,0,.8-.8.778.778,0,0,0-.787-.792.8.8,0,0,0-.841.8.862.862,0,0,0,.831.8m-1.739,12.644a.792.792,0,1,0-.729-.807.714.714,0,0,0,.729.807m3.909-9.066a.757.757,0,0,0-.779-.817.8.8,0,1,0,.779.817m-3.716-9.6a.8.8,0,0,0,.685.825.82.82,0,0,0,.793-.824.756.756,0,0,0-.784-.758.693.693,0,0,0-.694.756M185,127.958a.782.782,0,0,0,.75-.817.737.737,0,1,0-1.472.02.8.8,0,0,0,.722.8" transform="translate(-141.611 -84.256)" fill="#f0c69e"/>
        <path id="Trazado_819998" data-name="Trazado 819998" d="M18.452,138.426l-6.684.012c-.309,0-.619-.009-.928,0-.16.007-.213-.051-.195-.2a1.357,1.357,0,0,0,0-.164c0-5.3.008-10.6,0-15.9a10.082,10.082,0,0,0-1.7-5.758,12.47,12.47,0,0,1-1.28-2.242c-.055-.134-.074-.283-.14-.41a.312.312,0,0,1,.053-.373.344.344,0,0,1,.373-.09,2.292,2.292,0,0,1,1.18.778c.151.157.282.333.424.5a.768.768,0,0,0,.906.292.874.874,0,0,0,.581-.75,15.085,15.085,0,0,1,.373-1.477,17.127,17.127,0,0,1,1.366-3.468,4.259,4.259,0,0,1,.5-.746,1.244,1.244,0,0,1,1.619-.508,4.451,4.451,0,0,1,2.257,1.627,4.231,4.231,0,0,1,.973,1.863,2.84,2.84,0,0,1-.056,1.424,17.533,17.533,0,0,1-1.653,3.63,6.551,6.551,0,0,0-.867,2.014,5.643,5.643,0,0,0-.024,1.455c.032.5.158.991.2,1.493.035.417.115.83.179,1.244q.154.993.313,1.986c.1.614.2,1.227.29,1.842.043.293.059.6.12.878.083.375.135.753.2,1.129.127.712.241,1.425.365,2.138.141.814.308,1.625.424,2.443.1.7.237,1.391.35,2.087.107.658.211,1.32.344,1.975.084.412.142.829.211,1.243l-.076.034M13.894,120.98a.748.748,0,0,0,.839-.781.816.816,0,1,0-.839.781m-.3,9.292c0-.523-.3-.786-.876-.782a.7.7,0,0,0-.709.757.782.782,0,0,0,.785.826.766.766,0,0,0,.8-.8m1.937,3.374a.765.765,0,0,0,.793-.81.774.774,0,0,0-.815-.786.824.824,0,0,0-.82.8.89.89,0,0,0,.842.794m-.854-19.431a.759.759,0,0,0-.809.759.863.863,0,0,0,.746.822.821.821,0,0,0,.848-.874.729.729,0,0,0-.784-.708m-2.237,11.131a.8.8,0,1,0-.045-1.591.77.77,0,0,0-.716.824.82.82,0,0,0,.761.767m1.467,9.708a.782.782,0,0,0-.853.75.87.87,0,0,0,.836.831.825.825,0,0,0,.79-.778.8.8,0,0,0-.773-.8m1.706-7.941a.768.768,0,0,0-.8-.8.793.793,0,0,0-.786.8.922.922,0,0,0,.771.842.821.821,0,0,0,.811-.848M12.12,116.86a.774.774,0,0,0-.8-.795.783.783,0,0,0-.78.8.807.807,0,0,0,.828.786.717.717,0,0,0,.751-.793m3.056-6.4a.736.736,0,0,0-.736-.815.781.781,0,0,0-.733.793.879.879,0,0,0,.712.836.791.791,0,0,0,.757-.814" transform="translate(-5.844 -84.213)" fill="#f0c69e"/>
        <path id="Trazado_819999" data-name="Trazado 819999" d="M71.776,16.237a8.45,8.45,0,0,1,1.174-3.958A10.072,10.072,0,0,1,75.2,9.536a7.8,7.8,0,0,1,4.01-1.8,12.488,12.488,0,0,1,2.02-.182,8.555,8.555,0,0,1,3.66.726,5.92,5.92,0,0,1,1.647,1.106,1.086,1.086,0,0,0,.885.332A4.133,4.133,0,0,1,89.235,10a4.313,4.313,0,0,1,2.139,1.935,7.653,7.653,0,0,1,1.085,3.425,5.993,5.993,0,0,1-.11,1.983c-.226.847-.607,1.079-1.46.9a4.435,4.435,0,0,1-1.948-1.1,16.484,16.484,0,0,1-1.983-2.023,1.971,1.971,0,0,0-1.7-.814,2.143,2.143,0,0,0-1.194.5,23.42,23.42,0,0,1-3.023,1.88,18.143,18.143,0,0,1-3.711,1.578,7.477,7.477,0,0,1-4.144.141,1.669,1.669,0,0,1-1.315-1.335,3.051,3.051,0,0,1-.1-.827" transform="translate(-56.061 -5.897)" fill="#838282"/>
        <path id="Trazado_820000" data-name="Trazado 820000" d="M102.144,130.207a6.544,6.544,0,0,0,1.03.273,5.518,5.518,0,0,0,2.3-.158.821.821,0,0,1,.317-.062.839.839,0,0,0,1.235.454c.414-.162.817-.347,1.226-.522l.069.005q0,.119,0,.238a.029.029,0,0,0,0,.041q.009.277.018.554a.339.339,0,0,0,.01.322,8.98,8.98,0,0,1-.138,2.114,4.4,4.4,0,0,1-8.315.712,4.878,4.878,0,0,1-.353-1.872c0-.663.005-1.326,0-1.99,0-.149.021-.175.164-.106.318.154.641.3.968.431.789.318,1.01.249,1.465-.435" transform="translate(-77.754 -101.677)" fill="#e2ae84"/>
        <path id="Trazado_820001" data-name="Trazado 820001" d="M96.6,50.647a4.807,4.807,0,0,1-2.524-.815,13.994,13.994,0,0,1-2.85-2.42.707.707,0,0,0-1.1-.116c-.594.418-1.211.8-1.838,1.157a21.082,21.082,0,0,1-4.421,1.99,16.01,16.01,0,0,1-2.13.5,7.658,7.658,0,0,1-2.111.039,6.751,6.751,0,0,0-.762-.011,5.094,5.094,0,0,1-.1-.969,7.411,7.411,0,0,0,2.933.075,12.726,12.726,0,0,0,2.859-.77,23.834,23.834,0,0,0,4.277-2.191c.6-.387,1.168-.825,1.778-1.2a.348.348,0,0,1,.515.09,22.089,22.089,0,0,0,1.763,1.867,8.925,8.925,0,0,0,2.564,1.715,3.309,3.309,0,0,0,1.051.229c.156.012.236.05.191.234s-.062.394-.091.591" transform="translate(-61.519 -35.808)" fill="#e2ae84"/>
        <path id="Trazado_820002" data-name="Trazado 820002" d="M167.788,66.6a2.6,2.6,0,0,1-2.372,2.665c-.182.021-.226-.049-.2-.214q.095-.571.179-1.144c.078-.532.148-1.066.2-1.6.071-.711.193-1.418.223-2.133.005-.129.057-.145.163-.144a.582.582,0,0,1,.259.074,2.747,2.747,0,0,1,1.525,1.843,3.578,3.578,0,0,1,.021.651" transform="translate(-129.042 -50.014)" fill="#e2ae84"/>
        <path id="Trazado_820003" data-name="Trazado 820003" d="M64.027,64.442c.075.586.178,1.171.218,1.759.044.635.2,1.253.236,1.888a5.624,5.624,0,0,0,.148.81c.062.29-.02.4-.3.342a2.72,2.72,0,0,1-.768-5.145.981.981,0,0,1,.126-.049c.282-.1.331-.066.345.231,0,.054.006.109.009.163Z" transform="translate(-48.431 -49.986)" fill="#e2ae84"/>
        <path id="Trazado_820004" data-name="Trazado 820004" d="M139.612,134.4a.339.339,0,0,1-.01-.322.677.677,0,0,1,.01.322" transform="translate(-109.013 -104.728)" fill="#838282"/>
        <path id="Trazado_820005" data-name="Trazado 820005" d="M139.617,131.4a.029.029,0,0,1,0-.041.3.3,0,0,1,.016.03s-.01.007-.015.01" transform="translate(-109.045 -102.604)" fill="#838282"/>
        <path id="Trazado_820006" data-name="Trazado 820006" d="M139.388,130.142l-.069-.005c.026-.04.05-.047.069.005" transform="translate(-108.82 -101.623)" fill="#838282"/>
        <path id="Trazado_820007" data-name="Trazado 820007" d="M57.593,247.522l.076-.034c-.011.043-.04.046-.076.034" transform="translate(-44.985 -193.309)" fill="#e2ae84"/>
        <path id="Trazado_820008" data-name="Trazado 820008" d="M109.553,92.005c.189-.047.379.04.564-.055.1-.05.145.094.252.121a2.838,2.838,0,0,1,2.116,2.209.821.821,0,1,1-1.588.362,1.354,1.354,0,0,0-2.084-.807,1.107,1.107,0,0,0-.491.929c0,.127-.087.2-.144.281a1.028,1.028,0,0,1-.827.366c-.4-.184-.691-.355-.669-.843a2.419,2.419,0,0,1,.209-.776,2.874,2.874,0,0,1,1.27-1.477,2.24,2.24,0,0,1,1.392-.312" transform="translate(-83.327 -71.813)"/>
        <path id="Trazado_820009" data-name="Trazado 820009" d="M92.546,71.354a.912.912,0,0,1-.843-.69.856.856,0,0,1,.8-.935,2.275,2.275,0,0,0,1.223-.527.809.809,0,0,1,1.339.507.9.9,0,0,1-.336.77,3.638,3.638,0,0,1-1.516.764,1.738,1.738,0,0,1-.664.111" transform="translate(-71.624 -53.897)"/>
        <path id="Trazado_820010" data-name="Trazado 820010" d="M135.377,70.539a.8.8,0,0,1-.965.791,3.827,3.827,0,0,1-2.037-.963.79.79,0,0,1,.991-1.231,3.061,3.061,0,0,0,1.463.626.743.743,0,0,1,.547.777" transform="translate(-103.182 -53.88)"/>
        <path id="Trazado_820011" data-name="Trazado 820011" d="M196.437,116.937a.816.816,0,1,1,1.631.015.84.84,0,0,1-.875.808.872.872,0,0,1-.757-.823" transform="translate(-153.434 -90.703)"/>
        <path id="Trazado_820012" data-name="Trazado 820012" d="M199.776,232.248a.767.767,0,0,1,.778.787.791.791,0,0,1-.811.793.85.85,0,0,1-.82-.825c0-.488.307-.757.853-.755" transform="translate(-155.376 -181.406)"/>
        <path id="Trazado_820013" data-name="Trazado 820013" d="M204.663,206.83a.728.728,0,0,1,.8.793.838.838,0,0,1-.825.819.855.855,0,0,1-.763-.858.719.719,0,0,1,.783-.754" transform="translate(-159.248 -161.552)"/>
        <path id="Trazado_820014" data-name="Trazado 820014" d="M211.2,147.092a.793.793,0,0,1-.792-.8.844.844,0,0,1,.81-.791.8.8,0,0,1,.824.861.774.774,0,0,1-.842.725" transform="translate(-164.344 -113.652)"/>
        <path id="Trazado_820015" data-name="Trazado 820015" d="M199.751,162.319a.862.862,0,0,1-.831-.8.8.8,0,0,1,.841-.8.779.779,0,0,1,.787.792.763.763,0,0,1-.8.8" transform="translate(-155.374 -125.539)"/>
        <path id="Trazado_820016" data-name="Trazado 820016" d="M192.17,220.125a.714.714,0,0,1-.729-.807.765.765,0,0,1,.771-.775.792.792,0,1,1-.041,1.582" transform="translate(-149.532 -170.701)"/>
        <path id="Trazado_820017" data-name="Trazado 820017" d="M206.979,181.44a.774.774,0,0,1-.786.781.8.8,0,1,1,.007-1.6.757.757,0,0,1,.779.817" transform="translate(-160.432 -141.082)"/>
        <path id="Trazado_820018" data-name="Trazado 820018" d="M195.654,137.812a.694.694,0,0,1,.695-.756.755.755,0,0,1,.784.758.82.82,0,0,1-.793.824.8.8,0,0,1-.685-.825" transform="translate(-152.822 -107.052)"/>
        <path id="Trazado_820019" data-name="Trazado 820019" d="M195.632,193.974a.8.8,0,0,1-.722-.8.737.737,0,1,1,1.472-.02.782.782,0,0,1-.75.817" transform="translate(-152.241 -150.272)"/>
        <path id="Trazado_820020" data-name="Trazado 820020" d="M33.95,162.312a.791.791,0,1,1,.839-.781.748.748,0,0,1-.839.781" transform="translate(-25.899 -125.545)"/>
        <path id="Trazado_820021" data-name="Trazado 820021" d="M29.745,207.611a.766.766,0,0,1-.8.8.782.782,0,0,1-.785-.826.7.7,0,0,1,.709-.757c.576,0,.871.259.876.782" transform="translate(-21.995 -161.552)"/>
        <path id="Trazado_820022" data-name="Trazado 820022" d="M41.241,220.122a.889.889,0,0,1-.842-.794.824.824,0,0,1,.82-.8.774.774,0,0,1,.815.786.765.765,0,0,1-.793.81" transform="translate(-31.554 -170.687)"/>
        <path id="Trazado_820023" data-name="Trazado 820023" d="M37.457,137.024a.729.729,0,0,1,.784.708.821.821,0,0,1-.848.874.863.863,0,0,1-.746-.822.76.76,0,0,1,.809-.759" transform="translate(-28.625 -107.02)"/>
        <path id="Trazado_820024" data-name="Trazado 820024" d="M27.408,182.209a.819.819,0,0,1-.761-.767.77.77,0,0,1,.716-.823.8.8,0,1,1,.045,1.59" transform="translate(-20.812 -141.075)"/>
        <path id="Trazado_820025" data-name="Trazado 820025" d="M33.785,232.248a.8.8,0,0,1,.773.8.825.825,0,0,1-.789.778.87.87,0,0,1-.836-.831.781.781,0,0,1,.853-.75" transform="translate(-25.722 -181.406)"/>
        <path id="Trazado_820026" data-name="Trazado 820026" d="M38.978,193.135a.822.822,0,0,1-.811.849.922.922,0,0,1-.771-.842.793.793,0,0,1,.786-.8.768.768,0,0,1,.8.8" transform="translate(-29.209 -150.233)"/>
        <path id="Trazado_820027" data-name="Trazado 820027" d="M23.037,146.3a.717.717,0,0,1-.751.793.807.807,0,0,1-.828-.786.783.783,0,0,1,.78-.8.773.773,0,0,1,.8.795" transform="translate(-16.76 -113.649)"/>
        <path id="Trazado_820028" data-name="Trazado 820028" d="M37.384,116.969a.791.791,0,0,1-.757.814.879.879,0,0,1-.712-.836.781.781,0,0,1,.733-.793.736.736,0,0,1,.736.815" transform="translate(-28.052 -90.726)"/>
      </g>
    </g>
  </g>
</svg>
