<svg xmlns="http://www.w3.org/2000/svg" xmlns:xlink="http://www.w3.org/1999/xlink" width="57" height="57" viewBox="0 0 57 57">
  <defs>
    <clipPath id="clip-path">
      <rect id="Rect치ngulo_377527" data-name="Rect치ngulo 377527" width="57" height="57" transform="translate(1089 1621.811)" fill="#fff" stroke="#707070" stroke-width="1"/>
    </clipPath>
    <clipPath id="clip-path-2">
      <rect id="Rect치ngulo_377511" data-name="Rect치ngulo 377511" width="51.949" height="51.953" fill="none"/>
    </clipPath>
  </defs>
  <g id="Enmascarar_grupo_334" data-name="Enmascarar grupo 334" transform="translate(-1089 -1621.811)" clip-path="url(#clip-path)">
    <g id="Grupo_1073252" data-name="Grupo 1073252" transform="translate(1092 1624.811)">
      <g id="Grupo_1073251" data-name="Grupo 1073251" clip-path="url(#clip-path-2)">
        <path id="Trazado_819962" data-name="Trazado 819962" d="M17.8,38.071c0-1.04,0-2.08.013-3.12a.526.526,0,0,0-.181-.417,14.454,14.454,0,0,1-1.282-1.324,11.523,11.523,0,0,1-1.781-2.866,6,6,0,0,1-.411-1.636c-.011-.115-.06-.221-.061-.341a.142.142,0,0,0-.14-.137,4.394,4.394,0,0,1-3.451-2.773,4.844,4.844,0,0,1-.408-1.1,6.825,6.825,0,0,1-.163-1.4,3.921,3.921,0,0,1,.464-1.969.251.251,0,0,0,.011-.277,15.764,15.764,0,0,1-.922-2.1A16.093,16.093,0,0,1,8.87,16.97c-.276-.987-.517-1.983-.7-2.994a13.844,13.844,0,0,1-.193-2.071c-.014-.43-.012-.86-.012-1.291,0-.3.008-.607.008-.91s.088-.608.094-.909a9.992,9.992,0,0,1,.321-1.8A16.928,16.928,0,0,1,9.076,4.55a24.916,24.916,0,0,1,1.4-2.913A6.026,6.026,0,0,1,11.415.282a.784.784,0,0,1,1.154.18,5.069,5.069,0,0,0,1.265,1.575,3.837,3.837,0,0,0,1.247.647,3.781,3.781,0,0,0,1.321.178,9.482,9.482,0,0,0,2.174-.348c1.632-.464,3.237-1.024,4.892-1.405a10.422,10.422,0,0,1,1.5-.229A10.531,10.531,0,0,1,27.03.831a20.039,20.039,0,0,1,2.443.4,11.789,11.789,0,0,1,2.5.865,6.756,6.756,0,0,1,2.217,1.737,5.536,5.536,0,0,1,.926,1.479.281.281,0,0,0,.3.2,6.666,6.666,0,0,1,2.186.321,5.174,5.174,0,0,1,2.765,2.14,7.07,7.07,0,0,1,1.094,2.8,8.5,8.5,0,0,1,.138,1.645,12.907,12.907,0,0,1-.278,2.3c-.166.8-.335,1.588-.577,2.365a22.6,22.6,0,0,1-1.087,2.878c-.257.548-.5,1.1-.806,1.628-.118.206,0,.412.027.608a5.866,5.866,0,0,1-.025,1.729,6.093,6.093,0,0,1-.872,2.323,4.4,4.4,0,0,1-2.207,1.794,3.824,3.824,0,0,1-.83.2c-.106.013-.126.036-.146.141-.11.573-.2,1.153-.365,1.712a7.224,7.224,0,0,1-1.086,2.069,13.47,13.47,0,0,1-2.12,2.454.38.38,0,0,0-.12.317c.009,1.167.04,2.334,0,3.5-.005.165.12.183.226.213.546.152,1.074.356,1.611.536.573.191,1.136.413,1.712.595.476.15.944.33,1.411.507.958.365,1.921.719,2.869,1.109a36.37,36.37,0,0,1,4.94,2.43A8.1,8.1,0,0,1,46,45.407a12.1,12.1,0,0,1,2.574,4.285,7.949,7.949,0,0,1,.339,1.41.747.747,0,0,1-.619.875,2.478,2.478,0,0,1-.621.059q-22.909-.005-45.818,0c-.355,0-.71,0-1.066,0A.775.775,0,0,1,0,51.238a5.145,5.145,0,0,1,.367-1.692,7.224,7.224,0,0,1,.376-.954,10.1,10.1,0,0,1,.508-.9,12.252,12.252,0,0,1,1.931-2.562,10.957,10.957,0,0,1,2.064-1.465A31.686,31.686,0,0,1,8.5,42.009c1.008-.444,2.037-.841,3.062-1.246,1.663-.657,3.355-1.23,5.038-1.83.311-.111.626-.215.944-.3.214-.059.306-.173.262-.391a.2.2,0,0,0,0-.168M29.588,36c-.089-.032-.139.037-.2.077a11.707,11.707,0,0,1-2.832,1.377,6.582,6.582,0,0,1-3.184.253,9.906,9.906,0,0,1-3.745-1.584.571.571,0,0,0-.312-.15v.6a.024.024,0,0,0,0,.04,1.111,1.111,0,0,0,.01.413c0,.549.006,1.1-.007,1.646a.847.847,0,0,0,.112.486,4.847,4.847,0,0,0,2.924,2.068,7.366,7.366,0,0,0,2.09.228,7.473,7.473,0,0,0,2.049-.227,4.847,4.847,0,0,0,2.975-2.033.574.574,0,0,0,.12-.274q.051-.948.019-1.9,0-.409.007-.818c.017-.07.051-.143-.027-.2m.252-19.779a.8.8,0,0,0,.646-.856c0-1.285-.01-2.57,0-3.854a.884.884,0,0,0-.993-.976q-5.059,0-10.118,0c-.665,0-.938.276-.941.938-.006,1.251,0,2.5-.015,3.751-.009.768.33,1.062,1.011,1.017l.062,0q4.132,0,8.264,0c.675,0,1.351-.009,2.027-.014.021.023.039.014.055-.007M13.449,20.871c-.059,0-.119,0-.177.007a1.756,1.756,0,0,0-1.79,1.88,5.482,5.482,0,0,0,.294,1.785,2.888,2.888,0,0,0,2.977,2.171.669.669,0,0,1,.721.6c.064.352.1.708.167,1.059a6.542,6.542,0,0,0,.637,2.1,12.687,12.687,0,0,0,4.9,4.828,7.6,7.6,0,0,0,2.562.933,5.123,5.123,0,0,0,2.582-.3,12.324,12.324,0,0,0,5.8-4.607,5.1,5.1,0,0,0,.841-1.608,13.966,13.966,0,0,0,.431-2.207c.055-.547.4-.879.879-.827a2.408,2.408,0,0,0,2.363-1.159,4.455,4.455,0,0,0,.756-3.171,1.527,1.527,0,0,0-1.1-1.324,3.608,3.608,0,0,0-1.325-.16l-.038-.044-.021.044a.814.814,0,0,1-.852-.955,2.509,2.509,0,0,0-.522-1.593,15.05,15.05,0,0,1-.971-1.482l-.557-.98a.367.367,0,0,0-.089.212,2.37,2.37,0,0,1-2.175,1.71q-5.11,0-10.22,0a3.58,3.58,0,0,1-.7-.043A2.293,2.293,0,0,1,17,16.058a6.694,6.694,0,0,1-.091-1.624c.006-.005.017-.011.016-.015a.243.243,0,0,0-.016-.039c.038-.178-.01-.26-.216-.254a13.532,13.532,0,0,1-1.651-.093c-.475-.046-.475-.048-.43.423,0,.025,0,.051,0,.076.029.519.013,1.039.035,1.559.032.764.1,1.528.066,2.294a.748.748,0,0,0,0,.126,12.735,12.735,0,0,1,.1,1.575.692.692,0,0,1-.663.752c-.216.029-.437.021-.656.03a.033.033,0,0,0-.056,0M24.466,50.51H46.28c.271,0,.541,0,.812,0,.117,0,.171-.018.125-.159a8.852,8.852,0,0,0-.753-1.728,9.55,9.55,0,0,0-2.178-2.758,13.846,13.846,0,0,0-2.255-1.395,64.159,64.159,0,0,0-7.975-3.342c-1-.36-2.01-.688-3.018-1.026-.151-.05-.314-.136-.441.069a5.277,5.277,0,0,1-1.744,1.667,7.789,7.789,0,0,1-3.67,1.118,9.139,9.139,0,0,1-3.758-.467,6.258,6.258,0,0,1-3-2.15c-.244-.328-.244-.337-.621-.209-1.134.384-2.269.764-3.4,1.166q-1.312.468-2.6.988c-.584.236-1.165.487-1.744.733-.441.188-.884.381-1.323.574-.645.283-1.276.6-1.9.922a10.8,10.8,0,0,0-2.366,1.5,10.328,10.328,0,0,0-2.653,4.024c-.182.468-.172.471.334.471H24.466m.2-41.5h0c1.641,0,3.281,0,4.922,0a2.445,2.445,0,0,1,1.566.539A2.119,2.119,0,0,1,31.9,10.6c.141.495.17,1.021.318,1.523.095.322.17.661.276.971.123.36.281.722.43,1.08a15.649,15.649,0,0,0,1.919,3.381,3.217,3.217,0,0,1,.638,1.5.344.344,0,0,0,.342.337,3.719,3.719,0,0,1,1.919.719c.111.08.176.065.227-.067.07-.181.153-.357.232-.534a19.48,19.48,0,0,0,1.88-6.7,6.215,6.215,0,0,0-.957-4.05,3.835,3.835,0,0,0-2.034-1.514A6.53,6.53,0,0,0,34.8,7.033a.714.714,0,0,1-.795-.53,7.338,7.338,0,0,0-.375-.854,5.375,5.375,0,0,0-2.769-2.418,11.713,11.713,0,0,0-3.448-.841,11.5,11.5,0,0,0-2.669.05,22.877,22.877,0,0,0-3.74.914c-.81.244-1.606.539-2.437.712a8.79,8.79,0,0,1-3.015.279,5.043,5.043,0,0,1-2.31-.9,5.45,5.45,0,0,1-1.176-1.071c-.117-.152-.19-.136-.3.016a5.1,5.1,0,0,0-.306.577,17.207,17.207,0,0,0-2.018,7.643,17.415,17.415,0,0,0,.15,2.846,4.361,4.361,0,0,0,.1.823c.183.52.273,1.058.421,1.584a22.5,22.5,0,0,0,1.444,3.75c.045.092.077.2.219.129a4.006,4.006,0,0,1,1.283-.367c.119-.016.188-.045.19-.2.007-.752-.052-1.5-.074-2.251-.037-1.251-.1-2.5-.09-3.753a.735.735,0,0,1,.463-.694.969.969,0,0,1,.622-.055,25.67,25.67,0,0,0,2.57.187c.164.014.2-.048.2-.2-.006-.4-.01-.795,0-1.192A2.279,2.279,0,0,1,18.1,9.308a2.781,2.781,0,0,1,1.568-.288c1.665-.026,3.332-.01,5-.01" transform="translate(0 -0.084)"/>
        <path id="Trazado_819963" data-name="Trazado 819963" d="M213.172,17.9q0-2.993.008-5.986,0-4.147,0-8.3a10.921,10.921,0,0,1,.043-1.52,2.156,2.156,0,0,1,.45-1.05A2.577,2.577,0,0,1,215.1.057a2.776,2.776,0,0,1,1.041-.016,2.424,2.424,0,0,1,1.924,1.446,3.03,3.03,0,0,1,.256,1.313q0,7.573-.013,15.145a.464.464,0,0,0,.187.351,10.15,10.15,0,0,1,.922,1,4.927,4.927,0,0,1,.753,2,4.419,4.419,0,0,1-2.486,4.5,4.89,4.89,0,0,1-2.564.469,3.726,3.726,0,0,1-.727-.208,4.14,4.14,0,0,1-1.668-.979,4.789,4.789,0,0,1-1.121-1.633,4.4,4.4,0,0,1-.3-2.372,3.972,3.972,0,0,1,.843-1.918,6.558,6.558,0,0,1,.969-1c.134-.061.114-.155.053-.256m3.643-4.627h0q0-1.649,0-3.3c0-.676,0-1.353,0-2.029,0-.143-.016-.245-.2-.243-.583.007-1.166,0-1.75,0-.128,0-.185.041-.185.174q0,1.268,0,2.536c0,.127.058.185.186.18.1,0,.2-.006.3,0a.747.747,0,0,1,.307,1.453,1.391,1.391,0,0,1-.593.065c-.167-.01-.209.045-.206.212.011.685.006,1.369.005,2.054,0,.567,0,.567.566.579a.746.746,0,0,1,.161,1.474,1.758,1.758,0,0,1-.546.046c-.144-.007-.19.043-.187.188.01.456-.029.916.014,1.369a1.381,1.381,0,0,1-.706,1.408,2.716,2.716,0,0,0-1.156,2.868,2.9,2.9,0,0,0,2.48,2.407,2.941,2.941,0,0,0,3.3-3.6,2.789,2.789,0,0,0-1.326-1.84.934.934,0,0,1-.476-.881c.015-1.708.006-3.415.006-5.123M214.692,4.24h-.015c0,.583.009,1.167-.005,1.75,0,.18.058.212.216.21.583-.01,1.166-.014,1.749-.007.145,0,.167-.048.163-.176-.01-.3,0-.608,0-.912-.005-.887.011-1.774-.025-2.659a1.039,1.039,0,0,0-2.073.1c-.025.565-.005,1.132-.005,1.7" transform="translate(-168.257 0)"/>
        <path id="Trazado_819964" data-name="Trazado 819964" d="M183.924,152.614a5.909,5.909,0,0,1,.8-2.817,3.806,3.806,0,0,0,.462-2.106,4.858,4.858,0,0,0-.712-2.241.922.922,0,0,1-.179-.783.627.627,0,0,1,.563-.434.723.723,0,0,1,.746.248,5.673,5.673,0,0,1,.784,1.506,5.786,5.786,0,0,1,.32,1.914,5.56,5.56,0,0,1-.535,2.354,11.338,11.338,0,0,0-.652,1.66c-.088.352-.066.709-.121,1.062a.745.745,0,0,1-.559.592.641.641,0,0,1-.717-.2.867.867,0,0,1-.205-.756" transform="translate(-146.475 -114.856)"/>
        <path id="Trazado_819965" data-name="Trazado 819965" d="M42.326,147.821a6.545,6.545,0,0,1,.447-2,7.933,7.933,0,0,1,.584-1.156.75.75,0,1,1,1.289.76,5.36,5.36,0,0,0-.733,1.881,3.714,3.714,0,0,0,.317,2.179,10.306,10.306,0,0,1,.823,2.182,5.978,5.978,0,0,1,.126,1.215.749.749,0,0,1-.633.745.69.69,0,0,1-.768-.383.813.813,0,0,1-.115-.4,4.882,4.882,0,0,0-.494-2.054c-.192-.451-.426-.881-.584-1.349a7.381,7.381,0,0,1-.259-1.62" transform="translate(-33.71 -114.885)"/>
        <path id="Trazado_819966" data-name="Trazado 819966" d="M210.312,168.255a6.335,6.335,0,0,1,.525-2.111,12.737,12.737,0,0,0,.544-1.324,3.877,3.877,0,0,0-.082-2.759.926.926,0,0,1,.257-1.053.866.866,0,0,1,1.106.378,6.326,6.326,0,0,1,.4,1.576,3.585,3.585,0,0,1,.076.938,7.112,7.112,0,0,1-.388,1.655c-.193.468-.4.93-.6,1.4a4.337,4.337,0,0,0-.35,1.539.733.733,0,0,1-.62.758.782.782,0,0,1-.77-.36c-.144-.2-.052-.406-.1-.633" transform="translate(-167.498 -128.167)"/>
        <path id="Trazado_819967" data-name="Trazado 819967" d="M18.2,169.291a.8.8,0,0,1-.794-.808,6.154,6.154,0,0,0-.71-2.447,10.523,10.523,0,0,1-.573-1.6,1.82,1.82,0,0,1,.005-.463,6.483,6.483,0,0,1,.236-1.986,5.951,5.951,0,0,1,.3-.706.733.733,0,0,1,1.323.537,6.612,6.612,0,0,0-.366,1.65,3.328,3.328,0,0,0,.148,1.151,21.34,21.34,0,0,1,1.03,2.812,2.833,2.833,0,0,1,.071,1.377.718.718,0,0,1-.667.482" transform="translate(-12.828 -128.201)"/>
        <path id="Trazado_819968" data-name="Trazado 819968" d="M220.377,87.936c.06.1.08.2-.053.256.012-.087-.06-.191.053-.256" transform="translate(-175.462 -70.035)" fill="#7f7780"/>
        <path id="Trazado_819969" data-name="Trazado 819969" d="M87.127,186.6a.2.2,0,0,1,0,.168c-.11-.056-.109-.112,0-.168" transform="translate(-69.324 -148.615)" fill="#7f7780"/>
        <path id="Trazado_819970" data-name="Trazado 819970" d="M31.13,206.757H8.809c-.506,0-.516,0-.334-.471a10.329,10.329,0,0,1,2.653-4.024,10.794,10.794,0,0,1,2.366-1.5c.627-.323,1.258-.639,1.9-.922.44-.193.882-.386,1.323-.574.58-.247,1.16-.5,1.744-.733q1.291-.522,2.6-.988c1.127-.4,2.263-.782,3.4-1.166.377-.128.377-.119.621.209a6.257,6.257,0,0,0,3,2.15,9.138,9.138,0,0,0,3.758.467,7.789,7.789,0,0,0,3.671-1.118,5.278,5.278,0,0,0,1.744-1.667c.127-.2.29-.119.441-.069,1.007.337,2.018.666,3.018,1.026a64.1,64.1,0,0,1,7.975,3.342,13.833,13.833,0,0,1,2.255,1.395,9.55,9.55,0,0,1,2.178,2.758,8.852,8.852,0,0,1,.753,1.728c.046.141-.008.16-.125.159-.271,0-.541,0-.812,0H31.13m16.489-1.118c.65,0,1.3.007,1.951,0a.8.8,0,0,0,.812-.566.776.776,0,0,0-.292-.784.884.884,0,0,0-.6-.158q-1.9-.021-3.8,0a.8.8,0,0,0-.815.715.761.761,0,0,0,.818.8c.642.007,1.284,0,1.926,0m-5.887,0a6.227,6.227,0,0,0,1.187-.053.711.711,0,0,0,.534-.734.75.75,0,0,0-.58-.68,11.046,11.046,0,0,0-2.121-.039.766.766,0,0,0-.8.8c.027.432.367.7.894.7h.884" transform="translate(-6.664 -156.332)" fill="#e2728d"/>
        <path id="Trazado_819971" data-name="Trazado 819971" d="M61.83,68.844a6.694,6.694,0,0,0,.091,1.624,2.293,2.293,0,0,0,1.82,1.677,3.565,3.565,0,0,0,.7.043q5.11,0,10.219,0a2.37,2.37,0,0,0,2.175-1.711.368.368,0,0,1,.089-.212l.557.98a15.049,15.049,0,0,0,.971,1.482,2.511,2.511,0,0,1,.523,1.593.813.813,0,0,0,.852.955h.059a3.607,3.607,0,0,1,1.325.159,1.528,1.528,0,0,1,1.1,1.324,4.456,4.456,0,0,1-.756,3.171,2.408,2.408,0,0,1-2.363,1.159c-.478-.052-.824.28-.879.827a13.943,13.943,0,0,1-.431,2.207,5.1,5.1,0,0,1-.841,1.608,12.328,12.328,0,0,1-5.8,4.607,5.121,5.121,0,0,1-2.582.3,7.591,7.591,0,0,1-2.562-.933,12.688,12.688,0,0,1-4.9-4.828,6.538,6.538,0,0,1-.637-2.1c-.066-.351-.1-.708-.167-1.059a.669.669,0,0,0-.721-.6,2.888,2.888,0,0,1-2.977-2.171,5.479,5.479,0,0,1-.293-1.785,1.756,1.756,0,0,1,1.79-1.88c.059-.007.118,0,.177-.007l.056,0c.219-.009.44,0,.656-.03a.691.691,0,0,0,.663-.752,12.732,12.732,0,0,0-.1-1.574.75.75,0,0,1,0-.127c.031-.766-.034-1.53-.066-2.294-.022-.52-.007-1.04-.035-1.559,0-.025,0-.051,0-.076-.045-.471-.045-.469.43-.423a13.494,13.494,0,0,0,1.651.093c.206-.005.254.076.216.254,0,.018,0,.036,0,.055m7.543,13.1a3.863,3.863,0,0,0-1.012.144A3.3,3.3,0,0,0,66.3,83.88a.781.781,0,0,0,.115.9.715.715,0,0,0,.821.177,1.01,1.01,0,0,0,.486-.529,1.942,1.942,0,0,1,3.136-.256,4.892,4.892,0,0,0,.36.537.7.7,0,0,0,.644.3.77.77,0,0,0,.532-1.228,3.34,3.34,0,0,0-3.024-1.829m-6.2-4.53a3.848,3.848,0,0,0,1.181-.167,2.939,2.939,0,0,0,1.9-1.4.77.77,0,0,0,.114-.527.723.723,0,0,0-.59-.638.736.736,0,0,0-.824.4,1.377,1.377,0,0,1-.768.624,3.269,3.269,0,0,1-1.258.185.789.789,0,0,0-.753.527.807.807,0,0,0,.5.941,1.455,1.455,0,0,0,.5.051m12.366,0c.076,0,.152,0,.228,0a.792.792,0,0,0,.815-.675.734.734,0,0,0-.751-.847,4,4,0,0,1-.949-.06,1.723,1.723,0,0,1-1.138-.824.707.707,0,0,0-.927-.28.8.8,0,0,0-.433.906,2.59,2.59,0,0,0,.644.891,3.858,3.858,0,0,0,2.512.89" transform="translate(-44.917 -54.493)" fill="#f1c69e"/>
        <path id="Trazado_819972" data-name="Trazado 819972" d="M61.6,17.462c-1.666,0-3.332-.016-5,.01a2.781,2.781,0,0,0-1.568.288,2.279,2.279,0,0,0-1.148,1.912c-.013.4-.009.795,0,1.192,0,.15-.039.212-.2.2a25.67,25.67,0,0,1-2.57-.187.969.969,0,0,0-.622.055.735.735,0,0,0-.463.694c-.008,1.252.054,2.5.09,3.753.022.75.08,1.5.074,2.251,0,.156-.07.185-.19.2a4.006,4.006,0,0,0-1.283.367c-.142.071-.174-.038-.219-.129a22.5,22.5,0,0,1-1.444-3.75c-.147-.525-.238-1.064-.421-1.584a4.361,4.361,0,0,1-.1-.823,17.415,17.415,0,0,1-.15-2.846,17.207,17.207,0,0,1,2.018-7.643,5.1,5.1,0,0,1,.306-.577c.108-.152.181-.168.3-.016A5.45,5.45,0,0,0,50.188,11.9a5.043,5.043,0,0,0,2.31.9,8.79,8.79,0,0,0,3.015-.279c.831-.172,1.627-.468,2.437-.712a22.877,22.877,0,0,1,3.74-.914,11.5,11.5,0,0,1,2.669-.05,11.713,11.713,0,0,1,3.448.841A5.375,5.375,0,0,1,70.575,14.1a7.336,7.336,0,0,1,.375.854.714.714,0,0,0,.795.53,6.529,6.529,0,0,1,2.282.215,3.835,3.835,0,0,1,2.034,1.514,6.215,6.215,0,0,1,.957,4.05,19.48,19.48,0,0,1-1.88,6.7c-.079.177-.162.353-.232.534-.051.133-.116.147-.227.067a3.719,3.719,0,0,0-1.92-.719.344.344,0,0,1-.342-.337,3.217,3.217,0,0,0-.638-1.5,15.649,15.649,0,0,1-1.919-3.381c-.149-.357-.307-.72-.43-1.08-.106-.31-.181-.65-.276-.971-.148-.5-.177-1.029-.318-1.523A2.119,2.119,0,0,0,68.089,18a2.445,2.445,0,0,0-1.566-.539c-1.641.006-3.281,0-4.922,0Z" transform="translate(-36.94 -8.536)" fill="#7f7780"/>
        <path id="Trazado_819973" data-name="Trazado 819973" d="M91.5,57.025c-.681.045-1.02-.249-1.011-1.017.014-1.25.01-2.5.015-3.751,0-.662.276-.938.941-.938q5.059,0,10.118,0a.884.884,0,0,1,.993.976c-.012,1.285,0,2.569,0,3.854A.8.8,0,0,1,101.9,57l-.056.007c-.675,0-1.351.014-2.027.014q-4.132,0-8.264,0c-.022-.034-.042-.032-.062,0m5.052-1.051c1.369,0,2.738-.014,4.106.008a.582.582,0,0,0,.639-.65c0-.735-.024-1.471.008-2.205a.674.674,0,0,0-.7-.7q-4.106,0-8.213,0a.629.629,0,0,0-.635.643q0,1.1,0,2.205c0,.5.193.695.684.7h4.106" transform="translate(-72.064 -40.869)" fill="#b8e5fe"/>
        <path id="Trazado_819974" data-name="Trazado 819974" d="M105.179,181.363q.032.948-.019,1.9a.574.574,0,0,1-.12.274,4.846,4.846,0,0,1-2.975,2.033,7.474,7.474,0,0,1-2.05.227,7.36,7.36,0,0,1-2.09-.228A4.846,4.846,0,0,1,95,183.5a.845.845,0,0,1-.112-.486c.013-.548.006-1.1.007-1.646a1.3,1.3,0,0,1,.549.167,8.526,8.526,0,0,0,3.41,1.519,5.282,5.282,0,0,0,2.1.054,9.254,9.254,0,0,0,3.662-1.571.711.711,0,0,1,.562-.172" transform="translate(-75.572 -144.434)" fill="#f1c69e"/>
        <path id="Trazado_819975" data-name="Trazado 819975" d="M105.108,177.313a.711.711,0,0,0-.562.172,9.254,9.254,0,0,1-3.662,1.571,5.282,5.282,0,0,1-2.1-.054,8.526,8.526,0,0,1-3.41-1.519,1.3,1.3,0,0,0-.549-.167,1.1,1.1,0,0,1-.01-.413s.013-.009.012-.011a.187.187,0,0,0-.013-.029v-.6a.572.572,0,0,1,.312.15A9.9,9.9,0,0,0,98.871,178a6.579,6.579,0,0,0,3.184-.253,11.712,11.712,0,0,0,2.832-1.377c.062-.04.112-.109.2-.077,0,.068-.022.139.027.2q0,.409-.007.818" transform="translate(-75.501 -140.384)" fill="#e2728d"/>
        <path id="Trazado_819976" data-name="Trazado 819976" d="M145.349,176.6c-.049-.061-.026-.133-.027-.2.078.058.044.13.027.2" transform="translate(-115.735 -140.491)" fill="#7f7780"/>
        <path id="Trazado_819977" data-name="Trazado 819977" d="M171.538,101.914h-.059l.021-.044.038.044" transform="translate(-136.57 -81.132)" fill="#7f7780"/>
        <path id="Trazado_819978" data-name="Trazado 819978" d="M146.306,79.251l.055-.007c-.016.021-.034.029-.055.007" transform="translate(-116.522 -63.112)" fill="#7f7780"/>
        <path id="Trazado_819979" data-name="Trazado 819979" d="M94.833,179.192a.17.17,0,0,1,.013.028s-.008.008-.012.011a.024.024,0,0,1,0-.04" transform="translate(-75.52 -142.713)" fill="#7f7780"/>
        <path id="Trazado_819980" data-name="Trazado 819980" d="M95.451,79.263c.02-.034.041-.036.062,0l-.062,0" transform="translate(-76.02 -63.106)" fill="#7f7780"/>
        <path id="Trazado_819981" data-name="Trazado 819981" d="M83.079,70.281v-.055a.27.27,0,0,1,.016.039s-.01.01-.016.015" transform="translate(-66.166 -55.93)" fill="#7f7780"/>
        <path id="Trazado_819982" data-name="Trazado 819982" d="M66.118,102.04l-.056,0a.033.033,0,0,1,.056,0" transform="translate(-52.613 -81.256)" fill="#7f7780"/>
        <path id="Trazado_819983" data-name="Trazado 819983" d="M222.739,43.419c0,1.708.009,3.415-.006,5.123a.934.934,0,0,0,.476.881,2.789,2.789,0,0,1,1.326,1.84,2.941,2.941,0,0,1-3.3,3.6,2.9,2.9,0,0,1-2.48-2.407,2.716,2.716,0,0,1,1.156-2.868,1.381,1.381,0,0,0,.706-1.408c-.043-.453,0-.912-.014-1.369,0-.146.043-.2.187-.188a1.762,1.762,0,0,0,.546-.045.746.746,0,0,0-.161-1.474c-.569-.012-.567-.012-.566-.579,0-.685.006-1.37-.005-2.054,0-.168.039-.222.206-.212a1.4,1.4,0,0,0,.593-.066.747.747,0,0,0-.307-1.453c-.1-.005-.2,0-.3,0-.128.005-.186-.052-.186-.18q0-1.268,0-2.536c0-.133.057-.175.185-.174.583,0,1.167.007,1.75,0,.186,0,.2.1.2.243,0,.676,0,1.353,0,2.029q0,1.648,0,3.3Zm-.5,7.815a1.17,1.17,0,0,0-1.135-1.156,1.185,1.185,0,0,0-1.152,1.17,1.144,1.144,0,1,0,2.287-.013" transform="translate(-174.182 -30.145)" fill="#e2728d"/>
        <path id="Trazado_819984" data-name="Trazado 819984" d="M228.015,10.137c0-.566-.019-1.133.005-1.7a1.039,1.039,0,0,1,2.073-.1c.036.885.02,1.773.025,2.659,0,.3,0,.608,0,.912,0,.128-.018.177-.163.176-.583-.007-1.166,0-1.75.007-.158,0-.22-.03-.216-.21.014-.583.005-1.166.005-1.75h.015" transform="translate(-181.581 -5.896)" fill="#f8f9fb"/>
        <path id="Trazado_819985" data-name="Trazado 819985" d="M190.442,236.256c-.642,0-1.284.005-1.926,0a.761.761,0,0,1-.818-.8.8.8,0,0,1,.815-.715q1.9-.016,3.8,0a.885.885,0,0,1,.6.158.777.777,0,0,1,.292.784.8.8,0,0,1-.812.566c-.65.009-1.3,0-1.951,0" transform="translate(-149.487 -186.949)" fill="#f1c69e"/>
        <path id="Trazado_819986" data-name="Trazado 819986" d="M165.3,236.2h-.884c-.527,0-.867-.269-.894-.7a.766.766,0,0,1,.8-.8,11.045,11.045,0,0,1,2.121.039.75.75,0,0,1,.58.68.711.711,0,0,1-.534.734,6.226,6.226,0,0,1-1.187.053" transform="translate(-130.23 -186.888)" fill="#f1c69e"/>
        <path id="Trazado_819987" data-name="Trazado 819987" d="M107.779,134.853a3.341,3.341,0,0,1,3.024,1.829.77.77,0,0,1-.532,1.228.7.7,0,0,1-.644-.3,4.894,4.894,0,0,1-.36-.537,1.942,1.942,0,0,0-3.136.256,1.01,1.01,0,0,1-.486.529.715.715,0,0,1-.821-.177.782.782,0,0,1-.115-.9,3.3,3.3,0,0,1,2.057-1.79,3.866,3.866,0,0,1,1.012-.144" transform="translate(-83.322 -107.4)"/>
        <path id="Trazado_819988" data-name="Trazado 819988" d="M85.7,101.862a1.451,1.451,0,0,1-.5-.051.807.807,0,0,1-.5-.941.789.789,0,0,1,.753-.527,3.27,3.27,0,0,0,1.258-.185,1.378,1.378,0,0,0,.767-.624.735.735,0,0,1,.824-.4.723.723,0,0,1,.59.638.77.77,0,0,1-.114.527,2.939,2.939,0,0,1-1.9,1.4,3.849,3.849,0,0,1-1.181.167" transform="translate(-67.442 -78.939)"/>
        <path id="Trazado_819989" data-name="Trazado 819989" d="M137.923,101.814a3.858,3.858,0,0,1-2.512-.89,2.591,2.591,0,0,1-.644-.891.8.8,0,0,1,.433-.906.707.707,0,0,1,.927.28,1.723,1.723,0,0,0,1.138.824,4,4,0,0,0,.949.06.734.734,0,0,1,.751.847.792.792,0,0,1-.815.675c-.076.005-.152,0-.228,0" transform="translate(-107.302 -78.89)"/>
        <path id="Trazado_819990" data-name="Trazado 819990" d="M101.523,60.333H97.417c-.491,0-.684-.2-.684-.7q0-1.1,0-2.205a.629.629,0,0,1,.635-.643q4.106,0,8.213,0a.673.673,0,0,1,.7.7c-.032.734-.01,1.47-.008,2.205a.582.582,0,0,1-.639.65c-1.369-.022-2.738-.008-4.107-.008" transform="translate(-77.04 -45.227)" fill="#f8f9fb"/>
        <path id="Trazado_819991" data-name="Trazado 819991" d="M227.1,99.072a1.144,1.144,0,1,1-2.287.013,1.185,1.185,0,0,1,1.152-1.17,1.17,1.17,0,0,1,1.135,1.156" transform="translate(-179.048 -77.983)" fill="#f1c69e"/>
      </g>
    </g>
  </g>
</svg>
