<svg xmlns="http://www.w3.org/2000/svg" xmlns:xlink="http://www.w3.org/1999/xlink" width="91.629" height="91.577" viewBox="0 0 91.629 91.577">
  <defs>
    <clipPath id="clip-path">
      <rect id="Rectángulo_377508" data-name="Rectángulo 377508" width="91.629" height="91.577" fill="none"/>
    </clipPath>
  </defs>
  <g id="Grupo_1073244" data-name="Grupo 1073244" clip-path="url(#clip-path)">
    <path id="Trazado_819779" data-name="Trazado 819779" d="M77.72,26.252a1.879,1.879,0,0,1,.916.324,25.211,25.211,0,0,1,2.7,1.914,1.208,1.208,0,0,0,.19.1c-.082.155-.172.307-.244.467a1.42,1.42,0,0,0-.147,1.174,1.748,1.748,0,0,0,2.885.95,35.084,35.084,0,0,1,2.249,3.333.817.817,0,0,1,.079.431.588.588,0,0,1-.006.073,1.875,1.875,0,0,0-.8,1c-.056,0-.088.018-.074.08a2.874,2.874,0,0,0,.039.93,21.048,21.048,0,0,1,1.068,3.676,26.535,26.535,0,0,1,.287,2.79,2.346,2.346,0,0,0,1.278,2.194,12.186,12.186,0,0,1,2.764,1.885,18.89,18.89,0,0,1,1.947,2.047,11.88,11.88,0,0,1,2.12,4.289c-.041.066.01.075.054.089-.045.252.145.436.189.667.111.576.2,1.153.279,1.733a8.9,8.9,0,0,1,.1,2.453,10.707,10.707,0,0,0-.2,1.949c-.109.018-.1.095-.087.175a10.631,10.631,0,0,1-.55,1.974c-.054,0-.091.016-.066.081-.037.092-.074.184-.109.276A13.384,13.384,0,0,1,91,68.43c-.063-.024-.078.015-.087.064l-.539.471c-.062-.025-.079.017-.093.063l-.354.29c-.067-.023-.085.025-.106.072l-.163.109c-.066-.024-.085.024-.1.069l-.165.113c-.067-.029-.083.021-.1.066a12.988,12.988,0,0,1-3.473,1.672,13.668,13.668,0,0,1-5.069.593,21.268,21.268,0,0,1-2.955-.533,11.688,11.688,0,0,1-4.211-2.038,4.747,4.747,0,0,1-.994-.68,15.583,15.583,0,0,0-1.611-1.711,1.713,1.713,0,0,0-2.433-.234c-.063-.025-.079.016-.09.064L67.2,68.255c-.059-.02-.078,0-.058.058l-1.733,1.374c-.064-.034-.078.013-.094.057l-.174.117c-.064-.029-.081.016-.1.062l-.531.305c-.067-.039-.079.015-.1.057-.474.274-1,.437-1.489.67a10.779,10.779,0,0,1-3.8,1.008,15.261,15.261,0,0,1-4.721-.316,14.562,14.562,0,0,1-4.44-1.941c-.251-.158-.241-.247-.051-.45q2.431-2.592,4.842-5.2A17.385,17.385,0,0,0,56.007,62.6a1.732,1.732,0,0,0-.551-2.525,2.623,2.623,0,0,0-1.672-.217c-.624.036-1.252.008-1.882.008.7-1.308,1.4-2.585,2.07-3.879.806-1.56,1.59-3.131,2.375-4.7a1.789,1.789,0,0,0-.2-2.086,2.086,2.086,0,0,0-1.747-.552c-3.919-.018-7.839-.006-11.758,0-.507,0-1.014-.017-1.52,0a1.8,1.8,0,0,0-1.8,1.085c-.195.449-.468.868-.66,1.324-.056,0-.089.018-.074.082L37.228,54c-.057,0-.088.02-.075.082-.357.757-.707,1.518-1.071,2.271-.717,1.485-1.442,2.967-2.164,4.45-.057,0-.088.018-.075.08-.694,1.453-1.355,2.924-2.092,4.355a1.826,1.826,0,0,0,1.382,2.694c1.871.063,3.746,0,5.619-.016l.04.013.04-.012a.163.163,0,0,1,.109.221c-.126.009-.1.093-.087.174q-.451,1.328-.9,2.656a.726.726,0,0,1-.519.514,11.4,11.4,0,0,1-2.53.48,14.16,14.16,0,0,1-6.942-1.083A13.853,13.853,0,0,1,19.851,55.8a14.048,14.048,0,0,1,2.276-5.6,13.009,13.009,0,0,1,2.286-2.64,13.506,13.506,0,0,1,5.1-2.783A1.915,1.915,0,0,0,31.05,42.6a10.19,10.19,0,0,1,1.356-5.3,10.015,10.015,0,0,1,9.927-5.062,11,11,0,0,1,4,1.248,10.811,10.811,0,0,1,2.616,1.962,2.418,2.418,0,0,0,.527.411,1.3,1.3,0,0,0,.612.229,2.03,2.03,0,0,0,1.859-1.142,14.806,14.806,0,0,1,1.132-1.793,17.674,17.674,0,0,1,3.4-3.536,19.18,19.18,0,0,1,7.131-3.578,23.019,23.019,0,0,1,2.777-.421,13.548,13.548,0,0,1,2.974-.075c.838.078,1.666.257,2.5.354a12.8,12.8,0,0,1,3.249.878,1.939,1.939,0,0,0,2.611-.524" transform="translate(-7.586 -9.847)" fill="#e8f4f9"/>
    <path id="Trazado_819780" data-name="Trazado 819780" d="M70.133,16.4a1.939,1.939,0,0,1-2.611.524,12.819,12.819,0,0,0-3.249-.878c-.837-.1-1.665-.276-2.5-.354a13.51,13.51,0,0,0-2.974.076,23.015,23.015,0,0,0-2.777.42,19.182,19.182,0,0,0-7.131,3.579,17.655,17.655,0,0,0-3.4,3.535A14.764,14.764,0,0,0,44.359,25.1,2.032,2.032,0,0,1,42.5,26.243a1.312,1.312,0,0,1-.612-.23,2.434,2.434,0,0,1-.527-.41,10.78,10.78,0,0,0-2.616-1.962,10.989,10.989,0,0,0-4-1.248,10.012,10.012,0,0,0-9.927,5.061,10.2,10.2,0,0,0-1.356,5.3,1.915,1.915,0,0,1-1.539,2.166,13.516,13.516,0,0,0-5.1,2.784,13.022,13.022,0,0,0-2.286,2.639,14.048,14.048,0,0,0-2.276,5.6,14.071,14.071,0,0,0,8.11,15.088,14.167,14.167,0,0,0,6.942,1.083,11.438,11.438,0,0,0,2.53-.481.724.724,0,0,0,.519-.514q.45-1.328.9-2.656c.1-.02.2-.044.087-.174a.163.163,0,0,0-.109-.221h-.08c-1.873.012-3.748.079-5.619.015A1.825,1.825,0,0,1,24.165,55.4c.737-1.431,1.4-2.9,2.092-4.356l.075-.08c.722-1.483,1.447-2.964,2.164-4.449.364-.754.714-1.514,1.071-2.271l.075-.083L31,41.287l.073-.082c.191-.457.465-.875.66-1.324a1.8,1.8,0,0,1,1.8-1.085c.506-.017,1.013,0,1.52,0,3.919,0,7.839-.014,11.758,0a2.083,2.083,0,0,1,1.747.551,1.789,1.789,0,0,1,.2,2.086c-.785,1.571-1.569,3.142-2.375,4.7-.669,1.294-1.37,2.572-2.07,3.879.63,0,1.258.028,1.882-.008a2.623,2.623,0,0,1,1.672.217,1.732,1.732,0,0,1,.551,2.525,17.386,17.386,0,0,1-1.254,1.454q-2.411,2.61-4.842,5.2c-.19.2-.2.292.051.45a14.577,14.577,0,0,0,4.44,1.941,15.28,15.28,0,0,0,4.721.315,10.779,10.779,0,0,0,3.8-1.008c.491-.233,1.015-.4,1.489-.669l.1-.058.531-.305.1-.062.174-.116.094-.058,1.733-1.374a.093.093,0,0,0,.058-.057l1.253-1.372.09-.064a1.713,1.713,0,0,1,2.433.233A15.533,15.533,0,0,1,65,58.916a4.768,4.768,0,0,0,.994.679A11.688,11.688,0,0,0,70.2,61.633a21.178,21.178,0,0,0,2.955.533,13.668,13.668,0,0,0,5.069-.593A13,13,0,0,0,81.7,59.9l.1-.066.165-.113.1-.069.163-.11.106-.071.354-.29.093-.064.539-.471.087-.064A13.386,13.386,0,0,0,87,53.462c.035-.093.072-.184.109-.276l.066-.081a10.63,10.63,0,0,0,.55-1.974c.106-.02.208-.042.087-.175a10.708,10.708,0,0,1,.2-1.949,8.906,8.906,0,0,0-.1-2.453c-.083-.58-.168-1.156-.279-1.732-.044-.231-.234-.416-.189-.667l-.054-.089a11.875,11.875,0,0,0-2.12-4.289A18.776,18.776,0,0,0,83.32,37.73a12.168,12.168,0,0,0-2.764-1.885,2.347,2.347,0,0,1-1.278-2.194,26.566,26.566,0,0,0-.287-2.79,21.063,21.063,0,0,0-1.068-3.676,2.874,2.874,0,0,1-.039-.93l.074-.08a1.878,1.878,0,0,1,.8-1c.135.147.225.12.272-.071a1.716,1.716,0,0,1,2.238,1.018,19.7,19.7,0,0,1,1.177,3.844,17.83,17.83,0,0,1,.336,2.871.4.4,0,0,0,.212.357,16,16,0,0,1,2.711,2c.026.026.085.021.128.031l.066.064a18.293,18.293,0,0,1,4.521,6.619,20.538,20.538,0,0,1,1.058,4.25A12.484,12.484,0,0,1,91.626,48a18.889,18.889,0,0,1-1.714,7.826,18,18,0,0,1-2.974,4.334,15.213,15.213,0,0,1-2.849,2.418,17.227,17.227,0,0,1-6.11,2.7,11.229,11.229,0,0,1-3,.455c-.489-.03-.994.1-1.5.056q-.074-.285-.271-.067a9.7,9.7,0,0,1-2.3-.269,18.449,18.449,0,0,1-6.684-2.849c-.655-.456-1.276-.965-1.891-1.475-.193-.161-.276-.151-.47.006-.425.343-.724.886-1.356.927-.129.464-.607.544-.925.766a16.037,16.037,0,0,1-4.432,2.1c-.544.171-1.092.257-1.637.38a12.433,12.433,0,0,1-1.5.33,17.315,17.315,0,0,1-2.773.153c-.055-.131-.09-.314-.269-.1a8.124,8.124,0,0,1-2.581-.339A18.645,18.645,0,0,1,41,63.181l-.076-.06c-.2-.131-.4-.261-.593-.393-.671-.45-.676-.456-1.24.15q-3.8,4.084-7.589,8.173c-.445.479-.881.967-1.343,1.429a1.891,1.891,0,0,1-2.223.271l-.09-.056a1.857,1.857,0,0,1-.582-2.161,1.963,1.963,0,0,0,.066-.347l.075-.083.094-.312,0,.013c.009-.052.019-.1.029-.157l.056-.09c.429-1.251.854-2.5,1.29-3.752.077-.221.036-.328-.2-.267a19.765,19.765,0,0,1-2.125.239,8.67,8.67,0,0,1-1.2.011q-.075-.286-.272-.066a13.77,13.77,0,0,1-4.661-.94,2.213,2.213,0,0,0-.346-.068.158.158,0,0,0-.191-.16A13.012,13.012,0,0,1,16.166,62.7c-.437-.3-.858-.619-1.286-.929l-.072-.076a18.794,18.794,0,0,1-4.2-5.225,16.241,16.241,0,0,1-1.908-5.648,14.636,14.636,0,0,1-.241-2.758,18.471,18.471,0,0,1,.538-3.945c.172-.626.36-1.244.574-1.856.082-.236.069-.373-.236-.477a13.18,13.18,0,0,1-6.883-5.224A13.992,13.992,0,0,1,.428,32.27a13.766,13.766,0,0,1-.387-4.513,13,13,0,0,1,1.125-4.2,1.036,1.036,0,0,0,.042-.169l.066-.093c-.025-.113.07-.177.109-.265l.074-.082a11.359,11.359,0,0,1,1.289-2.14,17.5,17.5,0,0,1,1.548-1.773,11.736,11.736,0,0,1,1.179-1.017l.1-.061.166-.114.1-.067.168-.112.1-.063.168-.116.1-.061.526-.3.1-.06a12.321,12.321,0,0,1,3.833-1.451,9.368,9.368,0,0,1,2.881-.259c.657.074,1.317.035,1.974.14.6.095.609.026.732-.608.115-.022.2-.056.072-.177l.369-1.077.075-.084.112-.365.068-.081.2-.545.071-.082a22.571,22.571,0,0,1,1.76-3.133A18.815,18.815,0,0,1,21.3,6.662c.085-.015.112-.077.118-.153a8.111,8.111,0,0,1,1.331-1.281l.092-.06a13.256,13.256,0,0,1,1.424-1.1l.1-.066c.136,0,.149-.169.263-.2l.093-.058.166-.117.1-.066.166-.114.1-.063.614-.384.1-.062.524-.3.1-.06A23.111,23.111,0,0,1,31.972.482,22.335,22.335,0,0,1,38.707.068a18.286,18.286,0,0,1,6.477,1.647,21.435,21.435,0,0,1,6.354,4.251q.505.489,1.01.98l.093.071,0,0a.162.162,0,0,0,.166.188,1.838,1.838,0,0,0,.452.553c.038.147.066.3.252.339A25.177,25.177,0,0,1,55.7,11.5c.177.322.245.8.554.928.274.117.678-.055,1.021-.12a9.54,9.54,0,0,1,2.028-.234c1.056.036,2.113-.024,3.177.1a26.291,26.291,0,0,1,3.74.662c.674.179,1.344.37,2,.6a11.783,11.783,0,0,1,1.248.539,1.61,1.61,0,0,1,.889.986,2.2,2.2,0,0,1-.225,1.444M44.045,5.141h0c0-.171-.123-.184-.251-.185a.769.769,0,0,1-.171-.029,15.657,15.657,0,0,0-4.5-1.2,14.326,14.326,0,0,0-3.3-.122c-.887.114-1.789.112-2.669.3A17.568,17.568,0,0,0,19.852,16.035c-.09.293-.277.581-.164.916a.159.159,0,0,0-.159.175,6.3,6.3,0,0,1-.3,1.375,1.856,1.856,0,0,1-1.962,1.113,11.2,11.2,0,0,0-4.284-.625A9.618,9.618,0,0,0,9.051,20a9.741,9.741,0,0,0-4.585,4.825,3.708,3.708,0,0,0-.524,1.787.158.158,0,0,0-.16.178,2.431,2.431,0,0,1-.048.438,8.261,8.261,0,0,0-.1,2.932,9.707,9.707,0,0,0,1.362,3.9,9.978,9.978,0,0,0,6.022,4.58.377.377,0,0,0,.5-.195,16.179,16.179,0,0,1,3.26-3.6l.1-.069.444-.382.093-.062.263-.207.095-.061.534-.386.091-.055.169-.12.1-.063.8-.476a.2.2,0,0,0,.189-.083,9.077,9.077,0,0,1,1.846-.891c.173-.071.362-.1.394-.35a18.159,18.159,0,0,1,.3-1.976A16.177,16.177,0,0,1,21,27.126a13.823,13.823,0,0,1,1.834-3.107l.093-.085a4.43,4.43,0,0,1,.642-.783,18.235,18.235,0,0,1,1.583-1.457l.1-.064.268-.206.09-.06.172-.123.1-.063.437-.292a.192.192,0,0,0,.192-.088c.007-.029.014-.058.021-.087.087.051.159.07.158-.071a.143.143,0,0,1,.08-.025l.095-.058.528-.3.1-.056c.343-.154.681-.323,1.031-.46a14.837,14.837,0,0,1,4.042-.94,13.919,13.919,0,0,1,4.127.268A13.426,13.426,0,0,1,42.1,21.588c.095.071.174.195.275.014l.064-.072a18.851,18.851,0,0,1,1.5-1.908.461.461,0,0,0,.031-.04,17.84,17.84,0,0,1,2.326-2.271l.082-.06.8-.656.1-.06a9.519,9.519,0,0,1,1.164-.837l.089-.056a24.125,24.125,0,0,1,3.956-2c.266-.1.3-.2.161-.455A17.886,17.886,0,0,0,47.98,7.529l-.068-.061a13.707,13.707,0,0,0-1.544-1.11l-.09-.053L46.1,6.187,46,6.128a10.941,10.941,0,0,0-1.779-.92c-.006-.168-.1-.1-.18-.067M28.595,54.424c.137.171.328.109.5.11,1.52,0,3.04,0,4.561,0a1.918,1.918,0,0,1,1.52.624,1.853,1.853,0,0,1,.292,1.85c-.3,1.072-.675,2.124-1.024,3.183-.4,1.2-.8,2.407-1.2,3.611l.1.078,9.314-10.068c-.57,0-1.058.009-1.546,0a1.792,1.792,0,0,1-1.524-2.232c.211-.531.508-1.01.754-1.518.433-.894.919-1.763,1.381-2.643q1.21-2.3,2.417-4.607c.33-.157.347-.238.093-.448l-.271-.011c-.009-.057-.015-.126-.089-.127s-.08.068-.09.126c-.149,0-.3.012-.446.012q-4.22,0-8.44,0c-.227,0-.413,0-.542.268q-1.82,3.8-3.672,7.578c-.678,1.387-1.37,2.767-2.055,4.15a.045.045,0,0,0-.028.068" transform="translate(0 0)"/>
    <path id="Trazado_819781" data-name="Trazado 819781" d="M58.577,123.222a1.91,1.91,0,0,1-1.911-1.049,2.027,2.027,0,0,1,.107-1.826c.048-.12.209-.191.311-.293q2.706-2.7,5.408-5.411a1.84,1.84,0,0,1,3.066.808,1.894,1.894,0,0,1-.627,1.833c-1.052,1.057-2.111,2.107-3.164,3.162-.685.686-1.364,1.377-2.048,2.063a2.075,2.075,0,0,1-1.142.713" transform="translate(-21.819 -44.08)" fill="#030303"/>
    <path id="Trazado_819782" data-name="Trazado 819782" d="M128.819,123.176a1.779,1.779,0,0,1-1.694-1.249,1.587,1.587,0,0,1,.437-1.826c1.892-1.9,3.775-3.81,5.686-5.691a1.425,1.425,0,0,1,1.178-.385,1.828,1.828,0,0,1,1.62,1.288,2.086,2.086,0,0,1-.774,2.108c-1.692,1.723-3.4,3.426-5.116,5.128a2.012,2.012,0,0,1-1.337.627" transform="translate(-49.054 -44.037)" fill="#030303"/>
    <path id="Trazado_819783" data-name="Trazado 819783" d="M30.356,141.547c-.123-.449.178-.778.472-1.074q2.77-2.794,5.568-5.562a1.73,1.73,0,0,1,2.327-.2,1.892,1.892,0,0,1,.35,2.5c-.56.64-1.179,1.22-1.776,1.822q-1.81,1.826-3.638,3.634a2.871,2.871,0,0,1-1.093.729,1.754,1.754,0,0,1-2.21-1.846" transform="translate(-11.714 -51.895)" fill="#030303"/>
    <path id="Trazado_819784" data-name="Trazado 819784" d="M102.467,143.462a1.819,1.819,0,0,1-1.658-1.3,1.717,1.717,0,0,1,.513-1.788c1.361-1.328,2.685-2.693,4.024-4.042a20.732,20.732,0,0,1,1.637-1.616,1.788,1.788,0,0,1,2.835,1.019,1.754,1.754,0,0,1-.481,1.608c-1.784,1.826-3.581,3.638-5.37,5.459a1.89,1.89,0,0,1-1.5.66" transform="translate(-38.909 -51.892)" fill="#030303"/>
    <path id="Trazado_819785" data-name="Trazado 819785" d="M30.358,115.847a1.493,1.493,0,0,1-.547,1.343q-2.741,2.729-5.466,5.472a1.827,1.827,0,0,1-1.992.422,1.954,1.954,0,0,1-1.022-1.639,1.8,1.8,0,0,1,.61-1.393c.745-.749,1.56-1.437,2.245-2.236.962-1.12,2.052-2.108,3.075-3.163a1.88,1.88,0,0,1,3.015.505,1.764,1.764,0,0,1,.083.69" transform="translate(-8.238 -44.073)"/>
    <path id="Trazado_819786" data-name="Trazado 819786" d="M93.555,123.209a1.673,1.673,0,0,1-1.537-.949,1.56,1.56,0,0,1,.4-2.166c1.212-1.185,2.426-2.371,3.581-3.611.586-.629,1.177-1.252,1.783-1.86a1.833,1.833,0,0,1,2.12-.342,1.807,1.807,0,0,1,.469,2.837c-1.833,1.832-3.66,3.67-5.5,5.492a1.922,1.922,0,0,1-1.311.6" transform="translate(-35.437 -44.067)" fill="#030303"/>
    <path id="Trazado_819787" data-name="Trazado 819787" d="M65.614,141.547c-.292-.539.231-.821.507-1.123,1.758-1.917,3.614-3.74,5.462-5.57a1.8,1.8,0,1,1,2.456,2.63c-1.62,1.54-3.191,3.129-4.76,4.721a4.206,4.206,0,0,1-1.442,1.187A1.764,1.764,0,0,1,66,142.781a1.9,1.9,0,0,1-.385-1.234" transform="translate(-25.311 -51.893)"/>
    <path id="Trazado_819788" data-name="Trazado 819788" d="M122.681,32.785a1.748,1.748,0,0,1-2.885-.95,1.415,1.415,0,0,1,.147-1.174c.072-.16.161-.312.244-.467.284-.112.485-.364.788-.45a1.567,1.567,0,0,1,2,.731,1.741,1.741,0,0,1-.156,2.14c-.045.058-.093.114-.14.171" transform="translate(-46.243 -11.446)" fill="#030303"/>
    <path id="Trazado_819789" data-name="Trazado 819789" d="M87.026,12.971c-.186-.037-.214-.191-.252-.339.266-.023.29.136.252.339" transform="translate(-33.517 -4.879)" fill="#030303"/>
    <path id="Trazado_819790" data-name="Trazado 819790" d="M128.6,40.9c-.047.191-.137.218-.272.071a.5.5,0,0,0,.006-.074l.266,0" transform="translate(-49.567 -15.798)" fill="#030303"/>
    <path id="Trazado_819791" data-name="Trazado 819791" d="M119.289,107.025c.132-.146.222-.123.271.067-.1,0-.209.073-.271-.067" transform="translate(-46.076 -41.303)" fill="#030303"/>
    <path id="Trazado_819792" data-name="Trazado 819792" d="M40.855,107.027q.2-.22.272.066c-.1,0-.21.072-.272-.066" transform="translate(-15.781 -41.303)" fill="#030303"/>
    <path id="Trazado_819793" data-name="Trazado 819793" d="M79.785,106.974c.179-.218.215-.036.269.1-.122.06-.182-.055-.269-.1" transform="translate(-30.818 -41.28)" fill="#030303"/>
    <path id="Trazado_819794" data-name="Trazado 819794" d="M34.8,10.6c-.007.077-.033.138-.119.154-.1-.157,0-.162.119-.154" transform="translate(-13.379 -4.094)" fill="#030303"/>
    <path id="Trazado_819795" data-name="Trazado 819795" d="M85.934,11.615a.163.163,0,0,1-.166-.188c.133-.006.193.052.166.188" transform="translate(-33.129 -4.414)" fill="#030303"/>
    <path id="Trazado_819796" data-name="Trazado 819796" d="M32.385,105.185a.159.159,0,0,1,.191.159c-.142.042-.155-.073-.191-.159" transform="translate(-12.509 -40.628)" fill="#030303"/>
    <path id="Trazado_819797" data-name="Trazado 819797" d="M26.823,23.977c.13.122.044.155-.072.178-.007-.072-.029-.15.072-.178" transform="translate(-10.33 -9.261)" fill="#030303"/>
    <path id="Trazado_819798" data-name="Trazado 819798" d="M2.326,37.4l-.074.082c-.018-.065.016-.085.074-.082" transform="translate(-0.868 -14.444)" fill="#030303"/>
    <path id="Trazado_819799" data-name="Trazado 819799" d="M2.032,37.961l-.066.093c-.025-.064.017-.08.066-.093" transform="translate(-0.757 -14.663)" fill="#030303"/>
    <path id="Trazado_819800" data-name="Trazado 819800" d="M37.154,8.414l-.093.06c.015-.045.029-.091.093-.06" transform="translate(-14.315 -3.246)" fill="#030303"/>
    <path id="Trazado_819801" data-name="Trazado 819801" d="M9.015,29.258l-.1.061c.016-.046.031-.094.1-.061" transform="translate(-3.445 -11.297)" fill="#030303"/>
    <path id="Trazado_819802" data-name="Trazado 819802" d="M39.63,6.507l-.1.066c.015-.047.033-.092.1-.066" transform="translate(-15.27 -2.51)" fill="#030303"/>
    <path id="Trazado_819803" data-name="Trazado 819803" d="M9.449,28.965l-.1.067c.019-.045.035-.1.1-.067" transform="translate(-3.61 -11.185)" fill="#030303"/>
    <path id="Trazado_819804" data-name="Trazado 819804" d="M9.887,28.677l-.1.063c.019-.044.033-.1.1-.063" transform="translate(-3.78 -11.073)" fill="#030303"/>
    <path id="Trazado_819805" data-name="Trazado 819805" d="M139.92,57.458l-.066-.065c.063-.02.082,0,.066.065" transform="translate(-54.02 -22.166)" fill="#030303"/>
    <path id="Trazado_819806" data-name="Trazado 819806" d="M10.324,28.389l-.1.061c.019-.044.032-.1.1-.061" transform="translate(-3.949 -10.961)" fill="#030303"/>
    <path id="Trazado_819807" data-name="Trazado 819807" d="M40.214,6.082l-.093.058c.015-.045.028-.093.093-.058" transform="translate(-15.497 -2.345)" fill="#030303"/>
    <path id="Trazado_819808" data-name="Trazado 819808" d="M11.344,27.806l-.1.06c.02-.043.032-.1.1-.06" transform="translate(-4.343 -10.735)" fill="#030303"/>
    <path id="Trazado_819809" data-name="Trazado 819809" d="M24.125,100.514l.072.076c-.057.007-.088-.013-.072-.076" transform="translate(-9.317 -38.824)" fill="#030303"/>
    <path id="Trazado_819810" data-name="Trazado 819810" d="M66.681,102.846l.077.06c-.068.034-.079,0-.077-.06" transform="translate(-25.756 -39.725)" fill="#030303"/>
    <path id="Trazado_819811" data-name="Trazado 819811" d="M27.547,22.086l-.075.083c-.015-.064.018-.084.075-.083" transform="translate(-10.61 -8.531)" fill="#030303"/>
    <path id="Trazado_819812" data-name="Trazado 819812" d="M40.647,5.786l-.1.066c.02-.045.035-.1.1-.066" transform="translate(-15.66 -2.231)" fill="#030303"/>
    <path id="Trazado_819813" data-name="Trazado 819813" d="M27.84,21.36l-.068.081c-.024-.066.012-.082.068-.081" transform="translate(-10.724 -8.25)" fill="#030303"/>
    <path id="Trazado_819814" data-name="Trazado 819814" d="M28.277,20.339l-.071.082c-.02-.066.015-.083.071-.082" transform="translate(-10.892 -7.856)" fill="#030303"/>
    <path id="Trazado_819815" data-name="Trazado 819815" d="M44.9,113.335c-.019.031-.038.06-.056.09-.039-.066.011-.076.056-.09" transform="translate(-17.314 -43.777)" fill="#030303"/>
    <path id="Trazado_819816" data-name="Trazado 819816" d="M44.781,113.728l0-.013h-.035l.032.012" transform="translate(-17.285 -43.923)" fill="#030303"/>
    <path id="Trazado_819817" data-name="Trazado 819817" d="M41.084,5.5l-.1.063c.02-.044.034-.1.1-.063" transform="translate(-15.83 -2.119)" fill="#030303"/>
    <path id="Trazado_819818" data-name="Trazado 819818" d="M85.713,11.384l-.093-.07c.063-.02.083.019.093.07" transform="translate(-33.071 -4.368)" fill="#030303"/>
    <path id="Trazado_819819" data-name="Trazado 819819" d="M42.251,4.77l-.1.062c.02-.044.033-.1.1-.062" transform="translate(-16.28 -1.838)" fill="#030303"/>
    <path id="Trazado_819820" data-name="Trazado 819820" d="M44.6,114.224l-.075.083c-.015-.064.018-.085.075-.083" transform="translate(-17.198 -44.12)" fill="#030303"/>
    <path id="Trazado_819821" data-name="Trazado 819821" d="M45.373,118.446l.09.056c-.065.038-.075-.012-.09-.056" transform="translate(-17.526 -45.751)" fill="#030303"/>
    <path id="Trazado_819822" data-name="Trazado 819822" d="M43.27,4.188l-.1.06c.021-.042.033-.1.1-.06" transform="translate(-16.674 -1.612)" fill="#030303"/>
    <path id="Trazado_819823" data-name="Trazado 819823" d="M51.025,94.981c.118.131.018.154-.087.174-.017-.081-.04-.164.087-.174" transform="translate(-19.67 -36.687)" fill="#030303"/>
    <path id="Trazado_819824" data-name="Trazado 819824" d="M143.016,83.025c.122.133.02.155-.087.175-.015-.08-.022-.156.087-.175" transform="translate(-55.204 -32.069)" fill="#030303"/>
    <path id="Trazado_819825" data-name="Trazado 819825" d="M133.221,97.487l-.1.066c.02-.045.036-.095.1-.066" transform="translate(-51.418 -37.652)" fill="#030303"/>
    <path id="Trazado_819826" data-name="Trazado 819826" d="M126.975,42.647l-.075.08c-.013-.062.019-.082.075-.08" transform="translate(-49.015 -16.473)" fill="#030303"/>
    <path id="Trazado_819827" data-name="Trazado 819827" d="M50.582,67.137l-.074.082c-.015-.063.017-.083.074-.082" transform="translate(-19.508 -25.932)" fill="#030303"/>
    <path id="Trazado_819828" data-name="Trazado 819828" d="M142.374,71.8l.054.089c-.044-.014-.1-.023-.054-.089" transform="translate(-54.987 -27.733)" fill="#030303"/>
    <path id="Trazado_819829" data-name="Trazado 819829" d="M48.249,71.947l-.075.082c-.013-.063.018-.084.075-.082" transform="translate(-18.606 -27.79)" fill="#030303"/>
    <path id="Trazado_819830" data-name="Trazado 819830" d="M42.856,83.031l-.075.08c-.013-.062.018-.083.075-.08" transform="translate(-16.523 -32.071)" fill="#030303"/>
    <path id="Trazado_819831" data-name="Trazado 819831" d="M141.993,86.526l-.066.081c-.025-.065.012-.08.066-.081" transform="translate(-54.817 -33.421)" fill="#030303"/>
    <path id="Trazado_819832" data-name="Trazado 819832" d="M99.262,92.821l-.09.064c.011-.048.027-.088.09-.064" transform="translate(-38.306 -35.85)" fill="#030303"/>
    <path id="Trazado_819833" data-name="Trazado 819833" d="M50.781,94.62h.08l-.04.013Z" transform="translate(-19.615 -36.548)" fill="#030303"/>
    <path id="Trazado_819834" data-name="Trazado 819834" d="M97.089,95.161a.092.092,0,0,1-.058.057c-.02-.059,0-.077.058-.057" transform="translate(-37.476 -36.754)" fill="#030303"/>
    <path id="Trazado_819835" data-name="Trazado 819835" d="M135.855,95.447l-.087.063c.009-.048.025-.088.087-.063" transform="translate(-52.441 -36.864)" fill="#030303"/>
    <path id="Trazado_819836" data-name="Trazado 819836" d="M134.832,96.319l-.093.064c.013-.047.03-.088.093-.064" transform="translate(-52.044 -37.201)" fill="#030303"/>
    <path id="Trazado_819837" data-name="Trazado 819837" d="M134.1,96.9l-.106.072c.02-.047.039-.095.106-.072" transform="translate(-51.755 -37.425)" fill="#030303"/>
    <path id="Trazado_819838" data-name="Trazado 819838" d="M133.659,97.191l-.1.069c.02-.046.037-.094.1-.069" transform="translate(-51.587 -37.538)" fill="#030303"/>
    <path id="Trazado_819839" data-name="Trazado 819839" d="M94.155,97.492l-.094.058c.016-.044.03-.092.094-.058" transform="translate(-36.332 -37.652)" fill="#030303"/>
    <path id="Trazado_819840" data-name="Trazado 819840" d="M93.717,97.776l-.1.062c.016-.046.033-.091.1-.062" transform="translate(-36.161 -37.763)" fill="#030303"/>
    <path id="Trazado_819841" data-name="Trazado 819841" d="M92.693,98.371l-.1.057c.02-.042.032-.1.1-.057" transform="translate(-35.765 -37.992)" fill="#030303"/>
    <path id="Trazado_819842" data-name="Trazado 819842" d="M27.754,23.655l-.267.206c-.062-.024-.08.02-.1.064a18.139,18.139,0,0,0-1.583,1.457,4.457,4.457,0,0,0-.642.783.084.084,0,0,0-.093.085,13.812,13.812,0,0,0-1.835,3.106,16.218,16.218,0,0,0-.813,2.542,18.193,18.193,0,0,0-.3,1.977c-.032.252-.221.278-.394.35a9.077,9.077,0,0,0-1.846.891c-.061.032-.161-.024-.189.083l-.8.476c-.064-.028-.081.019-.1.063l-.169.12c-.06-.031-.075.012-.091.055L18,36.3c-.06-.025-.079.016-.095.06l-.263.207c-.059-.022-.078.017-.093.062l-.443.382c-.061-.018-.081.023-.1.069a16.152,16.152,0,0,0-3.26,3.6.377.377,0,0,1-.5.195A9.978,9.978,0,0,1,7.228,36.3a9.706,9.706,0,0,1-1.362-3.905,8.244,8.244,0,0,1,.1-2.931,2.493,2.493,0,0,0,.048-.438c.086-.03.193-.041.16-.178A3.708,3.708,0,0,1,6.7,27.057a9.742,9.742,0,0,1,4.585-4.826,9.627,9.627,0,0,1,3.933-1.014,11.21,11.21,0,0,1,4.284.626,1.857,1.857,0,0,0,1.963-1.113,6.292,6.292,0,0,0,.3-1.375c.076-.037.188-.042.159-.174-.113-.334.075-.623.164-.916A17.571,17.571,0,0,1,35.393,6.13c.88-.187,1.783-.185,2.669-.3a14.326,14.326,0,0,1,3.3.122,15.673,15.673,0,0,1,4.5,1.2.74.74,0,0,0,.171.028.37.37,0,0,0,.251.186h0c.036.089.109.077.18.068a10.969,10.969,0,0,1,1.779.919c.017.045.034.088.1.059l.177.118c.016.042.03.086.09.053A13.707,13.707,0,0,1,50.146,9.7c-.01.057,0,.086.068.06a17.888,17.888,0,0,1,4.653,5.658c.137.25.1.357-.161.455a24.029,24.029,0,0,0-3.956,2c-.063-.034-.075.014-.089.056a9.454,9.454,0,0,0-1.164.837c-.062-.028-.078.017-.1.06l-.8.656c-.061-.028-.072.014-.082.06A17.791,17.791,0,0,0,46.2,21.811l-.054.017.023.023a18.913,18.913,0,0,0-1.5,1.907c-.052,0-.082.014-.064.073-.1.181-.18.057-.275-.014A13.422,13.422,0,0,0,38.923,21.3a13.877,13.877,0,0,0-4.127-.268,14.858,14.858,0,0,0-4.042.939c-.35.137-.688.306-1.031.461-.064-.035-.078.015-.1.056l-.527.295c-.061-.028-.079.015-.1.059a.14.14,0,0,0-.08.025c-.063,0-.144-.038-.158.071-.007.029-.014.058-.021.087-.066.026-.163-.019-.192.088l-.437.292c-.061-.023-.08.017-.1.063l-.173.122c-.063-.028-.075.018-.09.061" transform="translate(-2.234 -2.23)" fill="#92cbff"/>
    <path id="Trazado_819843" data-name="Trazado 819843" d="M62.132,69.461q-1.209,2.3-2.417,4.607c-.462.88-.948,1.749-1.382,2.644-.245.508-.543.987-.753,1.518A1.792,1.792,0,0,0,59.1,80.461c.487.01.975,0,1.546,0L51.337,90.532l-.1-.078c.4-1.2.806-2.406,1.2-3.611.35-1.059.721-2.111,1.024-3.183a1.851,1.851,0,0,0-.292-1.85,1.919,1.919,0,0,0-1.52-.624c-1.52,0-3.041,0-4.561,0-.171,0-.363.061-.5-.11a.076.076,0,0,0,.028-.068c.686-1.383,1.378-2.762,2.055-4.15q1.848-3.784,3.673-7.578c.129-.269.315-.268.542-.268q4.22,0,8.44,0c.149,0,.3-.007.446-.012h.179l.271.011c.13.183-.115.288-.093.448" transform="translate(-17.997 -26.652)" fill="#ffc81a"/>
    <path id="Trazado_819844" data-name="Trazado 819844" d="M71.911,69.469c-.022-.16.223-.265.093-.448.254.211.237.292-.093.448" transform="translate(-27.776 -26.66)" fill="#030303"/>
    <path id="Trazado_819845" data-name="Trazado 819845" d="M71.608,8.26a.366.366,0,0,1-.25-.186c.128,0,.247.015.25.186" transform="translate(-27.563 -3.119)" fill="#030303"/>
    <path id="Trazado_819846" data-name="Trazado 819846" d="M6.322,43.363c.033.137-.074.148-.16.178a.158.158,0,0,1,.16-.178" transform="translate(-2.38 -16.749)" fill="#030303"/>
    <path id="Trazado_819847" data-name="Trazado 819847" d="M31.978,27.618c.029.133-.083.137-.159.174a.159.159,0,0,1,.159-.174" transform="translate(-12.29 -10.668)" fill="#030303"/>
    <path id="Trazado_819848" data-name="Trazado 819848" d="M71.509,68.923l-.179,0c.009-.057.017-.126.09-.125s.08.069.089.127" transform="translate(-27.552 -26.573)" fill="#030303"/>
    <path id="Trazado_819849" data-name="Trazado 819849" d="M43.228,33.7c.014-.109.095-.072.158-.071,0,.141-.072.122-.158.071" transform="translate(-16.697 -12.986)" fill="#030303"/>
    <path id="Trazado_819850" data-name="Trazado 819850" d="M71.946,8.418c-.072.009-.145.021-.18-.067.08-.031.174-.1.18.067" transform="translate(-27.72 -3.21)" fill="#030303"/>
    <path id="Trazado_819851" data-name="Trazado 819851" d="M28.454,53.663c.028-.106.128-.051.189-.083a.2.2,0,0,1-.189.083" transform="translate(-10.991 -20.696)" fill="#030303"/>
    <path id="Trazado_819852" data-name="Trazado 819852" d="M42.88,33.978c.029-.107.127-.062.192-.088a.192.192,0,0,1-.192.088" transform="translate(-16.563 -13.09)" fill="#030303"/>
    <path id="Trazado_819853" data-name="Trazado 819853" d="M24.959,56c.015-.045.034-.083.093-.062L24.959,56" transform="translate(-9.641 -21.605)" fill="#030303"/>
    <path id="Trazado_819854" data-name="Trazado 819854" d="M44.631,32.972c.019-.042.034-.091.1-.056l-.1.056" transform="translate(-17.239 -12.709)" fill="#030303"/>
    <path id="Trazado_819855" data-name="Trazado 819855" d="M42.011,34.567c.016-.046.036-.087.1-.063l-.1.063" transform="translate(-16.227 -13.325)" fill="#030303"/>
    <path id="Trazado_819856" data-name="Trazado 819856" d="M41.582,34.865c.015-.043.028-.089.09-.061l-.09.061" transform="translate(-16.061 -13.44)" fill="#030303"/>
    <path id="Trazado_819857" data-name="Trazado 819857" d="M71.564,31.944l-.023-.022.053-.017a.375.375,0,0,1-.031.039" transform="translate(-27.633 -12.324)" fill="#030303"/>
    <path id="Trazado_819858" data-name="Trazado 819858" d="M69.034,35.15c-.018-.058.011-.075.064-.072l-.064.072" transform="translate(-26.663 -13.549)" fill="#030303"/>
    <path id="Trazado_819859" data-name="Trazado 819859" d="M40.988,35.3c.017-.044.035-.088.1-.064l-.1.064" transform="translate(-15.832 -13.609)" fill="#030303"/>
    <path id="Trazado_819860" data-name="Trazado 819860" d="M37.212,39.082A.084.084,0,0,1,37.305,39l-.093.085" transform="translate(-14.373 -15.063)" fill="#030303"/>
    <path id="Trazado_819861" data-name="Trazado 819861" d="M26.988,54.547c.019-.044.036-.09.1-.063l-.1.063" transform="translate(-10.424 -21.042)" fill="#030303"/>
    <path id="Trazado_819862" data-name="Trazado 819862" d="M26.563,54.836c.016-.043.031-.086.091-.055l-.091.055" transform="translate(-10.26 -21.155)" fill="#030303"/>
    <path id="Trazado_819863" data-name="Trazado 819863" d="M25.54,55.562c.016-.045.034-.085.095-.06l-.095.06" transform="translate(-9.865 -21.435)" fill="#030303"/>
    <path id="Trazado_819864" data-name="Trazado 819864" d="M24.077,56.733c.017-.045.037-.087.1-.069l-.1.069" transform="translate(-9.3 -21.885)" fill="#030303"/>
    <path id="Trazado_819865" data-name="Trazado 819865" d="M75.418,28.16c.009-.044.02-.087.082-.059l-.082.059" transform="translate(-29.131 -10.851)" fill="#030303"/>
    <path id="Trazado_819866" data-name="Trazado 819866" d="M46.615,88.565a.076.076,0,0,1-.028.068.044.044,0,0,1,.028-.068" transform="translate(-17.992 -34.209)" fill="#030303"/>
    <path id="Trazado_819867" data-name="Trazado 819867" d="M76.854,26.994c.017-.043.033-.088.1-.06l-.1.06" transform="translate(-29.685 -10.4)" fill="#030303"/>
    <path id="Trazado_819868" data-name="Trazado 819868" d="M78.9,25.533c.015-.042.026-.09.089-.056l-.089.056" transform="translate(-30.478 -9.836)" fill="#030303"/>
    <path id="Trazado_819869" data-name="Trazado 819869" d="M78.132,12.228c-.063.026-.079,0-.068-.061l.068.061" transform="translate(-30.152 -4.7)" fill="#030303"/>
    <path id="Trazado_819870" data-name="Trazado 819870" d="M75.493,10.326c-.06.033-.074-.012-.09-.053l.09.053" transform="translate(-29.125 -3.968)" fill="#030303"/>
    <path id="Trazado_819871" data-name="Trazado 819871" d="M75.054,10.043c-.062.029-.08-.014-.1-.058l.1.058" transform="translate(-28.953 -3.857)" fill="#030303"/>
    <path id="Trazado_819872" data-name="Trazado 819872" d="M43.616,33.548c.017-.044.034-.087.1-.059l-.1.059" transform="translate(-16.847 -12.932)" fill="#030303"/>
  </g>
</svg>
