<svg xmlns="http://www.w3.org/2000/svg" xmlns:xlink="http://www.w3.org/1999/xlink" width="190" height="190" viewBox="0 0 190 190">
  <defs>
    <clipPath id="clip-path">
      <rect id="Rect치ngulo_377561" data-name="Rect치ngulo 377561" width="190" height="190" transform="translate(1125 2520.811)" fill="#fff" stroke="#707070" stroke-width="1"/>
    </clipPath>
    <clipPath id="clip-path-2">
      <rect id="Rect치ngulo_377566" data-name="Rect치ngulo 377566" width="176.184" height="176.668" fill="none"/>
    </clipPath>
  </defs>
  <g id="Enmascarar_grupo_346" data-name="Enmascarar grupo 346" transform="translate(-1125 -2520.811)" clip-path="url(#clip-path)">
    <g id="Grupo_1073300" data-name="Grupo 1073300" transform="translate(1132.81 2534.143)">
      <g id="Grupo_1073299" data-name="Grupo 1073299" clip-path="url(#clip-path-2)">
        <path id="Trazado_820636" data-name="Trazado 820636" d="M138.737,103.214a9.008,9.008,0,0,1,2.069,5.422,50.075,50.075,0,0,1,.088,6.767,5.338,5.338,0,0,0,1.126,3.445c1.894,2.821,3.683,5.712,5.492,8.589q1.651,2.626,3.232,5.3a18.021,18.021,0,0,1,2.532,6.983,16.821,16.821,0,0,1-2.116,10.892,16.547,16.547,0,0,1-9.461,7.444.912.912,0,0,0-.77,1.06c.054,1.96.011,3.924.022,5.886a19.505,19.505,0,0,1-.523,5.3c-.081.3-.015.471.336.456.275-.012.55,0,.825,0q16.829,0,33.657-.019c.765,0,.98.179.943.948-.068,1.407-.054,2.821,0,4.23.022.629-.2.816-.771.734a3.9,3.9,0,0,0-.549,0q-86.849,0-173.7.024c-.925,0-1.19-.213-1.128-1.138a33.564,33.564,0,0,0,0-3.953c-.038-.722.21-.837.866-.836q16.783.031,33.565.015c1.209,0,1.229,0,1.008-1.184a14.534,14.534,0,0,1-.2-2.715q.006-3.955,0-7.911c0-.354.03-.566-.492-.74a16.868,16.868,0,0,1-11.618-20.229,10,10,0,0,1,1.062-3.277c1.051-1.557,1.844-3.251,2.879-4.807q2.522-3.8,4.847-7.721c.851-1.444,1.928-2.727,2.754-4.183A3.822,3.822,0,0,0,35.292,116c-.026-2.361-.038-4.722,0-7.083a8.913,8.913,0,0,1,7.475-8.613,5.987,5.987,0,0,1,1.7-.18c1.235.179,1.8-.431,2.407-1.416,2.6-4.218,5.176-8.453,7.98-12.541a1.15,1.15,0,0,0-.087-1.5c-2.724-3.808-5.4-7.648-8.149-11.44a16.037,16.037,0,0,1-3.216-7.54,14.49,14.49,0,0,1,1.553-8.362q3.175-6.26,6.744-12.3A3.091,3.091,0,0,0,51.942,42a20.919,20.919,0,0,1-1.49-9.522c.834-9.619,5.806-16.221,14.646-19.933a1.717,1.717,0,0,0,.811-.8A23.621,23.621,0,0,1,83.5.347,33.749,33.749,0,0,1,87.358,0c1.753.029,3.494.18,5.239.353a23.429,23.429,0,0,1,12.7,5.49,17.731,17.731,0,0,1,4.467,5c.813,1.508,2.018,1.923,3.285,2.543a23.132,23.132,0,0,1,8.987,7.821c.12.175.259.336.389.5l.145.219,0-.006a2.213,2.213,0,0,0,.808,1.186,4.853,4.853,0,0,0-.4-2.155,22.765,22.765,0,0,1,1.675-10.59A15.8,15.8,0,0,1,127.2,6.074c.714-.829,1.257-1.773,1.952-2.617a8.926,8.926,0,0,1,5.7-3.119c3.473-.6,5.929,1.018,8.139,3.365.877.93,1.731,1.887,2.668,2.755a8.582,8.582,0,0,1,2.8,6.589,11.873,11.873,0,0,1-1.655,5.218c-.665,1.352-1.31,2.716-2,4.052a.827.827,0,0,0,.239,1.115c2.524,2.5,5.069,4.973,7.537,7.525a1.185,1.185,0,0,0,1.637.207c2.12-.992,4.2-2.12,6.395-2.894a8.087,8.087,0,0,1,8.622,1.879c1.567,1.452,3.056,2.991,4.533,4.537a8.026,8.026,0,0,1,2.079,4.764,8.7,8.7,0,0,1-2,6.667,11.507,11.507,0,0,1-3.37,2.911,41.8,41.8,0,0,1-5.381,2.836,25.11,25.11,0,0,1-6.058,1.559,16.511,16.511,0,0,1-5.887-.461,24.646,24.646,0,0,1-8.168-3.878,26.639,26.639,0,0,1-3.671-3.344c-2.35-2.369-4.689-4.749-7.068-7.088-2.184-2.148-4.211-4.441-6.278-6.7a18.435,18.435,0,0,1-2.1-2.894c-.148-.243-.206-.579-.649-.719a16.074,16.074,0,0,0,.193,1.762,18.634,18.634,0,0,1,.193,6.513,19.353,19.353,0,0,1-1.833,6.468.863.863,0,0,0,.119.863c1.494,2.67,2.992,5.338,4.465,8.019,1.082,1.969,2.205,3.921,3.168,5.949a13.608,13.608,0,0,1,1.331,6.616,16.856,16.856,0,0,1-3.466,8.991c-2.739,3.809-5.417,7.662-8.172,11.459a.806.806,0,0,0,.014,1.109c2.668,3.743,5.033,7.681,7.411,11.61.425.7.892,1.377,1.313,2.08.222.372.559.3.886.321a15.273,15.273,0,0,1,3.738.5A6.111,6.111,0,0,1,138,102.7l.741.512M88.2,170.752q21.966,0,43.932,0a2.014,2.014,0,0,0,1.415-.426,4.259,4.259,0,0,0,1.524-3.511q.014-28.381.007-56.761a3.357,3.357,0,0,0-.007-.551c-.19-1.131-.311-2.32-1.472-2.942a5.6,5.6,0,0,0-2.714-.588q-32.926.026-65.853.013c-6.787,0-13.574-.009-20.361.01-2.269.006-3.517,1.317-3.517,3.592q0,28.611,0,57.221c0,.307,0,.613.007.92a3.254,3.254,0,0,0,3.106,3.028q21.967-.027,43.933-.007M108.665,44.246c0-2.7-.018-5.4.013-8.092.007-.635-.171-.886-.822-.837a10.4,10.4,0,0,1-3.81-.667,21.362,21.362,0,0,1-10.776-7.163.9.9,0,0,0-1.245-.322,54.568,54.568,0,0,1-5.5,1.728c-1.982.608-3.971,1.2-5.974,1.751-1.755.481-3.51,1.051-5.235,1.668-.9.321-1.836.459-2.739.773a16.737,16.737,0,0,1-4.439,1.125c-.466.028-.493.266-.587.624a9.108,9.108,0,0,0,.016,2.4c0,3.924.035,7.848-.013,11.771A36.629,36.629,0,0,0,68.5,59.264,15.821,15.821,0,0,0,71.163,65.3c1.8,2.2,3.692,4.321,5.517,6.5A12.6,12.6,0,0,0,80.4,75.077c2.269,1.193,4.566,2.341,6.77,3.645a1.848,1.848,0,0,0,2.235-.171c1.207-.79,2.519-1.38,3.792-2.046,1.969-1.032,4.034-1.933,5.527-3.68,1.75-2.048,3.436-4.15,5.232-6.155a15.08,15.08,0,0,0,3.131-5.408,34.474,34.474,0,0,0,1.574-10.21c.047-2.267.009-4.536.008-6.8M61.7,36.834c0-1.433-.063-2.844.022-4.247A2.7,2.7,0,0,1,63,30.148a16.449,16.449,0,0,1,2.394-1.022c2.9-.855,5.805-1.706,8.7-2.575,6.211-1.861,12.418-3.74,18.631-5.6a3.214,3.214,0,0,1,4.119,1.455,25.058,25.058,0,0,0,1.952,2.4,14,14,0,0,0,7.857,4.281,22.476,22.476,0,0,0,4.374.358c2.026.011,2.922.84,3.354,2.751a17.066,17.066,0,0,1,.141,2.913c.033.588.006,1.18.006,1.8.584-.115.773-.508,1.073-.756a2.7,2.7,0,0,1,3.379-.226c.813.69.877.17,1.016-.421a3.917,3.917,0,0,0,.046-.64,14.727,14.727,0,0,0-.587-5.173c-1.7-5.748-5.021-10.044-10.883-11.949a5.37,5.37,0,0,1-2.931-2.442c-2.428-3.732-5.291-7-9.751-8.347A28.43,28.43,0,0,0,85.041,6.04,19.271,19.271,0,0,0,73.318,11.6a15.213,15.213,0,0,0-3,4.034c-.385.723-.744,1.589-1.572,1.8a15.845,15.845,0,0,0-4.978,2.378c-5.568,3.816-7.846,9.24-7.538,15.886.031.675.2.687.743.354,1.766-1.081,2.613-.948,4.122.529a.662.662,0,0,0,.605.252m61.54,63.265a18.6,18.6,0,0,0-2.18-3.607c-2.014-3.006-3.8-6.155-5.782-9.179a3.2,3.2,0,0,1,.021-3.925c3.254-4.915,6.83-9.6,10.145-14.471a8.116,8.116,0,0,0,1.071-7.554,49.458,49.458,0,0,0-3.731-7.581c-1.794-3.2-3.538-6.424-5.447-9.556-.312-.511-.5-.658-.841.006a8.538,8.538,0,0,0-.886,4.339,51.862,51.862,0,0,0,1.446,8.361c.367,1.788.347,3.374-1.106,4.692a9.311,9.311,0,0,0-.965,1.106c-1.6,2.007-3.6,3.723-4.85,5.978a38.671,38.671,0,0,1-6.111,7.715c-.358.378-.861.551-1.168,1a7.308,7.308,0,0,0-1.118,5.438,37.226,37.226,0,0,0,2.269,6.747c1.162,3.165,2.513,6.258,3.721,9.406.294.766.481,1.323,1.508,1.115a12.241,12.241,0,0,1,2.377-.03h11.623m-62.716,0c2.079,0,4.159-.054,6.234.025.922.035,1.267-.336,1.561-1.138,1.354-3.7,2.888-7.33,4.318-11,.889-2.281,1.887-4.459,1.739-7a5.474,5.474,0,0,0-1.787-4.15,25.1,25.1,0,0,1-3.65-3.982c-1.458-1.929-2.653-4.057-4.281-5.849-1.691-1.861-3.074-3.966-4.752-5.835a3.425,3.425,0,0,1-1.137-2.88c.261-1.522.594-3.03.877-4.548.327-1.759.646-3.519.944-5.282.247-1.469-.469-2.746-.9-4.069-.289-.9-.743-.3-.987.048a42.87,42.87,0,0,0-2.231,3.979q-3.19,5.679-6.2,11.451a8.311,8.311,0,0,0-.507,7.076,16.542,16.542,0,0,0,2.14,3.622c2.984,4.223,6.052,8.386,8.926,12.688a3.306,3.306,0,0,1,.13,3.96c-.2.308-.385.625-.579.936Q56.943,93.684,53.5,99.215c-.494.8-.437.881.518.883q3.255.007,6.51,0m97.1-52.621a11.925,11.925,0,0,0,6.039-1.243,26.685,26.685,0,0,0,4.85-3.276c1.91-1.469,2.112-3.276.463-5-1.014-1.061-2.059-2.093-3.1-3.122a3.358,3.358,0,0,0-4.258-.725c-2.283,1.1-4.557,2.214-6.835,3.321-2.247,1.092-3.14.887-4.842-.917-3.275-3.475-6.655-6.847-10.107-10.145-1.914-1.829-2.111-2.71-.9-5.085q1.707-3.358,3.242-6.8a3.435,3.435,0,0,0-.749-4.191c-.971-.974-1.9-1.987-2.878-2.954-1.851-1.832-3.7-1.682-5.252.4a25.5,25.5,0,0,0-3.085,4.768,13.723,13.723,0,0,0-1.517,7.243,16.418,16.418,0,0,0,5.023,10.044c4.4,4.3,8.677,8.725,13.056,13.045,2.928,2.889,6.327,4.8,10.859,4.627m-69.42,52.628h12.462c1.381,0,1.388,0,.863-1.338-.749-1.9-1.528-3.8-2.254-5.709-.406-1.067-.42-1.11-1.363-.375a17.011,17.011,0,0,1-3.592,2.353c-3.013,1.311-6.1,2.016-9.382,1.152a14.44,14.44,0,0,1-6.758-3.628c-.613-.613-.872-.386-1.131.29-.777,2.026-1.577,4.044-2.376,6.062-.442,1.117-.4,1.189.794,1.19q6.369.006,12.737,0M35.282,128.37l-.209-.075c-.212.311-.443.61-.634.934-1.4,2.37-2.753,4.768-4.189,7.115a10.661,10.661,0,0,0,4.1,15.3c.933.5.936.5.936-.587q0-10.661,0-21.323v-1.36m105.664.2v1.647q0,9.464,0,18.927c0,.3-.013.61-.041.914-.06.64-.171,1.459.241,1.821.342.3.924-.386,1.4-.628a2.949,2.949,0,0,0,.309-.2,10.665,10.665,0,0,0,4.016-12.839c-.847-2.281-2.407-4.171-3.567-6.284a13.2,13.2,0,0,0-2.359-3.363M87.982,90.734c.771-.144,1.647-.248,2.49-.478,2.286-.622,3.865-2.306,5.539-3.834A.91.91,0,0,0,96.2,85.4a8.7,8.7,0,0,1-.361-2.4c-.094-1.146-.038-1.15-1.039-.646-.849.428-1.6,1.1-2.651,1.017-.086-.007-.184.132-.275.205A11.95,11.95,0,0,1,89.2,85.058a2.5,2.5,0,0,1-2.339-.047c-1.921-1-3.874-1.941-5.8-2.935-.635-.328-.884-.219-.839.518a6.76,6.76,0,0,1-.489,3.047.772.772,0,0,0,.314,1.014c1.12.8,2.19,1.666,3.308,2.465a9.025,9.025,0,0,0,4.63,1.613" transform="translate(-0.008 0)" fill="#040405"/>
        <path id="Trazado_820637" data-name="Trazado 820637" d="M.073,90.391q0-8.829,0-17.659c0-3.446,2.749-7.308,6.035-8.218a13.54,13.54,0,0,1,3.572-.52c5.288-.017,10.576-.045,15.863.005,3.961.037,7.161,1.485,8.918,5.293a10.5,10.5,0,0,1,.816,4.415q.049,16.878.007,33.754c-.021,5.875-4.055,9.508-9.453,9.516-5.807.008-11.615.039-17.421-.016-3.2-.031-6.644-2.7-7.765-5.907a11.187,11.187,0,0,1-.575-3.741q.009-8.461,0-16.923m5.87.092q0,8.461,0,16.922c0,2.43,1.246,3.683,3.667,3.684q8.022.006,16.045,0c2.549,0,3.767-1.218,3.767-3.769q0-16.784,0-33.568c0-2.674-1.188-3.873-3.855-3.877q-7.977-.009-15.954,0c-2.421,0-3.669,1.262-3.67,3.684q0,8.46,0,16.922" transform="translate(-0.018 -16.88)" fill="#040405"/>
        <path id="Trazado_820638" data-name="Trazado 820638" d="M32.34,20.741q0,8.464,0,16.927A3.322,3.322,0,0,1,28.7,41.3c-.586-.007-.6-.475-.946-.655-1.963-1.031-3.754-2.358-5.8-3.263a28.4,28.4,0,0,1-2.963-1.942c-1.469-.89-2.961-1.748-4.478-2.552a5.141,5.141,0,0,0-2.259-.431c-1.714-.054-3.433.042-5.142-.066a5.237,5.237,0,0,1-1.725-.768,8.844,8.844,0,0,1-5.3-8.011,59.04,59.04,0,0,1,0-6.437A8.847,8.847,0,0,1,6.829,9.247,27.316,27.316,0,0,1,13.074,8.9a3.046,3.046,0,0,0,1.714-.478c4.1-2.535,8.246-5.01,12.338-7.564A4.387,4.387,0,0,1,30.373.292a2.3,2.3,0,0,1,1.717,1.828A7.878,7.878,0,0,1,32.351,4c-.018,5.581-.01,11.162-.01,16.743M26.37,8.329a.776.776,0,0,0-.6.2c-2.48,1.5-4.945,3.035-7.442,4.512a1.231,1.231,0,0,0-.659,1.251c.022,4.137.042,8.275-.011,12.411a1.853,1.853,0,0,0,1.056,1.827c2.287,1.352,4.543,2.757,6.817,4.132.252.152.5.508.783.371.3-.144.14-.551.14-.839q.011-11.491,0-22.984a1.673,1.673,0,0,0-.081-.88M11.763,20.707v-3.4c0-2.675,0-2.675-2.7-2.5A3.123,3.123,0,0,0,5.958,18.09q-.017,2.574,0,5.148a3.018,3.018,0,0,0,2.4,3.14,13.7,13.7,0,0,0,2.64.149c.6.056.794-.153.78-.765-.038-1.684-.013-3.37-.014-5.055" transform="translate(0 -0.052)"/>
        <path id="Trazado_820639" data-name="Trazado 820639" d="M189.077,112.912a7.928,7.928,0,0,0-2.24-.428c-.637-.079-.706-.4-.582-.863a15.364,15.364,0,0,1,4.689-7.854c.594-.515,1.287-.942,1.925-1.4a23.718,23.718,0,0,1,4.808-2.181c.517-.224.753-.341.289-.928a8.737,8.737,0,0,1-2.027-5.615c.019-1.87-.093-3.747.032-5.609a8.188,8.188,0,0,1,2.258-5,8.1,8.1,0,0,1,4.833-2.682,8.465,8.465,0,0,1,7.063,1.7,8.61,8.61,0,0,1,3.288,6.443,28.681,28.681,0,0,1-.243,7.427,6.1,6.1,0,0,1-1.519,3.171c-.715.727-.233.936.332,1.162a26.409,26.409,0,0,1,5.263,2.589,15.479,15.479,0,0,1,3.846,3.938,16.187,16.187,0,0,1,2.361,6.772c.364,2.043.688,4.094,1.036,6.141.2,1.181.411,2.359.624,3.539.064.353-.115.511-.427.573-1.542.311-3.088.6-4.625.942-.457.1-.587-.136-.7-.469a2.8,2.8,0,0,0,.011-.548q-.883-5.005-1.782-10.008a8.983,8.983,0,0,0-4.811-6.77c-2.442-1.26-5.037-2.183-7.57-3.239a1.708,1.708,0,0,0-1.4.2c-1.905.823-3.787,1.707-5.718,2.462a9.451,9.451,0,0,0-5.968,6.266.684.684,0,0,1-.792.555,13.4,13.4,0,0,0-2.247-.278m12.739-21.544c0,.765-.026,1.53.005,2.294A3.423,3.423,0,0,0,204.45,96.8c1.42.236,3.122-1.274,3.21-2.985a46.545,46.545,0,0,0-.007-4.861,3.031,3.031,0,0,0-3.02-2.963,3.135,3.135,0,0,0-2.813,3.085c-.034.763-.006,1.529-.006,2.294" transform="translate(-49.134 -21.16)" fill="#040405"/>
        <path id="Trazado_820640" data-name="Trazado 820640" d="M189.406,121.309a13.49,13.49,0,0,1,2.247.278.684.684,0,0,0,.792-.554,9.447,9.447,0,0,1,5.968-6.266c1.932-.755,3.813-1.639,5.717-2.462a1.708,1.708,0,0,1,1.4-.2c2.534,1.056,5.129,1.979,7.57,3.239a8.981,8.981,0,0,1,4.811,6.771q.905,5,1.782,10.008a2.741,2.741,0,0,1-.01.548c-.487-.022-.975-.063-1.461-.063q-14.4-.006-28.8.005c-.411,0-.858-.148-1.234.164l-.741-.512a27.381,27.381,0,0,0,.919-4.637c.372-2.1.692-4.209,1.034-6.314" transform="translate(-49.464 -29.558)" fill="#7816c2"/>
        <path id="Trazado_820641" data-name="Trazado 820641" d="M214.372,6.6a24.116,24.116,0,0,1,1.01-3.491c.543-1.73.543-1.714,2.28-1.011a23.284,23.284,0,0,1,13.317,13.124c.8,1.949.8,1.951-1.156,2.569-1,.316-2,.619-3,.951-.582.194-.912.148-1.133-.558a16.766,16.766,0,0,0-5.126-7.553,19.72,19.72,0,0,0-5.489-3.2c-.69-.289-.714-.269-.706-.835" transform="translate(-56.567 -0.435)" fill="#040405"/>
        <path id="Trazado_820642" data-name="Trazado 820642" d="M56.966,24.432a17.435,17.435,0,0,1-3.178,9.476c-.3.453-.5.538-.95.088-1.058-1.059-2.164-2.075-3.322-3.023-.555-.453-.574-.745-.176-1.312a8.593,8.593,0,0,0,.853-8.73,9.7,9.7,0,0,0-1.072-1.77c-.2-.294-.312-.446.029-.738,1.184-1.014,2.339-2.061,3.489-3.115.5-.455.875-.415,1.29.113a16.006,16.006,0,0,1,2.325,4.816,14.567,14.567,0,0,1,.711,4.194" transform="translate(-12.912 -3.956)" fill="#040405"/>
        <path id="Trazado_820643" data-name="Trazado 820643" d="M207.4,18.869c0-.7.05-1.413-.014-2.11s.211-.823.822-.773a11.648,11.648,0,0,1,8.469,4.535,10.956,10.956,0,0,1,2.464,6.581c.021.649-.13.823-.891.731a29.5,29.5,0,0,0-4.115-.051c-.543.011-.855-.029-.948-.7a5.926,5.926,0,0,0-2.694-4.267,7.327,7.327,0,0,0-2.513-.878c-.541-.133-.6-.329-.585-.769.022-.764.006-1.53.005-2.3" transform="translate(-54.722 -4.216)" fill="#040405"/>
        <path id="Trazado_820644" data-name="Trazado 820644" d="M166.908,28.47a4.864,4.864,0,0,1,.4,2.155,2.214,2.214,0,0,1-.809-1.186c.711-.077.128-.709.413-.969" transform="translate(-43.934 -7.512)" fill="#d5d6d7"/>
        <path id="Trazado_820645" data-name="Trazado 820645" d="M166.449,29.716,166.3,29.5l.145.219" transform="translate(-43.883 -7.783)" fill="#d5d6d7"/>
        <path id="Trazado_820646" data-name="Trazado 820646" d="M102.939,208.737q-21.966,0-43.931.01a3.255,3.255,0,0,1-3.106-3.028c-.005-.307-.007-.613-.007-.92V147.577c0-2.275,1.248-3.586,3.516-3.592,6.787-.019,13.574-.01,20.361-.01q32.927,0,65.853-.013a5.592,5.592,0,0,1,2.714.588c1.16.621,1.281,1.81,1.471,2.942a3.347,3.347,0,0,1,.008.551q0,28.381-.007,56.762a4.262,4.262,0,0,1-1.525,3.511,2.014,2.014,0,0,1-1.415.426q-21.967,0-43.933-.005m14.41-32.277c.364-8.382-7.325-15.462-15.77-14.672a14.65,14.65,0,1,0,15.77,14.672" transform="translate(-14.749 -37.988)" fill="#d5d6d7"/>
        <path id="Trazado_820647" data-name="Trazado 820647" d="M132.836,53.94c0,2.269.039,4.538-.009,6.805a34.465,34.465,0,0,1-1.574,10.209,15.091,15.091,0,0,1-3.131,5.408c-1.8,2.005-3.483,4.108-5.232,6.155-1.493,1.748-3.558,2.648-5.527,3.68-1.273.667-2.585,1.257-3.792,2.047a1.849,1.849,0,0,1-2.235.17c-2.2-1.3-4.5-2.452-6.771-3.645A12.619,12.619,0,0,1,100.85,81.5c-1.823-2.18-3.718-4.3-5.516-6.5a15.8,15.8,0,0,1-2.666-6.037A36.624,36.624,0,0,1,91.723,58.7c.049-3.923.009-7.847.013-11.771a9.082,9.082,0,0,1-.016-2.4c.095-.358.121-.6.587-.624a16.757,16.757,0,0,0,4.439-1.124c.9-.314,1.842-.453,2.739-.774,1.725-.616,3.481-1.187,5.235-1.668,2-.549,3.991-1.142,5.974-1.751a54.611,54.611,0,0,0,5.5-1.728.9.9,0,0,1,1.246.321,21.357,21.357,0,0,0,10.776,7.163,10.4,10.4,0,0,0,3.81.667c.651-.049.829.2.822.837-.03,2.7-.013,5.4-.012,8.092m-23.68,12.668a6.6,6.6,0,0,0,.605,2.889,5.79,5.79,0,0,0,.559,1.5,8.008,8.008,0,0,0,1.451,1.552c2.423,1.9,1.838,1.893,3.141-.684A6.946,6.946,0,0,1,116,69.8c.608-.584.632-.974-.091-1.489a2.72,2.72,0,0,1-.763-3.146,13.9,13.9,0,0,1,2.141-3.247c.208-.269.5-.6.044-.833-1.471-.747-2.641-1.937-4.084-2.721-.507-.275-.845-.094-1.114.363-.414.7-.8,1.432-1.27,2.094a9.421,9.421,0,0,0-1.706,5.784m18.895-13.443a1.121,1.121,0,0,0-.091-.281c-.695-1.391-1.408-2.774-2.091-4.172-.242-.5-.554-.353-.9-.181q-5.392,2.694-10.781,5.391c-.389.2-.486.377-.193.838a38.88,38.88,0,0,1,1.893,3.423c.585,1.169.924,1.292,2.091.544a29.583,29.583,0,0,1,4.2-2.2c1.865-.808,3.641-1.787,5.5-2.6.308-.135.427-.294.37-.762M112.415,74.991a13.3,13.3,0,0,0-3.112.564,11.3,11.3,0,0,0-4.375,2.256c-.472.355-.453.637-.061,1.026,1.063,1.056,2.127,2.111,3.149,3.206.336.359.559.311.921.074a5.45,5.45,0,0,1,6.816.162c.3.229.439.186.659-.045,1.087-1.14,2.169-2.286,3.28-3.4.425-.425.317-.695-.092-1.035a12.813,12.813,0,0,0-7.185-2.807m-4.671-15.6a.463.463,0,0,0,.477-.33,16.894,16.894,0,0,1,1.969-4.03c.406-.706.255-1.044-.462-1.395-3.388-1.663-6.758-3.366-10.121-5.08-.5-.258-.8-.263-1.087.286-.727,1.373-1.295,2.826-2.121,4.15-.212.34-.105.661.353.856,3.332,1.414,6.482,3.2,9.737,4.775a7.6,7.6,0,0,1,1.253.768" transform="translate(-24.179 -9.694)" fill="#f2b5c8"/>
        <path id="Trazado_820648" data-name="Trazado 820648" d="M81.842,38.947a.662.662,0,0,1-.605-.252c-1.509-1.477-2.356-1.609-4.122-.529-.543.332-.711.32-.743-.354-.308-6.646,1.971-12.07,7.539-15.886a15.832,15.832,0,0,1,4.977-2.378c.827-.214,1.187-1.081,1.572-1.8a15.193,15.193,0,0,1,3-4.035,19.264,19.264,0,0,1,11.723-5.558,28.448,28.448,0,0,1,10.853.916c4.459,1.346,7.322,4.616,9.75,8.347a5.369,5.369,0,0,0,2.931,2.443c5.863,1.905,9.178,6.2,10.884,11.948a14.71,14.71,0,0,1,.585,5.173,3.841,3.841,0,0,1-.046.641c-.138.591-.2,1.111-1.017.421a2.7,2.7,0,0,0-3.378.226c-.3.247-.488.641-1.073.756,0-.615.027-1.207-.006-1.8a17.064,17.064,0,0,0-.141-2.913c-.433-1.912-1.329-2.741-3.354-2.751a22.472,22.472,0,0,1-4.374-.358,14,14,0,0,1-7.857-4.281,25.038,25.038,0,0,1-1.952-2.4,3.216,3.216,0,0,0-4.12-1.455q-9.319,2.785-18.631,5.6c-2.9.869-5.8,1.72-8.7,2.574a16.461,16.461,0,0,0-2.395,1.023,2.693,2.693,0,0,0-1.27,2.44c-.086,1.4-.022,2.813-.022,4.246" transform="translate(-20.145 -2.112)" fill="#f4b356"/>
        <path id="Trazado_820649" data-name="Trazado 820649" d="M159.665,115.795H148.042a12.241,12.241,0,0,0-2.377.03c-1.028.208-1.214-.35-1.508-1.115-1.208-3.148-2.56-6.242-3.722-9.406a37.27,37.27,0,0,1-2.269-6.748,7.3,7.3,0,0,1,1.118-5.437c.307-.448.81-.622,1.168-1a38.675,38.675,0,0,0,6.111-7.716c1.249-2.255,3.247-3.97,4.85-5.978a9.232,9.232,0,0,1,.965-1.106c1.452-1.318,1.472-2.9,1.1-4.692a51.863,51.863,0,0,1-1.446-8.361,8.546,8.546,0,0,1,.885-4.339c.342-.664.53-.517.841-.006,1.91,3.132,3.653,6.358,5.447,9.556a49.525,49.525,0,0,1,3.731,7.581,8.116,8.116,0,0,1-1.071,7.554c-3.316,4.869-6.891,9.556-10.145,14.471a3.2,3.2,0,0,0-.021,3.925c1.982,3.024,3.767,6.172,5.782,9.179a18.573,18.573,0,0,1,2.18,3.607" transform="translate(-36.428 -15.696)" fill="#f2b5c8"/>
        <path id="Trazado_820650" data-name="Trazado 820650" d="M78.158,115.844q-3.255,0-6.51,0c-.955,0-1.011-.088-.518-.883q3.435-5.535,6.886-11.062c.194-.311.381-.628.579-.936A3.307,3.307,0,0,0,78.463,99c-2.873-4.3-5.942-8.464-8.926-12.687A16.6,16.6,0,0,1,67.4,82.692a8.312,8.312,0,0,1,.507-7.076q3.011-5.776,6.206-11.453a43.21,43.21,0,0,1,2.23-3.979c.244-.343.7-.944.988-.048.426,1.323,1.142,2.6.894,4.068-.3,1.765-.616,3.525-.944,5.283-.282,1.518-.616,3.026-.876,4.548a3.424,3.424,0,0,0,1.137,2.88c1.678,1.869,3.062,3.974,4.752,5.835,1.628,1.792,2.822,3.92,4.28,5.848a25.14,25.14,0,0,0,3.651,3.983,5.474,5.474,0,0,1,1.787,4.15c.148,2.54-.85,4.719-1.739,7-1.43,3.67-2.963,7.3-4.317,11-.294.8-.64,1.174-1.561,1.139-2.075-.079-4.156-.025-6.234-.025" transform="translate(-17.636 -15.745)" fill="#f2b5c8"/>
        <path id="Trazado_820651" data-name="Trazado 820651" d="M203.73,49.655c-4.532.174-7.931-1.739-10.859-4.627-4.38-4.32-8.66-8.743-13.057-13.045a16.424,16.424,0,0,1-5.023-10.044,13.714,13.714,0,0,1,1.518-7.243,25.521,25.521,0,0,1,3.084-4.769c1.556-2.085,3.4-2.236,5.252-.4.976.967,1.908,1.98,2.878,2.953a3.433,3.433,0,0,1,.749,4.191q-1.541,3.437-3.241,6.8c-1.207,2.375-1.009,3.257.9,5.086q5.179,4.947,10.108,10.145c1.7,1.8,2.594,2.009,4.841.917,2.278-1.106,4.552-2.223,6.836-3.321a3.36,3.36,0,0,1,4.258.725c1.045,1.03,2.089,2.062,3.1,3.122,1.649,1.723,1.447,3.53-.462,5a26.715,26.715,0,0,1-4.85,3.276,11.922,11.922,0,0,1-6.039,1.243" transform="translate(-46.105 -2.177)" fill="#7816c2"/>
        <path id="Trazado_820652" data-name="Trazado 820652" d="M114.878,133.151q-6.369,0-12.737,0c-1.2,0-1.237-.072-.794-1.19.8-2.018,1.6-4.036,2.376-6.062.259-.676.518-.9,1.131-.29a14.44,14.44,0,0,0,6.758,3.628c3.282.863,6.369.159,9.382-1.152a17.012,17.012,0,0,0,3.592-2.353c.942-.735.957-.693,1.363.375.726,1.912,1.505,3.8,2.254,5.709.525,1.335.518,1.338-.863,1.338H114.878" transform="translate(-26.674 -33.046)" fill="#615504"/>
        <path id="Trazado_820653" data-name="Trazado 820653" d="M45.493,174.359v1.36q0,10.661,0,21.323c0,1.092,0,1.092-.937.587a10.659,10.659,0,0,1-4.094-15.3c1.435-2.348,2.791-4.745,4.189-7.116.191-.323.422-.623.634-.933l.209.075" transform="translate(-10.218 -45.989)" fill="#f2b5c8"/>
        <path id="Trazado_820654" data-name="Trazado 820654" d="M191.423,174.652a13.183,13.183,0,0,1,2.359,3.363c1.16,2.113,2.72,4,3.567,6.284a10.666,10.666,0,0,1-4.016,12.84,2.831,2.831,0,0,1-.309.2c-.479.242-1.061.929-1.4.628-.412-.361-.3-1.181-.241-1.821.028-.3.041-.609.041-.914q0-9.463,0-18.927v-1.647" transform="translate(-50.485 -46.086)" fill="#f2b5c8"/>
        <path id="Trazado_820655" data-name="Trazado 820655" d="M116.524,120.093a9.025,9.025,0,0,1-4.63-1.613c-1.118-.8-2.188-1.668-3.308-2.465a.772.772,0,0,1-.314-1.014,6.76,6.76,0,0,0,.489-3.047c-.045-.738.2-.846.839-.518,1.925.994,3.879,1.932,5.8,2.935a2.5,2.5,0,0,0,2.339.047,11.95,11.95,0,0,0,2.682-1.476c.091-.074.188-.212.275-.205,1.048.083,1.8-.589,2.651-1.017,1-.5.944-.5,1.039.646a8.7,8.7,0,0,0,.361,2.4.91.91,0,0,1-.191,1.021c-1.674,1.527-3.252,3.212-5.539,3.834-.843.23-1.72.333-2.49.478" transform="translate(-28.549 -29.359)" fill="#f2b5c8"/>
        <path id="Trazado_820656" data-name="Trazado 820656" d="M8.048,92.6q0-8.461,0-16.922c0-2.421,1.249-3.681,3.67-3.684q7.977-.009,15.954,0c2.667,0,3.854,1.2,3.854,3.876q0,16.784,0,33.569c0,2.551-1.218,3.767-3.767,3.768q-8.023,0-16.046,0c-2.42,0-3.665-1.254-3.666-3.685q0-8.46,0-16.922m11.759,8.833c-.794,0-1.588.017-2.381-.007-.438-.013-.584.158-.58.589.017,1.592.015,3.184,0,4.775,0,.4.15.537.54.534,1.587-.013,3.174-.015,4.761,0,.437,0,.585-.157.581-.589-.017-1.592-.015-3.184,0-4.775,0-.4-.151-.543-.54-.534-.794.016-1.587.005-2.381,0" transform="translate(-2.123 -18.996)" fill="#7816c2"/>
        <path id="Trazado_820657" data-name="Trazado 820657" d="M32.7,11.239a1.666,1.666,0,0,1,.081.88q.009,11.492,0,22.984c0,.288.158.695-.14.839-.283.137-.531-.219-.783-.371-2.273-1.375-4.529-2.78-6.817-4.132a1.855,1.855,0,0,1-1.056-1.827c.053-4.136.034-8.274.012-12.411a1.23,1.23,0,0,1,.659-1.251c2.5-1.477,4.961-3.007,7.442-4.512a.774.774,0,0,1,.6-.2" transform="translate(-6.328 -2.962)" fill="#7816c2"/>
        <path id="Trazado_820658" data-name="Trazado 820658" d="M13.9,25.92c0,1.685-.025,3.371.013,5.055.014.612-.183.821-.78.765a13.684,13.684,0,0,1-2.64-.149,3.018,3.018,0,0,1-2.4-3.14q-.015-2.574,0-5.148A3.123,3.123,0,0,1,11.2,20.022c2.7-.177,2.7-.177,2.7,2.5q0,1.7,0,3.4" transform="translate(-2.133 -5.266)" fill="#7816c2"/>
        <path id="Trazado_820659" data-name="Trazado 820659" d="M207.408,93.445c0-.765-.028-1.53.006-2.294a3.135,3.135,0,0,1,2.813-3.085,3.031,3.031,0,0,1,3.02,2.963,46.545,46.545,0,0,1,.007,4.861c-.088,1.711-1.79,3.221-3.211,2.985a3.423,3.423,0,0,1-2.629-3.136c-.031-.763-.005-1.529-.005-2.294" transform="translate(-54.727 -23.238)" fill="#7816c2"/>
        <path id="Trazado_820660" data-name="Trazado 820660" d="M128.944,182.829a14.553,14.553,0,1,1-15.769-14.672c8.445-.791,16.134,6.29,15.769,14.672m-14.478-8.746a8.617,8.617,0,0,0-8.778,8.184,8.786,8.786,0,0,0,8.9,9.269c4.883.1,8.58-4.091,8.468-9.636a8.465,8.465,0,0,0-8.593-7.817" transform="translate(-26.345 -44.356)" fill="#040405"/>
        <path id="Trazado_820661" data-name="Trazado 820661" d="M115.429,74.316a9.422,9.422,0,0,1,1.706-5.783c.474-.662.855-1.391,1.27-2.094.269-.457.607-.638,1.115-.362,1.442.783,2.613,1.973,4.083,2.72.455.231.163.563-.044.833a13.95,13.95,0,0,0-2.141,3.247,2.722,2.722,0,0,0,.763,3.146c.723.515.7.9.091,1.488a6.927,6.927,0,0,0-1.084,2.066c-1.3,2.577-.718,2.587-3.141.685a7.99,7.99,0,0,1-1.451-1.553,5.754,5.754,0,0,1-.559-1.5,6.6,6.6,0,0,1-.606-2.889" transform="translate(-30.451 -17.401)" fill="#040405"/>
        <path id="Trazado_820662" data-name="Trazado 820662" d="M136.008,57.336c.057.467-.061.627-.371.762-1.857.809-3.633,1.787-5.5,2.6a29.645,29.645,0,0,0-4.2,2.2c-1.167.749-1.505.625-2.091-.543a38.783,38.783,0,0,0-1.894-3.423c-.292-.462-.2-.643.193-.838q5.388-2.7,10.781-5.391c.344-.172.656-.315.9.181.682,1.4,1.4,2.78,2.091,4.172a1.136,1.136,0,0,1,.091.281" transform="translate(-32.136 -13.864)" fill="#040405"/>
        <path id="Trazado_820663" data-name="Trazado 820663" d="M117.055,88.7a12.812,12.812,0,0,1,7.186,2.807c.409.34.516.61.091,1.035-1.112,1.115-2.194,2.261-3.28,3.4-.219.23-.358.273-.659.045a5.449,5.449,0,0,0-6.816-.162c-.362.236-.584.285-.921-.074-1.022-1.095-2.086-2.15-3.149-3.206-.392-.389-.411-.671.061-1.027a11.309,11.309,0,0,1,4.376-2.256,13.328,13.328,0,0,1,3.111-.563" transform="translate(-28.819 -23.406)" fill="#040405"/>
        <path id="Trazado_820664" data-name="Trazado 820664" d="M109.417,63.564a7.6,7.6,0,0,0-1.253-.768c-3.255-1.572-6.406-3.361-9.737-4.775-.459-.2-.565-.516-.353-.856.826-1.324,1.394-2.777,2.121-4.15.291-.548.582-.543,1.087-.286,3.363,1.714,6.733,3.417,10.121,5.08.716.351.868.689.462,1.395a16.894,16.894,0,0,0-1.969,4.03.463.463,0,0,1-.477.33" transform="translate(-25.851 -13.869)" fill="#040405"/>
        <path id="Trazado_820665" data-name="Trazado 820665" d="M22.961,111.983c.794,0,1.587.012,2.381-.005.389-.008.543.137.54.534-.013,1.592-.015,3.184,0,4.776,0,.431-.144.593-.581.588-1.587-.018-3.174-.014-4.761,0-.389,0-.543-.136-.54-.534.013-1.592.015-3.184,0-4.776,0-.431.142-.6.58-.588.793.023,1.587.006,2.381.007" transform="translate(-5.277 -29.548)" fill="#040405"/>
        <path id="Trazado_820666" data-name="Trazado 820666" d="M116.562,176.225a8.465,8.465,0,0,1,8.593,7.817c.112,5.545-3.585,9.739-8.468,9.636a8.786,8.786,0,0,1-8.9-9.269,8.617,8.617,0,0,1,8.778-8.184" transform="translate(-28.441 -46.498)" fill="#f6f8fa"/>
      </g>
    </g>
  </g>
</svg>
