<svg xmlns="http://www.w3.org/2000/svg" xmlns:xlink="http://www.w3.org/1999/xlink" width="169" height="169" viewBox="0 0 169 169">
  <defs>
    <clipPath id="clip-path">
      <rect id="Rect치ngulo_377608" data-name="Rect치ngulo 377608" width="103.992" height="103.96" fill="none"/>
    </clipPath>
  </defs>
  <g id="Grupo_1073337" data-name="Grupo 1073337" transform="translate(-719 -2877.811)">
    <g id="Grupo_1073327" data-name="Grupo 1073327" transform="translate(334 819.811)">
      <g id="Grupo_159182" data-name="Grupo 159182" transform="translate(385.001 2058)">
        <path id="Uni칩n_12" data-name="Uni칩n 12" d="M84.5,0A84.5,84.5,0,1,1,0,84.5,84.5,84.5,0,0,1,84.5,0Z" transform="translate(0 0)" fill="#ffae7e"/>
      </g>
    </g>
    <g id="Grupo_1073342" data-name="Grupo 1073342" transform="translate(751.504 2910.81)">
      <g id="Grupo_1073341" data-name="Grupo 1073341" clip-path="url(#clip-path)">
        <path id="Trazado_821023" data-name="Trazado 821023" d="M41.058,103.96H39.637a.492.492,0,0,0-.812,0H37.607a12.029,12.029,0,0,0-2.233-.5,20.326,20.326,0,0,1-8.528-4.605l-.239-.178-1.187-1.194-.161-.221a3.978,3.978,0,0,1-.653-.749c-.351-.691-.707-.654-1.361-.308a9.066,9.066,0,0,1-3.707,1.014c-.064-.1-.13-.1-.2,0L17.3,97.2c-.071-.089-.136-.08-.2.012a11.485,11.485,0,0,1-8.947-6.079,1.869,1.869,0,0,0-1.174-1.085A8.832,8.832,0,0,1,3.5,88.089l-.222-.16a1.488,1.488,0,0,1-.595-.6l-.16-.22A9.617,9.617,0,0,1,.094,81.826c.174-.131.176-.263.005-.4A11.091,11.091,0,0,1,.085,78.8c.821-3.52,2.693-6.238,6.2-7.6.506-.2,1.1-.32.726-1.226a2.389,2.389,0,0,1-.224-1.546c.022-.019.066-.042.063-.055A.787.787,0,0,0,6.8,68.23l0-2.24c.021-.02.064-.046.06-.059a.816.816,0,0,0-.066-.138,2.317,2.317,0,0,1,.189-1.537,7.3,7.3,0,0,1,1.378-3.343c.258-.134.213-.377.22-.6l.074-.213.127-.2a12.973,12.973,0,0,1,2.83-3.25l.213-.145c.116-.063.218-.091.1-.278A10.842,10.842,0,0,1,10,49.525a.557.557,0,0,0-.427-.6,9.205,9.205,0,0,1-3.329-2.654,11.359,11.359,0,0,1-2.15-11.757c.262-.142.212-.391.213-.622a11.939,11.939,0,0,1,1.9-3.033.239.239,0,0,0,.132-.14c.34-.3.7-.576,1.017-.9A8.62,8.62,0,0,1,12.57,27.2c.684-.09,1.441-.176,1.7-1.022a19.233,19.233,0,0,1,5.266-8.037,17.6,17.6,0,0,1,4.9-3.191,9.217,9.217,0,0,1,4.022-1.142l.411-.141,1.632-.22c.062.094.128.1.2.008h2.24l.218.149a12.935,12.935,0,0,1,4.722.861,2.222,2.222,0,0,0,2.742-.471A17.015,17.015,0,0,1,45.9,11.143a24.626,24.626,0,0,1,3.481-.94c.061.093.126.1.2.01a43.117,43.117,0,0,1,4.677,0l.215.148a13.285,13.285,0,0,1,5.35,1.514c.768.4.657-.08.719-.427a10.169,10.169,0,0,1,7.231-7.8,10.664,10.664,0,0,1,2.765-.188c.325-.011.653.063.926-.24A10.106,10.106,0,0,1,77.4.055c.129.171.261.175.4.009a8.359,8.359,0,0,1,2.04,0l.213.145a6.873,6.873,0,0,1,4.009,1.359,1.66,1.66,0,0,0,2.181.078A12.369,12.369,0,0,1,91,.048c.063.1.129.1.2.006L93.44.066l.211.141c.586.322,1.255.081,1.849.252a12.105,12.105,0,0,1,6.222,4.384,10.659,10.659,0,0,1,2.073,5.3c.018.288-.1.609.2.83V12.19a.682.682,0,0,0,0,1.015v.609c-.055.031-.148.05-.16.093a13.229,13.229,0,0,1-2.428,5.1c-.221.259-.039.622.229.894a6.671,6.671,0,0,1,1.278,2.375c.357.9.72,1.8,1.081,2.706v.406a.682.682,0,0,0,0,1.015V27.62c-.26.2-.262.406,0,.609v.812c-.747.412-.438,1.233-.71,1.826a11.705,11.705,0,0,1-4.706,5.72c-.691.389-.655.751-.231,1.324a11.637,11.637,0,0,1,2.172,5.842,13.474,13.474,0,0,1-2.321,9.228c-.222.322-.275.445-.04.818a14.279,14.279,0,0,1,2.374,8.334,1.572,1.572,0,0,0,.508,1.223,9.581,9.581,0,0,1,2.76,5.661c.036.351-.144.743.195,1.037v1.015c-.26.2-.262.406,0,.609v.609c-.26.034-.3.315-.333.447A9.641,9.641,0,0,1,99.5,78.708a.5.5,0,0,0-.193.728,16.139,16.139,0,0,1,1.169,8.286l-.14.209a17.189,17.189,0,0,1-.333,1.829,14.809,14.809,0,0,1-6,8.186,11.362,11.362,0,0,1-6.048,2.363l-.209.14c-1.424.174-2.848.523-4.273.007q-.2-.252-.4.007a14.217,14.217,0,0,1-6.711-2.934c-.358-.289-.493-.181-.821.021a29.256,29.256,0,0,1-4.126,2.031c-1.109.463-2.275.332-3.353.73l-.417.147a14.265,14.265,0,0,1-5.009.027,16.919,16.919,0,0,1-6.816-2.558.97.97,0,0,0-1.538.173,18.11,18.11,0,0,1-8.334,5.084c-1.087.322-2.226.354-3.278.777H41.667c-.2-.261-.406-.26-.609,0M28.467,54.069A20.45,20.45,0,0,1,56.235,58.1c.136-.161.267-.317.4-.472a10.725,10.725,0,0,1,6.422-3.713,6.333,6.333,0,0,0,2.912-1.505,8.8,8.8,0,0,1,7.526-1.862,3.116,3.116,0,0,0,3.233-.788,8.431,8.431,0,0,1,2.453-1.428A14.573,14.573,0,0,1,86.268,47.1a13.667,13.667,0,0,1,8.546,3.154c.7.57.938.341,1.248-.261A10.711,10.711,0,0,0,97.11,44.3a9.22,9.22,0,0,0-2.871-6.152,9.362,9.362,0,0,0-6.466-2.8c-.488-.014-.609-.255-.64-.7a11.705,11.705,0,0,0-2.214-6.222,11.28,11.28,0,0,0-9.256-4.842,11.145,11.145,0,0,0-7.143,2.172c-1.52,1.119-1.571,1.05-1.887-.953l-.141-.214-.876-2.422-.162-.22a8.133,8.133,0,0,0-.585-1.242,19.3,19.3,0,0,0-4.443-4.54c-3.221-2.4-6.857-2.775-10.649-2.506a6.662,6.662,0,0,0-2.066.234,17.067,17.067,0,0,0-6.94,4.592,1.079,1.079,0,0,1-1.669.246,12.28,12.28,0,0,0-2.585-1.164,18.528,18.528,0,0,1-2.749-.645c-.952-.49-1.763.22-2.656-.024a4.384,4.384,0,0,0-1.867.152,15.061,15.061,0,0,0-8.4,4.507,15.394,15.394,0,0,0-3.925,8.043c-.1.532-.307.658-.781.672a18.83,18.83,0,0,0-2.891.174c-3,.548-6.145,3.66-6.485,6.68-.479,4.242,1.664,8.281,6.1,9.565,1.055.305,1.171.749.861,1.749a6.209,6.209,0,0,0,.982,5.733c.272.375.4.513.916.3a8.083,8.083,0,0,1,2.558-.631c2.728-.141,5.439-.061,7.928,1.327a.871.871,0,0,0,1.033-.116c.344-.3.73-.554,1.1-.828l.231-.152m18.878,44.6c.064.142.145.328.31.269.074-.026.071-.271.1-.417a2.717,2.717,0,0,0,1.377-.476,23.691,23.691,0,0,0,2.106-1.6l.167-.159a10.8,10.8,0,0,0,2.341-2.6c.631-.905,1.058-.8,1.709-.206a14.034,14.034,0,0,0,4.354,2.7,14.255,14.255,0,0,0,10.076.406,15.21,15.21,0,0,0,5.3-2.991l.174-.164A14.634,14.634,0,0,0,80.234,80a14.416,14.416,0,0,0-6.546-10.365A1.1,1.1,0,0,1,73.3,68.1a7.735,7.735,0,0,0-.657-6.805,8.2,8.2,0,0,0-9.714-3.875,7.548,7.548,0,0,0-4.946,4.168c-.5,1.063-1.017,2.122-1.567,3.267-.165-.247-.265-.377-.344-.518a25.228,25.228,0,0,0-3.334-5.048,16.047,16.047,0,0,0-9.729-5.26c-.42-.057-.628-.69-.877-.516-.856.6-1.771.281-2.637.275a16.756,16.756,0,0,0-6.639,1.624,12.817,12.817,0,0,0-4.744,3.569c-.738.861-1.258.663-2.032.081a9.526,9.526,0,0,0-8.637-1.634A9.793,9.793,0,0,0,10.392,64.6c-.825,2.836-.089,5.4,1.175,7.9.179.354.6.747.4,1.053s-.728.355-1.17.36a9.234,9.234,0,0,0-2.843.241c-2.7.854-5.1,4.37-4.5,7.4a6.931,6.931,0,0,0,5.579,5.523,1.675,1.675,0,0,1,1.6,1.294,8.179,8.179,0,0,0,7.712,5.471,8.523,8.523,0,0,0,5.792-2.165c.919-.8,1.119-.308,1.541.4a16.362,16.362,0,0,0,4.29,4.951,17.072,17.072,0,0,0,5.89,2.946,13.852,13.852,0,0,0,4.576.724,19.626,19.626,0,0,0,4.774-.829,3.443,3.443,0,0,0,2.147-1.211m21.872-44.4c.256.139.338.195.429.231A11.6,11.6,0,0,1,76.474,61.5a14.66,14.66,0,0,1,.5,5.492,1.528,1.528,0,0,0,.572,1.294,19.756,19.756,0,0,1,4.474,5.87,18.805,18.805,0,0,1,1.62,10.566A17.485,17.485,0,0,1,79.66,93.9c-.321.409-1.095.625-.943,1.188s.942.536,1.432.808a10.513,10.513,0,0,0,8.181.979,11.642,11.642,0,0,0,8.912-11.264,11.489,11.489,0,0,0-2.1-6.847c-.955-1.4-.931-1.441.717-1.995a6.418,6.418,0,0,0,4.648-5.342,6.49,6.49,0,0,0-2.8-6.472,1.3,1.3,0,0,1-.608-1.237,17.342,17.342,0,0,0-.049-3.747,11.667,11.667,0,0,0-11.485-9.609,11.089,11.089,0,0,0-8.874,4.025.868.868,0,0,1-1.278.212,7.524,7.524,0,0,0-6.192-.336M90.171,32.215a14.768,14.768,0,0,1,4.768,2.1.738.738,0,0,0,.831.081c3.017-1.4,5.559-5.2,4.656-9.088a9.617,9.617,0,0,0-3.358-5.363c-.538-.452-.531-.806-.027-1.318a17.258,17.258,0,0,0,2.324-2.51,9.314,9.314,0,0,0,1.268-5.534A7.145,7.145,0,0,0,99.449,7.5,8.512,8.512,0,0,0,90.534,3.57a8.046,8.046,0,0,0-4.718,2.775c-.5.559-.839.792-1.431,0A6.445,6.445,0,0,0,80.812,3.71c-2.88-.674-5.553-.317-7.7,2.873a.782.782,0,0,1-.961.4,7.642,7.642,0,0,0-3.722.062A6.426,6.426,0,0,0,63.857,12.2c-.153.768-.457,1.754.325,2.472a18.592,18.592,0,0,1,4.645,6.345c.427,1,.853.011,1.274.053.268.027.641-.137.526-.783a8.243,8.243,0,0,1,.724-5.739C73.785,10.385,78,9.032,82.5,10.979a1.455,1.455,0,0,0,1.386-.056,6.994,6.994,0,0,1,8.669,1.825c.659.839.683,1.979,1.012,2.931A5.521,5.521,0,0,1,93.012,20a1.637,1.637,0,0,0,.036,1.59,8.139,8.139,0,0,1,.035,7.135,11.875,11.875,0,0,1-2.912,3.49M87.972,20.4c2.447-1.976,2.407-2.1,2.454-4.008.042-1.726-2-3.166-3.683-2.881a3.382,3.382,0,0,0-2.559,1.7c-.3.536-.663.84-1.3.194a6.17,6.17,0,0,0-4.332-1.867c-3.093-.165-5.519,3.468-4.635,6.076.181.533.333.707.852.705a16.508,16.508,0,0,1,5.558.727,14.9,14.9,0,0,1,5.091,2.917A15.6,15.6,0,0,1,89.043,28.6c2.21-2.02,1.8-5.045-1.071-8.2" transform="translate(0 0)" fill="#040506"/>
        <path id="Trazado_821024" data-name="Trazado 821024" d="M342.827,227.976a.328.328,0,0,0,.195.022v1.015c-.339-.294-.159-.686-.195-1.037" transform="translate(-239.03 -158.96)" fill="#080809"/>
        <path id="Trazado_821025" data-name="Trazado 821025" d="M342.986,41.282a.682.682,0,0,1,0-1.015Z" transform="translate(-238.994 -28.077)" fill="#080809"/>
        <path id="Trazado_821026" data-name="Trazado 821026" d="M342.987,84.874a.682.682,0,0,1,0-1.015Z" transform="translate(-238.995 -58.472)" fill="#080809"/>
        <path id="Trazado_821027" data-name="Trazado 821027" d="M342.839,33.5a.258.258,0,0,0,.2.018v.812c-.3-.222-.178-.542-.2-.83" transform="translate(-239.043 -23.358)" fill="#080809"/>
        <path id="Trazado_821028" data-name="Trazado 821028" d="M128.249,342.909a.492.492,0,0,1,.812,0Z" transform="translate(-89.423 -238.949)" fill="#080809"/>
        <path id="Trazado_821029" data-name="Trazado 821029" d="M135.626,342.952c.2-.26.406-.261.609,0Z" transform="translate(-94.567 -238.992)" fill="#080809"/>
        <path id="Trazado_821030" data-name="Trazado 821030" d="M343.057,91.845c-.262-.2-.26-.406,0-.609Z" transform="translate(-239.065 -63.616)" fill="#080809"/>
        <path id="Trazado_821031" data-name="Trazado 821031" d="M343.057,235.365c-.262-.2-.26-.406,0-.609Z" transform="translate(-239.065 -163.687)" fill="#080809"/>
        <path id="Trazado_821032" data-name="Trazado 821032" d="M82.925,216.779a15.21,15.21,0,0,1-5.3,2.991,14.253,14.253,0,0,1-10.076-.406,14.033,14.033,0,0,1-4.354-2.7c-.651-.592-1.078-.7-1.709.205a10.8,10.8,0,0,1-2.341,2.6c-.144-.04-.187.027-.167.159a23.753,23.753,0,0,1-2.106,1.6,2.719,2.719,0,0,1-1.377.475c-.167-.035-.34-.082-.413.147a3.444,3.444,0,0,1-2.146,1.211,19.643,19.643,0,0,1-4.774.829,13.861,13.861,0,0,1-4.576-.724,17.073,17.073,0,0,1-5.89-2.946,16.361,16.361,0,0,1-4.29-4.951c-.423-.713-.622-1.2-1.541-.4a8.524,8.524,0,0,1-5.792,2.165,8.178,8.178,0,0,1-7.712-5.471,1.675,1.675,0,0,0-1.6-1.294,6.933,6.933,0,0,1-5.579-5.523c-.595-3.027,1.8-6.542,4.5-7.4a9.243,9.243,0,0,1,2.843-.241c.442,0,.972-.062,1.17-.36s-.217-.7-.4-1.052c-1.264-2.5-2-5.067-1.175-7.9a9.791,9.791,0,0,1,7.051-7.177,9.527,9.527,0,0,1,8.638,1.633c.773.582,1.294.78,2.032-.081a12.82,12.82,0,0,1,4.744-3.569,16.754,16.754,0,0,1,6.639-1.624c.866.006,1.781.323,2.637-.275.249-.174.457.46.877.516a16.049,16.049,0,0,1,9.729,5.26,25.245,25.245,0,0,1,3.334,5.048c.079.141.179.271.344.518.55-1.145,1.063-2.2,1.567-3.266a7.545,7.545,0,0,1,4.946-4.168,8.2,8.2,0,0,1,9.714,3.875,7.736,7.736,0,0,1,.657,6.806,1.1,1.1,0,0,0,.387,1.538,14.418,14.418,0,0,1,6.546,10.366A14.634,14.634,0,0,1,83.1,216.615c-.141-.034-.192.029-.174.164m-27.44-4.931c.394.242.777.5,1.184.723a9.115,9.115,0,0,0,7.291.858c4.438-1.441,7.143-4.408,7.375-9.274a.8.8,0,0,1,.67-.8,8.046,8.046,0,0,0,5.849-6.159A8.605,8.605,0,0,0,76.2,189.9c-.716-.961-.863-.935-1.666.009a2.81,2.81,0,0,1-.5.505c-.86.6-.829,1.159-.2,2.008a4.937,4.937,0,0,1-2.864,7.728,22.5,22.5,0,0,1-3.418.216c.086.426.156.839.254,1.244a6.749,6.749,0,1,1-13.188,2.174c.011-.1-.009-.166-.13-.1H51.42c-.12-.066-.14,0-.129.1a10.518,10.518,0,0,0,3.973,7.92c.04.1.076.206.221.146M34.6,208.794c0-.44,0-.88,0-1.319,0-.259-.028-.434-.37-.454a6.649,6.649,0,0,1-5.116-2.983,6.568,6.568,0,0,1,1.92-9.393,6.427,6.427,0,0,1,5.416-.694c1.424.43,1.917.083,1.536-1.128a3.813,3.813,0,0,1,.282-2.59c.176-.48-.067-1.156.325-1.4,1.065-.671,1.893-1.731,3.321-1.848a6.01,6.01,0,0,1,3.5.455c1.6.929,1.517,1.069,2.8-.217a3.425,3.425,0,0,1,.436-.424c.473-.328.407-.632-.01-.938a8.361,8.361,0,0,0-3.309-1.921c-4.61-.932-8.224.572-10.147,4.831A2.243,2.243,0,0,1,33.14,190.4a10.11,10.11,0,0,0-5.849,2.891c-1.672,1.555-1.937,3.881-3.235,5.628-.021.028.023.123.058.172.633.885.283,1.94.483,2.909a10.275,10.275,0,0,0,8.282,8.269c1.705.328,1.719.259,1.718-1.476m21.713-8.465h.406c1.29,0,1.486-.252,1.159-1.53a6.466,6.466,0,0,0-6.255-5.142c-4.016-.2-6.422,2.341-7.086,6.17-.071.412.128.52.512.508q1.114-.034,2.23,0c.454.014.63-.057.748-.611a3.481,3.481,0,0,1,3.131-2.7,3.544,3.544,0,0,1,3.481,2.686c.1.538.289.665.762.627.3-.025.608,0,.912,0" transform="translate(-7.735 -123.176)" fill="#bec5ce"/>
        <path id="Trazado_821033" data-name="Trazado 821033" d="M82.058,56.059c.317,2,.367,2.072,1.887.953a11.145,11.145,0,0,1,7.143-2.172,11.28,11.28,0,0,1,9.256,4.842,11.7,11.7,0,0,1,2.214,6.222c.031.447.152.688.64.7a9.361,9.361,0,0,1,6.466,2.8,9.22,9.22,0,0,1,2.871,6.152,10.711,10.711,0,0,1-1.048,5.693c-.31.6-.551.831-1.248.262a13.666,13.666,0,0,0-8.546-3.155A14.573,14.573,0,0,0,94.606,79.6a8.432,8.432,0,0,0-2.453,1.429,3.116,3.116,0,0,1-3.233.787,8.8,8.8,0,0,0-7.526,1.862,6.329,6.329,0,0,1-2.912,1.505,10.725,10.725,0,0,0-6.422,3.713c-.132.155-.262.311-.4.472a20.45,20.45,0,0,0-27.768-4.033c-.151-.062-.188.049-.231.152-.368.274-.754.527-1.1.828a.871.871,0,0,1-1.033.116c-2.489-1.388-5.2-1.468-7.928-1.327a8.081,8.081,0,0,0-2.558.631c-.515.209-.644.07-.916-.3a6.209,6.209,0,0,1-.982-5.733c.31-1,.194-1.443-.861-1.749-4.435-1.284-6.578-5.323-6.1-9.565.341-3.02,3.49-6.132,6.485-6.68a18.831,18.831,0,0,1,2.891-.174c.474-.014.68-.14.781-.672a15.4,15.4,0,0,1,3.925-8.043,15.063,15.063,0,0,1,8.4-4.507,4.388,4.388,0,0,1,1.867-.152c.893.244,1.7-.466,2.656.024a18.523,18.523,0,0,0,2.749.645,12.3,12.3,0,0,1,2.585,1.164,1.079,1.079,0,0,0,1.669-.246,17.066,17.066,0,0,1,6.939-4.592,6.665,6.665,0,0,1,2.067-.234c3.791-.269,7.427.108,10.649,2.506a19.3,19.3,0,0,1,4.443,4.54,8.089,8.089,0,0,1,.585,1.242c-.041.143.048.191.162.22l.876,2.422c-.052.137.044.176.141.214M85.7,61.441l-.027.051.045.037-9.736-.075c-.167-.129-.192-.034-.183.116l.04,3.009c-.054.134-.009.185.131.157l6.294.091.177.153a16.291,16.291,0,0,1,0,3.038l-.191.127-6.284.105c-.144-.02-.173.049-.133.172v9.556c-.052.133-.013.19.132.163,3.249.118,6.5.091,9.748.013.153.03.187-.046.156-.178v-2.85c.03-.131,0-.214-.156-.186l-6.283-.085-.184-.138q0-1.517-.008-3.034l.19-.159,6.286-.073c.149.029.188-.041.156-.174v-9.55a.208.208,0,0,0,.028-.174c0-.16-.044-.241-.2-.11M63.376,64.859c-.133-.076-.157.036-.2.116-2.518.414-3.971,2.044-4.121,3.979-.116,1.509,0,3.072.028,4.61A4.734,4.734,0,0,0,63.9,78.2c1.248-.019,2.5.013,3.744.022.082.118.151.081.215-.018a4.926,4.926,0,0,0,4.465-4.49c.084-.041.193-.066.127-.2a28.487,28.487,0,0,0-.006-4.079c.066-.131-.039-.158-.121-.2a4.658,4.658,0,0,0-4.653-4.264c-.036-.1-.079-.193-.216-.15a28.89,28.89,0,0,0-4.076.038M45.638,63.138a.152.152,0,0,0,.016-.183,1.52,1.52,0,0,1,1.762-1.47c1.048.03,2.1-.014,3.146.011a1.617,1.617,0,0,1,1.667,1.5c.122,1.8.122,1.8,1.957,1.8.338,0,.677,0,1.015,0,.246,0,.438,0,.479-.347.338-2.882-1.1-5.819-4.263-6.169-.04-.086-.069-.189-.2-.132a35.345,35.345,0,0,0-4.48-.007c-.135-.054-.172.043-.211.137-1.888-.249-4.286,2.466-4.263,4.2.049,3.653.009,7.307.032,10.96a4.872,4.872,0,0,0,3.315,4.511c1.769.549,3.608.158,5.414.243a4.2,4.2,0,0,0,2.92-1.242c1.658-1.4,1.889-3.271,1.689-5.273.025-.131-.019-.189-.156-.148H52.42c-.137-.041-.181.017-.157.147-.014.495-.055.99-.036,1.484a1.341,1.341,0,0,1-1.212,1.575l-.226.105-3.432.016a.359.359,0,0,0-.447-.107c-1.082-.094-1.212-.886-1.219-1.721-.028-3.3-.037-6.591-.053-9.886" transform="translate(-15.425 -31.266)" fill="#dfe4e9"/>
        <path id="Trazado_821034" data-name="Trazado 821034" d="M228.641,170.253a7.522,7.522,0,0,1,6.192.336.869.869,0,0,0,1.278-.212,11.088,11.088,0,0,1,8.874-4.025,11.666,11.666,0,0,1,11.485,9.609,17.339,17.339,0,0,1,.048,3.746,1.3,1.3,0,0,0,.609,1.238,6.49,6.49,0,0,1,2.8,6.472,6.418,6.418,0,0,1-4.648,5.342c-1.648.554-1.673.595-.717,2a11.488,11.488,0,0,1,2.1,6.847,11.642,11.642,0,0,1-8.912,11.265,10.512,10.512,0,0,1-8.18-.979c-.489-.272-1.28-.245-1.432-.808s.622-.779.943-1.188a17.486,17.486,0,0,0,3.984-9.179,18.81,18.81,0,0,0-1.62-10.566,19.756,19.756,0,0,0-4.474-5.87,1.527,1.527,0,0,1-.572-1.294,14.657,14.657,0,0,0-.505-5.492,11.6,11.6,0,0,0-6.828-7.007c-.09-.036-.172-.092-.429-.231" transform="translate(-159.423 -115.991)" fill="#98a2af"/>
        <path id="Trazado_821035" data-name="Trazado 821035" d="M236.816,40.1a11.875,11.875,0,0,0,2.912-3.49,8.139,8.139,0,0,0-.035-7.135,1.639,1.639,0,0,1-.037-1.591,5.52,5.52,0,0,0,.56-4.32c-.329-.951-.354-2.092-1.012-2.931a6.994,6.994,0,0,0-8.67-1.825,1.454,1.454,0,0,1-1.386.056c-4.508-1.947-8.718-.594-11.153,3.573a8.239,8.239,0,0,0-.724,5.739c.115.646-.258.81-.526.783-.421-.042-.847.944-1.274-.053a18.593,18.593,0,0,0-4.645-6.345c-.781-.719-.477-1.7-.325-2.472a6.427,6.427,0,0,1,4.57-5.159,7.642,7.642,0,0,1,3.722-.062.782.782,0,0,0,.961-.4c2.148-3.191,4.822-3.547,7.7-2.873a6.442,6.442,0,0,1,3.574,2.631c.592.8.93.563,1.431,0a8.046,8.046,0,0,1,4.717-2.775,8.513,8.513,0,0,1,8.915,3.935,7.143,7.143,0,0,1,1.186,3.081,9.317,9.317,0,0,1-1.268,5.534,17.274,17.274,0,0,1-2.324,2.51c-.5.512-.512.866.027,1.318a9.617,9.617,0,0,1,3.357,5.363c.9,3.891-1.639,7.686-4.656,9.088a.737.737,0,0,1-.83-.081,14.774,14.774,0,0,0-4.768-2.1" transform="translate(-146.645 -7.887)" fill="#98a2af"/>
        <path id="Trazado_821036" data-name="Trazado 821036" d="M257.8,51.427c2.871,3.157,3.28,6.182,1.071,8.2a15.6,15.6,0,0,0-3.626-4.636,14.9,14.9,0,0,0-5.091-2.917,16.508,16.508,0,0,0-5.558-.727c-.519,0-.671-.172-.852-.705-.884-2.608,1.542-6.24,4.635-6.076a6.17,6.17,0,0,1,4.332,1.867c.638.646,1,.343,1.3-.194a3.382,3.382,0,0,1,2.559-1.7c1.686-.285,3.725,1.156,3.683,2.881-.047,1.909-.007,2.032-2.454,4.008" transform="translate(-169.824 -31.029)" fill="#bec5ce"/>
        <path id="Trazado_821037" data-name="Trazado 821037" d="M156.393,325.5c.073-.23.245-.182.413-.147-.032.145-.029.39-.1.416-.165.058-.246-.127-.31-.269" transform="translate(-109.047 -226.836)" fill="#080809"/>
        <path id="Trazado_821038" data-name="Trazado 821038" d="M27.6,199.819c.1-.19-.11-.5.22-.6-.007.225.038.469-.22.6" transform="translate(-19.248 -138.907)" fill="#080809"/>
        <path id="Trazado_821039" data-name="Trazado 821039" d="M13.523,112.589c.106-.2-.116-.5.213-.622,0,.231.048.48-.213.622" transform="translate(-9.429 -78.071)" fill="#080809"/>
        <path id="Trazado_821040" data-name="Trazado 821040" d="M255.673.181l.4.009c-.136.166-.269.162-.4-.009" transform="translate(-178.272 -0.126)" fill="#080809"/>
        <path id="Trazado_821041" data-name="Trazado 821041" d="M274.848,331.541l-.4.007c.13-.171.262-.174.4-.007" transform="translate(-191.364 -231.085)" fill="#080809"/>
        <path id="Trazado_821042" data-name="Trazado 821042" d="M223.9,331.348c-.078.22-.245.19-.416.147l.416-.147" transform="translate(-155.83 -231.037)" fill="#080809"/>
        <path id="Trazado_821043" data-name="Trazado 821043" d="M.31,269.372q0-.2.005-.4c.171.135.169.268-.005.4" transform="translate(-0.216 -187.545)" fill="#080809"/>
        <path id="Trazado_821044" data-name="Trazado 821044" d="M94.014,45.232c.083-.2.244-.18.411-.141l-.411.141" transform="translate(-65.553 -31.422)" fill="#080809"/>
        <path id="Trazado_821045" data-name="Trazado 821045" d="M38.343,186.748c.032-.106.068-.205.213-.144l-.213.144" transform="translate(-26.735 -130.099)" fill="#080809"/>
        <path id="Trazado_821046" data-name="Trazado 821046" d="M219.744,81.406c-.1-.038-.193-.077-.141-.213l.141.213" transform="translate(-153.111 -56.613)" fill="#080809"/>
        <path id="Trazado_821047" data-name="Trazado 821047" d="M93.272,178.711c.043-.1.08-.214.231-.152l-.231.152" transform="translate(-65.035 -124.49)" fill="#080809"/>
        <path id="Trazado_821048" data-name="Trazado 821048" d="M28.522,198.056c-.076-.141.038-.162.127-.2l-.127.2" transform="translate(-19.87 -137.959)" fill="#080809"/>
        <path id="Trazado_821049" data-name="Trazado 821049" d="M216.348,72.686c-.114-.029-.2-.077-.162-.22Z" transform="translate(-150.732 -50.528)" fill="#080809"/>
        <path id="Trazado_821050" data-name="Trazado 821050" d="M22.435,217.524c0-.066,0-.132-.007-.2a.841.841,0,0,1,.067.138c0,.013-.039.039-.06.059" transform="translate(-15.638 -151.534)" fill="#080809"/>
        <path id="Trazado_821051" data-name="Trazado 821051" d="M22.432,225.575l.008-.2a.781.781,0,0,1,.055.142c0,.014-.041.037-.063.055" transform="translate(-15.641 -157.148)" fill="#080809"/>
        <path id="Trazado_821052" data-name="Trazado 821052" d="M108.813,44.418c.14-.048.181.047.218.149l-.218-.149" transform="translate(-75.871 -30.962)" fill="#080809"/>
        <path id="Trazado_821053" data-name="Trazado 821053" d="M100.763,44.425l.2.008c-.069.093-.135.087-.2-.008" transform="translate(-70.258 -30.976)" fill="#080809"/>
        <path id="Trazado_821054" data-name="Trazado 821054" d="M179.225,33.7c.137-.045.178.048.215.148l-.215-.148" transform="translate(-124.967 -23.487)" fill="#080809"/>
        <path id="Trazado_821055" data-name="Trazado 821055" d="M163.129,33.7l.2.011c-.071.091-.136.082-.2-.011" transform="translate(-113.744 -23.499)" fill="#080809"/>
        <path id="Trazado_821056" data-name="Trazado 821056" d="M8.469,287.965c-.11-.032-.2-.079-.16-.22l.16.22" transform="translate(-5.787 -200.634)" fill="#080809"/>
        <path id="Trazado_821057" data-name="Trazado 821057" d="M331.59,289.766c.059.14-.048.169-.14.209l.14-.209" transform="translate(-231.108 -202.044)" fill="#080809"/>
        <path id="Trazado_821058" data-name="Trazado 821058" d="M11.049,290.606c-.144.044-.19-.049-.222-.16l.222.16" transform="translate(-7.549 -202.518)" fill="#080809"/>
        <path id="Trazado_821059" data-name="Trazado 821059" d="M308.653.186c.134-.049.173.046.211.141l-.211-.141" transform="translate(-215.213 -0.121)" fill="#080809"/>
        <path id="Trazado_821060" data-name="Trazado 821060" d="M248.362,308.794c-.018-.135.033-.2.174-.164l-.174.164" transform="translate(-173.172 -215.19)" fill="#080809"/>
        <path id="Trazado_821061" data-name="Trazado 821061" d="M300.6.156l.2.006c-.069.094-.134.089-.2-.006" transform="translate(-209.596 -0.109)" fill="#080809"/>
        <path id="Trazado_821062" data-name="Trazado 821062" d="M169.253,318.187c-.02-.132.023-.2.167-.159l-.167.159" transform="translate(-118.011 -221.742)" fill="#080809"/>
        <path id="Trazado_821063" data-name="Trazado 821063" d="M56.7,320.941l-.2.012c.06-.092.125-.1.2-.012" transform="translate(-39.4 -223.737)" fill="#080809"/>
        <path id="Trazado_821064" data-name="Trazado 821064" d="M64.08,320.968l-.2,0c.068-.094.134-.091.2,0" transform="translate(-44.543 -223.749)" fill="#080809"/>
        <path id="Trazado_821065" data-name="Trazado 821065" d="M83.574,321.5c-.11-.033-.2-.08-.161-.221l.161.221" transform="translate(-58.154 -224.016)" fill="#080809"/>
        <path id="Trazado_821066" data-name="Trazado 821066" d="M263.721.175c.135-.046.176.047.213.145l-.213-.145" transform="translate(-183.883 -0.114)" fill="#080809"/>
        <path id="Trazado_821067" data-name="Trazado 821067" d="M88.127,326.131c-.149.034-.2-.068-.239-.178l.239.178" transform="translate(-61.281 -227.276)" fill="#080809"/>
        <path id="Trazado_821068" data-name="Trazado 821068" d="M290.087,331.342c-.039.092-.069.2-.209.14l.209-.14" transform="translate(-202.122 -231.033)" fill="#080809"/>
        <path id="Trazado_821069" data-name="Trazado 821069" d="M20.456,101.594c-.055-.14,0-.178.132-.14a.239.239,0,0,1-.132.14" transform="translate(-14.248 -70.731)" fill="#080809"/>
        <path id="Trazado_821070" data-name="Trazado 821070" d="M.069,25.454a11.525,11.525,0,0,1,3.1-8.256c.345-.392.187-.653.167-1.03A12.085,12.085,0,0,1,5.464,8.4a11.09,11.09,0,0,1,6.294-4.51,12.768,12.768,0,0,1,6.955.124,1.2,1.2,0,0,0,1.408-.36A10.8,10.8,0,0,1,28.8.079a11.651,11.651,0,0,1,9.313,4.88c.412.543.945,1.262-.329,1.527-.18.037-.329.208-.5.3a4.581,4.581,0,0,1-1.393.725c-.632.089-.582-.684-.878-1.042a8.838,8.838,0,0,0-8.026-2.835A8.159,8.159,0,0,0,21.127,7.9c-.325.577-.575.781-1.339.334a8.365,8.365,0,0,0-9.254-.025,8.09,8.09,0,0,0-3.465,9.225c.238.962-.413,1.15-.8,1.5a8.462,8.462,0,0,0-2.93,6.456,7.423,7.423,0,0,0,.961,3.57c.179.333.079.534-.241.71-.6.332-1.2.669-1.773,1.05a.7.7,0,0,1-1.182-.389A10.66,10.66,0,0,1,.069,25.454" transform="translate(-0.018 -0.051)" fill="#040506"/>
        <path id="Trazado_821071" data-name="Trazado 821071" d="M144,232.545h3.07a.193.193,0,0,0,.13.1,6.743,6.743,0,1,0,13.188-2.174c-.1-.405-.168-.818-.254-1.244a22.537,22.537,0,0,0,3.418-.216,4.937,4.937,0,0,0,2.864-7.728c-.629-.85-.66-1.408.2-2.009a2.819,2.819,0,0,0,.5-.5c.8-.944.95-.97,1.666-.009a8.606,8.606,0,0,1,1.654,7.294,8.047,8.047,0,0,1-5.85,6.159.8.8,0,0,0-.67.8c-.232,4.866-2.937,7.833-7.375,9.274a9.115,9.115,0,0,1-7.291-.857c-.407-.219-.79-.481-1.184-.723l-.222-.146a10.519,10.519,0,0,1-3.973-7.92.194.194,0,0,0,.129-.1" transform="translate(-100.318 -152.039)" fill="#040506"/>
        <path id="Trazado_821072" data-name="Trazado 821072" d="M64.44,224.954c0,1.735-.013,1.8-1.719,1.476a10.275,10.275,0,0,1-8.281-8.269c-.2-.968.149-2.024-.484-2.909-.035-.049-.079-.144-.058-.172,1.3-1.747,1.563-4.072,3.235-5.628a10.11,10.11,0,0,1,5.849-2.891,2.243,2.243,0,0,0,2.033-1.634c1.923-4.259,5.537-5.763,10.147-4.831a8.363,8.363,0,0,1,3.308,1.921c.417.306.484.611.01.938a3.447,3.447,0,0,0-.436.424c-1.28,1.286-1.2,1.146-2.8.216a6.01,6.01,0,0,0-3.5-.455c-1.428.118-2.255,1.177-3.321,1.848-.391.247-.149.922-.325,1.4a3.811,3.811,0,0,0-.282,2.59c.381,1.211-.112,1.558-1.536,1.128a6.424,6.424,0,0,0-5.416.694,6.568,6.568,0,0,0-1.92,9.393,6.649,6.649,0,0,0,5.116,2.983c.342.02.373.2.37.454,0,.44,0,.88,0,1.32" transform="translate(-37.578 -139.336)" fill="#040506"/>
        <path id="Trazado_821073" data-name="Trazado 821073" d="M133.3,239.461c-.3,0-.61-.02-.912,0-.473.039-.658-.089-.762-.627a3.544,3.544,0,0,0-3.481-2.685,3.48,3.48,0,0,0-3.131,2.7c-.118.554-.294.625-.748.611q-1.114-.034-2.23,0c-.384.012-.583-.1-.512-.508.664-3.829,3.07-6.371,7.086-6.17a6.466,6.466,0,0,1,6.255,5.142c.326,1.277.13,1.53-1.159,1.53H133.3" transform="translate(-84.722 -162.308)" fill="#080809"/>
        <path id="Trazado_821074" data-name="Trazado 821074" d="M144,265.867a.194.194,0,0,1-.129.1c-.011-.1.009-.166.129-.1" transform="translate(-100.312 -185.361)" fill="#080809"/>
        <path id="Trazado_821075" data-name="Trazado 821075" d="M154.573,265.967a.193.193,0,0,1-.129-.1c.12-.066.14,0,.129.1" transform="translate(-107.688 -185.36)" fill="#080809"/>
        <path id="Trazado_821076" data-name="Trazado 821076" d="M157,292.422l.221.146c-.146.06-.181-.046-.221-.146" transform="translate(-109.471 -203.896)" fill="#080809"/>
        <path id="Trazado_821077" data-name="Trazado 821077" d="M98.8,101.993h3.054l.156.148c.2,2-.031,3.878-1.689,5.273a4.2,4.2,0,0,1-2.92,1.242c-1.806-.085-3.645.306-5.414-.243a4.871,4.871,0,0,1-3.315-4.511c-.023-3.653.017-7.307-.032-10.96-.023-1.737,2.374-4.451,4.263-4.2l.212-.137a35.34,35.34,0,0,1,4.48.007l.2.132c3.161.35,4.6,3.287,4.263,6.169-.041.351-.232.349-.479.347-.338,0-.677,0-1.015,0-1.834,0-1.834,0-1.957-1.8a1.617,1.617,0,0,0-1.667-1.5c-1.048-.025-2.1.018-3.146-.011a1.52,1.52,0,0,0-1.762,1.47c-.019.017-.056.036-.054.051a.726.726,0,0,0,.038.132c.016,3.3.025,6.591.053,9.886.007.835.138,1.627,1.219,1.721a.354.354,0,0,0,.447.107l3.432-.016c.128.078.174-.018.226-.105a1.341,1.341,0,0,0,1.212-1.575c-.018-.493.022-.989.037-1.484l.157-.147" transform="translate(-61.804 -61.732)" fill="#040506"/>
        <path id="Trazado_821078" data-name="Trazado 821078" d="M203.063,113.116l6.284.085.156.187v2.85l-.156.178c-3.25.078-6.5.105-9.748-.013l-.132-.162v-9.557l.133-.172,6.284-.105c.136.066.2.019.191-.127a16.291,16.291,0,0,0,0-3.038c.011-.132-.031-.2-.177-.153L199.6,103l-.131-.157q-.02-1.5-.039-3.009l.183-.116,9.736.075.157.2v9.55l-.156.174-6.285.073c-.15-.05-.211.005-.19.159q0,1.517.008,3.034c-.013.144.04.2.184.138" transform="translate(-139.053 -69.528)" fill="#040506"/>
        <path id="Trazado_821079" data-name="Trazado 821079" d="M157.391,115.332a28.491,28.491,0,0,1,.006,4.08l-.127.2a4.926,4.926,0,0,1-4.465,4.49l-.215.018c-1.248-.009-2.5-.041-3.745-.022a4.735,4.735,0,0,1-4.812-4.637c-.029-1.538-.144-3.1-.028-4.61.149-1.934,1.6-3.564,4.121-3.979l.2-.116a28.89,28.89,0,0,1,4.076-.038l.216.15a4.658,4.658,0,0,1,4.654,4.264l.121.2m-3.586,4.269a8.849,8.849,0,0,0,.1-4.226,1.642,1.642,0,0,0-1.689-1.276c-1.106-.029-2.215-.028-3.321.014a1.255,1.255,0,0,0-1.379,1.015c-.19.1-.178.255-.114.423q-.006,1.82-.013,3.639c-.062.173-.081.336.117.44a1.242,1.242,0,0,0,1.015,1c.109.179.263.171.431.1l3.435.02c.138.072.189-.021.235-.123.51.084.778-.217.981-.62.256-.046.527-.084.2-.414" transform="translate(-100.375 -77.164)" fill="#040506"/>
        <path id="Trazado_821080" data-name="Trazado 821080" d="M104.448,143.656a.354.354,0,0,1-.447-.107.359.359,0,0,1,.447.107" transform="translate(-72.516 -100.069)" fill="#98a2af"/>
        <path id="Trazado_821081" data-name="Trazado 821081" d="M232.245,99.96l-.157-.2-.045-.037.027-.051.2.11a.209.209,0,0,1-.027.174" transform="translate(-161.795 -69.5)" fill="#080809"/>
        <path id="Trazado_821082" data-name="Trazado 821082" d="M121.825,132.959l-.157.147c-.025-.131.02-.189.157-.147" transform="translate(-84.83 -92.698)" fill="#080809"/>
        <path id="Trazado_821083" data-name="Trazado 821083" d="M188.059,125.621l-.121-.2c.082.041.187.068.121.2" transform="translate(-131.043 -87.452)" fill="#080809"/>
        <path id="Trazado_821084" data-name="Trazado 821084" d="M132.445,133.108l-.156-.148c.137-.04.181.018.156.148" transform="translate(-92.24 -92.699)" fill="#080809"/>
        <path id="Trazado_821085" data-name="Trazado 821085" d="M210.8,133.094c-.021-.154.041-.209.19-.159l-.19.159" transform="translate(-146.977 -92.679)" fill="#98a2af"/>
        <path id="Trazado_821086" data-name="Trazado 821086" d="M118.42,88.875l-.2-.132c.133-.057.162.046.2.132" transform="translate(-82.429 -61.866)" fill="#080809"/>
        <path id="Trazado_821087" data-name="Trazado 821087" d="M187.94,139.756l.127-.2c.066.135-.043.16-.127.2" transform="translate(-131.044 -97.307)" fill="#080809"/>
        <path id="Trazado_821088" data-name="Trazado 821088" d="M102.932,88.722l-.211.137c.039-.094.076-.191.211-.137" transform="translate(-71.624 -61.852)" fill="#080809"/>
        <path id="Trazado_821089" data-name="Trazado 821089" d="M199.652,122.155l-.133.172c-.04-.123-.011-.192.133-.172" transform="translate(-139.106 -85.172)" fill="#080809"/>
        <path id="Trazado_821090" data-name="Trazado 821090" d="M117.041,143.578c-.051.087-.1.183-.226.105l.226-.105" transform="translate(-81.451 -100.112)" fill="#98a2af"/>
        <path id="Trazado_821091" data-name="Trazado 821091" d="M199.606,99.576l-.183.116c-.009-.15.016-.244.183-.116" transform="translate(-139.049 -69.389)" fill="#98a2af"/>
        <path id="Trazado_821092" data-name="Trazado 821092" d="M211.011,143.662c-.143.063-.2.006-.184-.138l.184.138" transform="translate(-147.001 -100.074)" fill="#98a2af"/>
        <path id="Trazado_821093" data-name="Trazado 821093" d="M232.35,144.436l-.156-.187c.16-.028.186.056.156.187" transform="translate(-161.901 -100.576)" fill="#080809"/>
        <path id="Trazado_821094" data-name="Trazado 821094" d="M199.506,154.3l.132.162c-.145.028-.184-.03-.132-.162" transform="translate(-139.093 -107.587)" fill="#080809"/>
        <path id="Trazado_821095" data-name="Trazado 821095" d="M232.195,154.47l.156-.178c.031.132,0,.207-.156.178" transform="translate(-161.901 -107.582)" fill="#080809"/>
        <path id="Trazado_821096" data-name="Trazado 821096" d="M172.48,155.07l.215-.018c-.064.1-.133.136-.215.018" transform="translate(-120.264 -108.112)" fill="#98a2af"/>
        <path id="Trazado_821097" data-name="Trazado 821097" d="M220.945,121.4c.005.146-.056.193-.191.127l.191-.127" transform="translate(-153.924 -84.645)" fill="#98a2af"/>
        <path id="Trazado_821098" data-name="Trazado 821098" d="M220.784,110.82c.146-.049.188.021.177.153Z" transform="translate(-153.945 -77.26)" fill="#bec5ce"/>
        <path id="Trazado_821099" data-name="Trazado 821099" d="M172.07,110.966l-.216-.15c.137-.043.179.048.216.15" transform="translate(-119.828 -77.261)" fill="#080809"/>
        <path id="Trazado_821100" data-name="Trazado 821100" d="M232.335,99.635l-.2-.11c.159-.13.2-.05.2.11" transform="translate(-161.858 -69.35)" fill="#98a2af"/>
        <path id="Trazado_821101" data-name="Trazado 821101" d="M157.934,110.909l-.2.116c.042-.08.065-.192.2-.116" transform="translate(-109.983 -77.315)" fill="#080809"/>
        <path id="Trazado_821102" data-name="Trazado 821102" d="M199.506,110.036l.132.157c-.14.028-.186-.023-.132-.157" transform="translate(-139.093 -76.724)" fill="#080809"/>
        <path id="Trazado_821103" data-name="Trazado 821103" d="M99.712,104.862a.7.7,0,0,1-.038-.132c0-.015.035-.034.054-.051a.152.152,0,0,1-.016.183" transform="translate(-69.499 -72.989)" fill="#080809"/>
        <path id="Trazado_821104" data-name="Trazado 821104" d="M232.2,132.335l.156-.174c.032.133-.007.2-.156.174" transform="translate(-161.902 -92.151)" fill="#080809"/>
        <path id="Trazado_821105" data-name="Trazado 821105" d="M161.51,127.876c-.2.4-.471.7-.981.62l-.235.123-3.435-.02c-.112-.163-.272-.135-.431-.1a1.242,1.242,0,0,1-1.014-1c.028-.164.054-.328-.117-.44q.007-1.82.013-3.639c.166-.107.137-.266.114-.423a1.255,1.255,0,0,1,1.379-1.015c1.106-.043,2.215-.043,3.321-.014a1.642,1.642,0,0,1,1.689,1.276,8.853,8.853,0,0,1-.1,4.226c-.3.026-.6.048-.2.414" transform="translate(-108.283 -85.024)" fill="#dfe4e9"/>
        <path id="Trazado_821106" data-name="Trazado 821106" d="M175.384,140.593c-.4-.367-.092-.388.2-.414.323.33.052.369-.2.414" transform="translate(-122.157 -97.742)" fill="#080809"/>
        <path id="Trazado_821107" data-name="Trazado 821107" d="M155.2,138.824c.172.111.145.275.117.44-.2-.1-.179-.266-.117-.44" transform="translate(-108.185 -96.797)" fill="#98a2af"/>
        <path id="Trazado_821108" data-name="Trazado 821108" d="M159.035,143.537c.16-.031.318-.06.431.1-.168.067-.322.074-.431-.1" transform="translate(-110.889 -100.067)" fill="#98a2af"/>
        <path id="Trazado_821109" data-name="Trazado 821109" d="M155.357,125.406c.023.157.052.316-.114.423-.064-.169-.076-.323.114-.423" transform="translate(-108.216 -87.441)" fill="#98a2af"/>
        <path id="Trazado_821110" data-name="Trazado 821110" d="M171.8,143.718l.235-.123c-.046.1-.1.2-.235.123" transform="translate(-119.794 -100.124)" fill="#98a2af"/>
      </g>
    </g>
  </g>
</svg>
