<svg xmlns="http://www.w3.org/2000/svg" xmlns:xlink="http://www.w3.org/1999/xlink" width="169" height="169" viewBox="0 0 169 169">
  <defs>
    <clipPath id="clip-path">
      <rect id="Rect치ngulo_377609" data-name="Rect치ngulo 377609" width="106.667" height="107.539" fill="none"/>
    </clipPath>
  </defs>
  <g id="Grupo_1073336" data-name="Grupo 1073336" transform="translate(-384.743 -2057.999)">
    <g id="Grupo_159182" data-name="Grupo 159182" transform="translate(384.743 2057.999)">
      <path id="Uni칩n_12" data-name="Uni칩n 12" d="M84.5,0A84.5,84.5,0,1,1,0,84.5,84.5,84.5,0,0,1,84.5,0Z" transform="translate(0 0)" fill="#ffae7e"/>
    </g>
    <g id="Grupo_1073344" data-name="Grupo 1073344" transform="translate(420.325 2088.729)">
      <g id="Grupo_1073343" data-name="Grupo 1073343" clip-path="url(#clip-path)">
        <path id="Trazado_821111" data-name="Trazado 821111" d="M75.657,13.888c.017.432.048.864.049,1.3q.006,21.51.005,43.02a8.834,8.834,0,0,1-.05,1.3c-.086.576.177.508.538.35.429-.188.877-.322,1.322-.468a7.431,7.431,0,0,1,2.42-.367,9.2,9.2,0,0,1,6.812,2.738,12.98,12.98,0,0,1,2.072,2.885c.724,1.344,1.507,2.656,2.273,3.977,1.153,1.99,2.3,3.981,3.473,5.962.541.918,1.137,1.817,1.625,2.751.873,1.672,1.848,3.288,2.783,4.919,1,1.748,1.975,3.516,3.044,5.229.791,1.267,1.474,2.6,2.217,3.9.4.692.852,1.353,1.227,2.057a9.481,9.481,0,0,1-7.172,13.987,13.209,13.209,0,0,1-1.771.1c-11.306,0-22.612.069-33.918-.039a8.9,8.9,0,0,1-8.024-5.109A9.167,9.167,0,0,1,53.4,97.9a7.471,7.471,0,0,1,.361-2.413c.095-.268.112-.472-.267-.424-.535.069-1.087.1-1.6.17-.583.082-1.173.23-1.773.273-1.068.076-2.134.209-3.193.342-1.1.137-2.206.094-3.3.278-.335.057-.673-.043-1.031-.014a82.056,82.056,0,0,1-8.4.112c-1.414-.031-2.837-.074-4.248-.2-1.487-.135-2.964-.39-4.453-.514s-2.931-.375-4.4-.564a24.931,24.931,0,0,1-2.971-.56c-.492-.125-.972-.317-1.467-.393a31.883,31.883,0,0,1-5.547-1.459,31.983,31.983,0,0,1-5.672-2.422A11.867,11.867,0,0,1,.781,85.745a5.858,5.858,0,0,1-.775-2.868Q0,48.851.01,14.826a9.26,9.26,0,0,1,.309-3.333A8.522,8.522,0,0,1,2.166,8.537a18.555,18.555,0,0,1,7.5-4.356c2.081-.75,4.226-1.31,6.37-1.857.756-.193,1.537-.286,2.3-.468C20.23,1.4,22.173,1.211,24.1.91,25.228.734,26.383.718,27.515.55,29.6.24,31.7.276,33.8.112c2.258-.177,4.515-.1,6.77-.068,1.488.021,2.982.115,4.469.214.976.065,1.955.157,2.931.269C49.1.657,50.241.754,51.372.9c1.226.153,2.452.332,3.67.57,1.073.21,2.155.4,3.232.6a43.314,43.314,0,0,1,4.413,1.1,37.978,37.978,0,0,1,6.54,2.394,15.7,15.7,0,0,1,4.79,3.584,6.336,6.336,0,0,1,1.631,4.533c-.149.077-.15.148.008.214M72.166,62.85a.834.834,0,0,0-.575.265,12.3,12.3,0,0,1-1.7,1.059,32.646,32.646,0,0,1-6.36,2.587,1.187,1.187,0,0,0-.919.915,21.082,21.082,0,0,1-1.544,3.8,7.026,7.026,0,0,0-.6,1.2c.078.017.137.051.178.037a61.366,61.366,0,0,0,6.794-2.525,3.046,3.046,0,0,0,1.392-1.354c.906-1.621,1.847-3.222,2.791-4.821a4.134,4.134,0,0,0,.579-1.132l.063-.054c-.011-.01-.029-.031-.032-.029a.6.6,0,0,0-.063.052m-.952-4.086a3.035,3.035,0,0,0,.987-2.251c0-2.358,0-4.716,0-7.075,0-1.26-.013-2.519-.016-3.779,0-.278-.041-.444-.354-.22-.35.251-.708.491-1.062.735-.314.177-.624.361-.941.532A29.11,29.11,0,0,1,62.315,49.6c-.474.105-.552.251-.355.718a25.411,25.411,0,0,1,1.847,9.461c.019.932-.058,1.867-.111,2.8-.02.351.09.408.4.279.95-.4,1.924-.745,2.854-1.184a12.2,12.2,0,0,0,4.267-2.908M37.351,37.355l-.016-.022-.016.023a22.881,22.881,0,0,0-3.53.389,19.393,19.393,0,0,0-5.875,1.914A28.7,28.7,0,0,0,23.1,42.841a19.783,19.783,0,0,0-3.376,3.622,22.724,22.724,0,0,0-4.221,11.225,24.333,24.333,0,0,0,.3,6.5,19.414,19.414,0,0,0,1.135,3.721,23.7,23.7,0,0,0,5.625,8.3,22.9,22.9,0,0,0,8.882,5.07,19.228,19.228,0,0,0,4.523.856,23.3,23.3,0,0,0,6.353-.336,24.834,24.834,0,0,0,6.489-2.5,20.961,20.961,0,0,0,5.451-4.224,21.648,21.648,0,0,0,4.583-7.456,23.509,23.509,0,0,0,1.482-8.128c0-.373-.08-.745-.1-1.12a23.417,23.417,0,0,0-.395-3.5,22.032,22.032,0,0,0-1.606-4.575,22.432,22.432,0,0,0-8.588-9.66,19.32,19.32,0,0,0-4.069-1.948,30.408,30.408,0,0,0-3.213-.774,27.292,27.292,0,0,0-3.6-.518h-.013l-.635-.063H38.1l-.748.027M70.884,19.976a28.563,28.563,0,0,1-4.945,2.337,47.232,47.232,0,0,1-5.818,1.755q-2.914.684-5.87,1.143c-2.588.406-5.192.642-7.792.93-1.257.139-2.517.1-3.774.181-1.931.121-3.873.086-5.809.068-2.042-.019-4.084-.068-6.123-.158-1.126-.05-2.246-.275-3.371-.3-1.278-.033-2.537-.221-3.8-.367-1.637-.19-3.26-.515-4.878-.838-5.236-1.043-10.355-2.412-14.835-5.489-.265-.182-.405-.194-.4.2.023,3.647.029,7.294.055,10.94a2.884,2.884,0,0,0,.8,2.052,14.054,14.054,0,0,0,4.5,3.072,38.939,38.939,0,0,0,6.831,2.334c.058.149.15.245.328.2a6.09,6.09,0,0,1,1.4.216c1.388.343,2.8.593,4.2.884a1.2,1.2,0,0,0,1-.241,17.755,17.755,0,0,1,3.481-2.148,27.237,27.237,0,0,1,3.462-1.484,31.524,31.524,0,0,1,6.72-1.314,24.991,24.991,0,0,1,10.513,1.543A27.569,27.569,0,0,1,53.4,39.1a.434.434,0,0,0,.382.119c.932-.191,1.868-.361,2.8-.552,1.626-.334,3.248-.684,4.84-1.163a29.063,29.063,0,0,0,7.811-3.341,6,6,0,0,0,2.078-1.763,2.575,2.575,0,0,0,.889-2.157q.007-4.678.007-9.355c0-.451.027-.9.029-1.351,0-.334-.148-.436-.438-.233-.308.217-.609.444-.914.667m19.7,84.074c1.992,0,3.985-.013,5.978.008a8.012,8.012,0,0,0,1.72-.139,5.974,5.974,0,0,0,4.682-7.517,18.059,18.059,0,0,0-2.249-4.47c-2.531-4.414-5.117-8.8-7.644-13.213-1.692-2.955-3.444-5.875-5.084-8.862-.681-1.241-1.463-2.439-2.174-3.671-1.057-1.833-2.339-3.242-4.638-3.575a5.982,5.982,0,0,0-6.128,2.63c-1.468,2.415-2.843,4.886-4.287,7.316-.528.89-1.093,1.771-1.594,2.666-.449.8-.952,1.585-1.359,2.419-.6,1.236-1.4,2.366-2.061,3.576-.7,1.284-1.459,2.533-2.189,3.8-1.965,3.408-3.959,6.8-5.879,10.231a5.584,5.584,0,0,0,.244,5.98,6.148,6.148,0,0,0,4.97,2.853c1.04.1,2.153,0,3.229-.014,4.549-.041,9.1-.017,13.648-.017H90.587M30.123,3.809c-.358,0-.716.065-1.069.092-1.894.144-3.773.389-5.655.645-1.993.272-3.97.607-5.928,1.051A46.225,46.225,0,0,0,8.813,8.372a15.728,15.728,0,0,0-3.945,2.481A2.9,2.9,0,0,0,3.6,13.564a3.916,3.916,0,0,0,1.524,2.212,17.541,17.541,0,0,0,4.6,2.667,49.321,49.321,0,0,0,8.487,2.591c1.642.373,3.308.639,4.976.873.8.111,1.594.266,2.4.312.917.053,1.819.22,2.74.262,1.685.078,3.364.349,5.049.382,2.984.06,5.97.077,8.958-.059,1.17-.053,2.348-.1,3.516-.174,1.037-.067,2.081-.15,3.118-.271,2.634-.308,5.26-.654,7.858-1.207a44.671,44.671,0,0,0,11-3.576,10.607,10.607,0,0,0,3.7-2.776,2.268,2.268,0,0,0,.06-3.111,7.856,7.856,0,0,0-2.222-1.965A25.467,25.467,0,0,0,63.4,7.014c-1.481-.475-2.958-.992-4.473-1.321-1.227-.266-2.47-.494-3.712-.712-2.231-.392-4.478-.632-6.73-.876-1.959-.212-3.916-.384-5.883-.479-.779-.038-1.564.044-2.333-.05a24.721,24.721,0,0,0-4.386-.062c-1.918.106-3.844.056-5.756.294m35.245,71a30.855,30.855,0,0,1-6.07,1.78,6.277,6.277,0,0,0-3.677,1.95A20.2,20.2,0,0,1,50.34,82.5c-.508.27-1.037.5-1.556.751a23.442,23.442,0,0,1-9.7,2.376,25.741,25.741,0,0,1-6.863-.526A25.823,25.823,0,0,1,23.9,81.565a29.7,29.7,0,0,1-5.054-4.193,1.3,1.3,0,0,0-.881-.43,5.215,5.215,0,0,1-1.468-.262,22.43,22.43,0,0,0-2.661-.662,40.448,40.448,0,0,1-5.5-1.97c-.407-.187-.8-.446-1.19-.613-.521-.222-1.014-.51-1.531-.737a12.5,12.5,0,0,1-1.707-1.029c-.11-.071-.195-.17-.33-.122-.2.07-.1.247-.1.372.009,3.521.037,7.042.029,10.563a3.7,3.7,0,0,0,1.2,2.791,15.588,15.588,0,0,0,4.032,2.549,37.952,37.952,0,0,0,6.711,2.345c1.2.331,2.423.611,3.646.864s2.467.5,3.714.653c2.042.246,4.077.558,6.134.681,1.253.076,2.5.272,3.753.294,3.4.06,6.807.164,10.211.019.762-.033,1.536-.05,2.287-.1.794-.054,1.6-.177,2.406-.247.959-.085,1.914-.218,2.874-.279.328-.021.608-.307.87-.238a5.3,5.3,0,0,0,1.561-.087,24.54,24.54,0,0,1,2.484-.357.711.711,0,0,0,.674-.374c.564-.959,1.106-1.93,1.662-2.894.805-1.4,1.6-2.8,2.427-4.186.644-1.079,1.27-2.168,1.947-3.229.517-.809.967-1.7,1.429-2.562.572-1.068,1.172-2.119,1.833-3.31M12.11,63.086a16.149,16.149,0,0,1-.168-2.7,20.422,20.422,0,0,1,.261-4.608,28.534,28.534,0,0,1,1.612-5.646c.136-.314.069-.433-.274-.512A29.753,29.753,0,0,1,8.453,47.88,37.339,37.339,0,0,1,3.993,45.5c-.134-.08-.246-.271-.417-.193s-.1.291-.1.441c.009,3.518.035,7.036.032,10.554a3.484,3.484,0,0,0,.961,2.45,11.32,11.32,0,0,0,3.118,2.316,33.1,33.1,0,0,0,4.519,2.015M3.473,38.035A4.153,4.153,0,0,0,5.28,42.072a13.854,13.854,0,0,0,1.687,1.18,38.321,38.321,0,0,0,8.229,3.3.412.412,0,0,0,.544-.2c.209-.338.416-.676.638-1.005A26.115,26.115,0,0,1,18.5,42.608c.144-.162.461-.475-.03-.52a29.63,29.63,0,0,1-4.243-.922A30.281,30.281,0,0,1,8.75,39.311a27.773,27.773,0,0,1-4.893-2.652c-.327-.237-.4-.082-.387.239.012.379,0,.758,0,1.137M56.99,42.2A22.245,22.245,0,0,1,60.1,46.4c.134.248.333.153.52.1a49.611,49.611,0,0,0,5.773-2.042,15.932,15.932,0,0,0,4.378-2.671,3.765,3.765,0,0,0,1.254-1.738,13.041,13.041,0,0,0,.141-3.519C67.584,39.78,62.354,41.064,56.99,42.2M15.365,72.738a.767.767,0,0,0-.019-.193,26.422,26.422,0,0,1-2.285-5.3.634.634,0,0,0-.481-.461A24.956,24.956,0,0,1,9.11,65.624,35.92,35.92,0,0,1,3.8,62.836c-.084-.053-.119-.2-.257-.151-.166.063-.078.2-.09.314a15.413,15.413,0,0,0,.01,2.029A3.476,3.476,0,0,0,4.094,67,8.638,8.638,0,0,0,6.8,69.355a24.611,24.611,0,0,0,4.868,2.217,32.244,32.244,0,0,0,3.694,1.166" transform="translate(0 0)" fill="#1a1a19"/>
        <path id="Trazado_821112" data-name="Trazado 821112" d="M173.8,31.652c-.158-.066-.157-.138-.007-.214.109.068.127.139.007.214" transform="translate(-98.14 -17.765)" fill="#798c97"/>
        <path id="Trazado_821113" data-name="Trazado 821113" d="M164.545,185.295H153.729c-4.549,0-9.1-.024-13.648.018-1.076.01-2.19.109-3.23.014a6.148,6.148,0,0,1-4.969-2.854,5.584,5.584,0,0,1-.244-5.98c1.92-3.432,3.914-6.824,5.879-10.231.73-1.267,1.492-2.516,2.189-3.8.658-1.21,1.459-2.34,2.062-3.576.407-.834.909-1.618,1.359-2.42.5-.894,1.065-1.776,1.594-2.665,1.444-2.43,2.818-4.9,4.287-7.316a5.981,5.981,0,0,1,6.128-2.631c2.3.333,3.581,1.742,4.638,3.575.711,1.232,1.492,2.43,2.174,3.671,1.64,2.986,3.392,5.907,5.084,8.862,2.528,4.415,5.113,8.8,7.644,13.213a18.04,18.04,0,0,1,2.249,4.47,5.974,5.974,0,0,1-4.681,7.517,8.017,8.017,0,0,1-1.72.139c-1.992-.02-3.985-.008-5.978-.008m-6.257-28.9a5.659,5.659,0,0,0-.1-1.878,3.381,3.381,0,0,0-2.015-2.646,5.641,5.641,0,0,0-2.906-.369,3.629,3.629,0,0,0-2.158.882,4.229,4.229,0,0,0-1.377,3.475c.048,1.792.09,3.583.2,5.374.08,1.272.047,2.55.1,3.827.064,1.5.15,3,.222,4.5a3.924,3.924,0,0,0,3.86,3.627,3.739,3.739,0,0,0,3.642-3.491c.068-1.343.157-2.684.217-4.027.136-3.057.208-6.116.309-9.277m-8.554,22.347a4.327,4.327,0,0,0,4.228,4.358,4.239,4.239,0,0,0,4.357-4.334,4.184,4.184,0,0,0-4.338-4.279,4.245,4.245,0,0,0-4.246,4.255" transform="translate(-73.958 -81.245)" fill="#ffd65d"/>
        <path id="Trazado_821114" data-name="Trazado 821114" d="M34.749,8.288c1.911-.239,3.837-.188,5.756-.294a24.716,24.716,0,0,1,4.385.062c.769.095,1.554.013,2.333.05,1.967.1,3.924.267,5.883.479,2.251.244,4.5.484,6.73.876,1.241.218,2.485.445,3.712.712,1.515.329,2.992.846,4.473,1.321A25.475,25.475,0,0,1,73.987,14.2a7.854,7.854,0,0,1,2.221,1.965,2.268,2.268,0,0,1-.06,3.111,10.609,10.609,0,0,1-3.7,2.776,44.668,44.668,0,0,1-11,3.576c-2.6.553-5.224.9-7.858,1.207-1.038.121-2.082.2-3.118.271-1.167.076-2.345.121-3.515.174-2.988.136-5.973.119-8.958.059-1.684-.033-3.363-.3-5.049-.382-.92-.043-1.822-.21-2.739-.262-.8-.046-1.6-.2-2.4-.312-1.669-.234-3.334-.5-4.976-.873a49.309,49.309,0,0,1-8.487-2.591,17.534,17.534,0,0,1-4.6-2.667,3.919,3.919,0,0,1-1.524-2.212,2.9,2.9,0,0,1,1.271-2.712,15.72,15.72,0,0,1,3.945-2.481A46.187,46.187,0,0,1,22.1,10.076c1.958-.445,3.935-.78,5.929-1.052,1.882-.257,3.761-.5,5.655-.645.352-.027.71-.089,1.069-.092M58.2,24a19.254,19.254,0,0,0,2.319-.1,10.635,10.635,0,0,0,5.653-2.4,4.321,4.321,0,0,0,.251-6.719,7.969,7.969,0,0,0-2.738-1.717A15.8,15.8,0,0,0,53.437,12.7a7.647,7.647,0,0,0-4.6,3.068,3.9,3.9,0,0,0-.518,3.343,5.674,5.674,0,0,0,3.15,3.459A13.226,13.226,0,0,0,58.2,24" transform="translate(-4.625 -4.479)" fill="#798c97"/>
        <path id="Trazado_821115" data-name="Trazado 821115" d="M20.162,62.67a38.928,38.928,0,0,1-6.831-2.334,14.044,14.044,0,0,1-4.5-3.072,2.885,2.885,0,0,1-.8-2.052c-.026-3.647-.032-7.294-.055-10.94,0-.4.137-.387.4-.2,4.48,3.078,9.6,4.447,14.835,5.489,1.618.322,3.242.647,4.878.838,1.259.147,2.518.335,3.8.367,1.126.028,2.245.254,3.372.3q3.059.135,6.123.159c1.937.018,3.879.053,5.809-.068,1.257-.079,2.517-.041,3.774-.18,2.6-.288,5.2-.525,7.792-.93,1.974-.31,3.928-.687,5.87-1.143a47.165,47.165,0,0,0,5.818-1.756,28.56,28.56,0,0,0,4.945-2.337c0,3.766.005,7.532-.011,11.3a1.19,1.19,0,0,0,.437,1.132A5.992,5.992,0,0,1,73.74,59a29.069,29.069,0,0,1-7.811,3.341c-1.592.479-3.214.829-4.84,1.163-.932.191-1.868.361-2.8.552a.435.435,0,0,1-.382-.12,27.583,27.583,0,0,0-6.631-3.61,24.989,24.989,0,0,0-10.513-1.543,31.493,31.493,0,0,0-6.72,1.313,27.212,27.212,0,0,0-3.462,1.484A17.774,17.774,0,0,0,27.1,63.728a1.2,1.2,0,0,1-1,.241c-1.4-.291-2.812-.541-4.2-.884a6.091,6.091,0,0,0-1.405-.216c-.024-.2-.171-.211-.328-.2" transform="translate(-4.508 -24.832)" fill="#8b9bac"/>
        <path id="Trazado_821116" data-name="Trazado 821116" d="M58.79,85.89a27.355,27.355,0,0,1,3.6.518,30.49,30.49,0,0,1,3.213.774A19.288,19.288,0,0,1,69.67,89.13a22.429,22.429,0,0,1,8.588,9.66,22,22,0,0,1,1.606,4.574,23.426,23.426,0,0,1,.4,3.5c.02.374.1.747.1,1.12a23.494,23.494,0,0,1-1.482,8.128,21.639,21.639,0,0,1-4.583,7.456,20.946,20.946,0,0,1-5.451,4.224,24.848,24.848,0,0,1-6.489,2.5,23.316,23.316,0,0,1-6.353.336,19.243,19.243,0,0,1-4.523-.856A22.922,22.922,0,0,1,42.6,124.7a23.708,23.708,0,0,1-5.625-8.3,19.378,19.378,0,0,1-1.134-3.721,24.319,24.319,0,0,1-.3-6.5,22.719,22.719,0,0,1,4.222-11.224,19.8,19.8,0,0,1,3.376-3.623,28.686,28.686,0,0,1,4.81-3.182,19.366,19.366,0,0,1,5.875-1.915,22.876,22.876,0,0,1,3.529-.389l.016.022.017-.022.747-.026.006.029.008-.029.635.063h.013m.531,42.192a7.288,7.288,0,0,0,1.029-.035,24.576,24.576,0,0,0,6.946-2.233,1.97,1.97,0,0,0,.949-3.092c-1.544-2.857-3.165-5.668-4.9-8.412a.569.569,0,0,1,.1-.832,7.029,7.029,0,0,0,1.731-3c.125-.457.327-.535.738-.534,3.258.016,6.517.028,9.775.008,1.315-.009,1.82-.312,2.141-1.561a.459.459,0,0,0,.013-.341,20.725,20.725,0,0,0-.407-3.5,18.271,18.271,0,0,0-2.658-6.912,21.15,21.15,0,0,0-6.305-6.224c-1.417-.92-2.433-.673-3.253.786-1.537,2.736-3.157,5.427-4.692,8.165a.847.847,0,0,1-1.1.463,6.836,6.836,0,0,0-3.347.053c-.423.1-.525-.051-.672-.326-1.585-2.96-3.282-5.854-5.059-8.7a1.765,1.765,0,0,0-2.632-.669,17.176,17.176,0,0,0-2.239,1.526,20.1,20.1,0,0,0-6.9,10.537,16.211,16.211,0,0,0-.63,4.976,1.746,1.746,0,0,0,1.016,1.6,2.091,2.091,0,0,0,1.052.139q4.918.01,9.835,0c.334,0,.6.035.709.42a7.075,7.075,0,0,0,1.828,3.131.488.488,0,0,1,.114.7c-.81,1.365-1.6,2.74-2.4,4.113-.889,1.528-1.784,3.053-2.66,4.589a1.715,1.715,0,0,0,.56,2.61,16.242,16.242,0,0,0,3.606,1.626,15.915,15.915,0,0,0,4.992.942l.006.029.008-.028a16.479,16.479,0,0,0,2.39.009.228.228,0,0,0,.311-.018" transform="translate(-20.031 -48.498)" fill="#ffd65d"/>
        <path id="Trazado_821117" data-name="Trazado 821117" d="M69.855,167.751c-.661,1.19-1.262,2.242-1.833,3.309-.462.863-.912,1.753-1.429,2.562-.677,1.061-1.3,2.15-1.947,3.229-.826,1.385-1.622,2.788-2.427,4.186-.555.964-1.1,1.935-1.662,2.893a.71.71,0,0,1-.674.374,24.546,24.546,0,0,0-2.484.358,5.282,5.282,0,0,1-1.561.087c-.261-.068-.541.218-.87.239-.96.061-1.915.194-2.874.279-.8.071-1.611.194-2.406.248-.752.051-1.525.068-2.288.1-3.4.145-6.808.042-10.211-.019-1.253-.022-2.5-.219-3.753-.294-2.057-.124-4.092-.435-6.134-.681-1.247-.15-2.483-.4-3.714-.653s-2.443-.533-3.646-.864a37.951,37.951,0,0,1-6.711-2.345A15.588,15.588,0,0,1,9.2,178.211,3.7,3.7,0,0,1,8,175.42c.007-3.521-.02-7.042-.029-10.563,0-.126-.1-.3.1-.372.135-.048.221.051.33.122a12.45,12.45,0,0,0,1.707,1.028c.518.227,1.01.515,1.531.737.39.167.784.426,1.19.612a40.391,40.391,0,0,0,5.5,1.971,22.51,22.51,0,0,1,2.661.662,5.184,5.184,0,0,0,1.468.262,1.3,1.3,0,0,1,.881.43,29.739,29.739,0,0,0,5.054,4.193,24.625,24.625,0,0,0,15.188,4.06,23.442,23.442,0,0,0,9.7-2.376c.519-.25,1.048-.481,1.555-.751a20.192,20.192,0,0,0,5.281-3.956,6.28,6.28,0,0,1,3.677-1.95,30.853,30.853,0,0,0,6.07-1.78" transform="translate(-4.487 -92.939)" fill="#8b9bac"/>
        <path id="Trazado_821118" data-name="Trazado 821118" d="M16.606,121.93a33.076,33.076,0,0,1-4.519-2.016A11.3,11.3,0,0,1,8.969,117.6a3.482,3.482,0,0,1-.961-2.45c0-3.518-.023-7.036-.032-10.554,0-.15-.083-.359.1-.441s.283.112.417.193a37.306,37.306,0,0,0,4.46,2.376,29.745,29.745,0,0,0,5.09,1.744c.342.079.409.2.273.512a28.529,28.529,0,0,0-1.612,5.646,20.375,20.375,0,0,0-.261,4.608,16.152,16.152,0,0,0,.167,2.7" transform="translate(-4.496 -58.844)" fill="#8b9bac"/>
        <path id="Trazado_821119" data-name="Trazado 821119" d="M151.581,118.755a12.2,12.2,0,0,1-4.267,2.908c-.931.438-1.9.786-2.854,1.184-.307.129-.417.072-.4-.279.054-.932.131-1.867.112-2.8a25.411,25.411,0,0,0-1.847-9.461c-.2-.466-.118-.612.355-.718A29.107,29.107,0,0,0,150.2,106.7c.317-.171.628-.354.941-.532a3.02,3.02,0,0,1,.114.9c-.005,3.441,0,6.882-.009,10.324a1.965,1.965,0,0,0,.337,1.362" transform="translate(-80.368 -59.991)" fill="#8b9bac"/>
        <path id="Trazado_821120" data-name="Trazado 821120" d="M7.915,85.512c0-.378.009-.758,0-1.137-.01-.321.06-.476.387-.239a27.758,27.758,0,0,0,4.893,2.652,30.26,30.26,0,0,0,5.482,1.857,29.742,29.742,0,0,0,4.242.921c.49.044.174.358.03.52A26.044,26.044,0,0,0,20.82,92.82c-.223.329-.43.668-.639,1.006a.411.411,0,0,1-.544.2,38.247,38.247,0,0,1-8.229-3.3,13.948,13.948,0,0,1-1.687-1.18,4.154,4.154,0,0,1-1.807-4.038" transform="translate(-4.442 -47.478)" fill="#798c97"/>
        <path id="Trazado_821121" data-name="Trazado 821121" d="M131.033,89.658c5.364-1.137,10.594-2.421,15.177-5.674a13.02,13.02,0,0,1-.141,3.518,3.763,3.763,0,0,1-1.253,1.738,15.929,15.929,0,0,1-4.378,2.672,49.83,49.83,0,0,1-5.773,2.042c-.187.057-.387.153-.52-.1a22.226,22.226,0,0,0-3.111-4.2" transform="translate(-74.043 -47.457)" fill="#798c97"/>
        <path id="Trazado_821122" data-name="Trazado 821122" d="M19.812,154.166A32.242,32.242,0,0,1,16.118,153a24.611,24.611,0,0,1-4.868-2.217,8.638,8.638,0,0,1-2.71-2.358,3.476,3.476,0,0,1-.628-1.968,15.413,15.413,0,0,1-.01-2.029c.012-.117-.076-.251.09-.314.138-.052.173.1.257.151a35.92,35.92,0,0,0,5.307,2.787,24.955,24.955,0,0,0,3.471,1.163.634.634,0,0,1,.481.461,26.422,26.422,0,0,0,2.285,5.3.767.767,0,0,1,.019.193" transform="translate(-4.447 -81.428)" fill="#798c97"/>
        <path id="Trazado_821123" data-name="Trazado 821123" d="M150.753,144.534a4.15,4.15,0,0,1-.58,1.132c-.944,1.6-1.885,3.2-2.79,4.82a3.054,3.054,0,0,1-1.392,1.354,61.4,61.4,0,0,1-6.794,2.525c-.041.014-.1-.02-.177-.037a7.026,7.026,0,0,1,.6-1.2,21.082,21.082,0,0,0,1.544-3.8,1.187,1.187,0,0,1,.919-.915,32.647,32.647,0,0,0,6.36-2.586,12.285,12.285,0,0,0,1.7-1.059.834.834,0,0,1,.575-.265Z" transform="translate(-78.555 -81.654)" fill="#798c97"/>
        <path id="Trazado_821124" data-name="Trazado 821124" d="M163.16,117.663a1.965,1.965,0,0,1-.337-1.362c.01-3.441,0-6.882.009-10.324a3.02,3.02,0,0,0-.114-.9c.354-.244.712-.484,1.062-.735.313-.225.354-.059.354.22,0,1.26.015,2.519.016,3.779,0,2.358-.007,4.716,0,7.075a3.037,3.037,0,0,1-.987,2.251" transform="translate(-91.948 -58.9)" fill="#798c97"/>
        <path id="Trazado_821125" data-name="Trazado 821125" d="M163.39,57.357a1.191,1.191,0,0,1-.437-1.132c.016-3.766.01-7.532.011-11.3.3-.223.605-.45.914-.667.29-.2.439-.1.438.233,0,.45-.028.9-.029,1.351q-.007,4.678-.007,9.355a2.577,2.577,0,0,1-.889,2.157" transform="translate(-92.08 -24.951)" fill="#798c97"/>
        <path id="Trazado_821126" data-name="Trazado 821126" d="M35.992,86.993c.157-.011.3,0,.328.2-.178.045-.269-.05-.328-.2" transform="translate(-20.338 -49.155)" fill="#798c97"/>
        <path id="Trazado_821127" data-name="Trazado 821127" d="M165.924,144.437a.6.6,0,0,1,.063-.053s.021.019.032.029l-.063.054-.032-.031" transform="translate(-93.759 -81.587)" fill="#798c97"/>
        <path id="Trazado_821128" data-name="Trazado 821128" d="M89.1,85.971h0" transform="translate(-50.34 -48.58)" fill="#798c97"/>
        <path id="Trazado_821129" data-name="Trazado 821129" d="M87.609,85.827l-.008.028-.006-.029h.014" transform="translate(-49.497 -48.498)" fill="#798c97"/>
        <path id="Trazado_821130" data-name="Trazado 821130" d="M85.834,85.858l-.017.022-.017-.021.017-.022Z" transform="translate(-48.484 -48.504)" fill="#798c97"/>
        <path id="Trazado_821131" data-name="Trazado 821131" d="M182.774,166.371c-.1,3.162-.174,6.221-.309,9.277-.059,1.343-.149,2.684-.217,4.027a3.74,3.74,0,0,1-3.642,3.491,3.924,3.924,0,0,1-3.86-3.627c-.071-1.5-.157-3-.222-4.5-.054-1.277-.021-2.555-.1-3.827-.114-1.791-.155-3.581-.2-5.374a4.231,4.231,0,0,1,1.377-3.476,3.632,3.632,0,0,1,2.158-.882,5.641,5.641,0,0,1,2.906.37,3.38,3.38,0,0,1,2.015,2.646,5.672,5.672,0,0,1,.1,1.878m-3.476-.11h.017v-.271c0-1.277.131-1-1.062-1.074-.443-.027-.586.169-.553.575.064.786.013,1.573.083,2.365.221,2.529.1,5.073.235,7.609a29.75,29.75,0,0,1,.124,3.61,1.208,1.208,0,0,0,.085.359c.042.16.08.336.3.307.2-.026.258-.178.251-.357-.023-.54.079-1.073.1-1.608.051-1.685.128-3.368.217-5.052.114-2.152.141-4.309.206-6.464" transform="translate(-98.444 -91.224)" fill="#1a1a19"/>
        <path id="Trazado_821132" data-name="Trazado 821132" d="M174.221,218.634a4.245,4.245,0,0,1,4.246-4.255,4.184,4.184,0,0,1,4.339,4.279,4.239,4.239,0,0,1-4.357,4.334,4.327,4.327,0,0,1-4.228-4.358m5.169.009a.883.883,0,0,0-.9-.814.83.83,0,0,0-.81.882.887.887,0,0,0,.886.83.913.913,0,0,0,.827-.9" transform="translate(-98.445 -121.139)" fill="#1a1a19"/>
        <path id="Trazado_821133" data-name="Trazado 821133" d="M110.13,29.315a13.224,13.224,0,0,1-6.73-1.431,5.673,5.673,0,0,1-3.15-3.459,3.894,3.894,0,0,1,.518-3.343,7.645,7.645,0,0,1,4.6-3.068,15.8,15.8,0,0,1,10.249.364,7.969,7.969,0,0,1,2.738,1.717,4.321,4.321,0,0,1-.251,6.719,10.635,10.635,0,0,1-5.653,2.4,19.254,19.254,0,0,1-2.319.1m-.124-3.46a11.033,11.033,0,0,0,2.9-.352,6.157,6.157,0,0,0,3.148-1.594c.42-.447.435-.755-.028-1.154a5.624,5.624,0,0,0-1.472-1.019,11.53,11.53,0,0,0-8.619-.217,5.592,5.592,0,0,0-1.777.942c-.6.509-.724,1.022-.049,1.654a2.676,2.676,0,0,0,.338.267,9.794,9.794,0,0,0,5.559,1.475" transform="translate(-56.553 -9.795)" fill="#1a1a19"/>
        <path id="Trazado_821134" data-name="Trazado 821134" d="M81.081,114.928c-.321,1.25-.826,1.553-2.141,1.561-3.258.02-6.517.008-9.775-.007-.411,0-.613.076-.738.533a7.033,7.033,0,0,1-1.731,3,.57.57,0,0,0-.1.832c1.736,2.744,3.356,5.555,4.9,8.411a1.97,1.97,0,0,1-.949,3.092A24.576,24.576,0,0,1,63.6,134.58a7.345,7.345,0,0,1-1.028.035l-.311.018a16.41,16.41,0,0,1-2.39-.009h-.015a15.915,15.915,0,0,1-4.992-.942,16.223,16.223,0,0,1-3.606-1.626,1.715,1.715,0,0,1-.56-2.61c.876-1.535,1.771-3.06,2.66-4.589.8-1.373,1.592-2.747,2.4-4.113a.488.488,0,0,0-.114-.7,7.074,7.074,0,0,1-1.828-3.132c-.109-.385-.375-.42-.709-.419q-4.918.009-9.835,0a2.1,2.1,0,0,1-1.052-.139,1.746,1.746,0,0,1-1.016-1.6,16.21,16.21,0,0,1,.63-4.976,20.1,20.1,0,0,1,6.9-10.537,17.091,17.091,0,0,1,2.239-1.526,1.765,1.765,0,0,1,2.632.669c1.777,2.848,3.474,5.743,5.059,8.7.147.275.25.43.672.326a6.836,6.836,0,0,1,3.347-.053.847.847,0,0,0,1.1-.463c1.535-2.737,3.155-5.428,4.692-8.165.82-1.459,1.836-1.706,3.253-.786a21.156,21.156,0,0,1,6.305,6.224,18.269,18.269,0,0,1,2.658,6.912,20.726,20.726,0,0,1,.407,3.5c-.226.105-.216.22-.013.343m-7.968-1.8v-.005c1.212,0,2.425-.007,3.637,0,.849.006.889-.032.743-.88-.006-.036-.021-.07-.027-.1a16.712,16.712,0,0,0-3.485-7.749,14.342,14.342,0,0,0-2.831-2.7c-.238-.169-.419-.211-.594.127-1.194,2.306-2.507,4.546-3.884,6.748a.8.8,0,0,0,.1,1.138,6.574,6.574,0,0,1,1.638,2.885.66.66,0,0,0,.744.547c1.32-.02,2.641-.007,3.962-.007M61.119,131.346a18.281,18.281,0,0,0,6.184-1.224c.579-.221.612-.242.3-.794-1.256-2.192-2.543-4.366-3.774-6.572a.889.889,0,0,0-1.151-.488A6.275,6.275,0,0,1,59.3,122.2c-.355-.1-.509,0-.681.3-.891,1.589-1.806,3.165-2.717,4.743-.424.735-.856,1.465-1.287,2.2-.168.285-.173.468.2.615a18.6,18.6,0,0,0,6.306,1.29M49.141,113.112v.01c1.321,0,2.642-.005,3.963,0,.318,0,.582-.06.679-.4a7.969,7.969,0,0,1,1.855-3.2.6.6,0,0,0,.069-.785q-1.99-3.41-3.965-6.829c-.221-.384-.423-.455-.8-.147a15.8,15.8,0,0,0-4.136,4.882,18.446,18.446,0,0,0-2.006,5.84c-.069.462.023.647.541.633,1.266-.035,2.533-.011,3.8-.011m16.092,1.694a3.967,3.967,0,0,0-3.977-4.184,4.26,4.26,0,0,0-4.281,4.163,4.313,4.313,0,0,0,4.152,4.205c1.836.019,4.281-1.687,4.105-4.184" transform="translate(-23.277 -55.031)" fill="#1a1a19"/>
        <path id="Trazado_821135" data-name="Trazado 821135" d="M132.7,137.27c-.2-.122-.213-.237.013-.342a.461.461,0,0,1-.013.342" transform="translate(-74.9 -77.374)" fill="#798c97"/>
        <path id="Trazado_821136" data-name="Trazado 821136" d="M89.624,183l.311-.018a.229.229,0,0,1-.311.018" transform="translate(-50.644 -103.396)" fill="#798c97"/>
        <path id="Trazado_821137" data-name="Trazado 821137" d="M84.1,183h.015l-.009.028Z" transform="translate(-47.52 -103.406)" fill="#798c97"/>
        <path id="Trazado_821138" data-name="Trazado 821138" d="M183.818,170.778c-.065,2.155-.092,4.311-.206,6.464-.089,1.684-.167,3.367-.217,5.052-.016.535-.118,1.068-.1,1.608.007.178-.05.331-.251.357-.222.029-.261-.147-.3-.307a1.208,1.208,0,0,1-.085-.359,29.75,29.75,0,0,0-.124-3.61c-.132-2.536-.014-5.08-.235-7.609-.069-.792-.019-1.578-.083-2.365-.033-.407.11-.6.553-.575,1.193.074,1.061-.2,1.062,1.074v.271h-.017" transform="translate(-102.964 -95.74)" fill="#e2495d"/>
        <path id="Trazado_821139" data-name="Trazado 821139" d="M183.883,223.125a.913.913,0,0,1-.827.9.887.887,0,0,1-.886-.83.83.83,0,0,1,.81-.882.883.883,0,0,1,.9.814" transform="translate(-102.939 -125.621)" fill="#e2495d"/>
        <path id="Trazado_821140" data-name="Trazado 821140" d="M114.646,30.341a9.794,9.794,0,0,1-5.559-1.475,2.676,2.676,0,0,1-.338-.267c-.675-.632-.548-1.145.049-1.654A5.592,5.592,0,0,1,110.574,26a11.53,11.53,0,0,1,8.619.217,5.624,5.624,0,0,1,1.472,1.019c.464.4.448.708.028,1.154a6.157,6.157,0,0,1-3.148,1.594,11.033,11.033,0,0,1-2.9.352" transform="translate(-61.194 -14.28)" fill="#798c97"/>
        <path id="Trazado_821141" data-name="Trazado 821141" d="M105.964,118.556c-1.321,0-2.642-.012-3.962.007a.661.661,0,0,1-.744-.547,6.57,6.57,0,0,0-1.638-2.885.8.8,0,0,1-.1-1.138c1.377-2.2,2.69-4.442,3.884-6.748.175-.338.355-.3.594-.127a14.341,14.341,0,0,1,2.831,2.7,16.712,16.712,0,0,1,3.484,7.749c.007.035.022.069.028.1.146.849.106.886-.743.88-1.212-.008-2.425,0-3.637,0v.005" transform="translate(-56.128 -60.457)" fill="#e2495d"/>
        <path id="Trazado_821142" data-name="Trazado 821142" d="M78.412,163.533a18.624,18.624,0,0,1-6.306-1.29c-.373-.147-.369-.33-.2-.615.431-.73.863-1.461,1.287-2.2.911-1.578,1.826-3.154,2.717-4.743.172-.306.326-.4.681-.3a6.275,6.275,0,0,0,3.376.068.889.889,0,0,1,1.151.488c1.231,2.206,2.518,4.381,3.774,6.573.316.551.283.573-.3.794a18.281,18.281,0,0,1-6.184,1.224" transform="translate(-40.57 -87.218)" fill="#e2495d"/>
        <path id="Trazado_821143" data-name="Trazado 821143" d="M53.8,118.553c-1.267,0-2.534-.023-3.8.011-.518.014-.611-.171-.541-.633a18.448,18.448,0,0,1,2.006-5.841,15.8,15.8,0,0,1,4.136-4.882c.376-.307.578-.237.8.147q1.973,3.42,3.965,6.829a.6.6,0,0,1-.069.785,7.972,7.972,0,0,0-1.855,3.2c-.1.337-.361.4-.679.4-1.321-.009-2.642,0-3.963,0v-.01" transform="translate(-27.937 -60.472)" fill="#e2495d"/>
        <path id="Trazado_821144" data-name="Trazado 821144" d="M85.736,132c.176,2.5-2.269,4.2-4.105,4.184a4.313,4.313,0,0,1-4.152-4.205,4.26,4.26,0,0,1,4.281-4.163A3.967,3.967,0,0,1,85.736,132" transform="translate(-43.781 -72.224)" fill="#ffd65d"/>
      </g>
    </g>
  </g>
</svg>
