<svg xmlns="http://www.w3.org/2000/svg" xmlns:xlink="http://www.w3.org/1999/xlink" width="169" height="169" viewBox="0 0 169 169">
  <defs>
    <clipPath id="clip-path">
      <rect id="Rect치ngulo_377603" data-name="Rect치ngulo 377603" width="109.585" height="120.667" fill="none"/>
    </clipPath>
  </defs>
  <g id="Grupo_1073328" data-name="Grupo 1073328" transform="translate(-384.743 -2057.999)">
    <g id="Grupo_159182" data-name="Grupo 159182" transform="translate(384.743 2057.999)">
      <path id="Uni칩n_12" data-name="Uni칩n 12" d="M84.5,0A84.5,84.5,0,1,1,0,84.5,84.5,84.5,0,0,1,84.5,0Z" transform="translate(0 0)" fill="#ffae7e"/>
    </g>
    <g id="Grupo_1073335" data-name="Grupo 1073335" transform="translate(419.743 2084.999)">
      <g id="Grupo_1073334" data-name="Grupo 1073334" clip-path="url(#clip-path)">
        <path id="Trazado_820941" data-name="Trazado 820941" d="M99.5,32.035c.173-.2.4-.1.608-.105,1.411-.048,2.824.087,4.232-.081a1.744,1.744,0,0,0,1.448-1.626,1.817,1.817,0,0,0-1.083-1.687,12,12,0,0,0-2.31-.253,15.567,15.567,0,0,0-1.993-2.8c-.341-.482-.6-1.063-1.191-1.331a3.352,3.352,0,0,0,.522-.55,1.7,1.7,0,0,0-.577-2.572,2.824,2.824,0,0,0-1.244-.254c-2.617,0-5.235.02-7.852-.009a11.386,11.386,0,0,0-2.828.3A13.712,13.712,0,0,0,83.5,22.479a18.535,18.535,0,0,0-2.736,1.938c-1.243,1.069-2.337,2.3-3.548,3.413A8.875,8.875,0,0,1,74.4,29.61a9.8,9.8,0,0,1-4.022.616c-2.24-.1-4.486-.036-6.73-.021a.644.644,0,0,1-.719-.432,6.21,6.21,0,0,0-.69-1.392,14.178,14.178,0,0,0-3.526-3.548.667.667,0,0,1-.285-.654c.007-1.315,0-2.63,0-3.946a26.1,26.1,0,0,1,.047-3.293,15.1,15.1,0,0,1,1.581-4.95A15.008,15.008,0,0,1,65.489,5.93a15.25,15.25,0,0,1,8.218-2.361,1.684,1.684,0,0,0,1.648-1.134,1.563,1.563,0,0,0-.35-1.718A2.93,2.93,0,0,0,72.218.075a23.053,23.053,0,0,0-4.963,1.13,17.487,17.487,0,0,0-8.208,5.882,17.445,17.445,0,0,0-3.6,7.3,17.074,17.074,0,0,0-.548,4.146,3.4,3.4,0,0,1-.09,1.506c0,.1,0,.2,0,.294a.389.389,0,0,1,.124.316c.009.608-.023,1.221.044,1.823.056.509-.22.618-.573.519a5.742,5.742,0,0,0-.962-.158,6.08,6.08,0,0,0-1.837-.1c-.727.149-.725.188-.725-.55Q50.877,12.44,50.877,2.7a4.946,4.946,0,0,0-.1-1.284C50.582.689,49.649-.069,49.031.054c-.962.19-1.717.647-1.671,1.809.029.746-.056,1.488-.048,2.238.065,6.338.034,12.677.046,19.015a.624.624,0,0,1-.464.668,10.719,10.719,0,0,0-3.295,2.2c-.084.086-.14.111-.239.049-.134-.084-.049-.181-.044-.291a25.849,25.849,0,0,0-.213-4.318,23.014,23.014,0,0,0-1.037-4.412A24.471,24.471,0,0,0,33.577,5a21.206,21.206,0,0,0-7.191-3.687A21.535,21.535,0,0,0,19.82.161a1.356,1.356,0,0,1-.394-.077,2.038,2.038,0,0,0-2.354,1.259,1.977,1.977,0,0,0,.765,1.969A1.52,1.52,0,0,0,16.671,4a16.448,16.448,0,0,1-1.608,1.618c-.577.543-1.372.965-1.376,1.927-.61.011-1.22.048-1.829.025a3.838,3.838,0,0,0-1.463.25,1.684,1.684,0,0,0-.782,2.265,1.862,1.862,0,0,0,1.841,1.04c2.538-.014,5.077-.026,7.615.012a11.884,11.884,0,0,1,2.527.289A13.667,13.667,0,0,1,31.608,20.4a17.8,17.8,0,0,1,.514,5.73c0,.128.037.3-.177.3a18.835,18.835,0,0,1-3.4-.089A7.556,7.556,0,0,1,24.7,24.149,11.2,11.2,0,0,0,16.58,20.79c-4.781-.062-9.564-.017-14.345-.017A3.178,3.178,0,0,0,1,21a1.552,1.552,0,0,0-1,1.571A1.744,1.744,0,0,0,1.023,24.2a4.241,4.241,0,0,0,1.584.152c5.24.122,10.489-.245,15.723.2a4.784,4.784,0,0,1,2.987,1.278c.518.5,1.089.937,1.617,1.422a12.235,12.235,0,0,0,4.486,2.411,11.82,11.82,0,0,0,3.695.347c1,.014,1,.013,1,1.01,0,1.373-.079,2.754.034,4.118a1.182,1.182,0,0,1-.685,1.3,13.714,13.714,0,0,0-3.531,3.181,16.729,16.729,0,0,0-1.493,2.287,13.32,13.32,0,0,0-1.867,6.28c-.086,1.506-.007,3.021-.015,4.532a6.656,6.656,0,0,0,.325,2.077A7.43,7.43,0,0,0,28.3,59.191a6.73,6.73,0,0,0,3.367,1.034c.407,0,.492.194.487.548-.01.784-.008,1.57.018,2.354a1.068,1.068,0,0,1-.317.836c-.394.391-.79.784-1.212,1.144A15.974,15.974,0,0,0,28.021,68a17.91,17.91,0,0,0-2.358,4.274,15.138,15.138,0,0,0-1.1,5.463c.021,1.118,0,2.237,0,3.356a12.173,12.173,0,0,1-1.767,6.237,16.018,16.018,0,0,1-2.768,3.3c-.788.758-1.516,1.615-2.288,2.41-2.531,2.6-5.225,5.049-7.683,7.726a1.511,1.511,0,0,0-.3,1.859,1.678,1.678,0,0,0,1.653,1.072,2,2,0,0,0,1.346-.734c.79-.812,1.541-1.663,2.339-2.467.9-.9,1.82-1.78,2.731-2.667q3.083-3,6.038-6.126a15.409,15.409,0,0,0,3.891-7.79,22.853,22.853,0,0,0,.393-5.516,10.237,10.237,0,0,1,.283-3.125,14.683,14.683,0,0,1,3.648-6.637c.135-.137.237-.377.438-.357.27.026.235.343.281.514a17.4,17.4,0,0,0,2.845,5.778,1.232,1.232,0,0,1,.352,1.058,3.737,3.737,0,0,0-.092,1.036c-.08,3.935.183,7.874-.122,11.806a10.807,10.807,0,0,1-1.222,4.033,20.219,20.219,0,0,1-3.377,4.465,22.256,22.256,0,0,0-3,4.065,8.857,8.857,0,0,1-1.807,2.229c-1.7,1.527-3.277,3.17-4.876,4.794a15.141,15.141,0,0,0-3.935,6.8A14.812,14.812,0,0,0,17,118.879a1.93,1.93,0,0,0,1.822,1.781,1.7,1.7,0,0,0,1.726-1.813,11.46,11.46,0,0,1,2.026-6.618,11.72,11.72,0,0,1,2.266-2.538.673.673,0,0,1,.06.557,9.828,9.828,0,0,0-.309,2.338c-.08,2.116-.076,4.239-.007,6.356A1.778,1.778,0,0,0,27,120.533a2.008,2.008,0,0,0,1.211-1.768,1.2,1.2,0,0,0,.685.125,21.213,21.213,0,0,0,3.231-.121c.037.172.07.345.113.516a1.788,1.788,0,0,0,3.522-.565c-.034-1.568-.017-3.139-.044-4.708a13.177,13.177,0,0,1,1.224-6.1,18.622,18.622,0,0,1,3.656-4.955,22.091,22.091,0,0,0,5.462-9.763,29.93,29.93,0,0,0,.637-3.168,23.922,23.922,0,0,0,.393-3.432c.03-1.2.006-2.393-.008-3.589,0-.388.082-.5.467-.289,1.032.561,2.07,1.114,3.127,1.625a.771.771,0,0,1,.494.816q-.01,16.862,0,33.724a1.81,1.81,0,0,0,1.453,1.769,1.936,1.936,0,0,0,1.948-1.229,9.4,9.4,0,0,0,.146-1.57,25.836,25.836,0,0,0,3.385-1.634,1.941,1.941,0,0,1,.807-.293c.493.624,1.019,1.174,1.934.879a1.717,1.717,0,0,0,1.4-1.919c0-3.553,0-7.105-.026-10.657-.017-2.347.1-4.7-.095-7.041-.012-.138-.09-.334.09-.423s.291.075.385.189a28.517,28.517,0,0,1,1.995,2.462,10.452,10.452,0,0,1,1.676,5.462c.044,1.333.03,2.67-.028,4a2.4,2.4,0,0,0,.135,1.194,1.735,1.735,0,0,0,1.947,1.157,1.756,1.756,0,0,0,1.476-1.71,37.37,37.37,0,0,0-.132-5.849,15.294,15.294,0,0,0-.793-3.343,15.511,15.511,0,0,0-1.058-2.317A12.712,12.712,0,0,0,66,95.6a13.542,13.542,0,0,1-1.669-1.886,10.918,10.918,0,0,1-1.841-3.9,18.224,18.224,0,0,1-.26-4.7.774.774,0,0,1,.382-.723,11.229,11.229,0,0,0,4.206-4.675,10,10,0,0,0,1.065-4.436q.052-11.364,0-22.728a9.619,9.619,0,0,0-.565-3.172c-.135-.38-.042-.471.322-.5a12.09,12.09,0,0,1,2.62.175,10.521,10.521,0,0,1,5.6,2.712,18.506,18.506,0,0,0,5.788,3.772,12.481,12.481,0,0,0,3.76.894c1.841.114,3.694.022,5.542.021a.832.832,0,0,0,.381-.082,1.769,1.769,0,0,0,1.116-2.209,1.845,1.845,0,0,0-1.91-1.235,49.778,49.778,0,0,1-5.7-.129,10.954,10.954,0,0,1-3.99-1.41,14.833,14.833,0,0,1-2.623-2.123,14.931,14.931,0,0,0-9-3.928,15.885,15.885,0,0,0-3.213.061,1.99,1.99,0,0,1-1.7-.687,10.749,10.749,0,0,0-4.185-2.534c-.477-.152-.974-.194-1.432-.376-.14-.056-.4-.078-.348-.313.047-.2.264-.105.407-.106q2.655-.015,5.31-.02a1.8,1.8,0,0,0,1.979-1.738,2.583,2.583,0,0,1,.85-.186c1.039.142,2.079.021,3.117.073a1.987,1.987,0,0,0,1.9,1.862c.726-.048,1.442-.221,2.167-.294a18.313,18.313,0,0,0,3.094-.755,8.893,8.893,0,0,0,2.273-.821c.761-.478,1.581-.862,2.343-1.335a37.2,37.2,0,0,0,4.029-3.155,23.535,23.535,0,0,0,2.083-2.081,2.784,2.784,0,0,1,2.6-1.02,3.141,3.141,0,0,0,.883.007,1.04,1.04,0,0,1,.933.369c1.184,1.2,2.41,2.364,3.568,3.59a10.267,10.267,0,0,0,4.056,2.765,11.225,11.225,0,0,0,3.285.842c1.511.056,3.027.04,4.539-.018a1.9,1.9,0,0,0,1.825-1.777,1.825,1.825,0,0,0-1.625-1.747c-1.764-.228-3.551.222-5.323-.193a7.932,7.932,0,0,1-1.445-.3A13.878,13.878,0,0,1,96.9,31.945a11.947,11.947,0,0,1,2.579.09l.01.031Z" transform="translate(0 0)" fill="#f6f9fa"/>
        <path id="Trazado_820942" data-name="Trazado 820942" d="M54.812,20.042a3.4,3.4,0,0,0,.09-1.507,17.07,17.07,0,0,1,.548-4.146,17.447,17.447,0,0,1,3.6-7.3,17.488,17.488,0,0,1,8.209-5.882A23.084,23.084,0,0,1,72.218.075a2.93,2.93,0,0,1,2.787.642,1.562,1.562,0,0,1,.35,1.718A1.684,1.684,0,0,1,73.708,3.57,15.251,15.251,0,0,0,65.49,5.93a15.01,15.01,0,0,0-5.43,6.06,15.086,15.086,0,0,0-1.581,4.949,26.1,26.1,0,0,0-.048,3.293c0,1.315.006,2.63,0,3.945a.668.668,0,0,0,.285.655,14.173,14.173,0,0,1,3.527,3.548,6.225,6.225,0,0,1,.689,1.392.644.644,0,0,0,.719.432c2.243-.015,4.49-.075,6.73.021A9.8,9.8,0,0,0,74.4,29.61a8.877,8.877,0,0,0,2.817-1.78c1.211-1.111,2.3-2.344,3.547-3.412A18.537,18.537,0,0,1,83.5,22.479a13.73,13.73,0,0,1,3.728-1.414,11.361,11.361,0,0,1,2.828-.3c2.617.029,5.235.011,7.852.009a2.834,2.834,0,0,1,1.243.254A1.7,1.7,0,0,1,99.73,23.6a3.368,3.368,0,0,1-.522.55l-.867.193-.191.01c-3.392.09-6.794-.23-10.178.2a7.887,7.887,0,0,0-4.487,2.087c-1.348,1.267-2.6,2.635-4,3.854A14.111,14.111,0,0,1,75.544,32.9a14.741,14.741,0,0,1-5.689.911c-3.6.005-7.2.014-10.8-.006A7.752,7.752,0,0,0,52.3,36.987a7.514,7.514,0,0,0-1.418,4.1c-.026.408.167.5.527.5.983-.008,1.966.005,2.949.01l.037,0c.3.069.482,0,.527-.352a3.691,3.691,0,0,1,3.722-3.426c1.8-.051,3.61-.019,5.414.021a1.886,1.886,0,0,1,1.978,1.786,1.8,1.8,0,0,1-1.979,1.738q-2.655,0-5.31.021c-.144,0-.361-.092-.408.106-.056.235.208.257.348.313.459.183.955.225,1.433.377a10.746,10.746,0,0,1,4.185,2.534,1.99,1.99,0,0,0,1.7.687,15.851,15.851,0,0,1,3.213-.062,14.936,14.936,0,0,1,9,3.928,14.889,14.889,0,0,0,2.623,2.123,10.963,10.963,0,0,0,3.99,1.41,49.785,49.785,0,0,0,5.7.129,1.845,1.845,0,0,1,1.91,1.235,1.768,1.768,0,0,1-1.116,2.209.822.822,0,0,1-.382.082c-1.848,0-3.7.094-5.542-.021a12.479,12.479,0,0,1-3.76-.893,18.515,18.515,0,0,1-5.788-3.772,10.512,10.512,0,0,0-5.6-2.712,12.091,12.091,0,0,0-2.62-.175c-.364.024-.457.115-.322.5a9.612,9.612,0,0,1,.565,3.172q.045,11.364,0,22.728a10.006,10.006,0,0,1-1.065,4.436,11.23,11.23,0,0,1-4.205,4.675.771.771,0,0,0-.382.723,18.25,18.25,0,0,0,.259,4.7,10.924,10.924,0,0,0,1.841,3.9A13.546,13.546,0,0,0,66,95.6a12.707,12.707,0,0,1,1.811,2.41,15.49,15.49,0,0,1,1.058,2.318,15.288,15.288,0,0,1,.793,3.343,37.369,37.369,0,0,1,.133,5.849,1.756,1.756,0,0,1-1.477,1.709,1.736,1.736,0,0,1-1.947-1.157,2.4,2.4,0,0,1-.135-1.194c.059-1.332.073-2.669.028-4a10.45,10.45,0,0,0-1.676-5.462A28.7,28.7,0,0,0,62.6,96.952c-.095-.114-.2-.281-.386-.189s-.1.285-.09.423c.2,2.345.078,4.694.095,7.041.026,3.553.022,7.105.027,10.658a1.718,1.718,0,0,1-1.4,1.919c-.915.3-1.441-.255-1.934-.879a5.563,5.563,0,0,1-.2-2.127q0-13.3-.014-26.6c0-1.292-.008-1.292-1.324-1.125a.365.365,0,0,0-.328.038,11.956,11.956,0,0,1-1.608-.086c-.755-.138-.757-.174-.757.584q0,14.919,0,29.837c0,.47.025.939.037,1.408a9.4,9.4,0,0,1-.146,1.57,1.935,1.935,0,0,1-1.947,1.229,1.81,1.81,0,0,1-1.453-1.769q0-16.862,0-33.724a.77.77,0,0,0-.494-.816c-1.058-.511-2.1-1.063-3.127-1.625-.386-.21-.472-.1-.468.289.014,1.2.037,2.394.008,3.59a24,24,0,0,1-.393,3.432,30.075,30.075,0,0,1-.637,3.168,22.083,22.083,0,0,1-5.461,9.762,18.616,18.616,0,0,0-3.656,4.955,13.181,13.181,0,0,0-1.224,6.1c.028,1.569.011,3.139.044,4.708a1.788,1.788,0,0,1-3.522.565c-.043-.171-.076-.344-.113-.516.011-.175.034-.351.032-.525-.023-1.678-.008-3.358,0-5.035a16.141,16.141,0,0,1,.514-3.479,16.951,16.951,0,0,1,2.365-5.473,31.76,31.76,0,0,1,3.178-3.753,20.017,20.017,0,0,0,4.175-7.285A22.952,22.952,0,0,0,43.47,88.1c.194-2.351.037-4.708.1-7.062a.591.591,0,0,0-.312-.586c-1.13-.631-2.286-1.215-3.385-1.9-.3-.187-.47-.06-.437.313.043.486.086.974.088,1.461.009,2,0,4,0,6.005a17.649,17.649,0,0,1-.415,3.65A16.7,16.7,0,0,1,35.5,97.358c-.95,1.126-2.039,2.129-2.931,3.305a20.53,20.53,0,0,0-4.25,10.522,64,64,0,0,0-.111,7.579A2.009,2.009,0,0,1,27,120.533a1.778,1.778,0,0,1-2.415-1.59c-.069-2.117-.073-4.24.007-6.356a9.806,9.806,0,0,1,.309-2.338.673.673,0,0,0-.06-.557,11.729,11.729,0,0,0-2.266,2.538,11.454,11.454,0,0,0-2.026,6.619,1.7,1.7,0,0,1-1.727,1.812A1.929,1.929,0,0,1,17,118.879a14.781,14.781,0,0,1,.563-4.021,15.139,15.139,0,0,1,3.935-6.8c1.6-1.623,3.18-3.267,4.876-4.794a8.859,8.859,0,0,0,1.807-2.229,22.292,22.292,0,0,1,3-4.065,20.193,20.193,0,0,0,3.377-4.465,10.811,10.811,0,0,0,1.222-4.033c.305-3.932.043-7.871.122-11.806a3.717,3.717,0,0,1,.092-1.035,1.232,1.232,0,0,0-.351-1.058,17.39,17.39,0,0,1-2.845-5.779c-.046-.171-.012-.488-.281-.514-.2-.019-.3.22-.438.357a14.683,14.683,0,0,0-3.648,6.637,10.253,10.253,0,0,0-.283,3.125,22.835,22.835,0,0,1-.393,5.517,15.4,15.4,0,0,1-3.891,7.79Q20.9,94.83,17.822,97.833c-.911.887-1.833,1.765-2.73,2.667-.8.8-1.55,1.655-2.34,2.467a2,2,0,0,1-1.346.734,1.679,1.679,0,0,1-1.652-1.072,1.511,1.511,0,0,1,.3-1.859c2.458-2.677,5.152-5.121,7.683-7.726.772-.8,1.5-1.653,2.288-2.41a16.005,16.005,0,0,0,2.768-3.3,12.178,12.178,0,0,0,1.768-6.237c.007-1.119.024-2.238,0-3.356a15.116,15.116,0,0,1,1.1-5.463A17.9,17.9,0,0,1,28.022,68a15.934,15.934,0,0,1,2.626-2.891c.423-.36.818-.754,1.212-1.145a1.065,1.065,0,0,0,.317-.836c-.026-.784-.028-1.569-.018-2.354,0-.353-.081-.547-.488-.548A6.729,6.729,0,0,1,28.3,59.191,7.432,7.432,0,0,1,24.888,54.8a6.647,6.647,0,0,1-.325-2.078c.008-1.511-.071-3.026.014-4.531a13.315,13.315,0,0,1,1.867-6.28,16.686,16.686,0,0,1,1.493-2.288,13.7,13.7,0,0,1,3.531-3.18,1.183,1.183,0,0,0,.684-1.3c-.112-1.364-.033-2.744-.034-4.118,0-1,0-1-1-1.01a11.832,11.832,0,0,1-3.695-.347,12.251,12.251,0,0,1-4.486-2.411c-.528-.486-1.1-.918-1.617-1.423a4.782,4.782,0,0,0-2.987-1.278c-5.235-.445-10.483-.077-15.724-.2A4.251,4.251,0,0,1,1.023,24.2,1.746,1.746,0,0,1,0,22.569,1.551,1.551,0,0,1,1,21a3.167,3.167,0,0,1,1.232-.224c4.782,0,9.564-.046,14.345.016A11.2,11.2,0,0,1,24.7,24.149a7.553,7.553,0,0,0,3.851,2.186,18.75,18.75,0,0,0,3.4.089c.215.005.178-.167.177-.3a17.8,17.8,0,0,0-.514-5.73A13.664,13.664,0,0,0,21.6,11.431a11.889,11.889,0,0,0-2.528-.289c-2.538-.037-5.077-.026-7.615-.012a1.863,1.863,0,0,1-1.842-1.04A1.684,1.684,0,0,1,10.4,7.825a3.828,3.828,0,0,1,1.463-.251c.608.023,1.219-.013,1.829-.024,2.016.137,4.035-.033,6.057.122a18.022,18.022,0,0,1,4.8.964,16.8,16.8,0,0,1,11.108,14.6c.252,3.484.061,6.983.084,10.476.005.793.071.857.864.672a17.659,17.659,0,0,1,2.7-.4c.4-.03.483-.147.481-.515-.014-2.786-.009-5.573-.01-8.359a.321.321,0,0,0,0-.539,27.837,27.837,0,0,0-.451-4.438,20.285,20.285,0,0,0-4.636-9.339,20.156,20.156,0,0,0-9.847-6.317,22.739,22.739,0,0,0-4.6-.8,5.8,5.8,0,0,1-2.4-.36,1.978,1.978,0,0,1-.766-1.969A2.038,2.038,0,0,1,19.426.084a1.366,1.366,0,0,0,.394.077,21.526,21.526,0,0,1,6.566,1.154A21.2,21.2,0,0,1,33.577,5a24.465,24.465,0,0,1,8.489,12.011A23.049,23.049,0,0,1,43.1,21.425a25.9,25.9,0,0,1,.213,4.318c-.005.11-.09.207.044.291.1.061.154.036.239-.05a10.719,10.719,0,0,1,3.294-2.2.625.625,0,0,0,.465-.668c-.012-6.338.018-12.677-.047-19.015-.008-.75.077-1.492.048-2.239C47.314.7,48.069.245,49.031.054c.619-.122,1.551.635,1.744,1.36a4.943,4.943,0,0,1,.1,1.284q0,9.743.006,19.486c0,.738,0,.7.725.55a6.079,6.079,0,0,1,1.837.1,5.742,5.742,0,0,1,.962.158c.353.1.629-.01.573-.519-.067-.6-.034-1.215-.043-1.822a.389.389,0,0,0-.124-.316c.1.032.133-.036.138-.114.006-.094,0-.194-.138-.181M47.247,41.5c.078.011.091-.03.076-.093a3.677,3.677,0,0,0-3.633-3.772,26.606,26.606,0,0,0-6.442.217,11.222,11.222,0,0,0-8.98,9.619,28.691,28.691,0,0,0-.042,5.821,3.745,3.745,0,0,0,3.554,3.4c.185.007.423.079.416-.247a.548.548,0,0,0-.032-.428c0-.177-.006-.355-.009-.532a2.1,2.1,0,0,0,.009-.979l.033-1.594.008-.194a12.624,12.624,0,0,1,.25-2.314,11.528,11.528,0,0,1,1.852-4.092,1.755,1.755,0,0,1,2.779-.45,1.87,1.87,0,0,1,.029,2.535A6.777,6.777,0,0,0,35.8,51.973c-.042,4.118-.036,8.237-.044,12.356a12.217,12.217,0,0,0,.231,2.687,13.591,13.591,0,0,0,7.153,9.366c3.159,1.708,6.333,3.387,9.507,5.067a8.439,8.439,0,0,0,3.925,1.07,7.9,7.9,0,0,0,4.266-1.2,4.709,4.709,0,0,0,1.392-1.116A7.483,7.483,0,0,0,64.357,75q.011-11.182-.009-22.364a7.231,7.231,0,0,0-1.321-4.209,7.645,7.645,0,0,0-3.639-2.755.537.537,0,0,0-.557.011c-.13.12.015.3.095.421a9.379,9.379,0,0,1,1.445,5.3c0,.074,0,.148,0,.223s0,.165,0,.248,0,.148,0,.223,0,.165,0,.248v.223c0,.083,0,.165,0,.248v.223c0,.082,0,.165,0,.248v8.48c0,.075,0,.149,0,.223v.942c0,.083,0,.165,0,.248s0,.149,0,.223,0,.165,0,.248,0,.149,0,.223c-.018.175-.023.353-.056.525a1.83,1.83,0,0,1-1.734,1.474,1.789,1.789,0,0,1-1.661-1.321,3.692,3.692,0,0,1-.127-1.036c.006-4.136.019-8.273-.008-12.409a5.533,5.533,0,0,0-.814-3.18,5.849,5.849,0,0,0-4.916-2.774c-2.377-.049-4.756-.015-7.134-.032A1.976,1.976,0,0,1,41.666,43.5a1.791,1.791,0,0,1,1.9-1.9c1.071-.049,2.145-.034,3.218-.046.036.051.07.044.1,0l.214-.014c.048.047.088.046.12-.017Zm7.2-10.479a10.757,10.757,0,0,1,4.09-.719c.159.011.388.1.477-.085.1-.215-.043-.4-.186-.578a8.7,8.7,0,0,0-15.482,3.946c-.054.277.036.478.351.475a8.065,8.065,0,0,1,3.273.86,11.119,11.119,0,0,1,1.1.78c.554.5.582.509,1-.122a13.617,13.617,0,0,1,1.891-2.291,13.7,13.7,0,0,1,3.486-2.266" transform="translate(0 0)" fill="#060707"/>
        <path id="Trazado_820943" data-name="Trazado 820943" d="M122.861,66.594a1.886,1.886,0,0,0-1.978-1.786c-1.8-.04-3.611-.072-5.414-.021a3.689,3.689,0,0,0-3.722,3.426c-.045.348-.227.421-.527.352l-.017-.037-.021.033c-.983-.005-1.966-.019-2.949-.011-.36,0-.552-.088-.527-.5a7.514,7.514,0,0,1,1.419-4.1,7.753,7.753,0,0,1,6.758-3.186c3.6.02,7.2.011,10.795.006a14.749,14.749,0,0,0,5.689-.91,14.117,14.117,0,0,0,3.944-2.406c1.4-1.219,2.65-2.587,4-3.854a7.882,7.882,0,0,1,4.486-2.087c3.384-.426,6.786-.106,10.178-.2.068.08.132.079.191-.01l.867-.193c.592.268.851.849,1.192,1.331a15.612,15.612,0,0,1,1.993,2.8c-.234.017-.469.05-.7.05-3.775,0-7.549.015-11.323,0a6.162,6.162,0,0,0-4.7,1.887c-.94.976-1.91,1.927-2.9,2.856a16.6,16.6,0,0,1-10.486,4.662,2.377,2.377,0,0,0-2,.924,2.408,2.408,0,0,0-.283.85c-1.037-.051-2.077.069-3.116-.073a2.571,2.571,0,0,0-.85.186" transform="translate(-56.824 -26.969)" fill="#eb8295"/>
        <path id="Trazado_820944" data-name="Trazado 820944" d="M148.182,71.1a2.409,2.409,0,0,1,.283-.85,2.381,2.381,0,0,1,2-.924,16.594,16.594,0,0,0,10.486-4.662c.987-.929,1.957-1.879,2.9-2.855a6.166,6.166,0,0,1,4.7-1.887c3.774.013,7.548,0,11.322,0,.234,0,.469-.033.7-.05a11.926,11.926,0,0,1,2.31.253,1.815,1.815,0,0,1,1.082,1.687,1.744,1.744,0,0,1-1.448,1.626c-1.408.169-2.822.033-4.232.081-.2.007-.435-.094-.608.1l-.011-.046-.009.047a11.917,11.917,0,0,0-2.579-.091,13.885,13.885,0,0,0,4.292,3.509,7.977,7.977,0,0,0,1.445.3c1.772.415,3.559-.035,5.323.193a1.825,1.825,0,0,1,1.625,1.747,1.9,1.9,0,0,1-1.825,1.776c-1.511.058-3.028.074-4.539.018a11.233,11.233,0,0,1-3.285-.842,10.26,10.26,0,0,1-4.055-2.765c-1.159-1.225-2.384-2.389-3.569-3.59a1.038,1.038,0,0,0-.933-.368,3.141,3.141,0,0,1-.883-.008,2.784,2.784,0,0,0-2.6,1.02,23.408,23.408,0,0,1-2.083,2.081,37.148,37.148,0,0,1-4.029,3.155c-.762.473-1.582.857-2.343,1.335a8.877,8.877,0,0,1-2.273.821,18.314,18.314,0,0,1-3.094.755c-.725.073-1.441.247-2.167.294a1.987,1.987,0,0,1-1.9-1.862" transform="translate(-78.179 -31.585)" fill="#060707"/>
        <path id="Trazado_820945" data-name="Trazado 820945" d="M33.125,7.008a5.8,5.8,0,0,0,2.4.36,22.706,22.706,0,0,1,4.6.8,20.16,20.16,0,0,1,9.847,6.317A20.289,20.289,0,0,1,54.6,23.828a27.837,27.837,0,0,1,.451,4.438.407.407,0,0,0,0,.539c0,2.786,0,5.573.009,8.359,0,.368-.078.485-.481.515a17.659,17.659,0,0,0-2.7.4c-.793.185-.859.121-.864-.673-.022-3.492.169-6.991-.083-10.476a16.807,16.807,0,0,0-11.108-14.6,18.066,18.066,0,0,0-4.8-.964c-2.021-.155-4.041.014-6.056-.122,0-.962.8-1.384,1.375-1.927A16.548,16.548,0,0,0,31.959,7.7a1.52,1.52,0,0,1,1.166-.694" transform="translate(-15.287 -3.697)" fill="#0098d1"/>
        <path id="Trazado_820946" data-name="Trazado 820946" d="M59.648,206.386a64.1,64.1,0,0,1,.111-7.579,20.528,20.528,0,0,1,4.25-10.522c.892-1.176,1.981-2.18,2.932-3.305a16.7,16.7,0,0,0,3.61-7.383,17.617,17.617,0,0,0,.415-3.65c0-2,.008-4,0-6.005,0-.487-.045-.975-.088-1.461-.033-.374.138-.5.437-.313,1.1.688,2.255,1.272,3.385,1.9a.591.591,0,0,1,.312.586c-.063,2.354.094,4.71-.1,7.062a22.977,22.977,0,0,1-1.084,5.121,20.013,20.013,0,0,1-4.175,7.284,31.772,31.772,0,0,0-3.178,3.754,16.956,16.956,0,0,0-2.365,5.473,16.163,16.163,0,0,0-.514,3.479c-.005,1.677-.02,3.357,0,5.035,0,.175-.021.35-.032.525a21.259,21.259,0,0,1-3.23.121,1.2,1.2,0,0,1-.685-.125" transform="translate(-31.439 -87.622)" fill="#0098d1"/>
        <path id="Trazado_820947" data-name="Trazado 820947" d="M115.774,213.829c-.013-.469-.037-.939-.037-1.408q0-14.919,0-29.837c0-.758,0-.723.757-.584a11.95,11.95,0,0,0,1.608.086.287.287,0,0,0,.329-.038c1.316-.167,1.323-.167,1.324,1.125q.013,13.3.014,26.6a5.563,5.563,0,0,0,.2,2.127,1.937,1.937,0,0,0-.807.293,25.958,25.958,0,0,1-3.385,1.634" transform="translate(-61.06 -95.979)" fill="#eb8295"/>
        <path id="Trazado_820948" data-name="Trazado 820948" d="M116.026,42.421c.141-.013.144.087.138.181,0,.078-.035.146-.138.114,0-.1,0-.2,0-.295" transform="translate(-61.214 -22.38)" fill="#df2d45"/>
        <path id="Trazado_820949" data-name="Trazado 820949" d="M210.573,67.758l.009-.047.011.047-.01.031Z" transform="translate(-111.095 -35.723)" fill="#df2d45"/>
        <path id="Trazado_820950" data-name="Trazado 820950" d="M104.678,112.225c0-.082,0-.165,0-.248.094-.075.092-.149,0-.223,0-.083,0-.166,0-.248.094-.074.093-.149,0-.223v-.248c.094-.074.094-.149,0-.224,0-.083,0-.165,0-.248.094-.074.093-.148,0-.223v-.248c.094-.075.093-.149,0-.224v-.247c.094-.075.093-.15,0-.224v-.248c.094-.074.093-.149,0-.223v-.248c.094-.074.093-.149,0-.223v-.248c.094-.075.093-.15,0-.224v-.248c.094-.074.093-.149,0-.224v-.247c.094-.075.093-.149,0-.223V106.8c.094-.075.093-.149,0-.223v-.248c.094-.075.093-.15,0-.224v-.248c.094-.074.093-.149,0-.224v-.248c.094-.074.093-.148,0-.223v-.248c.094-.075.093-.149,0-.224v-.248c.094-.074.093-.149,0-.223v-.248c.094-.075.093-.149,0-.224V103.5c.094-.074.093-.149,0-.223v-.248c.094-.075.093-.15,0-.224v-.248c.094-.074.093-.149,0-.224v-.247c.094-.075.093-.149,0-.223v-.248c.094-.075.093-.149,0-.223v-.248c.094-.074.094-.149,0-.223,0-.083,0-.165,0-.248.095-.075.094-.149,0-.223,0-.083,0-.166,0-.248.1-.075.094-.149,0-.223a9.381,9.381,0,0,0-1.446-5.3c-.08-.122-.224-.3-.095-.42a.536.536,0,0,1,.557-.011A7.644,7.644,0,0,1,107.331,97a7.235,7.235,0,0,1,1.321,4.209q.036,11.182.009,22.364a7.479,7.479,0,0,1-2.132,5.206,4.7,4.7,0,0,1-1.392,1.116c-.283-.292-.718-.3-1.026-.526a22.822,22.822,0,0,0-2.663-1.484c-1.764-.94-3.541-1.858-5.311-2.787-2.064-1.084-4.132-2.158-6.187-3.258a11.261,11.261,0,0,1-3.957-3.071,9.589,9.589,0,0,1-2.02-5.876c.017-6.707.007-13.416.008-20.123a10.548,10.548,0,0,1,1.989-.7A1.976,1.976,0,0,0,88.227,93.7c2.378.017,4.757-.017,7.134.032a5.85,5.85,0,0,1,4.915,2.774,5.532,5.532,0,0,1,.814,3.179c.027,4.136.015,8.273.009,12.409a3.7,3.7,0,0,0,.127,1.036,1.788,1.788,0,0,0,1.661,1.321,1.829,1.829,0,0,0,1.733-1.474c.033-.172.038-.35.056-.525.1-.073.094-.148,0-.223m-3.593,8.819a6.006,6.006,0,0,0,.148,1.568,1.8,1.8,0,0,0,1.726,1.265,1.668,1.668,0,0,0,1.585-1.44,8.593,8.593,0,0,0,.1-2.035,1.854,1.854,0,0,0-1.3-1.819,1.756,1.756,0,0,0-2.186,1.3,5.3,5.3,0,0,0-.079,1.162" transform="translate(-44.303 -48.574)" fill="#e24768"/>
        <path id="Trazado_820951" data-name="Trazado 820951" d="M79.6,93.553c0,6.708.01,13.416-.008,20.124a9.591,9.591,0,0,0,2.019,5.875,11.256,11.256,0,0,0,3.957,3.071c2.055,1.1,4.123,2.175,6.187,3.259,1.771.929,3.547,1.846,5.312,2.787a22.859,22.859,0,0,1,2.663,1.484c.308.222.742.234,1.026.526a7.9,7.9,0,0,1-4.266,1.2,8.439,8.439,0,0,1-3.925-1.07c-3.174-1.68-6.348-3.359-9.507-5.067a13.593,13.593,0,0,1-7.153-9.366,12.249,12.249,0,0,1-.231-2.687c.008-4.118,0-8.237.044-12.356a6.785,6.785,0,0,1,1.319-3.581,1.87,1.87,0,0,0-.029-2.535c.117-.1.227-.218.351-.312a5.749,5.749,0,0,1,2.241-1.35" transform="translate(-39.926 -49.357)" fill="#df2d45"/>
        <path id="Trazado_820952" data-name="Trazado 820952" d="M71.057,86.126a5.749,5.749,0,0,0-2.241,1.35c-.124.094-.234.208-.351.312a1.755,1.755,0,0,0-2.779.449,11.534,11.534,0,0,0-1.852,4.092,12.577,12.577,0,0,0-.25,2.314c-.093.06-.1.125-.009.194q-.017.8-.034,1.594a2.034,2.034,0,0,0-.008.98c0,.177.006.355.009.531a.345.345,0,0,0,.031.429c.007.325-.231.253-.416.247a3.745,3.745,0,0,1-3.554-3.4,28.657,28.657,0,0,1,.043-5.821,11.221,11.221,0,0,1,8.979-9.619,26.606,26.606,0,0,1,6.442-.217A3.676,3.676,0,0,1,78.7,83.338l-.076.094-.023.008-.121.017-.214.014-.1,0c-1.072.013-2.147,0-3.218.046a1.79,1.79,0,0,0-1.9,1.9,10.521,10.521,0,0,0-1.988.7" transform="translate(-31.379 -41.93)" fill="#eb8295"/>
        <path id="Trazado_820953" data-name="Trazado 820953" d="M95.369,64.265A8.06,8.06,0,0,0,92.1,63.4c-.315,0-.4-.2-.35-.474a8.7,8.7,0,0,1,15.482-3.946c.143.177.289.363.186.578-.089.185-.318.1-.477.085a10.75,10.75,0,0,0-4.09.719c-.067-.548-.56-.472-.9-.593A4.744,4.744,0,0,0,95.715,63.5c-.036.261-.01.611-.345.764" transform="translate(-48.396 -29.344)" fill="#eb8295"/>
        <path id="Trazado_820954" data-name="Trazado 820954" d="M99.433,68.612c.335-.154.309-.5.345-.764a4.744,4.744,0,0,1,6.229-3.728c.342.121.835.045.9.593a11.754,11.754,0,0,0-5.377,4.556c-.42.632-.447.621-1,.122a11.051,11.051,0,0,0-1.1-.779" transform="translate(-52.459 -33.691)" fill="#e24768"/>
        <path id="Trazado_820955" data-name="Trazado 820955" d="M84.069,52.545a.407.407,0,0,1,0-.539.321.321,0,0,1,0,.539" transform="translate(-44.299 -27.438)" fill="#eb8295"/>
        <path id="Trazado_820956" data-name="Trazado 820956" d="M68,116.347a2.028,2.028,0,0,1,.009-.98,2.12,2.12,0,0,1-.009.98" transform="translate(-35.848 -60.866)" fill="#df2d45"/>
        <path id="Trazado_820957" data-name="Trazado 820957" d="M68.05,118.994a.345.345,0,0,1-.031-.428.546.546,0,0,1,.031.428" transform="translate(-35.854 -62.554)" fill="#df2d45"/>
        <path id="Trazado_820958" data-name="Trazado 820958" d="M121.068,182.167a.287.287,0,0,1-.328.038.365.365,0,0,1,.328-.038" transform="translate(-63.701 -96.097)" fill="#df2d45"/>
        <path id="Trazado_820959" data-name="Trazado 820959" d="M127.8,119.778c.093.075.094.149,0,.223v-.223" transform="translate(-67.426 -63.193)" fill="#df2d45"/>
        <path id="Trazado_820960" data-name="Trazado 820960" d="M127.8,134.738c.093.075.094.149,0,.223,0-.074,0-.149,0-.223" transform="translate(-67.424 -71.086)" fill="#df2d45"/>
        <path id="Trazado_820961" data-name="Trazado 820961" d="M68.08,111.776c-.1-.069-.085-.133.009-.194l-.009.194" transform="translate(-35.883 -58.869)" fill="#df2d45"/>
        <path id="Trazado_820962" data-name="Trazado 820962" d="M127.8,111.8c.094.074.094.149,0,.223,0-.075,0-.149,0-.223" transform="translate(-67.425 -58.984)" fill="#df2d45"/>
        <path id="Trazado_820963" data-name="Trazado 820963" d="M127.8,112.8c.093.075.094.149,0,.223V112.8" transform="translate(-67.426 -59.51)" fill="#df2d45"/>
        <path id="Trazado_820964" data-name="Trazado 820964" d="M127.8,113.795c.093.075.094.149,0,.223v-.223" transform="translate(-67.426 -60.037)" fill="#df2d45"/>
        <path id="Trazado_820965" data-name="Trazado 820965" d="M127.8,114.792c.093.075.094.149,0,.223v-.223" transform="translate(-67.426 -60.563)" fill="#df2d45"/>
        <path id="Trazado_820966" data-name="Trazado 820966" d="M127.8,109.806c.094.074.1.149,0,.223,0-.074,0-.149,0-.223" transform="translate(-67.424 -57.932)" fill="#df2d45"/>
        <path id="Trazado_820967" data-name="Trazado 820967" d="M127.8,115.789c.093.075.094.149,0,.223v-.223" transform="translate(-67.426 -61.089)" fill="#df2d45"/>
        <path id="Trazado_820968" data-name="Trazado 820968" d="M127.8,116.786c.093.075.094.149,0,.224v-.224" transform="translate(-67.426 -61.615)" fill="#df2d45"/>
        <path id="Trazado_820969" data-name="Trazado 820969" d="M127.8,117.784c.093.075.094.149,0,.223v-.223" transform="translate(-67.426 -62.141)" fill="#df2d45"/>
        <path id="Trazado_820970" data-name="Trazado 820970" d="M127.793,108.809c.1.074.1.148,0,.223,0-.074,0-.148,0-.223" transform="translate(-67.422 -57.406)" fill="#df2d45"/>
        <path id="Trazado_820971" data-name="Trazado 820971" d="M127.8,118.781c.093.075.094.149,0,.223v-.223" transform="translate(-67.426 -62.667)" fill="#df2d45"/>
        <path id="Trazado_820972" data-name="Trazado 820972" d="M207.954,51.525c-.059.089-.123.09-.191.01l.191-.01" transform="translate(-109.613 -27.184)" fill="#df2d45"/>
        <path id="Trazado_820973" data-name="Trazado 820973" d="M127.8,120.776c.093.075.094.149,0,.223v-.223" transform="translate(-67.426 -63.72)" fill="#df2d45"/>
        <path id="Trazado_820974" data-name="Trazado 820974" d="M127.8,121.773c.093.075.094.149,0,.223v-.223" transform="translate(-67.426 -64.246)" fill="#df2d45"/>
        <path id="Trazado_820975" data-name="Trazado 820975" d="M127.8,122.77c.093.075.094.149,0,.223v-.223" transform="translate(-67.426 -64.772)" fill="#df2d45"/>
        <path id="Trazado_820976" data-name="Trazado 820976" d="M127.8,123.768c.093.075.094.149,0,.223v-.223" transform="translate(-67.426 -65.298)" fill="#df2d45"/>
        <path id="Trazado_820977" data-name="Trazado 820977" d="M127.8,124.765c.093.075.094.149,0,.223v-.223" transform="translate(-67.426 -65.824)" fill="#df2d45"/>
        <path id="Trazado_820978" data-name="Trazado 820978" d="M127.8,125.762c.093.075.094.149,0,.223v-.223" transform="translate(-67.426 -66.35)" fill="#df2d45"/>
        <path id="Trazado_820979" data-name="Trazado 820979" d="M127.8,126.759c.093.075.094.149,0,.223v-.223" transform="translate(-67.426 -66.876)" fill="#df2d45"/>
        <path id="Trazado_820980" data-name="Trazado 820980" d="M127.8,127.757c.093.075.094.149,0,.223v-.223" transform="translate(-67.426 -67.403)" fill="#df2d45"/>
        <path id="Trazado_820981" data-name="Trazado 820981" d="M127.8,128.754c.093.075.094.149,0,.224v-.224" transform="translate(-67.426 -67.929)" fill="#df2d45"/>
        <path id="Trazado_820982" data-name="Trazado 820982" d="M127.8,129.751c.093.075.094.149,0,.224v-.224" transform="translate(-67.426 -68.455)" fill="#df2d45"/>
        <path id="Trazado_820983" data-name="Trazado 820983" d="M127.8,130.748c.093.075.094.149,0,.224v-.224" transform="translate(-67.426 -68.981)" fill="#df2d45"/>
        <path id="Trazado_820984" data-name="Trazado 820984" d="M127.8,131.745c.093.075.094.149,0,.224v-.224" transform="translate(-67.425 -69.507)" fill="#df2d45"/>
        <path id="Trazado_820985" data-name="Trazado 820985" d="M127.8,132.743c.093.074.094.149,0,.223,0-.075,0-.149,0-.223" transform="translate(-67.425 -70.033)" fill="#df2d45"/>
        <path id="Trazado_820986" data-name="Trazado 820986" d="M127.8,133.741c.093.074.094.148,0,.223,0-.074,0-.149,0-.223" transform="translate(-67.426 -70.56)" fill="#df2d45"/>
        <path id="Trazado_820987" data-name="Trazado 820987" d="M127.8,110.8c.094.075.095.149,0,.223V110.8" transform="translate(-67.425 -58.458)" fill="#df2d45"/>
        <path id="Trazado_820988" data-name="Trazado 820988" d="M115.067,88.005l.021-.033.017.037-.037,0" transform="translate(-60.708 -46.413)" fill="#df2d45"/>
        <path id="Trazado_820989" data-name="Trazado 820989" d="M99.709,87.883l.12-.017c-.032.063-.073.064-.12.017" transform="translate(-52.605 -46.357)" fill="#df2d45"/>
        <path id="Trazado_820990" data-name="Trazado 820990" d="M99.038,87.934l.1,0c-.033.048-.067.055-.1,0" transform="translate(-52.251 -46.391)" fill="#df2d45"/>
        <path id="Trazado_820991" data-name="Trazado 820991" d="M100.012,87.745l.075-.094c.015.063,0,.1-.075.094" transform="translate(-52.765 -46.243)" fill="#df2d45"/>
        <path id="Trazado_820992" data-name="Trazado 820992" d="M120.2,150.61a5.3,5.3,0,0,1,.079-1.162,1.756,1.756,0,0,1,2.186-1.3,1.854,1.854,0,0,1,1.3,1.819,8.593,8.593,0,0,1-.1,2.035,1.668,1.668,0,0,1-1.585,1.44,1.8,1.8,0,0,1-1.726-1.265,6,6,0,0,1-.148-1.568" transform="translate(-63.414 -78.139)" fill="#060707"/>
      </g>
    </g>
  </g>
</svg>
