<svg xmlns="http://www.w3.org/2000/svg" xmlns:xlink="http://www.w3.org/1999/xlink" width="169" height="169" viewBox="0 0 169 169">
  <defs>
    <clipPath id="clip-path">
      <rect id="Rect치ngulo_377607" data-name="Rect치ngulo 377607" width="117.945" height="117.063" fill="none"/>
    </clipPath>
  </defs>
  <g id="Grupo_1073338" data-name="Grupo 1073338" transform="translate(-385.5 -2057.999)">
    <g id="Grupo_159182" data-name="Grupo 159182" transform="translate(385.5 2057.999)">
      <path id="Uni칩n_12" data-name="Uni칩n 12" d="M84.5,0A84.5,84.5,0,1,1,0,84.5,84.5,84.5,0,0,1,84.5,0Z" transform="translate(0 0)" fill="#ffae7e"/>
    </g>
    <g id="Grupo_1073330" data-name="Grupo 1073330" transform="translate(408.501 2079)">
      <g id="Grupo_1073340" data-name="Grupo 1073340" transform="translate(4.223 6.666)">
        <g id="Grupo_1073339" data-name="Grupo 1073339" clip-path="url(#clip-path)">
          <path id="Trazado_820993" data-name="Trazado 820993" d="M49.759,22.483c1.269.151,1.668.68,1.693,2.151.053,3.135.022,6.271,0,9.407a.792.792,0,0,0,.55.881c.826.368,1.592.87,2.494,1.378V35.182c0-2.655-.059-5.311.006-7.964a8.989,8.989,0,0,1,2.83-6.569,8.829,8.829,0,0,1,4.734-2.225,14.336,14.336,0,0,1,2.891.063c1.4.066,2.731.574,4.134.6.236,0,.46.229.705.3a33.77,33.77,0,0,1,4.208,1.547c.961.419,1.76,1.066,2.666,1.55A15.142,15.142,0,0,1,79.2,24.434,29.265,29.265,0,0,1,85.515,32.3c.787,1.353,1.45,2.771,2.111,4.191.528,1.136.895,2.328,1.345,3.491a60.6,60.6,0,0,1,2.416,8.589,14.807,14.807,0,0,1,.52,2.833.694.694,0,0,0,.579.664c1.078.281,2.161.561,3.212.927a33.066,33.066,0,0,1,20.317,20.158,31.161,31.161,0,0,1,1.474,5.865,28.545,28.545,0,0,1,.446,5.211,36.536,36.536,0,0,1-1.028,7.72,32.97,32.97,0,0,1-2.76,7.331,34.676,34.676,0,0,1-3.457,5.288,31.994,31.994,0,0,1-2.768,3.082,32.442,32.442,0,0,1-5.913,4.61,33.1,33.1,0,0,1-6.958,3.186,34.109,34.109,0,0,1-7.265,1.5,47.309,47.309,0,0,1-5.454.074,23.321,23.321,0,0,1-3.46-.511,30.072,30.072,0,0,1-5.207-1.45,30.709,30.709,0,0,1-4.883-2.282,32.849,32.849,0,0,1-10.313-9.2,33.742,33.742,0,0,1-4.394-8.121,31.056,31.056,0,0,1-1.558-5.806,33.028,33.028,0,0,1-.424-7.922,28.662,28.662,0,0,1,.8-4.995,22.89,22.89,0,0,1,1.34-4.269,5.342,5.342,0,0,0,.28-3.212,10.631,10.631,0,0,1-.017-1.613q0-9.985.01-19.97a.893.893,0,0,0-.54-.931c-1.306-.7-2.6-1.427-3.857-2.2a6.236,6.236,0,0,0-4.082-1.153,4.579,4.579,0,0,0-1.745.632c-1.683.971-3.368,1.939-5.084,2.848a.606.606,0,0,0-.323.652q-.006,4.732-.008,9.464c-.006,4.155.068,8.312-.043,12.464a15.693,15.693,0,0,1-4.524,10.682A16.2,16.2,0,0,1,22.825,85.2,21.785,21.785,0,0,0,14,87.081a21.571,21.571,0,0,0-4.7,3.073,5.72,5.72,0,0,1-4.056,1.622,5.024,5.024,0,0,1-4.228-2.636,6.527,6.527,0,0,1-.775-3.032c-.43-6.328-.136-12.665-.231-19a44.3,44.3,0,0,1,.142-4.818c.159-1.673.309-3.35.534-5.019.182-1.341.371-2.679.59-4.015q.351-2.143.788-4.27c.371-1.814.781-3.616,1.3-5.395a61.005,61.005,0,0,1,2-5.927,45.34,45.34,0,0,1,3.663-7.049,31.1,31.1,0,0,1,3.25-4.262,23.479,23.479,0,0,1,7.931-5.795,24.63,24.63,0,0,1,6.076-1.771,22.351,22.351,0,0,1,4.42-.314,8.292,8.292,0,0,1,7.342,4.89,9.686,9.686,0,0,1,.806,4.047c.025,2.674.02,5.348.077,8.02.005.264-.4.606.017.785.3.127.543-.212.8-.343.676-.339,1.319-.743,1.989-1.094a.459.459,0,0,0,.29-.494c-.015-.249,0-.5,0-.75,0-9.543.022-19.085-.019-28.627A4.912,4.912,0,0,1,45.447.178,4.6,4.6,0,0,1,49.364.8a5.309,5.309,0,0,1,2.1,4.546c-.007,3.29.024,6.579.008,9.869a6.689,6.689,0,0,1-.126,1.294,1.776,1.776,0,0,1-1.523,1.309A2.075,2.075,0,0,1,48,15.559c.062-3.443.021-6.887.025-10.33a2.241,2.241,0,0,0-.142-.958,1.214,1.214,0,0,0-1.154-.808,1.178,1.178,0,0,0-1.1.795,1.954,1.954,0,0,0-.143.846c.009.58-.007,1.161-.006,1.74q.035,11.572.015,23.143c0,1.558.038,3.118-.021,4.674a2.641,2.641,0,0,1-1.072,2.4c-2.085,1.327-4.29,2.442-6.417,3.694-2.7,1.587-5.448,3.082-8.171,4.624a3.264,3.264,0,0,1-3.035.478c-1.843-.807-3.652-1.692-5.5-2.5a39.151,39.151,0,0,0-4.811-2.04,1.187,1.187,0,0,0-.972,2.166,14.367,14.367,0,0,0,1.3.62c1.235.575,2.489,1.109,3.692,1.752a2.767,2.767,0,0,1,.25,4.505c-.333.227-.669.453-1.02.65-2.025,1.14-4.057,2.268-6.082,3.408a3.4,3.4,0,0,0-.7.5,1.076,1.076,0,0,0-.257,1.5,1.284,1.284,0,0,0,1.6.547,6.533,6.533,0,0,0,.826-.408q10.253-5.755,20.5-11.514c1.653-.927,3.3-1.874,4.978-2.747a20.456,20.456,0,0,1,3.976-2.063,7.534,7.534,0,0,1,5.608.559c1.262.653,2.5,1.344,3.733,2.063,2.209,1.289,4.488,2.459,6.723,3.7q5.889,3.281,11.758,6.6a1.062,1.062,0,0,0,.877.178,18.148,18.148,0,0,0,2.363-.872c.092-.048.255-.059.2-.218a.375.375,0,0,0-.189-.2,23.233,23.233,0,0,1-2.713-1.548,2.445,2.445,0,0,1-1.129-1.459A2.74,2.74,0,0,1,73.36,45.7c.741-.363,1.507-.675,2.25-1.034A21.956,21.956,0,0,0,78.2,43.409a1.214,1.214,0,0,0-.692-2.212,2.585,2.585,0,0,0-1.2.323q-4.692,2.122-9.387,4.239a2.813,2.813,0,0,1-2.685-.126c-3.273-1.85-6.562-3.67-9.844-5.5q-2.367-1.322-4.728-2.654a2.991,2.991,0,0,1-1.636-2.808c.011-3.424,0-6.849,0-10.273a1.827,1.827,0,0,1,1.731-1.912M63.495,59.1a8.381,8.381,0,0,0,.87-.624,28.472,28.472,0,0,1,4.048-2.835c.189-.121.531-.157.528-.38,0-.243-.334-.324-.546-.439q-2.507-1.363-5.017-2.722c-1.481-.74-2.871-1.643-4.312-2.453-.307-.173-.624-.608-.938-.425s-.082.675-.082,1.025q-.017,7,0,14c0,.176-.1.437.136.5.172.045.266-.185.372-.318.594-.745,1.141-1.536,1.793-2.227,1.012-1.071,2.1-2.074,3.151-3.105M10.406,52.531A8.605,8.605,0,0,1,11.854,51.5c.905-.5,1.807-1.013,2.712-1.518.871-.486,1.746-.965,2.615-1.455.118-.066.314-.092.268-.307a.231.231,0,0,0-.181-.185c-.761-.256-1.448-.708-2.185-.979a6.555,6.555,0,0,1-3.059-2.288c-.059-.14-.117-.281-.18-.42a4.435,4.435,0,0,1,.183-4.356,5.016,5.016,0,0,1,2.588-2.09,5.712,5.712,0,0,1,3.969.458c1.881.889,3.786,1.729,5.683,2.588.806.365,1.629.694,2.414,1.1a1.817,1.817,0,0,0,2.053-.036c.627-.429,1.314-.772,1.982-1.138,1.4-.768,2.8-1.533,4.215-2.283a.9.9,0,0,0,.538-.912c-.025-1.827.014-3.654-.02-5.48-.039-2.051.133-4.1-.107-6.153a5.128,5.128,0,0,0-4.145-4.1,15.432,15.432,0,0,0-4.286.237,19.741,19.741,0,0,0-10.691,5.11A31.111,31.111,0,0,0,8.336,39.53a62.479,62.479,0,0,0-2.321,7.45c-.552,2.207-.965,4.44-1.357,6.674-.335,1.911-.473,3.855-.729,5.781-.187,1.4-.22,2.819-.35,4.226-.19,2.053-.312,4.11-.322,6.169-.019,4.142-.079,8.285.222,12.423.1,1.408.158,2.82.245,4.229a1.844,1.844,0,0,0,.981,1.7,1.721,1.721,0,0,0,1.957-.276c.876-.653,1.728-1.338,2.589-2.008a34.215,34.215,0,0,1,3.906-2.12,23.92,23.92,0,0,1,9.4-1.943,14.188,14.188,0,0,0,3-.422A12.813,12.813,0,0,0,35.428,69c.1-6.459.029-12.921.043-19.382,0-.5-.172-.51-.545-.3-.994.571-2,1.124-3,1.686q-1.992,1.119-3.982,2.24c-1.187.665-2.377,1.324-3.564,1.989-1.317.738-2.63,1.482-3.948,2.217-1.469.82-2.921,1.672-4.415,2.444a4.673,4.673,0,0,1-6.367-1.865,4.764,4.764,0,0,1,.754-5.5m55-30.512a11.943,11.943,0,0,0-3.821.062,3.41,3.41,0,0,0-1.581.779,5.535,5.535,0,0,0-1.981,4.3c.062,3.517-.006,7.036-.032,10.554a.818.818,0,0,0,.364.8c.858.424,1.661.94,2.5,1.4.763.424,1.57.768,2.291,1.267a15.865,15.865,0,0,1,1.964,1.053,1.137,1.137,0,0,0,1.079.042c1.554-.7,3.12-1.374,4.677-2.069,1.384-.618,2.762-1.25,4.141-1.878a4.813,4.813,0,0,1,5.059.218,5.039,5.039,0,0,1,2.05,4.338,4.785,4.785,0,0,1-2.967,3.871c-.9.391-1.748.88-2.669,1.22-.154.057-.372.1-.374.307,0,.167.207.212.334.283,1.488.84,2.976,1.68,4.475,2.5A1.52,1.52,0,0,0,82,51.356a19.433,19.433,0,0,1,2.558-.195,12.685,12.685,0,0,1,3.188.2c.447.062.711-.147.666-.507-.113-.884-.445-1.716-.581-2.6s-.41-1.758-.629-2.634c-.354-1.407-.85-2.77-1.285-4.152A36.1,36.1,0,0,0,80.97,31.386,22.434,22.434,0,0,0,70.691,23.23a18.866,18.866,0,0,0-5.282-1.212m48.984,60.323a20.983,20.983,0,0,0-.341-3.18A28.042,28.042,0,0,0,109.661,67.9a29.509,29.509,0,0,0-8.975-8.81,29.171,29.171,0,0,0-8.2-3.54,20.776,20.776,0,0,0-5.058-.8,31.588,31.588,0,0,0-4.575-.056c-1.142.145-2.305.192-3.437.408a29.084,29.084,0,0,0-7.733,2.641,28.752,28.752,0,0,0-8.137,6.058,26.615,26.615,0,0,0-4.681,6.493,36.113,36.113,0,0,0-2.228,5.41c-.278.944-.508,1.9-.723,2.852a27.856,27.856,0,0,0-.458,5.147,24.938,24.938,0,0,0,.009,2.5c.049.752.185,1.523.282,2.28a27.273,27.273,0,0,0,1.817,6.7,28.677,28.677,0,0,0,3.281,5.964,30.309,30.309,0,0,0,5.552,5.925,29.45,29.45,0,0,0,8.985,4.986,26.14,26.14,0,0,0,8.394,1.558,33.618,33.618,0,0,0,7-.517,27.834,27.834,0,0,0,11.772-5.261,29.908,29.908,0,0,0,7.641-8.4,33.561,33.561,0,0,0,2.566-5.256,30.892,30.892,0,0,0,1.182-4.475,15.9,15.9,0,0,0,.43-3.117,34.735,34.735,0,0,0,.027-4.242" transform="translate(0 0)" fill="#060607"/>
          <path id="Trazado_820994" data-name="Trazado 820994" d="M64.223,26.5a1.827,1.827,0,0,0-1.731,1.912c0,3.425.012,6.849,0,10.273a2.992,2.992,0,0,0,1.636,2.808q2.363,1.328,4.727,2.654c3.282,1.834,6.572,3.654,9.844,5.5a2.815,2.815,0,0,0,2.685.125q4.7-2.106,9.387-4.239a2.591,2.591,0,0,1,1.2-.324,1.215,1.215,0,0,1,.692,2.212,22.108,22.108,0,0,1-2.588,1.256c-.743.359-1.508.671-2.249,1.034a2.739,2.739,0,0,0-1.554,3.325A2.441,2.441,0,0,0,87.4,54.494a23.189,23.189,0,0,0,2.712,1.548.372.372,0,0,1,.189.2c.051.159-.111.17-.2.218a18.075,18.075,0,0,1-2.363.872,1.066,1.066,0,0,1-.877-.179q-5.875-3.3-11.758-6.6c-2.235-1.246-4.514-2.415-6.723-3.7-1.23-.718-2.47-1.409-3.733-2.062a7.532,7.532,0,0,0-5.608-.559A20.4,20.4,0,0,0,55.06,46.3c-1.682.873-3.326,1.819-4.979,2.746Q39.828,54.8,29.578,60.559a6.628,6.628,0,0,1-.826.408,1.285,1.285,0,0,1-1.6-.547,1.077,1.077,0,0,1,.257-1.5,3.405,3.405,0,0,1,.7-.5c2.025-1.14,4.057-2.268,6.082-3.407.351-.2.687-.423,1.02-.65a2.768,2.768,0,0,0-.249-4.505c-1.2-.643-2.458-1.176-3.693-1.752-.435-.2-.887-.376-1.3-.62a1.187,1.187,0,0,1,.972-2.166,39.159,39.159,0,0,1,4.811,2.041c1.843.807,3.652,1.693,5.5,2.5a3.261,3.261,0,0,0,3.035-.478c2.723-1.542,5.474-3.037,8.171-4.624,2.128-1.252,4.333-2.367,6.418-3.694a2.643,2.643,0,0,0,1.072-2.4c.059-1.556.021-3.116.021-4.674q0-11.571-.015-23.143c0-.58.014-1.161.005-1.74A1.963,1.963,0,0,1,60.1,8.27a1.178,1.178,0,0,1,1.1-.794,1.214,1.214,0,0,1,1.154.807,2.242,2.242,0,0,1,.142.958c0,3.444.037,6.888-.025,10.33a2.075,2.075,0,0,0,1.821,2.264,40.1,40.1,0,0,1-.068,4.66" transform="translate(-14.464 -4.012)" fill="#0096d8"/>
          <path id="Trazado_820995" data-name="Trazado 820995" d="M19.431,115.022a4.672,4.672,0,0,0,6.367,1.865c1.494-.771,2.946-1.623,4.415-2.444,1.318-.736,2.631-1.48,3.948-2.218,1.187-.664,2.377-1.324,3.564-1.989q1.992-1.117,3.982-2.24c1-.562,2-1.116,3-1.686.372-.214.545-.2.544.3-.013,6.461.057,12.923-.042,19.382A12.813,12.813,0,0,1,35.341,138.4a14.219,14.219,0,0,1-3,.422,23.9,23.9,0,0,0-9.4,1.943,34.06,34.06,0,0,0-3.906,2.12,3.1,3.1,0,0,1-.446-1.788c-.152-2.5-.315-5.008-.347-7.514-.039-3.067-.025-6.133.173-9.2.143-2.213.188-4.437.411-6.644.092-.914-.113-1.931.609-2.716" transform="translate(-9.779 -56.987)" fill="#e34348"/>
          <path id="Trazado_820996" data-name="Trazado 820996" d="M178.6,145.6a34.631,34.631,0,0,1-.026,4.242,15.892,15.892,0,0,1-.431,3.117,30.819,30.819,0,0,1-1.182,4.475A33.558,33.558,0,0,1,174.4,162.7a29.9,29.9,0,0,1-7.641,8.4,27.85,27.85,0,0,1-11.772,5.261,33.717,33.717,0,0,1-7,.517,26.141,26.141,0,0,1-8.394-1.558,29.438,29.438,0,0,1-8.985-4.986,30.337,30.337,0,0,1-5.552-5.924,28.7,28.7,0,0,1-3.281-5.964,27.282,27.282,0,0,1-1.816-6.7c-.1-.757-.234-1.528-.282-2.28-.053-.823-.04-1.669-.01-2.5a27.9,27.9,0,0,1,.458-5.147c.215-.951.445-1.908.723-2.852a36.09,36.09,0,0,1,2.228-5.409,26.628,26.628,0,0,1,4.681-6.493A28.755,28.755,0,0,1,135.89,121a29.063,29.063,0,0,1,7.734-2.641c1.131-.216,2.294-.263,3.436-.408a31.453,31.453,0,0,1,4.574.057,20.747,20.747,0,0,1,5.058.8,29.161,29.161,0,0,1,8.2,3.539,29.514,29.514,0,0,1,8.975,8.81,28.052,28.052,0,0,1,4.391,11.266,20.877,20.877,0,0,1,.341,3.18M146.88,173.126a20.529,20.529,0,0,0,3.669.116,2.875,2.875,0,0,0,.9-.082c.083.127.173.251.248.383a1.731,1.731,0,0,0,2.1.989,35.793,35.793,0,0,0,5.238-1.488,27.326,27.326,0,0,0,11.233-8.082,27.047,27.047,0,0,0,4.291-7.066,24.088,24.088,0,0,0,1.263-3.8,41.938,41.938,0,0,0,.825-4.758,24.474,24.474,0,0,0-.381-6.6,26.475,26.475,0,0,0-2.043-6.679,27.667,27.667,0,0,0-8.171-10.361,26.815,26.815,0,0,0-8.875-4.614,30.048,30.048,0,0,0-5.9-1.138,25.738,25.738,0,0,0-6.465.252,27.93,27.93,0,0,0-7.072,2.164,26.853,26.853,0,0,0-11.172,9.352,28.5,28.5,0,0,0-3.8,8.037,28.988,28.988,0,0,0-1.156,7.568,18.151,18.151,0,0,0,.18,2.719,30.2,30.2,0,0,0,.793,4.334A28.726,28.726,0,0,0,125,160.46a27.817,27.817,0,0,0,3.445,4.96,25.886,25.886,0,0,0,8.006,6.354,25.791,25.791,0,0,0,7.6,2.643c1.56.319,2.317.014,2.827-1.291" transform="translate(-64.211 -63.262)" fill="#f6f8fa"/>
          <path id="Trazado_820997" data-name="Trazado 820997" d="M138.565,47.527a18.862,18.862,0,0,1,5.282,1.212,22.432,22.432,0,0,1,10.279,8.155,36.077,36.077,0,0,1,4.946,10.082c.436,1.382.932,2.745,1.285,4.152.221.876.492,1.745.629,2.634s.469,1.714.581,2.6c.045.359-.219.568-.665.506a12.728,12.728,0,0,0-3.188-.2,19.536,19.536,0,0,0-2.558.2,1.521,1.521,0,0,1-1.084-.291c-1.5-.82-2.986-1.66-4.474-2.5-.127-.072-.334-.116-.334-.284,0-.2.22-.25.375-.307.92-.34,1.772-.828,2.669-1.22a4.784,4.784,0,0,0,2.967-3.871,5.037,5.037,0,0,0-2.05-4.338,4.812,4.812,0,0,0-5.059-.218c-1.38.628-2.757,1.26-4.141,1.879-1.557.695-3.123,1.37-4.677,2.069a1.137,1.137,0,0,1-1.079-.043,16.057,16.057,0,0,0-1.964-1.053,17.494,17.494,0,0,0,.111-3.157c.009-3.518.021-7.036-.005-10.554a7.486,7.486,0,0,1,1.006-3.954,8.76,8.76,0,0,1,1.15-1.5" transform="translate(-73.156 -25.508)" fill="#e34348"/>
          <path id="Trazado_820998" data-name="Trazado 820998" d="M13.4,83.734c-.721.785-.517,1.8-.609,2.716-.223,2.207-.268,4.431-.411,6.644-.2,3.07-.212,6.136-.173,9.2.032,2.506.2,5.011.347,7.514A3.1,3.1,0,0,0,13,111.6c-.862.671-1.714,1.356-2.59,2.008a1.72,1.72,0,0,1-1.957.276,1.842,1.842,0,0,1-.98-1.7c-.087-1.409-.142-2.821-.245-4.229-.3-4.137-.242-8.28-.223-12.423.01-2.059.131-4.116.322-6.169.131-1.407.164-2.821.35-4.226.256-1.926.393-3.871.729-5.781.392-2.234.8-4.467,1.356-6.674a62.5,62.5,0,0,1,2.321-7.45,31.119,31.119,0,0,1,7.886-12.237,19.738,19.738,0,0,1,10.69-5.11c-.127.218-.021.531-.33.683-.359.177-.688.415-1.04.607a21.942,21.942,0,0,0-6.363,5.621A28,28,0,0,0,20,59.181c-.587,1.079-1.126,2.185-1.647,3.3-.161.344-.343.754.014,1.122a5.012,5.012,0,0,0-2.588,2.09,4.438,4.438,0,0,0-.183,4.356c.063.139.12.28.18.42-.017.321-.406.362-.473.685-.31,1.5-.694,2.978-.984,4.477a4.981,4.981,0,0,0-.162,2.6,4.765,4.765,0,0,0-.754,5.5" transform="translate(-3.752 -25.7)" fill="#dd3039"/>
          <path id="Trazado_820999" data-name="Trazado 820999" d="M31.306,63.272c-.358-.368-.175-.777-.014-1.122.52-1.112,1.06-2.219,1.647-3.3a28.059,28.059,0,0,1,2.931-4.386,21.951,21.951,0,0,1,6.364-5.621c.353-.192.681-.43,1.04-.607.309-.152.2-.466.33-.684a15.433,15.433,0,0,1,4.286-.237,5.128,5.128,0,0,1,4.145,4.1c.239,2.05.067,4.1.106,6.153.034,1.826,0,3.653.02,5.48a.9.9,0,0,1-.539.912c-1.411.749-2.814,1.515-4.215,2.283-.669.366-1.355.71-1.982,1.138a1.817,1.817,0,0,1-2.052.036c-.785-.4-1.609-.734-2.415-1.1-1.9-.859-3.8-1.7-5.683-2.588a5.71,5.71,0,0,0-3.969-.458" transform="translate(-16.692 -25.372)" fill="#e34348"/>
          <path id="Trazado_821000" data-name="Trazado 821000" d="M132.6,47.384a8.763,8.763,0,0,0-1.15,1.5,7.486,7.486,0,0,0-1.006,3.954c.026,3.518.014,7.036.005,10.554a17.494,17.494,0,0,1-.111,3.157c-.722-.5-1.529-.843-2.292-1.267-.834-.463-1.638-.98-2.5-1.4a.818.818,0,0,1-.364-.8c.026-3.518.094-7.038.032-10.555a5.538,5.538,0,0,1,1.981-4.3,3.415,3.415,0,0,1,1.581-.778,11.927,11.927,0,0,1,3.82-.062" transform="translate(-67.187 -25.366)" fill="#dd3039"/>
          <path id="Trazado_821001" data-name="Trazado 821001" d="M130.64,116.078c-1.054,1.032-2.139,2.034-3.152,3.106-.653.69-1.2,1.482-1.793,2.227-.106.133-.2.362-.372.317-.241-.063-.136-.324-.136-.5q-.008-7,0-14c0-.35-.237-.839.082-1.025s.631.253.938.425c1.442.809,2.831,1.712,4.313,2.453a2.438,2.438,0,0,0-.12.612c.007,1.95.005,3.9,0,5.849,0,.216,0,.427.234.537" transform="translate(-67.146 -56.976)" fill="#dd3039"/>
          <path id="Trazado_821002" data-name="Trazado 821002" d="M22.314,104.393a4.978,4.978,0,0,1,.162-2.6c.29-1.5.673-2.981.984-4.477.067-.322.455-.364.473-.685a6.554,6.554,0,0,0,3.058,2.287c.737.271,1.424.724,2.185.979a.233.233,0,0,1,.181.185c.046.215-.151.241-.268.307-.869.49-1.744.969-2.615,1.455-.9.5-1.806,1.015-2.712,1.518a8.589,8.589,0,0,0-1.448,1.033" transform="translate(-11.908 -51.862)" fill="#e34348"/>
          <path id="Trazado_821003" data-name="Trazado 821003" d="M136.778,119.464c-.237-.11-.234-.321-.234-.537,0-1.95,0-3.9,0-5.849a2.437,2.437,0,0,1,.12-.612q2.509,1.36,5.017,2.721c.212.115.542.2.545.44,0,.223-.339.258-.528.379a28.447,28.447,0,0,0-4.048,2.835,8.379,8.379,0,0,1-.87.624" transform="translate(-73.283 -60.362)" fill="#e34348"/>
          <path id="Trazado_821004" data-name="Trazado 821004" d="M163.184,179.479a2.887,2.887,0,0,1-.9.082c.066-.319-.125-.431-.387-.513-1.049-.328-2.1-.656-3.138-1a.672.672,0,0,0-.542.057,2.633,2.633,0,0,0-.823-.49,11.727,11.727,0,0,0-1.7-.41.447.447,0,0,0-.184-.442,15.653,15.653,0,0,0-1.76-1.072,28.562,28.562,0,0,1-6.184-5.421,33.963,33.963,0,0,1-3.627-5.5,4.1,4.1,0,0,1-.571-1.821l.115.047.1.082a4.465,4.465,0,0,0,7.668-2.627,4.42,4.42,0,0,0-4.287-4.911,4.378,4.378,0,0,0-3.694,1.745,6.52,6.52,0,0,0-.941,2,1.38,1.38,0,0,1-.417-.835c-.127-.772-.229-1.544-.3-2.325a25.461,25.461,0,0,1,.327-6.912,27.1,27.1,0,0,1,1.426-4.956,24.455,24.455,0,0,1,3.007-5.6,26.027,26.027,0,0,1,4.376-4.7,23.243,23.243,0,0,1,4.656-3.028.9.9,0,0,0,.549-.734,21.08,21.08,0,0,1,5.657-.533l.11.059c.588.031,1.182.069,1.765.089a16.156,16.156,0,0,1,4.454.876c8.492,2.761,13.9,8.537,16.362,17.082a16.474,16.474,0,0,1,.585,3.808,37.48,37.48,0,0,1-.063,4.821,19.693,19.693,0,0,1-1.465,5.986c-3.437,8.175-9.452,13.277-18.209,15.024-1.312.262-1.861.829-1.956,2.079m1.412-32.016a8.238,8.238,0,1,0-16.474-.007,8.294,8.294,0,0,0,8.213,8.2,8.161,8.161,0,0,0,8.26-8.189m-4.1,26.235a7.534,7.534,0,0,0,7.534-7.459,7.227,7.227,0,0,0-2.183-5.308c-1.692-1.759-3.894-2.075-6.139-2.324A10.23,10.23,0,0,0,155.259,161a7.509,7.509,0,0,0-2.183,5.041,7.614,7.614,0,0,0,7.416,7.657m11.5-37.514a5.345,5.345,0,0,0-5.4,5.275,5.466,5.466,0,1,0,10.929.234,5.386,5.386,0,0,0-5.525-5.509m2.534,18.064c-.017-3.106-2.111-5.047-5.42-5.022a4.955,4.955,0,0,0,.5,9.894,4.863,4.863,0,0,0,4.921-4.872m.923,8.515a1.62,1.62,0,0,0-2.335-1.576,5.048,5.048,0,0,0-1.9,1.885,1.627,1.627,0,0,0,.244,1.827,1.512,1.512,0,0,0,1.7.517,4.609,4.609,0,0,0,1.934-1.658,1.2,1.2,0,0,0,.353-1" transform="translate(-75.944 -69.582)" fill="#7d1d21"/>
          <path id="Trazado_821005" data-name="Trazado 821005" d="M152.15,125.621a21.082,21.082,0,0,0-5.657.534,14.818,14.818,0,0,0-4.071,1.183,23.906,23.906,0,0,0-11.575,9.91,22.876,22.876,0,0,0-3.384,10.789,23.985,23.985,0,0,0,.361,6.348,25.277,25.277,0,0,0,3,7.619,22.86,22.86,0,0,0,5.534,6.376,23.6,23.6,0,0,0,5.5,3.335,27.127,27.127,0,0,0,4.391,1.451,11.733,11.733,0,0,1,1.7.41,2.632,2.632,0,0,1,.823.49,2.292,2.292,0,0,1,.4,1.345c-.509,1.306-1.267,1.61-2.827,1.291a25.773,25.773,0,0,1-7.6-2.643,25.9,25.9,0,0,1-8.006-6.354,27.765,27.765,0,0,1-3.445-4.96,28.728,28.728,0,0,1-2.413-6.088,30.2,30.2,0,0,1-.792-4.334,18.03,18.03,0,0,1-.18-2.719,28.987,28.987,0,0,1,1.155-7.568,28.483,28.483,0,0,1,3.8-8.037,26.848,26.848,0,0,1,11.171-9.352,27.93,27.93,0,0,1,7.072-2.164,25.758,25.758,0,0,1,6.465-.252,30.044,30.044,0,0,1,5.9,1.138,26.817,26.817,0,0,1,8.875,4.614,27.671,27.671,0,0,1,8.171,10.361,26.476,26.476,0,0,1,2.043,6.679,24.492,24.492,0,0,1,.38,6.6,41.825,41.825,0,0,1-.826,4.758,24.035,24.035,0,0,1-1.263,3.8,27.009,27.009,0,0,1-4.291,7.066,27.326,27.326,0,0,1-11.233,8.082,35.753,35.753,0,0,1-5.238,1.488,1.731,1.731,0,0,1-2.1-.989c-.076-.132-.165-.255-.249-.383.1-1.25.644-1.817,1.956-2.079,8.757-1.747,14.773-6.849,18.21-15.024a19.69,19.69,0,0,0,1.465-5.986,37.4,37.4,0,0,0,.063-4.821,16.475,16.475,0,0,0-.585-3.808c-2.461-8.544-7.871-14.321-16.362-17.082a16.154,16.154,0,0,0-4.454-.876c-.583-.019-1.176-.058-1.764-.089l-.11-.059" transform="translate(-66.493 -65.547)" fill="#060607"/>
          <path id="Trazado_821006" data-name="Trazado 821006" d="M177.979,235.477a2.3,2.3,0,0,0-.4-1.345.67.67,0,0,1,.542-.057c1.041.348,2.09.677,3.138,1.005.262.082.453.194.387.513a20.528,20.528,0,0,1-3.669-.116" transform="translate(-95.31 -125.613)" fill="#e34348"/>
          <path id="Trazado_821007" data-name="Trazado 821007" d="M150.32,177.833a27.178,27.178,0,0,1-4.391-1.451,23.6,23.6,0,0,1-5.5-3.335,22.854,22.854,0,0,1-5.535-6.377,25.265,25.265,0,0,1-3-7.619,23.965,23.965,0,0,1-.36-6.348,22.876,22.876,0,0,1,3.383-10.789A23.907,23.907,0,0,1,146.5,132a14.811,14.811,0,0,1,4.071-1.184.9.9,0,0,1-.549.734,23.222,23.222,0,0,0-4.656,3.028,26.024,26.024,0,0,0-4.376,4.7,24.44,24.44,0,0,0-3.007,5.6,27.094,27.094,0,0,0-1.426,4.956,25.441,25.441,0,0,0-.327,6.911c.075.782.176,1.553.3,2.326a1.385,1.385,0,0,0,.418.835c.194.385-.069.772.044,1.189a7.947,7.947,0,0,0,1,2.478,4.1,4.1,0,0,0,.572,1.82,33.946,33.946,0,0,0,3.627,5.5,28.549,28.549,0,0,0,6.184,5.421,15.656,15.656,0,0,1,1.76,1.073.445.445,0,0,1,.184.441" transform="translate(-70.569 -70.214)" fill="#65090d"/>
          <path id="Trazado_821008" data-name="Trazado 821008" d="M172.268,158.387a8.161,8.161,0,0,1-8.26,8.189,8.29,8.29,0,0,1,.048-16.58,8.186,8.186,0,0,1,8.213,8.391m-6.906,4.494a4.156,4.156,0,0,0,2.275-1.374,5.016,5.016,0,0,0,1.195-3.735,4.684,4.684,0,0,0-3.126-4,4.756,4.756,0,0,0-5.722,6.969,4.813,4.813,0,0,0,5.379,2.141" transform="translate(-83.617 -80.506)" fill="#060607"/>
          <path id="Trazado_821009" data-name="Trazado 821009" d="M173.9,207.253a7.614,7.614,0,0,1-7.416-7.657,7.509,7.509,0,0,1,2.183-5.041,10.232,10.232,0,0,1,4.446-2.393c2.245.249,4.446.565,6.139,2.324a7.23,7.23,0,0,1,2.183,5.308,7.534,7.534,0,0,1-7.534,7.46m1.925-11a3.879,3.879,0,0,0-3-.322,3.963,3.963,0,0,0-2.681,4.927c.694,2.031,3.237,3.795,5.557,2.473a3.6,3.6,0,0,0,2.271-3.379,3.782,3.782,0,0,0-2.146-3.7" transform="translate(-89.356 -103.136)" fill="#060607"/>
          <path id="Trazado_821010" data-name="Trazado 821010" d="M201.05,143.753a5.385,5.385,0,0,1,5.525,5.509,5.465,5.465,0,1,1-10.928-.234,5.344,5.344,0,0,1,5.4-5.275m1.956,5.476a1.818,1.818,0,0,0-1.906-2.013,1.783,1.783,0,0,0-1.919,1.879,2.026,2.026,0,0,0,2.027,2.045,1.772,1.772,0,0,0,1.8-1.911" transform="translate(-105.007 -77.15)" fill="#060607"/>
          <path id="Trazado_821011" data-name="Trazado 821011" d="M201.2,176.935a4.864,4.864,0,0,1-4.921,4.872,4.955,4.955,0,0,1-.5-9.894c3.31-.024,5.4,1.916,5.421,5.022m-3.463.011a1.5,1.5,0,0,0-3-.145,1.658,1.658,0,0,0,1.525,1.578,1.491,1.491,0,0,0,1.476-1.433" transform="translate(-102.624 -92.268)" fill="#060607"/>
          <path id="Trazado_821012" data-name="Trazado 821012" d="M144.325,192.948a7.946,7.946,0,0,1-1-2.478c-.113-.417.15-.8-.044-1.189a6.518,6.518,0,0,1,.941-2,4.376,4.376,0,0,1,3.694-1.745,4.419,4.419,0,0,1,4.287,4.911,4.465,4.465,0,0,1-7.668,2.627c-.007-.056-.029-.1-.1-.082l-.115-.047m4.5-2.989a1.07,1.07,0,0,0-1.093-1.028,1.058,1.058,0,0,0-.987,1.068,1.113,1.113,0,0,0,1,1,1.09,1.09,0,0,0,1.078-1.043" transform="translate(-76.902 -99.582)" fill="#060607"/>
          <path id="Trazado_821013" data-name="Trazado 821013" d="M209.655,199.089a1.2,1.2,0,0,1-.353,1,4.609,4.609,0,0,1-1.934,1.658,1.512,1.512,0,0,1-1.7-.517,1.627,1.627,0,0,1-.244-1.827,5.048,5.048,0,0,1,1.9-1.885,1.62,1.62,0,0,1,2.335,1.576" transform="translate(-110.155 -105.907)" fill="#060607"/>
          <path id="Trazado_821014" data-name="Trazado 821014" d="M184.891,129.669l.11.059-.11-.059" transform="translate(-99.234 -69.595)" fill="#e34348"/>
          <path id="Trazado_821015" data-name="Trazado 821015" d="M145.783,201.63c.067-.014.088.026.1.082l-.1-.082" transform="translate(-78.244 -108.216)" fill="#e34348"/>
          <path id="Trazado_821016" data-name="Trazado 821016" d="M169.36,166.9a4.813,4.813,0,0,1-5.379-2.141,4.756,4.756,0,0,1,5.722-6.969,11.346,11.346,0,0,0-1.252,2.047,6.48,6.48,0,0,0,.511,6.042,1.672,1.672,0,0,1,.4,1.021" transform="translate(-87.614 -84.526)" fill="#dd3039"/>
          <path id="Trazado_821017" data-name="Trazado 821017" d="M174.786,167.255a1.673,1.673,0,0,0-.4-1.021,6.48,6.48,0,0,1-.511-6.042,11.346,11.346,0,0,1,1.252-2.047,4.684,4.684,0,0,1,3.127,4,5.016,5.016,0,0,1-1.195,3.735,4.156,4.156,0,0,1-2.275,1.374" transform="translate(-93.041 -84.879)" fill="#e34348"/>
          <path id="Trazado_821018" data-name="Trazado 821018" d="M179.729,207.53c-2.319,1.322-4.863-.442-5.557-2.473a3.963,3.963,0,0,1,2.681-4.927,3.88,3.88,0,0,1,3,.322c.038.51-.424.745-.616,1.13a5.959,5.959,0,0,0,.146,5.252c.1.237.4.38.344.7" transform="translate(-93.382 -107.33)" fill="#dd3039"/>
          <path id="Trazado_821019" data-name="Trazado 821019" d="M185.178,208.081c.054-.316-.242-.459-.344-.7a5.959,5.959,0,0,1-.146-5.252c.191-.384.654-.62.616-1.129a3.782,3.782,0,0,1,2.146,3.7,3.6,3.6,0,0,1-2.272,3.379" transform="translate(-98.83 -107.881)" fill="#e34348"/>
          <path id="Trazado_821020" data-name="Trazado 821020" d="M207.1,153.251a1.772,1.772,0,0,1-1.8,1.911,2.026,2.026,0,0,1-2.027-2.045,1.783,1.783,0,0,1,1.919-1.879,1.818,1.818,0,0,1,1.906,2.013" transform="translate(-109.102 -81.172)" fill="#dd3039"/>
          <path id="Trazado_821021" data-name="Trazado 821021" d="M201.83,180.962a1.491,1.491,0,0,1-1.476,1.433,1.658,1.658,0,0,1-1.525-1.578,1.5,1.5,0,0,1,3,.145" transform="translate(-106.714 -96.283)" fill="#dd3039"/>
          <path id="Trazado_821022" data-name="Trazado 821022" d="M152.838,193.887a1.09,1.09,0,0,1-1.078,1.043,1.113,1.113,0,0,1-1-1,1.058,1.058,0,0,1,.987-1.068,1.07,1.07,0,0,1,1.093,1.028" transform="translate(-80.913 -103.51)" fill="#e34348"/>
        </g>
      </g>
    </g>
  </g>
</svg>
