<svg xmlns="http://www.w3.org/2000/svg" xmlns:xlink="http://www.w3.org/1999/xlink" width="169" height="169" viewBox="0 0 169 169">
  <defs>
    <clipPath id="clip-path">
      <rect id="Rect치ngulo_377614" data-name="Rect치ngulo 377614" width="103.251" height="112.324" fill="none"/>
    </clipPath>
  </defs>
  <g id="Grupo_1073347" data-name="Grupo 1073347" transform="translate(-719 -2877.811)">
    <g id="Grupo_1073327" data-name="Grupo 1073327" transform="translate(334 819.811)">
      <g id="Grupo_159182" data-name="Grupo 159182" transform="translate(385.001 2058)">
        <path id="Uni칩n_12" data-name="Uni칩n 12" d="M84.5,0A84.5,84.5,0,1,1,0,84.5,84.5,84.5,0,0,1,84.5,0Z" transform="translate(0 0)" fill="#ffae7e"/>
      </g>
    </g>
    <g id="Grupo_1073351" data-name="Grupo 1073351" transform="translate(751.875 2906.148)">
      <g id="Grupo_1073350" data-name="Grupo 1073350" clip-path="url(#clip-path)">
        <path id="Trazado_821213" data-name="Trazado 821213" d="M65.609,32.175c1.01,0,2.021-.019,3.03,0,1.311.032,1.735.341,1.8,1.747a4.511,4.511,0,0,0,2.553,3.463,4.262,4.262,0,0,0,2.031.506,4.625,4.625,0,0,0,4.255-3.653,9.118,9.118,0,0,1,.117-1.013,1.554,1.554,0,0,1,1.65-1.136,16.7,16.7,0,0,0,2.45.073c1.193.03,2.387,0,3.58.01,1.432.011,1.779.664,1.757,1.735-.014.7.011,1.4-.009,2.093-.011.365.061.506.484.6a32.6,32.6,0,0,1,6.811,2.236,38.382,38.382,0,0,1,7.919,4.881,35.052,35.052,0,0,1,6.8,7.231,31.666,31.666,0,0,1,3.5,6.382,29,29,0,0,1,1.083,3.1c.313,1.148.54,2.335.761,3.515a23.819,23.819,0,0,1,.179,5.9,15.634,15.634,0,0,1-1.928,6.6,5.279,5.279,0,0,0-.131,4.74c.8,1.961,1.915,3.769,2.82,5.68.742,1.567,1.539,3.109,2.287,4.675a3.923,3.923,0,0,1,.435,2.707,4.161,4.161,0,0,1-2.551,2.9,4.627,4.627,0,0,1-2.012.507c-.281-.009-.647-.02-.594.649a13.558,13.558,0,0,1-.043,4.653,3.136,3.136,0,0,1-1.515,1.9.64.64,0,0,0-.362.76,5.022,5.022,0,0,1-.927,4.356,4.255,4.255,0,0,0-.936,3.317,10.8,10.8,0,0,1,.307,2.792,5.242,5.242,0,0,1-3.046,4.835,13.008,13.008,0,0,1-4.354,1.081,19.645,19.645,0,0,1-3.01.072c-1.261-.055-2.515-.25-3.771-.383-2.092-.222-4.217-.523-6.272.2a5.336,5.336,0,0,0-2.9,2.731,22.1,22.1,0,0,0-1.429,4.347c-.272.952-.634,1.269-1.6,1.288-.808.016-1.616.012-2.423.012H44.774c-.312,0-.624-.015-.936-.022a1.247,1.247,0,0,1-1.121-1.915c1.049-2.113,2.057-4.247,3.137-6.344.378-.734.815-1.465,1.121-2.209.912-2.215,2.4-4.145,3.115-6.449a14.537,14.537,0,0,0,.523-3.131,12.57,12.57,0,0,0,.112-1.464,19.437,19.437,0,0,0-1.3-6.7c-.477-1.192-.931-2.4-1.436-3.578a2.072,2.072,0,0,0-.661-1.02c-.119-.082-.067-.363-.157-.549-.821-1.687-2-3.156-2.936-4.772C43.222,90.36,42.072,88.7,40.978,87c-.163-.252-.409-.439-.486-.759-.153-.637-.572-.806-1.215-.755-.839.067-1.688.017-2.533.013a1.136,1.136,0,0,1-1.2-1.2c0-1.414.019-2.829-.036-4.24-.017-.443.011-.878.022-1.316.006-.267-.086-.357-.365-.419a6.206,6.206,0,0,1-3-1.54,7.386,7.386,0,0,1-2.03-3.185,6.789,6.789,0,0,1,.235-4.622,6.148,6.148,0,0,1,2.887-3.4,5.15,5.15,0,0,1,1.76-.7c.361-.043.519-.324.518-.708,0-1.8.012-3.6.019-5.4a1.077,1.077,0,0,1,.853-1.059,6.849,6.849,0,0,1,1.591-.07c1.4,0,2.791-.01,4.186.025a.517.517,0,0,0,.608-.457A6.714,6.714,0,0,1,44.9,53.606a6.034,6.034,0,0,1,3.592-1.492,9.219,9.219,0,0,1,3.215.32,6,6,0,0,1,4.083,3.8,5.158,5.158,0,0,1,.2.506c.288.95.286.946,1.234.939,1.12-.009,2.24-.023,3.359,0,.313,0,.428-.076.424-.391-.018-1.469-.023-2.937-.031-4.406,0-.321-.1-.465-.469-.56a6.743,6.743,0,0,1-4.534-3.655,6.843,6.843,0,0,1-.647-3.772,7.7,7.7,0,0,1,1.294-3.5,5.75,5.75,0,0,1,3.134-2.331c1.231-.4,1.24-.38,1.244-1.616,0-1.212.005-2.423-.008-3.635-.014-1.235.555-1.63,1.6-1.625,1.01,0,2.02,0,3.03,0m48.475,36.652.027-.018-.025-.017q0-.236.007-.472a4.507,4.507,0,0,0,.054-.588,25.7,25.7,0,0,0-.3-3.053c.08-.311-.118-.583-.123-.882q-.082-.424-.163-.849a13.381,13.381,0,0,0-.718-2.676.507.507,0,0,0-.19-.446c.036-.593-.365-1.041-.515-1.568a13.477,13.477,0,0,0-1.276-2.834.988.988,0,0,0-.41-.592,3.592,3.592,0,0,0-.79-1.39,1.049,1.049,0,0,0-.305-.449,12.439,12.439,0,0,0-.859-1.217,4.074,4.074,0,0,0-.691-.9,26.525,26.525,0,0,0-4.181-4.423l-.117-.1a2,2,0,0,0-.628-.532,2.869,2.869,0,0,0-.817-.655l-.076-.071-.238-.182-.119-.083a6.39,6.39,0,0,0-1.215-.873,3.047,3.047,0,0,0-.752-.512.91.91,0,0,0-.457-.268l-.174-.111a1.36,1.36,0,0,0-.559-.334,22.122,22.122,0,0,0-4-1.991,2.057,2.057,0,0,0-.671-.278l-1.416-.511c-.389-.074-.737-.361-1.261-.242a4.477,4.477,0,0,1,1.025.619.484.484,0,0,0,.269.241l.409.458a.054.054,0,0,0,.061.066l.129.159a6.679,6.679,0,0,1,1.353,3.706v.882a11.56,11.56,0,0,1-.082,1.2,7.044,7.044,0,0,1-2.908,4.308l-.557.319-1.768.651c-.2.01-.219.145-.215.3.01.346.015.693.022,1.039q-.009,3.41-.018,6.821c0,1.651.008,3.3,0,4.951-.007,1.054-.315,1.363-1.3,1.578a4.327,4.327,0,0,0-1.344.3l-.326.138c-2.1.588-3.307,3.622-2.524,5.384a.334.334,0,0,0,.076.341,4.012,4.012,0,0,0,3.212,2.766l.669.18c1.105.034,1.538.462,1.541,1.574.006,2.192,0,4.383-.007,6.575-.062.022-.105.055-.077.13a1.283,1.283,0,0,1-.253.644l-.323.25a3.53,3.53,0,0,1-.882.229h-6.06c-1.333-.073-1.79-.5-1.889-1.781.017-.092.028-.182-.086-.224a2.975,2.975,0,0,0-.249-.988,2.491,2.491,0,0,0-.622-1.031,7.836,7.836,0,0,0-1.082-.965l-.146-.088-.092-.064-.194-.081a1.171,1.171,0,0,0-.6-.176c-.132-.1-.264-.191-.44-.11a3.974,3.974,0,0,0-2.534.106l-.631.247c-.109.065-.223.123-.326.2a4.194,4.194,0,0,0-1.882,2.85c0,.035-.007.071-.01.106a.524.524,0,0,0-.126.453,1.288,1.288,0,0,1-1,1.508c-.256.008-.512.024-.768.024-3.918,0-7.835.007-11.752-.007-.431,0-.753.044-.779.558.047.381-.276.669-.261,1.041l-.084.169-.229.442-.078.106a.076.076,0,0,0-.043.088l-.093.138a7.36,7.36,0,0,1-2.414,2.185,7.132,7.132,0,0,1-4.86.809c-.335-.067-.621-.319-.985-.246a1.219,1.219,0,0,0-1.092-.423l.847,1.125c.816,1.385,1.7,2.727,2.473,4.14.384.7.793,1.4,1.139,2.115a34.42,34.42,0,0,1,1.4,3.587,13.262,13.262,0,0,1,.754,2.9c-.019.076.025.1.09.111a14.13,14.13,0,0,1,.236,1.6,17.535,17.535,0,0,1,.232,4.24,17.951,17.951,0,0,1-1.123,4.975c-.107.125-.431.123-.242.419l-.2.464-.2.181.087,0a2.261,2.261,0,0,0-.332.7c-.064.052-.176.073-.134.2l-.307.685c-.062.052-.174.072-.127.2l-.754,1.572c-.2.117-.395.239-.258.524l-.073.133c-.117.16-.443.22-.248.527a2.888,2.888,0,0,0-.436.938l-.089.164c-.227.186-.248.473-.352.718-.06.039-.157.053-.114.164l-.082.138c-.178.13-.443.208-.316.522l-.258.721-.082.158-.124.124c-.07,0-.105.021-.087.1a1.936,1.936,0,0,1-.354.788c-.07-.006-.1.019-.086.094l-.26.72c-.059.041-.161.05-.118.164l-.644,1.318c-.156.182-.079.227.118.2.2.007.4.02.6.02H78.569c1.779,0,3.559-.007,5.339.007.272,0,.464-.051.523-.326a18.182,18.182,0,0,1,1.887-4.835l.088-.132a7.6,7.6,0,0,1,3.833-2.968,17.483,17.483,0,0,1,3.477-.541l.5,0,.263.012a.123.123,0,0,0,.185.017,10.118,10.118,0,0,0,1.292.166c.833,0,1.653.126,2.476.212a3.376,3.376,0,0,1,.992.11,33.111,33.111,0,0,0,3.646.136,11.682,11.682,0,0,0,3.407-.467c.076.021.1-.028.122-.087a3.074,3.074,0,0,0,2.177-2.869,1.531,1.531,0,0,0,.017-1.219,10.754,10.754,0,0,0-.242-2.306,5.549,5.549,0,0,1,.344-2.094l.461-.945a.622.622,0,0,0,.21-.376,4.275,4.275,0,0,0,.983-3.1,3.562,3.562,0,0,1-.048-1.341,3.126,3.126,0,0,1,1.436-1.981.937.937,0,0,0,.5-.85c-.022-.88-.024-1.761-.033-2.642l0-1.873a2.3,2.3,0,0,1,1.249-1.846,8.124,8.124,0,0,1,1.885-.466c1.359-.287,2.6-1.067,1.632-2.953a8.363,8.363,0,0,1-.457-.775,25.424,25.424,0,0,0-1.555-3.326l-.086-.135c-.357-.835-.827-1.61-1.263-2.4l-.069-.1a7.528,7.528,0,0,0-.421-.854c-.239-.369-.259-.865-.658-1.139,0-.153.036-.313-.077-.447l-.059-.1-.029-.105a11.937,11.937,0,0,1-.976-3.53q0-.881,0-1.763c-.017-.264.191-.49.126-.761.194-.108.063-.3.119-.446a14.29,14.29,0,0,0,1.277-2.441,2.776,2.776,0,0,0,.367-1.3.941.941,0,0,0,.221-.671,9.307,9.307,0,0,0,.3-1.653c.015-.121.1-.258-.077-.335a.739.739,0,0,0,.1-.434c.179-.2.1-.439.1-.666ZM75.939,40.137a.06.06,0,0,0-.078.017,11.537,11.537,0,0,1-1.855.01,6.412,6.412,0,0,1-4.135-2.012,5.723,5.723,0,0,1-1.586-3.127c-.06-.347-.232-.439-.561-.435-1.117.015-2.233-.009-3.35.009-1.21.02-1.083-.259-1.059,1.113l0,.2q0,1.443.009,2.887V39c-.011.293-.012.586-.034.878a1.053,1.053,0,0,1-1.088,1.12,8.326,8.326,0,0,0-1.02.133,4.561,4.561,0,0,0,.846,9A1.153,1.153,0,0,1,63.3,51.137c0,.067,0,.134.007.2q0,.286.008.572c-.056,1.535-.047,3.07,0,4.605l-.007.353c.061.151-.283.257-.047.426-.007.353.169.456.512.451,1.267-.017,2.535-.028,3.8,0,.446.011.584-.168.687-.563a6.488,6.488,0,0,1,5.868-5.047A6.878,6.878,0,0,1,79.508,53.8a6.337,6.337,0,0,1,2.039,3.521c.082.387.229.418.536.416,1.285-.009,2.571-.019,3.856,0,.378.007.494-.081.49-.476-.022-1.928-.012-3.856-.006-5.784a1.357,1.357,0,0,1,1.1-1.362c.41-.116.823-.071,1.231-.164a4.522,4.522,0,0,0-.541-8.86c-1.273-.127-1.84-.511-1.805-1.977.033-1.358,0-2.717.015-4.076,0-.366-.113-.468-.474-.463-1.248.019-2.5.015-3.745,0-.386-.006-.552.087-.668.51a6.694,6.694,0,0,1-5.6,5.047M60.988,64.462c.107-.042.1-.122.068-.208q-.013-2-.024-3.993c.007-.014.022-.034.018-.042a.523.523,0,0,0-.058-.068c-.106-.3-.365-.192-.565-.194-1.78-.011-3.561-.03-5.341,0a1.091,1.091,0,0,1-1.029-.757,2.176,2.176,0,0,1-.135-.851,3.984,3.984,0,0,0-.869-2.314A4.678,4.678,0,0,0,49.23,54.4a4.341,4.341,0,0,0-4.262,3.987c-.014,1.026-.238,1.609-1.655,1.575-1.633-.04-3.266,0-4.9-.031-.393-.007-.486.107-.481.488.021,1.67.015,3.34.007,5.01,0,1.031-.39,1.434-1.393,1.583a6.847,6.847,0,0,0-1.887.478,4.662,4.662,0,0,0-2.2,5.556,4.127,4.127,0,0,0,3.864,2.993c1.158.062,1.619.574,1.621,1.749,0,1.6.015,3.194-.009,4.791-.006.417.116.522.528.515,1.6-.028,3.195-.055,4.79,0,.931.031,1.585.149,1.652,1.355a4.515,4.515,0,0,0,.733,2.349,4.568,4.568,0,0,0,8.3-1.911c.115-1.216.16-1.824,1.993-1.813,1.523.009,3.047-.011,4.57.015.438.007.574-.125.566-.562-.021-1.211-.01-2.423.012-3.634a.63.63,0,0,0-.574-.718,6.853,6.853,0,0,1-4.764-8.93,6.709,6.709,0,0,1,4.879-4.354c.218-.055.41-.147.375-.43M66.5,59.943H64.025c-.74,0-.736,0-.735.768,0,1.671.008,3.342,0,5.013,0,.741-.4,1.236-1.023,1.258a7.694,7.694,0,0,0-.976.132,4.155,4.155,0,0,0-3.536,4.009c0,.246.149.455.106.692a3.507,3.507,0,0,0,1.363,3.267,4.758,4.758,0,0,0,2.836,1.041c.948.129,1.225.478,1.227,1.426,0,1.653.014,3.305-.016,4.958-.009.473.15.594.6.586,1.23-.023,2.461-.023,3.69.006.468.011.69-.134.784-.607a5.593,5.593,0,0,1,1.271-2.561,6.942,6.942,0,0,1,11.941,2.764c.069.332.179.421.491.417,1.3-.018,2.607-.035,3.91-.013.413.007.48-.148.474-.509-.02-1.065-.007-2.13-.007-3.195,0-1.043,0-1.044-.977-1.373a6.776,6.776,0,0,1-4.076-9.1A6.366,6.366,0,0,1,85.814,65a.7.7,0,0,0,.62-.826c-.045-1.247-.03-2.5-.006-3.745.007-.381-.089-.5-.483-.492-1.744.022-3.489.01-5.233.008a1.134,1.134,0,0,1-1.191-.853,3.312,3.312,0,0,1-.145-.809,3.94,3.94,0,0,0-.888-2.265,4.239,4.239,0,0,0-3.692-1.6,4.649,4.649,0,0,0-2.541.691,4.359,4.359,0,0,0-1.91,3.458c-.084,1.045-.389,1.379-1.418,1.381-.808,0-1.616,0-2.424,0" transform="translate(-16.678 -17.938)" fill="#060708"/>
        <path id="Trazado_821214" data-name="Trazado 821214" d="M16.475.037A6.056,6.056,0,0,1,21.5,1.984a6.707,6.707,0,0,1,1.173,1.763c.138.287.209.37.585.27,1.44-.383,2.906-.666,4.356-1.014a5.126,5.126,0,0,1,1.259-.236,1.036,1.036,0,0,1,1.1.775c.416,1.311.652,2.666.976,4,.16.658.356,1.3.472,1.978.212,1.235.085,1.532-1.087,1.958a4.721,4.721,0,0,0-3.015,2.932,4.669,4.669,0,0,0,2.089,5.237,3.98,3.98,0,0,0,2.16.549c.493-.037.991-.011,1.486-.006a.933.933,0,0,1,.991.8q.768,3.331,1.547,6.659a3.932,3.932,0,0,1,.22.881,1.2,1.2,0,0,1-1.052,1.35q-3.315.772-6.632,1.535a1.287,1.287,0,0,1-1.461-.977,4.544,4.544,0,0,0-7.05-2.5A4.375,4.375,0,0,0,17.942,32.5a1.389,1.389,0,0,1-1.172,1.566c-1.725.4-3.468.729-5.182,1.189-.441.119-.894.18-1.336.335a1.206,1.206,0,0,1-1.532-.987c-.454-1.907-.9-3.815-1.331-5.729-.087-.391-.219-.56-.66-.542a6.634,6.634,0,0,1-4.787-1.9,3.777,3.777,0,0,1-.8-1.254,12.335,12.335,0,0,1-.954-2.312,6.7,6.7,0,0,1,.866-5.19,5.677,5.677,0,0,1,2.74-2.353c.173-.07.476-.153.3-.484a7.076,7.076,0,0,1-.334-1.585c-.27-1.007-.458-2.035-.7-3.049A1.29,1.29,0,0,1,4.271,8.392c.894-.138,1.768-.4,2.652-.607C7.648,7.618,8.375,7.459,9.1,7.3a.526.526,0,0,0,.5-.582A6.635,6.635,0,0,1,13.817.47,5.053,5.053,0,0,1,16.475.037m.116,2.3A4.361,4.361,0,0,0,12.041,7.5c.165,1.078-.028,1.459-1.079,1.727-1.49.38-2.991.719-4.5,1.039-.875.186-.947.245-.745,1.06.013.053.015.109.026.163.316,1.46.638,2.918.947,4.38a.829.829,0,0,1-.5,1c-.365.169-.755.284-1.121.451a4.346,4.346,0,0,0-2.741,3.99c-.092,2.715,2.025,5.119,5.505,4.707,1.011-.12,1.31.2,1.5.985.46,1.88.9,3.766,1.34,5.65.074.313.194.472.574.373,1.294-.334,2.594-.642,3.9-.936.292-.066.39-.186.384-.478a6.277,6.277,0,0,1,.05-1.373A6.888,6.888,0,0,1,24.032,25a6.062,6.062,0,0,1,4.318,3.516c.136.3.317.441.627.369,1.3-.3,2.595-.625,3.9-.91.4-.086.456-.292.377-.625-.337-1.42-.677-2.839-1.005-4.26-.079-.342-.212-.536-.616-.482a4.264,4.264,0,0,1-1.68-.221,6.92,6.92,0,0,1-5.022-7.566A6.34,6.34,0,0,1,28.51,9.724a.75.75,0,0,0,.416-1.017c-.209-.816-.4-1.636-.591-2.457-.219-.957-.216-.969-1.149-.758-1.482.335-2.959.7-4.442,1.026-1.1.244-1.541.012-1.859-1.087a4.246,4.246,0,0,0-4.293-3.093" transform="translate(0 0)" fill="#060708"/>
        <path id="Trazado_821215" data-name="Trazado 821215" d="M128.71,61.765a12.393,12.393,0,0,1,.86,1.217c-.177.021-.347.08-.323.29s.218.145.354.156c.091.007.183,0,.274,0a3.6,3.6,0,0,1,.79,1.39c-.031.313-.037.609.409.592a13.486,13.486,0,0,1,1.276,2.834c.15.527.551.975.515,1.568-.225.272-.16.42.19.446a13.351,13.351,0,0,1,.718,2.676c-.055.37-.485.2-.7.538.534-.362.547.267.859.311,0,.3.2.57.123.881-.432.3-.214.733-.179,1.086a5.992,5.992,0,0,1,.1,1.664c-.05.291-.246.77.326.891,0,.157,0,.315-.007.471l0,.035-.019.036c-.5.155-.32.408-.1.667a.741.741,0,0,1-.1.434c-.179.158-.159.272.076.336a9.236,9.236,0,0,1-.3,1.653c-.474.092-.345.382-.22.671a2.778,2.778,0,0,1-.367,1.3,14.359,14.359,0,0,1-1.277,2.442c-.4.052-.065.3-.119.446.066.272-.143.5-.126.762-.222.179-.659-.079-.716.16a2.957,2.957,0,0,0,.013,1.295c.06.274.428.28.7.308a11.951,11.951,0,0,0,.976,3.53c-.009.013-.029.032-.026.038a.5.5,0,0,0,.055.067l.059.1c-.2.017-.364.136-.327.33.04.21.261.1.4.117.4.275.418.77.658,1.139a7.564,7.564,0,0,1,.421.854l.068.1c.436.793.906,1.568,1.263,2.4l.086.136a25.4,25.4,0,0,1,1.555,3.326,8.326,8.326,0,0,0,.457.775c.971,1.885-.272,2.666-1.632,2.953a8.117,8.117,0,0,0-1.885.466,2.305,2.305,0,0,0-1.249,1.847c-.68-.064-.582.49-.633.859-.086.625.108.885.63,1.014.01.881.012,1.761.033,2.642a.937.937,0,0,1-.5.85,3.126,3.126,0,0,0-1.436,1.981,3.563,3.563,0,0,0,.048,1.341,4.275,4.275,0,0,1-.983,3.1c-.252.023-.224.2-.21.376l-.462.945a.345.345,0,0,0-.412.33,3.636,3.636,0,0,0-.13,1.115c.04.222-.158.523.2.648a10.706,10.706,0,0,1,.242,2.307,1.973,1.973,0,0,0-.275.471c-.075.288-.211.633.258.748a3.074,3.074,0,0,1-2.178,2.869l-.121.088a11.684,11.684,0,0,1-3.407.467,33.219,33.219,0,0,1-3.646-.137c.015-.306-.139-.446-.435-.419-.226.021-.561-.133-.557.309-.824-.086-1.643-.208-2.476-.212a10.162,10.162,0,0,1-1.291-.166.129.129,0,0,0-.185-.017l-.262-.012a.845.845,0,0,0-.5,0,17.542,17.542,0,0,0-3.477.541,7.6,7.6,0,0,0-3.834,2.969l-.088.132a18.17,18.17,0,0,0-1.887,4.835c-.059.275-.252.328-.523.325-1.78-.013-3.56-.007-5.339-.007H66.689c-.2,0-.4-.014-.6-.021a.21.21,0,0,0-.118-.2l.644-1.318a.151.151,0,0,0,.118-.164l.26-.721.086-.094a1.932,1.932,0,0,0,.354-.787l.087-.1.123-.124.082-.158.258-.721c.279-.069.288-.3.316-.522l.082-.138a.144.144,0,0,0,.114-.164c.1-.246.124-.533.351-.719l.089-.164a2.9,2.9,0,0,1,.436-.938.577.577,0,0,0,.249-.527l.073-.133a.561.561,0,0,0,.258-.523l.754-1.573c.1-.029.12-.107.127-.2l.307-.685c.1-.027.127-.106.134-.2a2.268,2.268,0,0,1,.331-.7c.1-.022.1-.1.11-.178l.2-.464c.21-.065.243-.232.242-.419a17.971,17.971,0,0,0,1.123-4.975,17.535,17.535,0,0,0-.232-4.24,14.118,14.118,0,0,0-.236-1.6l-.09-.111a13.259,13.259,0,0,0-.754-2.9,34.383,34.383,0,0,0-1.4-3.587c-.346-.714-.756-1.412-1.139-2.115-.771-1.412-1.657-2.755-2.473-4.14.045-.247-.083-.554.246-.7.364-.074.649.179.985.245a7.129,7.129,0,0,0,4.86-.808,7.365,7.365,0,0,0,2.414-2.185l.093-.138a.076.076,0,0,1,.043-.088l.078-.106.229-.442.084-.169c-.015-.373.308-.66.261-1.041,3.745,0,7.491-.007,11.236.007a7.5,7.5,0,0,1,1.687-.068c.288.064.444-.2.376-.515a1.288,1.288,0,0,0,1-1.508.524.524,0,0,1,.126-.453c.012-.01.037-.021.035-.028a.391.391,0,0,0-.026-.078,4.2,4.2,0,0,1,1.882-2.851c.1-.073.217-.131.326-.2.15.078.212.33.432.256.243-.082.19-.312.2-.5A3.969,3.969,0,0,1,96.054,90c.167.371.229.386.441.11a1.175,1.175,0,0,1,.6.176c-.112.07-.222.188-.086.278.167.111.216-.083.279-.2l.092.064.146.088a7.832,7.832,0,0,1,1.082.965.685.685,0,0,0,.622,1.032,2.975,2.975,0,0,1,.249.988c-.173.152-.062.195.086.223.1,1.278.556,1.709,1.889,1.782-.027.654.54.507.814.478,1.62-.169,3.245.035,4.866-.1.368-.031.386-.116.381-.378a3.51,3.51,0,0,0,.882-.229c0,.2.026.449.292.395s.125-.276.079-.439c-.019-.068-.033-.137-.048-.206a1.285,1.285,0,0,0,.253-.644l.077-.13c0-2.192.013-4.383.007-6.575,0-1.111-.436-1.539-1.541-1.573a.42.42,0,0,0-.276-.48c-.217-.063-.3.145-.393.3a4.011,4.011,0,0,1-3.212-2.766c.2-.162.175-.277-.075-.341-.783-1.763.422-4.8,2.524-5.384-.031.194-.067.387-.09.582a.133.133,0,0,0,.123.15c.076.009.176-.035.142-.108-.135-.3.243-.482.152-.761a4.327,4.327,0,0,1,1.343-.3c.989-.215,1.3-.524,1.3-1.578.012-1.65,0-3.3,0-4.951q.006-3.41.018-6.821c.261-.03.294-.208.316-.429a5.954,5.954,0,0,0-.123-.914l1.768-.651a.423.423,0,0,0,.4.431.433.433,0,0,0,.41-.216c.117-.249-.149-.362-.252-.533A7.045,7.045,0,0,0,114.5,57.03a11.56,11.56,0,0,0,.082-1.2c.38-.393.38-.651,0-.882a6.676,6.676,0,0,0-1.353-3.706l-.129-.16a.054.054,0,0,1-.061-.065c.135-.055.3-.108.262-.289s-.2-.187-.347-.185c-.108,0-.216.01-.324.015a.486.486,0,0,1-.268-.241l.236-.377,1.416.512c.021.279-.083.645.305.724.289.058.316-.235.365-.446a22.125,22.125,0,0,1,4,1.991,1.458,1.458,0,0,0-.223.155.382.382,0,0,0,0,.619c.271.242.38-.024.5-.194a.568.568,0,0,1,.281-.246l.174.112c.013.15-.069.339.12.424a.234.234,0,0,0,.337-.156,3.042,3.042,0,0,1,.752.512c-.01.272-.045.556.237.727a.42.42,0,0,1,.2.409c0,.364.194.314.427.2.2-.1.259-.29.349-.465l.119.083c0,.1-.047.227.053.294s.145-.037.186-.112l.076.071c.013.8.148.9.817.655a2,2,0,0,1,.627.532c-.324.14-.32.61-.711.692-.512.106-.209.393-.052.513.134.1.316.138.4.319.059.126.168.222.293.084a.2.2,0,0,0-.045-.33c-.506-.228-.292-.447-.032-.711a2,2,0,0,0,.264-.469,26.5,26.5,0,0,1,4.18,4.423,1.416,1.416,0,0,0-.085.308.953.953,0,0,0,.364.775c.153.129.34.034.412-.18m4.128,15.8c.165.3,0,.765.384,1.047.071.053.141.136.233.052a.152.152,0,0,0,.023-.144c-.3-.308-.147-.693-.183-1.044-.018-.175-.047-.359-.257-.353-.254.007-.155.238-.2.442M114.3,128.454c.216-.082.62.108.617-.148,0-.334-.41-.193-.637-.186s-.644-.157-.634.164.434.071.654.171m-.361-68.338c-.629.1-.589.455-.573.8,0,.1.057.178.165.171a.159.159,0,0,0,.149-.188,1.086,1.086,0,0,1,.259-.78m16.5,27.714c-.158.223-.429.407-.255.715a.186.186,0,0,0,.283.066c.3-.253.072-.515-.028-.782M119.828,54.906c.223-.15.084-.4.225-.551.083-.091.36-.224.112-.361-.2-.11-.3.138-.364.3a.632.632,0,0,0,.027.61M108.291,77.451c-.293.022-.491-.219-.723-.054-.075.053-.042.178.059.218.212.086.436.207.665-.164m19.483,47.835a1.239,1.239,0,0,0,.019.98,1.233,1.233,0,0,0-.019-.98M110.346,62.722c-.078-.1-.132-.259-.309-.234-.118.017-.169.148-.168.252,0,.159.151.2.272.21s.194-.076.2-.228m22.066,20.257c-.011-.144-.013-.316-.2-.318-.149,0-.118.149-.121.25,0,.134.031.275.174.3s.141-.122.151-.227m-17.089-30.6c.125-.02.214-.083.189-.214-.029-.147-.153-.189-.289-.185s-.221.055-.188.195.167.172.288.2M100.306,95.95c.338.1.553.167.83-.08a1.122,1.122,0,0,0-.83.08m6.7-10.829c.12,0,.223-.056.238-.173s-.091-.14-.185-.137-.24-.034-.261.114c-.018.131.095.176.208.2m-37.238,16.49c-.3-.051-.473-.123-.722.1a.718.718,0,0,0,.722-.1m34.395,33.264c-.1-.01-.146.03-.129.082a.258.258,0,0,0,.118.149.082.082,0,0,0,.118-.1c-.016-.056-.081-.1-.107-.129m16.832-79.268c-.037.041-.091.076-.09.108a.13.13,0,0,0,.091.089c.068.01.144-.016.121-.108-.009-.034-.072-.054-.122-.089M109.083,85.535c.013-.03.042-.067.033-.088s-.055-.028-.085-.041c-.013.03-.042.067-.034.088s.055.028.085.041M68.576,136.892c-.03-.013-.067-.043-.088-.034s-.028.055-.041.085c.03.013.067.043.088.035s.029-.055.042-.085M108.7,77.14l-.039.089c.03.013.066.042.088.034s.028-.055.041-.085l-.09-.038M91.605,93.372c-.03-.013-.067-.042-.088-.033s-.028.055-.041.085c.03.013.067.042.088.034s.028-.055.041-.085m35.038-33.605c-.03-.013-.067-.042-.088-.034s-.028.055-.041.085c.03.013.066.042.088.034s.028-.055.041-.085" transform="translate(-36.889 -27.926)" fill="#fec692"/>
        <path id="Trazado_821216" data-name="Trazado 821216" d="M64.06,88.582q.012,2,.024,3.992-.034.1-.068.208c.036.283-.157.375-.375.43a6.708,6.708,0,0,0-4.879,4.354,6.852,6.852,0,0,0,4.763,8.93.631.631,0,0,1,.574.719c-.022,1.211-.034,2.423-.013,3.633.007.438-.128.569-.566.562-1.523-.026-3.047-.006-4.57-.015-1.833-.01-1.879.6-1.994,1.813a4.568,4.568,0,0,1-8.3,1.911,4.516,4.516,0,0,1-.733-2.349c-.067-1.206-.721-1.324-1.652-1.355-1.6-.053-3.194-.026-4.79,0-.413.007-.534-.1-.528-.515.023-1.6.011-3.194.009-4.791,0-1.175-.463-1.686-1.621-1.749a4.127,4.127,0,0,1-3.864-2.993,4.663,4.663,0,0,1,2.2-5.557,6.842,6.842,0,0,1,1.887-.478c1-.149,1.388-.552,1.393-1.583.008-1.67.015-3.341-.007-5.011,0-.381.088-.495.481-.488,1.633.027,3.268-.009,4.9.031,1.416.035,1.641-.549,1.655-1.575a4.342,4.342,0,0,1,4.262-3.987,4.681,4.681,0,0,1,3.824,1.628,3.986,3.986,0,0,1,.868,2.314,2.178,2.178,0,0,0,.135.851,1.094,1.094,0,0,0,1.029.757c1.78-.025,3.56-.006,5.341,0,.2,0,.458-.107.565.193l.04.111" transform="translate(-19.707 -46.259)" fill="#d777ad"/>
        <path id="Trazado_821217" data-name="Trazado 821217" d="M101.935,88.274q1.212,0,2.424,0c1.028,0,1.334-.335,1.418-1.381a4.36,4.36,0,0,1,1.91-3.458,4.652,4.652,0,0,1,2.541-.691,4.242,4.242,0,0,1,3.692,1.6,3.94,3.94,0,0,1,.888,2.265,3.312,3.312,0,0,0,.145.809,1.135,1.135,0,0,0,1.191.853c1.744,0,3.489.014,5.233-.008.394,0,.49.112.483.492-.024,1.248-.039,2.5.006,3.745a.7.7,0,0,1-.62.826,6.366,6.366,0,0,0-4.448,3.929,6.776,6.776,0,0,0,4.076,9.1c.977.329.977.33.977,1.374,0,1.065-.013,2.13.007,3.195.007.361-.06.516-.474.509-1.3-.022-2.607,0-3.91.013-.312,0-.422-.085-.491-.417a6.942,6.942,0,0,0-11.941-2.763,5.593,5.593,0,0,0-1.271,2.561c-.094.473-.316.618-.784.607-1.23-.03-2.46-.029-3.69-.006-.447.008-.606-.114-.6-.586.03-1.652.019-3.305.016-4.958,0-.948-.279-1.3-1.227-1.426a4.758,4.758,0,0,1-2.836-1.041,3.507,3.507,0,0,1-1.363-3.267c.043-.238-.106-.447-.106-.692a4.154,4.154,0,0,1,3.536-4.009,7.775,7.775,0,0,1,.976-.133c.622-.022,1.018-.517,1.023-1.257.011-1.671,0-3.342,0-5.013,0-.768,0-.768.735-.768h2.479" transform="translate(-52.109 -46.269)" fill="#735ea3"/>
        <path id="Trazado_821218" data-name="Trazado 821218" d="M98.615,38.887c-.024-1.372-.151-1.093,1.059-1.113,1.116-.019,2.233,0,3.349-.01.328,0,.5.088.561.435a5.72,5.72,0,0,0,1.586,3.128,6.414,6.414,0,0,0,4.135,2.012,11.48,11.48,0,0,0,1.855-.01c.04.059.06.026.078-.017a6.693,6.693,0,0,0,5.6-5.047c.116-.423.283-.516.668-.51,1.248.019,2.5.023,3.745,0,.361-.006.479.1.474.462-.019,1.359.019,2.718-.015,4.076-.036,1.465.532,1.85,1.805,1.976a4.522,4.522,0,0,1,.541,8.861c-.409.092-.822.047-1.231.164a1.357,1.357,0,0,0-1.1,1.362c-.006,1.928-.015,3.856.006,5.784,0,.4-.112.484-.49.476-1.285-.024-2.57-.014-3.856,0-.306,0-.454-.03-.536-.416a6.337,6.337,0,0,0-2.039-3.521,6.878,6.878,0,0,0-5.384-1.665,6.487,6.487,0,0,0-5.867,5.047c-.1.395-.241.575-.687.563-1.266-.032-2.534-.022-3.8,0-.343,0-.519-.1-.512-.451.169-.125.148-.272.047-.427q0-.176.006-.353a6.668,6.668,0,0,0,.065-1.837,16.925,16.925,0,0,0-.061-2.768q0-.286-.008-.571c.085-.07.078-.137-.007-.2A1.154,1.154,0,0,0,97.332,53.3a4.561,4.561,0,0,1-.846-9,8.5,8.5,0,0,1,1.02-.133,1.054,1.054,0,0,0,1.089-1.12c.021-.292.023-.585.034-.877a.111.111,0,0,0,0-.2q0-1.443-.009-2.887c.085-.067.083-.134,0-.2" transform="translate(-51.977 -21.113)" fill="#d777ad"/>
        <path id="Trazado_821219" data-name="Trazado 821219" d="M102.583,153.228c.068.317-.088.579-.376.515a7.526,7.526,0,0,0-1.687.068c-3.745-.015-7.491-.007-11.236-.007.025-.514.348-.56.778-.558,3.917.013,7.835.008,11.752.007.256,0,.512-.015.768-.024" transform="translate(-49.928 -85.686)" fill="#fec692"/>
        <path id="Trazado_821220" data-name="Trazado 821220" d="M152.53,153.326c0,.262-.013.347-.381.378-1.621.135-3.246-.068-4.866.1-.274.029-.841.175-.813-.478h6.06" transform="translate(-81.907 -85.741)" fill="#fec692"/>
        <path id="Trazado_821221" data-name="Trazado 821221" d="M214.187,137.049c-.271-.028-.639-.034-.7-.308a2.957,2.957,0,0,1-.013-1.295c.058-.24.494.018.716-.16l0,1.763" transform="translate(-119.34 -75.653)" fill="#fec692"/>
        <path id="Trazado_821222" data-name="Trazado 821222" d="M220.355,109.682c-.571-.121-.376-.6-.326-.891a5.992,5.992,0,0,0-.1-1.664c-.035-.353-.253-.79.179-1.086a25.706,25.706,0,0,1,.3,3.054,4.572,4.572,0,0,1-.054.588" transform="translate(-122.94 -59.299)" fill="#fec692"/>
        <path id="Trazado_821223" data-name="Trazado 821223" d="M216.345,182.4c-.521-.13-.715-.39-.63-1.014.05-.369-.047-.923.633-.859l0,1.873" transform="translate(-120.619 -100.948)" fill="#fec692"/>
        <path id="Trazado_821224" data-name="Trazado 821224" d="M191.18,59.9c-.09.175-.149.368-.349.465-.234.113-.43.162-.428-.2a.419.419,0,0,0-.2-.409c-.283-.171-.247-.455-.237-.726a6.39,6.39,0,0,1,1.215.873" transform="translate(-106.226 -33.007)" fill="#fec692"/>
        <path id="Trazado_821225" data-name="Trazado 821225" d="M195.844,64.56a2.014,2.014,0,0,1-.263.469c-.261.264-.474.484.032.711a.2.2,0,0,1,.045.33c-.124.138-.234.041-.293-.084-.085-.182-.267-.217-.4-.319-.157-.12-.46-.407.052-.513.392-.082.388-.551.712-.692l.117.1" transform="translate(-108.895 -36.048)" fill="#fec692"/>
        <path id="Trazado_821226" data-name="Trazado 821226" d="M67.374,164.723c-.328.148-.2.455-.246.7l-.847-1.125a1.219,1.219,0,0,1,1.092.423" transform="translate(-37.065 -91.873)" fill="#fec692"/>
        <path id="Trazado_821227" data-name="Trazado 821227" d="M208.144,212.365c-.356-.126-.159-.427-.2-.648a3.636,3.636,0,0,1,.13-1.115.346.346,0,0,1,.412-.33,5.57,5.57,0,0,0-.344,2.094" transform="translate(-116.274 -117.584)" fill="#fec692"/>
        <path id="Trazado_821228" data-name="Trazado 821228" d="M185.645,56.579a.561.561,0,0,0-.281.246c-.118.171-.228.436-.5.194a.382.382,0,0,1,0-.619,1.507,1.507,0,0,1,.223-.154,1.359,1.359,0,0,1,.559.333" transform="translate(-103.289 -31.453)" fill="#fec692"/>
        <path id="Trazado_821229" data-name="Trazado 821229" d="M105.754,77.069a16.975,16.975,0,0,1,.061,2.768,6.668,6.668,0,0,1-.065,1.837c-.043-1.535-.052-3.07,0-4.605" transform="translate(-59.116 -43.098)" fill="#735ea3"/>
        <path id="Trazado_821230" data-name="Trazado 821230" d="M207.324,75.621c-.072.214-.258.309-.412.18a.953.953,0,0,1-.364-.775,1.39,1.39,0,0,1,.084-.308,4.065,4.065,0,0,1,.691.9" transform="translate(-115.503 -41.783)" fill="#fec692"/>
        <path id="Trazado_821231" data-name="Trazado 821231" d="M168.768,75.8c.1.171.368.283.252.533a.433.433,0,0,1-.41.216.423.423,0,0,1-.4-.43l.557-.319" transform="translate(-94.065 -42.386)" fill="#fec692"/>
        <path id="Trazado_821232" data-name="Trazado 821232" d="M208.5,221.478c-.469-.115-.334-.46-.258-.748a1.987,1.987,0,0,1,.275-.471,1.529,1.529,0,0,1-.017,1.219" transform="translate(-116.41 -123.171)" fill="#fec692"/>
        <path id="Trazado_821233" data-name="Trazado 821233" d="M140.536,145.227a.686.686,0,0,1-.622-1.032,2.488,2.488,0,0,1,.622,1.032" transform="translate(-78.197 -80.635)" fill="#fec692"/>
        <path id="Trazado_821234" data-name="Trazado 821234" d="M163.928,78a5.9,5.9,0,0,1,.123.914c-.022.22-.055.4-.316.429-.007-.346-.011-.693-.022-1.039,0-.159.013-.294.215-.3" transform="translate(-91.55 -43.617)" fill="#fec692"/>
        <path id="Trazado_821235" data-name="Trazado 821235" d="M175.637,51.378c-.05.212-.077.5-.365.446-.389-.078-.285-.445-.306-.724a2.04,2.04,0,0,1,.671.278" transform="translate(-97.842 -28.576)" fill="#fec692"/>
        <path id="Trazado_821236" data-name="Trazado 821236" d="M194.532,62.423c-.67.249-.8.141-.818-.655a2.871,2.871,0,0,1,.818.655" transform="translate(-108.327 -34.541)" fill="#fec692"/>
        <path id="Trazado_821237" data-name="Trazado 821237" d="M185.465,229.828c0-.442.331-.288.557-.309.3-.027.451.112.435.419a3.373,3.373,0,0,0-.992-.11" transform="translate(-103.714 -128.344)" fill="#fec692"/>
        <path id="Trazado_821238" data-name="Trazado 821238" d="M170.156,49.6l-.236.376a4.5,4.5,0,0,0-1.025-.619c.524-.119.871.169,1.261.242" transform="translate(-94.448 -27.583)" fill="#fec692"/>
        <path id="Trazado_821239" data-name="Trazado 821239" d="M219.078,102.963c-.312-.044-.325-.674-.859-.311.211-.333.641-.167.7-.538q.082.424.164.849" transform="translate(-122.03 -57.103)" fill="#fec692"/>
        <path id="Trazado_821240" data-name="Trazado 821240" d="M210.152,79.978c-.091,0-.183,0-.274,0-.137-.011-.331.048-.354-.156s.146-.269.323-.29a1.052,1.052,0,0,1,.305.449" transform="translate(-117.166 -44.473)" fill="#fec692"/>
        <path id="Trazado_821241" data-name="Trazado 821241" d="M176.257,61.3c.38.231.38.489,0,.882V61.3" transform="translate(-98.564 -34.278)" fill="#fec692"/>
        <path id="Trazado_821242" data-name="Trazado 821242" d="M158.7,131.192c.091-.155.176-.363.393-.3a.42.42,0,0,1,.276.48l-.669-.18" transform="translate(-88.747 -73.189)" fill="#fec692"/>
        <path id="Trazado_821243" data-name="Trazado 821243" d="M157.18,112.012c.092.279-.287.463-.152.761.034.073-.067.118-.142.109a.133.133,0,0,1-.122-.151c.023-.195.059-.388.09-.582l.326-.138" transform="translate(-87.663 -62.638)" fill="#fec692"/>
        <path id="Trazado_821244" data-name="Trazado 821244" d="M162.542,152.238c.016.069.03.138.048.206.046.164.172.388-.079.439s-.287-.191-.292-.395l.323-.25" transform="translate(-90.714 -85.133)" fill="#fec692"/>
        <path id="Trazado_821245" data-name="Trazado 821245" d="M171.829,51.32c.108-.005.216-.014.324-.015.15,0,.313.015.347.185s-.127.234-.262.288l-.409-.458" transform="translate(-96.088 -28.69)" fill="#fec692"/>
        <path id="Trazado_821246" data-name="Trazado 821246" d="M127.674,141.068c-.008.192.045.421-.2.5-.22.074-.282-.179-.432-.256l.631-.247" transform="translate(-71.044 -78.886)" fill="#fec692"/>
        <path id="Trazado_821247" data-name="Trazado 821247" d="M220.437,116.2c-.224-.259-.4-.512.1-.666,0,.227.083.465-.1.666" transform="translate(-123.146 -64.606)" fill="#fec692"/>
        <path id="Trazado_821248" data-name="Trazado 821248" d="M217.244,148.2c-.144-.021-.364.093-.4-.117s.121-.313.327-.331c.113.134.074.294.077.447" transform="translate(-121.256 -82.623)" fill="#fec692"/>
        <path id="Trazado_821249" data-name="Trazado 821249" d="M219.324,123.21c-.124-.289-.253-.579.22-.671a.94.94,0,0,1-.22.671" transform="translate(-122.583 -68.525)" fill="#fec692"/>
        <path id="Trazado_821250" data-name="Trazado 821250" d="M187.679,57.523a.234.234,0,0,1-.337.157c-.189-.086-.107-.275-.12-.424a.906.906,0,0,1,.457.268" transform="translate(-104.692 -32.017)" fill="#fec692"/>
        <path id="Trazado_821251" data-name="Trazado 821251" d="M213.139,84.292c-.446.017-.441-.279-.41-.592a.989.989,0,0,1,.41.592" transform="translate(-118.953 -46.806)" fill="#fec692"/>
        <path id="Trazado_821252" data-name="Trazado 821252" d="M73.855,232.076a.578.578,0,0,1-.248.527c-.2-.307.131-.368.248-.527" transform="translate(-41.127 -129.779)" fill="#fec692"/>
        <path id="Trazado_821253" data-name="Trazado 821253" d="M74.613,230.587a.562.562,0,0,1-.258.524c-.137-.285.056-.406.258-.524" transform="translate(-41.554 -128.946)" fill="#fec692"/>
        <path id="Trazado_821254" data-name="Trazado 821254" d="M70.807,238.088c-.028.221-.037.453-.316.522-.126-.314.139-.392.316-.522" transform="translate(-39.4 -133.141)" fill="#fec692"/>
        <path id="Trazado_821255" data-name="Trazado 821255" d="M134.664,140.9c-.212.276-.274.261-.441-.11.176-.081.309.014.441.11" transform="translate(-75.059 -78.714)" fill="#fec692"/>
        <path id="Trazado_821256" data-name="Trazado 821256" d="M217.76,95.477c-.35-.026-.415-.174-.19-.446a.508.508,0,0,1,.19.446" transform="translate(-121.594 -53.142)" fill="#fec692"/>
        <path id="Trazado_821257" data-name="Trazado 821257" d="M79.614,220.577c0,.186-.032.354-.242.419-.189-.3.135-.294.242-.419" transform="translate(-44.353 -123.349)" fill="#fec692"/>
        <path id="Trazado_821258" data-name="Trazado 821258" d="M136.583,141.558c-.063.114-.112.308-.279.2-.136-.09-.025-.208.086-.278l.193.081" transform="translate(-76.187 -79.115)" fill="#fec692"/>
        <path id="Trazado_821259" data-name="Trazado 821259" d="M215.367,132.993c.055-.145-.282-.394.119-.446-.056.145.074.339-.119.446" transform="translate(-120.39 -74.121)" fill="#fec692"/>
        <path id="Trazado_821260" data-name="Trazado 821260" d="M151.226,124.538c.25.064.271.179.075.341a.334.334,0,0,1-.075-.341" transform="translate(-84.559 -69.643)" fill="#fec692"/>
        <path id="Trazado_821261" data-name="Trazado 821261" d="M193.224,61.375c-.041.074-.081.182-.185.112s-.055-.191-.053-.294l.238.182" transform="translate(-107.913 -34.22)" fill="#fec692"/>
        <path id="Trazado_821262" data-name="Trazado 821262" d="M105.613,88.317c.1.155.123.3-.047.427-.236-.17.108-.276.047-.427" transform="translate(-58.987 -49.388)" fill="#735ea3"/>
        <path id="Trazado_821263" data-name="Trazado 821263" d="M220.411,118.363c-.235-.064-.255-.177-.076-.335.175.078.092.214.076.335" transform="translate(-123.147 -66.002)" fill="#fec692"/>
        <path id="Trazado_821264" data-name="Trazado 821264" d="M174.771,229.265a.846.846,0,0,1,.5,0l-.5,0" transform="translate(-97.733 -128.185)" fill="#735ea3"/>
        <path id="Trazado_821265" data-name="Trazado 821265" d="M210.237,207.658c-.015-.172-.042-.352.21-.376a.625.625,0,0,1-.21.376" transform="translate(-117.561 -115.914)" fill="#fec692"/>
        <path id="Trazado_821266" data-name="Trazado 821266" d="M65.86,248.764a.211.211,0,0,1,.118.2c-.2.025-.275-.02-.118-.2" transform="translate(-36.783 -139.111)" fill="#fec692"/>
        <path id="Trazado_821267" data-name="Trazado 821267" d="M141.965,149c-.148-.029-.259-.071-.086-.224.115.042.1.132.086.224" transform="translate(-79.291 -83.197)" fill="#fec692"/>
        <path id="Trazado_821268" data-name="Trazado 821268" d="M78.747,222.58c-.011.075-.012.156-.11.178l-.086,0,.2-.181" transform="translate(-43.926 -124.469)" fill="#fec692"/>
        <path id="Trazado_821269" data-name="Trazado 821269" d="M77.814,224.573c-.007.092-.032.171-.134.2-.042-.125.069-.145.134-.2" transform="translate(-43.434 -125.583)" fill="#fec692"/>
        <path id="Trazado_821270" data-name="Trazado 821270" d="M76.821,226.577c-.007.088-.03.166-.127.2-.047-.123.064-.143.127-.2" transform="translate(-42.882 -126.704)" fill="#fec692"/>
        <path id="Trazado_821271" data-name="Trazado 821271" d="M67.533,245.4a.152.152,0,0,1-.118.164c-.043-.114.059-.124.118-.164" transform="translate(-37.693 -137.23)" fill="#fec692"/>
        <path id="Trazado_821272" data-name="Trazado 821272" d="M105.8,40.323c.086.066.088.132,0,.2l0-.2" transform="translate(-59.167 -22.549)" fill="#735ea3"/>
        <path id="Trazado_821273" data-name="Trazado 821273" d="M105.83,47.324c.081.065.082.131,0,.2v-.2" transform="translate(-59.181 -26.464)" fill="#735ea3"/>
        <path id="Trazado_821274" data-name="Trazado 821274" d="M71.537,237.4a.145.145,0,0,1-.114.164c-.043-.111.054-.125.114-.164" transform="translate(-39.934 -132.757)" fill="#fec692"/>
        <path id="Trazado_821275" data-name="Trazado 821275" d="M100.523,105.283q.034-.1.068-.208c.03.087.039.166-.068.208" transform="translate(-56.213 -58.759)" fill="#735ea3"/>
        <path id="Trazado_821276" data-name="Trazado 821276" d="M176.5,229.295a.13.13,0,0,1,.185.017.124.124,0,0,1-.185-.017" transform="translate(-98.7 -128.206)" fill="#735ea3"/>
        <path id="Trazado_821277" data-name="Trazado 821277" d="M105.768,75.317c.086.064.093.131.007.2,0-.067,0-.134-.007-.2" transform="translate(-59.146 -42.118)" fill="#735ea3"/>
        <path id="Trazado_821278" data-name="Trazado 821278" d="M220.277,153.391l-.068-.1.068.1" transform="translate(-123.143 -85.72)" fill="#fec692"/>
        <path id="Trazado_821279" data-name="Trazado 821279" d="M163.59,150.482l-.077.13c-.028-.075.015-.108.077-.13" transform="translate(-91.433 -84.151)" fill="#fec692"/>
        <path id="Trazado_821280" data-name="Trazado 821280" d="M100.572,95.878l-.04-.111a.521.521,0,0,1,.058.068c0,.007-.011.028-.018.042" transform="translate(-56.218 -53.554)" fill="#735ea3"/>
        <path id="Trazado_821281" data-name="Trazado 821281" d="M122.023,148.541a.422.422,0,0,1,.026.078c0,.007-.023.019-.036.028,0-.035.007-.071.01-.106" transform="translate(-68.231 -83.065)" fill="#fec692"/>
        <path id="Trazado_821282" data-name="Trazado 821282" d="M137.372,141.895l-.146-.088.146.088" transform="translate(-76.738 -79.3)" fill="#fec692"/>
        <path id="Trazado_821283" data-name="Trazado 821283" d="M81.27,195.782l.09.111c-.065-.008-.108-.034-.09-.111" transform="translate(-45.444 -109.483)" fill="#fec692"/>
        <path id="Trazado_821284" data-name="Trazado 821284" d="M203.716,229.62l.122-.087c-.019.059-.045.108-.122.087" transform="translate(-113.92 -128.357)" fill="#fec692"/>
        <path id="Trazado_821285" data-name="Trazado 821285" d="M172.9,52.528l.129.159-.129-.159" transform="translate(-96.685 -29.374)" fill="#fec692"/>
        <path id="Trazado_821286" data-name="Trazado 821286" d="M134.342,50.352c-.018.043-.039.075-.078.017a.061.061,0,0,1,.078-.017" transform="translate(-75.082 -28.153)" fill="#735ea3"/>
        <path id="Trazado_821287" data-name="Trazado 821287" d="M72.582,235.4l-.089.164.089-.164" transform="translate(-40.539 -131.637)" fill="#fec692"/>
        <path id="Trazado_821288" data-name="Trazado 821288" d="M157.989,237.409l.088-.132-.088.132" transform="translate(-88.349 -132.687)" fill="#fec692"/>
        <path id="Trazado_821289" data-name="Trazado 821289" d="M220.981,115.406l0-.035.026.018Z" transform="translate(-123.575 -64.516)" fill="#735ea3"/>
        <path id="Trazado_821290" data-name="Trazado 821290" d="M223.316,159.108l-.086-.135.086.135" transform="translate(-124.832 -88.899)" fill="#fec692"/>
        <path id="Trazado_821291" data-name="Trazado 821291" d="M69.843,240.908l-.082.158.082-.158" transform="translate(-39.011 -134.718)" fill="#fec692"/>
        <path id="Trazado_821292" data-name="Trazado 821292" d="M69.365,241.548l-.087.1c-.019-.075.017-.1.087-.1" transform="translate(-38.738 -135.076)" fill="#fec692"/>
        <path id="Trazado_821293" data-name="Trazado 821293" d="M87.589,158.722l-.093.138.093-.138" transform="translate(-48.929 -88.759)" fill="#fec692"/>
        <path id="Trazado_821294" data-name="Trazado 821294" d="M68.365,243.552l-.086.094c-.019-.074.016-.1.086-.094" transform="translate(-38.179 -136.196)" fill="#fec692"/>
        <path id="Trazado_821295" data-name="Trazado 821295" d="M87.883,158.282l-.078.106.078-.106" transform="translate(-49.101 -88.513)" fill="#fec692"/>
        <path id="Trazado_821296" data-name="Trazado 821296" d="M88.585,156.9l-.084.169.084-.169" transform="translate(-49.491 -87.738)" fill="#fec692"/>
        <path id="Trazado_821297" data-name="Trazado 821297" d="M217.384,147.4a.46.46,0,0,1-.054-.067c0-.006.017-.025.026-.038l.028.105" transform="translate(-121.532 -82.369)" fill="#fec692"/>
        <path id="Trazado_821298" data-name="Trazado 821298" d="M19.549,5.288a4.246,4.246,0,0,1,4.293,3.093c.318,1.1.758,1.331,1.859,1.087,1.484-.329,2.96-.691,4.442-1.026.933-.211.93-.2,1.149.758.188.821.382,1.641.591,2.457a.75.75,0,0,1-.416,1.017,6.34,6.34,0,0,0-3.581,5.094,6.92,6.92,0,0,0,5.022,7.566,4.264,4.264,0,0,0,1.68.221c.4-.054.537.141.616.482.329,1.421.669,2.84,1.005,4.26.079.333.019.538-.377.625-1.3.285-2.6.61-3.9.91-.31.072-.491-.074-.627-.369a6.062,6.062,0,0,0-4.318-3.516,6.888,6.888,0,0,0-8.444,5.241,6.277,6.277,0,0,0-.05,1.373c.005.292-.092.413-.384.478-1.3.294-2.6.6-3.9.936-.38.1-.5-.06-.574-.373-.443-1.884-.879-3.77-1.34-5.65-.193-.789-.492-1.1-1.5-.985-3.48.412-5.6-1.991-5.505-4.707a4.346,4.346,0,0,1,2.741-3.99c.366-.167.756-.282,1.121-.451a.829.829,0,0,0,.5-1c-.309-1.461-.631-2.92-.947-4.38-.011-.054-.013-.11-.026-.163-.2-.815-.13-.874.745-1.06,1.5-.32,3.005-.659,4.5-1.039,1.051-.268,1.244-.649,1.079-1.727a4.361,4.361,0,0,1,4.55-5.165" transform="translate(-2.958 -2.95)" fill="#735ea3"/>
        <path id="Trazado_821299" data-name="Trazado 821299" d="M217.674,112.055c.045-.2-.055-.434.2-.442.21-.007.239.178.257.353.035.351-.118.736.182,1.044a.152.152,0,0,1-.023.145c-.091.083-.162,0-.233-.052-.382-.283-.219-.746-.384-1.047" transform="translate(-121.725 -62.415)" fill="#fec692"/>
        <path id="Trazado_821300" data-name="Trazado 821300" d="M174.777,227.591c-.22-.1-.644.14-.654-.171s.41-.157.633-.164.634-.148.637.186c0,.255-.4.065-.617.148" transform="translate(-97.371 -127.064)" fill="#fec692"/>
        <path id="Trazado_821301" data-name="Trazado 821301" d="M174.05,73.027a1.09,1.09,0,0,0-.259.78.159.159,0,0,1-.149.188c-.108.006-.16-.074-.165-.171-.016-.342-.056-.7.573-.8" transform="translate(-97.006 -40.837)" fill="#fec692"/>
        <path id="Trazado_821302" data-name="Trazado 821302" d="M211.825,135.9c.1.266.325.529.028.781a.186.186,0,0,1-.283-.066c-.175-.309.1-.492.254-.715" transform="translate(-118.28 -75.997)" fill="#fec692"/>
        <path id="Trazado_821303" data-name="Trazado 821303" d="M188.041,60.017a.631.631,0,0,1-.027-.61c.065-.164.164-.412.363-.3.249.137-.028.27-.111.361-.141.155,0,.4-.225.551" transform="translate(-105.102 -33.037)" fill="#fec692"/>
        <path id="Trazado_821304" data-name="Trazado 821304" d="M161.015,112.211c-.228.372-.453.25-.665.164-.1-.041-.133-.165-.059-.218.232-.165.431.075.724.054" transform="translate(-89.614 -62.687)" fill="#fec692"/>
        <path id="Trazado_821305" data-name="Trazado 821305" d="M206.071,220.874a1.236,1.236,0,0,1,.019.981,1.24,1.24,0,0,1-.019-.981" transform="translate(-115.187 -123.515)" fill="#fec692"/>
        <path id="Trazado_821306" data-name="Trazado 821306" d="M166.044,78.64c-.011.152-.076.242-.2.228s-.27-.051-.272-.21c0-.1.049-.235.167-.251.177-.026.231.138.309.234" transform="translate(-92.587 -43.844)" fill="#fec692"/>
        <path id="Trazado_821307" data-name="Trazado 821307" d="M216.294,124.491c-.008.1,0,.25-.15.227s-.179-.162-.174-.3c0-.1-.027-.253.122-.25.19,0,.192.175.2.319" transform="translate(-120.772 -69.438)" fill="#fec692"/>
        <path id="Trazado_821308" data-name="Trazado 821308" d="M177.566,54.968c-.122-.032-.255-.063-.288-.2s.065-.191.188-.195.26.038.289.186c.026.13-.064.193-.188.213" transform="translate(-99.132 -30.515)" fill="#fec692"/>
        <path id="Trazado_821309" data-name="Trazado 821309" d="M143.869,154.166a1.118,1.118,0,0,1,.83-.08c-.278.246-.493.18-.83.08" transform="translate(-80.453 -86.143)" fill="#fec692"/>
        <path id="Trazado_821310" data-name="Trazado 821310" d="M158.8,129.358c-.112-.021-.224-.066-.206-.2.02-.148.159-.111.26-.114s.2.025.186.137-.118.171-.239.174" transform="translate(-88.686 -72.163)" fill="#fec692"/>
        <path id="Trazado_821311" data-name="Trazado 821311" d="M73.671,167.1a.718.718,0,0,1-.722.1c.25-.227.427-.156.722-.1" transform="translate(-40.794 -93.413)" fill="#fec692"/>
        <path id="Trazado_821312" data-name="Trazado 821312" d="M152.449,242.627c.026.03.091.073.107.129a.082.082,0,0,1-.118.1.26.26,0,0,1-.118-.149c-.017-.052.03-.092.129-.082" transform="translate(-85.177 -135.678)" fill="#fec692"/>
        <path id="Trazado_821313" data-name="Trazado 821313" d="M190.689,62.8c.05.035.113.055.122.089.023.091-.052.117-.121.108a.131.131,0,0,1-.091-.089c0-.032.053-.066.09-.108" transform="translate(-106.585 -35.117)" fill="#fec692"/>
        <path id="Trazado_821314" data-name="Trazado 821314" d="M163.671,130.53c-.03-.013-.076-.019-.085-.041s.021-.058.033-.088c.03.013.077.019.085.041s-.021.058-.034.088" transform="translate(-91.478 -72.921)" fill="#fec692"/>
        <path id="Trazado_821315" data-name="Trazado 821315" d="M71.72,247.159c-.013.03-.02.076-.042.085s-.058-.022-.087-.035c.013-.03.019-.076.041-.085s.058.022.088.035" transform="translate(-40.034 -138.193)" fill="#fec692"/>
        <path id="Trazado_821316" data-name="Trazado 821316" d="M162.852,111.648l.089.039c-.013.03-.019.077-.041.085s-.058-.021-.088-.034l.039-.09" transform="translate(-91.046 -62.435)" fill="#fec692"/>
        <path id="Trazado_821317" data-name="Trazado 821317" d="M123.967,148.429c-.013.03-.019.076-.041.085s-.058-.021-.088-.034c.013-.03.019-.077.041-.085s.058.021.088.034" transform="translate(-69.251 -82.983)" fill="#fec692"/>
        <path id="Trazado_821318" data-name="Trazado 821318" d="M203.455,72.189c-.013.03-.019.076-.041.085s-.058-.021-.088-.034c.013-.03.019-.077.041-.085s.058.021.088.034" transform="translate(-113.702 -40.349)" fill="#fec692"/>
      </g>
    </g>
  </g>
</svg>
