<svg xmlns="http://www.w3.org/2000/svg" xmlns:xlink="http://www.w3.org/1999/xlink" width="190" height="190" viewBox="0 0 190 190">
  <defs>
    <clipPath id="clip-path">
      <rect id="Rect치ngulo_377585" data-name="Rect치ngulo 377585" width="190" height="190" transform="translate(1125 2520.811)" fill="#fff" stroke="#707070" stroke-width="1"/>
    </clipPath>
    <clipPath id="clip-path-2">
      <rect id="Rect치ngulo_377591" data-name="Rect치ngulo 377591" width="173.333" height="173.329" fill="none"/>
    </clipPath>
  </defs>
  <g id="Enmascarar_grupo_349" data-name="Enmascarar grupo 349" transform="translate(-1125 -2520.811)" clip-path="url(#clip-path)">
    <g id="Grupo_1073318" data-name="Grupo 1073318" transform="translate(1133 2528.81)">
      <g id="Grupo_1073318-2" data-name="Grupo 1073318" clip-path="url(#clip-path-2)">
        <path id="Trazado_820836" data-name="Trazado 820836" d="M97.966,98.584c0,2.516.116,5.039-.046,7.543a17.681,17.681,0,0,1-4.935,10.119,15.892,15.892,0,0,1-8.562,4.134c-2,.265-4.051.166-5.987.87a11.046,11.046,0,0,0-3.97,2.556c-.947.927-1.86,1.889-2.806,2.818a3.509,3.509,0,0,1-1.889,1.182,2.453,2.453,0,0,1-2.5-1.021,2.241,2.241,0,0,1-.07-2.624c1.027-1.341,2.366-2.386,3.48-3.636a13.378,13.378,0,0,1,4.713-3.418,16.908,16.908,0,0,1,5.287-1.357,16.207,16.207,0,0,0,5.183-.821,10.507,10.507,0,0,0,5.353-4.359,12.934,12.934,0,0,0,1.645-6.421c-.035-3.356.09-6.716-.022-10.068a16.143,16.143,0,0,1,2.584-8.812,14.943,14.943,0,0,1,3.149-3.539,14.192,14.192,0,0,1,5.611-2.893,13.77,13.77,0,0,1,4.505-.631,11.03,11.03,0,0,0,6.431-2.092,16.278,16.278,0,0,0,2.454-2.376c.34-.338.207-.631-.055-.957a28.546,28.546,0,0,1-6.18-13.479,43.592,43.592,0,0,1-.421-5.763c-.12-4.429,1.184-8.426,2.923-12.365a19.946,19.946,0,0,1,2.353-4.043c.549-.719.342-1.035-.154-1.465a26.447,26.447,0,0,1-2.7-2.751,2.4,2.4,0,0,1,1.383-4.039,2.265,2.265,0,0,1,2.062.593c.89.864,1.789,1.721,2.648,2.615.4.418.639.535,1.113.022,1.31-1.42,2.68-2.788,4.071-4.13.366-.353.281-.525-.007-.8-.893-.862-1.81-1.7-2.653-2.609a2.424,2.424,0,0,1,.672-4.035,2.324,2.324,0,0,1,2.685.459c.956.874,1.878,1.791,2.768,2.733.348.368.523.3.831-.018q2.082-2.141,4.207-4.238c.336-.33.339-.527,0-.849-.88-.834-1.724-1.705-2.587-2.556a3.554,3.554,0,0,1-.6-.893c-.69-1.279-.111-2.2.83-2.987a2.65,2.65,0,0,1,3.034.186c.934.857,1.844,1.747,2.692,2.689.435.483.734.385,1.082,0,1.168-1.291,2.556-2.365,3.669-3.714.741-.9.767-.874-.063-1.709-.7-.7-1.372-1.42-2.086-2.1a2.394,2.394,0,0,1-.2-3.479,2.465,2.465,0,0,1,3.634-.058,28.686,28.686,0,0,1,2.662,2.668.519.519,0,0,0,.853.059,27.951,27.951,0,0,1,9.792-5.255A28.374,28.374,0,0,1,167.662.206a25.637,25.637,0,0,1,7.509,1.722,29.158,29.158,0,0,1,7.135,3.666,29.926,29.926,0,0,1,10.571,13.97,30.8,30.8,0,0,1,1.768,8.115c.562,6.255-1.093,11.984-4.024,17.42a20.148,20.148,0,0,1-2.43,3.526c-.354.414-.4.6.054,1.062a20.443,20.443,0,0,1,2.892,3.122c.637,1,.549,2.261-.8,3.37a2.25,2.25,0,0,1-2.856-.281c-.838-.837-1.685-1.666-2.506-2.52-.41-.426-.727-.584-1.221-.056-.9.959-1.872,1.851-2.812,2.771-.221.217-.433.444-.66.656-1.091,1.022-1.092,1.02-.061,2.048.639.637,1.283,1.27,1.912,1.917a2.485,2.485,0,0,1-2.292,4.279,1.769,1.769,0,0,1-.89-.582,17.124,17.124,0,0,1-2.793-2.751c-.263-.428-.483-.329-.838-.032-1.512,1.262-2.709,2.838-4.187,4.13-.363.317-.472.649,0,1.075.9.808,1.732,1.7,2.586,2.558a2.451,2.451,0,0,1-3.278,3.64c-.952-.879-1.857-1.812-2.751-2.751-.35-.368-.516-.452-.978-.046-1.455,1.28-2.694,2.774-4.136,4.061-.424.379-.261.662.06.979q1.175,1.159,2.336,2.331a2.715,2.715,0,0,1,.89,2.5,2.083,2.083,0,0,1-1.367,1.728,2.188,2.188,0,0,1-2.461-.243,26.429,26.429,0,0,1-2.966-2.861c-.564-.667-.975-.507-1.511-.11a24.447,24.447,0,0,1-5.735,3.112,30.974,30.974,0,0,1-9.467,2.113,36.052,36.052,0,0,1-5.518-.109,29.334,29.334,0,0,1-6.271-1.5,24.792,24.792,0,0,1-6.59-3.492c-.7-.494-1.4-.989-2.123-1.448a.81.81,0,0,0-1.1.194,23.012,23.012,0,0,1-2.872,2.706,20.986,20.986,0,0,1-5.028,2.408c-2.2.779-4.548.4-6.779.937a10.7,10.7,0,0,0-6.62,4.84,8.724,8.724,0,0,0-1.507,5.462c.093,1.575.018,3.158.018,4.738m42.678-19.706a23.016,23.016,0,0,0,8.026-1.257A24.386,24.386,0,0,0,158.2,71.7c2.688-2.7,5.391-5.38,8.076-8.079q8.276-8.318,16.547-16.64a23.358,23.358,0,0,0,6.32-11.746,21.662,21.662,0,0,0,.463-7.3,27.634,27.634,0,0,0-1.336-6.477c-2.884-7.569-8.1-12.763-15.909-15.206a24.1,24.1,0,0,0-5.194-1.027,22.3,22.3,0,0,0-4.421-.024,27.167,27.167,0,0,0-4.2.643,25.78,25.78,0,0,0-11.676,6.908c-7.6,7.717-15.3,15.337-22.955,23a30.578,30.578,0,0,0-4.365,5.2,24.108,24.108,0,0,0-3.25,8.334,19.088,19.088,0,0,0-.431,6.361,36.164,36.164,0,0,0,1.071,5.705,24.726,24.726,0,0,0,23.706,17.523" transform="translate(-21.42 -0.016)" fill="#060708"/>
        <path id="Trazado_820837" data-name="Trazado 820837" d="M.006,26.844a26.734,26.734,0,0,1,5.749-16.1A27.3,27.3,0,0,1,17.262,1.967,29.639,29.639,0,0,1,24.347.146,16.651,16.651,0,0,1,30.536.5,10.021,10.021,0,0,1,36.89,5.613a10.434,10.434,0,0,1,1.336,5.395,9.744,9.744,0,0,1-1.414,4.958,10.559,10.559,0,0,1-7.366,5.319c-.974.183-1.984.252-2.977.349a5.423,5.423,0,0,0-3.783,2.2,5.607,5.607,0,0,0-1.307,3.772c.213,5.212-3.978,9.156-8.052,10.29A10.539,10.539,0,0,1,1.17,32.126,11.109,11.109,0,0,1,.006,26.844m5.116.014c0,.4-.006.789,0,1.185a5.761,5.761,0,0,0,4.689,5.1c3.66.294,6.53-1.719,6.647-5.918a10.716,10.716,0,0,1,2.268-6.348,11.082,11.082,0,0,1,8.761-4.47,5.715,5.715,0,0,0,4.55-2.157,5.8,5.8,0,0,0,1.007-4.071,5.663,5.663,0,0,0-4.325-4.963,14.221,14.221,0,0,0-5.5.255,22.292,22.292,0,0,0-18.1,21.387" transform="translate(0 0)" fill="#060708"/>
        <path id="Trazado_820838" data-name="Trazado 820838" d="M51.9,112.569c-.214-1.521.329-2.8,1.8-3.164,3.793-.924,8.542-1.084,11.784,2.758a9.121,9.121,0,0,1,2.02,8.7,9.466,9.466,0,0,1-8.059,7.249,16.711,16.711,0,0,0-2.787.355,4.844,4.844,0,0,0-3.187,4.179,10.2,10.2,0,0,1-2.631,6.9,9.723,9.723,0,0,1-12.416,1.426,9.616,9.616,0,0,1-4.086-6.191c-.617-2.995.042-5.907.88-8.744a24.332,24.332,0,0,1,6.8-10.715c.963-.921,2.338-1.083,3.772.181a2.827,2.827,0,0,1-.629,3.715,6.8,6.8,0,0,0-.6.6A19.2,19.2,0,0,0,40,127.626a27.591,27.591,0,0,0-.738,4.016c-.5,3.308,1.65,6.041,4.676,5.851a4.45,4.45,0,0,0,4.431-4.359,9.341,9.341,0,0,1,1.219-4.7c1.723-2.981,4.172-4.937,7.753-5.2a10.08,10.08,0,0,0,2.533-.428c1.639-.565,3.087-1.893,2.922-4.833a4.565,4.565,0,0,0-3.232-3.705,9.6,9.6,0,0,0-3.666-.076c-1.536.207-2.915.189-3.785-1.363a1.938,1.938,0,0,0-.207-.257" transform="translate(-10.934 -34.905)" fill="#060708"/>
        <path id="Trazado_820839" data-name="Trazado 820839" d="M79.161,46.229c-3.293.31-7.231-2.889-8.139-6.756a8.13,8.13,0,0,1,2.149-7.511,4.584,4.584,0,0,0,1.2-4.624,4.719,4.719,0,0,0-1.245-1.783A7.99,7.99,0,0,1,70.845,19.4a8.674,8.674,0,0,1,5.281-7.558,8.879,8.879,0,0,1,10.447,2.693,28.933,28.933,0,0,1,3.844,6.19,20.2,20.2,0,0,1,1.43,6.109,20.721,20.721,0,0,1-.046,4.326,22.094,22.094,0,0,1-1.993,6.906,20.855,20.855,0,0,1-3.088,4.738,9.4,9.4,0,0,1-7.559,3.422M86.98,28.5a19.622,19.622,0,0,0-.231-2.259,16.563,16.563,0,0,0-4.012-8.555,4.221,4.221,0,0,0-3.668-1.445A3.681,3.681,0,0,0,76,20.434a6.478,6.478,0,0,0,1.566,2.627,8.873,8.873,0,0,1-.105,11.473,12.735,12.735,0,0,0-.851,1.05,3.151,3.151,0,0,0-.7,2.414,3.788,3.788,0,0,0,2.41,3.1,3.728,3.728,0,0,0,4.1-1.064A16.431,16.431,0,0,0,86.98,28.5" transform="translate(-22.705 -3.568)" fill="#060708"/>
        <path id="Trazado_820840" data-name="Trazado 820840" d="M8.214,103.722c-4.292.329-6.958-2.858-7.873-5.95a7.71,7.71,0,0,1,5.873-9.789c1.137-.274,2.359-.115,3.428-.728A2.885,2.885,0,0,0,11.2,84.744c.185-3.8,2.165-7.041,6.35-8.071A7.99,7.99,0,0,1,25.7,79.753a9.185,9.185,0,0,1,1.446,6.422,19.9,19.9,0,0,1-2.965,8.859,19.306,19.306,0,0,1-10.913,8,15.732,15.732,0,0,1-5.054.69m.45-5.1a9.719,9.719,0,0,0,1.749-.165,13.888,13.888,0,0,0,7.816-3.995,14.2,14.2,0,0,0,3.923-8.566,5.182,5.182,0,0,0-.093-2.263A2.961,2.961,0,0,0,19,81.587a3.055,3.055,0,0,0-2.656,2.858c-.059.531-.029,1.077-.137,1.6-.725,3.488-3.48,6.645-8.478,6.884a2.778,2.778,0,0,0-2.507,3.41c.4,1.61,1.457,2.311,3.443,2.285" transform="translate(0 -24.523)" fill="#060708"/>
        <path id="Trazado_820841" data-name="Trazado 820841" d="M225.191,194.84c-2.539,0-5.082-.1-7.613.035a7.049,7.049,0,0,1-4.586-1.306,8.418,8.418,0,0,1-3.308-4.518,7.724,7.724,0,0,1,1.783-7.747,8.987,8.987,0,0,1,2.808-1.882,6.141,6.141,0,0,1,2.833-.533c5.105-.04,10.211-.059,15.316-.018a7.817,7.817,0,0,1,4.857,1.658,7.709,7.709,0,0,1,3.034,5.988c.186,4.436-2.693,6.933-5.611,8.011a9.682,9.682,0,0,1-3.334.329c-2.059.006-4.118,0-6.177,0Zm-.352-5.113v.043q3.382,0,6.765,0a4.434,4.434,0,0,0,2.5-.553,2.955,2.955,0,0,0-1.838-5.271q-7.526-.022-15.052,0a2.926,2.926,0,0,0-2.671,3.867,2.589,2.589,0,0,0,2.522,1.9c2.592.041,5.185.012,7.778.012" transform="translate(-67.115 -57.35)" fill="#060708"/>
        <path id="Trazado_820842" data-name="Trazado 820842" d="M144.806,216.363c-2.791,0-5.583.042-8.372-.018a6.152,6.152,0,0,1-3.766-1.583,8.487,8.487,0,0,1-3.173-5.371,7.821,7.821,0,0,1,.4-3.969,7.388,7.388,0,0,1,5.328-4.812,9.376,9.376,0,0,1,2.373-.327c4.88,0,9.761-.058,14.639.02a7.644,7.644,0,0,1,7.662,5.446,7.834,7.834,0,0,1-5.437,10.306,9.115,9.115,0,0,1-2.544.293c-2.369-.01-4.738,0-7.108,0v.019m-.146-5.086v.006c2.341,0,4.682-.007,7.023,0a5.77,5.77,0,0,0,1.577-.207,2.873,2.873,0,0,0,2.024-2.448,2.824,2.824,0,0,0-1.752-2.975,5.578,5.578,0,0,0-1.971-.288q-6.768,0-13.538,0a8.819,8.819,0,0,0-1.1.051,2.958,2.958,0,0,0-2.461,3.439,3.074,3.074,0,0,0,2.918,2.417c2.425-.013,4.851,0,7.276,0" transform="translate(-41.494 -64.216)" fill="#060708"/>
        <path id="Trazado_820843" data-name="Trazado 820843" d="M191.022,197.059c2.851-.161,4.927,1.156,6.75,2.984,3.359,3.368,6.755,6.7,10.02,10.161a7.889,7.889,0,0,1-.924,11.759,8.691,8.691,0,0,1-6.164,1.619,6.208,6.208,0,0,1-3.678-1.719c-3-2.9-5.871-5.937-8.848-8.863-.882-.867-1.734-1.757-2.575-2.66a7.858,7.858,0,0,1,3.1-12.95,5.007,5.007,0,0,1,2.318-.329m.437,5.067a2.926,2.926,0,0,0-2.859,1.837,2.4,2.4,0,0,0,.444,2.746,9.035,9.035,0,0,0,.973,1.056c1.421,1.411,2.851,2.812,4.272,4.222,1.922,1.906,3.821,3.836,5.765,5.719a2.837,2.837,0,0,0,2.706.729,2.925,2.925,0,0,0,1.255-4.934c-3.543-3.474-7.013-7.023-10.52-10.535a2.463,2.463,0,0,0-2.035-.84" transform="translate(-58.789 -63.179)" fill="#060708"/>
        <path id="Trazado_820844" data-name="Trazado 820844" d="M60.884,86.155a6.859,6.859,0,0,1-5.578-2.2C51.69,80.39,48.1,76.8,44.494,73.229a7.5,7.5,0,0,1-2.312-6.287,7.853,7.853,0,0,1,7.645-7.2,8.438,8.438,0,0,1,6.412,2.648c2.344,2.48,4.782,4.872,7.233,7.245a29.992,29.992,0,0,1,4.073,4.447A8.042,8.042,0,0,1,62.459,86.1c-.6.109-1.177.005-1.575.06m2.769-7.905a2.72,2.72,0,0,0-.368-1.427,12.76,12.76,0,0,0-2-2.263c-1.488-1.472-3.037-2.89-4.518-4.359-1.507-1.5-3-3.022-4.455-4.577a2.949,2.949,0,0,0-2.26-.879,2.889,2.889,0,0,0-1.95,4.961c1.2,1.149,2.347,2.353,3.522,3.527,2.372,2.37,4.735,4.747,7.126,7.1a2.742,2.742,0,0,0,3.353.55,2.663,2.663,0,0,0,1.547-2.628" transform="translate(-13.512 -19.157)" fill="#060708"/>
        <path id="Trazado_820845" data-name="Trazado 820845" d="M216.762,149.49a7.158,7.158,0,0,1-2.287,5.539c-3.617,3.637-7.184,7.329-10.9,10.862a7.683,7.683,0,0,1-10.656.1,8.221,8.221,0,0,1-2.719-5.757,7.5,7.5,0,0,1,1.149-4.01,10.34,10.34,0,0,1,1.8-2.374c3.337-3.321,6.622-6.695,10.013-9.96a7.891,7.891,0,0,1,5.4-2.4,7.747,7.747,0,0,1,8.205,8m-8.143-2.938a2.744,2.744,0,0,0-2.048,1.078c-1.286,1.264-2.548,2.554-3.821,3.831-2.168,2.176-4.372,4.319-6.5,6.535-1.622,1.689-1.158,3.816.959,4.789a3.13,3.13,0,0,0,3.545-.993q4.456-4.454,8.9-8.916a18.776,18.776,0,0,0,1.612-1.728,2.626,2.626,0,0,0,.287-2.933,2.961,2.961,0,0,0-2.937-1.663" transform="translate(-60.986 -45.37)" fill="#060708"/>
        <path id="Trazado_820846" data-name="Trazado 820846" d="M54.306,114.322a1.936,1.936,0,0,1,.207.257c.87,1.552,2.249,1.569,3.785,1.363a9.6,9.6,0,0,1,3.666.076,4.565,4.565,0,0,1,3.232,3.705c.165,2.941-1.283,4.268-2.922,4.833a10.08,10.08,0,0,1-2.533.428c-3.581.266-6.03,2.222-7.753,5.2a9.341,9.341,0,0,0-1.219,4.7,4.45,4.45,0,0,1-4.431,4.359c-3.026.19-5.173-2.543-4.676-5.851a27.59,27.59,0,0,1,.738-4.016,19.2,19.2,0,0,1,4.574-7.811,6.8,6.8,0,0,1,.6-.6,2.827,2.827,0,0,0,.629-3.715,27.448,27.448,0,0,1,4.192-2.31c.63-.244,1.269-.44,1.916-.622" transform="translate(-13.336 -36.659)" fill="#8bcfea"/>
        <path id="Trazado_820847" data-name="Trazado 820847" d="M163.869,157.432a2.893,2.893,0,0,1-2.348-2.182,9.547,9.547,0,0,1,.069-3.43,7.715,7.715,0,0,1,5.2-5.685,7.946,7.946,0,0,1,10.162,5.075,12.514,12.514,0,0,1,.5,3.881q-.019,6.515,0,13.03a9.129,9.129,0,0,1-.93,4.325,8.092,8.092,0,0,1-4.23,3.733,7.708,7.708,0,0,1-6.695-.348,8.217,8.217,0,0,1-3.933-5.215,11.387,11.387,0,0,1-.127-4.5,2.528,2.528,0,0,1,2.2-1.983c1.668.1,2.235.622,2.673,2.294a13.22,13.22,0,0,1,.111,2.34,2.729,2.729,0,0,0,.435,1.668,2.949,2.949,0,0,0,3.463,1.071,2.823,2.823,0,0,0,1.889-2.957c0-4.732-.01-9.465.007-14.2a3.035,3.035,0,0,0-1.721-3.129,2.791,2.791,0,0,0-3.834,1.327,5.861,5.861,0,0,0-.389,2.119,2.564,2.564,0,0,1-2.506,2.761" transform="translate(-51.751 -46.728)" fill="#060708"/>
        <path id="Trazado_820848" data-name="Trazado 820848" d="M96.892,201.041a7.816,7.816,0,0,1,8.139,7.81c.057,4.607-3.376,7.939-8.109,8.089a7.89,7.89,0,0,1-7.929-7.653,8.024,8.024,0,0,1,7.9-8.247m2.943,8.066c-.014-2.058-1.02-3.006-3.17-2.988a2.765,2.765,0,0,0-2.575,2.892,2.882,2.882,0,0,0,2.971,2.912c1.261.033,3.088-1.145,2.774-2.816" transform="translate(-28.536 -64.465)" fill="#060708"/>
        <path id="Trazado_820849" data-name="Trazado 820849" d="M66.6,231.682a7.735,7.735,0,0,1,8.157,7.276,8.083,8.083,0,0,1-8.029,8.658c-4.272.06-7.945-3.978-7.93-8.323.013-3.789,3.91-7.892,7.8-7.611m3.071,8.1a2.834,2.834,0,0,0-2.923-3.07,2.907,2.907,0,0,0-2.976,2.92,2.983,2.983,0,0,0,3.02,2.88,2.723,2.723,0,0,0,2.878-2.73" transform="translate(-18.853 -74.287)" fill="#060708"/>
        <path id="Trazado_820850" data-name="Trazado 820850" d="M24.169,172.214a7.889,7.889,0,0,1-7.924,7.861c-4.351.148-8.2-3.917-8-8.376a7.965,7.965,0,0,1,15.92.514m-5.048-.135a2.568,2.568,0,0,0-2.6-2.855c-1.827-.013-3.262,1.17-3.166,2.732a3,3,0,0,0,2.989,3.069,2.823,2.823,0,0,0,2.781-2.946" transform="translate(-2.643 -52.621)" fill="#060708"/>
        <path id="Trazado_820851" data-name="Trazado 820851" d="M112.878,76.361c.268,4.291-3.586,8.015-8.011,8.077a8,8,0,1,1,.623-15.977c3.742.268,7.573,3.655,7.388,7.9m-7.867-2.806c-1.464-.272-3.045,1.427-2.963,2.861a2.921,2.921,0,0,0,3.29,2.909,2.89,2.89,0,0,0-.327-5.77" transform="translate(-31.083 -21.946)" fill="#060708"/>
        <path id="Trazado_820852" data-name="Trazado 820852" d="M133.965,156.184c4.669-.371,8.242,3.75,8.143,8.223-.1,4.454-4.06,7.755-8.627,7.672-3.5-.063-7.294-3.7-7.3-8-.008-3.734,3.3-8.253,7.789-7.894m.173,5.078a2.694,2.694,0,0,0-2.9,2.784,2.954,2.954,0,0,0,3.02,2.969,3.009,3.009,0,0,0,2.944-2.972c.016-1.263-1.41-3.113-3.06-2.781" transform="translate(-40.46 -50.075)" fill="#060708"/>
        <path id="Trazado_820853" data-name="Trazado 820853" d="M39.121,216.363c.194,4.105-3.586,8.222-8.666,8.042-3.293-.117-7.469-3.749-7.255-8.456.166-3.643,3.736-7.24,7.1-7.5,5.666-.442,9.1,4.249,8.823,7.915m-5.079.144a2.706,2.706,0,0,0-2.948-2.972,2.81,2.81,0,0,0-2.821,2.922,2.937,2.937,0,0,0,2.912,2.9c1.48.038,3.177-1.325,2.857-2.845" transform="translate(-7.437 -66.832)" fill="#060708"/>
        <path id="Trazado_820854" data-name="Trazado 820854" d="M164.982,159.886a2.564,2.564,0,0,0,2.506-2.762,5.86,5.86,0,0,1,.389-2.119,2.792,2.792,0,0,1,3.834-1.327,3.035,3.035,0,0,1,1.721,3.129c-.017,4.732-.006,9.465-.007,14.2a2.823,2.823,0,0,1-1.889,2.957,2.949,2.949,0,0,1-3.463-1.071,2.729,2.729,0,0,1-.435-1.668,13.219,13.219,0,0,0-.111-2.34c-.437-1.672-1-2.194-2.673-2.294a.659.659,0,0,0,.291-.558c-.06-2.048.09-4.1-.166-6.144" transform="translate(-52.863 -49.182)" fill="#ffd65d"/>
        <path id="Trazado_820855" data-name="Trazado 820855" d="M163.749,81.265a24.729,24.729,0,0,1-23.706-17.524,36.086,36.086,0,0,1-1.071-5.705,19.087,19.087,0,0,1,.431-6.361,24.106,24.106,0,0,1,3.25-8.335,30.605,30.605,0,0,1,4.365-5.2c7.658-7.66,15.355-15.28,22.955-23a25.77,25.77,0,0,1,11.676-6.908,27.156,27.156,0,0,1,4.2-.644,22.3,22.3,0,0,1,4.421.024,24.082,24.082,0,0,1,5.193,1.027c7.814,2.444,13.026,7.637,15.909,15.206a27.6,27.6,0,0,1,1.336,6.478,21.681,21.681,0,0,1-.463,7.3,23.359,23.359,0,0,1-6.32,11.745q-8.246,8.349-16.547,16.64c-2.685,2.7-5.388,5.382-8.076,8.079a24.378,24.378,0,0,1-9.528,5.921,23.036,23.036,0,0,1-8.026,1.259m3.022-52.273a2.876,2.876,0,0,0-3.893.579q-6.223,6.223-12.444,12.448a20.838,20.838,0,0,0-6.308,14.015,17,17,0,0,0,1.073,6.541,18.507,18.507,0,0,0,4.24,7.123c4.808,4.973,10.6,7.236,17.5,6.116a21.114,21.114,0,0,0,11.668-6.426q5.911-5.952,11.846-11.88c3.849-3.846,7.742-7.649,11.558-11.528a19.374,19.374,0,0,0,5.551-12.462,17.965,17.965,0,0,0-1.358-8.428c-3.081-7.306-8.641-11.3-16.513-12.23a18.358,18.358,0,0,0-7.077.666c-4.469,1.215-7.919,3.937-10.886,7.359-1.007,1.162-.948,2.129.083,3.458a34.069,34.069,0,0,0-3.784,3.717,3.2,3.2,0,0,1-1.258.931" transform="translate(-44.525 -2.401)" fill="#cdd988"/>
        <path id="Trazado_820856" data-name="Trazado 820856" d="M7.539,29.237A22.292,22.292,0,0,1,25.642,7.85a14.221,14.221,0,0,1,5.5-.255,5.663,5.663,0,0,1,4.325,4.963,5.8,5.8,0,0,1-1.007,4.071,5.715,5.715,0,0,1-4.55,2.157,11.082,11.082,0,0,0-8.761,4.47A10.716,10.716,0,0,0,18.876,29.6c-.117,4.2-2.986,6.213-6.647,5.918a5.761,5.761,0,0,1-4.689-5.1c-.007-.4,0-.789,0-1.185" transform="translate(-2.417 -2.38)" fill="#8bcfea"/>
        <path id="Trazado_820857" data-name="Trazado 820857" d="M89.37,30.908a16.432,16.432,0,0,1-4.556,11.533,3.728,3.728,0,0,1-4.1,1.064,3.788,3.788,0,0,1-2.41-3.1,3.151,3.151,0,0,1,.7-2.414,12.733,12.733,0,0,1,.851-1.05,8.873,8.873,0,0,0,.105-11.473,6.478,6.478,0,0,1-1.566-2.627,3.681,3.681,0,0,1,3.066-4.194,4.221,4.221,0,0,1,3.668,1.445,16.563,16.563,0,0,1,4.012,8.555,19.62,19.62,0,0,1,.231,2.259" transform="translate(-25.095 -5.977)" fill="#8bcfea"/>
        <path id="Trazado_820858" data-name="Trazado 820858" d="M11.091,101.024c-1.986.026-3.041-.675-3.443-2.285a2.779,2.779,0,0,1,2.507-3.411c5-.239,7.753-3.4,8.478-6.884.108-.519.077-1.065.137-1.6a3.054,3.054,0,0,1,2.656-2.857,2.961,2.961,0,0,1,3.06,2.043,5.182,5.182,0,0,1,.093,2.263,14.2,14.2,0,0,1-3.923,8.566,13.894,13.894,0,0,1-7.816,4,9.845,9.845,0,0,1-1.749.166" transform="translate(-2.427 -26.928)" fill="#8bcfea"/>
        <path id="Trazado_820859" data-name="Trazado 820859" d="M227.237,192.127c-2.592,0-5.185.029-7.778-.012a2.589,2.589,0,0,1-2.522-1.9,2.926,2.926,0,0,1,2.671-3.867q7.525-.026,15.052,0a2.955,2.955,0,0,1,1.838,5.271,4.433,4.433,0,0,1-2.5.553q-3.382,0-6.765,0v-.043" transform="translate(-69.512 -59.75)" fill="#ffd65d"/>
        <path id="Trazado_820860" data-name="Trazado 820860" d="M147.034,213.689c-2.425,0-4.851-.01-7.276,0a3.074,3.074,0,0,1-2.918-2.417,2.958,2.958,0,0,1,2.461-3.439,8.819,8.819,0,0,1,1.1-.051q6.769,0,13.538,0a5.577,5.577,0,0,1,1.971.288,2.824,2.824,0,0,1,1.752,2.975,2.874,2.874,0,0,1-2.024,2.448,5.77,5.77,0,0,1-1.577.207c-2.341-.012-4.682,0-7.023,0Z" transform="translate(-43.868 -66.628)" fill="#ffd65d"/>
        <path id="Trazado_820861" data-name="Trazado 820861" d="M193.816,204.525a2.463,2.463,0,0,1,2.035.84c3.507,3.512,6.977,7.06,10.52,10.535a2.925,2.925,0,0,1-1.255,4.934,2.837,2.837,0,0,1-2.706-.729c-1.944-1.883-3.843-3.812-5.765-5.719-1.421-1.41-2.852-2.811-4.272-4.222a9.034,9.034,0,0,1-.973-1.056,2.4,2.4,0,0,1-.444-2.746,2.926,2.926,0,0,1,2.859-1.837" transform="translate(-61.146 -65.579)" fill="#ffd65d"/>
        <path id="Trazado_820862" data-name="Trazado 820862" d="M66.043,80.61A2.663,2.663,0,0,1,64.5,83.238a2.742,2.742,0,0,1-3.353-.55c-2.391-2.35-4.754-4.727-7.126-7.1-1.175-1.174-2.323-2.378-3.522-3.527a2.889,2.889,0,0,1,1.95-4.961,2.949,2.949,0,0,1,2.26.879c1.454,1.556,2.948,3.082,4.455,4.577,1.48,1.469,3.03,2.887,4.518,4.359a12.759,12.759,0,0,1,2,2.263,2.72,2.72,0,0,1,.368,1.427" transform="translate(-15.903 -21.518)" fill="#ffd65d"/>
        <path id="Trazado_820863" data-name="Trazado 820863" d="M211.02,148.937a2.961,2.961,0,0,1,2.937,1.663,2.626,2.626,0,0,1-.287,2.933,18.772,18.772,0,0,1-1.612,1.728q-4.445,4.464-8.9,8.916a3.13,3.13,0,0,1-3.545.993c-2.117-.973-2.581-3.1-.959-4.789,2.127-2.216,4.331-4.359,6.5-6.535,1.274-1.277,2.535-2.567,3.821-3.831a2.744,2.744,0,0,1,2.048-1.078" transform="translate(-63.388 -47.755)" fill="#ffd65d"/>
        <path id="Trazado_820864" data-name="Trazado 820864" d="M102.241,211.5c.314,1.671-1.514,2.849-2.774,2.816a2.882,2.882,0,0,1-2.971-2.912,2.765,2.765,0,0,1,2.575-2.892c2.15-.018,3.156.93,3.17,2.988" transform="translate(-30.942 -66.863)" fill="#b5c852"/>
        <path id="Trazado_820865" data-name="Trazado 820865" d="M72.012,242.167a2.723,2.723,0,0,1-2.878,2.73,2.983,2.983,0,0,1-3.02-2.88,2.907,2.907,0,0,1,2.976-2.921,2.834,2.834,0,0,1,2.923,3.07" transform="translate(-21.198 -76.669)" fill="#b5c852"/>
        <path id="Trazado_820866" data-name="Trazado 820866" d="M21.53,174.5a2.823,2.823,0,0,1-2.781,2.946,3,3,0,0,1-2.989-3.069c-.1-1.562,1.339-2.745,3.166-2.732a2.568,2.568,0,0,1,2.6,2.855" transform="translate(-5.052 -55.039)" fill="#b5c852"/>
        <path id="Trazado_820867" data-name="Trazado 820867" d="M107.423,75.955a2.89,2.89,0,0,1,.327,5.77,2.921,2.921,0,0,1-3.29-2.909c-.082-1.433,1.5-3.132,2.963-2.861" transform="translate(-33.495 -24.347)" fill="#b5c852"/>
        <path id="Trazado_820868" data-name="Trazado 820868" d="M136.525,163.652c1.649-.332,3.076,1.518,3.06,2.781a3.009,3.009,0,0,1-2.944,2.972,2.954,2.954,0,0,1-3.02-2.969,2.694,2.694,0,0,1,2.9-2.784" transform="translate(-42.847 -52.464)" fill="#b5c852"/>
        <path id="Trazado_820869" data-name="Trazado 820869" d="M36.44,218.919c.32,1.52-1.377,2.883-2.857,2.845a2.937,2.937,0,0,1-2.912-2.9,2.81,2.81,0,0,1,2.821-2.922,2.706,2.706,0,0,1,2.948,2.972" transform="translate(-9.835 -69.243)" fill="#b5c852"/>
        <path id="Trazado_820870" data-name="Trazado 820870" d="M171.651,33.856a3.2,3.2,0,0,0,1.259-.931,34.173,34.173,0,0,1,3.783-3.717,2.484,2.484,0,0,0,3.72-.268c.575-.581,1.147-1.164,1.726-1.742a14.288,14.288,0,0,1,10.175-4.544,15.649,15.649,0,0,1,5.41.82,13.788,13.788,0,0,1,8.817,8.671,17.041,17.041,0,0,1,.689,6.016,13,13,0,0,1-4.123,9.443c-5.147,5.185-10.39,10.273-15.547,15.447-2.871,2.879-5.821,5.679-8.582,8.67a12.2,12.2,0,0,1-4.628,3,14.51,14.51,0,0,1-19.875-10.178,13.6,13.6,0,0,1,.068-6.836,16.447,16.447,0,0,1,4.688-7.632q6.142-6.058,12.211-12.189c1.465-1.471,1.489-2.38.209-4.036m21.591,10.8a7.97,7.97,0,1,0,.241-15.939,7.968,7.968,0,0,0-8.088,7.7,8.142,8.142,0,0,0,7.847,8.242M167.35,65.173a2.432,2.432,0,0,0,2.463-2.448,2.479,2.479,0,1,0-2.463,2.448m17.7-14.952a2.456,2.456,0,0,0-2.408,2.512,2.472,2.472,0,1,0,4.933-.089,2.5,2.5,0,0,0-2.524-2.423m-10.68.1a2.26,2.26,0,0,0-2.361-2.46,2.594,2.594,0,0,0-2.548,2.4,2.684,2.684,0,0,0,2.486,2.509,2.387,2.387,0,0,0,2.423-2.446" transform="translate(-49.404 -7.264)" fill="#b5c852"/>
        <path id="Trazado_820871" data-name="Trazado 820871" d="M169.246,31.479c1.28,1.657,1.255,2.565-.209,4.036q-6.088,6.114-12.212,12.189a16.445,16.445,0,0,0-4.687,7.632,13.6,13.6,0,0,0-.069,6.836A14.51,14.51,0,0,0,171.944,72.35a12.2,12.2,0,0,0,4.629-3c2.761-2.992,5.711-5.791,8.581-8.67,5.158-5.174,10.4-10.261,15.547-15.446a13,13,0,0,0,4.123-9.443,17.028,17.028,0,0,0-.688-6.017,13.79,13.79,0,0,0-8.817-8.671,15.651,15.651,0,0,0-5.41-.82,14.292,14.292,0,0,0-10.176,4.544c-.578.577-1.151,1.162-1.726,1.743a2.484,2.484,0,0,1-3.719.267c-1.031-1.329-1.09-2.3-.083-3.458,2.967-3.423,6.417-6.145,10.886-7.359a18.358,18.358,0,0,1,7.077-.666c7.871.928,13.431,4.925,16.513,12.23a17.966,17.966,0,0,1,1.358,8.428,19.375,19.375,0,0,1-5.551,12.462C200.672,52.347,196.779,56.15,192.93,60Q187,65.925,181.084,71.876A21.114,21.114,0,0,1,169.417,78.3c-6.9,1.12-12.695-1.143-17.5-6.116a18.507,18.507,0,0,1-4.24-7.123,17,17,0,0,1-1.073-6.541,20.838,20.838,0,0,1,6.308-14.015q6.212-6.234,12.444-12.448a2.876,2.876,0,0,1,3.893-.579" transform="translate(-47 -4.887)" fill="#060708"/>
        <path id="Trazado_820872" data-name="Trazado 820872" d="M208.025,47.52a8.142,8.142,0,0,1-7.848-8.242,7.974,7.974,0,0,1,15.943.242,8.123,8.123,0,0,1-8.1,8m.12-10.843A2.8,2.8,0,0,0,205.2,39.54a2.991,2.991,0,0,0,2.933,2.92A2.792,2.792,0,0,0,211,39.377a2.654,2.654,0,0,0-2.856-2.7" transform="translate(-64.188 -10.127)" fill="#060708"/>
        <path id="Trazado_820873" data-name="Trazado 820873" d="M172.44,82.906a2.476,2.476,0,1,1,2.462-2.448,2.431,2.431,0,0,1-2.462,2.448" transform="translate(-54.495 -24.997)" fill="#060708"/>
        <path id="Trazado_820874" data-name="Trazado 820874" d="M198.534,63.233a2.5,2.5,0,0,1,2.524,2.424,2.472,2.472,0,1,1-4.933.088,2.457,2.457,0,0,1,2.409-2.512" transform="translate(-62.889 -20.276)" fill="#060708"/>
        <path id="Trazado_820875" data-name="Trazado 820875" d="M181.633,62.224a2.387,2.387,0,0,1-2.423,2.446,2.684,2.684,0,0,1-2.486-2.509,2.594,2.594,0,0,1,2.548-2.4,2.26,2.26,0,0,1,2.361,2.46" transform="translate(-56.668 -19.164)" fill="#060708"/>
        <path id="Trazado_820876" data-name="Trazado 820876" d="M210.517,39.068a2.654,2.654,0,0,1,2.856,2.7,2.792,2.792,0,0,1-2.87,3.084,2.991,2.991,0,0,1-2.933-2.92,2.8,2.8,0,0,1,2.946-2.863" transform="translate(-66.56 -12.518)" fill="#cdd988"/>
      </g>
    </g>
  </g>
</svg>
