<svg xmlns="http://www.w3.org/2000/svg" xmlns:xlink="http://www.w3.org/1999/xlink" width="169" height="169" viewBox="0 0 169 169">
  <defs>
    <clipPath id="clip-path">
      <rect id="Rect치ngulo_377617" data-name="Rect치ngulo 377617" width="107.333" height="106.917" fill="none"/>
    </clipPath>
  </defs>
  <g id="Grupo_1073354" data-name="Grupo 1073354" transform="translate(-384.743 -2057.999)">
    <g id="Grupo_159182" data-name="Grupo 159182" transform="translate(384.743 2057.999)">
      <path id="Uni칩n_12" data-name="Uni칩n 12" d="M84.5,0A84.5,84.5,0,1,1,0,84.5,84.5,84.5,0,0,1,84.5,0Z" transform="translate(0 0)" fill="#ffae7e"/>
    </g>
    <g id="Grupo_1073356" data-name="Grupo 1073356" transform="translate(415.325 2088.13)">
      <g id="Grupo_1073355" data-name="Grupo 1073355" clip-path="url(#clip-path)">
        <path id="Trazado_821349" data-name="Trazado 821349" d="M107.428,189.541c.009,1.042.01,2.085.033,3.127.006.272-.1.315-.338.3a11.274,11.274,0,0,1-5.8-1.877,8.04,8.04,0,0,0-3.68-1.481,8.91,8.91,0,0,0-3.926.273,18.8,18.8,0,0,0-2.887,1.554,11.883,11.883,0,0,1-4.717,1.459A10.531,10.531,0,0,1,78.8,190.95a8.757,8.757,0,0,0-5.9-1.4,6.334,6.334,0,0,0-2.651.915,16.288,16.288,0,0,1-4.02,2.023,11.223,11.223,0,0,1-6.541.031,13.987,13.987,0,0,1-3.654-1.9,6.184,6.184,0,0,0-3.379-1.08,9.326,9.326,0,0,0-2.536.1,8.739,8.739,0,0,0-2.15.884,25.421,25.421,0,0,1-3.409,1.793,11.84,11.84,0,0,1-5.037.64,10.9,10.9,0,0,1-5.578-2.249,7.2,7.2,0,0,0-2.246-.965c-.242-.072-.363.037-.354.329.023.8-.008,1.6.015,2.4.011.37-.076.515-.487.513q-4.683-.026-9.365,0c-.384,0-.472-.142-.474-.481,0-.955-.031-1.909-.049-2.864l-.106-.1c-.277-.01-.555-.029-.832-.029q-9.631,0-19.261.006c-.449,0-.549-.131-.533-.554.037-.955.021-1.912.026-2.868q3.208,0,6.414-.005c.242,0,.52.066.492-.329a.885.885,0,0,0,0-.606q0-6.271-.006-12.541c.008-.008.025-.019.023-.025a.3.3,0,0,0-.024-.063c-.049-.325-.31-.222-.494-.222-2.136,0-4.273,0-6.41.005,0-1.008.006-2.017-.023-3.024-.011-.37.145-.428.461-.426,1.186.008,2.372-.009,3.558-.01q8.085-.009,16.169,0c.464,0,.595-.129.574-.586-.038-.815,0-1.634-.013-2.451-.006-.287.059-.393.369-.392q4.815.015,9.629,0c.312,0,.374.109.371.393-.013,2.034,0,4.069-.023,6.1-.005.391.091.55.489.617a12.241,12.241,0,0,1,4.963,2.177,7.169,7.169,0,0,0,4.694,1.014,7.437,7.437,0,0,0,3.554-1.222,18.412,18.412,0,0,1,2.358-1.331,9.378,9.378,0,0,1,4.18-.849c.46.021.59-.114.57-.578-.04-.937,0-1.877-.008-2.816a3.369,3.369,0,0,1,3.09-3.481c.3-.053.323-.167.32-.392-.009-.869-.032-1.738-.015-2.607.008-.4-.136-.49-.521-.49q-25.955.013-51.91.007c-.837,0-1.673,0-2.51.024-.278.008-.353-.086-.348-.353.019-1.06.019-2.12.025-3.181a5.932,5.932,0,0,0,1.389.068,6.308,6.308,0,0,1,1.458.047c.47.1.609-.029.607-.463-.009-2.016-.02-4.031-.013-6.047,0-.318-.093-.42-.415-.415-1.011.016-2.022,0-3.033,0q0-1.761,0-3.523c.959.006,1.918.017,2.877.017l101.147,0c.924,0,1.848.011,2.772.018l.283.026a.093.093,0,0,0,.082.023q.005,1.718.01,3.436c-1.009,0-2.018.016-3.026,0-.307,0-.427.073-.425.405q.015,2.991-.01,5.982c0,.387.137.516.518.511.973-.015,1.947,0,2.921,0,.012,1.008.022,2.015.037,3.022,0,.2-.043.313-.289.316-.464,0-.927.074-1.39.074q-19.57.009-39.138-.01c-.58,0-.684.152-.652.67a15.031,15.031,0,0,1-.008,2.189c-.043.493.15.655.583.726a3.151,3.151,0,0,1,2.586,2.148,3.239,3.239,0,0,1,.22,1.1c.012,1.321.039,2.643.008,3.963-.01.431.121.475.46.351a10.228,10.228,0,0,1,2.109-.614,15.162,15.162,0,0,1,3.243-.1,9.745,9.745,0,0,1,3.294.786,23.151,23.151,0,0,1,2.4,1.358,7.169,7.169,0,0,0,3.092,1.192,11.563,11.563,0,0,0,2.584-.072c.13-.019.156-.09.175-.207a3.667,3.667,0,0,1,2.278-2.916,2.475,2.475,0,0,1,.831-.192c.373-.024.363-.19.36-.461-.008-1.043.021-2.087,0-3.129a3.063,3.063,0,0,1,.924-2.194,3.394,3.394,0,0,1,2.569-1.126c1.1,0,2.2-.033,3.3.007a3.421,3.421,0,0,1,3.461,3.162c.088,1.112.039,2.219.059,3.327.005.268.01.479.362.5a3.075,3.075,0,0,1,2.769,2.024,1.385,1.385,0,0,0,.726.753,8.542,8.542,0,0,0,2.791.645c.28.031.3.111.3.329-.012,1.008-.013,2.016-.018,3.024a9.7,9.7,0,0,1-2.964-.391c-.318-.081-.52-.067-.5.369.037.711.041,1.426.011,2.138a.72.72,0,0,0,.548.815,8.435,8.435,0,0,0,2.9.532c0,.982.012,1.963.01,2.945a1.969,1.969,0,0,1-.079.386c-.054.126-.167.1-.268.1a9.254,9.254,0,0,1-2.682-.432c-.369-.119-.445-.015-.435.34.021.745.032,1.493-.007,2.236a.694.694,0,0,0,.519.779,7.864,7.864,0,0,0,2.927.535M61.4,165.39a3.006,3.006,0,0,0,1.014-.026c.2-.128.11-.305.083-.472.071-.885-.064-1.764-.065-2.647,0-.144.006-.292-.2-.284a26.479,26.479,0,0,0-3.23.075l-.077-.008c.013.009.024.026.037.026s.027-.014.04-.022a20.578,20.578,0,0,1,.024,2.993l-.024.029.023.03c-.008.23.088.345.334.332.324-.017.648-.016.972-.023l.232-.008.714,0,.125.007m35.661-7.059c.022.217.169.209.328.182.905,0,1.811-.011,2.715,0,.348.006.444-.126.443-.461q-.013-3.019.012-6.038c0-.3-.094-.386-.387-.381-.922.016-1.845.018-2.767,0-.323-.006-.335.115-.333.4.013,2.1,0,4.2-.009,6.3m-13.577.174.042.021.045-.013c.905,0,1.811,0,2.716,0,.26,0,.433-.046.432-.367q-.008-3.1.006-6.2c0-.219-.07-.312-.3-.31q-1.462.01-2.925,0c-.224,0-.276.065-.274.3.016,2.048.013,4.1.008,6.144,0,.2-.028.392.248.418M24.44,151.672c-1.043-.01-2.086-.016-3.129-.032-.245,0-.33.082-.329.333.007,2.046,0,4.093,0,6.139,0,.2-.009.418.269.408a29.752,29.752,0,0,0,3.17-.074l.072-.008-.032-.11q0-3.142.009-6.284c.065-.131.124-.261-.031-.374m45,6.743c.045.026.09.072.135.073q1.512.015,3.025.019c.224,0,.289-.14.289-.344q0-3.1.009-6.193c0-.249-.1-.333-.339-.33-1.043.014-2.087.016-3.131.022-.151.083-.087.186-.027.289q.008,3.035.015,6.069l-.03.036.023.039-.038.235a.488.488,0,0,0-.074.035c.023.079.088.052.142.05m-31.118-6.538c.022-.241-.144-.234-.308-.234-.959,0-1.916.009-2.875-.006-.291-.005-.338.111-.337.369.009,2.015.011,4.03-.006,6.044,0,.361.095.494.469.482q1.28-.039,2.561-.01c.367.009.465-.1.463-.473-.013-2,.006-3.994.015-5.992a.143.143,0,0,0,.018-.181m3.4,6.451c-.022.059,0,.094.059.107a20.445,20.445,0,0,0,2.962.083c.147.008.318.057.436-.1.054-.01.074-.037.046-.089q-.017-3.139-.034-6.278c.009-.008.028-.018.026-.023a.5.5,0,0,0-.026-.062c.038-.3-.147-.329-.385-.327-.922.007-1.844.013-2.765,0-.285-.005-.344.1-.342.36.018,1.976.023,3.952.033,5.928a.04.04,0,0,0,0,.064l-.006.339m17.26-6.649c-.984-.012-1.97,0-2.952-.046-.471-.024-.577.148-.48.555a.041.041,0,0,0,0,.066q.012,2.366.022,4.732a.042.042,0,0,0,0,.071q0,.386.008.772a.262.262,0,0,0-.015.263c0,.079-.009.157-.014.236-.028.061,0,.09.058.1a18.914,18.914,0,0,0,3.208.082c.2.007.24-.16.239-.332q-.018-3.22-.034-6.439l0-.044ZM52.153,158.3c0-.055-.007-.11-.01-.165q0-3.048.007-6.1a.039.039,0,0,0,.006-.063c.06-.307-.119-.34-.364-.338-.921.007-1.844,0-2.765,0-.16,0-.376-.064-.376.221a.05.05,0,0,0,0,.074c0,2.009,0,4.019-.021,6.028,0,.41.078.592.544.57.85-.041,1.7-.008,2.554-.021.158,0,.416.118.422-.213m3.406,11.277.016,1.377a3.31,3.31,0,0,0,0,1.263.564.564,0,0,0,.4.088q4.806,0,9.613-.007c.141,0,.374.1.377-.2l-.009-.424,0-.2v-.113q0-.413.008-.827c0-.106,0-.213.007-.32,0-.067,0-.134,0-.2l0-.425c.039-.751.039-.749-.68-.746-1.1,0-2.2.01-3.294.01-2,0-4.008,0-6.012,0-.219,0-.538-.1-.439.333.072.13-.286.27.009.4M90.52,182.59c0-.075-.035-.139-.111-.143-.11-.007-.136.076-.137.168a.3.3,0,0,0-.113.275q-.009,2.341-.015,4.683c0,.4.185.263.384.139a11.191,11.191,0,0,1,8.925-1.194,4.521,4.521,0,0,0,1.082.285c.1,0,.127-.034.04-.106-.01-1.216-.029-2.432-.021-3.649,0-.352-.08-.472-.467-.47-3.19.019-6.379.011-9.569.012m-69.533,3.372a1.164,1.164,0,0,0,.027-.816c0-2.347.013-4.693.012-7.039,0-1.773-.021-3.546-.01-5.318,0-.389-.124-.511-.512-.5-.8.025-1.6.028-2.405-.006-.448-.02-.589.1-.584.571.028,2.485.015,4.971.017,7.457v5.319c0,.225-.047.465.316.462.977-.009,1.953,0,2.929,0a.216.216,0,0,0,.209-.126m48.45-8.742a10.471,10.471,0,0,0-.078,2.377c-.011.594,0,.615.559.382a11.543,11.543,0,0,1,7.381-.36,13.413,13.413,0,0,1,3.8,1.9,7.735,7.735,0,0,0,4.985,1.063.08.08,0,0,0,.128-.019c.269-.014.529-.016.522-.408-.016-.869-.011-1.738-.016-2.607,0-.384-.21-.511-.567-.441a8.93,8.93,0,0,1-3.591-.209,12.166,12.166,0,0,1-4.092-1.9,8.143,8.143,0,0,0-4-1.235,7.2,7.2,0,0,0-5.035,1.459m-3.466-.533,0-.41c-.014-.189.183-.452-.182-.519q-4.969-.009-9.938-.024c-.362,0-.344.184-.293.428l.009.116q.011,1.406.022,2.812c-.011.106-.022.212-.033.317-.079.181-.108.327.14.417a35.273,35.273,0,0,1,3.374,1.819,7.709,7.709,0,0,0,2.948.918c.034.049.071.062.116.016a6.573,6.573,0,0,0,1.67-.018l.094-.006a6.42,6.42,0,0,0,1.612-.266c.375-.093.585-.273.472-.687,0-.037,0-.075,0-.112l0-.2c0-.038,0-.076,0-.114q0-1.874-.007-3.749a2.043,2.043,0,0,0,0-.736M41.7,182.554l.11-.014a6.118,6.118,0,0,0,2.752-.842c.98-.542,1.906-1.182,2.928-1.649a10.467,10.467,0,0,1,4.248-.847c.335-.005.455-.089.444-.438-.028-.834-.043-1.67-.011-2.5.017-.426-.123-.532-.531-.525a7.6,7.6,0,0,0-4.045,1.2,13.063,13.063,0,0,1-4.464,2.009,10.965,10.965,0,0,1-8.092-1.334c-.655-.4-1.316-.781-1.989-1.144a2.691,2.691,0,0,0-1.38-.418c-.232.008-.338.023-.33.3q.031,1.277,0,2.555c-.008.334.116.453.439.5a7.987,7.987,0,0,1,2.766.887q1.189.653,2.35,1.353a7.313,7.313,0,0,0,4.807.9m-17.223,6.474c-.052.129-.108.257.025.374.152.173.356.11.541.111.75.007,1.5-.027,2.249.018.464.028.608-.071.606-.569-.02-5.652-.013-11.3-.013-16.956,0-.922-.005-1.843,0-2.765,0-.232,0-.387-.32-.381-.924.016-1.849,0-2.773-.011-.271,0-.351.075-.347.357.02,1.565.015,3.129.017,4.694q.007,7.564.012,15.128m6.867-4.547h0c0,.417.013.835,0,1.252-.013.33.08.5.443.567a9.3,9.3,0,0,1,2.571.794c.828.413,1.608.9,2.4,1.377a7.963,7.963,0,0,0,5.914.859,9.171,9.171,0,0,0,3.09-1.452,10.817,10.817,0,0,1,7.125-1.709,11.536,11.536,0,0,1,4.993,1.639,11.156,11.156,0,0,0,2.192,1.261,9.071,9.071,0,0,0,4.7.29,10.651,10.651,0,0,0,3.467-1.635,11.3,11.3,0,0,1,12.475.463,8.115,8.115,0,0,0,5.236,1.34c.738-.055.776-.1.777-.824,0-.713-.022-1.427.005-2.139.016-.449-.1-.628-.593-.556a9.828,9.828,0,0,1-2.92-.069,10.78,10.78,0,0,1-3.98-1.574,8.972,8.972,0,0,0-4.255-1.662,8.611,8.611,0,0,0-4.045.539c-.977.43-1.837,1.061-2.765,1.577a11.18,11.18,0,0,1-6.432,1.236,9.934,9.934,0,0,1-4.523-1.576,12.691,12.691,0,0,0-2.609-1.4,8.585,8.585,0,0,0-5.081-.147,11.284,11.284,0,0,0-2.953,1.533,11.138,11.138,0,0,1-12.282-.4,8.846,8.846,0,0,0-2.481-1.17c-.348-.1-.486-.047-.469.332.018.417,0,.835,0,1.252m-17.274-5.271c0-2.154-.008-4.307.008-6.461,0-.356-.079-.479-.46-.464-.835.032-1.673.028-2.508,0-.395-.013-.491.109-.49.5q.016,6.409-.014,12.819c0,.418.159.5.519.491.8-.017,1.6-.033,2.4,0,.421.018.559-.077.553-.527-.026-2.119-.012-4.238-.012-6.358m81.237-.018c1.6,0,3.21-.006,4.815.005.319,0,.459-.054.444-.425-.035-.885-.024-1.773-.011-2.66,0-.291-.084-.391-.385-.389q-4.814.018-9.629.009c-.3,0-.385.1-.382.389.01.869.014,1.74-.023,2.608-.016.375.1.475.462.47,1.571-.017,3.14-.007,4.71-.008m-67.418-24.1c0,.99.013,1.98-.006,2.969-.007.364.111.488.48.477.87-.023,1.742-.018,2.613-.006.3,0,.44-.073.436-.408q-.038-3.047-.041-6.094c0-.29-.092-.395-.391-.389-.905.016-1.811.017-2.717,0-.3-.006-.385.081-.38.378.017,1.024.006,2.049.006,3.073m34.6-.069h-.024c0,.989.021,1.978-.009,2.966-.013.437.126.568.563.551.852-.034,1.706-.023,2.558,0,.317.007.42-.082.418-.408q-.021-3.046,0-6.091c0-.286-.07-.4-.376-.395q-1.358.024-2.716,0c-.315-.006-.424.089-.418.414.02.989.007,1.978.007,2.967m-48.422.013c0,1.024.007,2.048,0,3.072,0,.3.065.444.4.436.9-.021,1.811-.021,2.715-.009.309,0,.382-.124.38-.406-.014-2.03-.024-4.061-.018-6.091,0-.338-.139-.4-.438-.4-.887.015-1.775.017-2.663,0-.293-.006-.388.075-.383.375.018,1.006.007,2.013.006,3.02m-3.448,0h.013c0-1.008-.015-2.018.01-3.026.008-.325-.116-.373-.39-.37q-1.361.017-2.722,0c-.291,0-.385.08-.383.385q.019,3.026-.005,6.053c0,.339.1.464.449.456.872-.022,1.745-.03,2.617-.01.327.008.422-.093.418-.409-.015-1.026-.005-2.053-.005-3.079m83.011.065c0-1.009-.013-2.018.007-3.026.007-.332-.075-.449-.428-.439-.854.026-1.71.027-2.564,0-.393-.013-.5.1-.494.5.017,1.948.008,3.9-.014,5.843,0,.4.1.57.525.559.854-.023,1.71-.024,2.564,0,.332.01.415-.094.41-.409-.018-1.008-.007-2.017-.006-3.026m-13.82-.117c0-.989-.011-1.978.006-2.967.005-.3-.093-.384-.385-.379-.905.016-1.811.019-2.715,0-.343-.008-.395.139-.394.435q.008,2.966-.016,5.933c0,.373.109.538.5.528.8-.02,1.6-.036,2.4,0,.467.023.61-.153.6-.585-.014-.989,0-1.978-.005-2.966m15.495,17.326V172.3c.435,0,.872-.017,1.307.005.351.018.5-.077.484-.463q-.048-1.25-.01-2.5c.012-.408-.144-.5-.519-.485a11.933,11.933,0,0,1-2.347-.026c-.588-.1-.587.107-.593.532a21.443,21.443,0,0,1-.052,2.75c-.035.243.162.186.267.189.487.013.976.006,1.464.006" transform="translate(-0.141 -86.081)" fill="#060607"/>
        <path id="Trazado_821350" data-name="Trazado 821350" d="M.275,58.755c0-1.078,0-2.156-.018-3.234,0-.293.075-.388.383-.374.625.029,1.253.011,1.88.008.1,0,.22.023.26-.111.032-.108-.083-.138-.13-.2A11.027,11.027,0,0,1,.5,45.725a6.987,6.987,0,0,1,.61-1.506,10.794,10.794,0,0,1,2.276-3.3,9.2,9.2,0,0,1,3.682-2.273.4.4,0,0,0,.319-.531,14.634,14.634,0,0,1-.215-3.34c.006-.3-.241-.306-.43-.3a4.769,4.769,0,0,1-1.888-.36A6.952,6.952,0,0,1,1.378,31.2a6.857,6.857,0,0,1-1.1-4.156A9.147,9.147,0,0,1,.7,25.162a2.608,2.608,0,0,0,.01-1.1C.588,23.17.439,22.28.353,21.38a34.522,34.522,0,0,1-.064-4.052,10.5,10.5,0,0,1,.294-2.067A19.432,19.432,0,0,1,2.074,10.7,20.591,20.591,0,0,1,8.1,3.524,18.549,18.549,0,0,1,14.034.733,19.189,19.189,0,0,1,19.772.021c4.5.007,9-.064,13.5.021A18.665,18.665,0,0,1,51.082,12.707a23.328,23.328,0,0,1,.91,4.111,18,18,0,0,1,.11,3.049,31.057,31.057,0,0,1-.533,4.35,3.007,3.007,0,0,0,.221,1.566,6.039,6.039,0,0,1-.4,4.722,1.252,1.252,0,0,0-.046.174c.359.052.506-.244.721-.4a15.012,15.012,0,0,0,2.68-2.235,2.956,2.956,0,0,0,.789-1.975c.015-2.486-.022-4.974.02-7.46a19.973,19.973,0,0,1,.717-4.755A18.429,18.429,0,0,1,60.4,6.374a17.893,17.893,0,0,1,6.025-4.491,24.919,24.919,0,0,1,5.083-1.6A12.581,12.581,0,0,1,74.123.034Q80.613,0,87.1.033c1.378.008,2.761.076,4.13.221A16.822,16.822,0,0,1,93.7.847a15.545,15.545,0,0,1,3.874,1.565,18.339,18.339,0,0,1,5.57,4.709,24.8,24.8,0,0,1,2.383,3.714,18.363,18.363,0,0,1,1.576,4.719,17.356,17.356,0,0,1,.37,3.57c-.026,4.487.012,8.974-.026,13.461a11.551,11.551,0,0,1-.309,3.208,16.844,16.844,0,0,1-1.809,4.737,1.177,1.177,0,0,0,.049,1.687,9.633,9.633,0,0,1,1.907,4.543,9.152,9.152,0,0,1-.115,3.647,11.648,11.648,0,0,1-1.576,3.711c-.209.317-.448.615-.741,1.016.745,0,1.427.027,2.105-.01.4-.022.531.079.515.5-.039,1.007-.025,2.016-.033,3.025l-.21.006-.064-.018-.333.013c-.034-.043-.065-.041-.095,0-.314,0-.628-.007-.942-.006-35.174.074-70.348-.15-105.521.113M21.018,48.45c-.008.1-.015.21-.023.315l-.181.042.171.161c.007,1.887.01,3.773.024,5.66,0,.183-.123.435.189.514.036.05.074.048.112,0l.719.008a5.944,5.944,0,0,0,1.8,0h.291c.044.067.087.063.13,0a3.337,3.337,0,0,0,2.233-.691,3.235,3.235,0,0,0,1.373-3.136,3.2,3.2,0,0,0-2.263-2.807,13.063,13.063,0,0,0-4.5-.175c-.073,0-.11.03-.075.107m69.148.1a.072.072,0,0,0,.007-.094c.034-.225-.031-.327-.285-.276a3.555,3.555,0,0,1-.673.065q-3.372.024-6.743.039a1.365,1.365,0,0,0-.861.141A16.907,16.907,0,0,0,79.138,50.6c.24.254.568.273.834.426a37.312,37.312,0,0,0,4.667,2.092,25.417,25.417,0,0,0,3.078.927c.7.186,1.426.3,2.141.441.206.041.355.05.351-.264-.027-1.893-.031-3.786-.043-5.679m-72.6.1q-.029-.15-.058-.3l-.08-.049c-.189-.014-.379-.04-.568-.04q-3.734,0-7.468.007c-.31,0-.477-.039-.465-.42.028-.867.013-1.735,0-2.6,0-.271.1-.367.364-.369.451,0,.9-.039,1.354-.061.115-.04.084-.095.016-.154A14.691,14.691,0,0,1,8.734,42a.378.378,0,0,0-.55-.212,6.956,6.956,0,0,0-4.479,6.153,8.632,8.632,0,0,0,.283,2.509,5.866,5.866,0,0,0,1.8,2.791,6.416,6.416,0,0,0,4.292,1.88c2.232.049,4.466.025,6.7.032a.636.636,0,0,0,.572.009c.346-.074.219-.361.219-.553.007-1.878,0-3.755-.008-5.633a.307.307,0,0,0,0-.333m12.966-.367c-.151.037-.111.106-.03.181A12.439,12.439,0,0,1,31.321,51a5.659,5.659,0,0,1-.464,3.03c-.482,1.127-.483,1.132.741,1.132,3.488,0,6.977.021,10.465-.021a6.537,6.537,0,0,0,5.378-2.894,6.611,6.611,0,0,0,1.138-5.1,6.767,6.767,0,0,0-4.229-5.287.5.5,0,0,0-.744.205,13.424,13.424,0,0,1-2.214,2.816,11.331,11.331,0,0,1-7.252,3.333c-1.194.112-2.4.049-3.607.065m54.86-3.414c1.15-.013,2.3-.047,3.45-.035a7.272,7.272,0,0,0,3.775-1.093,8.705,8.705,0,0,0,4.462-7.557c.059-4.416.025-8.833,0-13.249a2.316,2.316,0,0,0-.384-1.523A2.259,2.259,0,0,0,94.72,20.7q-10.047-.017-20.094-.009a5.014,5.014,0,0,1-4.5-2.679c-.315-.521-.421-.57-.985-.348a5.2,5.2,0,0,0-3.164,4.761c.057,4.485.015,8.972.025,13.458a9.3,9.3,0,0,0,.105,2.012,9.246,9.246,0,0,0,2,4.049.528.528,0,0,0,.673.17c1.944-.662,3.9-1.29,5.853-1.924a.674.674,0,0,0,.5-.53,9.5,9.5,0,0,1,.574-1.748,5.74,5.74,0,0,1,8.112-2.6,5.284,5.284,0,0,1,2.795,4.072,7.611,7.611,0,0,1-1.29,5.287c-.1.113-.092.181.074.189m-.1-27.621v0c3.315,0,6.629-.015,9.944.012a4.709,4.709,0,0,1,2.042.392,5.172,5.172,0,0,1,3.244,4.9c.034,4.9.121,9.8-.057,14.7-.015.42-.351.91-.01,1.241a4.932,4.932,0,0,0,1.167.557c.386.2.585.09.769-.283a14.62,14.62,0,0,0,1.613-6.663c-.037-4.429.134-8.857-.086-13.286-.046-.932-.1-1.859-.239-2.778a5.056,5.056,0,0,0-.24-1.4c-.461-.907-.751-1.882-1.233-2.777a16.519,16.519,0,0,0-3.025-4.022,13.555,13.555,0,0,0-3.443-2.472,17.084,17.084,0,0,0-4.4-1.574,22.593,22.593,0,0,0-4.125-.323c-3.96-.02-7.92,0-11.88-.01a17.037,17.037,0,0,0-6.165,1.013,16.3,16.3,0,0,0-4.821,2.791,15.567,15.567,0,0,0-4.612,7.149,14.309,14.309,0,0,0-.682,4.413,64.391,64.391,0,0,1-.165,8.115,5.257,5.257,0,0,1-1.148,2.829,18.354,18.354,0,0,1-2.479,2.365c-.717.561-1.452,1.095-2.123,1.722a3.234,3.234,0,0,0-.232,4.377,9.518,9.518,0,0,0,1.638,1.5,13.885,13.885,0,0,1,3.128,2.87,6.387,6.387,0,0,1,.864,6.425,7.928,7.928,0,0,1-2.814,3.422,24.806,24.806,0,0,0-2.594,2.161c-.119.12-.328.25-.273.412.065.195.306.09.465.091,2.146.009,4.292,0,6.437.019.507.005.5-.134.288-.513a7.374,7.374,0,0,1-.916-4.675,7.609,7.609,0,0,1,5.185-6.4c.51-.2.543-.263.231-.709a10.02,10.02,0,0,1-1.744-4.3,18.062,18.062,0,0,1-.289-2.9c.03-3.878.013-7.756.015-11.635a13.258,13.258,0,0,0,0-1.46,6.558,6.558,0,0,1,.64-3.443,8.621,8.621,0,0,1,5.661-4.974.67.67,0,0,0,.567-.778c-.024-.834-.008-1.67-.044-2.5-.017-.4.134-.52.512-.511.767.019,1.535.008,2.3.011.726,0,.732,0,.733.717q0,2.27,0,4.539a1.526,1.526,0,0,0,.807,1.411,2.887,2.887,0,0,0,1.542.205c3.349.023,6.7.012,10.049.012M10.65,29.372h-.018q0,3,0,6a13.543,13.543,0,0,0,.284,3.077,7.947,7.947,0,0,0,2.558,4.19,8.655,8.655,0,0,0,6.054,2.23c4.36-.041,8.72.005,13.08,0a9.64,9.64,0,0,0,2.861-.346,8.627,8.627,0,0,0,6.251-8.479c0-1.86,0-3.721,0-5.581q0-3.99,0-7.98a1.682,1.682,0,0,0-1.232-1.669,7.405,7.405,0,0,0-1.235-.108q-9.967-.011-19.935-.007a5.119,5.119,0,0,1-4.252-2.23c-.239-.315-.278-.847-.668-.951-.369-.1-.694.3-1.047.44a4.949,4.949,0,0,0-2.695,4.015c-.018,2.468-.005,4.937-.005,7.4M26.158,3.5q-3.454,0-6.908,0A15.082,15.082,0,0,0,7.472,8.758c-3.162,3.557-4.09,7.784-3.647,12.407.036.382.175.384.465.245a5.75,5.75,0,0,1,2.559-.647c.379,0,.534-.167.637-.528a8.435,8.435,0,0,1,6.233-6.126.4.4,0,0,0,.351-.469c-.01-.921.019-1.844-.013-2.765-.014-.408.155-.518.511-.518.8,0,1.606.02,2.407-.017.462-.021.6.126.591.587-.032,1.53-.034,3.061-.02,4.591a1.641,1.641,0,0,0,1.7,1.722c.227.009.454.009.68.009q9.839,0,19.677,0a5.177,5.177,0,0,1,5.106,3.122.564.564,0,0,0,.588.409,5.358,5.358,0,0,1,2.77.614c.415.2.526.05.525-.348,0-1.061.074-2.126,0-3.181a14.189,14.189,0,0,0-1.961-6.674A15.319,15.319,0,0,0,33.014,3.506c-2.285-.018-4.57,0-6.856,0M93.647,50.99q0,1.538,0,3.076c0,.817-.005.857.82.959A13.208,13.208,0,0,0,98.551,55a6.805,6.805,0,0,0,5.277-8,7.091,7.091,0,0,0-4.062-5.074c-.375-.185-.591-.185-.828.228A11.755,11.755,0,0,1,94,46.892a.575.575,0,0,0-.362.6c.018,1.164.008,2.329.007,3.493M66.883,55.124a4.719,4.719,0,0,0,3.33-1.223c1.017-.874,2.005-1.781,3.02-2.658.247-.214.239-.377.044-.606-.349-.411-.683-.835-1.02-1.256q-1.372-1.711-2.742-3.423c-.152-.19-.317-.433-.6-.32-1.308.529-2.69.844-3.989,1.4a4.466,4.466,0,0,0-2.338,4.821,4.358,4.358,0,0,0,4.294,3.262M83.176,40.872c0-1.836-.62-2.624-1.892-2.842A2.069,2.069,0,0,0,78.873,39.3a19.345,19.345,0,0,0-.922,2.672A1.271,1.271,0,0,1,77.02,43c-1.336.381-2.65.844-3.97,1.28-.189.062-.445.112-.2.409,1,1.222,2.013,2.441,3,3.676.249.311.4.184.619-.014,1.676-1.494,3.363-2.975,5.039-4.468a4.637,4.637,0,0,0,1.669-3.009m-33.825-7.74a8.775,8.775,0,0,1-3.893,1.357c-.261.024-.279.236-.266.463a15.113,15.113,0,0,1-.217,3.136c-.029.194-.1.45.227.552a9.173,9.173,0,0,1,4.27,2.774A9.9,9.9,0,0,1,52,49.713a3.792,3.792,0,0,0-.2,1.509,18.077,18.077,0,0,0,3.11-2.73,3.15,3.15,0,0,0,.557-2.583A4.172,4.172,0,0,0,53.8,43.486a33.126,33.126,0,0,1-3.369-2.88,6.417,6.417,0,0,1-1.591-5.692c.107-.605.407-1.142.516-1.782M7.2,27.661H7.189c0-1.026-.008-2.052.005-3.077,0-.268-.072-.356-.351-.356a3.225,3.225,0,0,0-3.1,2.84A3.459,3.459,0,0,0,6.68,31.055c.449.081.522-.05.52-.42-.006-.991,0-1.982,0-2.973m37.991-.127h.023c0,1.024.008,2.047,0,3.07,0,.334.091.482.453.412a3.522,3.522,0,0,0,2.9-2.641,3.38,3.38,0,0,0-1.35-3.554,4.522,4.522,0,0,0-1.625-.645c-.358-.077-.407.024-.4.339.015,1.006.005,2.012.005,3.018M80.344,55.123c-1.083-.551-2.124-1.131-3.165-1.71-.977-.544-.926-.492-1.519.2a1.576,1.576,0,0,1-.25.18A11.939,11.939,0,0,0,74.1,55.123Z" transform="translate(-0.149 0)" fill="#060607"/>
        <path id="Trazado_821351" data-name="Trazado 821351" d="M106.859,140l.333-.013.027.026.038-.008.21-.006q0,1.736,0,3.473a.094.094,0,0,1-.082-.023.189.189,0,0,0-.283-.026c-.924-.006-1.848-.018-2.772-.018l-101.147,0c-.959,0-1.918-.011-2.877-.017l0-3.276c35.173-.262,70.348-.039,105.521-.113.314,0,.628,0,.941.006l.048.014.047-.018" transform="translate(-0.175 -81.353)" fill="#c48a60"/>
        <path id="Trazado_821352" data-name="Trazado 821352" d="M.306,205.852c2.137,0,4.273-.009,6.41-.005.184,0,.444-.1.494.222a.067.067,0,0,0,0,.088q0,6.271.006,12.541a1.334,1.334,0,0,0,0,.606c.028.395-.25.329-.492.329q-3.207,0-6.415.005V205.852" transform="translate(-0.178 -119.627)" fill="#59bfe2"/>
        <path id="Trazado_821353" data-name="Trazado 821353" d="M.126,156.525c1.011,0,2.022.017,3.033,0,.323-.005.416.1.415.415-.006,2.016,0,4.032.013,6.048,0,.434-.137.564-.608.463a6.329,6.329,0,0,0-1.457-.047,5.932,5.932,0,0,1-1.389-.068c-.293-.381-.012-.772-.013-1.157-.009-1.885,0-3.771.007-5.656" transform="translate(0 -90.971)" fill="#c48a60"/>
        <path id="Trazado_821354" data-name="Trazado 821354" d="M251.378,163.427c-.974,0-1.947-.019-2.921,0-.381.006-.522-.123-.518-.511q.025-2.991.01-5.982c0-.332.119-.41.426-.406,1.009.013,2.017,0,3.026,0,.008,2.3.051,4.6-.022,6.905" transform="translate(-144.099 -90.969)" fill="#c48a60"/>
        <path id="Trazado_821355" data-name="Trazado 821355" d="M251.385,241.569a7.862,7.862,0,0,1-2.927-.535.694.694,0,0,1-.519-.779c.039-.744.028-1.491.007-2.236-.01-.355.066-.458.435-.339a9.263,9.263,0,0,0,2.682.432c.1,0,.213.026.268-.1a4.7,4.7,0,0,1,.075,1.532c.018.675-.011,1.351-.021,2.026" transform="translate(-144.099 -138.109)" fill="#59bfe2"/>
        <path id="Trazado_821356" data-name="Trazado 821356" d="M251.4,225.183a8.433,8.433,0,0,1-2.9-.532.72.72,0,0,1-.548-.816c.03-.712.026-1.427-.012-2.138-.023-.435.179-.45.5-.368a9.729,9.729,0,0,0,2.963.391q0,1.731,0,3.463" transform="translate(-144.096 -128.611)" fill="#59bfe2"/>
        <path id="Trazado_821357" data-name="Trazado 821357" d="M49.5,247.021l.106.1c-.072.006-.106-.029-.106-.1" transform="translate(-28.767 -143.566)" fill="#515a65"/>
        <path id="Trazado_821358" data-name="Trazado 821358" d="M74.506,232.368c0-.418.014-.836,0-1.252-.016-.38.122-.429.47-.333a8.853,8.853,0,0,1,2.481,1.171,11.137,11.137,0,0,0,12.282.4,11.3,11.3,0,0,1,2.953-1.533,8.584,8.584,0,0,1,5.082.147,12.653,12.653,0,0,1,2.608,1.4,9.938,9.938,0,0,0,4.524,1.576,11.184,11.184,0,0,0,6.432-1.236c.927-.516,1.788-1.147,2.764-1.577a8.6,8.6,0,0,1,4.046-.539,8.966,8.966,0,0,1,4.255,1.662,10.794,10.794,0,0,0,3.98,1.574,9.842,9.842,0,0,0,2.92.069c.493-.072.609.106.592.555-.026.712,0,1.426-.005,2.139,0,.729-.039.769-.777.824a8.117,8.117,0,0,1-5.236-1.341,11.305,11.305,0,0,0-12.474-.462,10.675,10.675,0,0,1-3.468,1.635,9.073,9.073,0,0,1-4.7-.29,11.181,11.181,0,0,1-2.192-1.261,11.547,11.547,0,0,0-4.993-1.639,10.82,10.82,0,0,0-7.125,1.709,9.155,9.155,0,0,1-3.09,1.452,7.96,7.96,0,0,1-5.914-.859c-.79-.475-1.571-.965-2.4-1.378a9.326,9.326,0,0,0-2.571-.794c-.362-.064-.456-.237-.442-.567.018-.417,0-.835,0-1.252Z" transform="translate(-43.299 -133.969)" fill="#59bfe2"/>
        <path id="Trazado_821359" data-name="Trazado 821359" d="M58.078,217.8q-.006-7.564-.013-15.128c0-1.565,0-3.13-.016-4.694,0-.283.077-.361.347-.357.924.016,1.849.027,2.774.011.317-.005.322.149.32.381-.008.922,0,1.844,0,2.765,0,5.652-.008,11.3.013,16.956,0,.5-.142.6-.606.569-.748-.045-1.5-.01-2.25-.017-.184,0-.389.061-.54-.111.01-.126.066-.255-.025-.374" transform="translate(-33.737 -114.857)" fill="#59bfe2"/>
        <path id="Trazado_821360" data-name="Trazado 821360" d="M84.861,220.89a7.314,7.314,0,0,1-4.807-.9q-1.16-.7-2.351-1.353a8,8,0,0,0-2.766-.887c-.323-.045-.447-.165-.439-.5.021-.851.023-1.7,0-2.555-.007-.279.1-.294.33-.3a2.692,2.692,0,0,1,1.381.418c.673.363,1.335.749,1.989,1.145a10.967,10.967,0,0,0,8.092,1.333,13.054,13.054,0,0,0,4.463-2.009,7.6,7.6,0,0,1,4.045-1.2c.408-.008.548.1.532.525-.032.833-.018,1.669.01,2.5.012.348-.108.433-.444.438a10.459,10.459,0,0,0-4.248.847c-1.022.467-1.947,1.106-2.927,1.649a6.123,6.123,0,0,1-2.753.842l-.11.013" transform="translate(-43.298 -124.417)" fill="#59bfe2"/>
        <path id="Trazado_821361" data-name="Trazado 821361" d="M140.485,220.891a6.57,6.57,0,0,1-1.669.018l-.117-.015a7.709,7.709,0,0,1-2.948-.918,35.378,35.378,0,0,0-3.374-1.819c-.248-.09-.219-.236-.14-.417a.217.217,0,0,0,.033-.317l-.021-2.812c.068-.044.056-.081-.009-.115-.051-.244-.069-.43.293-.428q4.969.023,9.938.024l.182.519,0,.41a.844.844,0,0,0,0,.736q0,1.875.007,3.749c-.013.011-.037.026-.035.033a.485.485,0,0,0,.037.081l0,.2c-.011.011-.034.026-.031.033a.448.448,0,0,0,.036.079c.114.414-.1.594-.472.687a6.423,6.423,0,0,1-1.612.266.068.068,0,0,0-.094.006" transform="translate(-76.822 -124.413)" fill="#efc4a4"/>
        <path id="Trazado_821362" data-name="Trazado 821362" d="M182,220.919a7.734,7.734,0,0,1-4.985-1.062,13.391,13.391,0,0,0-3.8-1.9,11.538,11.538,0,0,0-7.38.36c-.562.233-.57.212-.559-.382a15.117,15.117,0,0,0,.078-2.377,7.2,7.2,0,0,1,5.035-1.459,8.141,8.141,0,0,1,4,1.235,12.168,12.168,0,0,0,4.092,1.9,8.923,8.923,0,0,0,3.591.209c.356-.069.565.058.567.441.005.869,0,1.738.016,2.607.007.392-.253.393-.522.408l-.129.019" transform="translate(-96.051 -124.422)" fill="#59bfe2"/>
        <path id="Trazado_821363" data-name="Trazado 821363" d="M44.955,219.5a.215.215,0,0,1-.209.126c-.976,0-1.953-.006-2.929,0-.363,0-.316-.237-.316-.462q0-2.659,0-5.318c0-2.486.011-4.972-.017-7.457-.005-.473.136-.591.584-.571.8.035,1.6.032,2.405.007.387-.012.514.109.512.5-.011,1.773.009,3.546.01,5.318q0,3.52-.012,7.039a2.546,2.546,0,0,0-.027.817" transform="translate(-24.11 -119.621)" fill="#59bfe2"/>
        <path id="Trazado_821364" data-name="Trazado 821364" d="M28.462,212.752c0,2.119-.015,4.238.012,6.357.005.45-.133.544-.553.527-.8-.033-1.6-.017-2.4,0-.36.007-.521-.073-.518-.491q.031-6.409.013-12.818c0-.391.1-.513.49-.5.836.028,1.673.032,2.508,0,.381-.015.462.108.46.464-.015,2.154-.008,4.307-.008,6.461" transform="translate(-14.529 -119.623)" fill="#59bfe2"/>
        <path id="Trazado_821365" data-name="Trazado 821365" d="M225.294,234.633a4.531,4.531,0,0,1-1.083-.285,11.192,11.192,0,0,0-8.924,1.194c-.2.124-.385.257-.384-.139q.006-2.341.015-4.683a.3.3,0,0,1,.113-.275.264.264,0,0,0,.248-.025c3.19,0,6.379.007,9.569-.012.387,0,.469.119.467.47-.009,1.216.011,2.432.02,3.649l-.039.106" transform="translate(-124.899 -133.911)" fill="#f6f9fa"/>
        <path id="Trazado_821366" data-name="Trazado 821366" d="M132.275,197.951c-.1-.432.219-.333.439-.333,2,0,4.008,0,6.012,0,1.1,0,2.2-.006,3.294-.01.719,0,.719,0,.68.746a.322.322,0,0,0,0,.425c0,.067,0,.134,0,.2a.213.213,0,0,0-.007.32l-.008.826c-.067.038-.065.075,0,.113l0,.2a.327.327,0,0,0,.009.425c0,.294-.236.2-.377.2q-4.807.011-9.613.006a.563.563,0,0,1-.4-.088,3.964,3.964,0,0,0,0-1.262q-.008-.689-.015-1.377a.3.3,0,0,0-.009-.4" transform="translate(-76.866 -114.848)" fill="#efc4a4"/>
        <path id="Trazado_821367" data-name="Trazado 821367" d="M220.059,217.505c-1.57,0-3.14-.01-4.71.008-.366,0-.477-.1-.462-.471.037-.868.033-1.738.023-2.608,0-.289.081-.39.382-.389q4.815.009,9.629-.009c.3,0,.389.1.385.389-.013.887-.024,1.775.011,2.66.015.372-.125.428-.444.425-1.6-.012-3.21-.005-4.815-.005" transform="translate(-124.89 -124.395)" fill="#f6f9fa"/>
        <path id="Trazado_821368" data-name="Trazado 821368" d="M115.8,156.761c0-.284.216-.22.375-.221.922,0,1.844,0,2.766,0,.244,0,.423.031.363.338a.179.179,0,0,0-.028.013.44.44,0,0,0,.022.05q0,3.049-.007,6.1c-.071.059-.054.114.01.165-.006.332-.264.211-.423.213-.851.013-1.7-.02-2.554.021-.465.022-.548-.16-.544-.57.021-2.009.017-4.019.021-6.028.01-.006.029-.016.028-.018a.516.516,0,0,0-.03-.056" transform="translate(-67.292 -90.976)" fill="#c48a60"/>
        <path id="Trazado_821369" data-name="Trazado 821369" d="M132.3,161.865q-.011-2.366-.022-4.732l.028-.017-.031-.049c-.1-.407.009-.578.48-.554.982.049,1.968.035,2.951.046-.005.034.009.053.041.056q.017,3.22.034,6.439c0,.172-.04.339-.24.332a18.814,18.814,0,0,1-3.207-.082l-.059-.1c.005-.079.01-.157.014-.235a.194.194,0,0,0,.016-.263l-.009-.771c.009-.006.027-.015.026-.018a.446.446,0,0,0-.024-.054" transform="translate(-76.859 -90.962)" fill="#c48a60"/>
        <path id="Trazado_821370" data-name="Trazado 821370" d="M102.738,156.943q.017,3.139.034,6.278l-.046.09c-.117.155-.288.106-.436.1a20.442,20.442,0,0,1-2.961-.083l-.06-.107.006-.339a.177.177,0,0,0,.028-.015c-.007-.017-.016-.033-.025-.049-.009-1.976-.014-3.952-.033-5.928,0-.262.057-.365.342-.36.921.017,1.844.011,2.765,0,.238,0,.423.023.385.327a.062.062,0,0,0,0,.085" transform="translate(-57.681 -90.972)" fill="#c48a60"/>
        <path id="Trazado_821371" data-name="Trazado 821371" d="M86.266,156.951c-.008,2-.028,3.995-.015,5.992,0,.371-.1.482-.463.473q-1.28-.03-2.561.01c-.374.011-.472-.122-.469-.482.017-2.015.015-4.029.006-6.044,0-.258.045-.374.336-.369.958.015,1.916.006,2.875.006.163,0,.33-.007.308.233a.121.121,0,0,0-.018.182" transform="translate(-48.099 -90.973)" fill="#c48a60"/>
        <path id="Trazado_821372" data-name="Trazado 821372" d="M66.252,159.979c0-1.024.011-2.049-.007-3.073-.005-.3.083-.384.38-.378.905.018,1.812.017,2.717,0,.3-.005.39.1.39.389q.007,3.047.042,6.094c0,.335-.134.413-.436.408-.871-.013-1.742-.018-2.613.005-.369.01-.488-.114-.48-.477.019-.989.007-1.979.007-2.969" transform="translate(-38.501 -90.972)" fill="#c48a60"/>
        <path id="Trazado_821373" data-name="Trazado 821373" d="M148.838,159.911c0-.989.013-1.978-.007-2.967-.007-.325.1-.42.418-.414q1.358.024,2.716,0c.306-.005.378.108.376.395q-.014,3.046,0,6.092c0,.325-.1.415-.418.408-.853-.019-1.707-.03-2.558,0-.437.018-.576-.114-.563-.551.029-.988.009-1.978.009-2.966h.024" transform="translate(-86.483 -90.973)" fill="#c48a60"/>
        <path id="Trazado_821374" data-name="Trazado 821374" d="M165.36,162.916q-.008-3.034-.015-6.069c.009-.1.018-.193.027-.29,1.044-.006,2.087-.008,3.131-.022.243,0,.34.081.339.33q-.013,3.1-.01,6.193c0,.2-.065.345-.289.344q-1.513,0-3.025-.019c-.046,0-.09-.048-.135-.073l-.067-.086q.019-.117.037-.234a.045.045,0,0,0,.007-.075" transform="translate(-96.08 -90.977)" fill="#c48a60"/>
        <path id="Trazado_821375" data-name="Trazado 821375" d="M33.257,159.924c0-1.006.011-2.013-.007-3.02-.005-.3.089-.381.382-.375.887.018,1.776.016,2.663,0,.3-.005.438.058.437.4-.006,2.03,0,4.061.018,6.091,0,.281-.072.41-.38.406-.905-.012-1.811-.013-2.716.008-.34.008-.408-.139-.4-.436.011-1.024,0-2.048.005-3.072" transform="translate(-19.325 -90.973)" fill="#c48a60"/>
        <path id="Trazado_821376" data-name="Trazado 821376" d="M53.25,156.942q-.005,3.142-.01,6.284c-.014.039-.027.079-.041.118a29.646,29.646,0,0,1-3.17.073c-.278.01-.269-.212-.269-.408,0-2.046.007-4.093,0-6.139,0-.251.084-.337.329-.333,1.042.016,2.085.022,3.128.032.01.124.021.249.032.374" transform="translate(-28.921 -90.977)" fill="#c48a60"/>
        <path id="Trazado_821377" data-name="Trazado 821377" d="M20.208,159.929c0,1.026-.01,2.053.005,3.078,0,.316-.09.417-.418.409-.872-.021-1.745-.012-2.617.009-.347.009-.451-.116-.449-.455q.023-3.027.005-6.053c0-.306.092-.39.382-.386.908.013,1.815.012,2.722,0,.275,0,.4.045.39.37-.026,1.008-.01,2.017-.01,3.026h-.013" transform="translate(-9.723 -90.975)" fill="#c48a60"/>
        <path id="Trazado_821378" data-name="Trazado 821378" d="M218.393,159.987c0,1.009-.011,2.017.006,3.026.005.315-.077.419-.409.41-.854-.026-1.71-.024-2.564,0-.425.012-.53-.161-.525-.559.022-1.947.031-3.9.014-5.843,0-.4.1-.511.494-.5.854.028,1.71.026,2.564,0,.353-.01.435.107.428.439-.02,1.008-.007,2.017-.008,3.026" transform="translate(-124.898 -90.968)" fill="#c48a60"/>
        <path id="Trazado_821379" data-name="Trazado 821379" d="M198.652,163.4c-.277-.026-.249-.216-.248-.418.005-2.048.008-4.1-.008-6.143,0-.237.05-.3.274-.3q1.462.009,2.925,0c.229,0,.3.09.3.31q-.011,3.1-.006,6.2c0,.321-.172.369-.432.367-.905-.005-1.811,0-2.716,0-.026-.044-.054-.051-.088-.007" transform="translate(-115.306 -90.977)" fill="#c48a60"/>
        <path id="Trazado_821380" data-name="Trazado 821380" d="M185.381,159.874c0,.989-.01,1.978,0,2.966.006.432-.136.608-.6.585-.8-.039-1.6-.022-2.4,0-.4.01-.508-.156-.505-.529q.026-2.966.017-5.932c0-.3.051-.443.394-.435.9.02,1.81.017,2.715,0,.293-.005.39.079.385.379-.017.988-.007,1.978-.006,2.966" transform="translate(-105.704 -90.972)" fill="#c48a60"/>
        <path id="Trazado_821381" data-name="Trazado 821381" d="M231.426,163.221c.006-2.1.021-4.2.009-6.3,0-.281.01-.4.333-.4.922.018,1.845.016,2.767,0,.293-.005.39.083.387.381q-.023,3.019-.012,6.038c0,.335-.1.467-.442.461-.9-.016-1.81-.005-2.715,0l-.328-.182" transform="translate(-134.502 -90.972)" fill="#c48a60"/>
        <path id="Trazado_821382" data-name="Trazado 821382" d="M224.832,201.028c-.488,0-.977.008-1.464-.006-.106,0-.3.054-.267-.189a21.441,21.441,0,0,0,.052-2.75c.006-.425,0-.632.593-.532a11.931,11.931,0,0,0,2.347.026c.376-.012.531.077.519.485q-.039,1.25.01,2.5c.015.386-.133.482-.484.463-.435-.023-.872-.005-1.307-.005v.007" transform="translate(-129.661 -114.8)" fill="#c48a60"/>
        <path id="Trazado_821383" data-name="Trazado 821383" d="M141.878,184.592c-.324.007-.649.005-.972.022-.246.013-.342-.1-.334-.331l.036-.009-.034-.051a20.58,20.58,0,0,0-.024-2.993v0a26.558,26.558,0,0,1,3.23-.076c.207-.008.2.14.2.284,0,.883.136,1.763.065,2.648-.135.139-.061.314-.083.472a3.009,3.009,0,0,1-1.014.026c-.037-.077-.078-.086-.125-.008l-.713,0c-.08-.1-.157-.09-.232.008" transform="translate(-81.686 -105.279)" fill="#efc4a4"/>
        <path id="Trazado_821384" data-name="Trazado 821384" d="M165.306,217.616a15.125,15.125,0,0,1-.078,2.377,10.449,10.449,0,0,1,.078-2.377" transform="translate(-96.011 -126.476)" fill="#515a65"/>
        <path id="Trazado_821385" data-name="Trazado 821385" d="M132.276,202.66a3.955,3.955,0,0,1,0,1.263,3.309,3.309,0,0,1,0-1.263" transform="translate(-76.842 -117.784)" fill="#515a65"/>
        <path id="Trazado_821386" data-name="Trazado 821386" d="M49.745,237.355a2.546,2.546,0,0,1,.027-.817,1.162,1.162,0,0,1-.027.817" transform="translate(-28.9 -137.473)" fill="#515a65"/>
        <path id="Trazado_821387" data-name="Trazado 821387" d="M157.055,217.079a.846.846,0,0,1,0-.736,2.052,2.052,0,0,1,0,.736" transform="translate(-91.231 -125.736)" fill="#c48a60"/>
        <path id="Trazado_821388" data-name="Trazado 821388" d="M132.149,198.427a.3.3,0,0,1,.009.4c-.3-.126.063-.266-.009-.4" transform="translate(-76.74 -115.324)" fill="#515a65"/>
        <path id="Trazado_821389" data-name="Trazado 821389" d="M156.934,214.644l-.182-.519c.366.067.168.33.182.519" transform="translate(-91.103 -124.447)" fill="#c48a60"/>
        <path id="Trazado_821390" data-name="Trazado 821390" d="M16.753,237.157a1.334,1.334,0,0,1,0-.606.886.886,0,0,1,0,.606" transform="translate(-9.717 -137.481)" fill="#515a65"/>
        <path id="Trazado_821391" data-name="Trazado 821391" d="M231.426,172.51l.328.182c-.159.027-.306.035-.328-.182" transform="translate(-134.502 -100.261)" fill="#515a65"/>
        <path id="Trazado_821392" data-name="Trazado 821392" d="M148.7,188.649c.022-.158-.052-.334.083-.472.027.167.112.344-.083.472" transform="translate(-86.42 -109.366)" fill="#c48a60"/>
        <path id="Trazado_821393" data-name="Trazado 821393" d="M215.455,230.238a.261.261,0,0,1-.247.025c0-.093.026-.175.136-.168.076,0,.108.069.111.143" transform="translate(-125.077 -133.728)" fill="#515a65"/>
        <path id="Trazado_821394" data-name="Trazado 821394" d="M58.049,156.987c-.01-.125-.021-.249-.032-.374.155.112.1.243.032.374" transform="translate(-33.719 -91.022)" fill="#515a65"/>
        <path id="Trazado_821395" data-name="Trazado 821395" d="M157.057,204.807a.327.327,0,0,1-.009-.425l.009.425" transform="translate(-91.232 -118.785)" fill="#c48a60"/>
        <path id="Trazado_821396" data-name="Trazado 821396" d="M58.039,245.807c.091.119.036.248.025.374-.133-.117-.077-.246-.025-.374" transform="translate(-33.699 -142.86)" fill="#515a65"/>
        <path id="Trazado_821397" data-name="Trazado 821397" d="M157.076,199.821a.322.322,0,0,1,0-.425l0,.425" transform="translate(-91.245 -115.887)" fill="#c48a60"/>
        <path id="Trazado_821398" data-name="Trazado 821398" d="M132.338,171.309a.193.193,0,0,1-.016.263.264.264,0,0,1,.016-.263" transform="translate(-76.888 -99.563)" fill="#515a65"/>
        <path id="Trazado_821399" data-name="Trazado 821399" d="M132.35,222.078a.218.218,0,0,1-.033.318l.033-.318" transform="translate(-76.901 -129.069)" fill="#c48a60"/>
        <path id="Trazado_821400" data-name="Trazado 821400" d="M165.323,156.589c-.009.1-.018.193-.027.29-.06-.1-.124-.206.027-.29" transform="translate(-96.03 -91.008)" fill="#515a65"/>
        <path id="Trazado_821401" data-name="Trazado 821401" d="M255.308,148.128a.189.189,0,0,1,.283.026l-.283-.026" transform="translate(-148.382 -86.061)" fill="#515a65"/>
        <path id="Trazado_821402" data-name="Trazado 821402" d="M157.066,201.212a.213.213,0,0,1,.007-.32c0,.107,0,.213-.007.32" transform="translate(-91.245 -116.756)" fill="#c48a60"/>
        <path id="Trazado_821403" data-name="Trazado 821403" d="M124.111,172.217c-.064-.052-.081-.106-.01-.165,0,.055.007.111.01.165" transform="translate(-72.099 -99.995)" fill="#515a65"/>
        <path id="Trazado_821404" data-name="Trazado 821404" d="M57.972,172.627l.041-.118.032.111-.072.008" transform="translate(-33.693 -100.26)" fill="#515a65"/>
        <path id="Trazado_821405" data-name="Trazado 821405" d="M165.214,172.51l.067.086c-.054,0-.119.028-.142-.05a.422.422,0,0,1,.074-.036" transform="translate(-95.978 -100.261)" fill="#515a65"/>
        <path id="Trazado_821406" data-name="Trazado 821406" d="M91.088,157.283a.121.121,0,0,1,.018-.182.143.143,0,0,1-.018.182" transform="translate(-52.92 -91.305)" fill="#515a65"/>
        <path id="Trazado_821407" data-name="Trazado 821407" d="M143.722,189.268c.074-.1.151-.106.232-.008l-.232.008" transform="translate(-83.53 -109.956)" fill="#c48a60"/>
        <path id="Trazado_821408" data-name="Trazado 821408" d="M115.808,157.075a.516.516,0,0,1,.03.056s-.018.013-.028.018a.05.05,0,0,1,0-.074" transform="translate(-67.297 -91.29)" fill="#515a65"/>
        <path id="Trazado_821409" data-name="Trazado 821409" d="M132.3,157.84l.031.049-.028.017a.042.042,0,0,1,0-.066" transform="translate(-76.884 -91.735)" fill="#515a65"/>
        <path id="Trazado_821410" data-name="Trazado 821410" d="M124.15,157.408a.444.444,0,0,1-.022-.05.168.168,0,0,1,.028-.014.04.04,0,0,1-.006.064" transform="translate(-72.142 -91.447)" fill="#515a65"/>
        <path id="Trazado_821411" data-name="Trazado 821411" d="M16.768,206.485a.068.068,0,0,1,0-.088.373.373,0,0,1,.024.063c0,.007-.015.017-.024.026" transform="translate(-9.736 -119.956)" fill="#515a65"/>
        <path id="Trazado_821412" data-name="Trazado 821412" d="M145.978,189.273c.046-.078.088-.07.125.007l-.125-.007" transform="translate(-84.841 -109.971)" fill="#c48a60"/>
        <path id="Trazado_821413" data-name="Trazado 821413" d="M140.572,188.5l.034.051-.036.009-.022-.031Z" transform="translate(-81.685 -109.552)" fill="#515a65"/>
        <path id="Trazado_821414" data-name="Trazado 821414" d="M140.555,156.684c-.033,0-.047-.022-.042-.056l.046.012Z" transform="translate(-81.664 -91.03)" fill="#515a65"/>
        <path id="Trazado_821415" data-name="Trazado 821415" d="M132.322,215.089c.065.033.077.071.009.115l-.009-.115" transform="translate(-76.904 -125.007)" fill="#c48a60"/>
        <path id="Trazado_821416" data-name="Trazado 821416" d="M140.441,181.347v0c-.013.008-.027.023-.04.022s-.025-.017-.038-.026l.078.008" transform="translate(-81.577 -105.392)" fill="#515a65"/>
        <path id="Trazado_821417" data-name="Trazado 821417" d="M199.008,172.884c.033-.044.062-.037.088.007l-.045.013Z" transform="translate(-115.661 -100.461)" fill="#515a65"/>
        <path id="Trazado_821418" data-name="Trazado 821418" d="M132.311,172.5l.059.1c-.062-.008-.087-.036-.059-.1" transform="translate(-76.891 -100.255)" fill="#515a65"/>
        <path id="Trazado_821419" data-name="Trazado 821419" d="M157.139,227.165a.468.468,0,0,1-.037-.081c0-.007.022-.021.035-.032,0,.038,0,.076,0,.113" transform="translate(-91.306 -131.96)" fill="#c48a60"/>
        <path id="Trazado_821420" data-name="Trazado 821420" d="M157.159,227.914a.48.48,0,0,1-.036-.079c0-.008.021-.022.031-.033,0,.037,0,.075,0,.112" transform="translate(-91.318 -132.396)" fill="#c48a60"/>
        <path id="Trazado_821421" data-name="Trazado 821421" d="M107.556,172.6l.046-.09c.028.052.008.08-.046.09" transform="translate(-62.51 -100.262)" fill="#515a65"/>
        <path id="Trazado_821422" data-name="Trazado 821422" d="M99.242,230.331l.11-.013-.11.013" transform="translate(-57.678 -133.858)" fill="#515a65"/>
        <path id="Trazado_821423" data-name="Trazado 821423" d="M147.744,230.368l.116.016c-.046.047-.083.033-.116-.016" transform="translate(-85.867 -133.887)" fill="#515a65"/>
        <path id="Trazado_821424" data-name="Trazado 821424" d="M152.009,230.329a.068.068,0,0,1,.094-.006l-.094.006" transform="translate(-88.346 -133.852)" fill="#515a65"/>
        <path id="Trazado_821425" data-name="Trazado 821425" d="M205.215,230.38l.129-.019a.08.08,0,0,1-.129.019" transform="translate(-119.269 -133.883)" fill="#515a65"/>
        <path id="Trazado_821426" data-name="Trazado 821426" d="M99.291,172.505l.059.107c-.061-.013-.082-.049-.059-.107" transform="translate(-57.702 -100.258)" fill="#515a65"/>
        <path id="Trazado_821427" data-name="Trazado 821427" d="M165.381,171.771a.045.045,0,0,1-.007.075l-.022-.04Z" transform="translate(-96.101 -99.831)" fill="#515a65"/>
        <path id="Trazado_821428" data-name="Trazado 821428" d="M99.3,171.543a.45.45,0,0,1,.025.049l-.028.015a.041.041,0,0,1,0-.064" transform="translate(-57.702 -99.699)" fill="#515a65"/>
        <path id="Trazado_821429" data-name="Trazado 821429" d="M132.353,169.3a.445.445,0,0,1,.024.054s-.017.012-.026.018a.042.042,0,0,1,0-.072" transform="translate(-76.91 -98.393)" fill="#515a65"/>
        <path id="Trazado_821430" data-name="Trazado 821430" d="M239.714,240.349l.039-.106c.088.072.059.1-.039.106" transform="translate(-139.319 -139.627)" fill="#515a65"/>
        <path id="Trazado_821431" data-name="Trazado 821431" d="M107.561,157.4a.062.062,0,0,1,0-.085.469.469,0,0,1,.027.062c0,.005-.017.015-.026.023" transform="translate(-62.504 -91.431)" fill="#515a65"/>
        <path id="Trazado_821432" data-name="Trazado 821432" d="M157.074,203.742c-.064-.038-.066-.076,0-.113,0,.038,0,.075,0,.113" transform="translate(-91.261 -118.347)" fill="#c48a60"/>
        <path id="Trazado_821433" data-name="Trazado 821433" d="M157.333,22.054c-3.35,0-6.7.011-10.049-.012a2.887,2.887,0,0,1-1.542-.205,1.527,1.527,0,0,1-.807-1.411q0-2.27,0-4.539c0-.713-.008-.714-.733-.717-.768,0-1.535.008-2.3-.011-.378-.009-.529.113-.512.511.036.833.02,1.669.044,2.5a.67.67,0,0,1-.567.778,8.621,8.621,0,0,0-5.661,4.974,6.558,6.558,0,0,0-.64,3.443,13.364,13.364,0,0,1,0,1.46c0,3.878.015,7.756-.015,11.635a18.071,18.071,0,0,0,.289,2.9,10.02,10.02,0,0,0,1.744,4.3c.312.446.279.511-.231.709a7.609,7.609,0,0,0-5.185,6.4,7.374,7.374,0,0,0,.916,4.675c.214.379.219.518-.288.513-2.146-.023-4.292-.01-6.437-.019-.159,0-.4.1-.465-.091-.054-.162.155-.292.273-.412a24.8,24.8,0,0,1,2.594-2.161,7.925,7.925,0,0,0,2.814-3.422,6.386,6.386,0,0,0-.864-6.425,13.874,13.874,0,0,0-3.128-2.87,9.517,9.517,0,0,1-1.638-1.5,3.234,3.234,0,0,1,.232-4.377c.671-.627,1.406-1.161,2.123-1.722a18.351,18.351,0,0,0,2.479-2.365,5.256,5.256,0,0,0,1.148-2.829,64.39,64.39,0,0,0,.165-8.115,14.313,14.313,0,0,1,.682-4.413,15.567,15.567,0,0,1,4.612-7.149,16.3,16.3,0,0,1,4.821-2.791,17.031,17.031,0,0,1,6.165-1.013c3.96.01,7.921-.01,11.88.009a22.593,22.593,0,0,1,4.125.323,17.083,17.083,0,0,1,4.4,1.574,13.555,13.555,0,0,1,3.443,2.472,16.519,16.519,0,0,1,3.025,4.022c.481.9.771,1.87,1.233,2.777a5.057,5.057,0,0,1,.24,1.4c.138.919.192,1.846.239,2.778.22,4.428.049,8.857.086,13.286a14.626,14.626,0,0,1-1.613,6.663c-.184.374-.383.486-.769.283A4.916,4.916,0,0,1,172.5,43.3c-.341-.33-.006-.821.01-1.241.179-4.9.092-9.8.057-14.7a5.172,5.172,0,0,0-3.244-4.9,4.709,4.709,0,0,0-2.042-.392c-3.314-.027-6.629-.012-9.944-.012Z" transform="translate(-72.187 -4.81)" fill="#515a65"/>
        <path id="Trazado_821434" data-name="Trazado 821434" d="M25.046,53.652c0-2.468-.013-4.937.005-7.4a4.947,4.947,0,0,1,2.695-4.015c.353-.139.678-.538,1.047-.44.39.1.429.635.668.951a5.119,5.119,0,0,0,4.252,2.23q9.967,0,19.935.007a7.362,7.362,0,0,1,1.236.108,1.681,1.681,0,0,1,1.232,1.669q0,3.99,0,7.98c0,1.86,0,3.72,0,5.581a8.626,8.626,0,0,1-6.25,8.479A9.641,9.641,0,0,1,47,69.143c-4.36.008-8.72-.039-13.08,0a8.655,8.655,0,0,1-6.054-2.23,7.945,7.945,0,0,1-2.559-4.19,13.519,13.519,0,0,1-.283-3.077q.005-3,0-6h.018M45.27,49.02c-.094.075-.182.132-.255.2-.645.634-1.284,1.276-1.934,1.9-.2.194-.106.309.049.463.557.551,1.1,1.117,1.655,1.669.243.241.291.431-.02.671-.578.446-1.009,1.052-1.6,1.5-.277.209-.351.426-.043.718q1.006.949,1.952,1.959c.2.21.26.057.36-.041.57-.562,1.149-1.116,1.7-1.7.283-.3.494-.3.772-.007.516.542,1.066,1.052,1.578,1.6.2.215.333.246.546.027q.91-.937,1.847-1.847c.189-.185.2-.325.01-.518-.562-.567-1.1-1.159-1.67-1.715-.229-.223-.242-.353-.005-.577.556-.526,1.07-1.1,1.63-1.619.263-.245.286-.4.016-.656q-.932-.876-1.817-1.8c-.246-.256-.4-.221-.629.023-.5.534-1.03,1.037-1.543,1.558-.241.245-.428.35-.724.016-.495-.56-1.05-1.066-1.583-1.591a3.46,3.46,0,0,0-.291-.232M38.3,51.391c-.091-.11-.168-.222-.263-.316-.6-.6-1.224-1.187-1.81-1.805-.273-.288-.431-.211-.664.039q-.676.724-1.406,1.4c-.282.261-.557.523-.947.033-.43-.541-.983-.983-1.459-1.49-.243-.26-.4-.218-.632.015q-.893.915-1.823,1.793c-.239.224-.223.355.012.575.572.534,1.117,1.1,1.663,1.657.136.139.333.287.091.517-.58.551-1.125,1.142-1.735,1.655-.317.266-.3.416-.038.673.63.619,1.246,1.253,1.867,1.882.219.223.384.182.567-.064a11.428,11.428,0,0,1,1.591-1.623.477.477,0,0,1,.786.038c.491.519,1.023,1,1.5,1.532.25.277.418.284.672.021q.869-.9,1.774-1.769c.217-.207.208-.352,0-.556-.551-.552-1.072-1.135-1.637-1.673-.256-.244-.249-.393,0-.627.552-.529,1.083-1.081,1.622-1.624.085-.086.165-.177.263-.283m2.234,7.45c-.192,0-.384-.006-.575,0a3.708,3.708,0,0,0-.571.049,7.581,7.581,0,0,0-5.375,3.981c-.172.312,0,.351.182.443.759.384,1.531.746,2.277,1.155.392.215.588.107.771-.255a3.83,3.83,0,0,1,5.592-1.238,4.028,4.028,0,0,1,1.249,1.447c.064.115.056.353.352.194.841-.451,1.7-.861,2.564-1.277.283-.137.261-.3.125-.539a7.179,7.179,0,0,0-6.591-3.961" transform="translate(-14.546 -24.28)" fill="#efc4a4"/>
        <path id="Trazado_821435" data-name="Trazado 821435" d="M176.525,69.015a7.609,7.609,0,0,0,1.29-5.287,5.283,5.283,0,0,0-2.795-4.072,5.74,5.74,0,0,0-8.112,2.6A9.5,9.5,0,0,0,166.334,64a.674.674,0,0,1-.5.53c-1.953.634-3.909,1.262-5.852,1.924a.528.528,0,0,1-.674-.17,9.247,9.247,0,0,1-2-4.049,9.35,9.35,0,0,1-.105-2.012c-.009-4.486.032-8.973-.025-13.458a5.2,5.2,0,0,1,3.164-4.761c.564-.222.671-.173.985.348a5.013,5.013,0,0,0,4.5,2.679q10.047,0,20.094.009a2.26,2.26,0,0,1,1.973.707,2.318,2.318,0,0,1,.383,1.523c.028,4.416.062,8.833,0,13.249a8.705,8.705,0,0,1-4.462,7.557,7.267,7.267,0,0,1-3.774,1.093c-1.15-.012-2.3.021-3.451.035l-.074-.189m6-17.566a1.9,1.9,0,0,0-.18-.25c-.653-.651-1.317-1.291-1.96-1.95-.238-.244-.374-.114-.551.063-1.372,1.371-2.742,2.744-4.131,4.1-.242.236-.205.4,0,.585,1.432,1.3,2.751,2.705,4.131,4.053.218.213.356.247.576.021q.909-.936,1.847-1.844c.242-.234.245-.42.005-.652-.533-.517-1.032-1.072-1.586-1.565-.314-.279-.261-.436.009-.69.545-.512,1.062-1.054,1.589-1.584.085-.086.163-.179.257-.283m-17.454,2.229c-.1.1-.179.193-.264.276-.542.536-1.07,1.088-1.636,1.6-.288.26-.255.421,0,.665.555.525,1.088,1.073,1.626,1.616.376.379.573.392.951.017,1.285-1.274,2.56-2.557,3.855-3.821.276-.27.255-.464,0-.714q-1.968-1.944-3.922-3.9a.441.441,0,0,0-.741,0q-.864.87-1.757,1.711c-.225.212-.238.361,0,.587.562.545,1.1,1.117,1.641,1.679.082.085.155.178.246.285" transform="translate(-91.355 -24.34)" fill="#efc4a4"/>
        <path id="Trazado_821436" data-name="Trazado 821436" d="M30.965,8.357c2.285,0,4.57-.015,6.856,0A15.321,15.321,0,0,1,51.44,16.047,14.188,14.188,0,0,1,53.4,22.721c.077,1.055,0,2.12,0,3.181,0,.4-.109.549-.524.348a5.359,5.359,0,0,0-2.77-.614.564.564,0,0,1-.588-.409A5.178,5.178,0,0,0,44.416,22.1q-9.839-.005-19.677,0c-.227,0-.454,0-.68-.009a1.642,1.642,0,0,1-1.7-1.722c-.014-1.53-.011-3.061.021-4.59.01-.462-.129-.609-.591-.588-.8.037-1.6.019-2.407.018-.356,0-.525.11-.511.517.032.921,0,1.843.014,2.765a.4.4,0,0,1-.351.469,8.435,8.435,0,0,0-6.233,6.126c-.1.361-.258.533-.637.528a5.753,5.753,0,0,0-2.559.647c-.291.139-.429.137-.466-.245-.443-4.622.485-8.85,3.647-12.406A15.08,15.08,0,0,1,24.057,8.356q3.454,0,6.908,0" transform="translate(-4.957 -4.853)" fill="#c48a60"/>
        <path id="Trazado_821437" data-name="Trazado 821437" d="M72.507,106.252c1.2-.016,2.413.048,3.607-.065a11.33,11.33,0,0,0,7.251-3.332,13.437,13.437,0,0,0,2.215-2.816.5.5,0,0,1,.743-.2,6.764,6.764,0,0,1,4.229,5.286,6.609,6.609,0,0,1-1.137,5.1,6.535,6.535,0,0,1-5.378,2.894c-3.488.043-6.977.021-10.466.022-1.224,0-1.223-.005-.74-1.132a5.66,5.66,0,0,0,.464-3.03,12.464,12.464,0,0,0-.818-2.537c.01-.06.02-.121.03-.182" transform="translate(-42.123 -57.975)" fill="#c48a60"/>
        <path id="Trazado_821438" data-name="Trazado 821438" d="M22.34,106.9c.005,1.878.015,3.755.008,5.632,0,.193.126.479-.219.553a1.1,1.1,0,0,0-.572-.009c-2.233-.007-4.467.017-6.7-.032a6.418,6.418,0,0,1-4.292-1.88,5.861,5.861,0,0,1-1.8-2.791,8.613,8.613,0,0,1-.283-2.508,6.956,6.956,0,0,1,4.479-6.153.378.378,0,0,1,.55.212,14.706,14.706,0,0,0,1.925,2.656l-.016.154c-.451.022-.9.057-1.354.061-.268,0-.368.1-.364.37.014.867.029,1.736,0,2.6-.013.38.155.42.465.419q3.734-.014,7.468-.007c.19,0,.379.026.568.039a.071.071,0,0,0,.08.049q.03.15.058.3a.439.439,0,0,0,0,.333" transform="translate(-4.926 -57.923)" fill="#c48a60"/>
        <path id="Trazado_821439" data-name="Trazado 821439" d="M223.237,109.011c0-1.164.011-2.329-.008-3.493a.576.576,0,0,1,.362-.6,11.755,11.755,0,0,0,4.936-4.735c.237-.413.453-.413.828-.228a7.091,7.091,0,0,1,4.062,5.074,6.807,6.807,0,0,1-5.277,8,13.233,13.233,0,0,1-4.084.026c-.825-.1-.82-.142-.82-.959q0-1.538,0-3.076" transform="translate(-129.739 -58.021)" fill="#efc4a4"/>
        <path id="Trazado_821440" data-name="Trazado 821440" d="M153.221,118.416a4.356,4.356,0,0,1-4.293-3.26,4.466,4.466,0,0,1,2.338-4.821c1.3-.558,2.681-.872,3.989-1.4.281-.113.445.13.6.32q1.373,1.71,2.742,3.423c.337.421.671.845,1.02,1.256.2.23.2.393-.044.606-1.015.877-2,1.784-3.02,2.658a4.711,4.711,0,0,1-3.33,1.221" transform="translate(-86.488 -63.294)" fill="#efc4a4"/>
        <path id="Trazado_821441" data-name="Trazado 821441" d="M183.774,93.587a4.639,4.639,0,0,1-1.669,3.009c-1.676,1.493-3.363,2.974-5.039,4.467-.222.2-.371.325-.619.014-.988-1.235-2-2.455-3-3.677-.244-.3.012-.346.2-.409,1.321-.436,2.634-.9,3.97-1.279a1.27,1.27,0,0,0,.931-1.022,19.367,19.367,0,0,1,.922-2.672,2.069,2.069,0,0,1,2.411-1.274c1.272.218,1.891,1.006,1.892,2.842" transform="translate(-100.747 -52.715)" fill="#efc4a4"/>
        <path id="Trazado_821442" data-name="Trazado 821442" d="M199.63,115.384c.012,1.893.016,3.786.043,5.679,0,.313-.144.3-.351.263-.715-.141-1.438-.254-2.141-.441a25.519,25.519,0,0,1-3.079-.927,37.278,37.278,0,0,1-4.667-2.092c-.266-.153-.594-.173-.834-.427a16.864,16.864,0,0,1,2.472-2.182,1.368,1.368,0,0,1,.862-.141q3.37-.018,6.742-.039a3.559,3.559,0,0,0,.673-.065c.254-.051.319.051.285.276-.013.008-.035.019-.034.024a.409.409,0,0,0,.027.07" transform="translate(-109.613 -66.837)" fill="#efc4a4"/>
        <path id="Trazado_821443" data-name="Trazado 821443" d="M52.885,122.09h-.291a8.875,8.875,0,0,0-1.8,0l-.718-.007-.112,0c-.312-.079-.188-.331-.189-.514-.014-1.887-.018-3.773-.024-5.66.108-.063.13-.13.01-.2.008-.105.015-.21.023-.315l.075-.107a13.063,13.063,0,0,1,4.5.175,3.2,3.2,0,0,1,2.263,2.807,3.235,3.235,0,0,1-1.373,3.136,3.339,3.339,0,0,1-2.233.691h-.13" transform="translate(-28.915 -66.937)" fill="#efc4a4"/>
        <path id="Trazado_821444" data-name="Trazado 821444" d="M11.987,61.282c0,.991,0,1.982,0,2.973,0,.37-.071.5-.52.42a3.459,3.459,0,0,1-2.935-3.988,3.226,3.226,0,0,1,3.1-2.84c.28,0,.355.088.351.356-.013,1.026-.005,2.051-.005,3.077h.008" transform="translate(-4.939 -33.621)" fill="#efc4a4"/>
        <path id="Trazado_821445" data-name="Trazado 821445" d="M107.532,61.05c0-1.006.009-2.012-.005-3.018,0-.315.044-.415.4-.339a4.525,4.525,0,0,1,1.625.645,3.381,3.381,0,0,1,1.35,3.554,3.522,3.522,0,0,1-2.9,2.641c-.362.07-.457-.078-.454-.412.012-1.023,0-2.047,0-3.07Z" transform="translate(-62.493 -33.516)" fill="#efc4a4"/>
        <path id="Trazado_821446" data-name="Trazado 821446" d="M182.821,128.733H176.58a11.938,11.938,0,0,1,1.307-1.331,1.577,1.577,0,0,0,.25-.18c.593-.691.542-.743,1.519-.2,1.041.58,2.082,1.159,3.165,1.71" transform="translate(-102.626 -73.61)" fill="#515a65"/>
        <path id="Trazado_821447" data-name="Trazado 821447" d="M52.243,131.622a8.878,8.878,0,0,1,1.8,0,5.957,5.957,0,0,1-1.8,0" transform="translate(-30.363 -76.471)" fill="#515a65"/>
        <path id="Trazado_821448" data-name="Trazado 821448" d="M49.523,116.435c.12.074.1.141-.01.2l-.171-.161.181-.042" transform="translate(-28.677 -67.671)" fill="#c48a60"/>
        <path id="Trazado_821449" data-name="Trazado 821449" d="M39.71,131.646a1.1,1.1,0,0,1,.572.009.634.634,0,0,1-.572-.009" transform="translate(-23.079 -76.492)" fill="#515a65"/>
        <path id="Trazado_821450" data-name="Trazado 821450" d="M41.538,116.484a.439.439,0,0,1,0-.333.307.307,0,0,1,0,.333" transform="translate(-24.123 -67.506)" fill="#515a65"/>
        <path id="Trazado_821451" data-name="Trazado 821451" d="M72.406,115.273c-.01.061-.02.121-.03.182-.081-.075-.121-.144.03-.182" transform="translate(-42.022 -66.995)" fill="#515a65"/>
        <path id="Trazado_821452" data-name="Trazado 821452" d="M203.269,106.671l.074.189c-.166-.008-.178-.076-.074-.189" transform="translate(-118.099 -61.996)" fill="#515a65"/>
        <path id="Trazado_821453" data-name="Trazado 821453" d="M255.59,140.014l-.037.007-.028-.026.065.018" transform="translate(-148.508 -81.364)" fill="#515a65"/>
        <path id="Trazado_821454" data-name="Trazado 821454" d="M254.6,139.983l-.047.018-.048-.014c.03-.044.062-.047.1,0" transform="translate(-147.915 -81.339)" fill="#515a65"/>
        <path id="Trazado_821455" data-name="Trazado 821455" d="M57.234,131.689h.13c-.043.064-.086.067-.13,0" transform="translate(-33.264 -76.536)" fill="#515a65"/>
        <path id="Trazado_821456" data-name="Trazado 821456" d="M50.26,131.663l.112,0c-.038.046-.076.048-.112,0" transform="translate(-29.211 -76.521)" fill="#515a65"/>
        <path id="Trazado_821457" data-name="Trazado 821457" d="M214.9,115.784a.408.408,0,0,1-.027-.07c0-.005.022-.016.034-.024a.074.074,0,0,1-.007.094" transform="translate(-124.88 -67.238)" fill="#c48a60"/>
        <path id="Trazado_821458" data-name="Trazado 821458" d="M49.886,115.429l-.075.107c-.034-.077,0-.105.075-.107" transform="translate(-28.942 -67.086)" fill="#c48a60"/>
        <path id="Trazado_821459" data-name="Trazado 821459" d="M41.338,115.367a.071.071,0,0,1-.08-.049l.08.049" transform="translate(-23.979 -67.022)" fill="#515a65"/>
        <path id="Trazado_821460" data-name="Trazado 821460" d="M25.056,106.783c.005-.051.011-.1.016-.153.068.059.1.114-.016.153" transform="translate(-14.562 -61.972)" fill="#515a65"/>
        <path id="Trazado_821461" data-name="Trazado 821461" d="M70.108,59.071a3.617,3.617,0,0,1,.291.232c.533.526,1.088,1.032,1.583,1.592.3.334.483.229.724-.016.513-.521,1.045-1.024,1.543-1.558.228-.245.383-.279.629-.023q.886.922,1.817,1.8c.271.254.246.411-.016.656-.56.522-1.074,1.093-1.63,1.619-.237.224-.224.354.005.577.572.556,1.108,1.148,1.67,1.715.191.193.18.333-.01.518q-.934.912-1.846,1.846c-.213.219-.345.188-.546-.026-.512-.546-1.062-1.056-1.578-1.6-.278-.292-.489-.294-.772.007-.547.583-1.126,1.137-1.7,1.7-.1.1-.164.251-.36.041q-.944-1.01-1.952-1.96c-.309-.291-.235-.508.043-.718.586-.442,1.017-1.049,1.6-1.495.312-.24.263-.43.02-.671-.556-.552-1.1-1.118-1.655-1.669-.155-.153-.25-.268-.049-.463.65-.629,1.289-1.27,1.934-1.9a3.192,3.192,0,0,1,.255-.2" transform="translate(-39.383 -34.331)" fill="#060607"/>
        <path id="Trazado_821462" data-name="Trazado 821462" d="M43.931,61.515c-.1.106-.178.2-.263.283-.539.544-1.07,1.1-1.623,1.624-.244.234-.252.382,0,.627.565.538,1.086,1.121,1.637,1.673.2.2.212.349,0,.556q-.9.866-1.774,1.769c-.253.263-.421.256-.672-.021-.479-.53-1.011-1.013-1.5-1.532a.477.477,0,0,0-.786-.038,11.431,11.431,0,0,0-1.592,1.623c-.183.246-.348.287-.567.064-.62-.629-1.236-1.263-1.866-1.882-.261-.257-.279-.407.037-.673.611-.513,1.156-1.1,1.736-1.656.242-.23.044-.378-.091-.517-.546-.561-1.091-1.123-1.663-1.658-.235-.22-.251-.351-.012-.575q.932-.876,1.822-1.794c.228-.233.389-.275.632-.015.475.507,1.029.949,1.459,1.49.389.49.664.227.947-.033q.728-.672,1.405-1.4c.232-.249.391-.327.664-.039.586.618,1.207,1.2,1.81,1.805.095.095.172.206.263.316" transform="translate(-20.182 -34.404)" fill="#060607"/>
        <path id="Trazado_821463" data-name="Trazado 821463" d="M52.89,82.519a7.179,7.179,0,0,1,6.591,3.961c.136.241.158.4-.125.539-.859.416-1.723.825-2.564,1.277-.3.159-.288-.079-.352-.194a4.028,4.028,0,0,0-1.249-1.447A3.83,3.83,0,0,0,49.6,87.894c-.183.362-.379.471-.771.255-.745-.41-1.517-.771-2.277-1.156-.183-.092-.354-.132-.182-.443a7.581,7.581,0,0,1,5.375-3.981,3.708,3.708,0,0,1,.571-.049c.191-.008.383,0,.575,0" transform="translate(-26.908 -47.958)" fill="#060607"/>
        <path id="Trazado_821464" data-name="Trazado 821464" d="M207.994,61.489c-.094.1-.172.2-.257.283-.527.531-1.044,1.073-1.589,1.584-.27.254-.323.411-.009.69.554.493,1.053,1.047,1.586,1.565a.385.385,0,0,1-.005.652q-.938.907-1.846,1.844c-.22.227-.358.192-.576-.021-1.38-1.348-2.7-2.757-4.131-4.053-.2-.182-.238-.349,0-.585,1.39-1.353,2.76-2.726,4.131-4.1.178-.177.313-.307.551-.063.644.659,1.308,1.3,1.96,1.951a1.873,1.873,0,0,1,.18.249" transform="translate(-116.82 -34.38)" fill="#060607"/>
        <path id="Trazado_821465" data-name="Trazado 821465" d="M173.1,63.854c-.092-.107-.164-.2-.246-.285-.544-.562-1.08-1.134-1.641-1.679-.233-.226-.22-.375,0-.587q.892-.841,1.757-1.711a.441.441,0,0,1,.741,0q1.948,1.963,3.922,3.9c.253.25.275.444,0,.714-1.295,1.264-2.569,2.548-3.855,3.821-.378.374-.575.362-.951-.017-.538-.543-1.071-1.091-1.626-1.616-.258-.244-.291-.406,0-.665.565-.511,1.093-1.063,1.636-1.6.085-.083.164-.171.264-.276" transform="translate(-99.384 -34.516)" fill="#060607"/>
      </g>
    </g>
  </g>
</svg>
