<svg xmlns="http://www.w3.org/2000/svg" xmlns:xlink="http://www.w3.org/1999/xlink" width="64.573" height="64.562" viewBox="0 0 64.573 64.562">
  <defs>
    <clipPath id="clip-path">
      <rect id="Rectángulo_377507" data-name="Rectángulo 377507" width="64.573" height="64.562" fill="none"/>
    </clipPath>
  </defs>
  <g id="Grupo_1073242" data-name="Grupo 1073242" clip-path="url(#clip-path)">
    <path id="Trazado_819764" data-name="Trazado 819764" d="M34.138,16.123a19.514,19.514,0,0,1,14.787,5.117,19.031,19.031,0,0,1,6.308,12.669,19.07,19.07,0,0,1-5.444,15.412,19.154,19.154,0,0,1-11.01,5.762A18.827,18.827,0,0,1,24,51.362a19.132,19.132,0,0,1-7.791-13.721,18.833,18.833,0,0,1,4.609-14.578,19.471,19.471,0,0,1,13.32-6.939m1.97,36.149c.411-.045,1.215.007,2.016-.122A16.592,16.592,0,0,0,52.336,35.625a15.255,15.255,0,0,0-.109-1.785,15.5,15.5,0,0,0-.492-2.6,17.359,17.359,0,0,0-1.343-3.321,12.613,12.613,0,0,0-.647-1.1,14.144,14.144,0,0,0-1.754-2.229c-.615-.615-1.222-1.241-1.862-1.828a14.279,14.279,0,0,0-2.642-1.747A17.068,17.068,0,0,0,39.3,19.484a27.9,27.9,0,0,0-2.871-.365,10.033,10.033,0,0,0-1.937.039,18.391,18.391,0,0,0-3.276.555c-.235.052-.438.241-.655.263a5.792,5.792,0,0,0-1.872.692,15.46,15.46,0,0,0-1.913,1.07,22.037,22.037,0,0,0-2.226,1.71A14.424,14.424,0,0,0,23,25.054a16.263,16.263,0,0,0-2.924,5.094,15.7,15.7,0,0,0-.917,4.23,17.936,17.936,0,0,0,.149,3.941,16.46,16.46,0,0,0,.764,3,15.457,15.457,0,0,0,1.677,3.356,16.651,16.651,0,0,0,9.17,6.931,15.281,15.281,0,0,0,5.19.667" transform="translate(-3.438 -3.438)"/>
    <path id="Trazado_819765" data-name="Trazado 819765" d="M74.94,39.12c1.051,0,2.1,0,3.153,0a1.7,1.7,0,0,1,.8.186,1.52,1.52,0,0,1,.666,1.6,1.444,1.444,0,0,1-1.572,1.237q-3.153,0-6.3,0a1.521,1.521,0,0,1,.041-3.029c1.072,0,2.144,0,3.216,0" transform="translate(-15.017 -8.356)"/>
    <path id="Trazado_819766" data-name="Trazado 819766" d="M39.158,4.566c0-1.094.016-2.188-.006-3.281A1.319,1.319,0,0,1,40.263.031a1.689,1.689,0,0,1,1.285.237,1.314,1.314,0,0,1,.579,1.04c.134,2.024.033,4.05.052,6.074a1.981,1.981,0,0,1-.357,1.313,1.5,1.5,0,0,1-1.968.348,1.442,1.442,0,0,1-.7-1.322c.011-1.052,0-2.1,0-3.155" transform="translate(-8.363 0)"/>
    <path id="Trazado_819767" data-name="Trazado 819767" d="M42.184,74.914c0,.936.009,1.872,0,2.807a2.394,2.394,0,0,1-.2,1.052,1.5,1.5,0,0,1-1.771.775,1.4,1.4,0,0,1-1.061-1.4c.006-2.134.027-4.269-.014-6.4a1.469,1.469,0,0,1,1.018-1.356,1.707,1.707,0,0,1,1.71.5,1.952,1.952,0,0,1,.311,1.149c.017.956.006,1.913.006,2.87Z" transform="translate(-8.36 -15.026)"/>
    <path id="Trazado_819768" data-name="Trazado 819768" d="M4.624,39.119c1.062,0,2.122-.007,3.184,0a1.325,1.325,0,0,1,1.361.941,1.5,1.5,0,0,1-1.456,2.082c-2.092.006-4.183.021-6.274,0A1.466,1.466,0,0,1,0,40.642a1.43,1.43,0,0,1,1.407-1.519c1.072-.012,2.144,0,3.216,0" transform="translate(0 -8.355)"/>
    <path id="Trazado_819769" data-name="Trazado 819769" d="M25.7,67.67a2.126,2.126,0,0,1-.471,1.235c-.891,1.576-1.808,3.138-2.712,4.707a1.963,1.963,0,0,1-1.1.97,1.552,1.552,0,0,1-1.848-1.423,1.769,1.769,0,0,1,.3-1.044c.447-.718.856-1.458,1.283-2.188.417-.711.851-1.412,1.25-2.134.19-.344.435-.652.606-1A1.2,1.2,0,0,1,24.4,66.18a1.426,1.426,0,0,1,1.3,1.49" transform="translate(-4.18 -14.132)"/>
    <path id="Trazado_819770" data-name="Trazado 819770" d="M73.113,60.886a2.119,2.119,0,0,1-1.239-.472q-1.48-.846-2.94-1.732A23.659,23.659,0,0,1,66.7,57.346a1.28,1.28,0,0,1-.546-1.367,1.481,1.481,0,0,1,1.314-1.266,1.546,1.546,0,0,1,.926.214c1.837,1.046,3.683,2.077,5.484,3.184a1.5,1.5,0,0,1-.761,2.775" transform="translate(-14.121 -11.685)"/>
    <path id="Trazado_819771" data-name="Trazado 819771" d="M56.166,13.636a1.532,1.532,0,0,1-1.257-2.129c.478-.764.9-1.567,1.346-2.355.612-1.091,1.24-2.173,1.863-3.257a1.363,1.363,0,0,1,1.474-.659,1.594,1.594,0,0,1,1.27,1.178,1.641,1.641,0,0,1-.232,1.143c-.966,1.783-2.012,3.519-3.063,5.252a1.514,1.514,0,0,1-1.4.827" transform="translate(-11.696 -1.112)"/>
    <path id="Trazado_819772" data-name="Trazado 819772" d="M5.3,59.376a1.55,1.55,0,0,1,.98-1.5q2.529-1.449,5.076-2.864a1.416,1.416,0,0,1,1.076-.264A1.549,1.549,0,0,1,13.6,56.805a1.764,1.764,0,0,1-.846.812c-.969.57-1.955,1.11-2.914,1.7-.747.458-1.511.888-2.266,1.333A1.475,1.475,0,0,1,5.3,59.711a.966.966,0,0,1-.006-.335" transform="translate(-1.128 -11.689)"/>
    <path id="Trazado_819773" data-name="Trazado 819773" d="M67.538,25.708a.976.976,0,0,1-.674-.23,1.623,1.623,0,0,1-.657-1.9,1.674,1.674,0,0,1,.749-.738c1.224-.7,2.453-1.4,3.676-2.107.63-.364,1.253-.741,1.879-1.111a1.67,1.67,0,0,1,1.467.229,1.48,1.48,0,0,1-.32,2.58q-1.99,1.152-3.989,2.291A13.292,13.292,0,0,1,68,25.628a.781.781,0,0,1-.466.08" transform="translate(-14.12 -4.172)"/>
    <path id="Trazado_819774" data-name="Trazado 819774" d="M5.271,20.946a1.484,1.484,0,0,1,2.164-1.241c1.007.538,1.981,1.136,2.969,1.71q1.2.7,2.4,1.4a1.455,1.455,0,0,1,.867,1.535A1.477,1.477,0,0,1,12.3,25.715a.936.936,0,0,1-.653-.159c-1.3-.726-2.6-1.438-3.87-2.214-.546-.333-1.106-.641-1.655-.97a1.561,1.561,0,0,1-.853-1.427" transform="translate(-1.125 -4.172)"/>
    <path id="Trazado_819775" data-name="Trazado 819775" d="M56.269,66.171a1.232,1.232,0,0,1,1.2.635c.638,1.086,1.279,2.17,1.913,3.257.422.725.826,1.461,1.254,2.183a1.515,1.515,0,0,1-.815,2.28,1.352,1.352,0,0,1-.783.1,1.6,1.6,0,0,1-.767-.543,4.776,4.776,0,0,1-.649-1.028c-.834-1.548-1.739-3.054-2.59-4.59a1.36,1.36,0,0,1-.119-1.5,1.533,1.533,0,0,1,1.353-.787" transform="translate(-11.691 -14.134)"/>
    <path id="Trazado_819776" data-name="Trazado 819776" d="M21.036,5.233a1.371,1.371,0,0,1,1.324.738c.277.486.59.958.852,1.447.447.833.974,1.618,1.409,2.457.274.528.588,1.036.876,1.558a1.383,1.383,0,0,1-.053,1.519A1.435,1.435,0,0,1,24,13.618a1.233,1.233,0,0,1-.957-.589c-1.107-1.927-2.232-3.846-3.33-5.779a1.306,1.306,0,0,1,.466-1.74,1.192,1.192,0,0,1,.861-.277" transform="translate(-4.174 -1.115)"/>
    <path id="Trazado_819777" data-name="Trazado 819777" d="M36.928,53.083a15.3,15.3,0,0,1-5.19-.668,16.653,16.653,0,0,1-9.171-6.931,15.472,15.472,0,0,1-1.676-3.356,16.452,16.452,0,0,1-.764-3,17.945,17.945,0,0,1-.149-3.942,15.7,15.7,0,0,1,.917-4.229,16.245,16.245,0,0,1,2.924-5.094,14.356,14.356,0,0,1,1.548-1.605,22.16,22.16,0,0,1,2.226-1.711,15.46,15.46,0,0,1,1.913-1.07,5.791,5.791,0,0,1,1.872-.691c.217-.023.42-.212.655-.263a18.308,18.308,0,0,1,3.276-.555,10.032,10.032,0,0,1,1.937-.039,28.07,28.07,0,0,1,2.87.365,17.1,17.1,0,0,1,4.19,1.536,14.24,14.24,0,0,1,2.642,1.747c.64.587,1.246,1.213,1.862,1.828a14.15,14.15,0,0,1,1.754,2.23,12.382,12.382,0,0,1,.647,1.1,17.285,17.285,0,0,1,1.342,3.321,17.541,17.541,0,0,1,.6,4.383A16.647,16.647,0,0,1,38.944,52.96c-.8.129-1.605.077-2.016.123m-11.087-16.2v-.252a1.444,1.444,0,0,0-1.985-1.471,1.354,1.354,0,0,0-.987,1.368,13.128,13.128,0,0,0,.24,2.417A12.854,12.854,0,0,0,24.843,43.6a13.652,13.652,0,0,0,4.9,4.8,1.438,1.438,0,0,0,1.091.212A1.466,1.466,0,0,0,32,47.33a1.366,1.366,0,0,0-.729-1.422,11.511,11.511,0,0,1-2.707-2.244,10.678,10.678,0,0,1-2.723-6.777" transform="translate(-4.258 -4.248)" fill="#ffd000"/>
    <path id="Trazado_819778" data-name="Trazado 819778" d="M26.638,41.016a10.678,10.678,0,0,0,2.723,6.777,11.511,11.511,0,0,0,2.707,2.244,1.366,1.366,0,0,1,.729,1.422,1.466,1.466,0,0,1-1.165,1.287,1.438,1.438,0,0,1-1.091-.212,13.652,13.652,0,0,1-4.9-4.8,12.854,12.854,0,0,1-1.734-4.655,13.128,13.128,0,0,1-.24-2.417,1.354,1.354,0,0,1,.987-1.368,1.444,1.444,0,0,1,1.985,1.471v.252" transform="translate(-5.055 -8.378)"/>
  </g>
</svg>
