<svg xmlns="http://www.w3.org/2000/svg" xmlns:xlink="http://www.w3.org/1999/xlink" width="57" height="57" viewBox="0 0 57 57">
  <defs>
    <clipPath id="clip-path">
      <rect id="Rect치ngulo_377519" data-name="Rect치ngulo 377519" width="57" height="57" transform="translate(208 1525.811)" fill="#fff" stroke="#707070" stroke-width="1"/>
    </clipPath>
    <clipPath id="clip-path-2">
      <rect id="Rect치ngulo_377517" data-name="Rect치ngulo 377517" width="54.299" height="54.333" fill="none"/>
    </clipPath>
  </defs>
  <g id="Enmascarar_grupo_327" data-name="Enmascarar grupo 327" transform="translate(-208 -1525.811)" clip-path="url(#clip-path)">
    <g id="Grupo_1073264" data-name="Grupo 1073264" transform="translate(209 1526.811)">
      <g id="Grupo_1073263" data-name="Grupo 1073263" clip-path="url(#clip-path-2)">
        <path id="Trazado_820184" data-name="Trazado 820184" d="M169.77,14.658a11.058,11.058,0,1,0-11.058,11.058A11.057,11.057,0,0,0,169.77,14.658" transform="translate(-116.257 -2.834)" fill="#f6f8fa"/>
        <path id="Trazado_820185" data-name="Trazado 820185" d="M16.487,72.614a4.125,4.125,0,0,1,1.148-.526.844.844,0,0,1,.331-.062,2.844,2.844,0,0,1,.156.472c.029.189.092.237.279.18a9.474,9.474,0,0,1,1.863-.327,5.214,5.214,0,0,1,3.773.951,5.36,5.36,0,0,1,2.159,4.044.022.022,0,0,0,0,.027,4.753,4.753,0,0,1-.158,1.781,5.154,5.154,0,0,1-2.064,3.125,4.676,4.676,0,0,1-2.728.941c-1.184.019-2.368,0-3.552.008-.111,0-.256-.067-.323.1-.006,0-.017.009-.017.011a.2.2,0,0,0,.013.034q0,.587.009,1.174c-.024.016-.066.03-.069.05-.006.036.032.048.066.051-.038.245.147.2.274.2q1.682,0,3.364-.01a.317.317,0,0,1,.328.155,4.944,4.944,0,0,1,.47,1.217c.042.155.017.219-.173.215-.786-.016-1.572,0-2.357-.019-.222,0-.32.046-.306.291a9.726,9.726,0,0,1,0,1.085c-.013.224.075.261.273.258.83-.012,1.66,0,2.49-.016.243,0,.349.041.325.311-.021.234-.035.47-.05.7a5.892,5.892,0,0,1-.44,1.742,7.971,7.971,0,0,1-1.3,2.1c-.106.132-.122.233.049.36A6.847,6.847,0,0,1,22.4,95.666,7.065,7.065,0,0,1,23.1,98a3.836,3.836,0,0,1,.026,1.265c-.023.214-.231.3-.321.467a6.3,6.3,0,0,1-1.822,2.128,6.993,6.993,0,0,1-4.607,1.451,6.45,6.45,0,0,1-3.124-1.033,9.671,9.671,0,0,1-2.319-2.067,16.867,16.867,0,0,1-1.354-1.884,17.585,17.585,0,0,1-1-2.1c-.081-.182-.093-.438-.35-.508a2.321,2.321,0,0,0-.031-.262,18.7,18.7,0,0,1-.5-3.572A26.462,26.462,0,0,1,7.89,86.87a25.041,25.041,0,0,1,.612-2.9,18.839,18.839,0,0,1,3.763-7.26,8.377,8.377,0,0,1,.688-.745,13.8,13.8,0,0,1,2.067-1.7,17.576,17.576,0,0,1,1.546-.905c.154-.082.226-.146.127-.317-.079-.136-.137-.285-.2-.428M15.579,84.82a.107.107,0,0,0,.165-.014,8.308,8.308,0,0,0,.037-1.532c0-.035-.018-.035-.042-.018a9.81,9.81,0,0,1-1.29-.027c-.216-.033-.291.041-.288.247,0,.36.015.722,0,1.081-.013.247.1.3.314.294.368-.018.737-.022,1.106-.032m-6.3,6.98c.014.364.078.995.162,1.623.091.68.207,1.356.357,2.026.042.187.114.217.29.167a10.044,10.044,0,0,1,1.053-.247c.252-.042.3-.169.249-.385a21.932,21.932,0,0,1-.52-3.866c-.009-.154-.059-.225-.224-.212-.263.021-.528.036-.792.041-.594.011-.594.008-.576.854m3.07,6.283c-.006-.019-.012-.045-.021-.07-.147-.387-.3-.772-.438-1.162-.042-.116-.1-.119-.2-.087q-.629.2-1.261.391c-.116.035-.163.084-.115.209.165.427.323.857.488,1.284.041.108.1.184.241.122.386-.173.775-.339,1.161-.51a.2.2,0,0,0,.145-.178" transform="translate(-6.034 -56.709)" fill="#ef8573"/>
        <path id="Trazado_820186" data-name="Trazado 820186" d="M156.794,96.65a9.9,9.9,0,0,1-.249-2.193c0-.178.13-.318.18-.483.11.01.161.1.225.169a11.789,11.789,0,0,0,3.991,2.766,11.325,11.325,0,0,0,4.48.955c.014.023.029.025.046,0,.454-.04.91-.007,1.366-.064a12.985,12.985,0,0,0,2.709-.619,11.909,11.909,0,0,0,3.61-2.036c.21.342.423.683.628,1.028a1.11,1.11,0,0,1,.177.407c-.12.071-.235.151-.36.21-.207.1-.321.194-.115.413a1.375,1.375,0,0,1,.189.347,20.7,20.7,0,0,1,2,6.492c.117.892.2,1.784.246,2.679a19.725,19.725,0,0,1-.035,2.4c-.045.68-.111,1.358-.19,2.033a11.723,11.723,0,0,1-.356,1.847.179.179,0,0,0-.05.186l0,.021a.181.181,0,0,0-.121.094c-.19.336-.37.673-.529,1.03a12.3,12.3,0,0,1-1.261,2.223,10.655,10.655,0,0,1-2.385,2.588,6.731,6.731,0,0,1-4.995,1.4,7.086,7.086,0,0,1-3.89-1.868,8.011,8.011,0,0,1-1.4-1.746.376.376,0,0,0-.256-.211c-.033-.067.04-.106.042-.164a.165.165,0,0,0-.03-.149,6.878,6.878,0,0,1,.434-2.717,6.971,6.971,0,0,1,2.392-3.2c.144-.111.152-.2.043-.321-.046-.053-.088-.11-.133-.165a7.366,7.366,0,0,1-1.7-4.422c-.012-.218.05-.289.272-.286.857.011,1.714,0,2.571.009.218,0,.3-.072.294-.291-.012-.362-.015-.725,0-1.086.009-.2-.056-.247-.254-.244-.8.013-1.608,0-2.412.006-.18,0-.234-.039-.172-.228a11.841,11.841,0,0,1,.425-1.109.367.367,0,0,1,.407-.238c1.1.007,2.209,0,3.313.006.217,0,.3-.06.3-.284-.013-.335-.012-.672,0-1.007.008-.224-.07-.316-.3-.314q-1.524.009-3.048-.007a6.164,6.164,0,0,1-1.233-.073,5.145,5.145,0,0,1-4.031-3.727c-.058-.179-.143-.223-.307-.18a2.332,2.332,0,0,1-.513.121m11.013,4.657h0c0,.2.006.406,0,.609-.006.151.07.227.2.21.415-.052.828.022,1.241,0,.094,0,.188-.037.188-.146a10.608,10.608,0,0,0-.02-1.348c-.018-.141-.107-.147-.208-.13a5.932,5.932,0,0,1-1.162.03c-.2-.006-.25.063-.239.242s0,.353,0,.529" transform="translate(-123.257 -73.991)" fill="#ef8573"/>
        <path id="Trazado_820187" data-name="Trazado 820187" d="M162.347,21.158a11.909,11.909,0,0,1-3.61,2.036,12.984,12.984,0,0,1-2.709.619c-.456.056-.912.023-1.366.064a.034.034,0,0,0-.046,0,11.325,11.325,0,0,1-4.48-.955,11.792,11.792,0,0,1-3.991-2.766c-.065-.068-.115-.16-.225-.17a5.393,5.393,0,0,0-.727-.979,14.686,14.686,0,0,1-1.228-2.056,9.67,9.67,0,0,1-.9-2.691,12.18,12.18,0,0,1-.217-3.242,8.736,8.736,0,0,1,.276-1.936,13.82,13.82,0,0,1,1.342-3.14,12.346,12.346,0,0,1,2.321-2.851,11.539,11.539,0,0,1,3.754-2.3,13.938,13.938,0,0,1,2.583-.675A7.96,7.96,0,0,1,155.18.033c.518.051,1.047.061,1.564.137a9.189,9.189,0,0,1,1.289.312,12.571,12.571,0,0,1,3.12,1.363,12.578,12.578,0,0,1,3.068,2.817.7.7,0,0,0,.1.117c.2.163.165.252-.041.38a7.921,7.921,0,0,0-.808.586c-.179.146-.279.155-.431-.053a10.24,10.24,0,0,0-4.967-3.576,8.146,8.146,0,0,0-2.123-.429c-.294-.023-.59-.074-.885-.083a9.97,9.97,0,0,0-8.408,3.967A10.3,10.3,0,0,0,144.9,8.785a9.665,9.665,0,0,0-.422,2.051,15.71,15.71,0,0,0-.035,1.9,8.88,8.88,0,0,0,.159,1.153c.1.412.172.829.31,1.233a11.021,11.021,0,0,0,1.779,3.315,9.385,9.385,0,0,0,2.046,1.919,10.99,10.99,0,0,0,7.886,1.8,10.436,10.436,0,0,0,4.318-1.928,12.14,12.14,0,0,0,2.008-1.929,9.168,9.168,0,0,0,1.61-2.894,5.8,5.8,0,0,0,.386-1.728,8.534,8.534,0,0,0,.159-2.633,9.477,9.477,0,0,0-.991-3.628c-.086-.168-.061-.238.107-.316.268-.124.519-.282.783-.415.358-.181.5-.127.631.245a13.577,13.577,0,0,1,.507,1.319,15.475,15.475,0,0,1,.46,2.148,11.312,11.312,0,0,1,.106,2.223,16.371,16.371,0,0,1-.488,2.667,10.533,10.533,0,0,1-.829,2.113,10.884,10.884,0,0,1-2.433,3.2c-.206.182-.406.37-.609.555" transform="translate(-112.451 0)" fill="#060707"/>
        <path id="Trazado_820188" data-name="Trazado 820188" d="M10.453,72.263c.067.143.125.292.2.428.1.171.027.236-.127.317a17.63,17.63,0,0,0-1.546.905,13.806,13.806,0,0,0-2.067,1.7,8.41,8.41,0,0,0-.689.745,18.846,18.846,0,0,0-3.763,7.26,25.025,25.025,0,0,0-.611,2.9,26.464,26.464,0,0,0-.192,5.02,18.7,18.7,0,0,0,.5,3.572,2.321,2.321,0,0,1,.032.262,21.177,21.177,0,0,0,1.413,4.179,12.323,12.323,0,0,0,3.34,4.441,5.757,5.757,0,0,0,4.824,1.293,6.182,6.182,0,0,0,3.884-2.374c.125-.161.206-.176.356-.054.129.1.277.186.417.278a1.641,1.641,0,0,0,.455.357c.158.1.17.171.058.325a7.527,7.527,0,0,1-3.236,2.521,7.768,7.768,0,0,1-3.336.637,7.243,7.243,0,0,1-3.215-.962,7.7,7.7,0,0,1-1.322-.852A10.69,10.69,0,0,1,4.3,103.6a18.855,18.855,0,0,1-1.956-3.043,19.609,19.609,0,0,1-.783-1.853,19.408,19.408,0,0,1-.709-2.288,25.476,25.476,0,0,1-.525-2.631C.2,92.9.109,92.013.049,91.119a16.549,16.549,0,0,1-.028-2.055A26.426,26.426,0,0,1,.469,85.34a28.15,28.15,0,0,1,.726-2.965,19.176,19.176,0,0,1,1.834-4.128A19.332,19.332,0,0,1,6.152,74.17c.529-.506,1.124-.934,1.7-1.387a11.168,11.168,0,0,1,1.928-1.147.284.284,0,0,1,.453.161c.071.156.148.31.222.465" transform="translate(0 -56.359)" fill="#060707"/>
        <path id="Trazado_820189" data-name="Trazado 820189" d="M53.309,78.432c.067-.164.212-.1.323-.1,1.184-.005,2.368.01,3.552-.008a4.677,4.677,0,0,0,2.728-.941,5.151,5.151,0,0,0,2.064-3.125,4.747,4.747,0,0,0,.158-1.78l.011-.014-.014-.013a5.359,5.359,0,0,0-2.158-4.044,5.213,5.213,0,0,0-3.773-.951,9.453,9.453,0,0,0-1.863.327c-.187.057-.25.009-.279-.18a2.824,2.824,0,0,0-.156-.472c-.057-.207-.1-.418-.175-.618-.049-.131-.037-.188.1-.226a17.245,17.245,0,0,1,2.3-.429,6.441,6.441,0,0,1,2.605.225,6.13,6.13,0,0,1,2.462,1.3,7.12,7.12,0,0,1,2.007,2.765,6.789,6.789,0,0,1,.518,3.37,7.241,7.241,0,0,1-2.311,4.724,5.91,5.91,0,0,1-2.483,1.348c-.151.038-.1.134-.073.2a9.242,9.242,0,0,1,.643,2.151,3.915,3.915,0,0,0,.035.525,6.606,6.606,0,0,1-.015,1.99,12.31,12.31,0,0,1-.4,1.714,9.083,9.083,0,0,1-.812,1.656c-.1.149-.014.22.071.314A8.591,8.591,0,0,1,60,90.686a9.631,9.631,0,0,1,.6,2.434,8.144,8.144,0,0,1-.106,2.523,10.081,10.081,0,0,1-.466,1.655c-.075.2-.176.186-.317.133-.181-.069-.357-.148-.536-.223-.12-.055-.237-.115-.359-.164-.339-.136-.326-.13-.208-.468a6.249,6.249,0,0,0,.453-2.2,3.837,3.837,0,0,0-.026-1.265,7.071,7.071,0,0,0-.7-2.334,6.847,6.847,0,0,0-2.078-2.433c-.172-.127-.155-.228-.049-.36a7.98,7.98,0,0,0,1.3-2.1,5.891,5.891,0,0,0,.44-1.742c.015-.235.028-.471.05-.7.024-.27-.082-.316-.325-.311-.83.016-1.66,0-2.49.016-.2,0-.286-.034-.273-.258a9.777,9.777,0,0,0,0-1.085c-.014-.245.084-.295.306-.291.786.014,1.572,0,2.357.019.19,0,.215-.06.173-.215a4.937,4.937,0,0,0-.47-1.217.316.316,0,0,0-.328-.155q-1.682.011-3.364.01c-.128,0-.312.05-.274-.2,0-.034,0-.067,0-.1q0-.587-.009-1.174a.039.039,0,0,0,0-.045" transform="translate(-41.97 -51.817)" fill="#060707"/>
        <path id="Trazado_820190" data-name="Trazado 820190" d="M80.637,145.828a12.3,12.3,0,0,0,.4-1.714,6.6,6.6,0,0,0,.015-1.99,3.88,3.88,0,0,1-.034-.525l1.659-.013a3.962,3.962,0,0,1,.008.5c-.023.218.051.288.273.3a5.853,5.853,0,0,1,1.95.449,5.5,5.5,0,0,1,2.54,2.238,5.158,5.158,0,0,1,.692,1.818,8.444,8.444,0,0,1,.12,1.881c-.016.552,0,.552.534.546.052,0,.1.008.157.013a3.869,3.869,0,0,1,.054,1.564,4.937,4.937,0,0,1-.5.014c-.189-.013-.252.037-.252.245q.016,4.763.013,9.527,0,2.54,0,5.08c-.148.118-.3-.007-.446,0-.744.013-1.489,0-2.233-.007.008-.132.023-.264.023-.4q0-7.72-.005-15.441c0-.756.026-1.511-.037-2.269a2.769,2.769,0,0,0-.672-1.613,2.958,2.958,0,0,0-2.017-1c-.146-.013-.19.029-.188.166,0,.212,0,.423-.006.635a14.409,14.409,0,0,0-2.046,0" transform="translate(-63.49 -111.478)" fill="#ffddb4"/>
        <path id="Trazado_820191" data-name="Trazado 820191" d="M141.519,165.762l-2.682-.006c.007-.132.021-.264.021-.4q0-8.463,0-16.926a7.676,7.676,0,0,1,.043-1.261,5.628,5.628,0,0,1,.678-1.98,6.57,6.57,0,0,1,.932-1.2,4.911,4.911,0,0,1,1.307-1,5.027,5.027,0,0,1,2.389-.607c.149,0,.211-.057.216-.2,0-.079.006-.158.009-.238.047,0,.085-.02.085-.073s-.037-.071-.084-.073l0-.22h1.62c-.027.549-.088,1.1-.062,1.648a.148.148,0,0,0-.017.012.324.324,0,0,0,.02.033,4.977,4.977,0,0,1,.043.57,11.034,11.034,0,0,0,.415,1.869c-.042.122-.151.123-.241.105a15.764,15.764,0,0,0-1.779.006c0-.061-.011-.123-.011-.184,0-.679,0-.679-.663-.558a.626.626,0,0,0-.077.016,2.975,2.975,0,0,0-2.169,3q0,6.829,0,13.659,0,2,0,4" transform="translate(-109.314 -111.483)" fill="#ffddb4"/>
        <path id="Trazado_820192" data-name="Trazado 820192" d="M190.028,121.405a11.719,11.719,0,0,0,.356-1.847c.08-.676.145-1.353.19-2.033a19.768,19.768,0,0,0,.035-2.4c-.049-.9-.129-1.787-.246-2.679a20.694,20.694,0,0,0-2-6.492,1.374,1.374,0,0,0-.189-.347c-.207-.219-.093-.317.115-.413.125-.058.24-.139.36-.21.154-.079.307-.16.463-.236.329-.16.3-.15.461.137a11.847,11.847,0,0,1,.683,1.378c.37.925.709,1.865.992,2.823a20.7,20.7,0,0,1,.564,2.45c.094.562.181,1.128.242,1.7.08.747.114,1.5.175,2.244a9.6,9.6,0,0,1-.076,1.864c-.036.312-.018.628-.051.944-.071.665-.168,1.324-.258,1.986a21.191,21.191,0,0,1-.665,3,20.542,20.542,0,0,1-.854,2.412,18.249,18.249,0,0,1-1.5,2.806,12.217,12.217,0,0,1-1.948,2.291,8.14,8.14,0,0,1-2.264,1.522,8.286,8.286,0,0,1-2.269.664,6.508,6.508,0,0,1-2.8-.224,10.316,10.316,0,0,1-1.678-.688,7.629,7.629,0,0,1-2.247-1.818c-.081-.094-.154-.194-.237-.286-.257-.286-.252-.363.1-.525a1.33,1.33,0,0,0,.356-.253,1.718,1.718,0,0,0,.435-.3c.129-.115.219-.1.326.035a8.275,8.275,0,0,0,1.035,1.061,5.911,5.911,0,0,0,6.342.9c2.278-1.112,3.576-3.1,4.659-5.272a17.957,17.957,0,0,0,.814-2.052,11.034,11.034,0,0,0,.523-1.933l0-.021a.213.213,0,0,0,.05-.186" transform="translate(-137.952 -82.394)" fill="#060707"/>
        <path id="Trazado_820193" data-name="Trazado 820193" d="M158.46,117.634a11.051,11.051,0,0,1-.415-1.869,4.926,4.926,0,0,0-.043-.57.03.03,0,0,0,0-.044c-.026-.551.035-1.1.062-1.648.086-.316.175-.632.255-.949a4.647,4.647,0,0,1,.366-1.055c.123-.231.052-.3-.166-.364a6.238,6.238,0,0,1-2.027-1.05,7,7,0,0,1-1.911-2.475c-.174-.363-.318-.741-.468-1.115-.068-.169-.021-.29.183-.3a1.86,1.86,0,0,0,.561-.137,2.324,2.324,0,0,0,.513-.121c.164-.044.249,0,.307.18a5.145,5.145,0,0,0,4.031,3.727,6.179,6.179,0,0,0,1.233.073q1.524.016,3.048.007c.234,0,.312.091.3.314-.011.335-.013.672,0,1.007.009.224-.079.286-.3.284-1.1-.009-2.209,0-3.313-.006a.367.367,0,0,0-.407.238,11.863,11.863,0,0,0-.425,1.109c-.062.189-.008.229.172.228.8,0,1.608.007,2.412-.005.2,0,.263.042.254.244-.016.361-.013.724,0,1.086.007.22-.076.294-.294.291-.857-.009-1.714,0-2.571-.009-.221,0-.284.068-.272.286a7.368,7.368,0,0,0,1.7,4.423c.045.054.087.111.133.165.108.125.1.21-.043.321a6.974,6.974,0,0,0-2.392,3.2,6.878,6.878,0,0,0-.433,2.717.132.132,0,0,0,.029.149c0,.058-.075.1-.042.164a1.038,1.038,0,0,0,0,.235,10.087,10.087,0,0,0,.494,1.911c.08.172.014.269-.166.333a.905.905,0,0,0-.407.192,6.169,6.169,0,0,0-.659.277c-.092.062-.141-.04-.165-.114a11.305,11.305,0,0,1-.455-1.416,10.836,10.836,0,0,1-.214-1.707,7.986,7.986,0,0,1,.3-2.526,8.751,8.751,0,0,1,2.04-3.636.219.219,0,0,0,.025-.305,11.9,11.9,0,0,1-.836-1.729" transform="translate(-121.316 -83.393)" fill="#060707"/>
        <path id="Trazado_820194" data-name="Trazado 820194" d="M138.584,139.005q0,.119-.009.238c-.006.138-.067.2-.216.2a5.028,5.028,0,0,0-2.389.607,4.907,4.907,0,0,0-1.307,1,6.577,6.577,0,0,0-.932,1.2,5.63,5.63,0,0,0-.678,1.98,7.649,7.649,0,0,0-.043,1.261q-.006,8.463,0,16.926c0,.132-.014.264-.021.4-.459,0-.918,0-1.377.015-.2.006-.158-.124-.158-.228q-.007-1.165-.007-2.331,0-7.073,0-14.146a17.227,17.227,0,0,1-.011-1.784,7.785,7.785,0,0,1,.37-1.618,7.075,7.075,0,0,1,3.452-4.089,6.821,6.821,0,0,1,2.3-.728c.279-.041.556-.035.835-.051.145-.008.206.029.2.188-.013.2,0,.406,0,.608l0,.22c0,.049,0,.1,0,.146" transform="translate(-103.464 -108.531)" fill="#060707"/>
        <path id="Trazado_820195" data-name="Trazado 820195" d="M171.528,64.307a5.8,5.8,0,0,1-.387,1.728,9.164,9.164,0,0,1-1.61,2.894,12.132,12.132,0,0,1-2.008,1.929,10.436,10.436,0,0,1-4.318,1.928,10.989,10.989,0,0,1-7.885-1.8,9.382,9.382,0,0,1-2.046-1.919,11.012,11.012,0,0,1-1.779-3.315c-.138-.4-.211-.821-.31-1.233a.489.489,0,0,1,.381.248c.215.333.425.67.653.993a10.946,10.946,0,0,0,2.252,2.393A11.251,11.251,0,0,0,157.912,70c.276.089.56.151.838.234.152.045.248-.062.366-.112.131.129.253.271.4.385a2.834,2.834,0,0,0,2.395.64,3.156,3.156,0,0,0,1.568-.857.269.269,0,0,0,.3.036,14.118,14.118,0,0,0,3-1.178,11.326,11.326,0,0,0,1.978-1.392,11.917,11.917,0,0,0,1.743-1.943,6.363,6.363,0,0,0,.718-1.259.487.487,0,0,1,.314-.253" transform="translate(-119.036 -50.632)" fill="#c1d1d4"/>
        <path id="Trazado_820196" data-name="Trazado 820196" d="M185.34,20.313c.029-.722-.051-1.475.025-2.222a2.778,2.778,0,0,1,1.763-2.4,2.877,2.877,0,0,1,3.971,2.123,5.4,5.4,0,0,1,.078,1.073c0,1.094,0,2.189,0,3.284a3.157,3.157,0,0,1-.81,2.223,2.894,2.894,0,0,1-1.762.874A2.842,2.842,0,0,1,185.413,23a5.1,5.1,0,0,1-.072-.89c0-.591,0-1.183,0-1.8m4.23.121c0-.723.048-1.45-.011-2.169a1.294,1.294,0,0,0-1.89-1.06,1.247,1.247,0,0,0-.742,1.267c0,1.288,0,2.577,0,3.865a2.29,2.29,0,0,0,.023.263,1.3,1.3,0,0,0,1.614,1.1,1.234,1.234,0,0,0,1-1.152c.026-.7.006-1.412.006-2.117" transform="translate(-145.921 -12.173)" fill="#060707"/>
        <path id="Trazado_820197" data-name="Trazado 820197" d="M151.443,178.5q0-2,0-4,0-6.829,0-13.659a2.975,2.975,0,0,1,2.169-3,.621.621,0,0,1,.077-.016c.663-.121.663-.121.663.558,0,.061.007.123.011.184-.006.194-.016.388-.015.582a.187.187,0,0,1-.184.211,1.311,1.311,0,0,0-1.141,1.277c-.017,1.351-.013,2.7-.014,4.053Q153,171.268,153,177.84c0,.159.011.318.008.477s-.063.209-.241.2c-.44-.026-.883-.013-1.325-.016" transform="translate(-119.239 -124.221)" fill="#060707"/>
        <path id="Trazado_820198" data-name="Trazado 820198" d="M90.259,158.57c0-.212.009-.423.006-.635,0-.137.042-.179.188-.166a2.956,2.956,0,0,1,2.017,1,2.769,2.769,0,0,1,.672,1.613c.063.758.036,1.513.037,2.269q.011,7.72.005,15.44c0,.132-.015.264-.023.4-.459,0-.918,0-1.376.016-.214.006-.163-.143-.165-.251-.01-.759-.017-1.518-.018-2.277q0-7.416,0-14.832a3.565,3.565,0,0,0-.078-.806,1.217,1.217,0,0,0-1.006-.957c-.226-.047-.267-.142-.252-.338.012-.158,0-.317-.005-.476" transform="translate(-71.066 -124.219)" fill="#060707"/>
        <path id="Trazado_820199" data-name="Trazado 820199" d="M174.52,190.611a.9.9,0,0,1,.407-.192c.18-.064.246-.161.166-.333a10.086,10.086,0,0,1-.494-1.911,1.042,1.042,0,0,1,0-.235.376.376,0,0,1,.256.211,8.017,8.017,0,0,0,1.4,1.746,7.086,7.086,0,0,0,3.89,1.868,6.733,6.733,0,0,0,4.995-1.4,10.655,10.655,0,0,0,2.385-2.588,12.3,12.3,0,0,0,1.261-2.223c.159-.357.339-.693.529-1.03a.179.179,0,0,1,.12-.094,11.038,11.038,0,0,1-.523,1.933,17.949,17.949,0,0,1-.814,2.052c-1.083,2.171-2.382,4.16-4.659,5.272a5.912,5.912,0,0,1-6.342-.9,8.274,8.274,0,0,1-1.035-1.06c-.107-.137-.2-.15-.326-.035a1.719,1.719,0,0,1-.435.3,3.234,3.234,0,0,1-.778-1.385" transform="translate(-137.409 -145.215)" fill="#e65039"/>
        <path id="Trazado_820200" data-name="Trazado 820200" d="M25.214,187.013a6.247,6.247,0,0,1-.453,2.2c-.119.337-.131.331.208.468.122.049.24.109.359.164a4.441,4.441,0,0,1-.777,1.385c-.14-.092-.287-.173-.417-.278-.15-.121-.231-.106-.356.054a6.182,6.182,0,0,1-3.884,2.374,5.758,5.758,0,0,1-4.824-1.293,12.326,12.326,0,0,1-3.34-4.441,21.18,21.18,0,0,1-1.413-4.179c.258.07.27.326.35.508a17.513,17.513,0,0,0,1,2.095,16.846,16.846,0,0,0,1.354,1.884,9.665,9.665,0,0,0,2.319,2.067,6.45,6.45,0,0,0,3.123,1.034,6.994,6.994,0,0,0,4.607-1.451,6.3,6.3,0,0,0,1.822-2.128c.09-.164.3-.252.321-.467" transform="translate(-8.123 -144.457)" fill="#e65039"/>
        <path id="Trazado_820201" data-name="Trazado 820201" d="M116.467,200.231q0-2.54,0-5.08,0-4.763-.013-9.527c0-.208.063-.258.252-.245a5,5,0,0,0,.5-.014c.218.008.437.025.655.02.139,0,.194.045.181.179l-.015.012.014.013c-.05.935-.019,1.871-.02,2.807q-.008,5.589,0,11.179c0,.658,0,.658-.651.658h-.9" transform="translate(-91.692 -145.948)" fill="#060707"/>
        <path id="Trazado_820202" data-name="Trazado 820202" d="M190.38,74.284a3.154,3.154,0,0,1-1.568.858,2.836,2.836,0,0,1-2.395-.64,5.435,5.435,0,0,1-.4-.385,4.019,4.019,0,0,1-.586-1.22,2.889,2.889,0,0,1,2.217-3.443,2.63,2.63,0,0,1,1.938.241,2.948,2.948,0,0,1,1.582,2.632,2.9,2.9,0,0,1-.793,1.958m-2.089-.678a1.277,1.277,0,0,0,1.306-1.282,1.365,1.365,0,0,0-1.551-1.33,1.348,1.348,0,0,0-1.106,1.322,1.3,1.3,0,0,0,1.351,1.29" transform="translate(-145.941 -54.623)" fill="#060707"/>
        <path id="Trazado_820203" data-name="Trazado 820203" d="M96.513,146.308c-.052,0-.1-.014-.157-.013-.538.005-.55.005-.534-.547a8.43,8.43,0,0,0-.12-1.881,5.162,5.162,0,0,0-.692-1.818,5.506,5.506,0,0,0-2.541-2.238,5.851,5.851,0,0,0-1.95-.449c-.221-.01-.3-.08-.273-.3a4,4,0,0,0-.008-.5v-.817a8.346,8.346,0,0,1,2.044.332,6.762,6.762,0,0,1,3.224,1.982,7.248,7.248,0,0,1,1.444,2.409,7.334,7.334,0,0,1,.4,3.237c-.02.195.147.455-.057.568-.156.087-.4.022-.6.026-.061,0-.123.006-.184.009" transform="translate(-71.05 -108.455)" fill="#060707"/>
        <path id="Trazado_820204" data-name="Trazado 820204" d="M123.869,186.323l-.014-.013.015-.012.009.013Z" transform="translate(-97.518 -146.683)" fill="#ef8573"/>
        <path id="Trazado_820205" data-name="Trazado 820205" d="M15.232,161.7c-.018-.846-.018-.843.576-.854.264,0,.529-.019.792-.04.165-.013.215.058.224.212a21.953,21.953,0,0,0,.52,3.866c.052.216,0,.343-.249.385a10.053,10.053,0,0,0-1.053.248c-.176.05-.248.02-.29-.167-.15-.67-.266-1.346-.357-2.026-.084-.628-.149-1.259-.162-1.623" transform="translate(-11.989 -126.612)" fill="#f6f8fa"/>
        <path id="Trazado_820206" data-name="Trazado 820206" d="M22.086,189.624a.2.2,0,0,1-.145.178c-.386.172-.775.337-1.161.51-.139.062-.2-.014-.24-.122-.164-.427-.322-.857-.488-1.284-.048-.124,0-.174.115-.209q.633-.189,1.261-.391c.1-.033.158-.029.2.087.14.389.291.775.438,1.162.009.024.015.05.021.07" transform="translate(-15.773 -148.25)" fill="#f6f8fa"/>
        <path id="Trazado_820207" data-name="Trazado 820207" d="M39.83,124.733a8.326,8.326,0,0,1-.037,1.532l-.166.013c-.369.01-.737.015-1.106.032-.216.01-.327-.048-.314-.295.018-.36.008-.721,0-1.081,0-.205.071-.28.288-.247a9.85,9.85,0,0,0,1.29.027.1.1,0,0,0,.042.018" transform="translate(-30.081 -98.168)" fill="#f6f8fa"/>
        <path id="Trazado_820208" data-name="Trazado 820208" d="M53.086,130.892c0,.034,0,.067,0,.1-.034,0-.071-.015-.066-.051,0-.02.045-.034.069-.05" transform="translate(-41.743 -103.059)" fill="#e65039"/>
        <path id="Trazado_820209" data-name="Trazado 820209" d="M44.888,132.144l.165-.013a.107.107,0,0,1-.165.013" transform="translate(-35.343 -104.034)" fill="#ffddb4"/>
        <path id="Trazado_820210" data-name="Trazado 820210" d="M53.261,125.162a.039.039,0,0,1,0,.045.209.209,0,0,1-.013-.034s.011-.007.016-.011" transform="translate(-41.923 -98.547)" fill="#e65039"/>
        <path id="Trazado_820211" data-name="Trazado 820211" d="M45.687,124.819a.1.1,0,0,1-.042-.018c.024-.017.04-.017.042.018" transform="translate(-35.939 -98.254)" fill="#ffddb4"/>
        <path id="Trazado_820212" data-name="Trazado 820212" d="M94.8,97.046l.014.013-.011.014a.022.022,0,0,1,0-.027" transform="translate(-74.637 -76.41)" fill="#e65039"/>
        <path id="Trazado_820213" data-name="Trazado 820213" d="M209.488,125.462c0-.176.008-.354,0-.529s.044-.249.239-.242a5.931,5.931,0,0,0,1.162-.03c.1-.017.19-.011.208.13a10.61,10.61,0,0,1,.02,1.348c0,.109-.094.141-.188.146-.413.019-.826-.055-1.241,0-.133.016-.209-.059-.2-.21.008-.2,0-.406,0-.609Z" transform="translate(-164.939 -98.147)" fill="#f6f8fa"/>
        <path id="Trazado_820214" data-name="Trazado 820214" d="M174.926,199.608a.132.132,0,0,1-.029-.149.164.164,0,0,1,.029.149" transform="translate(-137.698 -157.045)" fill="#e65039"/>
        <path id="Trazado_820215" data-name="Trazado 820215" d="M244.691,183.46a.213.213,0,0,1-.05.186.179.179,0,0,1,.05-.186" transform="translate(-192.615 -144.448)" fill="#e65039"/>
        <path id="Trazado_820216" data-name="Trazado 820216" d="M198.286,112.241a.034.034,0,0,1,.046,0c-.017.023-.032.021-.046,0" transform="translate(-156.122 -88.367)" fill="#e65039"/>
        <path id="Trazado_820217" data-name="Trazado 820217" d="M165.16,142.771c0-.049,0-.1,0-.146.047,0,.084.021.084.073s-.038.07-.085.072" transform="translate(-130.04 -112.297)" fill="#c1d1d4"/>
        <path id="Trazado_820218" data-name="Trazado 820218" d="M172.44,149.344a.03.03,0,0,1,0,.044.35.35,0,0,1-.02-.033.121.121,0,0,1,.017-.012" transform="translate(-135.758 -117.587)" fill="#ef8573"/>
        <path id="Trazado_820219" data-name="Trazado 820219" d="M195.473,26.431c0,.706.02,1.412-.006,2.117a1.234,1.234,0,0,1-1,1.152,1.3,1.3,0,0,1-1.614-1.1,2.236,2.236,0,0,1-.023-.263c0-1.288-.007-2.577,0-3.865a1.247,1.247,0,0,1,.742-1.267,1.294,1.294,0,0,1,1.89,1.06c.059.719.012,1.446.012,2.169" transform="translate(-151.824 -18.17)" fill="#c1d1d4"/>
        <path id="Trazado_820220" data-name="Trazado 820220" d="M194.154,79.585a1.3,1.3,0,0,1-1.351-1.29,1.348,1.348,0,0,1,1.106-1.322,1.365,1.365,0,0,1,1.551,1.33,1.277,1.277,0,0,1-1.306,1.282" transform="translate(-151.804 -60.601)" fill="#c1d1d4"/>
      </g>
    </g>
  </g>
</svg>
