<svg xmlns="http://www.w3.org/2000/svg" xmlns:xlink="http://www.w3.org/1999/xlink" width="57" height="57" viewBox="0 0 57 57">
  <defs>
    <clipPath id="clip-path">
      <rect id="Rect치ngulo_377520" data-name="Rect치ngulo 377520" width="57" height="57" transform="translate(197 1584.811)" fill="#fff" stroke="#707070" stroke-width="1"/>
    </clipPath>
    <clipPath id="clip-path-2">
      <rect id="Rect치ngulo_377525" data-name="Rect치ngulo 377525" width="45.7" height="50.918" fill="none"/>
    </clipPath>
  </defs>
  <g id="Enmascarar_grupo_328" data-name="Enmascarar grupo 328" transform="translate(-197 -1584.811)" clip-path="url(#clip-path)">
    <g id="Grupo_1073266" data-name="Grupo 1073266" transform="translate(203 1587.811)">
      <g id="Grupo_1073265" data-name="Grupo 1073265" clip-path="url(#clip-path-2)">
        <path id="Trazado_820221" data-name="Trazado 820221" d="M19.46,9.99l0-2.873a.15.15,0,0,0,0-.142,6.833,6.833,0,0,0,.029-.961.025.025,0,0,0,0-.033c.017-.969.039-1.939.05-2.908a3.339,3.339,0,0,1,.4-1.653A2.728,2.728,0,0,1,21.9.037,4,4,0,0,1,23.1.06a2.509,2.509,0,0,1,.844.38A2.753,2.753,0,0,1,25.177,2a2.541,2.541,0,0,1,.12.918c-.016,1.186,0,2.374-.045,3.56-.069,1.995-.031,3.991-.106,5.985-.032.851,0,1.7-.048,2.55-.088,1.5.007,3.006-.086,4.506-.007.108-.061.264.076.314a.938.938,0,0,0,.517.025c.067-.014.061-.094.075-.147.229-.912.419-1.832.584-2.758.12-.675.321-1.336.452-2.01.077-.4.1-.82.194-1.2.109-.43.228-.864.337-1.3.1-.414.133-.848.228-1.261.132-.571.257-1.144.393-1.715a12.65,12.65,0,0,0,.287-1.361,15.509,15.509,0,0,1,.376-1.865,12.241,12.241,0,0,1,.394-1.708A2.848,2.848,0,0,1,30.22,2.976a3.235,3.235,0,0,1,1.228-.4,2.594,2.594,0,0,1,1.836.553A3.046,3.046,0,0,1,34.4,6.374c-.211,1.023-.407,2.051-.653,3.066-.181.747-.294,1.506-.474,2.252s-.323,1.518-.5,2.275c-.212.925-.379,1.861-.574,2.79-.158.756-.33,1.51-.492,2.265-.211.984-.416,1.969-.627,2.953a.376.376,0,0,0,.295.483c.116.023.175-.062.213-.161q1.237-3.157,2.473-6.315c.261-.67.5-1.347.757-2.02a.606.606,0,0,1,.079-.119c.026-.005.042-.016.024-.045a2.923,2.923,0,0,1,1.679-1.874,2.342,2.342,0,0,1,1.351-.153,2.574,2.574,0,0,1,1.7,1.057,2.82,2.82,0,0,1,.242,2.942c-1.033,2.434-1.955,4.912-2.911,7.376-.539,1.391-1.063,2.788-1.6,4.182-.086.225-.07.258.176.261a8.49,8.49,0,0,1,1,.041,10.588,10.588,0,0,1,6.022,2.916,9.547,9.547,0,0,1,2.238,3.3,10.016,10.016,0,0,1,.636,1.932c.059.3.127.593.16.9a13.7,13.7,0,0,1,.074,1.507,9.454,9.454,0,0,1-1.132,4.479,10,10,0,0,1-5.6,5.09,9.477,9.477,0,0,1-2.489.6,9.708,9.708,0,0,1-3.427-.207,9.922,9.922,0,0,1-1.736-.551c-.076-.034-.193-.144-.2.063a.026.026,0,0,0,0,.035q.015,1.1.03,2.205a.955.955,0,0,1-.978,1.014q-7.359,0-14.718,0a.938.938,0,0,1-.959-.6,1.237,1.237,0,0,1-.032-.417c0-.551,0-1.1,0-1.654a.6.6,0,0,0,.009-.32c.007-.091.02-.182.021-.273q.031-2.448.058-4.9c0-.14-.021-.281-.032-.422,0,0,.011-.009.01-.012a.173.173,0,0,0-.014-.028,3.21,3.21,0,0,0-.72-1.7,16.77,16.77,0,0,1-1.226-1.648c-.55-.892-1.1-1.787-1.628-2.691a42.336,42.336,0,0,0-5.28-7.22c-1.321-1.439-2.723-2.8-4.133-4.15A4.463,4.463,0,0,1,.107,22.729a2.966,2.966,0,0,1-.039-1.408,3.447,3.447,0,0,1,3.454-2.806,3.267,3.267,0,0,1,2.207.858C7.783,21.3,9.874,23.2,11.82,25.241c.149.157.2.1.288-.045a2.217,2.217,0,0,0,.245-1.483c-.051-.537-.067-1.075-.1-1.613-.054-.976-.143-1.95-.192-2.926-.019-.381-.024-.763-.055-1.144-.063-.777-.077-1.557-.138-2.335-.025-.319-.032-.651-.066-.965-.058-.53-.013-1.061-.082-1.591a6.176,6.176,0,0,1-.069-.915c.013-.689-.087-1.372-.135-2.057-.031-.437-.045-.874-.107-1.31-.109-.772-.123-1.554-.192-2.33a2.872,2.872,0,0,1,4.852-2.385,3.3,3.3,0,0,1,.889,2.122c.064.626.117,1.252.168,1.878.047.578.08,1.157.13,1.734.037.419.088.837.141,1.254.025.2.022.4.043.6.09.859.157,1.721.212,2.584.031.478.091.952.144,1.427.033.287.028.578.061.867.08.713.14,1.429.2,2.145a6.238,6.238,0,0,0,.054.893c.035.157.078.235.258.214.239-.027.481-.028.723-.035.1,0,.169-.01.17-.146.006-.742.023-1.484.036-2.226,0-.027,0-.055,0-.082v-.2c.024-1.409.035-2.817.078-4.225.03-.969-.011-1.939.08-2.906a.173.173,0,0,0,0-.045m4.917.292a.055.055,0,0,0,0-.094c-.046-.576.038-1.149.032-1.725-.009-.792-.039-1.588.013-2.377.047-.725.023-1.447.029-2.171a11.521,11.521,0,0,0-.008-1.425,2.034,2.034,0,0,0-3.979-.161,6.093,6.093,0,0,0-.091,1.445.024.024,0,0,0,0,.031q0,.085,0,.171c0,.026,0,.053,0,.08-.036,1.554-.093,3.107-.1,4.661q-.02,3.021-.093,6.042c-.042,1.694-.075,3.388-.112,5.082,0,.134,0,.268,0,.4a.373.373,0,0,1-.351.378,3.787,3.787,0,0,1-.717.052,4.938,4.938,0,0,0-.968.042c-.328.059-.591-.064-.626-.421-.06-.619-.129-1.237-.187-1.857-.054-.571-.093-1.143-.148-1.714-.043-.446-.128-.89-.145-1.336-.023-.6-.088-1.19-.131-1.785-.065-.9-.148-1.8-.226-2.7-.051-.593-.1-1.187-.161-1.779-.058-.556-.061-1.117-.136-1.672-.068-.5-.09-1.011-.165-1.512a2.008,2.008,0,0,0-2.5-1.746,1.98,1.98,0,0,0-1.541,1.893,12.863,12.863,0,0,0,.095,1.693c.108.873.124,1.757.218,2.632s.091,1.77.191,2.652a13.559,13.559,0,0,1,.088,1.463c0,.915.114,1.821.166,2.731.037.646.041,1.294.1,1.94.062.726.126,1.454.142,2.182.02.947.092,1.891.165,2.834a2.333,2.333,0,0,1-.37,1.25c-.2.4-.2.393.219.572A12.616,12.616,0,0,1,17.642,29.3a12.922,12.922,0,0,1,2.441,4.448,9,9,0,0,1,.388,1.681.39.39,0,0,1-.3.476.381.381,0,0,1-.427-.3c-.036-.1-.057-.208-.085-.313a12.7,12.7,0,0,0-2.4-5.117,12.19,12.19,0,0,0-4.128-3.254,6.117,6.117,0,0,1-1.86-1.119C9.387,23.924,7.44,22.11,5.524,20.264a3.007,3.007,0,0,0-2.19-.913A2.618,2.618,0,0,0,.821,21.88a2.563,2.563,0,0,0,.853,2.011c.8.777,1.59,1.573,2.406,2.337a37.224,37.224,0,0,1,4.837,5.465c.959,1.336,1.842,2.723,2.692,4.13.565.935,1.112,1.881,1.7,2.8a7.4,7.4,0,0,0,.93,1.208,3.421,3.421,0,0,1,.686.961,5.207,5.207,0,0,1,.455,2.32c-.025.783-.026,1.566-.059,2.349-.034.823,0,1.648-.009,2.472a15.65,15.65,0,0,1-.05,1.778.2.2,0,0,0,0,.037c.013.36.013.36.379.36H29.969c.05,0,.1,0,.15,0,.152.007.2-.067.2-.215-.011-.5-.014-1-.02-1.5l0-.277q0-.365-.006-.729c0-.1.08-.224-.077-.281a.265.265,0,0,0-.045-.055c-.537-.379-1.092-.735-1.6-1.157a10.668,10.668,0,0,1-2.083-2.448,9.434,9.434,0,0,1-1.056-2.273,8.415,8.415,0,0,1-.469-2.457.255.255,0,0,0,0-.037,4.73,4.73,0,0,1-.022-1.163.025.025,0,0,0,0-.038.247.247,0,0,1,.009-.17.08.08,0,0,0,0-.048l0-.136c0-.018,0-.036,0-.053a2.89,2.89,0,0,1,.036-.493c.108-.453.189-.912.28-1.369.029-.077.063-.153.086-.232A10.422,10.422,0,0,1,27.7,30.893a10.536,10.536,0,0,1,4.4-2.838,9.567,9.567,0,0,1,2.145-.423.342.342,0,0,0,.334-.28c.065-.24.158-.474.247-.707q1.018-2.687,2.04-5.372.522-1.323,1.043-2.645c.285-.727.567-1.457.849-2.185.046-.1.1-.192.136-.293a5.684,5.684,0,0,0,.473-1.8A1.825,1.825,0,0,0,37.1,12.634a1.931,1.931,0,0,0-1.349,1.256q-.411,1.045-.82,2.091c-.429,1.1-.849,2.2-1.287,3.293-.518,1.292-.979,2.608-1.563,3.873-.141.306-.322.381-.622.234-.344-.168-.678-.356-1.017-.534a.414.414,0,0,1-.241-.493c.1-.515.182-1.034.29-1.548.328-1.563.679-3.121.99-4.686.117-.589.237-1.18.335-1.774.047-.284.163-.594.227-.891.532-2.444,1.04-4.893,1.558-7.34a2.207,2.207,0,0,0-.446-2.022,1.884,1.884,0,0,0-2.012-.62,1.955,1.955,0,0,0-1.474,1.52c-.32,1.375-.608,2.758-.9,4.14-.269,1.264-.526,2.531-.789,3.8q-.312,1.5-.627,3c-.313,1.477-.635,2.951-.942,4.429a.482.482,0,0,1-.65.4,8.889,8.889,0,0,0-1.155-.128c-.3-.04-.382-.07-.386-.382-.013-.994-.034-1.988.039-2.981l0-.054q0-1.265,0-2.529a.833.833,0,0,0,.011-.4l0-.194.009-.01-.009-.01a4.266,4.266,0,0,0,.021-.728l0-.278.029-1.418s.013-.01.012-.014a.181.181,0,0,0-.011-.032q0-.079,0-.157l.013-.02-.011-.022.008-.168q.008-.316.017-.632l-.015-.056.025-.052c.005,0,.015-.01.014-.014a.2.2,0,0,0-.01-.035c0-.052,0-.1,0-.156m20.508,27.5c-.032-.472-.026-.948-.1-1.417a9.139,9.139,0,0,0-.549-1.947,9.407,9.407,0,0,0-6.651-5.8,9.028,9.028,0,0,0-4.668.02,9.721,9.721,0,0,0-5.322,3.584,8,8,0,0,0-.619,1.028,9.5,9.5,0,0,0-1.205,5.717,9.328,9.328,0,0,0,.937,3.231,10.613,10.613,0,0,0,2.569,3.257,7.442,7.442,0,0,0,1.459.978,10,10,0,0,0,2.375.923,11.809,11.809,0,0,0,1.805.223l.062.016c.091,0,.183-.007.274-.006a9.186,9.186,0,0,0,3.875-.791A10.327,10.327,0,0,0,43.39,43.18a8.873,8.873,0,0,0,1.222-2.935,10.047,10.047,0,0,0,.277-2.428.025.025,0,0,0,0-.038" transform="translate(0 0.001)" fill="#040405"/>
        <path id="Trazado_820222" data-name="Trazado 820222" d="M72.07,238.83a.6.6,0,0,1-.009.32q0-.16.009-.32" transform="translate(-57.6 -190.903)" fill="#f7c4c4"/>
        <path id="Trazado_820223" data-name="Trazado 820223" d="M96.989,34.756a.149.149,0,0,1,0,.142q0-.071,0-.142" transform="translate(-77.522 -27.781)" fill="#f7c4c4"/>
        <path id="Trazado_820224" data-name="Trazado 820224" d="M96.044,86.546c0,.027,0,.055,0,.082-.039-.028-.038-.055,0-.082" transform="translate(-76.747 -69.178)" fill="#f7c4c4"/>
        <path id="Trazado_820225" data-name="Trazado 820225" d="M96.052,85.546v.082c-.04-.028-.039-.055,0-.082" transform="translate(-76.753 -68.379)" fill="#f7c4c4"/>
        <path id="Trazado_820226" data-name="Trazado 820226" d="M173.943,68.764c.017.029,0,.04-.024.045l.024-.045" transform="translate(-139.018 -54.965)" fill="#265ca7"/>
        <path id="Trazado_820227" data-name="Trazado 820227" d="M96.926,49.782a.173.173,0,0,1,0,.046.175.175,0,0,1-.009-.033s.008-.009.012-.013" transform="translate(-77.466 -39.792)" fill="#265ca7"/>
        <path id="Trazado_820228" data-name="Trazado 820228" d="M72.313,210.773a.173.173,0,0,1,.014.028s-.006.008-.01.012a.064.064,0,0,1,0-.041" transform="translate(-57.8 -168.476)" fill="#f7c4c4"/>
        <path id="Trazado_820229" data-name="Trazado 820229" d="M97.1,29.8a.025.025,0,0,1,0,.033.207.207,0,0,1-.013-.025s.008-.005.013-.008" transform="translate(-77.604 -23.821)" fill="#f7c4c4"/>
        <path id="Trazado_820230" data-name="Trazado 820230" d="M155.033,237.554a.026.026,0,0,1,0-.035.259.259,0,0,1,.015.025.084.084,0,0,1-.013.01" transform="translate(-123.916 -189.855)" fill="#f7c4c4"/>
        <path id="Trazado_820231" data-name="Trazado 820231" d="M27.588,14.636c0,.052,0,.1,0,.156a.042.042,0,0,0,0,.046l-.029,1.418a.263.263,0,0,0,0,.278,4.242,4.242,0,0,1-.021.728v.02c0,.065,0,.129,0,.194l-.011.4v2.53c0,.005-.014.011-.013.016a.206.206,0,0,0,.01.039c-.074.993-.052,1.987-.04,2.981,0,.312.091.342.386.382a8.885,8.885,0,0,1,1.155.128.482.482,0,0,0,.65-.4c.307-1.478.629-2.953.942-4.429q.318-1.5.627-3c.263-1.265.521-2.532.789-3.8.294-1.381.582-2.764.9-4.14A1.955,1.955,0,0,1,34.4,6.675a1.885,1.885,0,0,1,2.012.62,2.207,2.207,0,0,1,.446,2.022c-.518,2.447-1.026,4.9-1.558,7.34-.064.3-.181.607-.227.891-.1.594-.218,1.185-.335,1.774-.311,1.566-.662,3.124-.99,4.686-.108.514-.189,1.033-.29,1.548a.414.414,0,0,0,.241.493c.339.178.673.365,1.017.534.3.146.481.072.622-.234.584-1.266,1.045-2.581,1.563-3.874.439-1.094.858-2.2,1.287-3.293q.409-1.046.82-2.091a1.931,1.931,0,0,1,1.349-1.256,1.824,1.824,0,0,1,2.271,1.718,5.688,5.688,0,0,1-.473,1.8c-.036.1-.09.2-.136.293a.176.176,0,0,0-.061-.154c-.283-.269-.554-.55-.843-.812a.874.874,0,0,0-1.043-.049,12.514,12.514,0,0,0-1.325,1.32.736.736,0,0,0,.018.938c.285.362.638.657.948.994a.891.891,0,0,1,.06,1.206c-.431.57-.245.885.134,1.352a.153.153,0,0,0,.219.035q-1.02,2.686-2.04,5.372c-.088.234-.182.467-.247.707a.343.343,0,0,1-.334.28,9.549,9.549,0,0,0-2.145.423q0-.082,0-.163c0-.017,0-.035,0-.052q0-.126,0-.252c.09-.075.063-.122-.036-.152,0-.192-.012-.385,0-.576a1.366,1.366,0,0,0-1.374-1.417c-.915-.033-1.832-.016-2.748-.005a1.419,1.419,0,0,0-1.444,1.378,1.861,1.861,0,0,1-.216.914,1.371,1.371,0,0,1-1.131.674,4.152,4.152,0,0,1-1.6-.058,9.9,9.9,0,0,0-1.094-.384,1.456,1.456,0,0,0-1.554,1.146,7.349,7.349,0,0,0-.038.948,1.437,1.437,0,0,0,1.3,1.442c.161.019.331.011.483.037a1.439,1.439,0,0,1,1.311,1.485,3.078,3.078,0,0,0,1.135,2.194c.069.061.123.014.183-.005-.092.457-.172.916-.28,1.369a2.91,2.91,0,0,0-.036.492c0,.005-.012.011-.012.016a.25.25,0,0,0,.01.037l0,.136c0,.005-.011.01-.011.014a.183.183,0,0,0,.007.034.245.245,0,0,0-.009.17.024.024,0,0,0,0,.038,4.741,4.741,0,0,0,.022,1.163L28.2,41.9l.013.018a8.416,8.416,0,0,0,.469,2.457,9.433,9.433,0,0,0,1.056,2.273A10.673,10.673,0,0,0,31.824,49.1c.505.422,1.06.778,1.6,1.158a.267.267,0,0,1,.045.055l.077.281q0,.365.006.729a.263.263,0,0,0,0,.278c.006.5.01,1,.021,1.5,0,.147-.048.222-.2.214-.05,0-.1,0-.15,0H18.89c-.367,0-.367,0-.379-.36l.013-.018-.011-.019a15.649,15.649,0,0,0,.05-1.778c.009-.824-.025-1.65.009-2.472.033-.783.034-1.566.059-2.349A5.207,5.207,0,0,0,18.175,44a3.415,3.415,0,0,0-.686-.961,7.416,7.416,0,0,1-.93-1.208c-.583-.924-1.13-1.869-1.7-2.8-.85-1.408-1.733-2.794-2.692-4.13a37.244,37.244,0,0,0-4.837-5.465c-.816-.764-1.6-1.561-2.406-2.337a2.562,2.562,0,0,1-.853-2.011,2.619,2.619,0,0,1,2.513-2.528,3.006,3.006,0,0,1,2.19.913c1.916,1.846,3.864,3.66,5.747,5.538a6.108,6.108,0,0,0,1.859,1.119,12.191,12.191,0,0,1,4.128,3.254,12.7,12.7,0,0,1,2.4,5.117c.028.1.049.212.085.313a.381.381,0,0,0,.427.3.39.39,0,0,0,.3-.476,8.978,8.978,0,0,0-.388-1.681A12.92,12.92,0,0,0,20.9,32.5a12.616,12.616,0,0,0-4.578-3.273c-.417-.178-.418-.172-.219-.572a2.334,2.334,0,0,0,.371-1.25c-.073-.943-.145-1.887-.166-2.834-.016-.728-.08-1.456-.142-2.182-.055-.646-.06-1.294-.1-1.94-.052-.91-.161-1.816-.166-2.731a13.566,13.566,0,0,0-.088-1.463c-.1-.882-.1-1.77-.191-2.652s-.11-1.759-.218-2.632a12.87,12.87,0,0,1-.095-1.693A1.98,1.98,0,0,1,16.85,7.389a2.008,2.008,0,0,1,2.5,1.746c.075.5.1,1.01.165,1.512.075.555.078,1.116.136,1.672.062.592.11,1.186.161,1.779.078.9.161,1.8.226,2.7.043.595.107,1.188.13,1.785.017.447.1.89.145,1.336.055.571.095,1.143.148,1.714.058.619.127,1.237.187,1.856.035.358.3.481.626.421a4.909,4.909,0,0,1,.968-.042,3.773,3.773,0,0,0,.717-.052.373.373,0,0,0,.35-.378c.005-.134,0-.267,0-.4.037-1.694.07-3.388.111-5.082q.074-3.02.093-6.042c.01-1.554.067-3.108.1-4.661.039-.026.039-.053,0-.08l0-.171.017-.015-.016-.016a6.081,6.081,0,0,1,.091-1.444A2.034,2.034,0,0,1,27.7,5.69,11.522,11.522,0,0,1,27.7,7.116.873.873,0,0,0,26.3,7c-.328.309-.641.633-.957.953a.859.859,0,0,0-.017,1.356q.384.41.766.822a1.23,1.23,0,0,1,.266.418.9.9,0,0,1-.2.858.778.778,0,0,0,.1,1.141c.35.358.708.707,1.059,1.064a.326.326,0,0,0,.285.121l.015.056a2.8,2.8,0,0,0-.017.632l-.008.169a.033.033,0,0,0,0,.042m-5.6,16.706h0c.25,0,.5.006.75,0a.817.817,0,0,0,.829-.714,8.832,8.832,0,0,0,.043-1.2c.042-.7.254-1,.906-1.1a.778.778,0,0,0,.7-.684,6.345,6.345,0,0,0,.016-1.7.753.753,0,0,0-.768-.751,13.258,13.258,0,0,0-1.8,0,.823.823,0,0,0-.758.773c-.017.1-.029.2-.054.294a.82.82,0,0,1-.656.672,2.122,2.122,0,0,1-1.318-.119.884.884,0,0,0-1.361.688c-.076.633.093,1.306.967,1.349.605.03.864.383.872,1,0,.159,0,.317,0,.476a.905.905,0,0,0,1,1.01h.625m-4.605,8.579c.324,0,.582.006.84,0a.819.819,0,0,0,.839-.861c.011-.45.031-.9.049-1.349a.7.7,0,0,1,.024-.147c.115-.441.462-.578.856-.652a.826.826,0,0,0,.717-.833c.007-.5.008-1,0-1.5a.789.789,0,0,0-.7-.777,9.043,9.043,0,0,0-1.669-.035c-.653.021-.9.287-.978.93a.909.909,0,0,1-.95.866,2.78,2.78,0,0,1-1.239-.214.856.856,0,0,0-.978.22,1.694,1.694,0,0,0-.058,1.459,1.118,1.118,0,0,0,.931.438.858.858,0,0,1,.751.778,8.15,8.15,0,0,1,.044.873.785.785,0,0,0,.62.772,5.1,5.1,0,0,0,.9.036" transform="translate(-3.255 -3.2)" fill="#f7c4c4"/>
        <path id="Trazado_820232" data-name="Trazado 820232" d="M137.348,160.4a11.859,11.859,0,0,1-1.805-.223,9.993,9.993,0,0,1-2.375-.923,7.436,7.436,0,0,1-1.459-.978,10.614,10.614,0,0,1-2.569-3.258,9.328,9.328,0,0,1-.937-3.231,9.5,9.5,0,0,1,1.205-5.717,7.99,7.99,0,0,1,.619-1.028,9.721,9.721,0,0,1,5.322-3.584,9.024,9.024,0,0,1,4.668-.02,9.406,9.406,0,0,1,6.651,5.8,9.124,9.124,0,0,1,.549,1.947c.076.469.071.945.1,1.417a.025.025,0,0,0,0,.038,10.045,10.045,0,0,1-.277,2.428A8.873,8.873,0,0,1,145.825,156a10.329,10.329,0,0,1-4.266,3.621,9.189,9.189,0,0,1-3.875.791c-.091,0-.183,0-.274.006l-.062-.016m-4.753-15.83a1.058,1.058,0,0,0-.82.534,1.076,1.076,0,0,0,.062,1.407,10.069,10.069,0,0,0,.849.865c.562.578,1.135,1.143,1.7,1.716.516.521,1.028,1.045,1.545,1.566.089.09.1.166-.005.251-.6.5-1.1,1.1-1.654,1.649-.8.78-1.567,1.591-2.34,2.4a1.169,1.169,0,0,0,.274,1.933,1.181,1.181,0,0,0,1.4-.269c.559-.55,1.109-1.109,1.663-1.664q1.122-1.126,2.243-2.252c.116-.116.221-.256.409-.064.724.736,1.46,1.462,2.192,2.191.613.611,1.226,1.224,1.842,1.831a1.1,1.1,0,0,0,1.027.326,1.055,1.055,0,0,0,.88-.759,1.251,1.251,0,0,0-.278-1.294q-1.983-2.007-3.987-3.993c-.128-.128-.149-.225-.019-.355,1.332-1.334,2.659-2.674,4-4a1.17,1.17,0,1,0-1.717-1.585c-1.161,1.152-2.314,2.312-3.471,3.469-.165.165-.33.331-.5.488-.082.075-.19.132-.278.008a8.269,8.269,0,0,0-.92-.909c-1-1.018-2.009-2.021-3.019-3.026a1.371,1.371,0,0,0-1.071-.455" transform="translate(-102.435 -112.816)" fill="#ee9096"/>
        <path id="Trazado_820233" data-name="Trazado 820233" d="M115.184,128.861q0,.126,0,.252c-.005.005-.016.012-.015.016a.2.2,0,0,0,.017.036c0,.054,0,.109,0,.163a10.534,10.534,0,0,0-4.4,2.838,10.424,10.424,0,0,0-2.343,4.085c-.024.079-.057.155-.086.232-.06.019-.114.066-.183.005a3.077,3.077,0,0,1-1.135-2.194,1.438,1.438,0,0,0-1.311-1.485c-.153-.026-.322-.018-.483-.037a1.437,1.437,0,0,1-1.3-1.443,7.382,7.382,0,0,1,.038-.948,1.456,1.456,0,0,1,1.554-1.146,9.9,9.9,0,0,1,1.094.384,4.16,4.16,0,0,0,1.6.058,1.372,1.372,0,0,0,1.131-.674,1.86,1.86,0,0,0,.216-.914,1.419,1.419,0,0,1,1.444-1.378c.916-.01,1.833-.028,2.748.005a1.366,1.366,0,0,1,1.374,1.417c-.01.192,0,.384,0,.577-.006.055-.016.111.037.152" transform="translate(-83.083 -101.272)" fill="#e69768"/>
        <path id="Trazado_820234" data-name="Trazado 820234" d="M110.988,24.495a.327.327,0,0,1-.285-.121c-.351-.357-.709-.706-1.059-1.063a.779.779,0,0,1-.1-1.141.9.9,0,0,0,.2-.858,1.227,1.227,0,0,0-.266-.418q-.381-.413-.766-.822a.859.859,0,0,1,.017-1.356c.316-.321.629-.645.957-.953a.873.873,0,0,1,1.4.112c-.006.724.018,1.446-.029,2.171-.051.789-.022,1.585-.013,2.377.007.576-.078,1.149-.032,1.725,0,.031,0,.062,0,.093,0,.052,0,.1,0,.156a.054.054,0,0,0,0,.048l-.024.052" transform="translate(-86.643 -13.957)" fill="#e69768"/>
        <path id="Trazado_820235" data-name="Trazado 820235" d="M177.586,82.133a.154.154,0,0,1-.219-.035c-.379-.467-.565-.783-.134-1.352a.892.892,0,0,0-.06-1.206c-.31-.337-.663-.632-.948-.993a.736.736,0,0,1-.018-.938,12.529,12.529,0,0,1,1.325-1.32.873.873,0,0,1,1.042.048c.289.262.56.543.843.812a.176.176,0,0,1,.062.154c-.283.728-.564,1.458-.849,2.185q-.519,1.324-1.043,2.645" transform="translate(-140.718 -60.859)" fill="#e69768"/>
        <path id="Trazado_820236" data-name="Trazado 820236" d="M121.257,53.421a2.793,2.793,0,0,1,.017-.632q-.008.316-.017.632" transform="translate(-96.914 -42.196)" fill="#265ca7"/>
        <path id="Trazado_820237" data-name="Trazado 820237" d="M120.877,71.543l.011-.4a.833.833,0,0,1-.011.4" transform="translate(-96.62 -56.862)" fill="#ee9096"/>
        <path id="Trazado_820238" data-name="Trazado 820238" d="M150.625,235.038l-.077-.281c.157.058.079.18.077.281" transform="translate(-120.337 -187.647)" fill="#ee9096"/>
        <path id="Trazado_820239" data-name="Trazado 820239" d="M150.814,240.067a.263.263,0,0,1,0-.278l0,.278" transform="translate(-120.516 -191.669)" fill="#ee9096"/>
        <path id="Trazado_820240" data-name="Trazado 820240" d="M120.912,65.337a.263.263,0,0,1,0-.278c0,.093,0,.185,0,.278" transform="translate(-96.618 -52.003)" fill="#ee9096"/>
        <path id="Trazado_820241" data-name="Trazado 820241" d="M121.467,50.863c0-.031,0-.062,0-.093a.055.055,0,0,1,0,.093" transform="translate(-97.09 -40.582)" fill="#265ca7"/>
        <path id="Trazado_820242" data-name="Trazado 820242" d="M101.495,19.811c.039.027.038.054,0,.08,0-.027,0-.053,0-.08" transform="translate(-81.127 -15.835)" fill="#ee9096"/>
        <path id="Trazado_820243" data-name="Trazado 820243" d="M120.826,85.814a.223.223,0,0,1-.01-.039s.009-.01.013-.016l0,.054" transform="translate(-96.571 -68.55)" fill="#265ca7"/>
        <path id="Trazado_820244" data-name="Trazado 820244" d="M120.952,70.093v-.02l.009.01Z" transform="translate(-96.68 -56.011)" fill="#ee9096"/>
        <path id="Trazado_820245" data-name="Trazado 820245" d="M121.2,57.811a.042.042,0,0,1,0-.046.175.175,0,0,1,.011.032s-.008.009-.012.013" transform="translate(-96.875 -46.173)" fill="#265ca7"/>
        <path id="Trazado_820246" data-name="Trazado 820246" d="M121.229,56.818a.033.033,0,0,1,0-.042l.011.022Z" transform="translate(-96.896 -45.383)" fill="#265ca7"/>
        <path id="Trazado_820247" data-name="Trazado 820247" d="M121.424,52.06a.054.054,0,0,1,0-.048.181.181,0,0,1,.01.035s-.009.009-.014.014" transform="translate(-97.054 -41.575)" fill="#265ca7"/>
        <path id="Trazado_820248" data-name="Trazado 820248" d="M124.323,184.792a.21.21,0,0,1-.01-.037s.008-.011.012-.016c0,.018,0,.036,0,.053" transform="translate(-99.367 -147.667)" fill="#265ca7"/>
        <path id="Trazado_820249" data-name="Trazado 820249" d="M124.3,185.729a.2.2,0,0,1-.007-.034s.007-.01.011-.015a.078.078,0,0,1,0,.048" transform="translate(-99.348 -148.42)" fill="#265ca7"/>
        <path id="Trazado_820250" data-name="Trazado 820250" d="M124.236,186.808a.024.024,0,0,1,0-.038.025.025,0,0,1,0,.038" transform="translate(-99.299 -149.29)" fill="#265ca7"/>
        <path id="Trazado_820251" data-name="Trazado 820251" d="M223.646,188.3a.026.026,0,0,1,0-.038.025.025,0,0,1,0,.038" transform="translate(-178.758 -150.483)" fill="#265ca7"/>
        <path id="Trazado_820252" data-name="Trazado 820252" d="M124.333,192.794l-.013-.018.012-.019a.255.255,0,0,1,0,.037" transform="translate(-99.372 -154.076)" fill="#265ca7"/>
        <path id="Trazado_820253" data-name="Trazado 820253" d="M173.98,237.113l.062.016-.062-.016" transform="translate(-139.067 -189.531)" fill="#265ca7"/>
        <path id="Trazado_820254" data-name="Trazado 820254" d="M101.488,18.806l.016.016-.017.015a.024.024,0,0,1,0-.031" transform="translate(-81.117 -15.032)" fill="#ee9096"/>
        <path id="Trazado_820255" data-name="Trazado 820255" d="M76.021,247.747l.011.019-.013.018a.229.229,0,0,1,0-.037" transform="translate(-60.764 -198.03)" fill="#265ca7"/>
        <path id="Trazado_820256" data-name="Trazado 820256" d="M79.485,115.626H78.86a.905.905,0,0,1-1-1.01c0-.159,0-.317,0-.476-.009-.621-.267-.974-.873-1-.874-.043-1.044-.716-.967-1.349a.884.884,0,0,1,1.361-.688,2.122,2.122,0,0,0,1.318.119.82.82,0,0,0,.656-.672c.024-.1.037-.2.054-.294a.823.823,0,0,1,.758-.773,13.257,13.257,0,0,1,1.8,0,.753.753,0,0,1,.767.751,6.328,6.328,0,0,1-.016,1.7.777.777,0,0,1-.7.684c-.652.1-.864.4-.906,1.1a8.8,8.8,0,0,1-.043,1.2.816.816,0,0,1-.829.714c-.25.008-.5,0-.75,0Z" transform="translate(-60.748 -87.485)" fill="#e69768"/>
        <path id="Trazado_820257" data-name="Trazado 820257" d="M56.928,158.373a5.1,5.1,0,0,1-.9-.036.785.785,0,0,1-.62-.772,8.15,8.15,0,0,0-.044-.873.858.858,0,0,0-.751-.778,1.118,1.118,0,0,1-.931-.438,1.694,1.694,0,0,1,.058-1.459.856.856,0,0,1,.978-.22,2.78,2.78,0,0,0,1.239.214.909.909,0,0,0,.95-.865c.073-.643.325-.909.978-.93a9.044,9.044,0,0,1,1.669.035.789.789,0,0,1,.7.777c.009.5.007,1,0,1.5a.826.826,0,0,1-.717.833c-.394.074-.74.211-.856.652a.7.7,0,0,0-.024.147c-.018.45-.038.9-.049,1.349a.819.819,0,0,1-.839.861c-.258.007-.516,0-.84,0" transform="translate(-42.797 -121.652)" fill="#e69768"/>
        <path id="Trazado_820258" data-name="Trazado 820258" d="M159.8,136.876c-.053-.041-.042-.1-.037-.152.1.029.126.077.037.152" transform="translate(-127.699 -109.287)" fill="#ee9096"/>
        <path id="Trazado_820259" data-name="Trazado 820259" d="M159.9,138.789a.219.219,0,0,1-.017-.036s.009-.011.015-.016c0,.017,0,.035,0,.052" transform="translate(-127.797 -110.896)" fill="#ee9096"/>
        <path id="Trazado_820260" data-name="Trazado 820260" d="M146.086,158.192a1.371,1.371,0,0,1,1.071.455c1.01,1,2.022,2.008,3.019,3.026a8.271,8.271,0,0,1,.92.909c.089.124.2.067.278-.008.173-.157.337-.323.5-.488,1.157-1.156,2.309-2.317,3.471-3.469a1.17,1.17,0,1,1,1.717,1.585c-1.337,1.329-2.664,2.669-4,4-.13.13-.109.227.019.355q2,1.991,3.987,3.993a1.251,1.251,0,0,1,.278,1.294,1.055,1.055,0,0,1-.88.759,1.1,1.1,0,0,1-1.027-.327c-.617-.607-1.229-1.22-1.842-1.831-.732-.729-1.467-1.454-2.192-2.191-.189-.192-.293-.052-.409.064q-1.124,1.124-2.243,2.252c-.553.556-1.1,1.114-1.663,1.664a1.181,1.181,0,0,1-1.4.269,1.169,1.169,0,0,1-.274-1.933c.773-.806,1.542-1.617,2.34-2.4.557-.544,1.058-1.144,1.654-1.649.1-.085.094-.161.005-.251-.516-.521-1.029-1.045-1.545-1.566-.567-.573-1.14-1.138-1.7-1.716a10.069,10.069,0,0,1-.849-.865,1.076,1.076,0,0,1-.062-1.407,1.058,1.058,0,0,1,.82-.534" transform="translate(-115.926 -126.44)" fill="#265ca7"/>
      </g>
    </g>
  </g>
</svg>
