<svg xmlns="http://www.w3.org/2000/svg" xmlns:xlink="http://www.w3.org/1999/xlink" width="57" height="57" viewBox="0 0 57 57">
  <defs>
    <clipPath id="clip-path">
      <rect id="Rect치ngulo_377521" data-name="Rect치ngulo 377521" width="57" height="57" transform="translate(208.001 1643.811)" fill="#fff" stroke="#707070" stroke-width="1"/>
    </clipPath>
    <clipPath id="clip-path-2">
      <rect id="Rect치ngulo_377516" data-name="Rect치ngulo 377516" width="50.04" height="50.066" fill="none"/>
    </clipPath>
  </defs>
  <g id="Enmascarar_grupo_329" data-name="Enmascarar grupo 329" transform="translate(-208.001 -1643.811)" clip-path="url(#clip-path)">
    <g id="Grupo_1073262" data-name="Grupo 1073262" transform="translate(211 1646.811)">
      <g id="Grupo_1073261" data-name="Grupo 1073261" clip-path="url(#clip-path-2)">
        <path id="Trazado_820154" data-name="Trazado 820154" d="M57.979,121.145c-.414,0-.83-.026-1.242,0a2.669,2.669,0,0,1-1.771-.552.364.364,0,0,0-.043-.057,2.238,2.238,0,0,1-.8-2.2c.06-.318.048-.319-.279-.321a3.432,3.432,0,0,1-1.24-.129,5.821,5.821,0,0,1-.826-.449c-.153-.233-.371-.41-.514-.658a2.151,2.151,0,0,1-.238-1.7c.048-.176-.014-.2-.156-.185a3.628,3.628,0,0,1-1.3-.076,2.384,2.384,0,0,1-1.4-1.079,2.223,2.223,0,0,1-.068-2.318.806.806,0,0,0,.03-.089.891.891,0,0,0,.158-.147,2.1,2.1,0,0,1,.885-.73c.356-.171.364-.162.27-.538a2.156,2.156,0,0,1,.642-2.141,2.613,2.613,0,0,1,1.973-.7q6.126,0,12.251,0c.073,0,.147,0,.22,0a.8.8,0,0,0,.684-.71,4.142,4.142,0,0,0-.33-1.419,6.679,6.679,0,0,1-.412-2.364,3.3,3.3,0,0,1,.863-2,4.006,4.006,0,0,1,2.021-1.238,2.62,2.62,0,0,1,.837-.08c.492.045.656.411.777.818.3,1.019.616,2.036.914,3.057.095.326.17.656.286.977a.516.516,0,0,0,.342.336,1.137,1.137,0,0,0,.722.051c.453-.126.509-.495.524-.872.025-.636.095-1.269.108-1.906a4.451,4.451,0,0,1,.439-1.59,3.211,3.211,0,0,1,1.054-1.208,3.006,3.006,0,0,1,1.1-.6,3.657,3.657,0,0,1,1.473-.12,4.287,4.287,0,0,1,.813.172.725.725,0,0,1,.583.8c0,.695-.079,1.385-.107,2.079-.024.595-.036,1.193-.1,1.785a5.589,5.589,0,0,0,.3,2.363,5.358,5.358,0,0,0,2.625,3.02,16.876,16.876,0,0,1,1.776,1.056A8.147,8.147,0,0,0,84,110.4c1.051.353,2.089.743,3.132,1.121.295.107.588.218.875.344a.674.674,0,0,1,.41.654c.111,4.613.018,9.227.047,13.84a.938.938,0,0,1-.616,1.006.632.632,0,0,1-.6-.125c-.678-.5-1.352-1-2.03-1.5-1.24-.914-2.478-1.832-3.725-2.737a20.366,20.366,0,0,0-1.972-1.357,12.5,12.5,0,0,0-2.447-1.1c-.4-.122-.8-.245-1.195-.371a4.1,4.1,0,0,0-2.208.043c-.575.133-1.163.209-1.736.347-.646.156-1.305.224-1.954.362a7.583,7.583,0,0,1-1.226.176c-2.21.1-4.421.016-6.632.04-.189,0-.242.045-.238.237.013.635.026,1.271,0,1.905a2.921,2.921,0,0,1-.231,1.26,2.513,2.513,0,0,1-.936,1.016,2.347,2.347,0,0,1-3.4-1.307,4.591,4.591,0,0,1-.1-1.685c.011-.323.345-.568.771-.647a.36.36,0,0,0,.154.058.721.721,0,0,1,.587.6,7.766,7.766,0,0,1,.045.892.839.839,0,0,0,.031.33.79.79,0,0,0,.829.523.831.831,0,0,0,.694-.79c.014-.747,0-1.5.009-2.243,0-.125-.046-.146-.156-.145-.731.006-1.462.007-2.193.01m14.07-15.309-.581.2a5.567,5.567,0,0,0,2.062,1.3,7.323,7.323,0,0,0,1.521.3c.63.084,1.252.226,1.877.345.048.009.106.038.138,0s0-.105-.042-.147a8.33,8.33,0,0,1-.569-.815c-.063-.13-.124-.261-.188-.391a6.534,6.534,0,0,1-.683-2.382,10.788,10.788,0,0,1,.022-1.746c.058-.723.073-1.45.112-2.176.033-.619.006-.636-.6-.535a2.047,2.047,0,0,0-1.593,1.531,17.23,17.23,0,0,0-.2,2.472,2.928,2.928,0,0,1-.229.968,2.335,2.335,0,0,1-1.05,1.08m1.028,2.99c-.1-.05-.2-.1-.3-.149a11.4,11.4,0,0,1-1.689-.915.485.485,0,0,0-.064-.071,6.7,6.7,0,0,1-2.31-3.161c-.382-1.037-.653-2.109-.973-3.166-.169-.561-.2-.561-.718-.249a2.15,2.15,0,0,0-1.015,1.995,16.625,16.625,0,0,0,.579,2.069,3.356,3.356,0,0,1,.145,1.627,2.227,2.227,0,0,1-2.172,1.809c-4.19.028-8.381.013-12.571.013-.089,0-.18,0-.268,0a.783.783,0,0,0-.766.776.729.729,0,0,0,.816.783H61.795c.276,0,.552-.005.829-.008.078.014.148.05.229.062a.67.67,0,0,1,.534.554.624.624,0,0,1-.162.7,1.143,1.143,0,0,1-.743.266q-6.029-.013-12.058-.005c-.09,0-.18,0-.268,0a.783.783,0,0,0-.766.776.725.725,0,0,0,.792.783q6.124,0,12.247,0c.049,0,.1-.006.146-.01.165.062.332.12.5.186a.6.6,0,0,1,.329.51.616.616,0,0,1-.235.672,1.279,1.279,0,0,1-.741.211c-2.977-.01-5.954-.006-8.932-.005a1.928,1.928,0,0,0-.34.019.739.739,0,0,0-.635.761.771.771,0,0,0,.839.787c2.284-.008,4.569,0,6.853,0,.8,0,1.609-.005,2.414-.008a.885.885,0,0,1,.732.539.772.772,0,0,1-.2.835,1.316,1.316,0,0,1-.743.2c-1.966-.01-3.932-.005-5.9-.006a.727.727,0,0,0-.541.147.75.75,0,0,0-.273.962.776.776,0,0,0,.436.406c.138.055.281.126.4-.036.005-.007.05,0,.063.018.1.112.227.067.344.067q5.007,0,10.014,0a16.555,16.555,0,0,0,2.773-.189c1.24-.208,2.464-.492,3.7-.714a20.322,20.322,0,0,1,2.665-.263,12.387,12.387,0,0,1,1.308.076,11.847,11.847,0,0,1,1.94.294c1.307.3,2.586.7,3.874,1.072.909.26,1.82.515,2.729.777a6.372,6.372,0,0,0,.8.235c.136.02.151-.009.148-.122-.006-.293-.006-.586-.009-.879a.368.368,0,0,0,.006-.048q0-3.283.005-6.567a.215.215,0,0,0-.183-.237c-.431-.139-.864-.275-1.288-.432-.68-.251-1.358-.5-2.046-.737-.955-.323-1.9-.689-2.844-1.032-.928-.335-1.854-.68-2.791-.99a9.557,9.557,0,0,0-1.8-.465c-.585-.073-1.159-.209-1.751-.256a6.851,6.851,0,0,1-1.123-.276M86.9,125.094c0-.846,0-1.644,0-2.441,0-.1-.019-.168-.131-.194-.743-.173-1.47-.4-2.2-.617q-1.44-.42-2.885-.823a1.07,1.07,0,0,0-.442-.094l5.658,4.17" transform="translate(-38.435 -78.913)"/>
        <path id="Trazado_820155" data-name="Trazado 820155" d="M15.637,10.614A3.027,3.027,0,0,1,14.2,8.879a1.868,1.868,0,0,1-.122-.83c.022-.159-.046-.191-.189-.184a4.473,4.473,0,0,0-1.539.422c-1.094.468-2.181.953-3.272,1.429-.931.406-1.864.807-2.794,1.215-1.36.6-2.719,1.2-4.079,1.8-.376.166-.747.343-1.128.5a.766.766,0,0,1-1.068-.7,2.142,2.142,0,0,1,0-.293V.783A.736.736,0,0,1,.67.041,7.472,7.472,0,0,1,1.785,0Q10.48,0,19.174.009A4.643,4.643,0,0,1,21.1.334a3.906,3.906,0,0,1,1.957,1.919A4.393,4.393,0,0,1,23.419,4c.056.943.015,1.883.03,2.824a.972.972,0,0,1-.143.612.856.856,0,0,1-.725.385l-.2,0c-.51,0-.517,0-.541.5A2.7,2.7,0,0,1,20.517,10.5l-.238.163a4.3,4.3,0,0,1-1.891.291c-.381-.016-.765-.017-1.146,0a3.161,3.161,0,0,1-1.606-.337M3.132,1.575c-.439,0-.879,0-1.318-.015-.2-.009-.254.041-.253.248q.011,4.654.006,9.308a.326.326,0,0,0,.032.223c.472-.217.939-.44,1.413-.648C5.7,9.51,8.408,8.364,11.078,7.14a9.894,9.894,0,0,1,4.3-.889c2.1.02,4.2,0,6.3.009.166,0,.22-.033.217-.21-.011-.684,0-1.368-.008-2.052a2.171,2.171,0,0,0-.153-.872,2.3,2.3,0,0,0-2.167-1.561q-8.023.006-16.045,0c-.13,0-.26,0-.39.007M18,7.822c-.724,0-1.448,0-2.171,0-.065,0-.161-.06-.194.073a1.34,1.34,0,0,0,1.149,1.48c.732.007,1.464-.006,2.2.009a1.316,1.316,0,0,0,1.347-1.373c0-.167-.051-.2-.2-.2-.708.008-1.415,0-2.123,0" transform="translate(0 0)"/>
        <path id="Trazado_820156" data-name="Trazado 820156" d="M52.506,54.129a3.161,3.161,0,0,0,1.606.337c.381-.017.765-.016,1.146,0a4.3,4.3,0,0,0,1.89-.291,5.718,5.718,0,0,1,.05,1.112.629.629,0,0,0-.607.284,1.077,1.077,0,0,0-.178.663q.007,5.874,0,11.747a2.025,2.025,0,0,0,1.239,1.959,2.057,2.057,0,0,0,2.675-1.034,1.784,1.784,0,0,1,.947-1.043.861.861,0,0,0,.611-.888,2.23,2.23,0,0,1,.734.148.659.659,0,0,0,.285.044,6.669,6.669,0,0,0,.412,2.364,4.148,4.148,0,0,1,.33,1.419.8.8,0,0,1-.684.71c-.073,0-.146,0-.22,0q-6.126,0-12.251,0a2.612,2.612,0,0,0-1.972.7,2.156,2.156,0,0,0-.642,2.141c.095.376.087.367-.27.538a2.094,2.094,0,0,0-.885.73.9.9,0,0,1-.158.147c-.112-.029-.128-.133-.172-.216a7.887,7.887,0,0,0-.533-.955c.442-.183.54-.324.537-.789,0-.346-.138-.677-.14-1.02-.009-1.229,0-2.458,0-3.687A1.56,1.56,0,0,1,47.945,67.8a1.443,1.443,0,0,1,1.234.763,3.935,3.935,0,0,0,.653.982,1.975,1.975,0,0,0,2.312.331,2.034,2.034,0,0,0,1.139-1.906q.015-2.368,0-4.737a.849.849,0,0,0-.779-.958c.025-.532-.044-1.064,0-1.6.559-.048.768-.377.777-.916.019-1.17.014-2.341,0-3.512a.926.926,0,0,0-.416-.9c-.118-.067-.26-.019-.362-.113q0-.555,0-1.11" transform="translate(-36.868 -43.515)" fill="#b1cede"/>
        <path id="Trazado_820157" data-name="Trazado 820157" d="M47.688,95.665a.85.85,0,0,1,.779.958q.016,2.368,0,4.737a2.033,2.033,0,0,1-1.139,1.905,1.975,1.975,0,0,1-2.312-.331,3.934,3.934,0,0,1-.653-.982,1.444,1.444,0,0,0-1.234-.763,1.56,1.56,0,0,0-1.689,1.457c0,1.229-.007,2.458,0,3.687,0,.343.138.674.14,1.02,0,.465-.1.606-.537.789a.775.775,0,0,1-.974-.606,4.575,4.575,0,0,1-.191-1.22c-.021-1.179,0-2.359-.01-3.539a3.137,3.137,0,0,1,.864-2.159,2.829,2.829,0,0,1,2.191-1.026,2.968,2.968,0,0,1,2.9,1.852c.113.257.229.481.554.487a.451.451,0,0,0,.526-.508q0-1.9,0-3.808c0-.366,0-.732,0-1.1a.839.839,0,0,1,.778-.85" transform="translate(-32.052 -76.907)"/>
        <path id="Trazado_820158" data-name="Trazado 820158" d="M105.144,71.7a.861.861,0,0,1-.61.888,1.784,1.784,0,0,0-.947,1.043,2.056,2.056,0,0,1-2.675,1.034,2.025,2.025,0,0,1-1.239-1.959q.011-5.874,0-11.747a1.076,1.076,0,0,1,.178-.663.628.628,0,0,1,.607-.284.741.741,0,0,1,.738.676,4.714,4.714,0,0,1,.042.723q0,4.435,0,8.869c0,.114.005.228.008.342q0,1.1-.008,2.2a.441.441,0,0,0,.139.327.536.536,0,0,0,.857-.217,3.533,3.533,0,0,1,1.248-1.524c.2-.1.4-.2.613-.283a.716.716,0,0,1,.955.437.87.87,0,0,0,.094.14" transform="translate(-80.126 -48.244)"/>
        <path id="Trazado_820159" data-name="Trazado 820159" d="M67.708,206.493c.132.091.3.062.44.172a1.012,1.012,0,0,1,.337.837c.012,1.131.017,2.263,0,3.393a2.5,2.5,0,0,1-.72,1.92A2.279,2.279,0,0,1,64,212.043a2.439,2.439,0,0,1-.2-.944q.009-3.479,0-6.958a.831.831,0,0,1,.779-.83.843.843,0,0,1,.784.96c0,.081,0,.163,0,.244q0,3.321,0,6.641a.769.769,0,0,0,.112.411.734.734,0,0,0,.747.357.689.689,0,0,0,.624-.435,1.31,1.31,0,0,0,.084-.495c0-1.188.009-2.377-.005-3.565a.891.891,0,0,1,.787-.937" transform="translate(-51.288 -163.445)"/>
        <path id="Trazado_820160" data-name="Trazado 820160" d="M70.9,200.966a.891.891,0,0,0-.787.937c.014,1.188,0,2.376.005,3.565a1.31,1.31,0,0,1-.084.495.689.689,0,0,1-.624.435.734.734,0,0,1-.747-.357.769.769,0,0,1-.112-.411q.007-3.32,0-6.641c0-.081,0-.163,0-.244a.843.843,0,0,0-.784-.96,8.8,8.8,0,0,1,.051-1.349,5.805,5.805,0,0,0,.826.449,3.433,3.433,0,0,0,1.24.129c.327,0,.339,0,.279.321a2.237,2.237,0,0,0,.8,2.2.357.357,0,0,1,.043.057c-.14.028-.111.14-.111.232,0,.38,0,.759,0,1.139" transform="translate(-54.481 -157.917)" fill="#b1cede"/>
        <path id="Trazado_820161" data-name="Trazado 820161" d="M48.245,77.252a5.29,5.29,0,0,1-2.132-.372A2.09,2.09,0,0,1,44.8,75.121a2.18,2.18,0,0,1,.443-1.716,2.135,2.135,0,0,1,1.748-.9,2.656,2.656,0,0,1,1.215.242,2.174,2.174,0,0,1,1.134,1.566,10.05,10.05,0,0,1,.225,1.975c.02.653-.3.962-.957.962h-.366m-1.111-3.178c-.057,0-.114,0-.171,0a.772.772,0,0,0-.633.638.743.743,0,0,0,.28.674,2.781,2.781,0,0,0,1.225.3c.107,0,.138-.034.139-.139a2.971,2.971,0,0,0-.194-1.012.552.552,0,0,0-.646-.459" transform="translate(-35.998 -58.289)"/>
        <path id="Trazado_820162" data-name="Trazado 820162" d="M28.383,192.471a7.536,7.536,0,0,1-.193,1.767,2.234,2.234,0,0,1-2.484,1.889,2.181,2.181,0,0,1-1.831-1.236,2.3,2.3,0,0,1,.392-2.749,2.493,2.493,0,0,1,1.3-.6,9,9,0,0,1,2.012-.144.7.7,0,0,1,.8.729c.01.113,0,.228,0,.342M25.168,193.8a.814.814,0,0,0,.56.771.743.743,0,0,0,.8-.279,3.416,3.416,0,0,0,.26-1.157c.006-.148-.054-.168-.182-.169a2.787,2.787,0,0,0-.993.188.6.6,0,0,0-.441.646" transform="translate(-18.961 -153.87)"/>
        <path id="Trazado_820163" data-name="Trazado 820163" d="M128.532,223.011a5.446,5.446,0,0,1,1.7.173,2.22,2.22,0,0,1,1.871,2.072,2.291,2.291,0,0,1-4.406,1.089,4.313,4.313,0,0,1-.289-1.379c-.028-.379-.046-.757-.043-1.136,0-.633.343-.789.845-.818.105-.006.211,0,.317,0m.666,1.607c-.175-.02-.315,0-.271.228a3.926,3.926,0,0,0,.239.992.661.661,0,0,0,.729.393.808.808,0,0,0,.679-.672.667.667,0,0,0-.417-.743,5.668,5.668,0,0,0-.959-.2" transform="translate(-102.395 -179.269)"/>
        <path id="Trazado_820164" data-name="Trazado 820164" d="M116.617,83.929a4.834,4.834,0,0,1,.437-2.26,2.2,2.2,0,0,1,.909-.943,2.147,2.147,0,0,1,1.623-.178,2.087,2.087,0,0,1,1.433,1.007,2.3,2.3,0,0,1-.468,3.009,3,3,0,0,1-1.291.51,8.333,8.333,0,0,1-1.988.14.762.762,0,0,1-.653-.675c-.006-.2,0-.407,0-.611m3.176-1.135c0-.049,0-.1,0-.146a.679.679,0,0,0-.484-.6c-.422-.089-.73,0-.855.284a3.067,3.067,0,0,0-.278,1.117c-.007.172.042.242.213.209a4.9,4.9,0,0,0,.964-.2c.368-.15.444-.26.441-.657" transform="translate(-93.748 -64.692)"/>
        <path id="Trazado_820165" data-name="Trazado 820165" d="M76.519,59.791c.1.093.244.045.362.113a.926.926,0,0,1,.416.9c.013,1.171.018,2.341,0,3.512-.009.539-.218.869-.777.917a.792.792,0,0,1-.786-.847c.018-1.177.005-2.355.006-3.532,0-.679.135-.861.78-1.059" transform="translate(-60.883 -48.067)"/>
        <path id="Trazado_820166" data-name="Trazado 820166" d="M99.674,215.338c.731,0,1.462,0,2.193-.01.11,0,.157.02.156.145-.006.748,0,1.5-.009,2.243a.831.831,0,0,1-.694.79.79.79,0,0,1-.829-.523.836.836,0,0,1-.031-.33,7.814,7.814,0,0,0-.045-.892.72.72,0,0,0-.587-.6.359.359,0,0,1-.154-.058q0-.384,0-.768" transform="translate(-80.13 -173.106)" fill="#b1cede"/>
        <path id="Trazado_820167" data-name="Trazado 820167" d="M109.905,114.921a3.535,3.535,0,0,0-1.248,1.524.536.536,0,0,1-.857.216.441.441,0,0,1-.139-.327q0-1.1.008-2.2a1.679,1.679,0,0,1,.645.2c.445.15.888.308,1.334.459a.857.857,0,0,1,.259.129" transform="translate(-86.55 -91.755)" fill="#f2d1b5"/>
        <path id="Trazado_820168" data-name="Trazado 820168" d="M59,126.913a.739.739,0,0,1,.635-.761,1.889,1.889,0,0,1,.34-.019c2.977,0,5.955,0,8.932.005a1.278,1.278,0,0,0,.741-.211.616.616,0,0,0,.235-.672.6.6,0,0,0-.329-.51c-.164-.066-.33-.125-.5-.186a.488.488,0,0,0-.256-.609,1.1,1.1,0,0,0-.6-.164q-5.842,0-11.684,0a2.246,2.246,0,0,1-.646,0,.783.783,0,0,1,.766-.777c.089-.009.179,0,.268,0q6.029,0,12.058.005a1.143,1.143,0,0,0,.744-.267.624.624,0,0,0,.161-.7.67.67,0,0,0-.534-.554c-.082-.012-.152-.047-.23-.062a.586.586,0,0,0-.136-.451.952.952,0,0,0-.756-.323H58.083a2.243,2.243,0,0,1-.647,0,.783.783,0,0,1,.766-.776c.089-.009.179,0,.268,0,4.19,0,8.381.015,12.571-.013a2.228,2.228,0,0,0,2.172-1.809,3.361,3.361,0,0,0-.146-1.627,16.626,16.626,0,0,1-.58-2.069,2.15,2.15,0,0,1,1.015-1.995c.523-.312.549-.311.718.249.32,1.057.59,2.13.973,3.166a6.7,6.7,0,0,0,2.31,3.161.462.462,0,0,1,.064.071c-.039.1-.133.067-.208.086a.91.91,0,0,0-.682.6.633.633,0,0,0,.211.74,4.722,4.722,0,0,0,1.809,1,.75.75,0,0,0,.774-.221.693.693,0,0,0,.185-.735c-.043-.13-.066-.266-.1-.4a6.87,6.87,0,0,0,1.123.276c.591.047,1.166.183,1.751.256a9.543,9.543,0,0,1,1.8.465c.937.31,1.862.655,2.791.99.948.343,1.889.709,2.844,1.032.687.232,1.366.486,2.046.736.425.157.857.293,1.288.432a.215.215,0,0,1,.183.237q-.008,3.283-.005,6.567a.372.372,0,0,1-.006.048,3.523,3.523,0,0,1-.769-.214c-1.161-.332-2.32-.668-3.485-.984a22.947,22.947,0,0,0-3.965-.927,14.839,14.839,0,0,0-2.883-.061c-.244.026-.489,0-.727.043-1.4.261-2.8.523-4.189.8a11.792,11.792,0,0,1-2.262.252c-3.735.023-7.47.016-11.205,0a1.635,1.635,0,0,1-1.433-.629A.727.727,0,0,1,63,129.26c1.966,0,3.932,0,5.9.006a1.316,1.316,0,0,0,.742-.2.772.772,0,0,0,.2-.835.885.885,0,0,0-.732-.539.586.586,0,0,0-.136-.451.95.95,0,0,0-.756-.323H59.646a2.208,2.208,0,0,1-.647,0" transform="translate(-44.916 -90.163)" fill="#f2d1b5"/>
        <path id="Trazado_820169" data-name="Trazado 820169" d="M88.03,197.987a1.635,1.635,0,0,0,1.433.629c3.735.012,7.471.019,11.206,0a11.8,11.8,0,0,0,2.262-.252c1.393-.282,2.791-.544,4.189-.8.237-.045.483-.017.727-.043a14.838,14.838,0,0,1,2.883.061,22.946,22.946,0,0,1,3.965.927c1.165.316,2.324.652,3.485.984a3.535,3.535,0,0,0,.769.214c0,.293,0,.586.009.879,0,.113-.013.143-.148.122a6.346,6.346,0,0,1-.8-.235c-.909-.262-1.819-.516-2.729-.776-1.288-.369-2.567-.773-3.874-1.072a11.87,11.87,0,0,0-1.94-.294,12.381,12.381,0,0,0-1.308-.076,20.319,20.319,0,0,0-2.665.263c-1.237.222-2.461.506-3.7.714a16.551,16.551,0,0,1-2.773.189q-5.007-.005-10.014,0c-.116,0-.246.044-.344-.067-.013-.015-.058-.025-.063-.019-.122.162-.265.092-.4.037a.776.776,0,0,1-.436-.406.75.75,0,0,1,.273-.962" transform="translate(-70.488 -158.744)" fill="#e7b794"/>
        <path id="Trazado_820170" data-name="Trazado 820170" d="M171.428,112.3a2.336,2.336,0,0,0,1.05-1.081,2.922,2.922,0,0,0,.229-.968,17.2,17.2,0,0,1,.2-2.472,2.047,2.047,0,0,1,1.593-1.531c.6-.1.632-.085.6.535-.039.726-.055,1.453-.113,2.176a10.809,10.809,0,0,0-.022,1.746,6.534,6.534,0,0,0,.683,2.382c.065.129.125.26.188.391-.366-.063-.737-.089-1.105-.136a9.418,9.418,0,0,1-2.432-.549c-.307-.127-.66-.187-.869-.492" transform="translate(-137.814 -85.378)" fill="#f2d1b5"/>
        <path id="Trazado_820171" data-name="Trazado 820171" d="M55.873,171.468a2.239,2.239,0,0,0,.646,0q5.842,0,11.684,0a1.1,1.1,0,0,1,.6.164.489.489,0,0,1,.256.609c-.048,0-.1.01-.145.01q-6.124,0-12.247,0a.725.725,0,0,1-.792-.783" transform="translate(-44.917 -137.846)" fill="#e7b794"/>
        <path id="Trazado_820172" data-name="Trazado 820172" d="M63.845,155.518a2.241,2.241,0,0,0,.647,0H74.623a.952.952,0,0,1,.756.323.586.586,0,0,1,.136.451c-.276,0-.552.008-.829.008H64.662a.729.729,0,0,1-.816-.783" transform="translate(-51.326 -125.024)" fill="#e7b794"/>
        <path id="Trazado_820173" data-name="Trazado 820173" d="M71.817,187.419a2.208,2.208,0,0,0,.647,0h8.567a.95.95,0,0,1,.756.323.586.586,0,0,1,.136.451c-.8,0-1.609.007-2.414.008-2.284,0-4.569,0-6.853,0a.771.771,0,0,1-.839-.787" transform="translate(-57.734 -150.669)" fill="#e7b794"/>
        <path id="Trazado_820174" data-name="Trazado 820174" d="M223.992,218.4l-5.658-4.17a1.07,1.07,0,0,1,.442.094q1.446.4,2.885.823c.732.214,1.458.444,2.2.617.111.026.131.091.131.194,0,.8,0,1.6,0,2.441" transform="translate(-175.522 -172.222)" fill="#f2d1b5"/>
        <path id="Trazado_820175" data-name="Trazado 820175" d="M164.676,148.188c.032.134.055.27.1.4a.692.692,0,0,1-.186.734.75.75,0,0,1-.774.221,4.717,4.717,0,0,1-1.809-1,.633.633,0,0,1-.211-.74.911.911,0,0,1,.682-.6c.074-.019.169.017.208-.086a11.411,11.411,0,0,0,1.689.915c.1.045.2.1.3.149" transform="translate(-130.034 -118.275)" fill="#f8f9fb"/>
        <path id="Trazado_820176" data-name="Trazado 820176" d="M169.046,137.3c.209.305.562.365.869.492a9.417,9.417,0,0,0,2.432.549c.368.048.739.073,1.105.136a8.36,8.36,0,0,0,.569.815c.039.042.084.094.042.147s-.09.011-.138,0c-.625-.118-1.247-.261-1.877-.344a7.335,7.335,0,0,1-1.521-.3,5.566,5.566,0,0,1-2.062-1.3l.581-.2" transform="translate(-135.432 -110.381)" fill="#e7b794"/>
        <path id="Trazado_820177" data-name="Trazado 820177" d="M28.136,9.519a2.172,2.172,0,0,1,.153.872c.011.684,0,1.368.008,2.052,0,.177-.051.21-.217.21-2.1-.006-4.2.011-6.3-.009a9.892,9.892,0,0,0-4.3.889C14.81,14.756,12.1,15.9,9.415,17.083c-.474.208-.941.431-1.413.648a.327.327,0,0,1-.032-.223q0-4.654-.006-9.308c0-.207.053-.257.253-.248.439.019.878.012,1.318.015.124.267.152.563.248.836a5.16,5.16,0,0,0,1.771,2.452,4.951,4.951,0,0,0,4.729.756,41.613,41.613,0,0,0,4.141-1.768A7.285,7.285,0,0,1,23.3,9.524c1.611-.024,3.223-.006,4.835-.005" transform="translate(-6.402 -6.392)" fill="#ccc"/>
        <path id="Trazado_820178" data-name="Trazado 820178" d="M34.577,9.544c-1.612,0-3.223-.018-4.835.005a7.285,7.285,0,0,0-2.879.719,41.613,41.613,0,0,1-4.141,1.768,4.951,4.951,0,0,1-4.729-.756,5.16,5.16,0,0,1-1.771-2.452c-.1-.273-.124-.57-.248-.836.13,0,.26-.007.39-.007q8.023,0,16.045,0a2.3,2.3,0,0,1,2.168,1.561" transform="translate(-12.843 -6.418)" fill="#f8f9fb"/>
        <path id="Trazado_820179" data-name="Trazado 820179" d="M82.021,39.852c.708,0,1.415,0,2.123,0,.152,0,.208.028.2.2A1.316,1.316,0,0,1,83,41.417c-.732-.015-1.464,0-2.2-.009a1.34,1.34,0,0,1-1.149-1.48c.033-.134.129-.073.194-.073.724,0,1.447,0,2.171,0" transform="translate(-64.018 -32.029)" fill="#f8f9fb"/>
        <path id="Trazado_820180" data-name="Trazado 820180" d="M53.449,80.5a.552.552,0,0,1,.646.459,2.971,2.971,0,0,1,.194,1.012c0,.1-.032.141-.139.139a2.781,2.781,0,0,1-1.225-.3.743.743,0,0,1-.28-.674.772.772,0,0,1,.633-.638c.057,0,.114,0,.171,0" transform="translate(-42.314 -64.713)" fill="#b1cede"/>
        <path id="Trazado_820181" data-name="Trazado 820181" d="M31.642,200.206a.6.6,0,0,1,.441-.646,2.786,2.786,0,0,1,.993-.188c.129,0,.189.021.182.169A3.416,3.416,0,0,1,33,200.7a.742.742,0,0,1-.8.279.814.814,0,0,1-.56-.771" transform="translate(-25.435 -160.278)" fill="#b1cede"/>
        <path id="Trazado_820182" data-name="Trazado 820182" d="M135.551,231.242a5.67,5.67,0,0,1,.959.2.667.667,0,0,1,.417.743.808.808,0,0,1-.679.672.661.661,0,0,1-.729-.393,3.923,3.923,0,0,1-.239-.992c-.044-.233.1-.248.271-.228" transform="translate(-108.747 -185.894)" fill="#b1cede"/>
        <path id="Trazado_820183" data-name="Trazado 820183" d="M126.19,89.108c0,.4-.072.507-.44.657a4.9,4.9,0,0,1-.964.2c-.171.033-.22-.038-.213-.209a3.067,3.067,0,0,1,.278-1.117c.125-.286.434-.373.856-.284a.679.679,0,0,1,.484.6c0,.049,0,.1,0,.146" transform="translate(-100.146 -71.005)" fill="#b1cede"/>
      </g>
    </g>
  </g>
</svg>
