<svg xmlns="http://www.w3.org/2000/svg" xmlns:xlink="http://www.w3.org/1999/xlink" width="57" height="57" viewBox="0 0 57 57">
  <defs>
    <clipPath id="clip-path">
      <rect id="Rect치ngulo_377522" data-name="Rect치ngulo 377522" width="57" height="57" transform="translate(206 1765.811)" fill="#fff" stroke="#707070" stroke-width="1"/>
    </clipPath>
    <clipPath id="clip-path-2">
      <rect id="Rect치ngulo_377515" data-name="Rect치ngulo 377515" width="48.045" height="48.071" fill="none"/>
    </clipPath>
  </defs>
  <g id="Enmascarar_grupo_330" data-name="Enmascarar grupo 330" transform="translate(-206 -1765.811)" clip-path="url(#clip-path)">
    <g id="Grupo_1073260" data-name="Grupo 1073260" transform="translate(210 1769.81)">
      <g id="Grupo_1073259" data-name="Grupo 1073259" clip-path="url(#clip-path-2)">
        <path id="Trazado_820116" data-name="Trazado 820116" d="M218.459,12.262c0-1.266,0-2.532-.008-3.8a2.477,2.477,0,0,1,.5-1.508,2.3,2.3,0,0,1,1.717-.918c.154-.015.2-.063.2-.209-.005-.391-.009-.782,0-1.172,0-.156-.061-.172-.193-.173a3.392,3.392,0,0,0-2.365.861,3.927,3.927,0,0,0-1.468,3q0,1.969-.008,3.938c0,.127.028.183.167.181q.645-.011,1.29,0c.112,0,.155-.042.166-.141a.039.039,0,0,0,0-.062" transform="translate(-176.015 -3.64)" fill="#f8f9fb"/>
        <path id="Trazado_820117" data-name="Trazado 820117" d="M35.372,89.149a3.688,3.688,0,0,0,.828.161,21.144,21.144,0,0,1,2.115.479,12.273,12.273,0,0,1,2.6,1,4.207,4.207,0,0,1,.836.6.5.5,0,0,0,.374.141c1.173-.007,2.345-.02,3.518-.005a2.275,2.275,0,0,1,1.733.745,2.362,2.362,0,0,1-.644,3.771,2.552,2.552,0,0,1-1.171.264q-1.466.01-2.932,0c-.166,0-.2.042-.2.208.009,2.267.008,4.535.011,6.8a10.792,10.792,0,0,1-.559,3.59,10.487,10.487,0,0,1-2.1,3.533,10.357,10.357,0,0,1-3.112,2.38,11.611,11.611,0,0,1-2.829.944,6.693,6.693,0,0,1-1.28.141c-5.391.1-10.782.012-16.174.046a9.979,9.979,0,0,1-1.831-.107,11,11,0,0,1-2.592-.752,10.531,10.531,0,0,1-5.9-6.625,9.538,9.538,0,0,1-.373-1.711,27.649,27.649,0,0,1-.06-2.9q-.009-2.685.01-5.369c0-.19-.1-.176-.223-.176-1,0-2-.011-3,.005A2.022,2.022,0,0,1,1.369,96.1,2.406,2.406,0,0,1,.015,94.034a2.344,2.344,0,0,1,1.428-2.31,2.188,2.188,0,0,1,.958-.2c1.157-.009,2.314-.005,3.471,0a.618.618,0,0,0,.457-.164A6.291,6.291,0,0,1,8.2,90.3a14.811,14.811,0,0,1,2.353-.714c.757-.174,1.516-.334,2.277-.486.5-.1,1.02-.142,1.531-.208.609-.078,1.217-.159,1.827-.227.238-.027.479-.027.717-.041.849-.051,1.7-.12,2.545-.169,1.351-.077,2.7-.118,4.054-.131,1.3-.012,2.6,0,3.891.062q.847.042,1.694.088c.647.037,1.294.09,1.94.14.15.012.344.126.437.009s-.069-.268-.119-.4A2.343,2.343,0,0,1,32.34,85.5a2.384,2.384,0,0,1,3.533,1.157,2.3,2.3,0,0,1-.5,2.488m5.456,5.606c-.033-.078-.061-.033-.089,0a7.944,7.944,0,0,1-.8.366c-1.073.359-2.158.675-3.261.936-.747.176-1.5.295-2.256.423-.649.111-1.311.157-1.969.217-.564.052-1.13.1-1.693.163-.667.074-1.34.108-2.011.145-.75.041-1.5.086-2.251.092-2.053.016-4.106.037-6.159-.046-.72-.029-1.438-.11-2.159-.132-.481-.014-.953-.095-1.434-.111-.567-.019-1.13-.132-1.7-.174-.652-.048-1.3-.141-1.94-.252-.52-.09-1.041-.176-1.555-.292-.69-.155-1.375-.33-2.052-.535a13.939,13.939,0,0,1-2.065-.749c-.214-.1-.225-.1-.221.136.026,1.54.02,3.08,0,4.62a.219.219,0,0,0,.136.24,14.3,14.3,0,0,0,1.962.719c.373.1.751.186,1.129.27.122.027.146.087.116.2-.109.4-.2.81-.274,1.221-.022.128-.111.157-.223.128a20.542,20.542,0,0,1-2.682-.8c-.176-.072-.163.031-.163.138,0,.336.021.673,0,1.008a.3.3,0,0,0,.235.361c.635.21,1.245.48,1.9.649.5.129,1,.269,1.508.4.423.112.856.156,1.285.226.1.016.18.006.131.163a6.213,6.213,0,0,0-.2,1.176c-.019.174-.073.254-.264.209-.336-.078-.68-.11-1.02-.179-.729-.148-1.45-.322-2.163-.529-.385-.112-.76-.26-1.139-.393a.2.2,0,0,0-.178-.008c-.037.023-.019.068-.011.106a11.117,11.117,0,0,0,.541,1.9,8.745,8.745,0,0,0,1.888,2.918,8.608,8.608,0,0,0,2.287,1.658,10.108,10.108,0,0,0,1.813.708,9.148,9.148,0,0,0,2.47.28q7.775-.018,15.549-.005a9.286,9.286,0,0,0,2.325-.266,8.648,8.648,0,0,0,4.294-2.513,8.844,8.844,0,0,0,2.266-4.627c.022-.132.013-.214-.165-.15a23.642,23.642,0,0,1-3.012.857,10.957,10.957,0,0,1-1.391.243c-.132.011-.156-.035-.171-.165a8.368,8.368,0,0,0-.191-1.146c-.051-.194-.009-.225.159-.25A18.559,18.559,0,0,0,39.7,103.4a4.308,4.308,0,0,0,1.043-.461c.063-.033.17-.042.083-.155a6.813,6.813,0,0,0,.007-1.214s.012-.012.011-.014a.178.178,0,0,0-.019-.024c-.167-.039-.287.085-.427.133a26.291,26.291,0,0,1-3.794.944c-.907.165-1.815.309-2.731.411a8.084,8.084,0,0,1-.864.109,6.68,6.68,0,0,0-.733.079c-.13.015-.164-.043-.183-.172-.059-.4-.048-.815-.133-1.216-.024-.115-.009-.225.158-.207a4.5,4.5,0,0,0,.622-.071c.579-.017,1.154-.142,1.732-.209.921-.106,1.831-.277,2.738-.46a17.162,17.162,0,0,0,3.147-.906c.13-.053.306-.066.375-.232.051-.034.18-.017.089-.14a.478.478,0,0,0,.031-.252q0-2.107,0-4.214c0-.124-.017-.247-.025-.371m-24.211-4.49a1.6,1.6,0,0,0-.326.013c-.54.077-1.079.165-1.622.207a16.794,16.794,0,0,0-1.755.252c-.667.123-1.336.245-2,.4a14.838,14.838,0,0,0-2.691.843,2.574,2.574,0,0,0-.911.6.2.2,0,0,0,0,.322,2.372,2.372,0,0,0,.8.521.349.349,0,0,0,.27-.009,22.108,22.108,0,0,1,2.529-.712c1.189-.258,2.389-.467,3.6-.61,1.037-.123,2.075-.246,3.116-.325.742-.056,1.485-.107,2.228-.146s1.464-.074,2.2-.08c2.137-.017,4.276-.057,6.41.116.5.041,1,.071,1.506.093.687.029,1.366.137,2.049.184.647.045,1.288.133,1.93.212,1.034.127,2.061.315,3.08.535a18.634,18.634,0,0,1,2.544.707.481.481,0,0,0,.364.044,2.433,2.433,0,0,0,.819-.532.212.212,0,0,0-.012-.343,2.491,2.491,0,0,0-.583-.427,10.511,10.511,0,0,0-2-.751,30.381,30.381,0,0,0-3.677-.751q-.744-.12-1.5-.2c-.685-.075-1.368-.177-2.056-.216-.5-.028-1-.1-1.511-.107s-1.019-.074-1.531-.085c-.474-.01-.95-.028-1.422-.058-.35-.022-.7-.036-1.049-.027s-.685-.024-1.03-.02c-1.41.019-2.819.016-4.228.1-.441.027-.883.058-1.326.064-.228,0-.463.021-.694.04-.506.043-1.011.1-1.517.146m-5.474,4.025a.15.15,0,0,0,.14.094c.7.131,1.395.258,2.1.362.835.124,1.67.25,2.509.342.285.031.571.058.854.1a5.544,5.544,0,0,0,.756.083,7.565,7.565,0,0,1,1,.067,19.406,19.406,0,0,0,2.526.162c2.624.03,5.25.061,7.873-.083.441-.024.877-.1,1.321-.109a6.512,6.512,0,0,0,.83-.072c.474-.076.953-.121,1.429-.178a7.5,7.5,0,0,1,.789-.137,11.205,11.205,0,0,0,1.53-.2c.623-.089,1.243-.2,1.865-.3.065-.01.159.022.156-.078,0-.08-.088-.092-.16-.108-.331-.073-.667-.126-1-.179-.652-.1-1.3-.236-1.959-.3-.551-.054-1.1-.173-1.65-.22-.577-.049-1.154-.112-1.73-.162-.606-.053-1.214-.12-1.821-.16-.824-.054-1.651-.1-2.476-.1-1.577.005-3.154-.048-4.731.03-.489.024-.98.039-1.469.064-.333.017-.668.007-1,.047-.774.093-1.552.138-2.327.218-.841.086-1.676.207-2.513.318-.631.083-1.258.2-1.886.3-.316.054-.63.123-.951.186m-7.236.428h0c.515,0,1.03-.005,1.545,0,.145,0,.186-.039.183-.184q-.012-.608,0-1.217c0-.146-.025-.211-.188-.2-.194.014-.39,0-.585,0-.8,0-1.592,0-2.388,0a.845.845,0,0,0-.874.862.787.787,0,0,0,.875.736c.476,0,.952,0,1.428,0m40.244,0v0c.5,0,1,0,1.5,0a.751.751,0,0,0,.633-.295.828.828,0,0,0,.073-.842.758.758,0,0,0-.752-.462c-1-.006-2,0-3,0-.146,0-.183.039-.178.184q.019.62.007,1.24c0,.157.061.178.194.176.507-.006,1.014,0,1.522,0M34.4,87.533a.729.729,0,0,0-.744-.793.753.753,0,0,0-.809.78.837.837,0,0,0,.771.807.766.766,0,0,0,.782-.794" transform="translate(-0.011 -69.097)"/>
        <path id="Trazado_820118" data-name="Trazado 820118" d="M42.175,1.335a5.111,5.111,0,0,0,1.035.1c.634.071,1.272.114,1.908.186.694.078,1.38.2,2.071.293.408.056.822.113,1.218.2,1.519.349,3.054.628,4.555,1.057.375.107.357.086.394-.3a2.968,2.968,0,0,1,.771-1.7A3.035,3.035,0,0,1,55.82.162,3.331,3.331,0,0,1,56.844.117a3.106,3.106,0,0,1,1.611.629,3.034,3.034,0,0,1,1.131,1.645,3.2,3.2,0,0,1-.246,2.4c-.1.194,0,.264.143.308.877.275,1.731.615,2.59.939,1.218.459,2.416.963,3.6,1.5,1.1.5,2.17,1.032,3.212,1.633a17.606,17.606,0,0,1,2.569,1.8A4.792,4.792,0,0,1,72.5,12.278a1.588,1.588,0,0,1,.162,1.317,1.556,1.556,0,0,1-.83.976,7.83,7.83,0,0,1-3.448.65c-.408-.01-.817-.036-1.226-.043-.483-.008-.966-.082-1.449-.131-.441-.045-.883-.081-1.321-.144-.857-.124-1.715-.245-2.561-.439-.333-.076-.67-.132-1-.21-.729-.171-1.468-.3-2.2-.469-1.052-.242-2.1-.516-3.133-.808-1.3-.367-2.6-.762-3.887-1.172-.768-.244-1.516-.548-2.277-.813-1.369-.476-2.721-1-4.047-1.578a37.129,37.129,0,0,1-5.012-2.577,8.793,8.793,0,0,1-2.4-2.09,2.112,2.112,0,0,1-.527-1.463,1.5,1.5,0,0,1,.792-1.22,4.558,4.558,0,0,1,1.771-.579c.662-.079,1.325-.11,1.989-.126.039,0,.079,0,.105-.034.05.084.107.082.168.012M68.188,13.6a10.432,10.432,0,0,0,1.819-.085,2.8,2.8,0,0,0,.879-.213c.287-.137.328-.269.15-.533a3.834,3.834,0,0,0-.859-.859,23.265,23.265,0,0,0-4.086-2.45A64.306,64.306,0,0,0,58.086,6.28a.651.651,0,0,0-.476,0,2.9,2.9,0,0,1-1.818.123,2.448,2.448,0,0,1-.753-.27,3.167,3.167,0,0,1-.947-.842.81.81,0,0,0-.6-.381,1.176,1.176,0,0,1-.2-.029,10.17,10.17,0,0,0-1.2-.332c-.361-.064-.705-.18-1.062-.254-.472-.1-.937-.224-1.409-.321-.622-.127-1.248-.237-1.873-.351s-1.249-.224-1.877-.313c-.563-.08-1.127-.143-1.694-.195a28.339,28.339,0,0,0-2.85-.165,4.142,4.142,0,0,0-.511.037,8.725,8.725,0,0,0-1.346.174c-.613.18-.68.352-.267.836a6.168,6.168,0,0,0,1.176,1,27.393,27.393,0,0,0,4.186,2.344,60.283,60.283,0,0,0,6.007,2.421c.821.282,1.643.561,2.47.825.67.214,1.347.407,2.022.6.654.191,1.306.389,1.966.561.685.179,1.383.312,2.065.5.624.174,1.259.3,1.89.426.819.167,1.642.325,2.472.448.851.126,1.7.269,2.557.351a15.893,15.893,0,0,0,2.113.115.044.044,0,0,0,.069,0M56.519,4.873a1.553,1.553,0,0,0,1.617-1.552c.01-1-.653-1.586-1.8-1.6a1.581,1.581,0,0,0,.188,3.152" transform="translate(-30.313 -0.079)"/>
        <path id="Trazado_820119" data-name="Trazado 820119" d="M216.878,50.31c-.091-.144-.04-.3-.044-.456-.009-.3.013-.611-.01-.914-.015-.2.068-.234.239-.236a6.53,6.53,0,0,0,1.022-.053,2.333,2.333,0,0,0,1.951-2.469c0-1.258.019-2.517,0-3.775a4.975,4.975,0,0,1,.2-1.406,3.092,3.092,0,0,1,.48-.909,4.05,4.05,0,0,1,1.723-1.451,5.685,5.685,0,0,1,1.389-.323c.22-.033.228.032.223.206q-.016.609,0,1.219c0,.15-.045.181-.185.179A2.381,2.381,0,0,0,221.7,41.8a4.144,4.144,0,0,0-.072.877c0,1.148-.006,2.3.015,3.445a3.945,3.945,0,0,1-2.834,3.993,5.676,5.676,0,0,1-1.9.207L216.9,50.3Z" transform="translate(-176.006 -31.097)"/>
        <path id="Trazado_820120" data-name="Trazado 820120" d="M2.4,6.057c0-.719.022-1.439-.006-2.157a2.179,2.179,0,0,0-1-1.849A2.07,2.07,0,0,0,.142,1.645C.026,1.653,0,1.605,0,1.5c0-.453,0-.907,0-1.36C0,.047.006-.008.122,0a4.227,4.227,0,0,1,2.1.67A4.123,4.123,0,0,1,3.443,1.925a3.5,3.5,0,0,1,.5,1.489c.143,1.456.037,2.916.063,4.374A2.637,2.637,0,0,0,4.389,9.31a2.433,2.433,0,0,0,1.995,1.105c.218.01.438.008.656,0,.124-.005.169.042.168.16,0,.43,0,.86,0,1.289,0,.194-.18.211-.282.184a2.5,2.5,0,0,0-.668-.037,3.559,3.559,0,0,1-1.841-.548A4.053,4.053,0,0,1,2.4,7.745q0-.844,0-1.688h0" transform="translate(-0.001 0)"/>
        <path id="Trazado_820121" data-name="Trazado 820121" d="M37.868,39.924c0,.664.014,1.329,0,1.993a2.514,2.514,0,0,0,.55,1.745A2.148,2.148,0,0,0,40,44.5c.3.014.594.016.891.013.13,0,.182.042.181.175,0,.43,0,.86.007,1.29,0,.11-.04.145-.151.151a4.193,4.193,0,0,1-4.072-1.986,3.263,3.263,0,0,1-.572-1.84c.028-1.239.016-2.48,0-3.719a3.677,3.677,0,0,0-.177-1.328,2.306,2.306,0,0,0-1.788-1.486.831.831,0,0,1-.132-.031c-.11-.044-.272.065-.332-.068a.9.9,0,0,1-.01-.348c0-.336.008-.672,0-1.008,0-.142.028-.189.178-.184a3.853,3.853,0,0,1,2.44.936,4.064,4.064,0,0,1,1.159,1.673,3.694,3.694,0,0,1,.246,1.3c0,.625,0,1.25,0,1.876Z" transform="translate(-27.465 -27.708)"/>
        <path id="Trazado_820122" data-name="Trazado 820122" d="M72.272,61.933a2.4,2.4,0,1,1,2.178,2.42,2.393,2.393,0,0,1-2.178-2.42m2.448.827a.752.752,0,0,0,.743-.812.819.819,0,0,0-.886-.781.964.964,0,0,0-.754.855.93.93,0,0,0,.9.738" transform="translate(-58.665 -48.354)"/>
        <path id="Trazado_820123" data-name="Trazado 820123" d="M117.172,72.49a2.364,2.364,0,0,1,2.417,1.991,2.421,2.421,0,0,1-2.249,2.759,2.47,2.47,0,0,1-2.52-2.407,2.4,2.4,0,0,1,2.353-2.343m.033,1.6a.751.751,0,0,0-.784.763.827.827,0,0,0,.8.793.726.726,0,0,0,.754-.8.708.708,0,0,0-.769-.755" transform="translate(-93.204 -58.837)"/>
        <path id="Trazado_820124" data-name="Trazado 820124" d="M218.458,12.324c-.011.1-.054.143-.166.141q-.645-.011-1.29,0c-.139,0-.168-.054-.167-.181q.009-1.969.008-3.939a3.927,3.927,0,0,1,1.468-3,3.392,3.392,0,0,1,2.365-.861c.132,0,.2.017.193.173-.011.39-.006.781,0,1.172,0,.146-.048.194-.2.209a2.3,2.3,0,0,0-1.717.918,2.477,2.477,0,0,0-.5,1.508c.011,1.266.006,2.532.008,3.8a.038.038,0,0,0,0,.062" transform="translate(-176.015 -3.641)"/>
        <path id="Trazado_820125" data-name="Trazado 820125" d="M201.486,239.83c0,.477,0,.953,0,1.43,0,.122-.033.158-.156.156-.414-.008-.828-.009-1.242,0-.15,0-.187-.059-.187-.192q0-1.43-.009-2.859c0-.117.043-.145.151-.144.43,0,.86.006,1.289,0,.126,0,.156.037.155.157-.006.484,0,.969,0,1.453Z" transform="translate(-162.264 -193.374)"/>
        <path id="Trazado_820126" data-name="Trazado 820126" d="M46.822,239.8c0-.468.006-.936,0-1.4,0-.143.033-.185.18-.181.4.011.8.006,1.193,0,.125,0,.175.037.186.172.072.948.006,1.9.037,2.844,0,.13-.046.18-.178.178-.421-.006-.842-.008-1.263,0-.135,0-.149-.051-.148-.162,0-.484,0-.967,0-1.451Z" transform="translate(-38.005 -193.37)"/>
        <path id="Trazado_820127" data-name="Trazado 820127" d="M99.316,246.829c0,.405-.013.811-.007,1.216,0,.145-.026.211-.189.208-.435-.009-.871-.008-1.306,0-.13,0-.13-.058-.13-.154,0-.429.006-.858,0-1.286,0-.134.041-.174.171-.171.429.009.858.012,1.286.01.117,0,.179.035.176.156l-.013,0,.013.019" transform="translate(-79.293 -200.211)"/>
        <path id="Trazado_820128" data-name="Trazado 820128" d="M149.518,248.276c-.211-.019-.561.113-.712-.048-.133-.141-.05-.488-.057-.744-.006-.21,0-.421-.008-.631,0-.112.023-.18.151-.179.444,0,.888,0,1.332.005.058,0,.1,0,.112.081a13.492,13.492,0,0,1,.047,1.415c0,.112-.064.1-.136.1h-.729" transform="translate(-120.731 -200.238)"/>
        <path id="Trazado_820129" data-name="Trazado 820129" d="M124.747,247.485c0,.195-.009.39,0,.584.009.148-.053.213-.191.214-.421,0-.842,0-1.263,0-.125,0-.139-.069-.14-.164,0-.218-.013-.437,0-.655a4.636,4.636,0,0,0-.052-.6c-.009-.124.025-.188.163-.186.444.005.889.006,1.333,0,.13,0,.158.055.154.169-.006.21,0,.421,0,.631h-.006" transform="translate(-99.928 -200.246)"/>
        <path id="Trazado_820130" data-name="Trazado 820130" d="M73.9,247.507v.514c0,.271-.069.3-.345.278a8.361,8.361,0,0,0-1-.014c-.168,0-.238-.037-.235-.216.007-.4,0-.795-.006-1.192,0-.134.031-.2.183-.2q.619.012,1.239,0c.137,0,.176.042.172.172-.008.218,0,.436,0,.654Z" transform="translate(-58.699 -200.242)"/>
        <path id="Trazado_820131" data-name="Trazado 820131" d="M174.427,247.5c0-.211.006-.422,0-.633,0-.118.026-.167.154-.165.422.007.844.008,1.265,0,.143,0,.173.063.172.183,0,.414,0,.828,0,1.242,0,.134-.055.175-.184.174-.422-.005-.844-.006-1.266,0-.116,0-.145-.036-.141-.146.008-.218,0-.437,0-.656Z" transform="translate(-141.589 -200.256)"/>
        <path id="Trazado_820132" data-name="Trazado 820132" d="M62.284,6.478c-.061.071-.118.072-.168-.012.059-.038.117-.053.168.012" transform="translate(-50.422 -5.222)" fill="#5e8bc1"/>
        <path id="Trazado_820133" data-name="Trazado 820133" d="M217.117,102.03l.018-.007.007.017-.018.008Z" transform="translate(-176.244 -82.817)" fill="#5e8bc1"/>
        <path id="Trazado_820134" data-name="Trazado 820134" d="M225.391,45.861a.038.038,0,0,1,0-.062.039.039,0,0,1,0,.062" transform="translate(-182.949 -37.177)" fill="#a5a5a5"/>
        <path id="Trazado_820135" data-name="Trazado 820135" d="M106.3,247.544l-.013-.019.013,0,.01.011Z" transform="translate(-86.281 -200.926)" fill="#5e8bc1"/>
        <path id="Trazado_820136" data-name="Trazado 820136" d="M71.787,144.434a4.3,4.3,0,0,1-1.043.46,18.565,18.565,0,0,1-3.744.921c-.168.025-.21.056-.159.249a8.374,8.374,0,0,1,.191,1.146c.015.13.04.176.172.165a10.889,10.889,0,0,0,1.39-.243,23.611,23.611,0,0,0,3.012-.856c.179-.065.188.018.165.15a8.843,8.843,0,0,1-2.266,4.628,8.647,8.647,0,0,1-4.294,2.513,9.293,9.293,0,0,1-2.325.266q-7.775,0-15.55.005a9.143,9.143,0,0,1-2.47-.28,10.124,10.124,0,0,1-1.813-.708,8.608,8.608,0,0,1-2.287-1.658,8.746,8.746,0,0,1-1.888-2.917,11.119,11.119,0,0,1-.541-1.9c-.008-.038-.026-.083.011-.106a.2.2,0,0,1,.178.008c.379.133.754.282,1.139.393.713.207,1.434.381,2.163.529.339.069.684.1,1.02.179.192.044.246-.036.264-.209a6.211,6.211,0,0,1,.2-1.176c.049-.158-.031-.147-.131-.163-.429-.071-.862-.114-1.285-.226-.5-.133-1.006-.273-1.508-.4-.655-.169-1.265-.439-1.9-.649a.3.3,0,0,1-.235-.361c.023-.334,0-.671,0-1.008,0-.107-.014-.21.163-.138a20.483,20.483,0,0,0,2.682.8c.112.029.2,0,.223-.128.072-.412.165-.818.274-1.221.03-.111.006-.17-.116-.2-.377-.084-.756-.167-1.129-.27a14.287,14.287,0,0,1-1.962-.719.219.219,0,0,1-.136-.24c.018-1.54.025-3.08,0-4.62,0-.237.007-.24.221-.137a13.92,13.92,0,0,0,2.065.749c.677.205,1.363.381,2.052.536.514.115,1.035.2,1.555.292.643.111,1.288.2,1.94.252.567.042,1.13.155,1.7.174.481.016.953.1,1.434.111.72.022,1.439.1,2.159.132,2.052.082,4.106.062,6.159.046.751-.006,1.5-.051,2.251-.092.671-.037,1.343-.071,2.011-.145.564-.063,1.129-.111,1.693-.163.658-.06,1.32-.107,1.969-.218.754-.128,1.51-.247,2.257-.423,1.1-.261,2.188-.577,3.261-.936a8.032,8.032,0,0,0,.8-.366l.089,0c.009.124.025.247.025.371q0,2.107,0,4.214a.479.479,0,0,1-.03.252.11.11,0,0,0-.09.14c-.069.165-.245.178-.375.232a17.142,17.142,0,0,1-3.147.906c-.907.183-1.817.354-2.738.46-.578.067-1.153.192-1.732.209a4.524,4.524,0,0,1-.622.071c-.167-.019-.182.091-.158.207.084.4.073.812.133,1.216.019.129.053.187.183.172a6.727,6.727,0,0,1,.733-.079,8.132,8.132,0,0,0,.863-.109c.916-.1,1.824-.246,2.731-.411a26.258,26.258,0,0,0,3.794-.944c.14-.048.26-.171.427-.133a.037.037,0,0,0,.008.038,6.829,6.829,0,0,1-.007,1.214c-.078.024-.113.072-.083.155M61.5,147.586c0,.039,0,.078,0,.117-.008.327-.008.337.309.32s.644-.056.966-.085c.59-.053,1.181-.1,1.77-.172.2-.025.2-.122.19-.256-.044-.4-.1-.808-.142-1.212a.126.126,0,0,0-.157-.123,1.986,1.986,0,0,1-.414.03c-.8.119-1.613.162-2.421.228-.138.011-.17.05-.16.179.025.325.039.65.057.975m-7.649-4.167c0-.016,0-.032,0-.049-.328,0-.656,0-.984,0-.088,0-.193-.016-.191.135a7.99,7.99,0,0,1-.045,1.28c-.021.146.062.2.189.2.671,0,1.341.009,2.011.047.168.01.239-.075.239-.239,0-.4-.007-.8,0-1.195,0-.136-.047-.178-.17-.177-.351,0-.7,0-1.053,0m4.921-.031a1.654,1.654,0,0,1-.257,0c-.2-.033-.276.036-.259.249.028.35.043.7.037,1.052-.005.294-.019.291.268.3.668.011,1.331-.06,2-.089.135-.006.152-.064.147-.174-.016-.37-.061-.738-.084-1.106-.017-.267-.031-.327-.337-.29-.5.06-1.008.01-1.511.064" transform="translate(-31.053 -110.595)" fill="#86b9e3"/>
        <path id="Trazado_820137" data-name="Trazado 820137" d="M47.758,110.93c.506-.049,1.011-.1,1.517-.146.231-.02.465-.037.693-.04.443-.007.885-.038,1.326-.064,1.409-.084,2.818-.081,4.228-.1.344,0,.686.029,1.03.02s.7,0,1.049.027c.472.03.947.048,1.422.058.512.01,1.022.075,1.531.085s1.007.079,1.511.107c.687.038,1.371.14,2.056.216q.751.083,1.5.2a30.373,30.373,0,0,1,3.677.751,10.518,10.518,0,0,1,2,.751,2.5,2.5,0,0,1,.583.427.213.213,0,0,1,.012.343,2.432,2.432,0,0,1-.819.532.48.48,0,0,1-.364-.044,18.637,18.637,0,0,0-2.544-.707c-1.019-.22-2.046-.408-3.08-.535-.641-.079-1.283-.167-1.93-.212-.683-.048-1.361-.155-2.049-.184-.5-.021-1.005-.052-1.506-.093-2.135-.173-4.273-.133-6.41-.116-.732.006-1.465.041-2.2.08s-1.486.09-2.228.146c-1.041.079-2.079.2-3.116.325-1.209.143-2.409.352-3.6.61a22.151,22.151,0,0,0-2.529.712.349.349,0,0,1-.27.009,2.373,2.373,0,0,1-.8-.521.2.2,0,0,1,0-.322,2.577,2.577,0,0,1,.911-.6,14.818,14.818,0,0,1,2.691-.843c.663-.154,1.332-.277,2-.4a16.79,16.79,0,0,1,1.755-.252c.543-.041,1.083-.129,1.622-.207a1.592,1.592,0,0,1,.326-.013" transform="translate(-31.152 -89.762)" fill="#a5a5a5"/>
        <path id="Trazado_820138" data-name="Trazado 820138" d="M59.132,128.736c.321-.063.635-.132.951-.186.628-.107,1.255-.221,1.886-.3.837-.111,1.672-.231,2.513-.318.775-.079,1.553-.125,2.327-.218.33-.04.666-.029,1-.047.489-.025.98-.04,1.469-.064,1.577-.078,3.154-.025,4.731-.03.825,0,1.652.042,2.476.1.607.04,1.215.107,1.821.16.577.051,1.153.113,1.73.162.553.047,1.1.165,1.65.22.66.065,1.307.2,1.959.3.333.053.669.106,1,.179.072.016.158.028.16.108,0,.1-.092.068-.156.078-.622.1-1.242.207-1.865.3a11.228,11.228,0,0,1-1.529.2,7.439,7.439,0,0,0-.789.137c-.477.058-.955.1-1.429.178a6.522,6.522,0,0,1-.83.073c-.444.014-.88.085-1.321.109-2.623.144-5.248.113-7.873.083a19.465,19.465,0,0,1-2.526-.162,7.572,7.572,0,0,0-1-.067,5.547,5.547,0,0,1-.756-.083c-.283-.042-.569-.068-.854-.1-.839-.093-1.674-.219-2.51-.343-.7-.1-1.4-.231-2.1-.362a.15.15,0,0,1-.14-.094" transform="translate(-48 -103.544)" fill="#d69b39"/>
        <path id="Trazado_820139" data-name="Trazado 820139" d="M10.76,129.2c-.476,0-.952,0-1.428,0a.787.787,0,0,1-.875-.736.845.845,0,0,1,.874-.862c.8,0,1.592,0,2.388,0,.2,0,.391.014.585,0,.163-.012.192.054.188.2q-.016.608,0,1.217c0,.144-.039.186-.183.184-.515-.008-1.03,0-1.545,0h0" transform="translate(-6.864 -103.577)" fill="#a5a5a5"/>
        <path id="Trazado_820140" data-name="Trazado 820140" d="M227.035,129.2c-.508,0-1.015,0-1.522,0-.133,0-.2-.02-.194-.177q.013-.62-.007-1.24c0-.145.033-.184.179-.184,1,0,2,0,3,0a.758.758,0,0,1,.752.462.828.828,0,0,1-.073.842.751.751,0,0,1-.633.295c-.5,0-1,0-1.5,0v0" transform="translate(-182.896 -103.582)" fill="#a5a5a5"/>
        <path id="Trazado_820141" data-name="Trazado 820141" d="M175.965,94.515a.766.766,0,0,1-.782.794.837.837,0,0,1-.771-.807.753.753,0,0,1,.809-.78.729.729,0,0,1,.744.793" transform="translate(-141.579 -76.079)" fill="#f8f9fb"/>
        <path id="Trazado_820142" data-name="Trazado 820142" d="M216.311,162.13a.109.109,0,0,1,.089-.14c.091.124-.039.107-.089.14" transform="translate(-175.586 -131.495)" fill="#5e8bc1"/>
        <path id="Trazado_820143" data-name="Trazado 820143" d="M216.335,179.088c-.03-.082.005-.13.083-.155.087.113-.02.122-.083.155" transform="translate(-175.601 -145.248)" fill="#5e8bc1"/>
        <path id="Trazado_820144" data-name="Trazado 820144" d="M216.436,136.111l-.089,0c.029-.036.057-.082.089,0" transform="translate(-175.619 -110.453)" fill="#5e8bc1"/>
        <path id="Trazado_820145" data-name="Trazado 820145" d="M216.812,172.32a.037.037,0,0,1-.008-.038.167.167,0,0,1,.019.024s-.007.009-.011.014" transform="translate(-175.988 -139.849)" fill="#5e8bc1"/>
        <path id="Trazado_820146" data-name="Trazado 820146" d="M74.982,25.915A15.889,15.889,0,0,1,72.87,25.8c-.855-.082-1.706-.224-2.557-.351-.83-.123-1.652-.281-2.472-.448-.631-.129-1.266-.252-1.89-.426-.682-.19-1.38-.323-2.065-.5-.659-.172-1.312-.37-1.966-.561-.675-.2-1.352-.39-2.022-.6-.827-.264-1.649-.543-2.47-.825a60.306,60.306,0,0,1-6.007-2.421,27.37,27.37,0,0,1-4.186-2.344,6.155,6.155,0,0,1-1.176-1c-.413-.484-.345-.656.267-.836a8.724,8.724,0,0,1,1.346-.174,4.181,4.181,0,0,1,.511-.037,28.342,28.342,0,0,1,2.85.165c.567.052,1.132.115,1.694.195.628.089,1.253.2,1.877.313s1.251.224,1.873.351c.472.1.938.224,1.409.321.357.073.7.19,1.062.254a10.166,10.166,0,0,1,1.2.332,1.163,1.163,0,0,0,.2.029.811.811,0,0,1,.6.381,3.167,3.167,0,0,0,.947.842,2.438,2.438,0,0,0,.753.27,2.9,2.9,0,0,0,1.818-.123.651.651,0,0,1,.476,0,64.337,64.337,0,0,1,8.006,3.184,23.275,23.275,0,0,1,4.086,2.45,3.827,3.827,0,0,1,.859.859c.178.264.138.4-.15.533a2.8,2.8,0,0,1-.879.213,10.414,10.414,0,0,1-1.819.085l-.069,0" transform="translate(-37.177 -12.394)" fill="#86b9e3"/>
        <path id="Trazado_820147" data-name="Trazado 820147" d="M132.366,11.873a1.581,1.581,0,0,1-.188-3.152c1.152.014,1.815.6,1.8,1.6a1.553,1.553,0,0,1-1.617,1.552" transform="translate(-106.16 -7.079)" fill="#5e8bc1"/>
        <path id="Trazado_820148" data-name="Trazado 820148" d="M200.822,71.822l.069,0a.044.044,0,0,1-.069,0" transform="translate(-163.017 -58.301)" fill="#5e8bc1"/>
        <path id="Trazado_820149" data-name="Trazado 820149" d="M81.414,69.659a.93.93,0,0,1-.9-.738.964.964,0,0,1,.754-.855.819.819,0,0,1,.886.781.752.752,0,0,1-.743.812" transform="translate(-65.36 -55.252)" fill="#f8f9fb"/>
        <path id="Trazado_820150" data-name="Trazado 820150" d="M124.107,81.013a.708.708,0,0,1,.769.755.726.726,0,0,1-.754.8.827.827,0,0,1-.8-.793.751.751,0,0,1,.784-.763" transform="translate(-100.107 -65.762)" fill="#f8f9fb"/>
        <path id="Trazado_820151" data-name="Trazado 820151" d="M161.5,190.386c-.018-.325-.032-.651-.057-.975-.01-.129.022-.167.16-.178.808-.066,1.618-.109,2.421-.228a1.988,1.988,0,0,0,.414-.03.126.126,0,0,1,.157.122c.044.4.1.808.142,1.212.014.134.011.231-.19.256-.589.072-1.18.119-1.771.172-.322.029-.643.069-.966.085s-.317.006-.309-.32c0-.039,0-.078,0-.117" transform="translate(-131.052 -153.395)"/>
        <path id="Trazado_820152" data-name="Trazado 820152" d="M115.849,174.151c.351,0,.7,0,1.053,0,.123,0,.173.041.17.177-.01.4-.005.8,0,1.195,0,.163-.07.248-.239.239-.67-.038-1.341-.05-2.012-.047-.127,0-.21-.049-.189-.2a7.991,7.991,0,0,0,.045-1.28c0-.151.1-.134.191-.135.328,0,.656,0,.984,0v.049" transform="translate(-93.047 -141.326)"/>
        <path id="Trazado_820153" data-name="Trazado 820153" d="M145.029,173.878c.5-.054,1.014,0,1.511-.064.306-.037.32.023.337.29.023.368.068.736.084,1.106,0,.109-.012.168-.147.174-.665.03-1.329.1-2,.089-.287,0-.273,0-.268-.3.006-.351-.008-.7-.037-1.052-.017-.214.055-.282.259-.249a1.652,1.652,0,0,0,.257,0" transform="translate(-117.305 -141.085)"/>
      </g>
    </g>
  </g>
</svg>
