<svg xmlns="http://www.w3.org/2000/svg" xmlns:xlink="http://www.w3.org/1999/xlink" width="57" height="57" viewBox="0 0 57 57">
  <defs>
    <clipPath id="clip-path">
      <rect id="Rect치ngulo_377523" data-name="Rect치ngulo 377523" width="57" height="57" transform="translate(206 1853.811)" fill="#fff" stroke="#707070" stroke-width="1"/>
    </clipPath>
    <clipPath id="clip-path-2">
      <rect id="Rect치ngulo_377514" data-name="Rect치ngulo 377514" width="51.329" height="51.361" fill="none"/>
    </clipPath>
  </defs>
  <g id="Enmascarar_grupo_331" data-name="Enmascarar grupo 331" transform="translate(-206 -1853.811)" clip-path="url(#clip-path)">
    <g id="Grupo_1073258" data-name="Grupo 1073258" transform="translate(209 1856.81)">
      <g id="Grupo_1073257" data-name="Grupo 1073257" clip-path="url(#clip-path-2)">
        <path id="Trazado_820082" data-name="Trazado 820082" d="M69.833,51.318q-5.185,0-10.37.006c-.238,0-.312-.038-.311-.3.012-2.258.005-4.516.011-6.775a.322.322,0,0,0-.195-.34,5.859,5.859,0,0,1-2.586-2.821,5.635,5.635,0,0,1-.536-2.481c.01-1.948-.012-3.9.012-5.843a4.6,4.6,0,0,1,.49-1.916A6.149,6.149,0,0,1,58.555,28.3c.257-.17.5-.357.76-.526.106-.07.139-.14.086-.256a2.927,2.927,0,0,1,1.652-3.878,4.729,4.729,0,0,0,.732-.3.273.273,0,0,0,.112-.425,8.572,8.572,0,0,1-.959-2.525,1.625,1.625,0,0,1-.013-.2c-.018-.161-.01-.318-.267-.33a3.387,3.387,0,0,1-3.151-3.453,2.627,2.627,0,0,1,.108-.618.367.367,0,0,0-.05-.33c-.477-.825-1.014-1.616-1.449-2.465A2.876,2.876,0,0,1,55.9,11.15a3.214,3.214,0,0,1,1.228-2.021A3.071,3.071,0,0,1,58.3,8.584a5.954,5.954,0,0,0,1.194-.478.818.818,0,0,0,.284-1.14,3.544,3.544,0,0,1-.581-1.347,3,3,0,0,1,.155-1.584A3.078,3.078,0,0,1,60.687,2.5a3.6,3.6,0,0,1,1.1-.356c.986-.2,1.972-.4,2.964-.569.723-.124,1.438-.292,2.16-.407.907-.144,1.8-.34,2.709-.485.939-.15,1.873-.335,2.8-.549a2.842,2.842,0,0,1,1.676,0,2.251,2.251,0,0,1,1.5,1.636,6.188,6.188,0,0,1,.109,1.344.743.743,0,0,0,.739.736,7.17,7.17,0,0,0,1.226-.18c.654-.077,1.3-.223,1.95-.3a4.247,4.247,0,0,1,2.124.273,3.485,3.485,0,0,1,1.725,1.522,3.661,3.661,0,0,1,.506,1.987,5.733,5.733,0,0,1-.41,1.675c-.463,1.359-.923,2.719-1.36,4.086-.165.517-.353,1.027-.507,1.548a.3.3,0,0,0,.045.3,3.083,3.083,0,0,1,.577,1.814,3.034,3.034,0,0,1-.755,2.06,3.491,3.491,0,0,1-2.419,1.244c-.165.012-.216.075-.235.23a7.016,7.016,0,0,1-.556,2,8.333,8.333,0,0,1-.469.856.221.221,0,0,0,.084.345,2.166,2.166,0,0,0,.536.247,2.977,2.977,0,0,1,1.847,1.583,2.771,2.771,0,0,1,.131,2.246.324.324,0,0,0,.145.471,11.214,11.214,0,0,1,1.519,1.137,5.505,5.505,0,0,1,1.418,2.076,6.942,6.942,0,0,1,.417,2.457c-.006,1.586.012,3.172-.007,4.758a6.481,6.481,0,0,1-.557,2.891,6.341,6.341,0,0,1-2.294,2.587,2.053,2.053,0,0,1-.353.193c-.138.054-.1.159-.1.254q0,1.784,0,3.568,0,1.577,0,3.155c0,.3-.1.4-.4.4H69.833M77.368,11.6c.485,0,.97.005,1.454,0,.161,0,.207.046.2.2-.01.388.019.777-.011,1.163-.022.28.1.339.336.344a1.833,1.833,0,0,1,.752.161c.164.078.2.008.246-.132.147-.486.3-.97.456-1.452.468-1.446,1-2.873,1.406-4.338A1.952,1.952,0,0,0,82,5.922,2.046,2.046,0,0,0,79.949,5c-.812.079-1.616.248-2.423.378a4.057,4.057,0,0,1-1.43.083,2.527,2.527,0,0,1-1.71-1.235A1.677,1.677,0,0,1,74.21,3.9a5.116,5.116,0,0,1-.161-1.469.717.717,0,0,0-.736-.713,15.92,15.92,0,0,0-2.06.338c-1.252.2-2.493.466-3.739.7-.932.175-1.865.342-2.8.517-.9.169-1.806.353-2.712.514a1.379,1.379,0,0,0-.937,2.18,2.535,2.535,0,0,1,.426,1.672A2.3,2.3,0,0,1,60,9.681c-.474.2-.981.324-1.457.52a1.677,1.677,0,0,0-.769,2.48c.226.386.462.767.69,1.152.163.275.163.272.421.091a2.789,2.789,0,0,1,1.716-.618c.15.005.216-.048.23-.2a6.251,6.251,0,0,1,.118-.947,4.912,4.912,0,0,1,3.091-3.548,4.528,4.528,0,0,1,2.233-.278,5.264,5.264,0,0,1,1.358.36,3.939,3.939,0,0,1,1.128.653c.6.524,1.164,1.1,1.723,1.674a5.335,5.335,0,0,0,.722.689.255.255,0,0,1-.091.34c-.24.209-.455.446-.681.671-.283.283-.278.278-.548.006-.632-.635-1.254-1.282-1.911-1.891a2.753,2.753,0,0,0-1.278-.729,4.5,4.5,0,0,0-1.372-.11,3.071,3.071,0,0,0-2.326,1.433,3.576,3.576,0,0,0-.531,2.021c.032.791,0,1.585.01,2.378.024,1.349-.083,2.7.06,4.047a3.752,3.752,0,0,0,.427,1.5c.054.094.094.165.2.039a3.794,3.794,0,0,1,.94-.759,4.822,4.822,0,0,1,3.74-.627c.417.1.8.287,1.251.369v-.264c0-.56.007-1.12,0-1.68,0-.171.027-.241.219-.233.4.016.81.014,1.215,0,.176-.006.235.034.23.222-.014.56-.005,1.12,0,1.68,0,.291,0,.3.285.184a5.087,5.087,0,0,1,5.636,1.085c.1.1.178.117.22-.027.058-.2.153-.391.211-.59a7.053,7.053,0,0,0,.271-1.981q0-3.593,0-7.186m-16.554,33v.233c0,1.517.007,3.034-.006,4.551,0,.246.075.287.3.287q8.806-.009,17.612,0a.992.992,0,0,1,.129,0c.131.017.178-.027.177-.168q-.007-2.34,0-4.68c0-.14-.048-.168-.178-.174a5.659,5.659,0,0,0-.612.055,5.7,5.7,0,0,1-2.8-.572A6.035,6.035,0,0,1,72.691,41.6,18.035,18.035,0,0,1,71.6,38.54c-.187-.532-.3-1.1-.465-1.645-.182-.62-.383-1.236-.566-1.855-.2-.666-.377-1.341-.556-2.014-.016-.062-.006-.161-.094-.161s-.086.1-.106.174c-.088.325-.183.648-.279.971-.267.9-.538,1.8-.8,2.7-.4,1.335-.731,2.691-1.194,4A6.027,6.027,0,0,1,60.814,44.6M74.057,28.076c-.04-.5.015-1.115-.041-1.734a1.613,1.613,0,0,0-2.278-1.356,1.483,1.483,0,0,0-.989,1.485,20.7,20.7,0,0,0,.087,2.1c.054.68.166,1.349.28,2.017a25.3,25.3,0,0,0,.905,3.438c.159.5.314.994.457,1.491.153.534.3,1.071.451,1.607s.291,1.078.461,1.609a13.8,13.8,0,0,0,.564,1.725,4.383,4.383,0,0,0,8.374-1.751c.022-.7,0-1.4.009-2.094,0-.164-.046-.2-.2-.2q-1.409.011-2.818,0c-.184,0-.221.024-.125.208.426.814.832,1.639,1.254,2.456.1.2.117.313-.13.412a6.713,6.713,0,0,0-.944.468c-.22.131-.3.064-.4-.139q-2.262-4.553-4.535-9.1a2.415,2.415,0,0,1-.384-1.29c.033-.411.007-.827.007-1.357M65.78,28.04c0,.293.008.586,0,.879a4.586,4.586,0,0,1-.037,1,7.731,7.731,0,0,1-.663,1.448c-.946,1.926-1.915,3.841-2.871,5.762q-.414.831-.814,1.67c-.172.358-.39.7-.544,1.068-.088.212-.18.2-.344.121-.367-.188-.734-.377-1.108-.552-.141-.066-.134-.114-.066-.245.438-.847.862-1.7,1.292-2.554.075-.149.055-.223-.131-.216-.216.008-.432,0-.648,0-.715,0-1.431.006-2.147,0-.164,0-.2.046-.2.2.009.793-.012,1.587.015,2.379a3.006,3.006,0,0,0,.174.992A4.318,4.318,0,0,0,61.426,43a4.042,4.042,0,0,0,2.194-.329,4.318,4.318,0,0,0,2.429-2.691c.173-.54.323-1.087.5-1.626.169-.522.307-1.054.467-1.58.232-.761.423-1.533.643-2.3.177-.616.394-1.222.554-1.843a19.049,19.049,0,0,0,.532-2.383,11.058,11.058,0,0,0,.2-1.5,4.385,4.385,0,0,1,.051-.6,7.631,7.631,0,0,0,.038-1.881,1.388,1.388,0,0,0-.33-.831,1.878,1.878,0,0,0-1.336-.565,1.611,1.611,0,0,0-1.59,1.618c.018.517,0,1.034,0,1.552m-1.657-.153c0-.422.009-.845,0-1.267a3.051,3.051,0,0,1,.077-.839,3.311,3.311,0,0,1,5.521-1.645c.178.172.248.159.409-.006a3.121,3.121,0,0,1,2.712-.9,3.369,3.369,0,0,1,1.381.539,3,3,0,0,1,1.247,1.514,4.2,4.2,0,0,1,.24,1.5c.02.922.012,1.845,0,2.767a.474.474,0,0,0,.209.438c.156.088.214-.123.313-.2a1.767,1.767,0,0,0,.127-.128c.748-.751,1.5-1.5,2.244-2.253a1.389,1.389,0,0,0,.329-1.383,1.351,1.351,0,0,0-1.06-.967,2.577,2.577,0,0,1-1.617-1.418,4.212,4.212,0,0,0-.446-.754A3.163,3.163,0,0,0,74.1,21.691a3.455,3.455,0,0,0-1.363-.147,9.563,9.563,0,0,0-1.73.486,2.965,2.965,0,0,1-1.827.118c-.313-.095-.629-.185-.936-.3a3.985,3.985,0,0,0-2.2-.261,3.455,3.455,0,0,0-2.468,1.978A2.673,2.673,0,0,1,62.1,24.976a6.207,6.207,0,0,0-.588.256,1.207,1.207,0,0,0-.639.735,1.487,1.487,0,0,0,.492,1.583c.759.728,1.488,1.486,2.233,2.228.086.086.129.268.285.221s.181-.237.228-.38a.682.682,0,0,0,.01-.205q0-.763,0-1.526m16.192,6.88c.6,0,1.206-.007,1.809,0,.172,0,.22-.049.211-.215-.032-.591,0-1.181-.043-1.775a4,4,0,0,0-.717-1.986,7.766,7.766,0,0,0-2.087-1.782c-.108-.077-.171,0-.245.058-.277.23-.507.506-.76.759a10.232,10.232,0,0,1-1.02.969,4.232,4.232,0,0,0-.589.632.3.3,0,0,0-.073.383q.687,1.371,1.362,2.748a.334.334,0,0,0,.344.209c.6-.008,1.206,0,1.809,0m-20.791,0c.611,0,1.223,0,1.834,0a.3.3,0,0,0,.314-.2q.674-1.377,1.368-2.744a.268.268,0,0,0-.067-.36q-1.2-1.192-2.389-2.4a.181.181,0,0,0-.281-.024c-.442.306-.889.606-1.3.949a4.071,4.071,0,0,0-1.485,2.76c-.07.612-.007,1.238-.016,1.858,0,.159.079.155.191.155.611,0,1.223,0,1.834,0m1.289-18.195V15.514c0-.658,0-.658-.64-.495a.523.523,0,0,0-.162.056,1.709,1.709,0,0,0-.856,1.587,1.674,1.674,0,0,0,1.4,1.554c.181.03.279.012.269-.222-.021-.473-.006-.947-.006-1.421m19.812,0a1.835,1.835,0,0,0-.033-.486,1.593,1.593,0,0,0-1.3-1.141c-.292-.055-.276.038-.279.245-.015.9.042,1.8-.029,2.7-.023.289.07.366.286.327a1.581,1.581,0,0,0,1.35-1.643" transform="translate(-44.25 0)"/>
        <path id="Trazado_820083" data-name="Trazado 820083" d="M189.356,61.677c-.186-.168-.291-.411-.53-.535-.128-.066-.123-.147.009-.27.209-.2.4-.413.606-.618,1.151-1.153,2.308-2.3,3.447-3.464a3.243,3.243,0,0,1,1.725-.985,2.523,2.523,0,0,1,.913.073,2.544,2.544,0,0,1,1.4,4.16c-.314.357-.7.646-.986,1.027a.8.8,0,0,0-.082.92.768.768,0,0,0,.74.44c.5-.009,1-.018,1.5,0a3.539,3.539,0,0,1,1.294.212,2.394,2.394,0,0,1,1.289,1.337,2.309,2.309,0,0,1-.461,2.573,2.484,2.484,0,0,1-1.734.8c-.852.064-1.7.019-2.551.038-.578.013-.809.122-.968.568a.92.92,0,0,0,.33,1q1.581,1.58,3.158,3.162a2.4,2.4,0,0,1,.762,1.831,2.52,2.52,0,0,1-2.016,2.476,2.381,2.381,0,0,1-2.363-.683q-2.1-2.088-4.188-4.185c-.594-.6-1.181-1.2-1.786-1.783-.15-.145-.119-.2.015-.326a2.068,2.068,0,0,0,.468-.5c.11-.023.169-.116.243-.184.286-.266.284-.268.562,0l.019.018,4.3,4.292c.494.493.989.984,1.482,1.478a.942.942,0,0,0,1.591-.424.968.968,0,0,0-.292-.934q-.474-.476-.95-.951c-.736-.739-1.476-1.474-2.207-2.217a2.349,2.349,0,0,1-.766-2.168,2.419,2.419,0,0,1,1.8-2.025,3.038,3.038,0,0,1,.831-.1c.819-.008,1.638,0,2.456,0a.773.773,0,0,0,.8-.784.818.818,0,0,0-.694-.82,11.5,11.5,0,0,0-1.747-.046,3.277,3.277,0,0,1-.81-.1,2.449,2.449,0,0,1-1.783-1.821,2.316,2.316,0,0,1,.693-2.331c.265-.269.551-.521.792-.81a.93.93,0,0,0-.545-1.545.973.973,0,0,0-.9.338q-.939.943-1.882,1.884c-.755.756-1.515,1.508-2.263,2.271-.167.17-.285.182-.435-.006a3.094,3.094,0,0,0-.3-.285" transform="translate(-149.559 -44.206)"/>
        <path id="Trazado_820084" data-name="Trazado 820084" d="M11.543,69.1c.161.167.318.337.483.5.091.089.1.148,0,.249-1.967,2.028-3.977,4.013-5.982,6a2.456,2.456,0,0,1-2.118.733A2.5,2.5,0,0,1,1.83,74.9a2.362,2.362,0,0,1,.544-2.632C3.442,71.161,4.548,70.09,5.63,69a.858.858,0,0,0,.294-.889.736.736,0,0,0-.788-.611q-1.267-.017-2.534,0A2.478,2.478,0,0,1,.221,65.97a2.455,2.455,0,0,1,1.4-3.281,3.4,3.4,0,0,1,1.252-.161l1.371,0a.773.773,0,0,0,.8-.459.865.865,0,0,0-.163-.987c-.264-.271-.551-.521-.815-.793A2.558,2.558,0,0,1,5.39,55.965a2.586,2.586,0,0,1,2.554.935c.359.419.761.8,1.151,1.184q1.431,1.425,2.875,2.837c.167.162.16.262,0,.411-.19.172-.356.369-.532.555a1.789,1.789,0,0,0-.207.184c-.138.164-.238.19-.411.011-.634-.658-1.285-1.3-1.937-1.939-.49-.482-.968-.975-1.473-1.443-.306-.284-.566-.62-.879-.9a.883.883,0,0,0-.809-.219.93.93,0,0,0-.462,1.585c.271.289.567.555.834.847a2.389,2.389,0,0,1,.492,2.59A2.412,2.412,0,0,1,4.289,64.18c-.612.015-1.224-.007-1.836.01a.823.823,0,0,0,.032,1.645q.931.007,1.862,0a5.878,5.878,0,0,1,1.4.1A2.453,2.453,0,0,1,7.53,68.85a2.659,2.659,0,0,1-.813,1.372l-3,2.995a1.125,1.125,0,0,0-.388.647.928.928,0,0,0,.477.973.964.964,0,0,0,1.124-.166c.479-.459.944-.933,1.412-1.4q2.225-2.234,4.447-4.47c.228-.229.23-.226.459.019.093.1.2.189.3.283" transform="translate(0 -44.311)"/>
        <path id="Trazado_820085" data-name="Trazado 820085" d="M17.909,75.36c-.1-.094-.2-.183-.3-.283-.229-.245-.231-.248-.459-.019q-2.224,2.235-4.447,4.47c-.468.47-.933.944-1.412,1.4a.964.964,0,0,1-1.124.166.928.928,0,0,1-.477-.973,1.125,1.125,0,0,1,.388-.647l3-2.995a2.659,2.659,0,0,0,.813-1.372A2.453,2.453,0,0,0,12.114,72.2a5.878,5.878,0,0,0-1.4-.1q-.931,0-1.862,0a.823.823,0,0,1-.032-1.645c.611-.017,1.224,0,1.836-.01a2.48,2.48,0,0,0,1.8-4.167c-.267-.293-.562-.559-.834-.847a.93.93,0,0,1,.462-1.585.883.883,0,0,1,.809.219c.313.281.573.617.879.9.5.468.983.961,1.473,1.443.652.64,1.3,1.281,1.937,1.939.173.179.274.154.411-.011a1.789,1.789,0,0,1,.207-.184c.18.01.164.144.164.264q0,.879,0,1.758,0,2.379,0,4.757a1.344,1.344,0,0,1-.056.432" transform="translate(-6.366 -50.572)" fill="#91d4f1"/>
        <path id="Trazado_820086" data-name="Trazado 820086" d="M191.457,68.07a3.1,3.1,0,0,1,.3.285c.15.188.268.176.435.006.748-.763,1.507-1.515,2.263-2.271q.941-.942,1.882-1.884a.973.973,0,0,1,.9-.338.93.93,0,0,1,.545,1.545c-.241.29-.526.542-.792.81a2.316,2.316,0,0,0-.693,2.331,2.449,2.449,0,0,0,1.783,1.821,3.277,3.277,0,0,0,.81.1,11.5,11.5,0,0,1,1.747.046.818.818,0,0,1,.694.82.773.773,0,0,1-.8.784c-.819.006-1.638,0-2.456,0a3.038,3.038,0,0,0-.831.1,2.419,2.419,0,0,0-1.8,2.025,2.349,2.349,0,0,0,.766,2.168c.732.743,1.471,1.478,2.207,2.217q.475.476.95.951a.968.968,0,0,1,.292.934.942.942,0,0,1-1.591.424c-.493-.494-.988-.985-1.482-1.478l-4.3-4.292-.019-.018c-.277-.269-.276-.267-.562,0-.074.069-.133.161-.243.184a2.131,2.131,0,0,1-.058-.828q.006-3.033,0-6.065a.728.728,0,0,1,.059-.377" transform="translate(-151.66 -50.598)" fill="#91d4f1"/>
        <path id="Trazado_820087" data-name="Trazado 820087" d="M198.056,202.128c0,.241-.005.483,0,.724,0,.112-.029.148-.144.146-.457-.006-.914-.009-1.37,0-.144,0-.145-.065-.145-.171,0-.465,0-.931.005-1.4,0-.133-.034-.182-.164-.222a4.6,4.6,0,0,1-1.116-.484.224.224,0,0,0-.331.053c-.327.343-.671.67-1,1.014-.105.112-.151.1-.255,0-.311-.317-.634-.623-.962-.922-.081-.074-.074-.131-.015-.188q.539-.528,1.087-1.048c.092-.087.152-.148.066-.293a5.418,5.418,0,0,1-.5-1.174c-.039-.124-.089-.134-.19-.134-.466,0-.931,0-1.4,0-.133,0-.2-.014-.195-.175.012-.439.01-.879,0-1.318,0-.144.049-.169.176-.167.465.006.931,0,1.4.006.163,0,.213-.05.249-.21a3.331,3.331,0,0,1,.43-1.031.249.249,0,0,0-.04-.374c-.348-.333-.681-.683-1.027-1.02-.078-.076-.128-.1-.014-.209.312-.284.608-.586.9-.89.116-.12.2-.129.317,0,.324.345.66.677.986,1.02.1.1.164.133.3.037a4.04,4.04,0,0,1,1.1-.483c.134-.045.212-.1.2-.277-.021-.447,0-.9-.01-1.344,0-.14.027-.193.18-.19.431.011.862.014,1.293,0,.177-.006.191.065.188.208-.007.457,0,.913,0,1.37,0,.15.029.209.2.25a2.812,2.812,0,0,1,1.11.492c.109.085.188.048.279-.05.321-.347.655-.681.978-1.027.109-.117.2-.144.319-.017q.4.419.82.825c.146.141.12.239-.021.371-.334.312-.649.642-.978.96a.193.193,0,0,0-.029.3,2.738,2.738,0,0,1,.428,1.005c.038.2.114.3.349.29.439-.022.879,0,1.318-.011.165,0,.2.046.2.2-.011.422-.013.845,0,1.267.005.166-.047.2-.2.2-.457-.011-.913,0-1.37-.006-.146,0-.209.022-.251.2a3.319,3.319,0,0,1-.5,1.162c-.058.082-.062.1.015.173.368.35.722.715,1.085,1.072.088.086.121.16.018.259-.317.3-.636.605-.941.92-.1.1-.133.072-.211-.009-.35-.367-.708-.724-1.057-1.091-.073-.077-.122-.091-.214-.031a4.076,4.076,0,0,1-1.186.512.18.18,0,0,0-.16.211c.015.24,0,.482,0,.724m-.847-2.436a2.427,2.427,0,0,0,1.071-.227,2.517,2.517,0,0,0,1.4-1.992,2.475,2.475,0,0,0-1.874-2.671c-.055-.011-.094-.025-.136.017s-.009.086.014.133a3.067,3.067,0,0,1,.276,2.124,3.183,3.183,0,0,1-1.7,2.191c-.056.029-.112.051-.117.121s.072.088.122.11a2.473,2.473,0,0,0,.936.193m-2.471-2.564a2.532,2.532,0,0,0,.045.515c.071.38.117.413.494.3a1.674,1.674,0,0,0,.7-2.7c-.1-.1-.18-.095-.287-.009a2.457,2.457,0,0,0-.957,1.887" transform="translate(-151.697 -151.677)"/>
        <path id="Trazado_820088" data-name="Trazado 820088" d="M4.177,176.174c.022-.233-.124-.62.054-.783.156-.143.539-.046.822-.04.255.006.6-.112.74.048.126.139.037.474.039.723,0,.276.008.552,0,.827a.225.225,0,0,0,.181.26,3.258,3.258,0,0,1,1.8,1.437,2.526,2.526,0,0,1,.251.558.366.366,0,0,0,.388.285c.448-.005.9,0,1.344-.005.15,0,.185.045.182.187-.009.431-.01.862,0,1.292,0,.15-.045.185-.187.182-.474-.009-.948,0-1.422-.005a.22.22,0,0,0-.256.181,3.069,3.069,0,0,1-2.09,2.093.229.229,0,0,0-.19.267c.009.465,0,.931.006,1.4,0,.143-.012.214-.188.208-.43-.015-.862-.012-1.292,0-.153,0-.183-.049-.18-.189.008-.474,0-.948,0-1.422,0-.115-.011-.161-.156-.217a3.306,3.306,0,0,1-2.171-2.22c-.037-.132-.13-.091-.2-.091-.474,0-.948-.007-1.422,0-.139,0-.194-.025-.19-.18.011-.43.014-.862,0-1.292-.006-.175.062-.192.207-.189.474.008.948,0,1.422.006a.207.207,0,0,0,.236-.168,3.123,3.123,0,0,1,1.941-2.05c.238-.1.387-.183.343-.472a4.408,4.408,0,0,1-.005-.625m.789,5.8A1.658,1.658,0,1,0,5,178.658a1.621,1.621,0,0,0-1.66,1.64,1.643,1.643,0,0,0,1.623,1.676" transform="translate(-0.026 -138.925)"/>
        <path id="Trazado_820089" data-name="Trazado 820089" d="M204.373,15.356c0,.25,0,.5,0,.75,0,.156,0,.222-.222.194a8.228,8.228,0,0,0-1.239-.011c-.161,0-.2-.039-.2-.2.012-.448,0-.9,0-1.344,0-.163.016-.277-.207-.372a2.388,2.388,0,0,1-1.216-1.258c-.065-.142-.129-.141-.236-.141-.483,0-.966-.009-1.448,0-.176,0-.212-.053-.208-.215.011-.413.013-.828,0-1.241-.006-.177.054-.211.216-.207.483.01.966,0,1.448.009a.222.222,0,0,0,.252-.177,2.107,2.107,0,0,1,1.255-1.25c.124-.049.147-.1.146-.21,0-.491.007-.983-.006-1.473,0-.175.052-.213.215-.208.413.011.828.013,1.241,0,.176-.006.211.053.208.216-.01.482,0,.965-.007,1.448a.233.233,0,0,0,.167.261,2.2,2.2,0,0,1,1.236,1.265c.045.119.131.128.24.127.5,0,1,0,1.5,0,.13,0,.178.027.175.169-.009.448,0,.9,0,1.344,0,.146-.024.171-.2.162a7.134,7.134,0,0,0-1.614.033c-.056.01-.078.019-.1.082a2.3,2.3,0,0,1-1.275,1.3c-.1.048-.121.08-.119.172,0,.259,0,.517,0,.776m-.826-2.374a.8.8,0,0,0,.831-.824.812.812,0,0,0-.9-.836.831.831,0,0,0,.068,1.66" transform="translate(-158.014 -6.343)"/>
        <path id="Trazado_820090" data-name="Trazado 820090" d="M31.289,5c-.233,0-.465.006-.7,0-.154,0-.21.038-.279.2a2.206,2.206,0,0,1-1.19,1.183.265.265,0,0,0-.191.294c.008.482,0,.965.006,1.447,0,.141-.029.193-.181.189-.43-.011-.862-.014-1.292,0-.176.006-.191-.065-.188-.208.008-.465,0-.93,0-1.4,0-.153-.022-.222-.2-.3a2.408,2.408,0,0,1-1.237-1.295C25.792,5,25.738,5,25.649,5c-.5,0-1-.006-1.5,0-.147,0-.188-.04-.185-.185q.014-.646,0-1.292c0-.146.039-.188.185-.185.482.009.965,0,1.447.008a.263.263,0,0,0,.287-.191,2.138,2.138,0,0,1,1.263-1.242c.111-.045.135-.086.134-.192,0-.491.008-.982-.007-1.473-.006-.188.053-.226.229-.221q.62.021,1.24,0c.167-.006.2.049.195.2-.01.482,0,.965-.006,1.447a.248.248,0,0,0,.177.279,2.226,2.226,0,0,1,1.224,1.246.211.211,0,0,0,.231.144c.5-.008,1,0,1.5-.007.145,0,.189.037.186.184-.01.439-.008.879,0,1.318,0,.123-.031.164-.157.159-.267-.009-.534,0-.8,0m-3.174.007a.792.792,0,0,0,.823-.83.809.809,0,0,0-.9-.828.794.794,0,0,0-.759.846.792.792,0,0,0,.84.813" transform="translate(-18.991 -0.025)"/>
        <path id="Trazado_820091" data-name="Trazado 820091" d="M40.784,239.15c.218.024.569-.116.718.051.129.145.036.489.039.746,0,.215-.008.43,0,.644.008.156-.021.218-.2.221a6.747,6.747,0,0,0-1.2.03.21.21,0,0,1-.268-.251,11.22,11.22,0,0,0,.006-1.262c0-.149.044-.189.187-.182.223.012.447,0,.715,0" transform="translate(-31.598 -189.486)"/>
        <path id="Trazado_820092" data-name="Trazado 820092" d="M56.734,223.2c.218.024.569-.116.718.051.129.145.036.49.039.746,0,.215-.008.43,0,.644.009.156-.021.218-.2.22a6.771,6.771,0,0,0-1.2.03.21.21,0,0,1-.267-.251,11.268,11.268,0,0,0,.006-1.262c0-.15.044-.189.187-.181.223.011.447,0,.715,0" transform="translate(-44.237 -176.85)"/>
        <path id="Trazado_820093" data-name="Trazado 820093" d="M9.672,40.756c0,.207-.007.414,0,.62.006.136-.018.2-.177.193-.439-.011-.879-.011-1.318,0-.146,0-.168-.052-.166-.177.006-.439.009-.879,0-1.318,0-.146.052-.167.178-.166.439.006.879.009,1.318,0,.146,0,.17.052.165.178-.008.224,0,.448,0,.672" transform="translate(-6.35 -31.623)"/>
        <path id="Trazado_820094" data-name="Trazado 820094" d="M37.451,160.226c0,.266.1.625-.028.773-.152.17-.517.045-.789.051s-.624.1-.773-.037c-.17-.153-.045-.517-.051-.789s-.1-.624.037-.773c.153-.17.517-.045.789-.051s.624-.1.773.037c.171.153.032.517.042.789" transform="translate(-28.347 -126.285)"/>
        <path id="Trazado_820095" data-name="Trazado 820095" d="M193.1.848c0,.233-.007.466,0,.7.005.127-.038.159-.16.157q-.672-.01-1.344,0c-.127,0-.159-.038-.157-.16q.01-.672,0-1.344c0-.127.038-.159.16-.157q.672.01,1.344,0c.127,0,.162.038.156.16-.009.215,0,.431,0,.646" transform="translate(-151.703 -0.033)"/>
        <path id="Trazado_820096" data-name="Trazado 820096" d="M224.058,175.375c.263.011.615-.13.765.037.13.145.044.491.037.748-.007.281.122.656-.051.815-.152.139-.523.045-.8.039s-.616.114-.765-.049c-.13-.143-.044-.49-.037-.747.007-.281-.122-.658.051-.814.151-.136.523-.028.8-.028" transform="translate(-176.849 -138.939)"/>
        <path id="Trazado_820097" data-name="Trazado 820097" d="M201.066,160.33c0,.224-.006.448,0,.672.005.129-.024.179-.167.176-.439-.01-.879-.008-1.318,0-.128,0-.179-.024-.176-.167.01-.439.008-.879,0-1.318,0-.128.024-.179.167-.176.439.01.879.008,1.318,0,.128,0,.184.024.176.168-.013.215,0,.43,0,.646" transform="translate(-158.018 -126.406)"/>
        <path id="Trazado_820098" data-name="Trazado 820098" d="M77.544,18.248a5.31,5.31,0,0,1-.722-.689c-.558-.575-1.119-1.149-1.723-1.674a3.934,3.934,0,0,0-1.128-.652,5.258,5.258,0,0,0-1.358-.361,4.528,4.528,0,0,0-2.233.278A4.912,4.912,0,0,0,67.289,18.7a6.244,6.244,0,0,0-.118.947c-.014.154-.08.208-.23.2a2.79,2.79,0,0,0-1.716.618c-.258.181-.258.184-.421-.091-.228-.385-.464-.766-.69-1.152a1.677,1.677,0,0,1,.769-2.48c.477-.2.983-.32,1.457-.52a2.3,2.3,0,0,0,1.5-2.046,2.535,2.535,0,0,0-.426-1.672,1.379,1.379,0,0,1,.937-2.18c.906-.16,1.808-.344,2.712-.514.932-.175,1.866-.342,2.8-.517,1.246-.234,2.488-.5,3.739-.7a15.913,15.913,0,0,1,2.06-.338.717.717,0,0,1,.736.713,5.115,5.115,0,0,0,.161,1.469,1.678,1.678,0,0,0,.176.327A2.527,2.527,0,0,0,82.441,12a4.061,4.061,0,0,0,1.43-.083c.807-.13,1.61-.3,2.423-.378a2.046,2.046,0,0,1,2.053.925,1.952,1.952,0,0,1,.209,1.622c-.41,1.465-.938,2.892-1.406,4.338-.156.483-.31.967-.456,1.453-.042.14-.082.209-.246.132a1.837,1.837,0,0,0-.752-.161c-.232,0-.358-.064-.336-.344.03-.385,0-.775.011-1.163,0-.158-.042-.208-.2-.2-.484.01-.969,0-1.454.005-.232,0-.463-.009-.694,0-.193.008-.395-.052-.576.065a.835.835,0,0,1-.1-.075l-2.881-2.888c-.082-.082-.191-.168-.283-.056-.273.332-.6.607-.9.918-.107.113-.072.18.023.274.5.5,1,1,1.5,1.5a.481.481,0,0,1,.164.226.639.639,0,0,1-.3.035q-.885,0-1.77,0a.394.394,0,0,0-.349.108" transform="translate(-50.594 -6.543)" fill="#a37749"/>
        <path id="Trazado_820099" data-name="Trazado 820099" d="M79.779,170.081A6.026,6.026,0,0,0,86.5,166.2c.463-1.311.8-2.667,1.194-4,.267-.9.537-1.8.8-2.7.1-.323.191-.646.279-.971.02-.073,0-.174.106-.174s.078.1.094.16c.179.673.359,1.347.556,2.014.183.619.383,1.235.565,1.855.161.547.278,1.113.465,1.645a18.008,18.008,0,0,0,1.091,3.059,6.035,6.035,0,0,0,2.747,2.526,5.693,5.693,0,0,0,2.8.571,5.652,5.652,0,0,1,.612-.055c.13.006.178.034.178.174q-.007,2.34,0,4.68c0,.141-.046.186-.177.168a.993.993,0,0,0-.129,0q-8.806,0-17.612,0c-.224,0-.3-.04-.3-.287.013-1.517.007-3.034.007-4.551v-.233" transform="translate(-63.215 -125.484)" fill="#8bd5b2"/>
        <path id="Trazado_820100" data-name="Trazado 820100" d="M96.458,49.8a.394.394,0,0,1,.349-.108q.885,0,1.77,0a.639.639,0,0,0,.3-.035.8.8,0,0,1,.263.2c.357.358.721.71,1.07,1.076.126.132.2.128.324,0a8.383,8.383,0,0,1,.748-.742c.173-.144.19-.263.072-.431.181-.117.383-.057.576-.065.231-.01.463,0,.694,0q0,3.593,0,7.186a7.054,7.054,0,0,1-.271,1.981c-.058.2-.153.388-.211.59-.042.144-.118.125-.22.027a5.086,5.086,0,0,0-5.636-1.085c-.282.113-.285.107-.285-.184,0-.56-.009-1.12,0-1.68,0-.188-.054-.228-.23-.222-.4.013-.81.016-1.215,0-.192-.008-.222.061-.219.233.011.56,0,1.12,0,1.68v.264c-.446-.082-.833-.273-1.251-.369a4.822,4.822,0,0,0-3.741.627,3.788,3.788,0,0,0-.94.759c-.107.126-.147.056-.2-.039a3.755,3.755,0,0,1-.426-1.5c-.143-1.346-.036-2.7-.06-4.047-.014-.792.023-1.586-.01-2.378a3.576,3.576,0,0,1,.531-2.021,3.071,3.071,0,0,1,2.326-1.433,4.5,4.5,0,0,1,1.372.11,2.753,2.753,0,0,1,1.278.729c.657.609,1.279,1.256,1.911,1.891.27.271.265.276.548-.006.225-.225.441-.463.681-.671a.255.255,0,0,0,.091-.34m2.683,4.03c.451-.306.872-.6,1.3-.877.094-.062.15-.106.071-.218-.254-.357-.512-.713-.752-1.079-.078-.12-.126-.12-.237-.048-.446.291-.868.616-1.337.875a11.93,11.93,0,0,0-1.288.86,3.921,3.921,0,0,0-.677.493c1.105.744,2.2,1.478,3.288,2.214.115.078.188.072.271-.056.237-.363.487-.718.737-1.072.053-.075.044-.123-.023-.171-.09-.066-.18-.133-.273-.2-.355-.24-.711-.478-1.079-.725m-4.98,0c-.52-.344-1.01-.672-1.5-.994-.565-.368-1.135-.728-1.7-1.1-.292-.192-.291-.2-.486.084a9.647,9.647,0,0,1-.552.809c-.173.2-.086.279.084.387.363.23.713.48,1.079.705.154.1.128.133,0,.216-.385.242-.763.5-1.145.745-.092.06-.177.107-.087.238.232.339.467.677.682,1.027.108.176.195.189.364.074,1.073-.729,2.153-1.448,3.268-2.195" transform="translate(-69.508 -38.095)" fill="#e6ceb3"/>
        <path id="Trazado_820101" data-name="Trazado 820101" d="M130.964,123.017c0,.531.026.946-.007,1.357a2.413,2.413,0,0,0,.385,1.29q2.265,4.551,4.534,9.1c.1.2.183.27.4.139a6.681,6.681,0,0,1,.944-.468c.246-.1.231-.216.13-.412-.422-.817-.828-1.641-1.254-2.456-.1-.184-.059-.209.125-.208q1.409.008,2.818,0c.155,0,.2.033.2.2-.01.7.013,1.4-.009,2.094a4.383,4.383,0,0,1-8.374,1.751,13.763,13.763,0,0,1-.564-1.725c-.17-.531-.309-1.072-.461-1.609s-.3-1.074-.451-1.607c-.142-.5-.3-1-.457-1.491a25.275,25.275,0,0,1-.905-3.438c-.114-.668-.227-1.337-.28-2.017a20.634,20.634,0,0,1-.087-2.1,1.483,1.483,0,0,1,.989-1.486,1.613,1.613,0,0,1,2.278,1.356c.055.619,0,1.235.041,1.734" transform="translate(-101.157 -94.941)" fill="#e6ceb3"/>
        <path id="Trazado_820102" data-name="Trazado 820102" d="M72.117,122.982c0-.517.015-1.035,0-1.552a1.611,1.611,0,0,1,1.59-1.618,1.879,1.879,0,0,1,1.336.565,1.39,1.39,0,0,1,.33.831,7.629,7.629,0,0,1-.038,1.881,4.388,4.388,0,0,0-.051.6,11.086,11.086,0,0,1-.2,1.5,19.059,19.059,0,0,1-.532,2.384c-.16.621-.376,1.227-.554,1.843-.22.764-.412,1.537-.643,2.3-.16.526-.3,1.058-.467,1.58-.175.539-.325,1.086-.5,1.626a4.318,4.318,0,0,1-2.429,2.691,4.042,4.042,0,0,1-2.194.329,4.317,4.317,0,0,1-3.738-3.013,3.009,3.009,0,0,1-.174-.992c-.027-.792-.006-1.586-.015-2.379,0-.156.033-.2.2-.2.715.01,1.431,0,2.147,0,.216,0,.433.006.648,0,.187-.007.207.066.132.216-.43.852-.853,1.707-1.292,2.554-.068.131-.074.179.067.245.374.175.741.364,1.108.552.163.084.255.091.344-.121.153-.368.372-.71.544-1.068q.4-.837.814-1.67c.956-1.921,1.926-3.836,2.871-5.762a7.742,7.742,0,0,0,.663-1.448,4.588,4.588,0,0,0,.037-1c.011-.293,0-.586,0-.879" transform="translate(-50.587 -94.942)" fill="#e6ceb3"/>
        <path id="Trazado_820103" data-name="Trazado 820103" d="M83.1,110.065q0,.763,0,1.526a.682.682,0,0,1-.01.205c-.047.144-.063.331-.228.38s-.2-.136-.285-.221c-.745-.742-1.474-1.5-2.233-2.228a1.487,1.487,0,0,1-.492-1.583,1.207,1.207,0,0,1,.639-.735,6.23,6.23,0,0,1,.588-.256,2.673,2.673,0,0,0,1.475-1.409,3.455,3.455,0,0,1,2.468-1.978,3.985,3.985,0,0,1,2.2.261c.307.112.622.2.936.3a2.965,2.965,0,0,0,1.827-.118,9.568,9.568,0,0,1,1.73-.486,3.455,3.455,0,0,1,1.363.147,3.163,3.163,0,0,1,1.711,1.187,4.2,4.2,0,0,1,.446.754,2.577,2.577,0,0,0,1.617,1.418,1.352,1.352,0,0,1,1.06.967,1.389,1.389,0,0,1-.329,1.383c-.745.754-1.5,1.5-2.244,2.253a1.727,1.727,0,0,1-.127.128c-.1.081-.157.292-.313.2a.475.475,0,0,1-.209-.438c.008-.922.016-1.845,0-2.767a4.2,4.2,0,0,0-.24-1.5,3,3,0,0,0-1.247-1.514,3.371,3.371,0,0,0-1.381-.539,3.121,3.121,0,0,0-2.712.9c-.161.165-.231.178-.409.006a3.311,3.311,0,0,0-5.521,1.645,3.051,3.051,0,0,0-.077.839c.012.422,0,.845,0,1.267" transform="translate(-63.223 -82.177)" fill="#fff"/>
        <path id="Trazado_820104" data-name="Trazado 820104" d="M160.182,145.415c-.6,0-1.206,0-1.809,0a.334.334,0,0,1-.344-.209q-.676-1.376-1.363-2.748a.3.3,0,0,1,.073-.383,4.252,4.252,0,0,1,.589-.632,10.233,10.233,0,0,0,1.021-.969c.253-.252.483-.529.76-.759.074-.061.137-.135.245-.058a7.764,7.764,0,0,1,2.087,1.782,4,4,0,0,1,.717,1.986c.048.593.011,1.184.043,1.775.009.167-.038.219-.211.215-.6-.011-1.206,0-1.809,0" transform="translate(-124.116 -110.647)" fill="#8bd5b2"/>
        <path id="Trazado_820105" data-name="Trazado 820105" d="M65.8,145.454c-.611,0-1.223,0-1.834,0-.112,0-.193,0-.191-.155.009-.62-.054-1.246.016-1.858a4.072,4.072,0,0,1,1.485-2.76c.414-.342.861-.643,1.3-.949a.181.181,0,0,1,.281.024q1.188,1.2,2.389,2.4a.267.267,0,0,1,.067.36q-.692,1.368-1.368,2.744a.3.3,0,0,1-.314.2c-.611-.007-1.223,0-1.834,0" transform="translate(-50.522 -110.686)" fill="#8bd5b2"/>
        <path id="Trazado_820106" data-name="Trazado 820106" d="M73.464,73.57c0,.474-.015.948.006,1.421.01.234-.088.252-.269.222a1.674,1.674,0,0,1-1.4-1.554,1.709,1.709,0,0,1,.856-1.587.524.524,0,0,1,.162-.056c.639-.163.64-.163.639.495q0,.53,0,1.059" transform="translate(-56.899 -56.997)" fill="#e6ceb3"/>
        <path id="Trazado_820107" data-name="Trazado 820107" d="M169,73.561a1.581,1.581,0,0,1-1.35,1.643c-.216.039-.309-.038-.286-.327.07-.9.014-1.8.029-2.7,0-.207-.013-.3.279-.245a1.593,1.593,0,0,1,1.3,1.141,1.835,1.835,0,0,1,.033.486" transform="translate(-132.62 -56.992)" fill="#e6ceb3"/>
        <path id="Trazado_820108" data-name="Trazado 820108" d="M215.23,212.618a2.473,2.473,0,0,1-.936-.193c-.05-.022-.128-.025-.122-.11s.061-.093.117-.121a3.183,3.183,0,0,0,1.7-2.191,3.067,3.067,0,0,0-.276-2.124c-.023-.047-.065-.082-.014-.133s.081-.028.136-.017a2.475,2.475,0,0,1,1.874,2.671,2.518,2.518,0,0,1-1.4,1.992,2.426,2.426,0,0,1-1.071.227" transform="translate(-169.718 -164.603)" fill="#a37749"/>
        <path id="Trazado_820109" data-name="Trazado 820109" d="M207.363,211.522a2.457,2.457,0,0,1,.957-1.887c.107-.086.186-.094.287.009a1.674,1.674,0,0,1-.7,2.7c-.378.109-.423.077-.494-.3a2.531,2.531,0,0,1-.045-.515" transform="translate(-164.322 -166.071)" fill="#a37749"/>
        <path id="Trazado_820110" data-name="Trazado 820110" d="M17.6,194.744a1.643,1.643,0,0,1-1.623-1.676,1.663,1.663,0,0,1,3.325,0,1.638,1.638,0,0,1-1.7,1.681" transform="translate(-12.657 -151.696)" fill="#a37749"/>
        <path id="Trazado_820111" data-name="Trazado 820111" d="M216.189,25.647a.831.831,0,0,1-.068-1.66.812.812,0,0,1,.9.836.8.8,0,0,1-.831.824" transform="translate(-170.656 -19.008)" fill="#a37749"/>
        <path id="Trazado_820112" data-name="Trazado 820112" d="M40.751,17.677a.831.831,0,0,1-.081-1.659.809.809,0,0,1,.9.828.792.792,0,0,1-.823.83" transform="translate(-31.627 -12.694)" fill="#a37749"/>
        <path id="Trazado_820113" data-name="Trazado 820113" d="M137.3,44.468c.117.168.1.287-.072.431a8.329,8.329,0,0,0-.748.742c-.121.13-.2.134-.324,0-.349-.366-.713-.718-1.07-1.076a.8.8,0,0,0-.263-.2.478.478,0,0,0-.164-.226c-.5-.5-1-1-1.5-1.5-.1-.094-.13-.161-.023-.274.293-.311.623-.586.9-.918.092-.111.2-.026.283.056l2.881,2.888a.837.837,0,0,0,.1.075" transform="translate(-105.454 -32.804)"/>
        <path id="Trazado_820114" data-name="Trazado 820114" d="M131.612,67.136c.368.247.724.485,1.079.725.093.063.182.13.273.2.067.049.076.1.023.171-.25.354-.5.709-.737,1.072-.083.128-.156.134-.271.056-1.091-.736-2.183-1.47-3.288-2.214a3.92,3.92,0,0,1,.677-.493,11.933,11.933,0,0,1,1.288-.86c.47-.26.891-.585,1.337-.875.111-.072.158-.072.237.048.24.367.5.722.752,1.079.08.112.024.156-.071.218-.427.281-.848.571-1.3.877" transform="translate(-101.98 -51.402)"/>
        <path id="Trazado_820115" data-name="Trazado 820115" d="M102.154,67.3c-1.115.747-2.195,1.466-3.268,2.195-.169.115-.256.1-.364-.074-.215-.35-.45-.688-.682-1.027-.09-.131-.005-.178.087-.238.382-.248.759-.5,1.145-.745.133-.083.159-.121,0-.216-.366-.226-.716-.476-1.079-.706-.17-.108-.257-.184-.084-.387a9.645,9.645,0,0,0,.552-.809c.2-.285.194-.276.486-.084.564.37,1.134.73,1.7,1.1.494.322.984.65,1.5.994" transform="translate(-77.502 -51.566)"/>
      </g>
    </g>
  </g>
</svg>
