<svg xmlns="http://www.w3.org/2000/svg" xmlns:xlink="http://www.w3.org/1999/xlink" width="144" height="144" viewBox="0 0 144 144">
  <defs>
    <clipPath id="clip-path">
      <rect id="Rect치ngulo_377747" data-name="Rect치ngulo 377747" width="144" height="144" transform="translate(299 5683)" fill="none" stroke="#707070" stroke-width="1"/>
    </clipPath>
    <clipPath id="clip-path-2">
      <rect id="Rect치ngulo_377692" data-name="Rect치ngulo 377692" width="106.547" height="143.863" fill="none"/>
    </clipPath>
  </defs>
  <g id="Enmascarar_grupo_379" data-name="Enmascarar grupo 379" transform="translate(-299 -5683)" clip-path="url(#clip-path)">
    <g id="Grupo_1073506" data-name="Grupo 1073506" transform="translate(318.001 5683)">
      <g id="Grupo_1073438" data-name="Grupo 1073438" clip-path="url(#clip-path-2)">
        <path id="Trazado_821508" data-name="Trazado 821508" d="M46.166,96.77a2.912,2.912,0,0,1,3.175-2.664c3.689.021,7.381.1,11.065-.029a17.36,17.36,0,0,0,8.409-2.717A19.178,19.178,0,0,0,77.4,81.022a23.628,23.628,0,0,0,.987-4.839,32.778,32.778,0,0,0-.014-4.231c0-.311-.022-.623-.475-.613a12.465,12.465,0,0,1-2.917-.517.739.739,0,0,0-.99.462A8.143,8.143,0,0,1,69.7,75.6a7.686,7.686,0,0,1-4.773.663c-.295-.069-.384.139-.508.356-.9,1.582-1.8,3.162-2.734,4.727a5.719,5.719,0,0,1-5.694,2.913,4.866,4.866,0,0,1-2-.812c-2.339-1.307-4.652-2.663-7-3.947-3.21-1.753-6.275-3.753-9.458-5.551a6.912,6.912,0,0,1-3.017-3.2,4.443,4.443,0,0,1-.146-3.133,22.541,22.541,0,0,1,2.461-4.683,9.547,9.547,0,0,1,.6-1.069c.719-.945.667-.956.024-2.009A8.843,8.843,0,0,1,36.019,55.7,8.194,8.194,0,0,1,37.185,51q3.828-6.633,7.658-13.265c1.245-2.159,2.474-4.326,3.72-6.484,1.43-2.477,2.819-4.98,4.322-7.411a7.916,7.916,0,0,1,4.97-3.495,15.486,15.486,0,0,1,3.177-.152.59.59,0,0,0,.59-.395c.812-1.494,1.7-2.944,2.562-4.412a2.024,2.024,0,0,0,.25-1.976,5.661,5.661,0,0,1,.635-5.269c.862-1.411,1.65-2.866,2.481-4.3.547-.941,1.072-1.9,1.682-2.8a2.652,2.652,0,0,1,3.34-.756C74.715,1.422,76.827,2.6,78.922,3.8c2.186,1.252,4.327,2.6,6.541,3.8,1.5.819,2.9,1.8,4.45,2.556.9.445,1.757,1.1,2.669,1.569,1.385.71,2.664,1.594,4.022,2.347a19.961,19.961,0,0,1,3.3,2.107c1.15.974,1.169,2.4.243,4-1.153,1.991-2.311,3.979-3.452,5.977a6.549,6.549,0,0,1-3.113,3.1,8.246,8.246,0,0,1-1.83.456.824.824,0,0,0-.643.432c-1.042,1.705-1.835,3.555-3,5.188-.211.3.013.467.158.669a8.931,8.931,0,0,1,1.58,3.538,7.98,7.98,0,0,1-.8,5.507,4.563,4.563,0,0,1-.648,1.137c-.534.512-.236.786.138,1.163a13.86,13.86,0,0,1,3.995,7.749,12.277,12.277,0,0,1,0,4.591,3.4,3.4,0,0,0,.348,1.931,35.881,35.881,0,0,1,1.983,7.238,29.811,29.811,0,0,1,.434,7.21,41.769,41.769,0,0,1-1.821,9.546,46.193,46.193,0,0,1-2.49,5.882,33.974,33.974,0,0,1-5.809,8.163,20.228,20.228,0,0,1-1.686,1.568c-.2.175-.222.349-.081.514a22.586,22.586,0,0,1,2.673,3.867,21.413,21.413,0,0,1,2.514,7.252,57.409,57.409,0,0,1,.237,7.89c0,.5.116.628.606.624,2.755-.022,5.512-.058,8.265.005a8.389,8.389,0,0,1,8.7,7.921c.261,3.762.11,7.526.1,11.286-.007,2.206-1.119,3.121-3.2,3.262-.116.008-.233,0-.35,0q-49.7,0-99.4.006a3.892,3.892,0,0,1-2.288-.567A2.482,2.482,0,0,1,.064,141.2c-.052-4.121-.116-8.245.008-12.362A7.457,7.457,0,0,1,1.889,124.5a7.431,7.431,0,0,1,4.125-2.741,12.948,12.948,0,0,1,3.194-.4c3.689.018,7.379-.007,11.068.02.616,0,.84-.165.784-.792a15.429,15.429,0,0,1,.014-1.612c.186-.125.122-.28.052-.436,0-2.316-.015-4.632,0-6.949,0-.392-.085-.463-.486-.506-2.553-.277-5.11-.038-7.662-.139A6.07,6.07,0,0,1,10.8,110.3a7.957,7.957,0,0,1-3.928-3.474,7.817,7.817,0,0,1-1.325-3.805A9.518,9.518,0,0,1,6.977,98a7.988,7.988,0,0,1,5.083-3.664,9.371,9.371,0,0,1,2.126-.221c3.009,0,6.019.022,9.028-.013,1.867-.022,3.191.815,3.331,2.637,0,.059.077.113.118.169-.257.467-.121,1.054-.485,1.5a3.3,3.3,0,0,1-2.837,1.329c-2.846-.073-5.695-.02-8.543-.03a5.015,5.015,0,0,0-2.312.525,2.952,2.952,0,0,0-.968,3.646,3.061,3.061,0,0,0,2.857,1.487q15.93-.026,31.861-.011,6.3,0,12.6-.007a2.551,2.551,0,0,0,2.49-1.483,2.8,2.8,0,0,0-.249-2.936,2.758,2.758,0,0,0-2.447-1.2c-3.011,0-6.022-.009-9.033-.006a3.11,3.11,0,0,1-2.718-1.138,5.054,5.054,0,0,1-.717-1.813m7.088,41.465q23.465,0,46.929.012c.551,0,.759-.088.748-.708-.04-2.388-.015-4.777-.017-7.165a3.837,3.837,0,0,0-.364-1.756,3.124,3.124,0,0,0-3.138-1.627c-29.694.09-59.388-.171-89.081.123a2.657,2.657,0,0,0-2.7,2.728c0,2.529.029,5.058-.02,7.587-.014.7.2.823.851.821q23.394-.029,46.788-.015M59.747,25.821a2.224,2.224,0,0,0-2,.774c-.677.67-.945,1.609-1.587,2.336a10.358,10.358,0,0,0-.854,1.63c-1.48,2.7-3.03,5.364-4.559,8.038Q49.4,40.97,48.032,43.337q-3.115,5.439-6.223,10.882a2.052,2.052,0,0,0-.245,1.65,3.314,3.314,0,0,0,1.619,1.986c.776.426,1.554.849,2.315,1.3,3.661,2.172,7.347,4.3,11.019,6.457,2.7,1.583,5.432,3.122,8.141,4.7a2.915,2.915,0,0,0,3.666-.492,10.437,10.437,0,0,0,.9-1.43.606.606,0,0,0-.1-.9,14.715,14.715,0,0,1-3.709-6.252,12.069,12.069,0,0,1-.506-5.331,16.1,16.1,0,0,1,1.673-5.37,13.92,13.92,0,0,1,4.611-4.99,14.476,14.476,0,0,1,6.418-2.183,12.57,12.57,0,0,1,4.893.5c.358.1.692.162.943-.169,1.152-1.523,1.591-3.7-.513-4.97-1.478-.9-2.951-1.8-4.444-2.667q-8.373-4.866-16.757-9.713a3,3,0,0,0-1.986-.525M89.569,71.949a5.227,5.227,0,0,0-.15-1.679,23.769,23.769,0,0,0-.442-2.665c-.044-.231-.144-.522-.451-.223a15.443,15.443,0,0,1-4.532,2.989c-.2.088-.354.182-.309.464A21.958,21.958,0,0,1,84,76.2a25.605,25.605,0,0,1-1.252,6.2,24.666,24.666,0,0,1-15.121,15.67c-.4.156-.934.209-1.18.5-.35.417.22.816.332,1.243a8.959,8.959,0,0,1,.383,3.824c-.037.214-.258.763.418.523A33.607,33.607,0,0,0,77.9,98.731,30.518,30.518,0,0,0,88.174,84.07a37.257,37.257,0,0,0,1.542-9.859c.026-.752-.2-1.474-.147-2.262M78.764,49A8.193,8.193,0,0,0,70.4,57.321a8.35,8.35,0,0,0,8.4,8.428A8.377,8.377,0,1,0,78.764,49M36.538,121.371c3.081,0,6.163-.008,9.244.008.448,0,.651-.051.643-.594q-.064-4.565-.037-9.13c0-.559-.14-.707-.7-.7-5.066.024-10.131.013-15.2.014-1.074,0-2.147.008-3.221,0-.355,0-.531.056-.534.5-.015,3.088.075,6.178-.093,9.264-.029.538.14.656.654.652,3.081-.024,6.162-.012,9.244-.012m25.414,0c3.173,0,6.346,0,9.519-.008.249,0,.642.191.633-.367-.029-1.731.019-3.465-.056-5.194a4.944,4.944,0,0,0-2.332-4.021,6.038,6.038,0,0,0-3.571-.85q-5.249.015-10.5.024-1.54,0-3.079.013c-.331,0-.637-.013-.634.5.018,3.087.111,6.174-.069,9.258-.03.519.105.663.639.659,3.15-.028,6.3-.014,9.45-.013M94.234,19.486c.01-.345-.229-.441-.423-.554-.685-.4-1.381-.782-2.067-1.179Q82.388,12.331,73.039,6.9c-.442-.258-.673-.226-.929.24-.7,1.269-1.412,2.53-2.18,3.757-.292.466-.208.667.231.916,1.645.931,3.276,1.883,4.908,2.835q5.964,3.48,11.925,6.967c1.25.731,2.5,1.46,3.74,2.21.644.39.794.369,1.176-.314.707-1.264,1.381-2.547,2.178-3.759.063-.1.113-.2.147-.261m-8.042,8.278c.028-.25-.144-.319-.311-.415-.6-.347-1.2-.716-1.8-1.065q-7.173-4.147-14.342-8.3c-.423-.247-.577-.168-.793.227q-1.077,1.964-2.222,3.891c-.231.389-.188.571.216.8,1.443.81,2.86,1.664,4.289,2.5q5.844,3.4,11.685,6.808c.422.247.621.193.858-.229.728-1.3,1.5-2.568,2.246-3.851.069-.119.121-.247.177-.36M42.818,64.05c-.28-.011-.347.228-.445.393-.765,1.284-1.491,2.591-2.284,3.857-.3.486-.143.687.268.924q7.856,4.532,15.7,9.078c.652.377.846.309,1.211-.341.564-1,1.108-2.022,1.717-3,.642-1.031.67-1.014-.284-1.677-.171-.119-.347-.233-.527-.337q-7.529-4.367-15.058-8.73c-.1-.058-.2-.114-.3-.169m30.857,43.712a3.6,3.6,0,0,0,.3.358,11.316,11.316,0,0,1,3.689,9.162c-.025,1.171-.007,2.342-.036,3.512-.01.4.055.6.522.588,1.541-.026,3.082-.019,4.623,0,.378,0,.547-.093.529-.511-.123-2.809.074-5.614-.552-8.419a17.934,17.934,0,0,0-3.559-7.165c-.189-.245-.374-.341-.643-.165a34.068,34.068,0,0,1-4.873,2.645" transform="translate(0 0)" fill="#060607"/>
        <path id="Trazado_821509" data-name="Trazado 821509" d="M54.919,172.116a5.071,5.071,0,0,0,.717,1.813,3.11,3.11,0,0,0,2.718,1.138c3.011,0,6.022,0,9.033.006a2.758,2.758,0,0,1,2.447,1.2,2.8,2.8,0,0,1,.25,2.937,2.551,2.551,0,0,1-2.491,1.482q-6.3.014-12.6.008-15.93,0-31.86.011a3.061,3.061,0,0,1-2.857-1.487,2.952,2.952,0,0,1,.968-3.646,5.019,5.019,0,0,1,2.311-.525c2.848.01,5.7-.043,8.543.03a3.306,3.306,0,0,0,2.838-1.33c.363-.444.227-1.031.485-1.5,1.471,0,2.941.013,4.412,0a7.936,7.936,0,0,1,2.554.269,4.45,4.45,0,0,0,.707,1.429,2.676,2.676,0,0,0,4.814-1.43c1.885-.511,3.809-.18,5.713-.252a11.152,11.152,0,0,0,1.3-.162" transform="translate(-8.753 -75.346)" fill="#8fcfe5"/>
        <path id="Trazado_821510" data-name="Trazado 821510" d="M65.333,170.483a2.676,2.676,0,0,1-4.814,1.43,4.453,4.453,0,0,1-.707-1.428c.084-1.728.855-2.656,2.016-2.943a2.721,2.721,0,0,1,3.477,2.1c.053.259.234.554.028.838" transform="translate(-26.184 -73.3)" fill="#060607"/>
        <path id="Trazado_821511" data-name="Trazado 821511" d="M37.415,210.845c.069.156.133.311-.052.436-.037-.152-.351-.337.052-.436" transform="translate(-16.29 -92.3)" fill="#557f9c"/>
        <path id="Trazado_821512" data-name="Trazado 821512" d="M57.624,237.095q-23.394,0-46.788.015c-.651,0-.865-.117-.851-.822.049-2.528.018-5.058.02-7.587a2.657,2.657,0,0,1,2.7-2.728c29.693-.294,59.387-.032,89.081-.123a3.123,3.123,0,0,1,3.138,1.627,3.828,3.828,0,0,1,.364,1.756c0,2.389-.024,4.777.017,7.166.011.62-.2.708-.749.707q-23.464-.022-46.928-.012" transform="translate(-4.371 -98.86)" fill="#557f9c"/>
        <path id="Trazado_821513" data-name="Trazado 821513" d="M92.047,45.9a3,3,0,0,1,1.986.525q8.379,4.858,16.757,9.713c1.493.869,2.967,1.772,4.444,2.667,2.1,1.275,1.665,3.448.513,4.97-.251.332-.585.272-.943.169a12.58,12.58,0,0,0-4.893-.5,14.47,14.47,0,0,0-6.418,2.184,13.913,13.913,0,0,0-4.611,4.99,16.1,16.1,0,0,0-1.672,5.37,12.055,12.055,0,0,0,.506,5.332,14.711,14.711,0,0,0,3.709,6.251.606.606,0,0,1,.1.9,10.384,10.384,0,0,1-.9,1.43,2.915,2.915,0,0,1-3.666.492c-2.709-1.574-5.44-3.113-8.141-4.7-3.673-2.153-7.358-4.284-11.019-6.457-.761-.451-1.539-.875-2.315-1.3a3.312,3.312,0,0,1-1.619-1.986,2.054,2.054,0,0,1,.245-1.65q3.1-5.449,6.223-10.882,1.358-2.37,2.719-4.739c1.529-2.675,3.079-5.337,4.559-8.038a10.325,10.325,0,0,1,.854-1.629c.642-.726.91-1.665,1.588-2.336a2.223,2.223,0,0,1,2-.774" transform="translate(-32.3 -20.082)" fill="#b6c8d4"/>
        <path id="Trazado_821514" data-name="Trazado 821514" d="M141.218,124.313c-.057.788.173,1.51.147,2.262a37.257,37.257,0,0,1-1.542,9.86,30.512,30.512,0,0,1-10.271,14.66,33.59,33.59,0,0,1-10.324,5.428c-.676.241-.454-.309-.418-.522a8.952,8.952,0,0,0-.382-3.825c-.112-.426-.682-.825-.332-1.243.245-.292.776-.345,1.18-.5a24.665,24.665,0,0,0,15.12-15.669,25.59,25.59,0,0,0,1.252-6.2,21.992,21.992,0,0,0-.312-5.362c-.046-.283.111-.376.309-.464a15.425,15.425,0,0,0,4.531-2.989c.308-.3.408-.008.451.223a23.76,23.76,0,0,1,.442,2.664,5.245,5.245,0,0,1,.151,1.679" transform="translate(-51.648 -52.365)" fill="#b6c8d4"/>
        <path id="Trazado_821515" data-name="Trazado 821515" d="M133.581,87.135a8.377,8.377,0,1,1,.034,16.754,8.35,8.35,0,0,1-8.4-8.428,8.193,8.193,0,0,1,8.362-8.326" transform="translate(-54.816 -38.14)" fill="#557f9c"/>
        <path id="Trazado_821516" data-name="Trazado 821516" d="M57.278,207.758c-3.081,0-6.163-.012-9.244.012-.514,0-.683-.114-.654-.652.169-3.086.079-6.176.094-9.264,0-.445.178-.5.533-.5,1.074.008,2.148,0,3.221,0,5.066,0,10.131.01,15.2-.014.563,0,.706.145.7.7q-.025,4.565.037,9.13c.007.543-.2.6-.643.594-3.081-.016-6.163-.008-9.244-.008" transform="translate(-20.74 -86.387)" fill="#b6c8d4"/>
        <path id="Trazado_821517" data-name="Trazado 821517" d="M102.33,207.743c-3.15,0-6.3-.014-9.45.014-.534,0-.67-.141-.639-.659.18-3.084.088-6.172.07-9.258,0-.512.3-.5.633-.5,1.027-.008,2.053-.011,3.08-.013q5.249-.013,10.5-.024a6.029,6.029,0,0,1,3.57.85,4.942,4.942,0,0,1,2.332,4.021c.075,1.729.028,3.462.056,5.193.01.558-.383.366-.633.367-3.173.011-6.346.007-9.519.007" transform="translate(-40.378 -86.372)" fill="#f6f8fa"/>
        <path id="Trazado_821518" data-name="Trazado 821518" d="M148.548,24.73c-.034.061-.084.165-.147.261-.8,1.212-1.471,2.5-2.178,3.759-.382.683-.531.7-1.176.314-1.239-.75-2.49-1.479-3.741-2.21q-5.961-3.486-11.925-6.967c-1.632-.952-3.264-1.9-4.908-2.835-.439-.248-.522-.449-.231-.916.767-1.227,1.483-2.488,2.18-3.757.256-.466.487-.5.929-.241Q136.7,17.582,146.058,23c.686.4,1.382.779,2.067,1.178.195.114.434.209.424.554" transform="translate(-54.315 -5.244)" fill="#557f9c"/>
        <path id="Trazado_821519" data-name="Trazado 821519" d="M138.033,41.658c-.055.113-.107.242-.177.36-.749,1.283-1.517,2.555-2.245,3.851-.237.422-.437.476-.858.229-3.888-2.281-7.789-4.54-11.685-6.808-1.43-.832-2.847-1.687-4.289-2.5-.4-.227-.446-.409-.216-.8q1.143-1.926,2.221-3.891c.216-.394.371-.473.794-.227q7.158,4.17,14.342,8.3c.6.349,1.2.718,1.8,1.065.167.1.338.165.31.415" transform="translate(-51.841 -13.894)" fill="#93aec0"/>
        <path id="Trazado_821520" data-name="Trazado 821520" d="M73.909,113.92c.1.055.2.11.3.168q7.53,4.364,15.059,8.73c.18.1.356.218.527.337.955.662.925.646.284,1.677-.608.977-1.153,1.994-1.717,3-.365.649-.559.717-1.212.341q-7.852-4.538-15.7-9.078c-.411-.237-.572-.439-.268-.924.793-1.266,1.519-2.573,2.283-3.857.1-.165.165-.4.446-.393" transform="translate(-31.091 -49.87)" fill="#557f9c"/>
        <path id="Trazado_821521" data-name="Trazado 821521" d="M131.039,189.536a34.066,34.066,0,0,0,4.873-2.645c.268-.177.453-.08.643.165a17.934,17.934,0,0,1,3.559,7.165c.626,2.8.43,5.611.552,8.419.018.418-.15.514-.529.511-1.541-.015-3.083-.022-4.623,0-.467.008-.532-.191-.522-.588.029-1.17.011-2.342.036-3.512a11.316,11.316,0,0,0-3.689-9.162,3.6,3.6,0,0,1-.3-.358" transform="translate(-57.364 -81.775)" fill="#93aec0"/>
      </g>
    </g>
  </g>
</svg>
