<svg xmlns="http://www.w3.org/2000/svg" xmlns:xlink="http://www.w3.org/1999/xlink" width="295" height="248.757" viewBox="0 0 295 248.757">
  <defs>
    <clipPath id="clip-path">
      <rect id="Rectángulo_377725" data-name="Rectángulo 377725" width="295" height="248.757" fill="none"/>
    </clipPath>
    <clipPath id="clip-path-2">
      <rect id="Rectángulo_377724" data-name="Rectángulo 377724" width="400" height="248.757" fill="none"/>
    </clipPath>
    <clipPath id="clip-path-3">
      <rect id="Rectángulo_377713" data-name="Rectángulo 377713" width="303.267" height="248.757" fill="none"/>
    </clipPath>
    <clipPath id="clip-path-4">
      <rect id="Rectángulo_377714" data-name="Rectángulo 377714" width="90.922" height="90.922" fill="none"/>
    </clipPath>
    <clipPath id="clip-path-5">
      <rect id="Rectángulo_377715" data-name="Rectángulo 377715" width="72.312" height="72.312" fill="none"/>
    </clipPath>
    <clipPath id="clip-path-6">
      <rect id="Rectángulo_377716" data-name="Rectángulo 377716" width="125.966" height="114.909" fill="none"/>
    </clipPath>
    <clipPath id="clip-path-7">
      <rect id="Rectángulo_377717" data-name="Rectángulo 377717" width="49.572" height="46.842" fill="none"/>
    </clipPath>
    <clipPath id="clip-path-8">
      <rect id="Rectángulo_377722" data-name="Rectángulo 377722" width="10.895" height="41.298" fill="none"/>
    </clipPath>
    <clipPath id="clip-path-9">
      <rect id="Rectángulo_377723" data-name="Rectángulo 377723" width="13.185" height="49.974" fill="none"/>
    </clipPath>
  </defs>
  <g id="Grupo_1073492" data-name="Grupo 1073492" clip-path="url(#clip-path)">
    <g id="Grupo_1073491" data-name="Grupo 1073491">
      <g id="Grupo_1073490" data-name="Grupo 1073490" clip-path="url(#clip-path-2)">
        <g id="Grupo_1073471" data-name="Grupo 1073471" transform="translate(0)" opacity="0.2" style="mix-blend-mode: multiply;isolation: isolate">
          <g id="Grupo_1073470" data-name="Grupo 1073470">
            <g id="Grupo_1073469" data-name="Grupo 1073469" clip-path="url(#clip-path-3)">
              <path id="Trazado_821954" data-name="Trazado 821954" d="M469.856,242.664a2.428,2.428,0,0,0-2.49-2.852,73.858,73.858,0,0,1-48.2-14.039,71.458,71.458,0,0,1-27.69-44.346c-2.916-16.265-.028-33.358-4.738-49.212-6.244-21.021-26.683-37.189-48.912-38.691-19.2-1.3-39.847,7.089-56.983-1.518a31.069,31.069,0,0,1-16.584-22.72c-1.691-11.283,3.1-22.614,2.561-34.005-.8-16.751-14.58-32.03-31.393-34.843a2.358,2.358,0,0,0-.381-.032L169,0a2.418,2.418,0,0,0-2.376,2.473V245.165a2.45,2.45,0,0,0,1.89,2.431,34.355,34.355,0,0,0,7.333,1.16H466.9a2.392,2.392,0,0,0,2.335-2.1c.171-1.218.42-2.674.623-3.99" transform="translate(-166.62 0)" fill="#a9ae90"/>
            </g>
          </g>
        </g>
        <path id="Trazado_821955" data-name="Trazado 821955" d="M413,346.667a7.572,7.572,0,0,0,2.539-5.741c-.034-2.139-1.642-4.341-3.779-4.423-3.014-.114-4.788,3.031-5.814,5.419-1.01,2.351-1.875,4.768-2.734,7.177q-.436,1.224-.862,2.45c-.044.126-.2.9-.329.954,3.254-1.454,8.06-3.022,10.98-5.838" transform="translate(-248.931 -141.142)" fill="#6d745b"/>
        <path id="Trazado_821956" data-name="Trazado 821956" d="M404.227,377.814a.294.294,0,0,0,.1-.016c9.107-3.2,18.1-9.06,26.735-17.412,2.21-2.135,4.4-4.424,6.69-7,4.4-4.925,8.49-10.124,11.979-14.612a.29.29,0,0,0-.458-.357c-3.483,4.48-7.566,9.67-11.954,14.581-2.282,2.561-4.462,4.839-6.661,6.965-8.574,8.293-17.5,14.108-26.525,17.281a.29.29,0,0,0,.1.564" transform="translate(-284.298 -141.901)" fill="#5c624d"/>
        <path id="Trazado_821957" data-name="Trazado 821957" d="M433.834,350.019a7.57,7.57,0,0,0-1.094-6.181c-1.221-1.756-3.784-2.688-5.6-1.563-2.565,1.586-2.284,5.187-1.8,7.742.473,2.514,1.1,5,1.734,7.482q.32,1.258.651,2.514c.034.129.334.856.259.975,1.89-3.022,5-7,5.857-10.969" transform="translate(-280.802 -143.358)" fill="#6d745b"/>
        <path id="Trazado_821958" data-name="Trazado 821958" d="M432.056,361.136a.29.29,0,0,0,.287-.251c.9-6.513,1.373-12.855,1.782-18.792a.29.29,0,1,0-.579-.039c-.408,5.927-.881,12.257-1.777,18.753a.29.29,0,0,0,.248.327l.04,0" transform="translate(-284.79 -143.357)" fill="#5c624d"/>
        <path id="Trazado_821959" data-name="Trazado 821959" d="M412.585,371.829a7.571,7.571,0,0,0,5.806-2.387c1.455-1.568,1.819-4.27.333-5.808-2.1-2.168-5.555-1.126-7.948-.111-2.357,1-4.653,2.144-6.94,3.288q-1.162.582-2.318,1.173c-.119.06-.765.509-.9.461,3.355,1.2,7.91,3.4,11.965,3.384" transform="translate(-252.259 -151.989)" fill="#6d745b"/>
        <path id="Trazado_821960" data-name="Trazado 821960" d="M400.716,371.387h.023c6.55-.51,12.85-1.4,18.74-2.264a.291.291,0,1,0-.084-.575c-5.88.866-12.169,1.752-18.7,2.261a.29.29,0,0,0,.022.579" transform="translate(-252.2 -154.582)" fill="#5c624d"/>
        <path id="Trazado_821961" data-name="Trazado 821961" d="M430.573,387.607a7.573,7.573,0,0,0,5.806-2.387c1.455-1.568,1.819-4.27.333-5.808-2.1-2.168-5.555-1.126-7.948-.111-2.357,1-4.653,2.144-6.94,3.288q-1.162.582-2.318,1.172c-.119.061-.765.509-.9.462,3.355,1.2,7.91,3.4,11.965,3.384" transform="translate(-280.69 -158.607)" fill="#6d745b"/>
        <path id="Trazado_821962" data-name="Trazado 821962" d="M418.7,387.165h.023c6.566-.511,12.858-1.4,18.74-2.265a.291.291,0,0,0-.085-.575c-5.872.865-12.154,1.751-18.7,2.262a.29.29,0,0,0,.022.579" transform="translate(-280.629 -161.2)" fill="#5c624d"/>
        <path id="Trazado_821963" data-name="Trazado 821963" d="M448.852,402.865a7.571,7.571,0,0,0,6.08-1.562c1.658-1.352,2.391-3.978,1.131-5.706-1.777-2.437-5.346-1.882-7.856-1.208-2.471.664-4.9,1.482-7.328,2.3q-1.23.415-2.458.841c-.126.044-.828.4-.953.333,3.157,1.654,7.366,4.456,11.384,5" transform="translate(-310.676 -165.181)" fill="#6d745b"/>
        <path id="Trazado_821964" data-name="Trazado 821964" d="M451.661,401.366q2.465,0,4.848-.022a.29.29,0,0,0,0-.581h0c-5.94.044-12.288.056-18.835-.343a.29.29,0,1,0-.035.579c4.812.293,9.514.365,14.025.365" transform="translate(-310.713 -167.952)" fill="#5c624d"/>
        <path id="Trazado_821965" data-name="Trazado 821965" d="M450.1,364.338A7.57,7.57,0,0,0,449,358.157c-1.221-1.756-3.784-2.688-5.6-1.563-2.565,1.586-2.284,5.187-1.8,7.742.473,2.514,1.1,5,1.734,7.482q.32,1.258.651,2.514c.034.129.334.856.26.975,1.889-3.022,5-7,5.857-10.969" transform="translate(-306.509 -149.364)" fill="#6d745b"/>
        <path id="Trazado_821966" data-name="Trazado 821966" d="M448.32,375.455a.29.29,0,0,0,.287-.251c.9-6.514,1.373-12.856,1.782-18.793a.29.29,0,1,0-.579-.039c-.408,5.926-.881,12.256-1.777,18.753a.289.289,0,0,0,.248.327l.04,0" transform="translate(-310.496 -149.363)" fill="#5c624d"/>
        <path id="Trazado_821967" data-name="Trazado 821967" d="M466.1,374.622A7.57,7.57,0,0,0,465,368.441c-1.221-1.756-3.783-2.688-5.6-1.563-2.565,1.586-2.284,5.187-1.8,7.742.473,2.514,1.1,5,1.734,7.482q.32,1.258.651,2.514c.034.129.334.856.259.975,1.89-3.022,5-7,5.857-10.969" transform="translate(-331.799 -153.678)" fill="#6d745b"/>
        <path id="Trazado_821968" data-name="Trazado 821968" d="M464.321,385.738a.29.29,0,0,0,.287-.251c.9-6.522,1.374-12.859,1.782-18.792a.291.291,0,0,0-.269-.309.287.287,0,0,0-.31.27c-.408,5.922-.881,12.249-1.778,18.753a.289.289,0,0,0,.248.327l.04,0" transform="translate(-335.788 -153.676)" fill="#5c624d"/>
        <path id="Trazado_821969" data-name="Trazado 821969" d="M655.539,354.3A7.572,7.572,0,0,1,653,348.561c.034-2.139,1.642-4.341,3.779-4.423,3.014-.114,4.789,3.031,5.814,5.42,1.01,2.351,1.875,4.768,2.734,7.177q.436,1.224.862,2.45c.044.126.2.9.329.954-3.254-1.454-8.06-3.022-10.98-5.837" transform="translate(-645.624 -144.344)" fill="#5c624d"/>
        <path id="Trazado_821970" data-name="Trazado 821970" d="M640.949,385.45a.29.29,0,0,0,.1-.564c-9.028-3.173-17.952-8.988-26.525-17.281-2.2-2.125-4.377-4.4-6.661-6.965-4.391-4.916-8.473-10.1-11.954-14.581a.29.29,0,1,0-.458.356c3.487,4.484,7.576,9.681,11.979,14.612,2.293,2.571,4.481,4.86,6.69,7,8.633,8.352,17.629,14.21,26.735,17.412a.3.3,0,0,0,.1.016" transform="translate(-586.897 -145.104)" fill="#6d745b"/>
        <path id="Trazado_821971" data-name="Trazado 821971" d="M637.937,357.654a7.57,7.57,0,0,1,1.094-6.181c1.221-1.756,3.784-2.688,5.6-1.563,2.566,1.586,2.284,5.187,1.8,7.742-.473,2.514-1.1,5-1.734,7.482q-.32,1.258-.651,2.514c-.034.129-.334.856-.259.975-1.89-3.022-5-7-5.857-10.969" transform="translate(-616.988 -146.561)" fill="#5c624d"/>
        <path id="Trazado_821972" data-name="Trazado 821972" d="M644.543,368.77l.04,0a.289.289,0,0,0,.248-.327c-.9-6.5-1.369-12.826-1.777-18.753a.287.287,0,0,0-.31-.27.292.292,0,0,0-.27.309c.409,5.937.884,12.279,1.782,18.792a.29.29,0,0,0,.287.251" transform="translate(-617.828 -146.559)" fill="#6d745b"/>
        <path id="Trazado_821973" data-name="Trazado 821973" d="M651.951,379.464a7.573,7.573,0,0,1-5.806-2.387c-1.456-1.567-1.82-4.27-.333-5.808,2.1-2.168,5.555-1.126,7.948-.112,2.357,1,4.653,2.145,6.94,3.289q1.162.582,2.318,1.172c.119.061.765.509.9.462-3.355,1.2-7.91,3.4-11.965,3.384" transform="translate(-638.296 -155.191)" fill="#5c624d"/>
        <path id="Trazado_821974" data-name="Trazado 821974" d="M663.642,379.022a.29.29,0,0,0,.022-.579c-6.534-.509-12.821-1.4-18.7-2.261a.3.3,0,0,0-.33.245.291.291,0,0,0,.245.33c5.89.866,12.188,1.754,18.74,2.264h.023" transform="translate(-638.178 -157.785)" fill="#6d745b"/>
        <path id="Trazado_821975" data-name="Trazado 821975" d="M633.963,395.242a7.573,7.573,0,0,1-5.806-2.387c-1.456-1.568-1.82-4.27-.333-5.808,2.1-2.168,5.555-1.126,7.948-.112,2.357,1,4.653,2.145,6.94,3.289q1.162.582,2.318,1.172c.119.061.765.509.9.462-3.355,1.2-7.91,3.4-11.965,3.384" transform="translate(-609.865 -161.809)" fill="#5c624d"/>
        <path id="Trazado_821976" data-name="Trazado 821976" d="M645.655,394.8a.29.29,0,0,0,.022-.579c-6.547-.511-12.829-1.4-18.7-2.262a.291.291,0,0,0-.085.575c5.883.865,12.175,1.753,18.74,2.265h.023" transform="translate(-609.748 -164.402)" fill="#6d745b"/>
        <path id="Trazado_821977" data-name="Trazado 821977" d="M615.557,410.5a7.571,7.571,0,0,1-6.08-1.562c-1.658-1.352-2.391-3.978-1.131-5.706,1.777-2.437,5.346-1.882,7.856-1.208,2.471.664,4.9,1.482,7.328,2.3q1.23.415,2.457.841c.126.044.828.4.953.333-3.157,1.654-7.366,4.456-11.384,5" transform="translate(-579.753 -168.383)" fill="#5c624d"/>
        <path id="Trazado_821978" data-name="Trazado 821978" d="M612.6,409c4.51,0,9.212-.073,14.025-.365a.29.29,0,0,0,.272-.307.278.278,0,0,0-.307-.272c-6.548.4-12.894.388-18.834.343a.3.3,0,0,0-.293.288.29.29,0,0,0,.288.293c1.588.012,3.206.021,4.849.021" transform="translate(-579.568 -171.155)" fill="#6d745b"/>
        <path id="Trazado_821979" data-name="Trazado 821979" d="M621.673,371.972a7.57,7.57,0,0,1,1.094-6.181c1.221-1.756,3.784-2.688,5.6-1.563,2.565,1.586,2.284,5.187,1.8,7.742-.473,2.514-1.1,5-1.734,7.482q-.321,1.258-.651,2.514c-.034.129-.334.856-.259.975-1.89-3.022-5-7-5.857-10.969" transform="translate(-591.282 -152.566)" fill="#5c624d"/>
        <path id="Trazado_821980" data-name="Trazado 821980" d="M628.278,383.09l.04,0a.29.29,0,0,0,.248-.327c-.9-6.505-1.37-12.831-1.778-18.753a.29.29,0,1,0-.579.04c.409,5.933.883,12.27,1.782,18.793a.29.29,0,0,0,.287.251" transform="translate(-592.12 -152.565)" fill="#6d745b"/>
        <path id="Trazado_821981" data-name="Trazado 821981" d="M605.672,382.256a7.57,7.57,0,0,1,1.094-6.181c1.222-1.756,3.784-2.688,5.6-1.563,2.565,1.586,2.284,5.187,1.8,7.742-.473,2.514-1.1,5-1.734,7.482q-.321,1.258-.651,2.514c-.034.129-.334.856-.259.975-1.89-3.022-5-7-5.857-10.969" transform="translate(-565.991 -156.88)" fill="#5c624d"/>
        <path id="Trazado_821982" data-name="Trazado 821982" d="M612.277,393.373l.04,0a.29.29,0,0,0,.248-.327c-.9-6.49-1.369-12.823-1.778-18.753a.287.287,0,0,0-.31-.27.291.291,0,0,0-.269.309c.41,5.941.884,12.284,1.782,18.792a.29.29,0,0,0,.287.251" transform="translate(-566.83 -156.879)" fill="#6d745b"/>
        <path id="Trazado_821983" data-name="Trazado 821983" d="M591.233,264.332a14.338,14.338,0,0,0,2.015,4.807,59.819,59.819,0,0,0,10.166,12.8,2.848,2.848,0,0,0-3.269.052,3.2,3.2,0,0,0-.482.366,1.605,1.605,0,0,0-.157.134,5.04,5.04,0,0,0-1.289,4.081,12.273,12.273,0,0,0,1.382,4.18A47.323,47.323,0,0,0,610.537,305.2a4.751,4.751,0,0,0-4.691.186,4.291,4.291,0,0,0-1.179,1.062,3.357,3.357,0,0,0-.343.505,4.507,4.507,0,0,0-.639,2.514c.128,2.415,2.09,4.273,3.919,5.858,4.389,3.809,9.452,8.871,13.841,12.679.209-.029.412-.052.621-.081s.4-.052.6-.081l2.34-.314c-.25-6.171-.691-12.558-.941-18.735a13.289,13.289,0,0,0-.79-4.807,4.515,4.515,0,0,0-3.646-2.88,1.878,1.878,0,0,0-.255,0,2.3,2.3,0,0,0-.6.1,2.783,2.783,0,0,0-2.113,2.589,52.77,52.77,0,0,1,.3-16.331,27.858,27.858,0,0,0,.627-4.633,6.97,6.97,0,0,0-1.312-4.395,4.292,4.292,0,0,0-3.112-1.637,3.511,3.511,0,0,0-.61.035,3.258,3.258,0,0,0-.412.093,3,3,0,0,0-2.1,2.909,26.322,26.322,0,0,1,.1-13.562,21.763,21.763,0,0,0,1.295-5.115,4.823,4.823,0,0,0-2.125-4.546,2.659,2.659,0,0,0-1.254-.314,2.621,2.621,0,0,0-.639.058,2.454,2.454,0,0,0-2.16,2.09,19.467,19.467,0,0,1,1.138-13.376,54.357,54.357,0,0,0,2.514-5.126,6.524,6.524,0,0,0-.221-5.521,3.783,3.783,0,0,0-.418-.546,3.562,3.562,0,0,0-.435-.4,3.368,3.368,0,0,0-4.058-.308c-.145-5.016,4.54-8.854,5.469-13.783a5.846,5.846,0,0,0-.157-3.147,3.642,3.642,0,0,0-.888-1.335,3.1,3.1,0,0,0-.464-.36,2.6,2.6,0,0,0-.9-.366,3.427,3.427,0,0,0-2.943,1,8.7,8.7,0,0,0-1.742,2.7,37.627,37.627,0,0,0-3.448,14.572c-.017-1.329-1.962-2.044-3.327-1.957a.51.51,0,0,0-.093.012,2.891,2.891,0,0,0-.592.116,4.273,4.273,0,0,0-2.5,2.287,9.924,9.924,0,0,0-.743,4.1,39.735,39.735,0,0,0,5.928,21.574c-1.26-1.033-3.373-.488-4.633.615a2.593,2.593,0,0,0-.261.244c-.064.07-.128.139-.186.209a5.838,5.838,0,0,0-1.08,4.679" transform="translate(-568.202 -89.813)" fill="#6d745b"/>
        <path id="Trazado_821984" data-name="Trazado 821984" d="M607.5,300.669A52.286,52.286,0,0,1,595.85,282.66a3.2,3.2,0,0,1,.482-.366A51.564,51.564,0,0,0,607.1,299.412c-.957-3.016-1.879-6.055-2.8-9.112-1.173-3.9-2.311-7.762-3.356-11.623A57.319,57.319,0,0,1,588.5,259.955c.058-.07.122-.139.186-.209a2.59,2.59,0,0,1,.261-.244,56.528,56.528,0,0,0,11.687,18.026,147.515,147.515,0,0,1-4-19.762v-.006a.259.259,0,0,1-.2-.151,56.225,56.225,0,0,1-5.533-26.683,2.889,2.889,0,0,1,.592-.116,55.5,55.5,0,0,0,4.975,25.5c-.2-1.809-.348-3.617-.441-5.438-.511-9.852.517-23.815,7.919-36.024a3.105,3.105,0,0,1,.464.36c-7.292,12.076-8.314,25.881-7.809,35.635.017.383.041.772.07,1.155V252a40.5,40.5,0,0,1,7.373-18.224,3.563,3.563,0,0,1,.435.4,39.889,39.889,0,0,0-7.5,20.337.3.3,0,0,1-.1.2,130.358,130.358,0,0,0,3.559,19.71v.006a62.427,62.427,0,0,1,3.181-17.771,2.617,2.617,0,0,1,.639-.058,61.731,61.731,0,0,0-3.274,19.646.254.254,0,0,1-.046.145q.261,1.019.54,2.038a1.245,1.245,0,0,0,.041.139c1.033,3.843,2.166,7.692,3.332,11.565q.932,3.083,1.869,6.137a66.411,66.411,0,0,1,2.026-19.135,3.508,3.508,0,0,1,.61-.035,65.852,65.852,0,0,0-1.951,21.121.264.264,0,0,1-.029.134c2.049,6.52,4.221,12.941,6.746,19.188v-.006a85.554,85.554,0,0,1,.842-16.029,2.3,2.3,0,0,1,.6-.1,85.4,85.4,0,0,0-.8,17.347.264.264,0,0,1-.064.2q1.925,4.668,4.157,9.19,1.794,3.623,3.832,7.141a.286.286,0,0,1-.1.395.262.262,0,0,1-.145.041.288.288,0,0,1-.25-.145q-2.1-3.623-3.936-7.35-1.724-3.5-3.257-7.089a73.294,73.294,0,0,1-14.485-13.881,3.36,3.36,0,0,1,.343-.505,72.564,72.564,0,0,0,13.7,13.341c-2.665-6.316-4.935-12.807-7.048-19.414Z" transform="translate(-564.389 -90.115)" fill="#a9ae90"/>
        <path id="Trazado_821985" data-name="Trazado 821985" d="M416.685,402.758a8.027,8.027,0,0,1-3.852-.59,53.985,53.985,0,0,1-12.827-6.454,5.413,5.413,0,0,1,1.718,3.341,4.27,4.27,0,0,1,.046.6c.008.064.006.133.007.2a2.543,2.543,0,0,1-1.667,2.55,6.069,6.069,0,0,1-3.152-.136,41.016,41.016,0,0,1-14.189-6.74,9.18,9.18,0,0,1,2.4,4.828,5.027,5.027,0,0,1,.017,1.521,2.608,2.608,0,0,1-.109.5,2.049,2.049,0,0,1-1.109,1.412c-1.464.6-3.585-.828-5.478-2.207-4.546-3.308-10.177-6.92-14.722-10.228-.1-.221-.19-.435-.286-.657s-.184-.423-.276-.639l-1.07-2.475c3.7-1.619,7.62-3.109,11.32-4.73a5.412,5.412,0,0,1,3.2-.656,5.593,5.593,0,0,1,3.613,2.834c.05.087.093.17.136.26a4.491,4.491,0,0,1,.262.638c.439,1.3.34,2.633-.365,2.935a19.8,19.8,0,0,0,9.267-5.265,10.945,10.945,0,0,1,2.34-2.044,3.373,3.373,0,0,1,3.239,0,6.65,6.65,0,0,1,2.61,2.668q.172.317.306.63c.061.149.119.3.167.448.457,1.373.2,2.712-.559,3.015,3.151-.338,5.94-1.5,7.774-4.223a9.68,9.68,0,0,1,2.261-2.87c.972-.624,2.449-.542,3.761.781a5,5,0,0,1,.852,1.18,5.285,5.285,0,0,1,.308.668c.473,1.183.551,2.416-.052,2.831a7.822,7.822,0,0,0,7.114-5.217,33.642,33.642,0,0,1,1.616-4.113,2.665,2.665,0,0,1,3.306-1.451,3.275,3.275,0,0,1,.538.259,4.018,4.018,0,0,1,.464.321,6.315,6.315,0,0,1,2.348,4.034c2.973-1.375,2.684-7.306,5.033-9.746a2.264,2.264,0,0,1,1.9-.8,2.844,2.844,0,0,1,1.246.5,4.116,4.116,0,0,1,.456.363,4.494,4.494,0,0,1,.692.8,5.994,5.994,0,0,1,.995,3.3,6.624,6.624,0,0,1-.628,2.59,16.544,16.544,0,0,1-6.569,7.931c.777-.385,2.229,1.376,2.909,2.79a.965.965,0,0,1,.043.1,5.521,5.521,0,0,1,.249.638,4.869,4.869,0,0,1,.018,3.239,4.122,4.122,0,0,1-1.97,2c-4.286,2.442-9.782,2.626-15.625.52a7.1,7.1,0,0,1,2.123,4.9,3.327,3.327,0,0,1,0,.34c-.006.086-.012.172-.021.252a2.674,2.674,0,0,1-2.125,2.519" transform="translate(-248.525 -155.178)" fill="#5c624d"/>
        <path id="Trazado_821986" data-name="Trazado 821986" d="M393.326,393.641a39.88,39.88,0,0,0,16.629,6.384,4.28,4.28,0,0,0-.046-.6,38.448,38.448,0,0,1-15.641-5.755c2.253.058,4.5.073,6.759.084,2.876.01,5.717-.006,8.505-.116A44.676,44.676,0,0,0,427,400.608c.009-.08.015-.167.021-.253a3,3,0,0,0,0-.34A43.2,43.2,0,0,1,410.36,393.6a61.659,61.659,0,0,0,13.549-1.93h0a.335.335,0,0,0,.2.16c6.935,1.554,13.25.7,18.364-2.473a5.689,5.689,0,0,0-.25-.638c-4.856,3.051-10.82,3.971-17.381,2.68a35.754,35.754,0,0,0,3.375-1.2,27.725,27.725,0,0,0,16.565-18.99,4.053,4.053,0,0,0-.456-.363,27.492,27.492,0,0,1-16.4,18.76c-.231.1-.468.193-.7.28l0,0c3.3-2.928,5.577-7.432,6.579-13.031a4.089,4.089,0,0,0-.464-.321c-1.119,6.181-3.8,11.007-7.734,13.8a.185.185,0,0,0-.061.161,53.305,53.305,0,0,1-13.283,2.363l0,0a25.639,25.639,0,0,0,8.559-8.631,5.277,5.277,0,0,0-.308-.667,25.11,25.11,0,0,1-9.592,9.294.124.124,0,0,0-.059.091q-.728.044-1.465.07a.545.545,0,0,1-.1,0c-2.772.116-5.6.133-8.459.121q-2.278-.011-4.543-.038a25.716,25.716,0,0,0,9.965-7.87q-.133-.314-.306-.63a25.362,25.362,0,0,1-11.151,8.4.115.115,0,0,0-.061.07,129.5,129.5,0,0,1-14.686-1.036l0,0a32.113,32.113,0,0,0,8.8-5.723,4.558,4.558,0,0,0-.263-.638A32.01,32.01,0,0,1,379,391.744a.134.134,0,0,0-.08.125q-3.725-.54-7.529-1.438c-2.034-.483-4.088-1.054-6.172-1.73-.124-.04-.2.06-.172.226a.489.489,0,0,0,.055.16.421.421,0,0,0,.217.21c2.143.69,4.255,1.275,6.348,1.772q2.943.691,5.835,1.161a82.156,82.156,0,0,0,15.76,10.519,2.651,2.651,0,0,0,.109-.5,80.357,80.357,0,0,1-15.03-9.885,118.648,118.648,0,0,0,14.978,1.275Z" transform="translate(-256.71 -155.547)" fill="#a9ae90"/>
        <g id="Grupo_1073474" data-name="Grupo 1073474" transform="translate(31.92 44.156)" opacity="0.2">
          <g id="Grupo_1073473" data-name="Grupo 1073473">
            <g id="Grupo_1073472" data-name="Grupo 1073472" clip-path="url(#clip-path-4)">
              <path id="Trazado_821987" data-name="Trazado 821987" d="M477.4,121.518a45.461,45.461,0,1,0,45.461-45.461A45.46,45.46,0,0,0,477.4,121.518" transform="translate(-477.398 -76.057)" fill="#fff"/>
            </g>
          </g>
        </g>
        <g id="Grupo_1073477" data-name="Grupo 1073477" transform="translate(41.226 53.461)" opacity="0.2">
          <g id="Grupo_1073476" data-name="Grupo 1073476">
            <g id="Grupo_1073475" data-name="Grupo 1073475" clip-path="url(#clip-path-5)">
              <path id="Trazado_821988" data-name="Trazado 821988" d="M493.425,128.241a36.156,36.156,0,1,0,36.156-36.156,36.156,36.156,0,0,0-36.156,36.156" transform="translate(-493.425 -92.085)" fill="#fff"/>
            </g>
          </g>
        </g>
        <path id="Trazado_821989" data-name="Trazado 821989" d="M504.431,133.9l3.23,3.1a11.129,11.129,0,0,1,3.244,9.986l-.79,4.411,4.43.608a11.126,11.126,0,0,1,8.506,6.182L525,162.22l3.939-2.113a11.129,11.129,0,0,1,10.522,0l3.94,2.113,1.945-4.026a11.129,11.129,0,0,1,8.506-6.183l4.43-.608-.79-4.41a11.129,11.129,0,0,1,3.244-9.986l3.23-3.1-3.23-3.1a11.129,11.129,0,0,1-3.244-9.986l.79-4.411-4.43-.608a11.129,11.129,0,0,1-8.506-6.183l-1.946-4.026-3.939,2.113a11.129,11.129,0,0,1-10.522,0L525,105.588l-1.946,4.026a11.128,11.128,0,0,1-8.506,6.183l-4.43.608.79,4.41a11.127,11.127,0,0,1-3.244,9.986Z" transform="translate(-456.816 -44.288)" fill="#e88400"/>
        <path id="Trazado_821990" data-name="Trazado 821990" d="M518.084,138.583a21.84,21.84,0,1,0,21.84-21.84,21.84,21.84,0,0,0-21.84,21.84" transform="translate(-462.543 -48.967)" fill="#ffc74a"/>
        <path id="Trazado_821991" data-name="Trazado 821991" d="M332.923,165.04a63.837,63.837,0,0,1,8.184-31.383c.834-1.5,1.734-2.968,2.694-4.387a64.63,64.63,0,0,1,13.906-14.913,64.205,64.205,0,0,1,97.838,77.427,91.193,91.193,0,0,0-2.375,30.415,7.174,7.174,0,0,1-.315,3.8c-.564,1.167-2.119,1.976-3.2,1.281-.913-.588-1.018-1.854-1.03-2.943q-.086-7.272-.172-14.542c-.009-.812.19-1.721-.568-2.28-1.7-1.255-3.833,1.377-4.47,2.675a17.909,17.909,0,0,0-1.359,9.662c.125,1.27.215,2.834-.872,3.537-1.117.723-2.676-.181-3.126-1.408a7.548,7.548,0,0,1,.078-3.892,6.239,6.239,0,0,0-.071-3.221c-.031-.085-.073-.158-.11-.237a64.4,64.4,0,0,1-8.141,5.717c-.026.362-.046.723-.063,1.08a175.983,175.983,0,0,0,.151,18.647,6.268,6.268,0,0,1-.642,4.038,2.375,2.375,0,0,1-2.1,1.116c-1.792-.132-2.315-2.346-2.421-4.086q-.388-6.386-.777-12.772c-.1-1.619-.5-3.61-2-4.089q-1.335.56-2.7,1.06c-.037.052-.078.1-.111.153a4.78,4.78,0,0,0-.556,2.984c.2,2.095,1.159,4.116.336,6.268a2.718,2.718,0,0,1-2.372,1.827c-2.128.07-2.851-2.482-2.585-4.433.236-1.732.837-3.6.162-5.159a63.9,63.9,0,0,1-6.5,1.429,4.648,4.648,0,0,0-.693,2.538c.042,1.255.6,2.474.069,3.746a1.566,1.566,0,0,1-1.48,1.015c-1.336-.074-1.506-1.753-1.69-3-.312-2.11-1.754-2.759-3.623-3.525-1.018.048-2.041.078-3.072.078a64.5,64.5,0,0,1-12.382-1.206c-2.112.539-3.036.2-3.054,2.313q-.045,5.451-.092,10.9c-.012,1.37-.275,3.1-1.6,3.5a2.167,2.167,0,0,1-2.345-1.073,5.894,5.894,0,0,1-.653-2.664c-.35-4.6-.194-9.277-1.116-13.792a7.946,7.946,0,0,0-.6-1.8,63.935,63.935,0,0,1-12.489-6.13.842.842,0,0,0-.713.809q-.171,4.287-.34,8.573c-.065,1.628-.706,3.815-2.341,3.711-1.468-.094-1.918-1.989-1.932-3.451-.042-4.533.286-9.289-.383-13.715a64.585,64.585,0,0,1-9.186-8.972,1.9,1.9,0,0,0-.092.2,5.662,5.662,0,0,0,.279,2.8,2.46,2.46,0,0,1-.668,2.613c-1.056.694-2.5-.343-2.77-1.557a9.775,9.775,0,0,1,.4-3.7,9.5,9.5,0,0,0-.347-4.514c-.707-1-1.392-2.011-2.042-3.049a1.819,1.819,0,0,0-2.373,1.552l-1.441,14.559a1.638,1.638,0,0,1-1.6,1.515c-1.166-.026-1.407-1.419-1.394-2.487.126-10.716-.416-20.335-.32-31-.1-.326-.2-.648-.293-.977a64.128,64.128,0,0,1-2.33-17.185" transform="translate(-254.657 -42.285)" fill="#5c624d"/>
        <path id="Trazado_821992" data-name="Trazado 821992" d="M373.974,330.987a3.177,3.177,0,0,1-.116,1.628,1.327,1.327,0,0,1-1.273.867c-.881-.1-1.2-1.2-1.282-2.079-.087-.932-.9-5.177.691-5.145,1.174.023,1.87,3.866,1.98,4.729" transform="translate(-189.424 -136.845)" fill="#8e9777"/>
        <path id="Trazado_821993" data-name="Trazado 821993" d="M461.281,333.9a3.58,3.58,0,0,1-.343,1.806,1.5,1.5,0,0,1-1.538.8c-.972-.223-1.187-1.5-1.162-2.493.026-1.054-.323-5.908,1.447-5.665,1.312.18,1.586,4.57,1.6,5.549" transform="translate(-327.308 -137.721)" fill="#8e9777"/>
        <path id="Trazado_821994" data-name="Trazado 821994" d="M340.7,284.245a2.368,2.368,0,0,1-.2,1.2.991.991,0,0,1-1.007.557c-.648-.132-.81-.973-.81-1.634,0-.7-.309-3.911.869-3.778.872.1,1.124,3,1.147,3.653" transform="translate(-137.304 -117.69)" fill="#8e9777"/>
        <path id="Trazado_821995" data-name="Trazado 821995" d="M531.7,302.5a1.76,1.76,0,0,1-.231,1.2,1.43,1.43,0,0,1-1.363.524,1.563,1.563,0,0,1-1.169-1.668c-.024-.7-.559-3.934,1.062-3.76,1.2.129,1.647,3.052,1.7,3.7" transform="translate(-438.731 -125.323)" fill="#8e9777"/>
        <path id="Trazado_821996" data-name="Trazado 821996" d="M364.425,185.671c3.868-3.022,9.418-2.813,13.644-5.305,2.975-1.764,5.025-4.7,7.284-7.313s5.1-5.108,8.541-5.413a19.771,19.771,0,0,1,6.146.924c2.026.471,4.226.769,6.139-.042s3.338-3.112,2.509-5.025c1.663.131,3.409-1.723,2.736-3.249-.358-.816-1.186-1.526-1.025-2.4.185-1.061,1.645-1.323,2.664-.96s1.937,1.073,3.01,1.085a3.08,3.08,0,0,0,2.736-2.158,6.334,6.334,0,0,0-.06-3.66c-.751-2.873-2.623-5.62-5.413-6.646s-6.443.232-7.391,3.046c-.334.989-.334,2.08-.757,3.028s-1.562,1.741-2.486,1.263c.823-3.058-.857-6.288-3.134-8.488s-5.126-3.707-7.564-5.728-4.554-4.84-4.453-8.005a21.153,21.153,0,0,1-5.3.238,3.526,3.526,0,0,1-2.73-2.312,4.07,4.07,0,0,1,.918-3.344,10.161,10.161,0,0,1,6.98-3.946,13.326,13.326,0,0,1,7.94,1.681,15.38,15.38,0,0,0,2.736,1.4,3.224,3.224,0,0,0,2.945-.322,12.271,12.271,0,0,0-8.488-7.4,12.464,12.464,0,0,0-10.98,2.879,9.6,9.6,0,0,1,8.5-10.246c2.283-.25,4.9.226,6.628-1.287a4.406,4.406,0,0,0,1.335-2.229,63.62,63.62,0,0,1,12.4,5.335,8.346,8.346,0,0,0,1.086,6.813c1.7,2.658,4.441,4.447,7.081,6.181s5.341,3.594,6.92,6.33c1.985,3.433,1.86,7.636,1.675,11.594q-.251,5.454-.5,10.9c-.084,1.818-.239,3.809-1.5,5.121-1.311,1.359-3.386,1.549-5.09,2.36-2.033.966-3.493,2.8-4.888,4.566q-2.013,2.566-4.03,5.132a13.685,13.685,0,0,1-3.439,3.439,4.631,4.631,0,0,1-4.643.316c-.638,3.308,3.362,5.847,3.91,9.168a6.071,6.071,0,0,1-.305,2.915l-.682,12.671a1.017,1.017,0,0,1-.834.979c-.78.1-1.04-.855-1.078-1.574l-.15-2.9c-.024-.477-.107-1.045-.539-1.249-.487-.23-1.062.221-1.212.737a4.881,4.881,0,0,0,0,1.6,4.383,4.383,0,0,1-.129,1.286.756.756,0,0,1-1.486-.153c0-.007,0-.014,0-.021a2.173,2.173,0,0,0-.525-1.361c-.624.684-1.267,1.352-1.935,1.994a91.341,91.341,0,0,0-.16,9.144,2.638,2.638,0,0,1-.157,1.242.888.888,0,0,1-1.028.52c-.463-.172-.565-.769-.6-1.263q-.224-3.769-.449-7.538c-1.01.832-2.049,1.628-3.133,2.362a30.6,30.6,0,0,1-5.2,20.761,5.945,5.945,0,0,1-2.348,2.217,2.361,2.361,0,0,1-2.921-.691c-.715-1.18.137-2.646.405-4.005.441-2.235-.852-4.512-2.611-5.961a12.868,12.868,0,0,0-1.881-1.264q-.107,3.659-.215,7.32c-.015.525-.118,1.176-.617,1.339a.889.889,0,0,1-1-.509,2.6,2.6,0,0,1-.188-1.191q0-2.673.006-5.345a2.791,2.791,0,0,0-.194-1.256.955.955,0,0,0-1.041-.56c-.675.2-.657,1.141-.561,1.837s-.149,1.684-.848,1.609a.919.919,0,0,1-.7-.909,8.33,8.33,0,0,1,.148-1.234c.135-1.489-.984-2.776-2.1-3.773a4.236,4.236,0,0,0-1.627-1.035,1.592,1.592,0,0,0-1.743.522c-.453.687-.091,1.587.057,2.4s-.257,1.935-1.07,1.809c-.707-.109-.883-1.033-.89-1.749q-.032-3.455-.065-6.91a18.253,18.253,0,0,1-3.651-5.046c-2.378-4.977-1.692-11.683,2.647-15.086" transform="translate(-236.535 -44.349)" fill="#454a39"/>
        <path id="Trazado_821997" data-name="Trazado 821997" d="M452.033,114.8a6.053,6.053,0,0,0-1.725,1.571c-.554.959-.322,2.165-.553,3.248-.4,1.861-3.184,4.775-5.069,4.165-2.169-.7-4.154-4.489-4.608-6.512-.657-2.932.6-6.406,3.351-7.608,2.523-1.1,5.45-.113,7.9,1.138.874.445,1.842,1.093,1.883,2.073a2.509,2.509,0,0,1-1.183,1.926" transform="translate(-308.609 -45.798)" fill="#454a39"/>
        <path id="Trazado_821998" data-name="Trazado 821998" d="M410.035,192.08a1.349,1.349,0,0,1,1,.417c1.176,1.624-4.522,3.614-5.611,4.037-2.108.819-4.3,3.2-6.452,3.477a1.342,1.342,0,0,1-1.482-.8,1.845,1.845,0,0,1,.434-1.48,13.347,13.347,0,0,1,12.107-5.647" transform="translate(-241.943 -80.541)" fill="#454a39"/>
        <path id="Trazado_821999" data-name="Trazado 821999" d="M490.988,136.885c-1.037-1.174-1.061-2.891-1.329-4.435s-1.126-3.29-2.688-3.427c-1.377-.12-2.462,1.061-3.612,1.812a6.421,6.421,0,0,1-4.721.834,64.375,64.375,0,0,1,32.914-25.136,4.749,4.749,0,0,1,.06.65,6.143,6.143,0,0,1-2.742,5.258,6.74,6.74,0,0,0-2.224,1.651c-.6.924-.423,2.193-.983,3.147a3.923,3.923,0,0,1-3.028,1.556,10.627,10.627,0,0,0-3.451.632c-1.055.513-1.865,1.818-1.335,2.867.56,1.121,2.194,1.18,3.314.626s1.985-1.532,3.105-2.092,2.748-.5,3.314.614a2.316,2.316,0,0,1-1.263,2.861,10.555,10.555,0,0,1-3.38.739,12.24,12.24,0,0,0-6.067,2.8,4.6,4.6,0,0,0-1.455,1.937,2.08,2.08,0,0,0,.513,2.241c.751.614,1.932.453,2.665,1.085a2.024,2.024,0,0,1,.31,2.4,4.34,4.34,0,0,1-1.914,1.711c-1.908,1.013-4.572,1.288-6-.334" transform="translate(-389.492 -44.684)" fill="#454a39"/>
        <path id="Trazado_822000" data-name="Trazado 822000" d="M546.325,151.739l-.125.411a1.361,1.361,0,0,1,.125-.411" transform="translate(-463.427 -63.645)" fill="#8e9777"/>
        <path id="Trazado_822001" data-name="Trazado 822001" d="M516.644,156.941c1.359-.089,2.706-.578,4.077-.614,3.052-.084,5.687,2,8.017,3.969a7.063,7.063,0,0,1,2.563,3.243c.334,1.216-.012,2.545.316,3.761.6,2.206,3.248,3.565,3.379,5.842.137,2.312-2.372,3.922-2.945,6.163-.53,2.086.722,4.184.948,6.33a6.556,6.556,0,0,1-.05,1.678q-.336,6.783-.671,13.565c-.042.854-.353,1.978-1.208,1.963-.875-.016-1.125-1.2-1.1-2.074q.045-1.815.091-3.629a3.957,3.957,0,0,0-.19-1.64,1.35,1.35,0,0,0-1.273-.892c-.783.074-1.174,1.015-1.155,1.8a8.076,8.076,0,0,1,.062,2.345c-.21.758-1.229,1.348-1.782.79a1.778,1.778,0,0,1-.232-1.472,5.159,5.159,0,0,0-.845-3.713,2.9,2.9,0,0,0-3.466-.959,3.205,3.205,0,0,0-1.51,2.241,12.809,12.809,0,0,0-.117,2.785,2.96,2.96,0,0,1-.267,1.512,1.106,1.106,0,0,1-1.3.561c-.577-.246-.666-1.012-.669-1.64q-.016-3.885-.034-7.77c-.066.017-.131.028-.2.049-2.236.7-3.35,3.207-3.714,5.514s-.274,4.757-1.287,6.86a11.626,11.626,0,0,1-1.288,2,64.348,64.348,0,0,1,5.853-48.567" transform="translate(-430.193 -65.569)" fill="#454a39"/>
        <g id="Grupo_1073480" data-name="Grupo 1073480" transform="translate(78.266 72.071)" style="mix-blend-mode: multiply;isolation: isolate">
          <g id="Grupo_1073479" data-name="Grupo 1073479">
            <g id="Grupo_1073478" data-name="Grupo 1073478" clip-path="url(#clip-path-6)">
              <path id="Trazado_822002" data-name="Trazado 822002" d="M337.2,174.824A64.235,64.235,0,0,0,463.17,192.575a48.543,48.543,0,0,1-14.723,14.043,62.308,62.308,0,0,1-30.1,8.733c-17.846.745-36.121-5.258-49.2-17.411S348.654,167.4,350.89,149.689a50.683,50.683,0,0,1,11.1-25.548,64.628,64.628,0,0,0-13.906,14.913c-.96,1.419-1.86,2.885-2.694,4.387a63.837,63.837,0,0,0-8.184,31.383" transform="translate(-337.204 -124.141)" fill="#e9efd5"/>
            </g>
          </g>
        </g>
        <g id="Grupo_1073483" data-name="Grupo 1073483" transform="translate(142.991 67.325)" opacity="0.4" style="mix-blend-mode: soft-light;isolation: isolate">
          <g id="Grupo_1073482" data-name="Grupo 1073482">
            <g id="Grupo_1073481" data-name="Grupo 1073481" clip-path="url(#clip-path-7)">
              <path id="Trazado_822003" data-name="Trazado 822003" d="M371.016,151.719c12.243,10.995,27.127,14.387,33.243,7.576s1.149-21.245-11.094-32.24-27.127-14.387-33.243-7.576-1.149,21.245,11.095,32.24" transform="translate(-357.305 -115.966)" fill="#fff"/>
            </g>
          </g>
        </g>
        <path id="Trazado_822004" data-name="Trazado 822004" d="M404.5,271.876a2.074,2.074,0,0,1-.161,1.052.864.864,0,0,1-.873.5c-.567-.109-.718-.841-.724-1.418-.006-.61-.308-3.411.721-3.307.762.077,1.011,2.611,1.038,3.177" transform="translate(-238.289 -112.702)" fill="#a9ae90"/>
        <path id="Trazado_822005" data-name="Trazado 822005" d="M526.7,237.6a1.616,1.616,0,0,1-.126.821.675.675,0,0,1-.681.387c-.442-.085-.559-.656-.564-1.106,0-.477-.24-2.66.563-2.579.594.06.788,2.036.809,2.477" transform="translate(-431.671 -98.618)" fill="#a9ae90"/>
        <path id="Trazado_822006" data-name="Trazado 822006" d="M368.475,115.085V85.253a4.746,4.746,0,1,1,9.493,0v29.832a10.864,10.864,0,1,1-9.493,0" transform="translate(-194.456 -33.767)" fill="#fff"/>
        <path id="Trazado_822007" data-name="Trazado 822007" d="M366.668,126.656a8.358,8.358,0,1,0,12.007-7.507l-1.411-.685V87.06a2.242,2.242,0,0,0-4.484,0v31.4l-1.4.685a8.3,8.3,0,0,0-4.71,7.507" transform="translate(-196.257 -35.578)" fill="#ffc74a"/>
        <path id="Trazado_822008" data-name="Trazado 822008" d="M366.668,138.987a8.358,8.358,0,1,0,12.007-7.507l-1.411-.685V114.22H372.78v16.575l-1.4.685a8.3,8.3,0,0,0-4.71,7.507" transform="translate(-196.257 -47.908)" fill="#d84e4e"/>
        <path id="Trazado_822009" data-name="Trazado 822009" d="M275.987,143.97h37.867a10.229,10.229,0,0,0-5.184-5.87,9.76,9.76,0,0,0-7.644.08,10.293,10.293,0,0,0-19.933-2.458,3.855,3.855,0,0,0-4.153.023,4.849,4.849,0,0,0-2.392,3.534c-.223,1.458.687,3.423,1.439,4.691" transform="translate(-73.226 -54.068)" fill="#fff"/>
        <path id="Trazado_822010" data-name="Trazado 822010" d="M419.913,86.5H448.4a2.183,2.183,0,0,0-.961-1.763,2.457,2.457,0,0,0-2.133-.179,6.961,6.961,0,0,0-12.447-4.226,3.459,3.459,0,0,0-3.12-1.181,3.582,3.582,0,0,0-2.781,1.956,3.422,3.422,0,0,0-3.316-1.023,4.27,4.27,0,0,0-2.833,2.171,7.884,7.884,0,0,0-.9,4.244" transform="translate(-292.158 -32.58)" fill="#fff"/>
        <path id="Trazado_822011" data-name="Trazado 822011" d="M550.659,211.324h20.049c-.175-1.684-1.736-2.819-3.387-3.193a11.592,11.592,0,0,0-5.025.326c.32-1.375-.621-2.514-1.705-3.419a8.3,8.3,0,0,0-4.823-2.024,5.713,5.713,0,0,0-4.721,1.995c-1.1,1.389-1.356,4.829-.388,6.315" transform="translate(-490.049 -85.149)" fill="#fff"/>
        <path id="Trazado_822012" data-name="Trazado 822012" d="M463.427,360.071v21.947h28.706l-.8-25.879-.017-.5-.014-.444-.014-.5-.329-10.563-.014-.5-.052-1.638h-4.112l-.052,1.638-.014.5-.329,10.563-.017.5-.014.444-.014.5-.176,5.661h-4.286v2.882l-4.615-4.611v4.611l-4.611-4.611v4.611l-4.611-4.611v4.611Z" transform="translate(-361.18 -143.446)" fill="#faf2db"/>
        <rect id="Rectángulo_377718" data-name="Rectángulo 377718" width="2.255" height="2.255" transform="translate(121.39 225.379)" fill="#a9ae90"/>
        <rect id="Rectángulo_377719" data-name="Rectángulo 377719" width="2.255" height="2.255" transform="translate(116.574 225.379)" fill="#a9ae90"/>
        <rect id="Rectángulo_377720" data-name="Rectángulo 377720" width="2.255" height="2.255" transform="translate(111.757 225.379)" fill="#a9ae90"/>
        <rect id="Rectángulo_377721" data-name="Rectángulo 377721" width="2.255" height="2.255" transform="translate(106.94 225.379)" fill="#a9ae90"/>
        <path id="Trazado_822013" data-name="Trazado 822013" d="M465.456,345.315H469.7l-.014-.5H465.47Z" transform="translate(-339.924 -144.63)" fill="#ffc74a"/>
        <path id="Trazado_822014" data-name="Trazado 822014" d="M464.866,364.372H469.8l-.013-.5h-4.9Z" transform="translate(-339.681 -152.621)" fill="#ffc74a"/>
        <path id="Trazado_822015" data-name="Trazado 822015" d="M464.811,366H469.8l-.017-.5h-4.961Z" transform="translate(-339.654 -153.305)" fill="#ffc74a"/>
        <path id="Trazado_822016" data-name="Trazado 822016" d="M571.508,289a4.292,4.292,0,0,0,1.788-.362,3.918,3.918,0,0,0,4.035,3.672,4.125,4.125,0,0,0,1.969-.459,3.836,3.836,0,0,0,3.552,2.44,3.3,3.3,0,0,0,2.368,2.452c-.676,2.44.617,5.5,3.9,5.5.048,0,.1-.012.145-.012a3.856,3.856,0,0,0,1.462,1.957,4.439,4.439,0,0,0,1.667,5.98,3.445,3.445,0,0,0,3.468,3.914,3.667,3.667,0,0,0,1.606-.35,3.363,3.363,0,0,0,2.5,1.015,3.7,3.7,0,0,0,1.607-.351,3.429,3.429,0,0,0,2.235.749c4.277,0,4.615-6.065,1.064-7.091,2.488-1.933,1.993-6.717-1.486-7.514,1.909-2.416.858-7.019-3.153-7.019a4.269,4.269,0,0,0-1.462.254,4.475,4.475,0,0,0-1.51-5.5c1.281-1.908.628-5.086-1.945-5.689,1.329-2.5.145-6.4-3.551-6.4a3.889,3.889,0,0,0-2.948,1.2,4.19,4.19,0,0,0-2.09-.531,4.463,4.463,0,0,0-1.5.266,4.458,4.458,0,0,0-4.59-3.914c-5.557,0-6.125,7.683-1.764,9.326a3.911,3.911,0,0,0-.266,1.534,4.344,4.344,0,0,0-3.056.157,3.939,3.939,0,0,0-4.047-3.673c-5.449,0-5.436,8.456,0,8.456" transform="translate(-536.727 -114.591)" fill="#f7f3eb"/>
        <path id="Trazado_822017" data-name="Trazado 822017" d="M626.09,265.694c4.665,0,4.672,7.248,0,7.248s-4.672-7.248,0-7.248" transform="translate(-591.042 -111.443)" fill="#f7f3eb"/>
        <path id="Trazado_822018" data-name="Trazado 822018" d="M644.3,265.822c3.887,0,3.893,6.04,0,6.04s-3.893-6.04,0-6.04" transform="translate(-619.572 -111.496)" fill="#f7f3eb"/>
        <path id="Trazado_822019" data-name="Trazado 822019" d="M628.3,305.625c3.109,0,3.115,4.832,0,4.832s-3.115-4.832,0-4.832" transform="translate(-594.048 -128.191)" fill="#f7f3eb"/>
        <path id="Trazado_822020" data-name="Trazado 822020" d="M549.772,382.194h35.2c-.369-1.06-.715-2.13-1.05-3.2-.2-.633-.389-1.271-.576-1.909-.1-.341-.2-.676-.288-1.017-.091-.316-.182-.638-.269-.955a168,168,0,0,1-4.879-29.333c-.048-.522-.1-1.046-.134-1.573-.1-1.094-.178-2.2-.26-3.306H557.228c-.082,1.108-.163,2.212-.259,3.306-.038.528-.087,1.051-.135,1.573a167.934,167.934,0,0,1-4.879,29.333c-.086.317-.178.639-.269.955-.091.341-.192.676-.288,1.017-.187.638-.379,1.276-.575,1.909-.336,1.075-.682,2.145-1.051,3.2" transform="translate(-504.143 -142.985)" fill="#faf2db"/>
        <path id="Trazado_822021" data-name="Trazado 822021" d="M561.936,348.163h21.071c-.048-.523-.1-1.046-.135-1.574h-20.8c-.038.528-.086,1.051-.134,1.574" transform="translate(-509.245 -145.373)" fill="#ffc74a"/>
        <path id="Trazado_822022" data-name="Trazado 822022" d="M551.582,405.132h33.094c-.2-.633-.388-1.271-.576-1.91H552.158c-.187.638-.379,1.276-.576,1.91" transform="translate(-504.903 -169.127)" fill="#ffc74a"/>
        <path id="Trazado_822023" data-name="Trazado 822023" d="M553.069,400.78h31.367c-.091-.316-.182-.638-.269-.955H553.338c-.086.317-.178.639-.269.955" transform="translate(-505.526 -167.703)" fill="#ffc74a"/>
        <g id="Grupo_1073486" data-name="Grupo 1073486" transform="translate(47.615 197.911)" style="mix-blend-mode: multiply;isolation: isolate">
          <g id="Grupo_1073485" data-name="Grupo 1073485">
            <g id="Grupo_1073484" data-name="Grupo 1073484" clip-path="url(#clip-path-8)">
              <path id="Trazado_822024" data-name="Trazado 822024" d="M588.207,382.194h4.635c3.3-12.522,5.066-27.457,6.261-41.3H595.47c-.988,13.961-2.711,28.829-7.263,41.3" transform="translate(-588.207 -340.896)" fill="#f9eed9"/>
            </g>
          </g>
        </g>
        <path id="Trazado_822025" data-name="Trazado 822025" d="M523.289,261.526c-.918,2.815.543,6.524,4.4,6.524a4.829,4.829,0,0,0,2.223-.507,4.4,4.4,0,0,0,4.4,3.141,4.679,4.679,0,0,0,2.3-.568,3.3,3.3,0,0,0,3.286,2.319,4.081,4.081,0,0,0,.785-.085c-.918,2.6.218,5.992,3.395,6.56a3.36,3.36,0,0,0,3.467,3.213,3.614,3.614,0,0,0,.979-.121,2.823,2.823,0,0,0,2.9,2.827,2.992,2.992,0,0,0,1.075-.193,3.671,3.671,0,0,0,.229,1.245c-4,1.909-3.286,9.205,2.114,9.205a4.915,4.915,0,0,1,5.7.109c5.775,0,6.185-8.288,1.256-9.5a3.242,3.242,0,0,0-.628-4.494c1.945-2.4.894-7.043-3.129-7.043a5.126,5.126,0,0,0-.773.072c1.256-3.213-.338-7.671-4.82-7.671a5.84,5.84,0,0,0-1.511.218c.919-3.153-.737-7.176-4.989-7.176a5.548,5.548,0,0,0-1.921.35c2.138-4.289.085-10.824-6.173-10.824a6.745,6.745,0,0,0-4.977,1.969,6.588,6.588,0,0,0-5.859-3.1c-7.876,0-9.108,10.281-3.721,13.53" transform="translate(-467.092 -104.019)" fill="#fff"/>
        <path id="Trazado_822026" data-name="Trazado 822026" d="M522.922,266.555c-5.441,0-5.45-8.456,0-8.456s5.45,8.456,0,8.456" transform="translate(-428.223 -108.257)" fill="#fff"/>
        <path id="Trazado_822027" data-name="Trazado 822027" d="M527.723,273.99c3.109,0,3.115,4.832,0,4.832s-3.115-4.832,0-4.832" transform="translate(-435.076 -114.922)" fill="#fff"/>
        <path id="Trazado_822028" data-name="Trazado 822028" d="M543.353,254.768c-5.441,0-5.45-8.456,0-8.456s5.45,8.456,0,8.456" transform="translate(-460.515 -103.313)" fill="#fff"/>
        <path id="Trazado_822029" data-name="Trazado 822029" d="M572.122,289.691c4.664,0,4.672,7.248,0,7.248s-4.672-7.248,0-7.248" transform="translate(-505.741 -121.508)" fill="#fff"/>
        <path id="Trazado_822030" data-name="Trazado 822030" d="M567.48,305.355c5.441,0,5.45,8.456,0,8.456s-5.45-8.456,0-8.456" transform="translate(-498.65 -128.078)" fill="#fff"/>
        <path id="Trazado_822031" data-name="Trazado 822031" d="M588.544,286.16c3.887,0,3.893,6.04,0,6.04s-3.893-6.04,0-6.04" transform="translate(-531.453 -120.027)" fill="#fff"/>
        <path id="Trazado_822032" data-name="Trazado 822032" d="M603.245,269.646c4.664,0,4.672,7.248,0,7.248s-4.672-7.248,0-7.248" transform="translate(-554.933 -113.1)" fill="#fff"/>
        <path id="Trazado_822033" data-name="Trazado 822033" d="M497.038,373.694h42.59c-.447-1.283-.865-2.578-1.271-3.878-.238-.766-.47-1.539-.7-2.311-.116-.412-.238-.819-.348-1.231-.11-.383-.221-.772-.325-1.155a203.255,203.255,0,0,1-5.9-35.5c-.058-.633-.116-1.266-.163-1.9-.116-1.324-.215-2.659-.313-4H506.06c-.1,1.341-.2,2.676-.314,4-.046.639-.1,1.271-.163,1.9a203.244,203.244,0,0,1-5.9,35.5c-.1.383-.215.772-.325,1.155-.11.412-.232.819-.348,1.231-.226.772-.459,1.544-.7,2.311-.406,1.3-.824,2.6-1.271,3.878" transform="translate(-428.188 -135.781)" fill="#faf2db"/>
        <path id="Trazado_822034" data-name="Trazado 822034" d="M511.758,332.514h25.5c-.058-.633-.116-1.266-.163-1.9H511.921c-.046.639-.1,1.271-.163,1.9" transform="translate(-434.362 -138.671)" fill="#ffc74a"/>
        <path id="Trazado_822035" data-name="Trazado 822035" d="M499.228,401.45h40.047c-.238-.766-.47-1.538-.7-2.311H499.925c-.226.772-.459,1.544-.7,2.311" transform="translate(-429.107 -167.415)" fill="#ffc74a"/>
        <path id="Trazado_822036" data-name="Trazado 822036" d="M501.028,396.185h37.957c-.11-.383-.221-.772-.325-1.155H501.353c-.1.383-.215.772-.325,1.155" transform="translate(-429.862 -165.691)" fill="#ffc74a"/>
        <g id="Grupo_1073489" data-name="Grupo 1073489" transform="translate(71.253 187.939)" style="mix-blend-mode: multiply;isolation: isolate">
          <g id="Grupo_1073488" data-name="Grupo 1073488">
            <g id="Grupo_1073487" data-name="Grupo 1073487" clip-path="url(#clip-path-9)">
              <path id="Trazado_822037" data-name="Trazado 822037" d="M543.548,373.694h5.608c3.994-15.153,6.131-33.225,7.576-49.975h-4.395c-1.2,16.894-3.28,34.886-8.79,49.975" transform="translate(-543.548 -323.72)" fill="#f9eed9"/>
            </g>
          </g>
        </g>
        <path id="Trazado_822038" data-name="Trazado 822038" d="M314.9,214.194c3.029,4.7,6.42,10.143,5.813,15.989-.375,3.615-2.849,6.326-4.977,9.075a16.038,16.038,0,0,0-3.14,11.652c.546,4.593,3.232,8.21,5.892,11.836" transform="translate(-102.206 -89.842)" fill="none" stroke="#fff" stroke-linecap="round" stroke-linejoin="round" stroke-width="0.75"/>
        <path id="Trazado_822039" data-name="Trazado 822039" d="M324.835,214.194c3.029,4.7,6.42,10.143,5.813,15.989-.375,3.615-2.849,6.326-4.977,9.075a16.038,16.038,0,0,0-3.14,11.652c.546,4.593,3.232,8.21,5.892,11.836" transform="translate(-117.901 -89.842)" fill="none" stroke="#fff" stroke-linecap="round" stroke-linejoin="round" stroke-width="0.75"/>
        <path id="Trazado_822040" data-name="Trazado 822040" d="M334.765,214.194c3.029,4.7,6.42,10.143,5.813,15.989-.375,3.615-2.849,6.326-4.977,9.075a16.038,16.038,0,0,0-3.14,11.652c.546,4.593,3.233,8.21,5.892,11.836" transform="translate(-133.596 -89.842)" fill="none" stroke="#fff" stroke-linecap="round" stroke-linejoin="round" stroke-width="0.75"/>
        <path id="Trazado_822041" data-name="Trazado 822041" d="M344.695,214.194c3.029,4.7,6.42,10.143,5.813,15.989-.375,3.615-2.849,6.326-4.977,9.075a16.038,16.038,0,0,0-3.14,11.652c.546,4.593,3.233,8.21,5.892,11.836" transform="translate(-149.291 -89.842)" fill="none" stroke="#fff" stroke-linecap="round" stroke-linejoin="round" stroke-width="0.75"/>
      </g>
    </g>
  </g>
</svg>
