<svg xmlns="http://www.w3.org/2000/svg" xmlns:xlink="http://www.w3.org/1999/xlink" width="190" height="203" viewBox="0 0 190 203">
  <defs>
    <linearGradient id="linear-gradient" x1="0.5" x2="0.5" y2="1" gradientUnits="objectBoundingBox">
      <stop offset="0" stop-color="#defff8"/>
      <stop offset="0.803" stop-color="#eaf5ff"/>
      <stop offset="1" stop-color="#f0feff"/>
    </linearGradient>
    <clipPath id="clip-path">
      <rect id="Rectángulo_377392" data-name="Rectángulo 377392" width="136" height="136" transform="translate(319 1885.867)" fill="none" stroke="#707070" stroke-width="1"/>
    </clipPath>
    <clipPath id="clip-path-2">
      <rect id="Rectángulo_377399" data-name="Rectángulo 377399" width="115.97" height="115.653" fill="none"/>
    </clipPath>
  </defs>
  <g id="Grupo_1073527" data-name="Grupo 1073527" transform="translate(-495 -3950)">
    <rect id="Rectángulo_377385" data-name="Rectángulo 377385" width="190" height="203" rx="20" transform="translate(495 3950)" fill="url(#linear-gradient)"/>
    <path id="Trazado_822140" data-name="Trazado 822140" d="M-56.391-4.164h-1.867V0H-60.6V-11.375h4.227a4.778,4.778,0,0,1,3.109.9,3.1,3.1,0,0,1,1.094,2.539A3.5,3.5,0,0,1-52.676-6,3.437,3.437,0,0,1-54.2-4.758l2.461,4.648V0h-2.516Zm-1.867-1.9h1.891A1.936,1.936,0,0,0-55-6.512a1.606,1.606,0,0,0,.484-1.238,1.719,1.719,0,0,0-.457-1.266,1.9,1.9,0,0,0-1.4-.461h-1.883ZM-46.648.156A4.15,4.15,0,0,1-49.676-.984a4.054,4.054,0,0,1-1.168-3.039v-.219a5.106,5.106,0,0,1,.492-2.277,3.612,3.612,0,0,1,1.395-1.547A3.914,3.914,0,0,1-46.9-8.609a3.508,3.508,0,0,1,2.73,1.094,4.444,4.444,0,0,1,1,3.1v.922h-5.383a2.1,2.1,0,0,0,.66,1.328,2,2,0,0,0,1.395.5,2.437,2.437,0,0,0,2.039-.945l1.109,1.242A3.389,3.389,0,0,1-44.727-.246,4.511,4.511,0,0,1-46.648.156Zm-.258-6.945A1.411,1.411,0,0,0-48-6.334a2.357,2.357,0,0,0-.535,1.3h3.141v-.181A1.681,1.681,0,0,0-45.8-6.377,1.456,1.456,0,0,0-46.906-6.789Zm9.594,4.453a.727.727,0,0,0-.41-.652,4.659,4.659,0,0,0-1.316-.426q-3.016-.633-3.016-2.562a2.323,2.323,0,0,1,.934-1.879,3.766,3.766,0,0,1,2.441-.754,4.053,4.053,0,0,1,2.574.758,2.388,2.388,0,0,1,.965,1.969H-37.4a1.092,1.092,0,0,0-.312-.8A1.322,1.322,0,0,0-38.687-7a1.351,1.351,0,0,0-.883.258.814.814,0,0,0-.312.656.7.7,0,0,0,.355.605,3.657,3.657,0,0,0,1.2.4,9.8,9.8,0,0,1,1.422.379A2.336,2.336,0,0,1-35.117-2.43a2.2,2.2,0,0,1-.992,1.871,4.28,4.28,0,0,1-2.562.715,4.47,4.47,0,0,1-1.887-.379,3.166,3.166,0,0,1-1.293-1.039,2.414,2.414,0,0,1-.469-1.426h2.141a1.179,1.179,0,0,0,.445.922,1.766,1.766,0,0,0,1.109.32,1.635,1.635,0,0,0,.98-.246A.766.766,0,0,0-37.312-2.336Zm11.258-1.812a5.07,5.07,0,0,1-.887,3.129A2.843,2.843,0,0,1-29.336.156a2.633,2.633,0,0,1-2.07-.891V3.25h-2.258v-11.7h2.094l.078.828a2.654,2.654,0,0,1,2.141-.984,2.862,2.862,0,0,1,2.43,1.156,5.207,5.207,0,0,1,.867,3.188Zm-2.258-.164a3.327,3.327,0,0,0-.418-1.82,1.361,1.361,0,0,0-1.215-.641,1.478,1.478,0,0,0-1.461.813V-2.5a1.5,1.5,0,0,0,1.477.836Q-28.312-1.664-28.312-4.312Zm3.3.008a5.013,5.013,0,0,1,.484-2.242A3.546,3.546,0,0,1-23.129-8.07a4.069,4.069,0,0,1,2.113-.539,3.849,3.849,0,0,1,2.793,1.047,4.2,4.2,0,0,1,1.207,2.844l.016.578A4.418,4.418,0,0,1-18.086-1.02,3.775,3.775,0,0,1-21,.156a3.793,3.793,0,0,1-2.918-1.172A4.5,4.5,0,0,1-25.008-4.2Zm2.258.16A3.16,3.16,0,0,0-22.3-2.3a1.5,1.5,0,0,0,1.3.638,1.5,1.5,0,0,0,1.281-.63,3.457,3.457,0,0,0,.461-2.015,3.128,3.128,0,0,0-.461-1.831,1.5,1.5,0,0,0-1.3-.649,1.474,1.474,0,0,0-1.281.646A3.516,3.516,0,0,0-22.75-4.144Zm9.219-4.309.07.977a2.951,2.951,0,0,1,2.43-1.133,2.453,2.453,0,0,1,2,.789,3.682,3.682,0,0,1,.672,2.359V0h-2.258V-5.406a1.465,1.465,0,0,0-.312-1.043,1.4,1.4,0,0,0-1.039-.324,1.553,1.553,0,0,0-1.43.813V0h-2.258V-8.453ZM-2.07-2.336a.727.727,0,0,0-.41-.652A4.659,4.659,0,0,0-3.8-3.414q-3.016-.633-3.016-2.562a2.323,2.323,0,0,1,.934-1.879,3.766,3.766,0,0,1,2.441-.754,4.053,4.053,0,0,1,2.574.758A2.388,2.388,0,0,1,.1-5.883H-2.156a1.092,1.092,0,0,0-.312-.8A1.322,1.322,0,0,0-3.445-7a1.351,1.351,0,0,0-.883.258.814.814,0,0,0-.312.656.7.7,0,0,0,.355.605,3.657,3.657,0,0,0,1.2.4A9.8,9.8,0,0,1-1.664-4.7,2.336,2.336,0,0,1,.125-2.43,2.2,2.2,0,0,1-.867-.559,4.28,4.28,0,0,1-3.43.156,4.47,4.47,0,0,1-5.316-.223,3.166,3.166,0,0,1-6.609-1.262a2.414,2.414,0,0,1-.469-1.426h2.141a1.179,1.179,0,0,0,.445.922,1.766,1.766,0,0,0,1.109.32,1.635,1.635,0,0,0,.98-.246A.766.766,0,0,0-2.07-2.336ZM6.477,0A2.507,2.507,0,0,1,6.25-.758,2.732,2.732,0,0,1,4.117.156,3,3,0,0,1,2.059-.562a2.312,2.312,0,0,1-.816-1.812,2.389,2.389,0,0,1,1-2.062,4.915,4.915,0,0,1,2.879-.727H6.156v-.484a1.393,1.393,0,0,0-.3-.937,1.183,1.183,0,0,0-.949-.352,1.345,1.345,0,0,0-.895.273.929.929,0,0,0-.324.75H1.43a2.268,2.268,0,0,1,.453-1.359,3,3,0,0,1,1.281-.98,4.669,4.669,0,0,1,1.859-.355,3.689,3.689,0,0,1,2.48.785,2.747,2.747,0,0,1,.918,2.207v3.664a4.041,4.041,0,0,0,.336,1.82V0ZM4.609-1.57a1.945,1.945,0,0,0,.922-.223,1.462,1.462,0,0,0,.625-.6V-3.844H5.313q-1.7,0-1.8,1.172L3.5-2.539a.9.9,0,0,0,.3.7A1.153,1.153,0,0,0,4.609-1.57ZM17.773-4.148A5.119,5.119,0,0,1,16.906-.98,2.872,2.872,0,0,1,14.484.156,2.639,2.639,0,0,1,12.289-.9l-.1.9H10.156V-12h2.258v4.3a2.571,2.571,0,0,1,2.055-.914,2.9,2.9,0,0,1,2.426,1.137,5.126,5.126,0,0,1,.879,3.2Zm-2.258-.164a3.363,3.363,0,0,0-.406-1.871,1.374,1.374,0,0,0-1.211-.59,1.489,1.489,0,0,0-1.484.883v3.336a1.509,1.509,0,0,0,1.5.891,1.394,1.394,0,0,0,1.438-1.078A5.562,5.562,0,0,0,15.516-4.312ZM21.547,0H19.281V-8.453h2.266Zm-2.4-10.641a1.112,1.112,0,0,1,.34-.836,1.277,1.277,0,0,1,.926-.328,1.28,1.28,0,0,1,.922.328,1.105,1.105,0,0,1,.344.836,1.108,1.108,0,0,1-.348.844,1.283,1.283,0,0,1-.918.328A1.283,1.283,0,0,1,19.5-9.8,1.108,1.108,0,0,1,19.148-10.641ZM25.789,0H23.523V-12h2.266Zm4.242,0H27.766V-8.453h2.266Zm-2.4-10.641a1.112,1.112,0,0,1,.34-.836A1.277,1.277,0,0,1,28.9-11.8a1.28,1.28,0,0,1,.922.328,1.105,1.105,0,0,1,.344.836,1.108,1.108,0,0,1-.348.844,1.283,1.283,0,0,1-.918.328A1.283,1.283,0,0,1,27.98-9.8,1.108,1.108,0,0,1,27.633-10.641Zm3.906,6.352a5.094,5.094,0,0,1,.887-3.148,2.877,2.877,0,0,1,2.426-1.172,2.589,2.589,0,0,1,2.039.922V-12h2.266V0H37.117l-.109-.9A2.657,2.657,0,0,1,34.836.156,2.869,2.869,0,0,1,32.441-1.02,5.258,5.258,0,0,1,31.539-4.289Zm2.258.168A3.337,3.337,0,0,0,34.211-2.3a1.349,1.349,0,0,0,1.2.634,1.511,1.511,0,0,0,1.477-.884V-5.889a1.489,1.489,0,0,0-1.461-.884Q33.8-6.773,33.8-4.121ZM45.8,0a2.507,2.507,0,0,1-.227-.758,2.732,2.732,0,0,1-2.133.914,3,3,0,0,1-2.059-.719,2.312,2.312,0,0,1-.816-1.812,2.389,2.389,0,0,1,1-2.062,4.915,4.915,0,0,1,2.879-.727h1.039v-.484a1.393,1.393,0,0,0-.3-.937,1.183,1.183,0,0,0-.949-.352,1.345,1.345,0,0,0-.895.273.929.929,0,0,0-.324.75H40.758a2.268,2.268,0,0,1,.453-1.359,3,3,0,0,1,1.281-.98,4.669,4.669,0,0,1,1.859-.355,3.689,3.689,0,0,1,2.48.785,2.747,2.747,0,0,1,.918,2.207v3.664a4.041,4.041,0,0,0,.336,1.82V0ZM43.938-1.57a1.945,1.945,0,0,0,.922-.223,1.462,1.462,0,0,0,.625-.6V-3.844h-.844q-1.7,0-1.8,1.172l-.008.133a.9.9,0,0,0,.3.7A1.153,1.153,0,0,0,43.938-1.57Zm5.2-2.719a5.094,5.094,0,0,1,.887-3.148,2.877,2.877,0,0,1,2.426-1.172,2.589,2.589,0,0,1,2.039.922V-12H56.75V0H54.711L54.6-.9A2.657,2.657,0,0,1,52.43.156,2.869,2.869,0,0,1,50.035-1.02,5.258,5.258,0,0,1,49.133-4.289Zm2.258.168A3.337,3.337,0,0,0,51.8-2.3a1.349,1.349,0,0,0,1.2.634,1.511,1.511,0,0,0,1.477-.884V-5.889a1.489,1.489,0,0,0-1.461-.884Q51.391-6.773,51.391-4.121ZM-29.992,18a2.507,2.507,0,0,1-.227-.758,2.732,2.732,0,0,1-2.133.914,3,3,0,0,1-2.059-.719,2.312,2.312,0,0,1-.816-1.812,2.389,2.389,0,0,1,1-2.062,4.915,4.915,0,0,1,2.879-.727h1.039v-.484a1.393,1.393,0,0,0-.3-.937,1.183,1.183,0,0,0-.949-.352,1.345,1.345,0,0,0-.895.273.929.929,0,0,0-.324.75h-2.258a2.268,2.268,0,0,1,.453-1.359,3,3,0,0,1,1.281-.98,4.669,4.669,0,0,1,1.859-.355,3.689,3.689,0,0,1,2.48.785,2.747,2.747,0,0,1,.918,2.207v3.664a4.041,4.041,0,0,0,.336,1.82V18Zm-1.867-1.57a1.945,1.945,0,0,0,.922-.223,1.462,1.462,0,0,0,.625-.6V14.156h-.844q-1.7,0-1.8,1.172l-.008.133a.9.9,0,0,0,.3.7A1.153,1.153,0,0,0-31.859,16.43ZM-24.2,9.547l.07.945a2.971,2.971,0,0,1,2.43-1.1,2.255,2.255,0,0,1,2.242,1.289,2.9,2.9,0,0,1,2.539-1.289,2.521,2.521,0,0,1,2.047.8A3.681,3.681,0,0,1-14.2,12.6V18h-2.266V12.609a1.61,1.61,0,0,0-.281-1.051,1.246,1.246,0,0,0-.992-.332,1.409,1.409,0,0,0-1.406.969l.008,5.8h-2.258V12.617a1.59,1.59,0,0,0-.289-1.062,1.259,1.259,0,0,0-.984-.328,1.463,1.463,0,0,0-1.391.8V18h-2.258V9.547Zm19.352,4.3a5.119,5.119,0,0,1-.867,3.168,2.872,2.872,0,0,1-2.422,1.137,2.639,2.639,0,0,1-2.2-1.055l-.1.9h-2.031V6H-10.2v4.3a2.571,2.571,0,0,1,2.055-.914,2.9,2.9,0,0,1,2.426,1.137,5.126,5.126,0,0,1,.879,3.2ZM-7.1,13.688a3.363,3.363,0,0,0-.406-1.871,1.374,1.374,0,0,0-1.211-.59,1.489,1.489,0,0,0-1.484.883v3.336a1.509,1.509,0,0,0,1.5.891,1.394,1.394,0,0,0,1.438-1.078A5.562,5.562,0,0,0-7.1,13.688ZM-1.07,18H-3.336V9.547H-1.07Zm-2.4-10.641a1.112,1.112,0,0,1,.34-.836A1.277,1.277,0,0,1-2.2,6.2a1.28,1.28,0,0,1,.922.328,1.105,1.105,0,0,1,.344.836,1.108,1.108,0,0,1-.348.844,1.283,1.283,0,0,1-.918.328A1.283,1.283,0,0,1-3.121,8.2,1.108,1.108,0,0,1-3.469,7.359Zm8.148,10.8a4.15,4.15,0,0,1-3.027-1.141A4.054,4.054,0,0,1,.484,13.977v-.219A5.106,5.106,0,0,1,.977,11.48,3.612,3.612,0,0,1,2.371,9.934,3.914,3.914,0,0,1,4.43,9.391a3.508,3.508,0,0,1,2.73,1.094,4.444,4.444,0,0,1,1,3.1v.922H2.773a2.1,2.1,0,0,0,.66,1.328,2,2,0,0,0,1.395.5,2.437,2.437,0,0,0,2.039-.945l1.109,1.242A3.389,3.389,0,0,1,6.6,17.754,4.511,4.511,0,0,1,4.68,18.156Zm-.258-6.945a1.411,1.411,0,0,0-1.09.455,2.357,2.357,0,0,0-.535,1.3H5.938v-.181a1.681,1.681,0,0,0-.406-1.165A1.456,1.456,0,0,0,4.422,11.211Zm7.094-1.664.07.977a2.951,2.951,0,0,1,2.43-1.133,2.453,2.453,0,0,1,2,.789,3.682,3.682,0,0,1,.672,2.359V18H14.43V12.594a1.465,1.465,0,0,0-.312-1.043,1.4,1.4,0,0,0-1.039-.324,1.553,1.553,0,0,0-1.43.813V18H9.391V9.547ZM21.1,7.469V9.547h1.445V11.2H21.1v4.219a1.007,1.007,0,0,0,.18.672.9.9,0,0,0,.688.2,3.6,3.6,0,0,0,.664-.055v1.711a4.648,4.648,0,0,1-1.367.2,2.156,2.156,0,0,1-2.422-2.4V11.2H17.609V9.547h1.234V7.469ZM28.7,18a2.507,2.507,0,0,1-.227-.758,2.732,2.732,0,0,1-2.133.914,3,3,0,0,1-2.059-.719,2.312,2.312,0,0,1-.816-1.812,2.389,2.389,0,0,1,1-2.062,4.915,4.915,0,0,1,2.879-.727h1.039v-.484a1.393,1.393,0,0,0-.3-.937,1.183,1.183,0,0,0-.949-.352,1.345,1.345,0,0,0-.895.273.929.929,0,0,0-.324.75H23.656a2.268,2.268,0,0,1,.453-1.359,3,3,0,0,1,1.281-.98,4.669,4.669,0,0,1,1.859-.355,3.689,3.689,0,0,1,2.48.785,2.747,2.747,0,0,1,.918,2.207v3.664a4.041,4.041,0,0,0,.336,1.82V18Zm-1.867-1.57a1.945,1.945,0,0,0,.922-.223,1.462,1.462,0,0,0,.625-.6V14.156h-.844q-1.7,0-1.8,1.172l-.008.133a.9.9,0,0,0,.3.7A1.153,1.153,0,0,0,26.836,16.43ZM34.766,18H32.5V6h2.266Z" transform="translate(590 4120.133)"/>
    <g id="Enmascarar_grupo_320" data-name="Enmascarar grupo 320" transform="translate(203 2078.133)" clip-path="url(#clip-path)">
      <g id="Grupo_1073021" data-name="Grupo 1073021" transform="translate(331 1897.867)">
        <g id="Grupo_1073020" data-name="Grupo 1073020" transform="translate(-1.97 -1.964)" clip-path="url(#clip-path-2)">
          <path id="Trazado_819505" data-name="Trazado 819505" d="M100.523,29.725c-.287.3-.284.818-.74.993l-.185.046.187.1a25.852,25.852,0,0,1-3.6,5.332,4.948,4.948,0,0,1-5.339,1.542A20.441,20.441,0,0,1,85.2,34.786c.053-.155,0-.208-.152-.149a5.506,5.506,0,0,1-4.5-4.074c-.535-1.663.225-3.271,1.412-4.577.476-.524.459-1.246.777-1.833,1.58-2.911,2.95-5.925,4.694-8.76,1.24-2.017,2.264-4.18,3.672-6.1a23.72,23.72,0,0,1,6.68-5.86A22.422,22.422,0,0,1,105.722.327,22.952,22.952,0,0,1,113.846.4a24.436,24.436,0,0,1,9.636,3.805,33.4,33.4,0,0,1,12.249,14.914c.345.814.57,1.221,1.511.5a6.781,6.781,0,0,1,5.86-.911,3.625,3.625,0,0,1,2.572,2.364,4.555,4.555,0,0,1-.442,2.673,65.779,65.779,0,0,0-2.422,10.8c-.547,3.011-1.258,6.026-3.69,8.244a4.169,4.169,0,0,1-4.226.995c-1.669-.462-3.417-.673-5.045-1.238-2.482-.861-4.938-1.812-7.385-2.775a27.948,27.948,0,0,0-4.35-1.325c-2.1-.448-3.917-2.028-3.592-4.178a5.348,5.348,0,0,1,2.695-3.609,7.924,7.924,0,0,1,2.054-1.1c.719-.214.609-.455.337-.944-1.38-2.481-2.737-4.975-4.105-7.463q-2.4-4.37-4.805-8.742a2.486,2.486,0,0,1-.15-.659c.044-.158-.007-.219-.169-.164-1.034.065-.842,1.162-1.385,1.65-.409.367-.36,1.067-.921,1.344l-.162.02.158.155c-.492.988-.988,1.974-1.476,2.964-1.87,3.789-3.613,7.641-5.648,11.348-.588-.071-.456.322-.421.652M111.057,1.661l-.9-.013a17.142,17.142,0,0,0-10.44,3.216A36.9,36.9,0,0,0,95.66,8.2c-4.931,4.878-7.879,11-10.824,17.131.013.428-.58.36-.613.75-.184.554-.36,1.11-.551,1.662a3.4,3.4,0,0,0,1.408,4.285,26.923,26.923,0,0,0,2.514,1.327.355.355,0,0,0,.2.086,2.3,2.3,0,0,0,1.391.884A4.554,4.554,0,0,0,90.96,35.34c2.222.711,2.926,1,4.534-1.283.264-.375.512-.762.745-1.157,3.172-5.37,5.386-11.2,8.078-16.8.16-.208.4-.382.3-.7.136-.289.548-.433.447-.847a34.732,34.732,0,0,0,2.275-3.4c2.165-2.927,4.493-5.62,8.13-6.8.652-.212,1.435-.17,2.013-.785a3.166,3.166,0,0,0-1.84-.828,2.259,2.259,0,0,0-1.339-.415c-.859-.517-1.886-.316-2.786-.655Zm28.578,33.147c.19.019.2-.1.191-.243-.005-.393.392-.7.243-1.124a13.579,13.579,0,0,0,1.133-3.971,3.776,3.776,0,0,0,.461-1.585l.68-3.252q.007-.8.014-1.607a3.017,3.017,0,0,0-.58-2.514,3.7,3.7,0,0,0-3.358.389c-1.132.55-1.919,1.819-3.4,1.645a10.06,10.06,0,0,1-2.1-2.184c-.694-1.033-1.375-2.075-2.061-3.113l-.647-1.125a19.635,19.635,0,0,0-2.531-4.14.826.826,0,0,0-.493-.72,5.268,5.268,0,0,0-1.584-2.045l-.532-.726c-1.611-1.671-3.347-2.941-5.869-2.991-2.842-.056-4.9,1.38-6.955,3-.325.255-.193.419-.073.659a31.4,31.4,0,0,0,2.578,4.695c.048.435.157.833.631,1a7.53,7.53,0,0,0,1.163,1.971c.1.412.18.84.665,1a21.658,21.658,0,0,0,2.4,3.941A1.079,1.079,0,0,0,120.2,22.9a32.241,32.241,0,0,1,2.352,6.5c.081.357.242.641-.218.812a8.271,8.271,0,0,0-4.6,2.682c-.22.268-.709.728-.235,1.237-.329,1.089.307,1.633,1.16,2.054a4.607,4.607,0,0,0,1.85.863,12.07,12.07,0,0,1,2.773.914c.686.146,1.288.656,2.05.472a4.609,4.609,0,0,0,2.554.921c.861.4,1.665,1.111,2.706.473.286.979,1.168.949,1.922,1.135a3.092,3.092,0,0,0,1.621.493c.454.636,1.173.619,1.829.707a1.665,1.665,0,0,0,2.108-1.125,17.655,17.655,0,0,0,.371-1.749c.416-1.491.8-2.991,1.2-4.488Z" transform="translate(-52.754 0)" fill="#272727"/>
          <path id="Trazado_819506" data-name="Trazado 819506" d="M228.4,176.488a32.585,32.585,0,0,1,2.3,6.023c1.742,7.236,1.536,14.2-3.017,20.506a16.819,16.819,0,0,1-3.428,3.608c-.182.119-.381.223-.4.477a53.912,53.912,0,0,1-10.332,5.449,17.025,17.025,0,0,1-6.865,1c-2.145-.027-4.292.017-6.437-.02-1.02-.018-1.352.464-1.294,1.4A7.577,7.577,0,0,1,197.6,219.7a4.717,4.717,0,0,1-5.364,1.353,8.782,8.782,0,0,1-2.674-2.174,34.587,34.587,0,0,0-4.45-3.96c-2.845-2.453-6.088-4.517-7.931-7.975a11.163,11.163,0,0,1-.753-1.975,1.622,1.622,0,0,1,.4-1.668,107.371,107.371,0,0,1,8.9-9.173,40.179,40.179,0,0,1,6.727-5.07,5.886,5.886,0,0,1,2.39-.826c2.582-.159,3.635,1.215,3.831,3.79a13.12,13.12,0,0,1,.064,3.795c-.031.155.027.219.185.18l5.3-.006.223,0,5.535,0,.222,0,3.924,0h.451l3.919,0c.407-.136.219-.287.011-.439-1.208-2.946-3.334-5.308-5.081-7.906-1.765-2.624-3.894-5.017-5.517-7.719-1.549-2.577-3.52-4.971-4.321-7.947-.568-2.112-1.017-4.274,1.315-5.771.44-.282.791-.711,1.243-.963,1.852-1.031,3.537-2.32,5.415-3.323a6.856,6.856,0,0,1,8.96,2.35,32.071,32.071,0,0,1,1.726,2.876,30.619,30.619,0,0,0,3.19,4.346c.639.845,1.011,1.824,1.626,2.667-.045.162.049.213.184.232l.964,1.841c-.046.161.054.214.182.247m-5.093-3-.187-.274a17.223,17.223,0,0,0-2.5-3.67l-.506-.673a19.555,19.555,0,0,1-2.387-3.856,5.119,5.119,0,0,0-2.185-2.139c-.067-.229-.273-.265-.458-.33a3.043,3.043,0,0,0-2.531.293,56.419,56.419,0,0,0-4.871,3.222,2.9,2.9,0,0,0-1.642,3.157,12.236,12.236,0,0,0,2.339,5.869,1.741,1.741,0,0,0,.647,1.043,27.587,27.587,0,0,0,2.3,3.806c.22.26.212.719.67.772a27.27,27.27,0,0,0,3.026,4.331c-.008.453.443.45.668.672a1.2,1.2,0,0,0,.273.737c1.876,2.513,3.664,5.086,5.317,7.752-.037.4.227.652.453.923a8.511,8.511,0,0,0,.737,2.084l.245,1.134a11.577,11.577,0,0,1-1.131,8.322c1.06-.235,1.536-1.078,2.151-1.695,3.9-3.92,5.3-8.827,5.318-14.185a22.873,22.873,0,0,0-.7-5.4,18.508,18.508,0,0,0-1.77-5.233,1.838,1.838,0,0,0-.49-1.37,14.287,14.287,0,0,0-2.4-4.452c.164-.418-.273-.554-.393-.838M192.752,218.2c.208.325.405.663.842.723a1.2,1.2,0,0,0,1.482.531,1.543,1.543,0,0,0,.85-1.407,31.892,31.892,0,0,0-.04-4.3q.024-.432.048-.863a2.489,2.489,0,0,1,1.625-1.011c1.774-.3,3.544-.021,5.305-.2a6.067,6.067,0,0,0,2.729-.209,19.159,19.159,0,0,0,4.846-.247c.721.158,1.371-.336,2.087-.228,1.356-.29,2.8-.267,3.951-1.25a10.192,10.192,0,0,0,3.659-10.09c-.3-1.726-1.03-2.207-2.794-1.725h-2.751c-2.842-.178-5.671.159-8.508.2a5.42,5.42,0,0,0-1.753.057l-4.213-.063a7.543,7.543,0,0,0-2.074-.431c-.181-.049-.362-.095-.542-.146-1.659-.47-1.632-.467-1.388-2.254a1.964,1.964,0,0,0-.144-1.531l-.065-.24a3.979,3.979,0,0,0-.468-2.331,1.891,1.891,0,0,0-.849-.858,2.493,2.493,0,0,0-2.007.588,29.016,29.016,0,0,0-2.085,2.1,115.593,115.593,0,0,0-9.694,9.029c-1.747,1.961-1.615,3.8.357,5.529.026.481.381.712.723.953.653.406,1.07,1.107,1.789,1.43a.856.856,0,0,0,.514.643l3.463,2.961c.285.414.523.883,1.119.919a5.662,5.662,0,0,0,1.548,1.431,1.673,1.673,0,0,0,.779.908l1.662,1.389" transform="translate(-115.742 -105.75)" fill="#272727"/>
          <path id="Trazado_819507" data-name="Trazado 819507" d="M38.969,202.194a100.917,100.917,0,0,1-11.566.156,41.837,41.837,0,0,1-6.19-.588c-1.462-.269-2.992-.12-4.47-.527a25.27,25.27,0,0,1-9.387-5.016,20.319,20.319,0,0,1-6.73-10.9,23.416,23.416,0,0,1-.394-8.783,27.436,27.436,0,0,1,1.433-6.4c.409-1.093,1.018-2.133,1.393-3.219a36.2,36.2,0,0,1,4.316-7.742c.383-.591,1.332-1.085,1.085-1.733-.2-.518-1.132-.746-1.728-1.123A8.176,8.176,0,0,1,3.514,152.9a2.347,2.347,0,0,1,.811-2.792,10.275,10.275,0,0,1,5.007-2.516,111.756,111.756,0,0,0,13.164-3.4,10.323,10.323,0,0,1,4.537-.337c2.316.235,3.289,1.966,3.657,4.1.685,3.969,1.4,7.933,2.05,11.908.291,1.773.52,3.561.684,5.35a3.306,3.306,0,0,1-2.3,3.607,4.983,4.983,0,0,1-3.156.348,10.745,10.745,0,0,1-4.051-1.7c-.206-.147-.418-.123-.626.207-2.317,3.673-4.675,7.318-7.008,10.98-1.146,1.8-2.221,3.647-3.412,5.416-.5.743-.228.814.437.812,1.266,0,2.532,0,3.8,0,5.947,0,11.895.014,17.842-.01,1.561-.006,3.121-.133,4.681-.206a8.636,8.636,0,0,1,3.113.5,4.381,4.381,0,0,1,2.893,4.222q.034,4.029,0,8.058c-.013,1.672-1.272,3.077-3.338,3.783-.142.048-.3.03-.35.213-.172.055-.418-.039-.479.239a.433.433,0,0,0-.2.053c-.153-.046-.209.044-.239.17a.78.78,0,0,0-.223.056h-.693l-.7.246-.451-.011m3.722-12.751a.853.853,0,0,0-.239-.777,2.022,2.022,0,0,0-1.366-1.735c-.087-.266-.346-.179-.526-.255a5.612,5.612,0,0,0-2.51-.14,8.19,8.19,0,0,0-3.909-.076c-.589-.4-1.228-.137-1.847-.141a15.217,15.217,0,0,0-4.388.2L26.3,186.5a9.474,9.474,0,0,0-3.917-.045l-2.94,0a1.736,1.736,0,0,0-1.109-.131,46.851,46.851,0,0,1-7.926-.045l-1.373-.224a14.413,14.413,0,0,1-5.868-3.2A18.759,18.759,0,0,0,8.061,193l.9.9a8.917,8.917,0,0,0,2.142,1.763l.433.278a4.879,4.879,0,0,0,2.194,1.159,2,2,0,0,0,1.276.686,7.242,7.242,0,0,0,2.494.978c.611.512,1.442.319,2.107.654a10.249,10.249,0,0,0,3.238.636l.888.179c.49-.019.89.457,1.413.256,1.459.012,2.894.453,4.365.252l2.995,0c1.468-.088,2.96.3,4.407-.219A6.349,6.349,0,0,0,38.7,200.5c.3.012.607.032.911.034a2.707,2.707,0,0,0,3.1-2.451c.271-1.169-.364-2.376.122-3.543q.014-.456.027-.911a17.662,17.662,0,0,0,.007-3.263c.015-.322.122-.661-.178-.922m-36.4-23.927c-.447,1.275-1.334,2.374-1.5,3.76-.55.36-.511,1.028-.8,1.525-.132.626-.247,1.256-.4,1.877-1.024,4.176.536,8.295,3.941,10.193,3.154,1.759,2.393,2.034,4.344-.995,2.587-4.017,4.7-8.33,7.429-12.26a13.029,13.029,0,0,1,3.819-4.19,1.789,1.789,0,0,1,2.209.065,12.041,12.041,0,0,0,3.452,2.118c1.119.348,2.126-.274,1.875-1.4-.69-3.1-.711-6.3-1.4-9.407a.967.967,0,0,0-.237-.942,8.091,8.091,0,0,0-.237-2.537c-.352-.385.013-.972-.378-1.345a8.339,8.339,0,0,0-.447-2.35q-.04-.242-.081-.485l-.855-2.276a1.663,1.663,0,0,0-.46-.9,1.43,1.43,0,0,0-2.045-.773,19.963,19.963,0,0,1-1.923.558,33.009,33.009,0,0,0-6.225,1.557c-.335.065-.674.117-1.005.2-2.3.569-4.6,1.148-6.9,1.716-2,.494-2.809,2.3-1.717,3.873a2.4,2.4,0,0,0,.892.96,5.741,5.741,0,0,0,2.5,1.344.983.983,0,0,0,.865.543c.132.412.763.664.477,1.192a17.265,17.265,0,0,1-1.256,2,28.076,28.076,0,0,0-2.984,4.779,6.237,6.237,0,0,0-.945,1.6" transform="translate(0 -94.351)" fill="#272727"/>
          <path id="Trazado_819508" data-name="Trazado 819508" d="M118.583,139.022a33.719,33.719,0,0,1,1.4-10.112c.649-2.35,3.783-2.552,5.221-1.21,2.81,2.622,6.355,3.665,9.96,4.717a68.555,68.555,0,0,1,7.722,2.4,25.611,25.611,0,0,1,4.3,2.078,10.115,10.115,0,0,1,2.975,3.06,27.982,27.982,0,0,1,4.188,11.289,17.879,17.879,0,0,1,0,4.838,4.173,4.173,0,0,1-2.663,3.392,12.459,12.459,0,0,1-4.631,1.159c-1.66.105-3.249.565-4.891.755a27.971,27.971,0,0,1-7.025-.02,17.919,17.919,0,0,1-8.183-3.354,19.841,19.841,0,0,1-6.72-9.173,24.075,24.075,0,0,1-1.656-9.824m33.167,12.859c.162-.5-.549-.621-.459-1.086.576-.923-.388-1.544-.458-2.34.355-.669-.208-1.114-.4-1.649.053-.812-.617-1.451-.542-2.269l-1.043-1.4a3.444,3.444,0,0,0-1-1.629c0-.177,0-.356-.205-.439-.487-.516-.942-1.068-1.47-1.538s-.866-1.28-1.771-1.237c-.142-.417-.575-.428-.872-.629-.676-.593-1.617-.671-2.327-1.2-.111-.185-.223-.366-.467-.393l-2.021-.3a4.085,4.085,0,0,0-2.329-.887,4.821,4.821,0,0,0-2.27-.767,2.626,2.626,0,0,0-1.651-.431,3.685,3.685,0,0,0-2.539-.91c-.387-.583-1.014-.6-1.613-.693a3.837,3.837,0,0,0-2.3-1.141,1.453,1.453,0,0,0-1.071-.643,6.115,6.115,0,0,0-1.695-1.132c-.359-.239-.589-.137-.687.364a43.178,43.178,0,0,0-.91,10.2l.01.867c.07.862-.27,1.76.221,2.586.062.474-.254,1,.189,1.42a16.279,16.279,0,0,0,1.2,4.563c-.138.3.133.453.243.663a12.806,12.806,0,0,0,2.249,3.711c.027.224.216.279.378.362.187.75.812,1.1,1.376,1.5a2.237,2.237,0,0,0,1.686,1.143,2.692,2.692,0,0,0,1.645,1.161,2.99,2.99,0,0,0,2.491.9,2.688,2.688,0,0,0,2.337.867c.85.711,1.8.363,2.725.254a2.97,2.97,0,0,0,2.995.255,1.426,1.426,0,0,0,1.687,0c.135.067.28.206.4.19a65.68,65.68,0,0,0,7.1-1.611c.709-.173.351-.484.067-.766a59.661,59.661,0,0,0-6.229-5.418.9.9,0,0,0-.673-.516,37.131,37.131,0,0,0-10.077-5.938c-.286-.112-.786-.1-.69-.564a.864.864,0,0,1,.769-.6,6.743,6.743,0,0,1,4.119.7,46.566,46.566,0,0,1,4.9,2.748c.044.123.092.242.26.221l2.94,2.082.293.293c.95.518,1.6,1.46,2.628,1.864a.58.58,0,0,0,.5.47,4.122,4.122,0,0,0,1.364,1.3c.269.208.608.61.858.376a.979.979,0,0,0,.225-1.208,1.75,1.75,0,0,1-.087-1.726" transform="translate(-77.816 -83.27)" fill="#272727"/>
          <path id="Trazado_819509" data-name="Trazado 819509" d="M175.243,24.353a31.473,31.473,0,0,1-2.578-4.695c-.12-.24-.252-.4.074-.659,2.055-1.616,4.113-3.052,6.955-3,2.521.05,4.258,1.321,5.869,2.992a7.835,7.835,0,0,0-2.285,2.269,9.279,9.279,0,0,0,2.817-1.544,5.269,5.269,0,0,1,1.584,2.045,9.721,9.721,0,0,0-2.438,2.19c-.117.12-.236.239-.354.358l-.13.188.235-.088a.418.418,0,0,0,.395-.291,7.617,7.617,0,0,0,2.786-1.636,19.623,19.623,0,0,1,2.531,4.14c-.745.9-1.831,1.463-2.52,2.537,1.268-.091,2.065-1.107,3.167-1.411.686,1.038,1.367,2.079,2.061,3.112a10.073,10.073,0,0,0,2.1,2.185l-6.4,5.214.156.253c4.408-2.366,8.713-4.917,13-7.5a3.018,3.018,0,0,1,.58,2.514,65.516,65.516,0,0,0-6.521,4.95c-.1.087-.2.173-.3.259.188.155.315.082.408-.112a2.258,2.258,0,0,0,1.022-.459q2.684-1.521,5.373-3.032l-.68,3.252a26.264,26.264,0,0,0-3.785,3.067c-.122.132-.509.058-.387.324.067.146.4.093.534-.153,1.155-.367,2.063-1.208,3.177-1.653a13.567,13.567,0,0,1-1.134,3.97,6.548,6.548,0,0,0-1.51,1.426c-.117.115-.236.23-.354.345l-.352.167c.166.16.316.112.458-.036a.5.5,0,0,0,.407-.3l.93-.232c-.4,1.5-.782,3-1.2,4.487a17.623,17.623,0,0,1-.371,1.749,1.666,1.666,0,0,1-2.108,1.125c-.656-.089-1.375-.072-1.829-.707.809-.546.975-1.579,1.67-2.244a10.772,10.772,0,0,0-3.29,1.751c-.754-.186-1.636-.156-1.922-1.135.731-1.464,2.312-2.207,3-3.8l-5.7,3.325a4.605,4.605,0,0,1-2.554-.921l5.967-4.84a7.708,7.708,0,0,0-3.08,1.386,43.968,43.968,0,0,0-4.936,2.982A12.065,12.065,0,0,0,181,47.558l8.328-6.365.1-.2-.254.028-10.024,5.678c-.854-.421-1.489-.965-1.16-2.054a34.528,34.528,0,0,0,4.83-3.919c.46-.171.3-.455.218-.812a32.292,32.292,0,0,0-2.351-6.5c.651-1.014,1.8-1.527,2.506-2.483.081-.092.329-.125.2-.29-.1-.121-.274-.037-.361.115-1.086.293-1.881,1.149-2.929,1.513a21.629,21.629,0,0,1-2.4-3.941c.565-.875,1.535-1.383,2.094-2.3a7.539,7.539,0,0,0-2.759,1.3,7.514,7.514,0,0,1-1.163-1.971c.7-.879,1.727-1.445,2.348-2.4.074-.033.279-.009.073-.166l-.052.184a1.064,1.064,0,0,0-.829.213,9.234,9.234,0,0,1-2.172,1.174m7.8-2.9c-.023-.025-.045-.067-.07-.069s-.054.036-.081.056c.023.025.045.067.07.069s.054-.036.081-.056" transform="translate(-113.241 -10.503)" fill="#8fc141"/>
          <path id="Trazado_819510" data-name="Trazado 819510" d="M121.446,5.884a3.167,3.167,0,0,1,1.84.828c-.579.615-1.361.573-2.014.785-3.636,1.184-5.965,3.877-8.13,6.8a34.564,34.564,0,0,1-2.275,3.4c-.339.267-.909.3-.92.9l.019-.015c-.39-.07-.754-.1-.711.476l.021-.015a.306.306,0,0,0-.458.233,14.366,14.366,0,0,1-1.393.882,2.174,2.174,0,0,0-1.4,1.271l4.089-2.183c-2.692,5.6-4.906,11.43-8.078,16.8-.233.395-.481.782-.745,1.157-1.608,2.281-2.312,1.994-4.534,1.283a4.552,4.552,0,0,1-1.776-1.016,8.5,8.5,0,0,1,.827-.911,11.179,11.179,0,0,0,2.4-2.312l-.009.018.226-.239c.424-.255,1.007-.353,1.107-1.257-2.151,1.327-4.313,2.241-6.144,3.732a26.971,26.971,0,0,1-2.515-1.327,3.4,3.4,0,0,1-1.407-4.285c.191-.552.367-1.108.55-1.663.173.3.375.651.758.318a22.222,22.222,0,0,0,2.929-2.477c-1.329.16-2.031,1.165-3.074,1.41,2.945-6.129,5.893-12.253,10.824-17.131a36.9,36.9,0,0,1,4.057-3.334,17.139,17.139,0,0,1,10.44-3.217c-.134.548-.835.511-1.029,1-.163.087-.356.142-.39.367-.456.247-.913.492-1.368.741a.3.3,0,0,0-.165.379c.062.173.232.252.352.124.485-.513,1.432-.416,1.653-1.265l-.005.008.247-.185.911-.5.24-.186a.7.7,0,0,1,.2-.052c.318,0,.667.062.712-.409.9.339,1.927.139,2.786.655-.025.569-.575.652-.9.9a15.784,15.784,0,0,0-2.675,2.024c1.787-.564,3.187-1.857,4.917-2.507M111.7,8.119a.46.46,0,0,0,.687-.234c.028-.056-.056-.245-.1-.249-.3-.03-.448.176-.588.483" transform="translate(-58.556 -3.145)" fill="#83ad3a"/>
          <path id="Trazado_819511" data-name="Trazado 819511" d="M106.2,87.673c-1.374.275-2.361,1.3-3.588,1.859-.345.157-.688.32-1.032.48a.353.353,0,0,1-.2-.086c1.831-1.49,3.994-2.405,6.144-3.732-.1.9-.683,1-1.107,1.257-.146.013-.272.045-.227.239Z" transform="translate(-66.539 -56.573)" fill="#8fc141"/>
          <path id="Trazado_819512" data-name="Trazado 819512" d="M142.232,45.512l-4.089,2.183a2.175,2.175,0,0,1,1.4-1.271,14.3,14.3,0,0,0,1.393-.882c.181-.022.38-.009.458-.233l-.021.015a.743.743,0,0,0,.711-.476l-.019.015.473-.052c.1.319-.141.493-.3.7" transform="translate(-90.669 -29.411)" fill="#8fc141"/>
          <path id="Trazado_819513" data-name="Trazado 819513" d="M168.929,5.249l.249-.417.462.008c-.044.471-.393.413-.711.409" transform="translate(-110.875 -3.171)" fill="#8fc141"/>
          <path id="Trazado_819514" data-name="Trazado 819514" d="M252.811,100.821l.191-.243c.01.139,0,.262-.191.243" transform="translate(-165.93 -66.013)" fill="#8fc141"/>
          <path id="Trazado_819515" data-name="Trazado 819515" d="M187.326,263.262c-1.972-1.733-2.1-3.568-.357-5.529a115.492,115.492,0,0,1,9.694-9.029,28.945,28.945,0,0,1,2.084-2.1,2.493,2.493,0,0,1,2.007-.588l-2.893,2.6-.373.353-.372.135c.027.024.051.06.083.07.155.047.281.021.337-.154a.357.357,0,0,0,.432-.259c.452.025.761-.288,1.119-.48a16.043,16.043,0,0,1,2.516-1.406,3.984,3.984,0,0,1,.468,2.331,5.141,5.141,0,0,0-1.871,1.468,3.673,3.673,0,0,0,1.936-1.228,1.962,1.962,0,0,1,.145,1.531c-.244,1.788-.271,1.784,1.388,2.254.18.051.362.1.542.146l-5.35,4.552a4.584,4.584,0,0,0,2.5-1.13c1.652-.979,3.475-1.68,4.924-2.991l4.212.063-3.05,2.355a17.318,17.318,0,0,0,4.8-2.412c2.837-.037,5.667-.375,8.509-.2a1.981,1.981,0,0,1-.291.338q-3.7,2.744-7.417,5.478c-.125.138-.514.04-.414.307.052.14.405.109.531-.155a50.137,50.137,0,0,0,5.628-3.118,34,34,0,0,0,4.713-2.852c1.764-.482,2.5,0,2.794,1.725a10.191,10.191,0,0,1-3.659,10.09c-1.149.983-2.594.961-3.951,1.25.442-1.176,1.905-1.334,2.493-2.5a2.6,2.6,0,0,0-1.665.745c-.971.661-2.237.9-2.914,1.986a19.164,19.164,0,0,1-4.846.247l8.418-6.354c-.33-.042-.471-.107-.547-.062q-5.164,3.009-10.316,6.04a.572.572,0,0,0-.284.584c-1.761.178-3.531-.105-5.306.2a2.489,2.489,0,0,0-1.625,1.011c-.459-.06-.791.258-1.138.449-1.511.829-2.992,1.712-4.483,2.575a5.679,5.679,0,0,1-1.547-1.432c.848-.63,1.72-1.229,2.538-1.9a45.877,45.877,0,0,0,4.416-3.389l.324-.121.272-.265c-.179-.134-.316-.075-.429.093l-.3.162c-2.724,1.362-5.306,2.976-7.94,4.5l-3.464-2.961a18.207,18.207,0,0,0,3.33-2.512c-1.408.386-2.48,1.425-3.845,1.87-.719-.323-1.136-1.024-1.789-1.43a23.466,23.466,0,0,0,4.287-3.669,32.357,32.357,0,0,0-5.01,2.715" transform="translate(-121.913 -161.446)" fill="#8fc141"/>
          <path id="Trazado_819516" data-name="Trazado 819516" d="M267.949,182.342a27.54,27.54,0,0,1-2.3-3.807c.26-.948,1.567-1.031,1.812-2.129-1.015.1-1.568.982-2.459,1.086a12.236,12.236,0,0,1-2.339-5.869,2.9,2.9,0,0,1,1.642-3.157,56.421,56.421,0,0,1,4.871-3.222,3.042,3.042,0,0,1,2.531-.293l-1,.981-.352.178c.163.151.33.093.5.01l1.314-.839a5.117,5.117,0,0,1,2.185,2.139,19.576,19.576,0,0,0,2.387,3.856c-.666.623-1.669.928-2.068,2.167l2.574-1.494a17.229,17.229,0,0,1,2.5,3.67q-.007.122-.014.243-.853.864-1.7,1.729c-.118.125-.236.25-.355.375a1.019,1.019,0,0,0-.217,0,.981.981,0,0,0-1.148.835,1.164,1.164,0,0,0,1.13-.626c.133-.018.261-.041.216-.228a.33.33,0,0,0,.478-.211c.84-.1,1.362-.892,2.195-1.007a14.337,14.337,0,0,1,2.4,4.455l-2.936,3.218c1.285-.531,2.216-1.463,3.426-1.848a18.506,18.506,0,0,1,1.77,5.233,22.855,22.855,0,0,1,.7,5.4c-.015,5.358-1.414,10.264-5.318,14.185-.615.617-1.09,1.46-2.151,1.7a11.575,11.575,0,0,0,1.131-8.323,5.852,5.852,0,0,0,2.12-1.968c-1.061,0-1.526.933-2.365.834a8.513,8.513,0,0,1-.737-2.084,3.985,3.985,0,0,0,1.624-2.04L277.9,196.6c-1.653-2.665-3.442-5.238-5.317-7.751a1.2,1.2,0,0,1-.273-.737,19.972,19.972,0,0,0,2.783-2.425c.187-.193.509-.356.306-.829-1.121.633-2.2,1.25-3.286,1.852a.86.86,0,0,0-.471.731,27.221,27.221,0,0,1-3.025-4.331c.321-.85,1.408-1.036,1.672-1.934a2.492,2.492,0,0,0,1.892-1.746c-.969.678-1.9.842-2.362,1.7a.868.868,0,0,1-.205.055c-.353-.01-.7-.013-.7.487l-.969.669" transform="translate(-172.366 -108.158)" fill="#83ad3a"/>
          <path id="Trazado_819517" data-name="Trazado 819517" d="M224.047,314.243a31.9,31.9,0,0,1,.04,4.3,1.545,1.545,0,0,1-.85,1.407,1.2,1.2,0,0,1-1.481-.531l.727-1.394c-.732-.076-1.021.585-1.568.671l-1.662-1.389,4.794-3.068" transform="translate(-143.905 -206.25)" fill="#8ec141"/>
          <path id="Trazado_819518" data-name="Trazado 819518" d="M288.89,225.782a.861.861,0,0,1,.472-.731c1.087-.6,2.166-1.219,3.286-1.852.2.473-.118.635-.306.829a20,20,0,0,1-2.784,2.425c-.225-.222-.676-.219-.668-.672" transform="translate(-189.61 -146.495)" fill="#8fc141"/>
          <path id="Trazado_819519" data-name="Trazado 819519" d="M316,213.861c-1.21.385-2.141,1.317-3.426,1.848l2.936-3.218a1.837,1.837,0,0,1,.49,1.37" transform="translate(-205.155 -139.466)" fill="#8fc141"/>
          <path id="Trazado_819520" data-name="Trazado 819520" d="M269.564,199.677c.891-.1,1.444-.982,2.459-1.086-.245,1.1-1.552,1.181-1.812,2.129a1.74,1.74,0,0,1-.647-1.043" transform="translate(-176.926 -130.343)" fill="#8ec141"/>
          <path id="Trazado_819521" data-name="Trazado 819521" d="M307.094,255.235l2.077-1.117a3.986,3.986,0,0,1-1.624,2.04c-.226-.271-.49-.523-.453-.923" transform="translate(-201.556 -166.788)" fill="#8ec141"/>
          <path id="Trazado_819522" data-name="Trazado 819522" d="M310.564,264.526c.84.1,1.3-.839,2.365-.834a5.852,5.852,0,0,1-2.12,1.968l-.245-1.134" transform="translate(-203.836 -173.072)" fill="#8ec141"/>
          <path id="Trazado_819523" data-name="Trazado 819523" d="M300.269,184.336,297.7,185.83c.4-1.239,1.4-1.544,2.068-2.167l.505.673" transform="translate(-195.389 -120.545)" fill="#8ec141"/>
          <path id="Trazado_819524" data-name="Trazado 819524" d="M312.61,196.574a.907.907,0,0,1-.2-.031c0-.081.009-.162.014-.242l.187.273" transform="translate(-205.047 -128.84)" fill="#8fc141"/>
          <path id="Trazado_819525" data-name="Trazado 819525" d="M16.413,157.839a5.737,5.737,0,0,1-2.5-1.344,7.231,7.231,0,0,0,2.385-2.8l-3.276,1.844c-1.092-1.569-.286-3.379,1.717-3.873,2.3-.568,4.6-1.147,6.9-1.716.331-.082.67-.133,1.005-.2-.736,1.372-2.116,2.251-2.819,3.679,3.021-1.768,6.17-3.266,9.044-5.236a19.965,19.965,0,0,0,1.922-.558,1.429,1.429,0,0,1,2.045.773l-4.074,3.321a17.368,17.368,0,0,0,4.535-2.423l.856,2.277a10.987,10.987,0,0,0-2.813,2.079,7.267,7.267,0,0,0,2.893-1.595,8.327,8.327,0,0,1,.446,2.35,2.816,2.816,0,0,1-.315.319c-2.166,1.6-4.424,3.085-6.491,4.822-.135.126-.51.031-.427.284.047.142.4.109.52-.152a4.537,4.537,0,0,0,.736-.269q3.184-1.818,6.355-3.658a8.088,8.088,0,0,1,.237,2.537,1.558,1.558,0,0,0-.922.386q-2.7,1.941-5.4,3.879c2.389-.722,4.361-2.241,6.557-3.323.687,3.1.707,6.3,1.4,9.407.251,1.127-.756,1.75-1.875,1.4a12.041,12.041,0,0,1-3.452-2.118,1.789,1.789,0,0,0-2.209-.065,13.031,13.031,0,0,0-3.818,4.19c-2.732,3.93-4.841,8.244-7.429,12.26-1.951,3.029-1.189,2.754-4.343.995-3.4-1.9-4.966-6.017-3.941-10.193.152-.621.267-1.251.4-1.877a57.478,57.478,0,0,0,5.534-3.734c-.478-.245-.688.057-.947.178a40.125,40.125,0,0,1-3.789,2.031c.166-1.386,1.053-2.485,1.5-3.76a23.22,23.22,0,0,0,4.812-3.433l.322-.141.288-.237a.263.263,0,0,0-.419.109l-.29.186a3.5,3.5,0,0,0-1.206.545,10.633,10.633,0,0,1-2.562,1.37,28.068,28.068,0,0,1,2.983-4.779,17.3,17.3,0,0,0,1.256-2c.286-.529-.346-.78-.476-1.192q1.3-1.124,2.6-2.248a11.558,11.558,0,0,0-3.463,1.7" transform="translate(-6.276 -96.788)" fill="#8fc141"/>
          <path id="Trazado_819526" data-name="Trazado 819526" d="M16.44,260.969a46.849,46.849,0,0,0,7.927.045,1.732,1.732,0,0,1,1.109.131c-1.746.958-2.789,2.6-4.088,4.022a28.345,28.345,0,0,0,3.859-2.049,13.086,13.086,0,0,0,3.17-1.977,9.48,9.48,0,0,1,3.917.045c-.62,1.116-2.009,1.475-2.822,2.9,1.624-.93,2.961-1.689,4.286-2.469.1-.057.1-.273.147-.415a15.2,15.2,0,0,1,4.388-.2c-.063.473-.466.638-.773.917-.773.7-1.841,1.085-2.324,2.127,1.376-.613,2.7-1.3,3.991-2.039.368-.209.918-.268.953-.863a8.189,8.189,0,0,1,3.909.076c-.054.141-.066.333-.167.415-1.329,1.087-2.695,2.129-4,3.247-.6.513-1.418.829-1.913,1.957,2.181-1.189,4.08-2.213,5.962-3.267.172-.1.236-.384.351-.582.177-.02.433.133.461-.211l-.022.014c.949-.069,1.566-.8,2.362-1.178a2.023,2.023,0,0,1,1.366,1.736c-.057.248-.325.3-.445.473-.6.841-1.853,1.044-2.113,2.2l.005-.005c-.5-.049-.871.1-.963.655-.706.34-1.418.674-1.654,1.514.618-.458,1.455-.556,1.914-1.218.17-.066.411-.008.472-.267l-.011.008,3.211-1.658a17.632,17.632,0,0,1-.008,3.263,7.3,7.3,0,0,0-1.5,1.46l-.328.376c-.087.024-.215.061-.123.163s.163,0,.186-.109a.352.352,0,0,0,.42-.261,2.7,2.7,0,0,0,1.32-.718c-.486,1.166.15,2.373-.121,3.542a2.707,2.707,0,0,1-3.1,2.451c-.3,0-.607-.022-.911-.034-.085-.566.841-.655.611-1.532-.743.783-1.689.953-2.394,1.559-1.447.515-2.939.131-4.408.219,1.168-1.452,2.706-2.557,4.084-4.093-.417,0-.6-.055-.705.008-1.765,1.025-3.532,2.048-5.27,3.116-.408.25-1.13.2-1.1.965-1.472.2-2.906-.241-4.365-.252a33.545,33.545,0,0,0,4.368-3.634,4.378,4.378,0,0,0,2.381-2.173c-2.682,1.4-5.3,2.863-7.876,4.4-.415.247-1.069.314-1.174.975a10.259,10.259,0,0,1-3.238-.636c.014-.307,0-.622.361-.769,1.621-.673,2.706-2.049,4.038-3.1.378-.3,1.017-.405,1.052-1.323-1.3.739-2.5,1.351-3.623,2.081-1.3.843-2.827,1.315-3.936,2.456a7.241,7.241,0,0,1-2.494-.978c.567-1.024,1.807-1.39,2.564-2.556-1.529.469-2.513,1.529-3.84,1.871a4.88,4.88,0,0,1-2.194-1.159c.915-.263,1.342-1.1,1.993-1.691a4.578,4.578,0,0,0-2.426,1.414A8.918,8.918,0,0,1,15,268.586a12.15,12.15,0,0,0,2.9-3.161c-1.293.753-2.748,1.181-3.807,2.263a18.759,18.759,0,0,1-4.9-10.143,14.409,14.409,0,0,0,5.868,3.2c-.063.651-.787,1-.843,1.84.831-.572,1.774-.724,2.216-1.615m21.252,6.11c.028-.065.091-.143.073-.19a.138.138,0,0,0-.256.1c.018.046.119.06.183.088m-2.909-2.744c-.064-.027-.143-.091-.189-.073s-.061.118-.089.182c.064.028.143.092.188.073s.062-.118.09-.183m-3.2,4.306-.084.192c.065.027.143.09.189.072s.06-.118.088-.182l-.193-.082" transform="translate(-6.038 -169.037)" fill="#83ad3a"/>
          <path id="Trazado_819527" data-name="Trazado 819527" d="M99.349,269.867c-.114.2-.179.486-.351.583-1.882,1.054-3.781,2.078-5.962,3.267.495-1.128,1.314-1.443,1.912-1.957,1.3-1.117,2.668-2.16,4-3.247.1-.082.114-.274.167-.415a5.609,5.609,0,0,1,2.511.14,6.908,6.908,0,0,0-1.837,1.432l.022-.014c-.18.013-.385-.029-.461.211" transform="translate(-61.064 -175.913)" fill="#8ec141"/>
          <path id="Trazado_819528" data-name="Trazado 819528" d="M50.93,295.161c1.109-1.141,2.638-1.613,3.936-2.456,1.124-.73,2.325-1.342,3.623-2.081-.035.917-.674,1.024-1.052,1.322-1.332,1.05-2.418,2.426-4.039,3.1-.357.148-.347.463-.361.769-.666-.335-1.5-.142-2.107-.654" transform="translate(-33.427 -190.749)" fill="#8fc141"/>
          <path id="Trazado_819529" data-name="Trazado 819529" d="M51.694,268.01a13.084,13.084,0,0,1-3.17,1.977,28.3,28.3,0,0,1-3.859,2.049c1.3-1.418,2.342-3.064,4.088-4.022l2.94,0" transform="translate(-29.315 -175.906)" fill="#8ec141"/>
          <path id="Trazado_819530" data-name="Trazado 819530" d="M66.485,297.319c.1-.661.758-.727,1.174-.975,2.576-1.535,5.194-3,7.876-4.4a4.379,4.379,0,0,1-2.381,2.173c-1.363.256-2.367,1.215-3.53,1.853-.784.431-1.782.61-2.251,1.524l-.888-.178" transform="translate(-43.637 -191.617)" fill="#8fc141"/>
          <path id="Trazado_819531" data-name="Trazado 819531" d="M89.9,267.6c-.035.6-.586.654-.953.863-1.295.735-2.614,1.427-3.991,2.04.483-1.041,1.551-1.425,2.324-2.127.307-.279.709-.443.773-.917.619,0,1.258-.255,1.848.141" transform="translate(-55.761 -175.493)" fill="#8ec141"/>
          <path id="Trazado_819532" data-name="Trazado 819532" d="M23.455,282.739c1.059-1.083,2.515-1.51,3.807-2.263a12.145,12.145,0,0,1-2.905,3.16l-.9-.9" transform="translate(-15.394 -184.088)" fill="#8ec141"/>
          <path id="Trazado_819533" data-name="Trazado 819533" d="M72.736,268.157c-.047.142-.05.358-.147.415-1.325.78-2.662,1.539-4.286,2.469.813-1.427,2.2-1.785,2.822-2.9l1.61.017" transform="translate(-44.83 -175.991)" fill="#8ec141"/>
          <path id="Trazado_819534" data-name="Trazado 819534" d="M39.958,295.41c1.327-.342,2.311-1.4,3.84-1.871-.756,1.166-2,1.533-2.564,2.556a2,2,0,0,1-1.276-.686" transform="translate(-26.226 -192.661)" fill="#8ec141"/>
          <path id="Trazado_819535" data-name="Trazado 819535" d="M26.038,267.079c-.441.891-1.384,1.043-2.216,1.616.056-.843.78-1.189.843-1.84l1.373.224" transform="translate(-15.635 -175.148)" fill="#8ec141"/>
          <path id="Trazado_819536" data-name="Trazado 819536" d="M118.883,275.22c-1.065.436-1.694,1.515-2.8,1.9.26-1.155,1.516-1.359,2.112-2.2.12-.169.388-.225.445-.473a.852.852,0,0,1,.239.777" transform="translate(-76.193 -180.128)" fill="#8fc141"/>
          <path id="Trazado_819537" data-name="Trazado 819537" d="M32.315,292.1a4.578,4.578,0,0,1,2.426-1.414c-.651.595-1.078,1.428-1.993,1.691l-.433-.277" transform="translate(-21.21 -190.79)" fill="#8ec141"/>
          <path id="Trazado_819538" data-name="Trazado 819538" d="M131.566,157.691a12.807,12.807,0,0,1-2.25-3.71,11.889,11.889,0,0,0,2.516-1.8l.114-.186-.249.043c-.97.231-1.631,1.095-2.624,1.28a16.274,16.274,0,0,1-1.2-4.563,23.514,23.514,0,0,0,3.942-3.443c-1.5.446-2.662,1.547-4.131,2.024-.491-.826-.151-1.724-.221-2.586a4.4,4.4,0,0,0,1.36-1.334l.167-.136c-.1-.12-.2-.075-.287.02l-1.25.584a43.158,43.158,0,0,1,.91-10.2c.1-.5.328-.6.687-.365a6.1,6.1,0,0,1,1.694,1.132c-.125.594-.836.88-.81,1.578.756-.06,1.218-.707,1.882-.935a3.842,3.842,0,0,1,2.3,1.141l-2.459,2.64c1.724-.346,2.743-1.47,4.072-1.947a3.686,3.686,0,0,1,2.539.909,18.355,18.355,0,0,0-2.678,2.421l-.362.349-.359.155c.161.167.315.116.466-.016l.394-.322a2.225,2.225,0,0,0,1.131-.489,17.381,17.381,0,0,1,3.059-1.667,4.84,4.84,0,0,1,2.27.768c-1.243,1.618-3.12,2.607-4.372,4.216,2.373-.9,4.373-2.433,6.7-3.329l2.021.3c.018.258-.056.579.256.69.194.069.185-.162.211-.3.71.527,1.651.6,2.327,1.2-.8.925-2.067,1.265-2.819,2.249l-.364.153c.165.159.326.093.487-.008,1.26-.445,2.207-1.523,3.568-1.765.905-.043,1.235.759,1.771,1.238s.983,1.022,1.47,1.539l-1.588,1.04c.86.129,1.2-.576,1.794-.6a3.442,3.442,0,0,1,1,1.629c-.717.6-1.337,1.3-2.1,1.863-1.371,1.009-2.656,2.133-3.978,3.209a46.689,46.689,0,0,0-4.9-2.747,6.742,6.742,0,0,0-4.119-.7.865.865,0,0,0-.77.6c-.1.467.4.453.69.565a37.119,37.119,0,0,1,10.076,5.938.637.637,0,0,0,.673.516,59.7,59.7,0,0,1,6.228,5.418c.284.282.642.593-.066.766a65.767,65.767,0,0,1-7.1,1.611c-.125.016-.27-.123-.405-.19.2-.6.865-.824,1.131-1.372a1.518,1.518,0,0,0,.156-.135c-.085-.128-.185-.09-.282-.007a4.072,4.072,0,0,0-2.692,1.514,2.969,2.969,0,0,1-2.994-.255c-.018-.877.722-1.173,1.251-1.63q1.213-1.048,2.43-2.093l-.172-.236c-1.077.6-2.181,1.148-3.223,1.8a13.284,13.284,0,0,0-3.011,1.907,2.688,2.688,0,0,1-2.337-.867,37.969,37.969,0,0,1,5.315-4.848,3.592,3.592,0,0,0,1.571-1.355c-.555.439-1.485.24-1.787,1.076a44.909,44.909,0,0,0-7.59,4.227,2.69,2.69,0,0,1-1.645-1.16c1.946-2.194,4.541-3.635,6.676-5.61l-.18-.275-8.182,4.741c-.564-.4-1.189-.753-1.375-1.5.252-.4.812-.486,1.108-1.2l-1.487.843m19.581,4.132c-.282.045-.575.07-.724.4.395.125.672.07.731-.39l.05-.1-.056.095m-5.89-16.708c-.109-.036-.195-.1-.242-.073a1.044,1.044,0,0,0-.228.2c.062.024.136.082.182.064a1.589,1.589,0,0,0,.288-.191m-2.889,9.365c-.108-.046-.186-.109-.226-.091a1.42,1.42,0,0,0-.259.2c.068.027.146.089.2.073a1.29,1.29,0,0,0,.285-.178m6.115,5.134.048-.155-.087.024.038.13m2.38-12.52-.051-.092c-.022.027-.059.052-.062.081s.029.061.046.092l.066-.08m.881-.644-.079.063c.025.023.048.063.074.064s.053-.037.079-.058l-.074-.069m-18.476,10.5.084-.06c-.023-.026-.043-.069-.069-.073s-.056.035-.083.055l.068.078m-1.061-11.81c-.027-.025-.054-.069-.08-.069s-.054.044-.081.069c.027.025.054.069.08.069s.054-.044.081-.069" transform="translate(-83.627 -87.423)" fill="#8ec141"/>
          <path id="Trazado_819539" data-name="Trazado 819539" d="M196.61,178.279c-.075.817.594,1.457.542,2.269a28.835,28.835,0,0,0-4.464,3.7l-2.94-2.081c.486-.285.968-.574,1.457-.853,1.795-1.025,3.521-2.173,5.4-3.04" transform="translate(-124.539 -117.012)" fill="#8fc141"/>
          <path id="Trazado_819540" data-name="Trazado 819540" d="M201.787,193.894c-1.029-.406-1.678-1.347-2.628-1.865,1.649-.542,2.922-1.812,4.574-2.349.07.8,1.034,1.418.458,2.34l-2.4,1.874" transform="translate(-130.716 -124.494)" fill="#8fc141"/>
          <path id="Trazado_819541" data-name="Trazado 819541" d="M210.629,199.649a1.75,1.75,0,0,0,.087,1.726.979.979,0,0,1-.225,1.208c-.251.234-.589-.168-.858-.376a4.105,4.105,0,0,1-1.363-1.3,5.4,5.4,0,0,1,2.36-1.257" transform="translate(-136.695 -131.038)" fill="#8ec141"/>
          <path id="Trazado_819542" data-name="Trazado 819542" d="M183.545,154.043c-.026.135-.017.366-.211.3-.312-.111-.238-.432-.256-.69.243.027.356.209.467.393" transform="translate(-120.161 -100.847)" fill="#8fc141"/>
          <path id="Trazado_819543" data-name="Trazado 819543" d="M192.506,200.108a.637.637,0,0,1-.673-.516.9.9,0,0,1,.673.516" transform="translate(-125.908 -131)" fill="#8fc141"/>
          <path id="Trazado_819544" data-name="Trazado 819544" d="M160.412,8.71c-.221.848-1.169.752-1.653,1.264-.121.128-.29.049-.352-.124a.3.3,0,0,1,.165-.379c.455-.248.912-.494,1.368-.741l.472-.02" transform="translate(-103.956 -5.717)" fill="#8fc141"/>
          <path id="Trazado_819545" data-name="Trazado 819545" d="M154.639,13.545c.14-.308.286-.513.588-.483.044,0,.127.193.1.249a.46.46,0,0,1-.687.234" transform="translate(-101.496 -8.571)" fill="#8fc141"/>
          <path id="Trazado_819546" data-name="Trazado 819546" d="M164.266,8.313c.007-.073.014-.145.021-.218a.545.545,0,0,1,.226.032l-.247.186" transform="translate(-107.814 -5.313)" fill="#8fc141"/>
          <path id="Trazado_819547" data-name="Trazado 819547" d="M167.637,6.372c.028-.129.09-.214.24-.186l-.24.186" transform="translate(-110.027 -4.057)" fill="#8fc141"/>
          <path id="Trazado_819548" data-name="Trazado 819548" d="M284.055,209.148l-.47-.05c.464-.854,1.393-1.018,2.362-1.7a2.491,2.491,0,0,1-1.892,1.746" transform="translate(-186.128 -136.126)" fill="#8fc141"/>
          <path id="Trazado_819549" data-name="Trazado 819549" d="M303.573,203.323a1.164,1.164,0,0,1-1.13.626.981.981,0,0,1,1.148-.835c-.01.069-.016.14-.018.21" transform="translate(-198.505 -133.308)" fill="#8fc141"/>
          <path id="Trazado_819550" data-name="Trazado 819550" d="M281.653,212.5a.829.829,0,0,1-.7.487c0-.5.345-.5.7-.487" transform="translate(-184.402 -139.467)" fill="#8fc141"/>
          <path id="Trazado_819551" data-name="Trazado 819551" d="M110.4,284.4c-.459.663-1.3.761-1.914,1.218.235-.84.947-1.173,1.653-1.513l.051.047.21.247" transform="translate(-71.206 -186.473)" fill="#8fc141"/>
          <path id="Trazado_819552" data-name="Trazado 819552" d="M114.263,282.187c.028.268-.456.357-.242.69l.011-.008c-.232-.179-.453.049-.681.02l-.051-.047c.092-.556.46-.7.963-.655" transform="translate(-74.363 -185.205)" fill="#8fc141"/>
          <path id="Trazado_819553" data-name="Trazado 819553" d="M91.75,284.772c-.064-.027-.165-.042-.183-.087a.138.138,0,0,1,.256-.1c.018.047-.045.125-.074.19" transform="translate(-60.097 -186.73)" fill="#8ec141"/>
          <path id="Trazado_819554" data-name="Trazado 819554" d="M83.113,277.158c-.029.064-.043.163-.09.182s-.124-.045-.188-.073c.029-.064.043-.164.089-.182s.125.045.189.074" transform="translate(-54.367 -181.86)" fill="#8ec141"/>
          <path id="Trazado_819555" data-name="Trazado 819555" d="M74.168,289.833l.193.082c-.028.064-.042.164-.088.182s-.125-.044-.189-.071l.085-.192" transform="translate(-48.624 -190.229)" fill="#8fc141"/>
          <path id="Trazado_819556" data-name="Trazado 819556" d="M176.6,202.524l-.215-.279c.3-.837,1.232-.637,1.787-1.076a3.592,3.592,0,0,1-1.571,1.355" transform="translate(-115.765 -132.035)" fill="#8fc141"/>
          <path id="Trazado_819557" data-name="Trazado 819557" d="M195.1,216.5c-.059.46-.336.515-.731.39.149-.326.442-.352.724-.4Z" transform="translate(-127.571 -142.094)" fill="#8fc141"/>
          <path id="Trazado_819558" data-name="Trazado 819558" d="M178.436,167.728a1.567,1.567,0,0,1-.288.191c-.046.018-.12-.04-.182-.064a1.045,1.045,0,0,1,.229-.2c.047-.022.133.037.242.073" transform="translate(-116.806 -110.035)" fill="#8fc141"/>
          <path id="Trazado_819559" data-name="Trazado 819559" d="M170,194.946a1.276,1.276,0,0,1-.285.178c-.055.016-.133-.046-.2-.073a1.406,1.406,0,0,1,.259-.2c.04-.019.119.045.226.091" transform="translate(-111.26 -127.889)" fill="#8fc141"/>
          <path id="Trazado_819560" data-name="Trazado 819560" d="M188.648,209.77l-.038-.13.087-.024-.048.154" transform="translate(-123.792 -137.579)" fill="#8fc141"/>
          <path id="Trazado_819561" data-name="Trazado 819561" d="M195.434,173.458l-.066.08c-.017-.031-.048-.063-.046-.092s.04-.054.062-.081l.05.092" transform="translate(-128.197 -113.787)" fill="#8fc141"/>
          <path id="Trazado_819562" data-name="Trazado 819562" d="M196.475,216.313l.056-.094-.05.1-.007-.007" transform="translate(-128.954 -141.913)" fill="#8fc141"/>
        </g>
      </g>
    </g>
  </g>
</svg>
