<svg xmlns="http://www.w3.org/2000/svg" xmlns:xlink="http://www.w3.org/1999/xlink" width="190" height="190" viewBox="0 0 190 190">
  <defs>
    <clipPath id="clip-path">
      <rect id="Rect치ngulo_377557" data-name="Rect치ngulo 377557" width="190" height="190" transform="translate(1125 2520.811)" fill="#fff" stroke="#707070" stroke-width="1"/>
    </clipPath>
    <clipPath id="clip-path-2">
      <rect id="Rect치ngulo_377555" data-name="Rect치ngulo 377555" width="164.002" height="163.98" fill="none"/>
    </clipPath>
  </defs>
  <g id="Enmascarar_grupo_345" data-name="Enmascarar grupo 345" transform="translate(-1125 -2520.811)" clip-path="url(#clip-path)">
    <g id="Grupo_1073294" data-name="Grupo 1073294" transform="translate(1138.333 2534.143)">
      <g id="Grupo_1073292" data-name="Grupo 1073292" clip-path="url(#clip-path-2)">
        <path id="Trazado_820596" data-name="Trazado 820596" d="M144.8,41.7c0,6.775.008,13.55-.014,20.326a1.339,1.339,0,0,0,.685,1.293A40.053,40.053,0,0,1,160.894,82.1a40.913,40.913,0,0,1,2.649,9.8,38.183,38.183,0,0,1,.452,6.3,38.624,38.624,0,0,1-.976,7.715,39.867,39.867,0,0,1-5,12.732,40.836,40.836,0,0,1-23.945,18.013,26.226,26.226,0,0,1-5.117,1.06c-.61.045-.806.556-1.095.9-1.75,2.068-3.686,3.954-5.592,5.873-3.194,3.215-6.98,5.643-10.723,8.133a35.651,35.651,0,0,1-5.091,3,91.7,91.7,0,0,1-8.72,3.77c-1.631.535-3.267,1.076-4.9,1.595-2.264.716-4.585,1.136-6.882,1.672-1.262.295-2.6.263-3.863.55-2.426.552-4.91.407-7.359.693a29.512,29.512,0,0,1-4.819-.095c-2.178-.11-4.347-.3-6.515-.593q-3.6-.486-7.121-1.329a75.782,75.782,0,0,1-12.216-4.074,66.206,66.206,0,0,1-9.341-4.885,64.226,64.226,0,0,1-9.783-7.2c-1.573-1.468-3.148-2.94-4.657-4.465a57.934,57.934,0,0,1-4.609-5.375A74.162,74.162,0,0,1,4.552,115.9a82.059,82.059,0,0,1-2.715-9.378c-.532-2.263-.832-4.559-1.215-6.843-.177-1.056-.175-2.142-.333-3.21a16.6,16.6,0,0,1-.271-3.436c.11-1.671.026-3.335.095-5a71.693,71.693,0,0,1,.94-8.671A73.951,73.951,0,0,1,4.267,66.872q1.073-3.062,2.428-6a82.261,82.261,0,0,1,7.2-12.6,55.644,55.644,0,0,1,4.244-5.123c1.227-1.383,2.415-2.8,3.754-4.076a76.259,76.259,0,0,1,10.01-8.23,73.317,73.317,0,0,1,13.994-7.417,93.556,93.556,0,0,1,10.971-3.448c1.225-.317,2.527-.349,3.739-.7a32.829,32.829,0,0,1,5.937-.832,56.821,56.821,0,0,1,8.287-.234,75.9,75.9,0,0,1,18.792,3.05,41.724,41.724,0,0,1,6.462,2.345c.068.033.14.059.211.087,1.213.479,1.363.4,1.309-.91a21.749,21.749,0,0,1,1.136-8.424,19.9,19.9,0,0,1,2.764-5.14,24.2,24.2,0,0,1,3.164-3.625A21.01,21.01,0,0,1,119.713.219a22.719,22.719,0,0,1,8.036.334,20.668,20.668,0,0,1,12.381,7.635,20.177,20.177,0,0,1,3.2,5.793,21.83,21.83,0,0,1,1.3,5.987c.37,5.855.069,11.717.159,17.575.022,1.386,0,2.774,0,4.161M37.091,94.332c.83.257,1.665.5,2.492.771a45.987,45.987,0,0,1,14,7.125,2.468,2.468,0,0,1,.506,3.907,2.645,2.645,0,0,1-3.251-.06,38.527,38.527,0,0,0-12.6-6.348c-1.569-.46-3.134-.923-4.723-1.312a25.4,25.4,0,0,0-7.95-.487,12.523,12.523,0,0,0-5.585,2.22c-4.5,2.815-8.158,6.578-11.738,10.431a.851.851,0,0,0-.2,1.006c.3.768.548,1.555.819,2.334a70.713,70.713,0,0,0,12.321,21.414,57.449,57.449,0,0,0,5.99,6.158,67.356,67.356,0,0,0,9.52,7.222,54.067,54.067,0,0,0,8.144,4.315c1.973.813,4,1.517,5.992,2.274,1.932.734,3.924,1.18,5.88,1.765a43.135,43.135,0,0,0,6.649,1.288c1.208.162,2.414.341,3.623.5.668.089.948-.14.729-.588a14.921,14.921,0,0,0-4.319-5.44,22.181,22.181,0,0,1-5.883-6.381,19.427,19.427,0,0,1-3.013-11.37c.277-3.919.924-7.8,1.141-11.728a42.922,42.922,0,0,0-.369-9.55,3.025,3.025,0,0,1,1.519-3.566c1.738-.1,2.763.565,3.03,1.9a56.045,56.045,0,0,1,.627,6.745c.123,1.62-.186,3.224-.154,4.846a61.883,61.883,0,0,1-.529,6.531,25.323,25.323,0,0,1-.309,3.018,13.913,13.913,0,0,0-.177,4.326,21.383,21.383,0,0,0,.776,2.854,13.758,13.758,0,0,0,2.829,5.436,5.985,5.985,0,0,0,1.665,1.8c3.778,2.848,6.8,6.27,8.3,10.854.145.442.451.526.868.5,1.27-.078,2.541-.031,3.815-.165,2.377-.25,4.76-.432,7.108-.9a61.353,61.353,0,0,0,7.558-1.676c.93-.246.938-.266.495-1.154a71.453,71.453,0,0,1-3.986-9.812c-1.361-4.185-2.73-8.388-2.1-12.9a12.72,12.72,0,0,1,.691-2.7,29.8,29.8,0,0,1,3.575-6.129.965.965,0,0,0,.025-1.319,42.163,42.163,0,0,1-4.506-7.47c-.184-.417-.525-.328-.818-.279a52.151,52.151,0,0,1-8.755.654,7.355,7.355,0,0,1-5.855-2.686,36.771,36.771,0,0,1-2.85-3.97c-.79-1.2-1.452-2.484-2.143-3.744-.812-1.481-1.567-2.989-2.32-4.5a64.252,64.252,0,0,1-3.319-8.482,10.4,10.4,0,0,1,1.422-9.771A23.75,23.75,0,0,1,66.325,77.1c6.522-5.227,13.65-9.137,22.127-10.129a13.166,13.166,0,0,1,5.782.406,1.7,1.7,0,0,0,1.935-.453,27.781,27.781,0,0,1,3.819-3.029c.683-.473,1.616-.816,1.626-1.893a9.059,9.059,0,0,0-.05-1.913q.119-7.587.012-15.174a.6.6,0,0,0,.043-.153q0-7.466-.006-14.933c0-.441-.188-.618-.583-.8A59.966,59.966,0,0,0,92.2,25.733a53.91,53.91,0,0,0-7.4-1.647c-1.149-.57-2.432-.334-3.645-.551a44.08,44.08,0,0,0-6.7-.535,65.842,65.842,0,0,0-10.252.578,69.516,69.516,0,0,0-10.211,2.085,67.764,67.764,0,0,0-19.125,8.886,62.6,62.6,0,0,0-5.451,4.07,31.636,31.636,0,0,0-3.1,2.781c-.253.278-.339.406-.078.761,1.084,1.475,2.073,3.013,3.03,4.576,1.974,3.224,3.3,6.605,3.014,10.478a38.363,38.363,0,0,1-1.8,8.409,82.99,82.99,0,0,1-4.757,12.088,48.975,48.975,0,0,1-5.145,8.72,9.817,9.817,0,0,1-4.267,3.626c-1.5.536-3.03.994-4.56,1.439-2.068.6-4.147,1.166-6.227,1.722-.458.122-.672.317-.6.818.122.891.067,1.81.2,2.683.125.821.023,1.637.175,2.446.218,1.165.407,2.336.586,3.508a9.111,9.111,0,0,0,.8,2.909,9.79,9.79,0,0,1,.659-.886,61.329,61.329,0,0,1,9.4-8.047,19.811,19.811,0,0,1,14.6-3.413c1.937.269,3.838.709,5.75,1.1M140.016,42.217h.014q0-10.041,0-20.082A19.579,19.579,0,0,0,139.387,17,16.4,16.4,0,0,0,132.2,7.3a16.713,16.713,0,0,0-12.036-2.352,14.924,14.924,0,0,0-8.691,4.48,27.36,27.36,0,0,0-3.882,5.618,15.108,15.108,0,0,0-1.206,6.188q.019,21.081.008,42.163a3.145,3.145,0,0,1-1.584,2.955,35.5,35.5,0,0,0-5.592,4.133A37.026,37.026,0,0,0,91.166,80.8a34.277,34.277,0,0,0-3.939,13.538,36.087,36.087,0,0,0,.289,8.808,38.807,38.807,0,0,0,3.641,10.812,35.521,35.521,0,0,0,8.485,10.763,38.269,38.269,0,0,0,9.753,6.025,32.375,32.375,0,0,0,10.631,2.621,34.136,34.136,0,0,0,8.8-.311,35.7,35.7,0,0,0,10.6-3.494,37.566,37.566,0,0,0,11.646-9.332A35.484,35.484,0,0,0,159.2,97.7a34.993,34.993,0,0,0-.527-6.69,35.859,35.859,0,0,0-4.331-11.749,34.24,34.24,0,0,0-12.206-12.5,3.918,3.918,0,0,1-2.149-3.815c.083-6.906.033-13.814.033-20.721M78.408,110.352a33.776,33.776,0,0,0,5.223-.311c.526-.049.775-.2.586-.814A35.55,35.55,0,0,1,82.476,98.67a43.144,43.144,0,0,1,.332-6.844,57.451,57.451,0,0,1,1.769-7.585c.326-1.076.962-2.019,1.249-3.1a11.312,11.312,0,0,1,1.409-3.025,41.37,41.37,0,0,1,3.938-5.8c.134-.15.355-.311.246-.544s-.38-.126-.579-.141a17.343,17.343,0,0,0-5.859.711,36.543,36.543,0,0,0-7.073,2.688,37.284,37.284,0,0,0-7.716,4.889,21.223,21.223,0,0,0-5.148,5.734,4.568,4.568,0,0,0-.512,3.05,42.611,42.611,0,0,0,3.8,10.558c.98,2.129,2.171,4.149,3.308,6.2a32.967,32.967,0,0,0,2.917,4.2,1.456,1.456,0,0,0,1.181.7c.891-.013,1.781,0,2.671,0M27.624,55.84a7.151,7.151,0,0,0-.449-2.662,32.741,32.741,0,0,0-4.085-7.441c-.327-.48-.592-.423-.926-.023-.512.613-1.047,1.206-1.567,1.811A62.625,62.625,0,0,0,15.132,55c-1.088,1.727-2.048,3.545-2.979,5.374A68.1,68.1,0,0,0,8.433,69.3,71.451,71.451,0,0,0,5.717,80.282c-.409,2.366-.4,4.768-.785,7.133-.147.894.058,1.033.9.814,2.858-.747,5.7-1.541,8.52-2.437a3.38,3.38,0,0,0,1.4-.889,21.473,21.473,0,0,0,3.009-4.125,73.56,73.56,0,0,0,7.373-17.032,31.6,31.6,0,0,0,1.5-7.906m63.537,78.642a20.1,20.1,0,0,0,.588,4.276,84.642,84.642,0,0,0,5.45,15.136c.232.534.59.6,1.093.365,2.651-1.236,5.314-2.436,7.888-3.843A70.661,70.661,0,0,0,121.5,138.845c.135-.131.327-.262.271-.456-.079-.277-.354-.155-.549-.176a43.2,43.2,0,0,1-4.8-.542c-3.3-.738-6.618-1.411-9.668-3.041-1.164-.622-2.423-1.132-3.593-1.766a37.691,37.691,0,0,1-7.813-5.751c-.66-.619-.723-.586-1.3.152a13.638,13.638,0,0,0-1.342,2.2,10.079,10.079,0,0,0-1.537,5.018" transform="translate(0 0)" fill="#060707"/>
        <path id="Trazado_820597" data-name="Trazado 820597" d="M74.927,119.667a2.468,2.468,0,0,0-.506-3.907,45.983,45.983,0,0,0-14-7.125c-.827-.268-1.661-.514-2.492-.77a3.835,3.835,0,0,0,.159-1.177c0-2.578-.076-5.158.165-7.73a86.258,86.258,0,0,1,1.469-9.429,52.647,52.647,0,0,1,1.651-6.142,59.9,59.9,0,0,1,4.543-10.838c.847.273,1.727.468,2.565.716a8.991,8.991,0,0,0,3.963.108,9.495,9.495,0,0,0,5.6-2.945c2.99-3.166,2.049-6.929-.428-9.742a2.468,2.468,0,0,0,.926-1.863,34.627,34.627,0,0,0-.044-4.367,1.3,1.3,0,0,0,1.058-.435,67.632,67.632,0,0,1,7.151-6.2,70.738,70.738,0,0,1,10.729-6.562,41.732,41.732,0,0,1,6.743-2.651,2.229,2.229,0,0,0,1.461-.989,53.91,53.91,0,0,1,7.4,1.647,59.911,59.911,0,0,1,8.827,3.287c.4.186.584.364.583.8q-.007,7.465.006,14.932a.578.578,0,0,1-.043.153l-3.8.341c-.025-.219-.051-.437-.076-.656a26.822,26.822,0,0,0-.073-3.434,2.285,2.285,0,0,0-2.68-2.018,2.409,2.409,0,0,0-2.007,2.415c-.012,1.067.037,2.136-.015,3.2a3,3,0,0,0,1,2.491c-.51.2-.646.745-1,1.1-2.183,2.2-1.836,6.458.165,8.532,2.343,2.429,5.24,3.2,8.463,3.2a8.982,8.982,0,0,1,.05,1.914c-.01,1.078-.943,1.42-1.626,1.893a27.709,27.709,0,0,0-3.819,3.03,1.7,1.7,0,0,1-1.936.453,13.163,13.163,0,0,0-5.782-.406c-8.478.992-15.606,4.9-22.128,10.129a23.73,23.73,0,0,0-4.577,4.946,10.4,10.4,0,0,0-1.423,9.772,64.191,64.191,0,0,0,3.319,8.482c.752,1.508,1.507,3.016,2.319,4.5.691,1.26,1.354,2.547,2.143,3.744a36.856,36.856,0,0,0,2.85,3.97,7.356,7.356,0,0,0,5.855,2.686,52.15,52.15,0,0,0,8.755-.654c.294-.049.635-.138.818.279a42.229,42.229,0,0,0,4.506,7.471.964.964,0,0,1-.025,1.318,29.825,29.825,0,0,0-3.575,6.129,12.722,12.722,0,0,0-.692,2.7c-.628,4.508.741,8.71,2.1,12.9a71.372,71.372,0,0,0,3.986,9.812c.443.888.435.908-.5,1.154a61.327,61.327,0,0,1-7.558,1.676c.053-.408-.2-.544-.535-.655-.642-.215-1.279-.428-1.91-.69a75.618,75.618,0,0,1-9.906-4.839c-2.877-1.72-5.89-3.248-8.379-5.557a1.315,1.315,0,0,0-1.028-.346,13.752,13.752,0,0,1-2.83-5.436,21.58,21.58,0,0,1-.776-2.854,13.894,13.894,0,0,1,.178-4.326,25.46,25.46,0,0,0,.308-3.018,62.056,62.056,0,0,0,.53-6.531c-.033-1.621.277-3.226.154-4.846a56.044,56.044,0,0,0-.628-6.745c-.266-1.338-1.291-2-3.029-1.9a5.436,5.436,0,0,0-1.272-2.687c-.424-.515-.65-1.241-1.421-1.411m26.311-56.233a2.208,2.208,0,0,0,2.35-2.831,3.332,3.332,0,0,0-1.126-1.731,9.151,9.151,0,0,0-13.231.614,2.235,2.235,0,0,0-.633,2.238,2.362,2.362,0,0,0,4,.973,4.259,4.259,0,0,1,1.891-1.3,4.782,4.782,0,0,1,5.059,1.153c.5.487,1.009.973,1.692.88" transform="translate(-20.838 -13.532)" fill="#75b5e6"/>
        <path id="Trazado_820598" data-name="Trazado 820598" d="M188.945,44.855c0,6.907.05,13.815-.033,20.721a3.917,3.917,0,0,0,2.149,3.814,34.245,34.245,0,0,1,12.206,12.5,35.857,35.857,0,0,1,4.331,11.75,34.984,34.984,0,0,1,.527,6.69A35.482,35.482,0,0,1,200,122.868a37.569,37.569,0,0,1-11.646,9.333,35.716,35.716,0,0,1-10.6,3.494,34.167,34.167,0,0,1-8.8.311,32.391,32.391,0,0,1-10.631-2.621,38.287,38.287,0,0,1-9.753-6.025,35.529,35.529,0,0,1-8.485-10.763,38.81,38.81,0,0,1-3.641-10.813,36.086,36.086,0,0,1-.289-8.808A34.278,34.278,0,0,1,140.1,83.438a37.007,37.007,0,0,1,8.048-10.317,35.458,35.458,0,0,1,5.592-4.133,3.145,3.145,0,0,0,1.584-2.955q0-21.081-.007-42.163a15.1,15.1,0,0,1,1.206-6.189,27.317,27.317,0,0,1,3.883-5.617,14.913,14.913,0,0,1,8.691-4.48,16.713,16.713,0,0,1,12.036,2.352,16.391,16.391,0,0,1,7.189,9.7,19.571,19.571,0,0,1,.643,5.136q0,10.04,0,20.081ZM165.727,48.48a2.5,2.5,0,0,0-2.414,2.465q.013,8.319.028,16.64c0,1.334,0,2.667-.008,4,0,.516-.019,1.1-.488,1.393-1.085.686-2.2,1.33-3.333,1.93a32.443,32.443,0,0,0-6.743,4.878,24.933,24.933,0,0,0-4.427,5.572A26.625,26.625,0,0,0,144.2,98.68a26.968,26.968,0,0,0,.211,5.581,31.833,31.833,0,0,0,1.452,5.475,30.984,30.984,0,0,0,5.234,8.715,25.2,25.2,0,0,0,5.226,4.776,26.7,26.7,0,0,0,7.354,3.55,26.405,26.405,0,0,0,6.448,1.246,30.6,30.6,0,0,0,8.691-.9,27.556,27.556,0,0,0,9.366-4.173,28.652,28.652,0,0,0,11.826-25,29.21,29.21,0,0,0-1.8-7.95,28.127,28.127,0,0,0-8.936-12.041,56.816,56.816,0,0,0-7.608-4.671,1.286,1.286,0,0,1-.749-1.307q.029-23,.016-46a14.351,14.351,0,0,0-.612-4.473,8.15,8.15,0,0,0-5.326-5.6,10.326,10.326,0,0,0-3.518-.382c-4.668.038-7.518,4.048-7.99,7.465a36.1,36.1,0,0,0-.133,4.874q-.017,6.4,0,12.8a2.553,2.553,0,0,0,2.249,2.91,38.263,38.263,0,0,1,.135,4.9" transform="translate(-48.929 -2.638)" fill="#f6f8fa"/>
        <path id="Trazado_820599" data-name="Trazado 820599" d="M58.557,161.1c.771.169,1,.9,1.421,1.411a5.434,5.434,0,0,1,1.272,2.686,3.025,3.025,0,0,0-1.52,3.566,42.845,42.845,0,0,1,.369,9.55c-.216,3.924-.864,7.81-1.141,11.728a19.427,19.427,0,0,0,3.013,11.37,22.19,22.19,0,0,0,5.883,6.381,14.922,14.922,0,0,1,4.32,5.44c.218.448-.062.677-.729.588-1.209-.161-2.415-.339-3.624-.5a43.13,43.13,0,0,1-6.649-1.288c-1.956-.585-3.948-1.031-5.88-1.765-1.993-.757-4.019-1.461-5.992-2.274a54.038,54.038,0,0,1-8.144-4.315,67.369,67.369,0,0,1-9.52-7.222,57.51,57.51,0,0,1-5.99-6.158A70.715,70.715,0,0,1,13.324,168.88c-.271-.779-.521-1.566-.819-2.334a.851.851,0,0,1,.2-1.006c3.58-3.853,7.238-7.617,11.739-10.431a12.517,12.517,0,0,1,5.585-2.22,25.4,25.4,0,0,1,7.95.487c1.589.389,3.154.852,4.723,1.312a38.531,38.531,0,0,1,12.6,6.348,2.645,2.645,0,0,0,3.251.06" transform="translate(-4.469 -54.96)" fill="#47a779"/>
        <path id="Trazado_820600" data-name="Trazado 820600" d="M87.562,37a2.234,2.234,0,0,1-1.461.989,41.683,41.683,0,0,0-6.743,2.651A70.827,70.827,0,0,0,68.628,47.2a67.636,67.636,0,0,0-7.151,6.2,1.3,1.3,0,0,1-1.059.435,2.467,2.467,0,0,0-2.192-1.816,2.378,2.378,0,0,0-2.5,2.6c-.041,1.225-.032,2.451-.045,3.676a11.277,11.277,0,0,0-9.438,1.692c-3.3,2.312-4.2,6.8-.962,9.974.782.768,1.765,1.238,2.559,1.97a59.893,59.893,0,0,0-4.543,10.839,52.734,52.734,0,0,0-1.651,6.142,86.212,86.212,0,0,0-1.47,9.429c-.24,2.572-.166,5.152-.165,7.73a3.851,3.851,0,0,1-.159,1.176c-1.913-.387-3.813-.827-5.75-1.1a19.814,19.814,0,0,0-14.6,3.412,61.366,61.366,0,0,0-9.4,8.047,9.81,9.81,0,0,0-.659.887,9.115,9.115,0,0,1-.8-2.91c-.179-1.172-.368-2.342-.586-3.507-.152-.809-.05-1.626-.175-2.446-.133-.873-.077-1.792-.2-2.683-.068-.5.147-.7.6-.818,2.08-.556,4.159-1.121,6.227-1.722,1.53-.445,3.06-.9,4.56-1.44a9.816,9.816,0,0,0,4.267-3.625,48.976,48.976,0,0,0,5.145-8.72,82.99,82.99,0,0,0,4.757-12.088,38.371,38.371,0,0,0,1.8-8.409c.286-3.873-1.04-7.254-3.014-10.478-.957-1.564-1.946-3.1-3.03-4.577-.261-.355-.175-.483.078-.761a31.636,31.636,0,0,1,3.1-2.781,62.74,62.74,0,0,1,5.451-4.071,67.781,67.781,0,0,1,19.125-8.886,69.6,69.6,0,0,1,10.211-2.084,65.843,65.843,0,0,1,10.252-.578,44.16,44.16,0,0,1,6.7.535c1.213.218,2.5-.019,3.645.552" transform="translate(-2.76 -12.911)" fill="#529bd6"/>
        <path id="Trazado_820601" data-name="Trazado 820601" d="M114.622,150.575c-.891,0-1.781-.01-2.671,0a1.459,1.459,0,0,1-1.181-.7,32.968,32.968,0,0,1-2.917-4.2c-1.136-2.049-2.327-4.069-3.308-6.2a42.624,42.624,0,0,1-3.8-10.559,4.572,4.572,0,0,1,.512-3.05,21.223,21.223,0,0,1,5.148-5.734,37.284,37.284,0,0,1,7.716-4.889,36.541,36.541,0,0,1,7.073-2.688,17.358,17.358,0,0,1,5.859-.711c.2.015.465-.1.579.141s-.111.393-.246.544a41.329,41.329,0,0,0-3.938,5.8,11.322,11.322,0,0,0-1.409,3.025c-.287,1.083-.923,2.026-1.249,3.1a57.462,57.462,0,0,0-1.769,7.586,43.137,43.137,0,0,0-.332,6.844,35.542,35.542,0,0,0,1.741,10.556c.19.613-.06.765-.586.814a33.7,33.7,0,0,1-5.223.311" transform="translate(-36.214 -40.223)" fill="#47a779"/>
        <path id="Trazado_820602" data-name="Trazado 820602" d="M30.37,81.344a31.637,31.637,0,0,1-1.5,7.906A73.518,73.518,0,0,1,21.5,106.282a21.425,21.425,0,0,1-3.009,4.125,3.37,3.37,0,0,1-1.4.889c-2.816.9-5.661,1.69-8.52,2.437-.838.22-1.042.08-.9-.814.387-2.365.376-4.766.785-7.132A71.441,71.441,0,0,1,11.179,94.8,68.084,68.084,0,0,1,14.9,85.88c.932-1.829,1.891-3.646,2.98-5.374a62.625,62.625,0,0,1,5.464-7.476c.521-.606,1.056-1.2,1.567-1.811.334-.4.6-.457.926.022a32.745,32.745,0,0,1,4.085,7.442,7.145,7.145,0,0,1,.449,2.661" transform="translate(-2.746 -25.504)" fill="#47a779"/>
        <path id="Trazado_820603" data-name="Trazado 820603" d="M142.372,205.651a10.08,10.08,0,0,1,1.537-5.018,13.639,13.639,0,0,1,1.342-2.2c.581-.739.644-.772,1.3-.152a37.692,37.692,0,0,0,7.813,5.751c1.17.634,2.429,1.144,3.593,1.766,3.05,1.631,6.369,2.3,9.668,3.041a43.191,43.191,0,0,0,4.8.542c.2.021.47-.1.549.176.056.194-.136.325-.271.456a70.661,70.661,0,0,1-15.316,11.571c-2.575,1.407-5.237,2.607-7.888,3.843-.5.234-.861.169-1.093-.365a84.643,84.643,0,0,1-5.45-15.136,20.1,20.1,0,0,1-.588-4.276" transform="translate(-51.212 -71.169)" fill="#47a779"/>
        <path id="Trazado_820604" data-name="Trazado 820604" d="M149.154,70.483l3.8-.341q.1,7.586-.012,15.173c-3.224,0-6.121-.775-8.464-3.2-2-2.074-2.347-6.336-.164-8.532.35-.352.486-.9,1-1.1a2.482,2.482,0,0,0,3.757-2l.044.033Z" transform="translate(-51.375 -25.231)" fill="#f6f8fa"/>
        <path id="Trazado_820605" data-name="Trazado 820605" d="M98.2,227.853a1.311,1.311,0,0,1,1.028.346c2.489,2.309,5.5,3.837,8.379,5.556a75.548,75.548,0,0,0,9.907,4.839c.631.262,1.268.474,1.909.689.332.111.588.247.536.656-2.348.472-4.731.654-7.108.9-1.274.134-2.544.087-3.814.165-.417.026-.723-.058-.868-.5-1.5-4.584-4.526-8.006-8.3-10.854a5.983,5.983,0,0,1-1.664-1.8" transform="translate(-35.324 -81.961)" fill="#529bd6"/>
        <path id="Trazado_820606" data-name="Trazado 820606" d="M67.831,84.307c-.793-.732-1.776-1.2-2.559-1.97-3.237-3.178-2.343-7.662.962-9.975a11.277,11.277,0,0,1,9.438-1.691c.434,2.306,2.313,2.8,3.857,1.773,2.477,2.813,3.418,6.576.428,9.743a9.488,9.488,0,0,1-5.6,2.944,8.981,8.981,0,0,1-3.963-.108c-.838-.248-1.718-.443-2.565-.716" transform="translate(-22.753 -25.29)" fill="#f6f8fa"/>
        <path id="Trazado_820607" data-name="Trazado 820607" d="M118.415,73.952c-.683.092-1.192-.393-1.692-.88a4.782,4.782,0,0,0-5.059-1.153,4.259,4.259,0,0,0-1.891,1.3,2.362,2.362,0,0,1-4-.973A2.235,2.235,0,0,1,106.408,70a9.151,9.151,0,0,1,13.231-.614,3.331,3.331,0,0,1,1.126,1.731,2.208,2.208,0,0,1-2.35,2.831" transform="translate(-38.015 -24.05)" fill="#060707"/>
        <path id="Trazado_820608" data-name="Trazado 820608" d="M86.506,69.125c-1.543,1.022-3.422.533-3.856-1.773.013-1.225.005-2.452.046-3.677a2.378,2.378,0,0,1,2.5-2.6,2.468,2.468,0,0,1,2.192,1.816,34.627,34.627,0,0,1,.044,4.367,2.467,2.467,0,0,1-.926,1.863" transform="translate(-29.731 -21.971)" fill="#060707"/>
        <path id="Trazado_820609" data-name="Trazado 820609" d="M149.9,67.233a2.482,2.482,0,0,1-3.757,2,3,3,0,0,1-1-2.491c.051-1.065,0-2.134.014-3.2a2.409,2.409,0,0,1,2.007-2.414,2.285,2.285,0,0,1,2.68,2.017,26.822,26.822,0,0,1,.074,3.434.739.739,0,0,0-.015.652" transform="translate(-52.206 -21.985)" fill="#060707"/>
        <path id="Trazado_820610" data-name="Trazado 820610" d="M152.533,70.3a.739.739,0,0,1,.015-.652q.037.328.076.657l-.047.029Z" transform="translate(-54.844 -25.054)" fill="#47a779"/>
        <path id="Trazado_820611" data-name="Trazado 820611" d="M172.925,55.717a38.153,38.153,0,0,0-.136-4.9,2.531,2.531,0,0,0,2.52-2.724c.005-5.468.018-10.937-.014-16.4a4.652,4.652,0,0,1,.63-2.329,4.014,4.014,0,0,1,5.587-1.289c1.514.949,1.821,2.45,1.821,4.083,0,16.031.02,32.062-.028,48.093a3.821,3.821,0,0,0,2.2,3.783c2.3,1.25,4.6,2.518,6.78,3.982a20.923,20.923,0,0,1,4.5,3.94,22.96,22.96,0,0,1,5.613,17.019,23.446,23.446,0,0,1-1.373,6.524,23.124,23.124,0,0,1-25.972,14.614c-10.8-2.065-17.707-10.531-18.9-20.536a20.918,20.918,0,0,1,.515-7.427,23.2,23.2,0,0,1,11.261-15.127c1.977-1.156,3.965-2.293,5.941-3.451a2.653,2.653,0,0,0,1.437-2.414q0-11.442-.007-22.887a2.367,2.367,0,0,0-2.381-2.55m6.476,54.621c1.018-.218,1.694.461,2.4,1.078a2.26,2.26,0,0,0,2.749.5,2.321,2.321,0,0,0,1.346-2.48,2.684,2.684,0,0,0-.983-1.768,7.989,7.989,0,0,0-6.624-2.176,7.766,7.766,0,0,0-4.988,2.67,2.267,2.267,0,0,0,.037,3.126c1.014,1.01,1.765,1.259,3.073.421.312-.2.592-.45.886-.679a2.682,2.682,0,0,1,2.105-.691m18.322-4.018h0c0-.532.013-1.065,0-1.6a2.39,2.39,0,0,0-4.765-.08c-.045,1.115-.047,2.236,0,3.351a2.382,2.382,0,0,0,2.446,2.324,2.518,2.518,0,0,0,2.321-2.482c.007-.505,0-1.011,0-1.516m-32.01.04c0-.532.012-1.064,0-1.6a2.365,2.365,0,0,0-2.268-2.306,2.4,2.4,0,0,0-2.515,2.226c.01,1.09-.031,2.182.015,3.271a2.39,2.39,0,0,0,2.409,2.364,2.512,2.512,0,0,0,2.361-2.522c.006-.479,0-.957,0-1.436" transform="translate(-56.126 -9.876)" fill="#e55b7e"/>
        <path id="Trazado_820612" data-name="Trazado 820612" d="M170.3,53.083a2.367,2.367,0,0,1,2.381,2.55q.016,11.443.006,22.887a2.653,2.653,0,0,1-1.437,2.415c-1.975,1.158-3.963,2.295-5.941,3.45a23.2,23.2,0,0,0-11.261,15.127,20.917,20.917,0,0,0-.516,7.427c1.191,10.005,8.1,18.471,18.9,20.536A23.124,23.124,0,0,0,198.4,112.86a23.423,23.423,0,0,0,1.373-6.524,22.957,22.957,0,0,0-5.613-17.019,20.887,20.887,0,0,0-4.5-3.94c-2.179-1.464-4.478-2.732-6.781-3.982a3.821,3.821,0,0,1-2.2-3.783c.048-16.031.028-32.063.028-48.093,0-1.633-.307-3.134-1.821-4.083a4.014,4.014,0,0,0-5.587,1.289,4.65,4.65,0,0,0-.63,2.329c.031,5.468.019,10.936.014,16.4a2.419,2.419,0,1,1-4.768-.186q-.024-6.4,0-12.8a36.109,36.109,0,0,1,.133-4.874c.473-3.417,3.322-7.427,7.99-7.465a10.326,10.326,0,0,1,3.518.382,8.15,8.15,0,0,1,5.326,5.6,14.351,14.351,0,0,1,.612,4.473q0,23-.016,46a1.286,1.286,0,0,0,.749,1.307,56.814,56.814,0,0,1,7.608,4.671,28.127,28.127,0,0,1,8.936,12.041,29.21,29.21,0,0,1,1.8,7.95,28.652,28.652,0,0,1-11.826,25,27.556,27.556,0,0,1-9.366,4.173,30.6,30.6,0,0,1-8.691.9,26.405,26.405,0,0,1-6.448-1.246,26.7,26.7,0,0,1-7.354-3.55,25.2,25.2,0,0,1-5.226-4.776,30.983,30.983,0,0,1-5.234-8.716,31.83,31.83,0,0,1-1.452-5.475,26.966,26.966,0,0,1-.211-5.581,26.624,26.624,0,0,1,4.143-13.322,24.933,24.933,0,0,1,4.427-5.572,32.443,32.443,0,0,1,6.743-4.878c1.134-.6,2.248-1.245,3.333-1.93.469-.3.483-.877.488-1.393.011-1.334.01-2.667.008-4q-.012-8.32-.028-16.64a2.5,2.5,0,0,1,2.414-2.465" transform="translate(-53.5 -7.242)" fill="#060707"/>
        <path id="Trazado_820613" data-name="Trazado 820613" d="M188.763,154.141a2.678,2.678,0,0,0-2.1.691c-.294.228-.574.478-.886.678-1.309.839-2.059.589-3.073-.42a2.268,2.268,0,0,1-.036-3.127,7.772,7.772,0,0,1,4.988-2.67,7.987,7.987,0,0,1,6.624,2.176,2.683,2.683,0,0,1,.983,1.768,2.321,2.321,0,0,1-1.345,2.48,2.261,2.261,0,0,1-2.75-.5c-.7-.617-1.38-1.3-2.4-1.079" transform="translate(-65.489 -53.679)" fill="#060707"/>
        <path id="Trazado_820614" data-name="Trazado 820614" d="M218.446,148.47c0,.506.006,1.011,0,1.517a2.518,2.518,0,0,1-2.321,2.482,2.381,2.381,0,0,1-2.445-2.324c-.051-1.115-.05-2.236-.005-3.352a2.39,2.39,0,0,1,4.766.081c.016.531,0,1.064,0,1.6Z" transform="translate(-76.85 -52.026)" fill="#060707"/>
        <path id="Trazado_820615" data-name="Trazado 820615" d="M168.46,148.494c0,.479,0,.957,0,1.436a2.513,2.513,0,0,1-2.361,2.522,2.389,2.389,0,0,1-2.408-2.364c-.047-1.089-.006-2.181-.016-3.271a2.4,2.4,0,0,1,2.515-2.226,2.366,2.366,0,0,1,2.269,2.306c.014.531,0,1.063,0,1.6" transform="translate(-58.874 -52.01)" fill="#060707"/>
      </g>
    </g>
  </g>
</svg>
