<svg xmlns="http://www.w3.org/2000/svg" xmlns:xlink="http://www.w3.org/1999/xlink" width="190" height="203" viewBox="0 0 190 203">
  <defs>
    <linearGradient id="linear-gradient" x1="0.5" x2="0.5" y2="1" gradientUnits="objectBoundingBox">
      <stop offset="0" stop-color="#defff8"/>
      <stop offset="0.803" stop-color="#eaf5ff"/>
      <stop offset="1" stop-color="#f0feff"/>
    </linearGradient>
    <clipPath id="clip-path">
      <rect id="Rectángulo_377394" data-name="Rectángulo 377394" width="136" height="136" transform="translate(319 1888.867)" fill="none" stroke="#707070" stroke-width="1"/>
    </clipPath>
    <clipPath id="clip-path-2">
      <rect id="Rectángulo_377400" data-name="Rectángulo 377400" width="120.923" height="118.889" fill="none"/>
    </clipPath>
  </defs>
  <g id="Grupo_1073528" data-name="Grupo 1073528" transform="translate(-705 -3950)">
    <rect id="Rectángulo_377386" data-name="Rectángulo 377386" width="190" height="203" rx="20" transform="translate(705 3950)" fill="url(#linear-gradient)"/>
    <path id="Trazado_822141" data-name="Trazado 822141" d="M-79.723-4.164H-81.59V0h-2.344V-11.375h4.227a4.778,4.778,0,0,1,3.109.9A3.1,3.1,0,0,1-75.5-7.937,3.5,3.5,0,0,1-76.008-6a3.437,3.437,0,0,1-1.527,1.238l2.461,4.648V0H-77.59Zm-1.867-1.9H-79.7a1.936,1.936,0,0,0,1.367-.449,1.606,1.606,0,0,0,.484-1.238A1.719,1.719,0,0,0-78.3-9.016a1.9,1.9,0,0,0-1.4-.461H-81.59ZM-69.98.156A4.15,4.15,0,0,1-73.008-.984a4.054,4.054,0,0,1-1.168-3.039v-.219a5.106,5.106,0,0,1,.492-2.277,3.612,3.612,0,0,1,1.395-1.547,3.914,3.914,0,0,1,2.059-.543A3.508,3.508,0,0,1-67.5-7.516a4.444,4.444,0,0,1,1,3.1v.922h-5.383a2.1,2.1,0,0,0,.66,1.328,2,2,0,0,0,1.395.5,2.437,2.437,0,0,0,2.039-.945l1.109,1.242A3.389,3.389,0,0,1-68.059-.246,4.511,4.511,0,0,1-69.98.156Zm-.258-6.945a1.411,1.411,0,0,0-1.09.455,2.357,2.357,0,0,0-.535,1.3h3.141v-.181a1.681,1.681,0,0,0-.406-1.165A1.456,1.456,0,0,0-70.238-6.789Zm9.594,4.453a.727.727,0,0,0-.41-.652,4.659,4.659,0,0,0-1.316-.426q-3.016-.633-3.016-2.562a2.323,2.323,0,0,1,.934-1.879,3.766,3.766,0,0,1,2.441-.754,4.053,4.053,0,0,1,2.574.758,2.388,2.388,0,0,1,.965,1.969H-60.73a1.092,1.092,0,0,0-.312-.8A1.322,1.322,0,0,0-62.02-7a1.351,1.351,0,0,0-.883.258.814.814,0,0,0-.312.656.7.7,0,0,0,.355.605,3.657,3.657,0,0,0,1.2.4,9.8,9.8,0,0,1,1.422.379A2.336,2.336,0,0,1-58.449-2.43a2.2,2.2,0,0,1-.992,1.871A4.28,4.28,0,0,1-62,.156a4.47,4.47,0,0,1-1.887-.379,3.166,3.166,0,0,1-1.293-1.039,2.414,2.414,0,0,1-.469-1.426h2.141a1.179,1.179,0,0,0,.445.922,1.766,1.766,0,0,0,1.109.32,1.635,1.635,0,0,0,.98-.246A.766.766,0,0,0-60.645-2.336Zm11.258-1.812a5.07,5.07,0,0,1-.887,3.129A2.843,2.843,0,0,1-52.668.156a2.633,2.633,0,0,1-2.07-.891V3.25H-57v-11.7H-54.9l.078.828a2.654,2.654,0,0,1,2.141-.984,2.862,2.862,0,0,1,2.43,1.156,5.207,5.207,0,0,1,.867,3.188Zm-2.258-.164a3.327,3.327,0,0,0-.418-1.82,1.361,1.361,0,0,0-1.215-.641,1.479,1.479,0,0,0-1.461.813V-2.5a1.5,1.5,0,0,0,1.477.836Q-51.645-1.664-51.645-4.312Zm3.3.008a5.013,5.013,0,0,1,.484-2.242A3.546,3.546,0,0,1-46.461-8.07a4.069,4.069,0,0,1,2.113-.539,3.849,3.849,0,0,1,2.793,1.047,4.2,4.2,0,0,1,1.207,2.844l.016.578A4.418,4.418,0,0,1-41.418-1.02,3.775,3.775,0,0,1-44.332.156,3.793,3.793,0,0,1-47.25-1.016,4.5,4.5,0,0,1-48.34-4.2Zm2.258.16A3.16,3.16,0,0,0-45.629-2.3a1.5,1.5,0,0,0,1.3.638,1.5,1.5,0,0,0,1.281-.63,3.457,3.457,0,0,0,.461-2.015,3.128,3.128,0,0,0-.461-1.831,1.5,1.5,0,0,0-1.3-.649,1.474,1.474,0,0,0-1.281.646A3.516,3.516,0,0,0-46.082-4.144Zm9.219-4.309.07.977a2.951,2.951,0,0,1,2.43-1.133,2.453,2.453,0,0,1,2,.789,3.682,3.682,0,0,1,.672,2.359V0h-2.258V-5.406a1.465,1.465,0,0,0-.312-1.043A1.4,1.4,0,0,0-35.3-6.773a1.553,1.553,0,0,0-1.43.813V0h-2.258V-8.453ZM-25.4-2.336a.727.727,0,0,0-.41-.652,4.659,4.659,0,0,0-1.316-.426q-3.016-.633-3.016-2.562a2.323,2.323,0,0,1,.934-1.879,3.766,3.766,0,0,1,2.441-.754,4.053,4.053,0,0,1,2.574.758,2.388,2.388,0,0,1,.965,1.969h-2.258a1.092,1.092,0,0,0-.312-.8A1.322,1.322,0,0,0-26.777-7a1.351,1.351,0,0,0-.883.258.814.814,0,0,0-.312.656.7.7,0,0,0,.355.605,3.657,3.657,0,0,0,1.2.4A9.8,9.8,0,0,1-25-4.7,2.336,2.336,0,0,1-23.207-2.43,2.2,2.2,0,0,1-24.2-.559a4.28,4.28,0,0,1-2.562.715,4.47,4.47,0,0,1-1.887-.379,3.166,3.166,0,0,1-1.293-1.039,2.414,2.414,0,0,1-.469-1.426h2.141a1.179,1.179,0,0,0,.445.922,1.766,1.766,0,0,0,1.109.32,1.635,1.635,0,0,0,.98-.246A.766.766,0,0,0-25.4-2.336ZM-16.855,0a2.507,2.507,0,0,1-.227-.758,2.732,2.732,0,0,1-2.133.914,3,3,0,0,1-2.059-.719,2.312,2.312,0,0,1-.816-1.812,2.389,2.389,0,0,1,1-2.062,4.915,4.915,0,0,1,2.879-.727h1.039v-.484a1.393,1.393,0,0,0-.3-.937,1.183,1.183,0,0,0-.949-.352,1.345,1.345,0,0,0-.895.273.929.929,0,0,0-.324.75H-21.9a2.268,2.268,0,0,1,.453-1.359,3,3,0,0,1,1.281-.98,4.669,4.669,0,0,1,1.859-.355,3.689,3.689,0,0,1,2.48.785,2.747,2.747,0,0,1,.918,2.207v3.664a4.041,4.041,0,0,0,.336,1.82V0Zm-1.867-1.57a1.945,1.945,0,0,0,.922-.223,1.462,1.462,0,0,0,.625-.6V-3.844h-.844q-1.7,0-1.8,1.172l-.008.133a.9.9,0,0,0,.3.7A1.153,1.153,0,0,0-18.723-1.57ZM-5.559-4.148A5.119,5.119,0,0,1-6.426-.98,2.872,2.872,0,0,1-8.848.156,2.639,2.639,0,0,1-11.043-.9l-.1.9h-2.031V-12h2.258v4.3a2.571,2.571,0,0,1,2.055-.914A2.9,2.9,0,0,1-6.437-7.473a5.126,5.126,0,0,1,.879,3.2Zm-2.258-.164a3.363,3.363,0,0,0-.406-1.871,1.374,1.374,0,0,0-1.211-.59,1.489,1.489,0,0,0-1.484.883v3.336a1.509,1.509,0,0,0,1.5.891A1.394,1.394,0,0,0-7.98-2.742,5.562,5.562,0,0,0-7.816-4.312ZM-1.785,0H-4.051V-8.453h2.266Zm-2.4-10.641a1.112,1.112,0,0,1,.34-.836,1.277,1.277,0,0,1,.926-.328A1.28,1.28,0,0,1-2-11.477a1.105,1.105,0,0,1,.344.836A1.108,1.108,0,0,1-2-9.8a1.283,1.283,0,0,1-.918.328A1.283,1.283,0,0,1-3.836-9.8,1.108,1.108,0,0,1-4.184-10.641ZM2.457,0H.191V-12H2.457ZM6.7,0H4.434V-8.453H6.7ZM4.3-10.641a1.112,1.112,0,0,1,.34-.836,1.277,1.277,0,0,1,.926-.328,1.28,1.28,0,0,1,.922.328,1.105,1.105,0,0,1,.344.836,1.108,1.108,0,0,1-.348.844,1.283,1.283,0,0,1-.918.328A1.283,1.283,0,0,1,4.648-9.8,1.108,1.108,0,0,1,4.3-10.641ZM8.207-4.289a5.094,5.094,0,0,1,.887-3.148A2.877,2.877,0,0,1,11.52-8.609a2.589,2.589,0,0,1,2.039.922V-12h2.266V0H13.785l-.109-.9A2.657,2.657,0,0,1,11.5.156,2.869,2.869,0,0,1,9.109-1.02,5.258,5.258,0,0,1,8.207-4.289Zm2.258.168A3.337,3.337,0,0,0,10.879-2.3a1.349,1.349,0,0,0,1.2.634,1.511,1.511,0,0,0,1.477-.884V-5.889A1.489,1.489,0,0,0,12.1-6.773Q10.465-6.773,10.465-4.121ZM22.473,0a2.507,2.507,0,0,1-.227-.758,2.732,2.732,0,0,1-2.133.914,3,3,0,0,1-2.059-.719,2.312,2.312,0,0,1-.816-1.812,2.389,2.389,0,0,1,1-2.062,4.915,4.915,0,0,1,2.879-.727h1.039v-.484a1.393,1.393,0,0,0-.3-.937,1.183,1.183,0,0,0-.949-.352,1.345,1.345,0,0,0-.895.273.929.929,0,0,0-.324.75H17.426a2.268,2.268,0,0,1,.453-1.359,3,3,0,0,1,1.281-.98,4.669,4.669,0,0,1,1.859-.355,3.689,3.689,0,0,1,2.48.785,2.747,2.747,0,0,1,.918,2.207v3.664a4.041,4.041,0,0,0,.336,1.82V0ZM20.605-1.57a1.945,1.945,0,0,0,.922-.223,1.462,1.462,0,0,0,.625-.6V-3.844h-.844q-1.7,0-1.8,1.172l-.008.133a.9.9,0,0,0,.3.7A1.153,1.153,0,0,0,20.605-1.57Zm5.2-2.719a5.094,5.094,0,0,1,.887-3.148,2.877,2.877,0,0,1,2.426-1.172,2.589,2.589,0,0,1,2.039.922V-12h2.266V0H31.379L31.27-.9A2.657,2.657,0,0,1,29.1.156,2.869,2.869,0,0,1,26.7-1.02,5.258,5.258,0,0,1,25.8-4.289Zm2.258.168A3.337,3.337,0,0,0,28.473-2.3a1.349,1.349,0,0,0,1.2.634,1.511,1.511,0,0,0,1.477-.884V-5.889a1.489,1.489,0,0,0-1.461-.884Q28.059-6.773,28.059-4.121ZM43.73-2.336a.727.727,0,0,0-.41-.652A4.659,4.659,0,0,0,42-3.414q-3.016-.633-3.016-2.562a2.323,2.323,0,0,1,.934-1.879,3.766,3.766,0,0,1,2.441-.754,4.053,4.053,0,0,1,2.574.758A2.388,2.388,0,0,1,45.9-5.883H43.645a1.092,1.092,0,0,0-.312-.8A1.322,1.322,0,0,0,42.355-7a1.351,1.351,0,0,0-.883.258.814.814,0,0,0-.312.656.7.7,0,0,0,.355.605,3.657,3.657,0,0,0,1.2.4,9.8,9.8,0,0,1,1.422.379A2.336,2.336,0,0,1,45.926-2.43a2.2,2.2,0,0,1-.992,1.871,4.28,4.28,0,0,1-2.562.715,4.47,4.47,0,0,1-1.887-.379,3.166,3.166,0,0,1-1.293-1.039,2.414,2.414,0,0,1-.469-1.426h2.141a1.179,1.179,0,0,0,.445.922,1.766,1.766,0,0,0,1.109.32,1.635,1.635,0,0,0,.98-.246A.766.766,0,0,0,43.73-2.336Zm3.3-1.969a5.013,5.013,0,0,1,.484-2.242A3.546,3.546,0,0,1,48.906-8.07a4.069,4.069,0,0,1,2.113-.539,3.849,3.849,0,0,1,2.793,1.047A4.2,4.2,0,0,1,55.02-4.719l.016.578A4.418,4.418,0,0,1,53.949-1.02,3.775,3.775,0,0,1,51.035.156a3.793,3.793,0,0,1-2.918-1.172A4.5,4.5,0,0,1,47.027-4.2Zm2.258.16A3.16,3.16,0,0,0,49.738-2.3a1.5,1.5,0,0,0,1.3.638,1.5,1.5,0,0,0,1.281-.63,3.457,3.457,0,0,0,.461-2.015,3.128,3.128,0,0,0-.461-1.831,1.5,1.5,0,0,0-1.3-.649,1.474,1.474,0,0,0-1.281.646A3.516,3.516,0,0,0,49.285-4.144Zm10.656,2.48a1.481,1.481,0,0,0,1.016-.344,1.2,1.2,0,0,0,.406-.914H63.48a2.9,2.9,0,0,1-.469,1.574A3.093,3.093,0,0,1,61.75-.238a3.949,3.949,0,0,1-1.77.395A3.67,3.67,0,0,1,57.121-1,4.56,4.56,0,0,1,56.074-4.18v-.148a4.508,4.508,0,0,1,1.039-3.117,3.627,3.627,0,0,1,2.852-1.164,3.555,3.555,0,0,1,2.543.9,3.2,3.2,0,0,1,.973,2.4H61.363a1.551,1.551,0,0,0-.406-1.072,1.354,1.354,0,0,0-1.031-.412,1.36,1.36,0,0,0-1.191.575,3.333,3.333,0,0,0-.4,1.866v.235a3.375,3.375,0,0,0,.4,1.878A1.377,1.377,0,0,0,59.941-1.664ZM67.152,0H64.887V-8.453h2.266Zm-2.4-10.641a1.112,1.112,0,0,1,.34-.836,1.277,1.277,0,0,1,.926-.328,1.28,1.28,0,0,1,.922.328,1.105,1.105,0,0,1,.344.836,1.108,1.108,0,0,1-.348.844,1.283,1.283,0,0,1-.918.328A1.283,1.283,0,0,1,65.1-9.8,1.108,1.108,0,0,1,64.754-10.641ZM73.91,0a2.507,2.507,0,0,1-.227-.758,2.732,2.732,0,0,1-2.133.914,3,3,0,0,1-2.059-.719,2.312,2.312,0,0,1-.816-1.812,2.389,2.389,0,0,1,1-2.062,4.915,4.915,0,0,1,2.879-.727H73.59v-.484a1.393,1.393,0,0,0-.3-.937,1.183,1.183,0,0,0-.949-.352,1.345,1.345,0,0,0-.895.273.929.929,0,0,0-.324.75H68.863a2.268,2.268,0,0,1,.453-1.359,3,3,0,0,1,1.281-.98,4.669,4.669,0,0,1,1.859-.355,3.689,3.689,0,0,1,2.48.785,2.747,2.747,0,0,1,.918,2.207v3.664a4.041,4.041,0,0,0,.336,1.82V0ZM72.043-1.57a1.945,1.945,0,0,0,.922-.223,1.462,1.462,0,0,0,.625-.6V-3.844h-.844q-1.7,0-1.8,1.172l-.008.133a.9.9,0,0,0,.3.7A1.153,1.153,0,0,0,72.043-1.57ZM79.973,0H77.707V-12h2.266ZM-38.016,18.156a4.15,4.15,0,0,1-3.027-1.141,4.054,4.054,0,0,1-1.168-3.039v-.219a5.106,5.106,0,0,1,.492-2.277,3.612,3.612,0,0,1,1.395-1.547,3.914,3.914,0,0,1,2.059-.543,3.508,3.508,0,0,1,2.73,1.094,4.444,4.444,0,0,1,1,3.1v.922h-5.383a2.1,2.1,0,0,0,.66,1.328,2,2,0,0,0,1.395.5,2.437,2.437,0,0,0,2.039-.945l1.109,1.242a3.389,3.389,0,0,1-1.375,1.121A4.511,4.511,0,0,1-38.016,18.156Zm-.258-6.945a1.411,1.411,0,0,0-1.09.455,2.357,2.357,0,0,0-.535,1.3h3.141v-.181a1.681,1.681,0,0,0-.406-1.165A1.456,1.456,0,0,0-38.273,11.211Zm7.133-1.664.07.945a2.971,2.971,0,0,1,2.43-1.1A2.255,2.255,0,0,1-26.4,10.68a2.9,2.9,0,0,1,2.539-1.289,2.521,2.521,0,0,1,2.047.8,3.681,3.681,0,0,1,.672,2.41V18h-2.266V12.609a1.61,1.61,0,0,0-.281-1.051,1.246,1.246,0,0,0-.992-.332,1.409,1.409,0,0,0-1.406.969l.008,5.8h-2.258V12.617a1.59,1.59,0,0,0-.289-1.062,1.259,1.259,0,0,0-.984-.328,1.463,1.463,0,0,0-1.391.8V18h-2.258V9.547Zm19.344,4.3a5.07,5.07,0,0,1-.887,3.129,2.843,2.843,0,0,1-2.395,1.176,2.633,2.633,0,0,1-2.07-.891V21.25h-2.258V9.547h2.094l.078.828a2.654,2.654,0,0,1,2.141-.984,2.862,2.862,0,0,1,2.43,1.156,5.207,5.207,0,0,1,.867,3.188Zm-2.258-.164a3.327,3.327,0,0,0-.418-1.82,1.361,1.361,0,0,0-1.215-.641,1.478,1.478,0,0,0-1.461.813V15.5a1.5,1.5,0,0,0,1.477.836Q-14.055,16.336-14.055,13.688Zm8.406-2.023a6.134,6.134,0,0,0-.812-.062,1.654,1.654,0,0,0-1.68.867V18H-10.4V9.547h2.133l.063,1.008A2.092,2.092,0,0,1-6.32,9.391a2.366,2.366,0,0,1,.7.1ZM-.82,18.156a4.15,4.15,0,0,1-3.027-1.141,4.054,4.054,0,0,1-1.168-3.039v-.219a5.106,5.106,0,0,1,.492-2.277A3.612,3.612,0,0,1-3.129,9.934,3.914,3.914,0,0,1-1.07,9.391a3.508,3.508,0,0,1,2.73,1.094,4.444,4.444,0,0,1,1,3.1v.922H-2.727a2.1,2.1,0,0,0,.66,1.328,2,2,0,0,0,1.395.5,2.437,2.437,0,0,0,2.039-.945l1.109,1.242A3.389,3.389,0,0,1,1.1,17.754,4.511,4.511,0,0,1-.82,18.156Zm-.258-6.945a1.411,1.411,0,0,0-1.09.455,2.357,2.357,0,0,0-.535,1.3H.438v-.181a1.681,1.681,0,0,0-.406-1.165A1.456,1.456,0,0,0-1.078,11.211Zm9.594,4.453a.727.727,0,0,0-.41-.652,4.659,4.659,0,0,0-1.316-.426q-3.016-.633-3.016-2.562a2.323,2.323,0,0,1,.934-1.879,3.766,3.766,0,0,1,2.441-.754,4.053,4.053,0,0,1,2.574.758,2.388,2.388,0,0,1,.965,1.969H8.43a1.092,1.092,0,0,0-.312-.8A1.322,1.322,0,0,0,7.141,11a1.351,1.351,0,0,0-.883.258.814.814,0,0,0-.312.656.7.7,0,0,0,.355.605,3.657,3.657,0,0,0,1.2.4,9.8,9.8,0,0,1,1.422.379,2.336,2.336,0,0,1,1.789,2.273,2.2,2.2,0,0,1-.992,1.871,4.28,4.28,0,0,1-2.562.715,4.47,4.47,0,0,1-1.887-.379,3.166,3.166,0,0,1-1.293-1.039,2.414,2.414,0,0,1-.469-1.426H5.648a1.179,1.179,0,0,0,.445.922,1.766,1.766,0,0,0,1.109.32,1.635,1.635,0,0,0,.98-.246A.766.766,0,0,0,8.516,15.664ZM17.063,18a2.507,2.507,0,0,1-.227-.758,2.732,2.732,0,0,1-2.133.914,3,3,0,0,1-2.059-.719,2.312,2.312,0,0,1-.816-1.812,2.389,2.389,0,0,1,1-2.062,4.915,4.915,0,0,1,2.879-.727h1.039v-.484a1.393,1.393,0,0,0-.3-.937,1.183,1.183,0,0,0-.949-.352,1.345,1.345,0,0,0-.895.273.929.929,0,0,0-.324.75H12.016a2.268,2.268,0,0,1,.453-1.359,3,3,0,0,1,1.281-.98,4.669,4.669,0,0,1,1.859-.355,3.689,3.689,0,0,1,2.48.785,2.747,2.747,0,0,1,.918,2.207v3.664a4.041,4.041,0,0,0,.336,1.82V18ZM15.2,16.43a1.945,1.945,0,0,0,.922-.223,1.462,1.462,0,0,0,.625-.6V14.156H15.9q-1.7,0-1.8,1.172l-.008.133a.9.9,0,0,0,.3.7A1.153,1.153,0,0,0,15.2,16.43Zm10.3-4.766a6.134,6.134,0,0,0-.812-.062,1.654,1.654,0,0,0-1.68.867V18H20.742V9.547h2.133l.063,1.008A2.092,2.092,0,0,1,24.82,9.391a2.366,2.366,0,0,1,.7.1ZM28.961,18H26.7V9.547h2.266Zm-2.4-10.641a1.112,1.112,0,0,1,.34-.836,1.465,1.465,0,0,1,1.848,0,1.193,1.193,0,0,1,0,1.68,1.448,1.448,0,0,1-1.836,0A1.108,1.108,0,0,1,26.563,7.359ZM35.719,18a2.507,2.507,0,0,1-.227-.758,2.732,2.732,0,0,1-2.133.914,3,3,0,0,1-2.059-.719,2.312,2.312,0,0,1-.816-1.812,2.389,2.389,0,0,1,1-2.062,4.915,4.915,0,0,1,2.879-.727H35.4v-.484a1.393,1.393,0,0,0-.3-.937,1.183,1.183,0,0,0-.949-.352,1.345,1.345,0,0,0-.895.273.929.929,0,0,0-.324.75H30.672a2.268,2.268,0,0,1,.453-1.359,3,3,0,0,1,1.281-.98,4.669,4.669,0,0,1,1.859-.355,3.689,3.689,0,0,1,2.48.785,2.747,2.747,0,0,1,.918,2.207v3.664A4.041,4.041,0,0,0,38,17.867V18Zm-1.867-1.57a1.945,1.945,0,0,0,.922-.223,1.462,1.462,0,0,0,.625-.6V14.156h-.844q-1.7,0-1.8,1.172l-.008.133a.9.9,0,0,0,.3.7A1.153,1.153,0,0,0,33.852,16.43ZM41.781,18H39.516V6h2.266Z" transform="translate(800 4120.133)"/>
    <g id="Enmascarar_grupo_321" data-name="Enmascarar grupo 321" transform="translate(413 2078.133)" clip-path="url(#clip-path)">
      <g id="Grupo_1073023" data-name="Grupo 1073023" transform="translate(351 1920.867)">
        <g id="Grupo_1073022" data-name="Grupo 1073022" transform="translate(-23.923 -23.521)" clip-path="url(#clip-path-2)">
          <path id="Trazado_819563" data-name="Trazado 819563" d="M62.392,170.159c-1.251-.015-2.849.429-3.652-.178-.76-.575-.13-2.273-.231-3.472-.3-3.577-2.076-5.7-5.693-6.009a19.682,19.682,0,0,0-5.656.173,5.779,5.779,0,0,0-4.218,5.228c.051,1.134-.036,2.274.012,3.409.029.664-.13.938-.852.889-1.011-.069-2.028-.031-3.043-.039-.01-1.213,0-2.428-.034-3.64a5.819,5.819,0,0,0-4.887-5.889,24.814,24.814,0,0,0-5.416-.137,5.638,5.638,0,0,0-5.3,6.149c.087,1.166,0,2.345-.014,3.518-1.251-.015-2.851.429-3.653-.179-.759-.575-.126-2.275-.231-3.474-.3-3.387-1.851-5.608-5.577-6a18.887,18.887,0,0,0-5.778.166,5.78,5.78,0,0,0-4.212,5.236c.052,1.175-.027,2.356.011,3.532.019.575-.146.736-.737.759-3.186.126-3.078.141-3.215-3.048a9.835,9.835,0,0,1,3.412-8.28c.182-.16.32-.443.524-.5,1.643-.425,1.457-1.225.748-2.473-2-3.516-.182-8.282,3.036-9.942a9.18,9.18,0,0,1,3.31-1.052,1.74,1.74,0,0,0,1.381-.915,54.538,54.538,0,0,1,8.911-9.877,50.2,50.2,0,0,1,8.925-6.445,1.765,1.765,0,0,0,1-1.81c-.041-8.364,0-16.73-.049-25.094-.011-1.7.46-2.783,2.7-2.729,3.978.1,7.959,0,11.938.046.787.008,1.023-.186,1-.992-.059-2.15-.028-4.3-.018-6.455.008-1.688.634-2.3,2.323-2.317,1.566-.014,1.623-.017,1.561-1.595a5.306,5.306,0,0,1,3.714-5.7,9.581,9.581,0,0,1,3.146-.464c.84-.008.969-.287.967-1.034-.008-3.235.014-3.219,3.3-2.917.5.046.6.215.589.656-.02,1.014-.33,2.209.1,3,.443.818,1.747.154,2.69.43,3.242.948,4.421,2.2,4.775,5.424a7.939,7.939,0,0,1,.233,1.767c-.059.534.343.432.651.438a11.509,11.509,0,0,1,1.46.025,2.128,2.128,0,0,1,1.778,2.2c.023,2.071.088,4.146-.025,6.211-.065,1.175.359,1.354,1.4,1.338,3.857-.06,7.716-.026,11.574-.023,1.89,0,2.648.749,2.649,2.619,0,8.649.018,17.3-.027,25.947a1.707,1.707,0,0,0,.875,1.631,72.771,72.771,0,0,1,9.4,7.148,53.413,53.413,0,0,1,7.439,8.548c.792,1.1,1.828.983,2.792,1.092a7.145,7.145,0,0,1,5.567,3.62,7.286,7.286,0,0,1-.163,8.2c-.353.55-.085.849.388,1.108,3.408,1.869,4.661,4.975,4.912,8.634.058.849-.035,1.708.022,2.557.05.743-.1,1.105-.961,1.025-.967-.089-1.947-.034-2.921-.042-.01-1.213,0-2.428-.035-3.64a5.819,5.819,0,0,0-4.886-5.889,24.817,24.817,0,0,0-5.416-.137,5.638,5.638,0,0,0-5.3,6.149c.087,1.166,0,2.345-.014,3.518-1.251-.015-2.85.429-3.652-.178-.76-.575-.13-2.273-.231-3.472-.3-3.577-2.076-5.7-5.693-6.009a19.682,19.682,0,0,0-5.656.173,5.779,5.779,0,0,0-4.218,5.228c.051,1.134-.036,2.274.013,3.409.028.664-.13.938-.852.889-1.011-.069-2.028-.031-3.043-.039-.01-1.213,0-2.428-.035-3.64a5.819,5.819,0,0,0-4.886-5.889,24.817,24.817,0,0,0-5.416-.137,5.638,5.638,0,0,0-5.3,6.149c.087,1.166,0,2.345-.014,3.518M44.1,125.811a8.35,8.35,0,0,1,3.187,4.636,22.336,22.336,0,0,0,1.268,3.915,1.578,1.578,0,0,1-.372,1.948,43.97,43.97,0,0,1-3.715,2.753,7.922,7.922,0,0,1-6.186,1.905,22.886,22.886,0,0,0-3.286-.026,1.866,1.866,0,0,1-1.14-.263,10.922,10.922,0,0,0-7.412-1.7,30.79,30.79,0,0,1-3.653,0,2,2,0,0,0-1.588.635,58.683,58.683,0,0,0-5.059,5.811c-.365.456-.3.611.183,1a7.868,7.868,0,0,1,3.165,6.288,6.826,6.826,0,0,1-1.239,4.034c-.276.382-.536.811.041,1.07,1.281.574,2.055,1.732,3.065,2.569,1.111-.862,1.905-2.035,3.185-2.652.337-.162.428-.417.125-.862a7.428,7.428,0,0,1-1.25-4.62,7.513,7.513,0,0,1,5.086-6.9,7.376,7.376,0,0,1,7.327,1.089,7.6,7.6,0,0,1,3.146,6.519,6.532,6.532,0,0,1-1.233,3.79c-.282.38-.532.813.045,1.07,1.282.572,2.053,1.733,3.066,2.567,1.109-.866,1.911-2.031,3.184-2.654.34-.167.423-.42.122-.863a7.427,7.427,0,0,1-1.248-4.62,7.511,7.511,0,0,1,5.088-6.9,7.376,7.376,0,0,1,7.326,1.091,7.6,7.6,0,0,1,3.144,6.52,6.526,6.526,0,0,1-1.235,3.789c-.283.381-.527.814.048,1.07,1.281.571,2.053,1.73,3.087,2.587a13.965,13.965,0,0,1,3.125-2.651c.429-.22.44-.494.107-.943a6.993,6.993,0,0,1-1.108-5.839,7.811,7.811,0,0,1,15-.85,7.168,7.168,0,0,1-.816,6.692c-.2.291-.506.664.108.952,1.26.588,2.048,1.753,3.074,2.633a12.674,12.674,0,0,1,2.957-2.5c.578-.278.683-.624.267-1.271a7.569,7.569,0,0,1,4.155-11.373,7.393,7.393,0,0,1,6.187.668,7.676,7.676,0,0,1,3.844,5.185,7.058,7.058,0,0,1-1.143,5.765c-.171.26-.427.623.112.874,1.277.593,2.087,1.745,3.119,2.673a12.967,12.967,0,0,1,3.2-2.713c.418-.22.393-.392.116-.813a7.689,7.689,0,0,1,1.124-9.934c.433-.427.545-.649.123-1.25a59.311,59.311,0,0,0-6.936-7.865,1.655,1.655,0,0,0-1.594-.3c-1.358.222-2.686.615-4.041.86-1.923.348-3.856,1.092-5.8.084-.92-.477-1.979-.56-2.893-1a1.052,1.052,0,0,0-1.266.211c-1.17.945-2.5,1.653-3.7,2.544a3.594,3.594,0,0,1-2.343.7c-2.274-.02-4.548-.036-6.822.006a2.389,2.389,0,0,1-2.2-1.2c-1.091-1.65-2.17-3.309-3.321-4.917a2.325,2.325,0,0,1,.181-3.325,29.024,29.024,0,0,0,2.308-2.334,4.47,4.47,0,0,1,4.515-1.891,1.159,1.159,0,0,0,1.281-.458c.382-.591.758-1.186,1.177-1.843a54.079,54.079,0,0,0-28.378.816m26.122-19.584c0-4.3-.029-8.6.023-12.9.011-.916-.229-1.138-1.136-1.13q-8.642.066-17.285,0c-.938-.008-1.121.264-1.117,1.149.035,8.236.021,16.472.021,24.708,0,2.111,0,2.11,2.043,1.946a2.875,2.875,0,0,1,.608,0c.941.127,1.31-.223,1.268-1.216-.072-1.7-.043-3.408-.008-5.111a1.8,1.8,0,0,1,1.96-1.95q3.712-.037,7.425,0a2.13,2.13,0,0,1,2.294,2.335c.018,1.1,0,2.191,0,3.286,0,2.917,0,2.891,2.91,2.924.79.009,1.015-.213,1.008-1.012-.04-4.341-.019-8.682-.019-13.023M85.8,113.716c0-3.567-.03-7.135.022-10.7.013-.871-.244-1.072-1.082-1.059-3.243.049-6.487.037-9.73.007-.666-.006-.9.155-.9.865q.04,8.817,0,17.634c0,.639.2.869.841,1.049a53.916,53.916,0,0,1,9.87,3.6c.864.438.993.139.986-.687-.031-3.567-.013-7.134-.013-10.7m-50.66-.3c0,3.491.022,6.982-.016,10.472-.01.882.112,1.18,1.031.717a48.235,48.235,0,0,1,9.8-3.361c.744-.192.868-.5.867-1.153q-.023-8.585.007-17.17c0-.727-.154-.973-.932-.962-3.247.046-6.5.055-9.742,0-.909-.016-1.042.31-1.033,1.11.041,3.45.018,6.9.018,10.35m57.116,20.646c-.266-.225-.465-.421-.69-.58a63.7,63.7,0,0,0-14.092-7.161c-.743-.285-1.141-.226-1.457.568a6.711,6.711,0,0,1-1.037,1.6c-2.263,2.86-1.056,2.717-5.121,2.721a1.745,1.745,0,0,0-1.26.255c-1.92,1.542-1.955,1.695-.567,3.735.268.394.475.831.759,1.212a1.335,1.335,0,0,0,1.075.658c1.809.077,3.631-.262,5.433.17a.861.861,0,0,0,.632-.29c1.358-1.4,3.14-2.2,4.674-3.342a1.886,1.886,0,0,1,2.02-.228c1.176.471,2.39.852,3.6,1.233.563.178,1.095.6,1.707.469,1.426-.3,2.839-.664,4.324-1.018M26.168,135.1c.87,0,1.473.047,2.066-.009a9.9,9.9,0,0,1,6.466,1.5,2.939,2.939,0,0,0,1.352.475c2.683.238,5.212-.021,7.285-2,.2-.19.481-.293.694-.472.146-.123.376-.372.337-.453-.6-1.244-.563-2.755-1.473-3.844-.776-.928-1.734-1.7-2.547-2.6-.393-.435-.7-.324-1.14-.15a51.793,51.793,0,0,0-6.864,3.355,67.089,67.089,0,0,0-6.176,4.2m4.868,21.435a3.889,3.889,0,1,0-.057-7.767,3.566,3.566,0,0,0-3.668,3.918,3.9,3.9,0,0,0,3.725,3.85m15.794-4.069a3.909,3.909,0,0,0,3.482,4.075,3.9,3.9,0,1,0,.136-7.774c-2.044.1-3.8,1.469-3.618,3.7m-38.986-.014c0,2.195,1.593,4.067,3.461,4.084a3.9,3.9,0,1,0,.163-7.77c-2.055.088-3.809,1.495-3.624,3.686m58.478.074a3.822,3.822,0,0,0,3.537,4,3.892,3.892,0,1,0,.136-7.764,3.493,3.493,0,0,0-3.673,3.761m19.493,0a3.829,3.829,0,0,0,3.539,4,3.894,3.894,0,1,0,.131-7.766,3.493,3.493,0,0,0-3.67,3.763m19.493.031a3.817,3.817,0,0,0,3.57,3.971,3.893,3.893,0,1,0,.069-7.764c-2.023.081-3.849,1.435-3.64,3.793M60.468,88.32c1.661,0,3.321.009,4.981-.009.289,0,.654.175.855-.224a2.672,2.672,0,0,0-2.067-3.648c-2.591-.059-5.184-.034-7.776,0a1.751,1.751,0,0,0-1.825,1.817c-.031.443.025.894-.022,1.335-.062.6.174.753.749.741,1.7-.034,3.4-.012,5.1-.012M62.41,117.6c0-1.979,0-1.979-1.9-1.979-1.979,0-1.979,0-1.979,2.018,0,1.848,0,1.848,1.9,1.861,1.979.014,1.979.014,1.979-1.9" transform="translate(0 -51.413)"/>
          <path id="Trazado_819564" data-name="Trazado 819564" d="M249.975,27.323c0-1.437-.346-3.2.083-4.746A14.46,14.46,0,0,1,253.03,16.3a13.037,13.037,0,0,1,6.7-3.974,20.491,20.491,0,0,1,7.616-.521c1.45.2,2.919.283,4.381.468,1.489.188,1.849,1.143,1.971,2.239a42.262,42.262,0,0,1,.533,6.087c-.12,3.637-.709,7.105-2.9,10.156a12.36,12.36,0,0,1-6.426,4.438,17.962,17.962,0,0,1-7.026.976,29.1,29.1,0,0,1-5.763-.671,2.294,2.294,0,0,1-1.752-1.871,17.654,17.654,0,0,1-.395-6.3m5.909,4.636a15.271,15.271,0,0,0,9.087-1,6.6,6.6,0,0,0,2.857-1.906c2.25-2.9,2.5-6.294,2.491-10.092l-14.435,13m12.048-16.08a16.768,16.768,0,0,0-6.856.124,7.536,7.536,0,0,0-4.79,2.523c-2.347,2.836-2.755,6.244-2.457,10.037l14.1-12.684" transform="translate(-167.938 -7.831)"/>
          <path id="Trazado_819565" data-name="Trazado 819565" d="M39.548,62.626a16.142,16.142,0,0,1-8.933-1.738A12.828,12.828,0,0,1,24.057,51.1c-.311-2.014-.063-4.019-.233-6.018a22.8,22.8,0,0,1,.556-4.615A1.978,1.978,0,0,1,26.06,38.8c4.83-.637,9.639-1,14.331.922,4.254,1.74,6.393,5.042,7.333,9.345a23.961,23.961,0,0,1,.583,6.617,14.633,14.633,0,0,1-1.036,5.377,2.134,2.134,0,0,1-1.852,1.059,21.836,21.836,0,0,1-5.872.5M27.75,45.764a24.717,24.717,0,0,0,.235,5.005c.709,3.262,2.25,5.849,5.553,7.095a20.686,20.686,0,0,0,7.83.886c.628-.01.608-.316.246-.652-.649-.6-1.354-1.146-2.011-1.742-2.923-2.657-5.793-5.376-8.781-7.958a17.988,17.988,0,0,0-3.073-2.634m16.441,9.424a12.637,12.637,0,0,0-.154-4.549c-.361-2.436-1.072-4.75-3.252-6.287-3.257-2.3-6.964-2.19-11.012-2.155L44.192,55.188" transform="translate(-16 -25.742)"/>
          <path id="Trazado_819566" data-name="Trazado 819566" d="M91.379,14.959c-.674-.667-1.33-1.331-2-1.977s-.588-1.175.128-1.753a53.748,53.748,0,0,1,11.345-7.2A49.429,49.429,0,0,1,113.1.417a48.492,48.492,0,0,1,5.039-.352,49.822,49.822,0,0,1,8.448.351,37.631,37.631,0,0,1,9.6,2.446c1.9.73,3.7,1.674,5.612,2.35.681.242.654.54.372,1.033A12.555,12.555,0,0,1,141.1,8.072c-.32.388-.791.831-1.432.4-2.239-1.492-4.9-2.015-7.339-3.033a26.329,26.329,0,0,0-4.6-.964c-1.047-.216-2.269.18-3.121-.81-.033-.038-.191.024-.288.049a20.727,20.727,0,0,1-4.231.135,43.389,43.389,0,0,0-8.879.875,44.848,44.848,0,0,0-8.326,2.728,42.739,42.739,0,0,0-9.467,5.674c-.7.595-1.39,1.2-2.046,1.829" transform="translate(-59.773 0)"/>
          <path id="Trazado_819567" data-name="Trazado 819567" d="M283.369,133.19a41.662,41.662,0,0,0,6.336-9.823,38.382,38.382,0,0,0,3.4-11.4,44.74,44.74,0,0,0,.683-6.811,49.454,49.454,0,0,0-1.466-11.017,47.824,47.824,0,0,0-1.7-4.995c-.21-.56-.086-.67.331-.849.757-.325,1.5-.671,2.258-1,.68-.3.914.147,1.118.662a65.012,65.012,0,0,1,2.212,7.273,30.027,30.027,0,0,0,.828,3.165,8.619,8.619,0,0,1,.088,2.38,65.04,65.04,0,0,1-.011,9,45.81,45.81,0,0,1-8.759,23c-.638.857-1.363,1.652-1.934,2.562-.2.322-.432.552-.852.141-.8-.785-1.666-1.505-2.535-2.28" transform="translate(-190.488 -58.611)"/>
          <path id="Trazado_819568" data-name="Trazado 819568" d="M51.239,154.21a46.8,46.8,0,0,1-8.793-19.1,54.815,54.815,0,0,1-.768-13.333c.034-1.181.353-2.35.447-3.533.045-.568.342-.609.7-.5a11.706,11.706,0,0,0,2.682.461c.76.047.615.6.528.963A34.805,34.805,0,0,0,45.62,129.4a38.3,38.3,0,0,0,2.8,12.018,43.236,43.236,0,0,0,5.241,9.522c.678.929.272,1.269-.309,1.732-.68.541-1.405,1.026-2.109,1.534" transform="translate(-27.969 -79.12)"/>
          <path id="Trazado_819569" data-name="Trazado 819569" d="M309.287,342.287c.01-1.173.1-2.352.014-3.518a5.638,5.638,0,0,1,5.3-6.149,24.8,24.8,0,0,1,5.416.137,5.818,5.818,0,0,1,4.886,5.889c.039,1.212.025,2.427.034,3.64H309.287" transform="translate(-207.909 -223.541)" fill="#a8a8a8"/>
          <path id="Trazado_819570" data-name="Trazado 819570" d="M71.4,342.287c.01-1.173.1-2.352.014-3.518a5.638,5.638,0,0,1,5.3-6.149,24.8,24.8,0,0,1,5.416.137,5.818,5.818,0,0,1,4.886,5.889c.039,1.212.025,2.427.035,3.64H71.4" transform="translate(-47.994 -223.541)" fill="#a8a8a8"/>
          <path id="Trazado_819571" data-name="Trazado 819571" d="M190.343,342.287c.01-1.173.1-2.352.014-3.518a5.638,5.638,0,0,1,5.3-6.149,24.8,24.8,0,0,1,5.416.137,5.818,5.818,0,0,1,4.887,5.889c.039,1.212.025,2.427.034,3.64H190.343" transform="translate(-127.952 -223.541)" fill="#a8a8a8"/>
          <path id="Trazado_819572" data-name="Trazado 819572" d="M76.722,222.231a54.079,54.079,0,0,1,28.378-.816c-.419.657-.795,1.252-1.177,1.842a1.159,1.159,0,0,1-1.281.458,4.47,4.47,0,0,0-4.515,1.891,29.081,29.081,0,0,1-2.308,2.334,2.325,2.325,0,0,0-.181,3.324c1.15,1.608,2.23,3.268,3.321,4.918a2.39,2.39,0,0,0,2.2,1.2c2.273-.042,4.548-.027,6.822-.006a3.594,3.594,0,0,0,2.343-.7c1.2-.891,2.529-1.6,3.7-2.544a1.052,1.052,0,0,1,1.266-.211c.914.44,1.973.524,2.893,1,1.944,1.008,3.877.264,5.8-.084,1.355-.246,2.683-.638,4.041-.86a1.655,1.655,0,0,1,1.594.3,59.312,59.312,0,0,1,6.936,7.865c.422.6.31.823-.123,1.25a7.689,7.689,0,0,0-1.124,9.934c.277.421.3.593-.116.813a12.966,12.966,0,0,0-3.2,2.713c-1.033-.928-1.842-2.08-3.119-2.673-.539-.25-.284-.614-.112-.874a7.059,7.059,0,0,0,1.143-5.765,7.677,7.677,0,0,0-3.844-5.185,7.391,7.391,0,0,0-6.187-.668,7.569,7.569,0,0,0-4.155,11.373c.416.647.311.992-.267,1.271a12.669,12.669,0,0,0-2.958,2.5c-1.026-.88-1.815-2.045-3.074-2.633-.614-.287-.313-.661-.109-.951a7.168,7.168,0,0,0,.816-6.692,7.811,7.811,0,0,0-15,.85,6.993,6.993,0,0,0,1.108,5.839c.332.449.322.723-.107.943A13.966,13.966,0,0,0,93,256.83c-1.035-.857-1.806-2.016-3.087-2.587-.575-.256-.331-.689-.048-1.07a6.526,6.526,0,0,0,1.235-3.789,7.6,7.6,0,0,0-3.144-6.519,7.375,7.375,0,0,0-7.326-1.091,7.511,7.511,0,0,0-5.088,6.9,7.426,7.426,0,0,0,1.247,4.62c.3.443.218.7-.122.863-1.273.624-2.075,1.789-3.184,2.655-1.013-.835-1.784-2-3.066-2.567-.577-.257-.326-.69-.045-1.07a6.532,6.532,0,0,0,1.233-3.79,7.6,7.6,0,0,0-3.146-6.519,7.376,7.376,0,0,0-7.327-1.089,7.512,7.512,0,0,0-5.086,6.9,7.427,7.427,0,0,0,1.249,4.62c.3.445.211.7-.125.862-1.28.617-2.074,1.79-3.185,2.652-1.01-.837-1.784-1.995-3.065-2.569-.577-.259-.317-.687-.041-1.07a6.828,6.828,0,0,0,1.24-4.034,7.868,7.868,0,0,0-3.166-6.288c-.485-.387-.549-.542-.183-1a58.683,58.683,0,0,1,5.059-5.811,2,2,0,0,1,1.588-.635,30.861,30.861,0,0,0,3.653,0,10.917,10.917,0,0,1,7.412,1.7,1.866,1.866,0,0,0,1.14.263,22.9,22.9,0,0,1,3.286.026,7.922,7.922,0,0,0,6.186-1.905,43.843,43.843,0,0,0,3.715-2.754,1.579,1.579,0,0,0,.373-1.948,22.305,22.305,0,0,1-1.268-3.914,8.348,8.348,0,0,0-3.187-4.636" transform="translate(-32.625 -147.832)" fill="#a7dbfc"/>
          <path id="Trazado_819573" data-name="Trazado 819573" d="M174.208,138.453c0,4.341-.021,8.682.019,13.023.007.8-.218,1.021-1.008,1.012-2.909-.034-2.91-.007-2.91-2.924,0-1.1.014-2.191,0-3.286a2.13,2.13,0,0,0-2.294-2.335q-3.713-.034-7.425,0a1.8,1.8,0,0,0-1.96,1.951c-.035,1.7-.064,3.41.008,5.111.042.994-.327,1.343-1.268,1.216a2.875,2.875,0,0,0-.608,0c-2.043.164-2.043.165-2.043-1.946,0-8.236.014-16.472-.021-24.708,0-.884.179-1.157,1.117-1.149q8.642.073,17.285,0c.907-.007,1.147.214,1.136,1.13-.052,4.3-.023,8.6-.023,12.9m-9.789-6.213h3.035c2.891,0,2.85,0,2.879-2.878.009-.89-.284-1.055-1.1-1.039-2.548.051-5.1.019-7.646.019-3.126,0-3.1,0-3,3.121.023.67.25.8.85.788,1.658-.033,3.317-.012,4.976-.011m.049,7.8h2.913c3.031,0,3.006,0,2.947-3.049-.013-.7-.232-.872-.9-.863-2.629.034-5.259.014-7.889.014-3.125,0-3.105,0-2.945,3.171.03.593.212.748.775.738,1.7-.03,3.4-.011,5.1-.01" transform="translate(-103.989 -83.637)" fill="#a8a8a8"/>
          <path id="Trazado_819574" data-name="Trazado 819574" d="M237.8,165.96c0,3.567-.018,7.135.013,10.7.007.827-.123,1.125-.986.687a53.946,53.946,0,0,0-9.87-3.6c-.64-.18-.843-.41-.841-1.049q.029-8.817,0-17.634c0-.71.232-.871.9-.865,3.243.03,6.487.043,9.73-.006.838-.013,1.095.188,1.082,1.059-.052,3.566-.022,7.134-.022,10.7m-5.948,3.852c2.073,0,2.073,0,2.073-2.092,0-1.83,0-1.83-1.849-1.83-2.073,0-2.073,0-2.073,2.092,0,1.83,0,1.83,1.849,1.83m.014-7.8c2.058,0,2.058,0,2.058-1.985,0-1.936,0-1.936-1.985-1.936-1.937,0-1.937,0-1.937,1.985,0,1.936,0,1.936,1.864,1.936" transform="translate(-151.999 -103.657)" fill="#a8a8a8"/>
          <path id="Trazado_819575" data-name="Trazado 819575" d="M107.177,165.65c0-3.45.024-6.9-.018-10.35-.01-.8.124-1.126,1.033-1.11,3.247.059,6.5.05,9.742,0,.777-.011.935.235.931.962q-.043,8.585-.007,17.17c0,.649-.122.961-.867,1.153a48.242,48.242,0,0,0-9.8,3.361c-.919.463-1.041.165-1.031-.717.038-3.49.016-6.982.016-10.472m7.8-5.484c0-2.078,0-2.078-2.086-2.078-1.836,0-1.836,0-1.836,1.843,0,2.078,0,2.078,2.086,2.078,1.836,0,1.836,0,1.836-1.843m-1.872,5.718c-2.05,0-2.05,0-2.05,1.993,0,1.928,0,1.928,1.872,1.928,2.05,0,2.05,0,2.05-1.993,0-1.928,0-1.928-1.872-1.928" transform="translate(-72.035 -103.65)" fill="#a8a8a8"/>
          <path id="Trazado_819576" data-name="Trazado 819576" d="M229.806,235.95c-1.486.354-2.9.72-4.325,1.018-.612.128-1.143-.291-1.707-.468-1.21-.381-2.424-.762-3.6-1.233a1.887,1.887,0,0,0-2.021.228c-1.534,1.145-3.316,1.943-4.673,3.342a.861.861,0,0,1-.632.291c-1.8-.432-3.624-.094-5.432-.171a1.333,1.333,0,0,1-1.075-.658c-.284-.381-.491-.818-.759-1.212-1.388-2.04-1.353-2.193.567-3.735a1.742,1.742,0,0,1,1.26-.255c4.065,0,2.858.138,5.121-2.722a6.7,6.7,0,0,0,1.037-1.6c.316-.795.714-.854,1.457-.569a63.723,63.723,0,0,1,14.092,7.161c.225.159.424.355.69.58" transform="translate(-137.548 -153.304)" fill="#62bb93"/>
          <path id="Trazado_819577" data-name="Trazado 819577" d="M79.834,239.509a67.081,67.081,0,0,1,6.176-4.2,51.827,51.827,0,0,1,6.863-3.355c.443-.174.747-.285,1.14.15.813.9,1.771,1.675,2.547,2.6.911,1.089.872,2.6,1.473,3.844.039.081-.19.331-.336.453-.213.179-.495.282-.694.472-2.074,1.975-4.6,2.234-7.285,2A2.936,2.936,0,0,1,88.366,241a9.893,9.893,0,0,0-6.466-1.5c-.593.055-1.2.008-2.066.008" transform="translate(-53.667 -155.822)" fill="#62bb93"/>
          <path id="Trazado_819578" data-name="Trazado 819578" d="M87.032,304.781a3.9,3.9,0,0,1-3.724-3.85,3.565,3.565,0,0,1,3.668-3.918,3.889,3.889,0,1,1,.056,7.767" transform="translate(-55.996 -199.659)" fill="#fed5a7"/>
          <path id="Trazado_819579" data-name="Trazado 819579" d="M142.846,300.708c-.182-2.229,1.574-3.6,3.618-3.7a3.9,3.9,0,1,1-3.618,3.7" transform="translate(-96.017 -199.655)" fill="#fed5a7"/>
          <path id="Trazado_819580" data-name="Trazado 819580" d="M23.9,300.694c-.185-2.191,1.569-3.6,3.624-3.686a3.9,3.9,0,1,1-.164,7.769c-1.867-.017-3.464-1.889-3.461-4.083" transform="translate(-16.059 -199.655)" fill="#fed5a7"/>
          <path id="Trazado_819581" data-name="Trazado 819581" d="M202.308,300.77a3.493,3.493,0,0,1,3.673-3.761,3.892,3.892,0,1,1-.136,7.764,3.822,3.822,0,0,1-3.537-4" transform="translate(-135.987 -199.657)" fill="#fed5a7"/>
          <path id="Trazado_819582" data-name="Trazado 819582" d="M261.781,300.772a3.493,3.493,0,0,1,3.67-3.763,3.894,3.894,0,1,1-.131,7.766,3.829,3.829,0,0,1-3.539-4" transform="translate(-175.966 -199.656)" fill="#fed5a7"/>
          <path id="Trazado_819583" data-name="Trazado 819583" d="M321.251,300.8c-.209-2.358,1.617-3.712,3.64-3.793a3.893,3.893,0,1,1-.069,7.764,3.817,3.817,0,0,1-3.57-3.971" transform="translate(-215.943 -199.656)" fill="#fed5a7"/>
          <path id="Trazado_819584" data-name="Trazado 819584" d="M172.457,104.57c-1.7,0-3.4-.022-5.1.012-.575.012-.812-.146-.75-.741.047-.441-.009-.892.022-1.335a1.751,1.751,0,0,1,1.825-1.817c2.592-.034,5.185-.059,7.776,0a2.672,2.672,0,0,1,2.066,3.648c-.2.4-.566.221-.855.224-1.66.018-3.321.009-4.981.009" transform="translate(-111.989 -67.662)" fill="#a7dbfc"/>
          <path id="Trazado_819585" data-name="Trazado 819585" d="M268.313,46.952l14.435-13c.011,3.8-.241,7.195-2.491,10.093A6.6,6.6,0,0,1,277.4,45.95a15.269,15.269,0,0,1-9.088,1" transform="translate(-180.367 -22.823)" fill="#62bb93"/>
          <path id="Trazado_819586" data-name="Trazado 819586" d="M275.971,23.906l-14.1,12.684c-.3-3.793.11-7.2,2.457-10.037a7.535,7.535,0,0,1,4.79-2.523,16.768,16.768,0,0,1,6.856-.124" transform="translate(-175.978 -15.858)" fill="#62bb93"/>
          <path id="Trazado_819587" data-name="Trazado 819587" d="M35.828,61.085A18,18,0,0,1,38.9,63.719c2.989,2.582,5.858,5.3,8.781,7.958.656.6,1.362,1.139,2.011,1.742.361.336.381.641-.247.652a20.686,20.686,0,0,1-7.83-.886c-3.3-1.246-4.843-3.833-5.552-7.095a24.693,24.693,0,0,1-.236-5.005" transform="translate(-24.078 -41.063)" fill="#62bb93"/>
          <path id="Trazado_819588" data-name="Trazado 819588" d="M56.44,63.169,42.023,50.178c4.048-.035,7.755-.142,11.012,2.155,2.18,1.537,2.891,3.851,3.252,6.287a12.637,12.637,0,0,1,.154,4.549" transform="translate(-28.249 -33.723)" fill="#62bb93"/>
          <path id="Trazado_819589" data-name="Trazado 819589" d="M172.353,140.244c-1.659,0-3.318-.022-4.976.011-.6.012-.827-.118-.85-.788-.106-3.122-.13-3.122,3-3.122,2.549,0,5.1.032,7.646-.019.813-.016,1.106.148,1.1,1.039-.03,2.877.011,2.878-2.88,2.878h-3.034" transform="translate(-111.923 -91.643)"/>
          <path id="Trazado_819590" data-name="Trazado 819590" d="M172.359,164.043c-1.7,0-3.4-.019-5.1.011-.562.01-.745-.145-.775-.738-.161-3.171-.18-3.17,2.945-3.17,2.63,0,5.259.02,7.889-.014.666-.009.884.16.9.863.059,3.049.084,3.049-2.947,3.049h-2.913" transform="translate(-111.88 -107.644)"/>
          <path id="Trazado_819591" data-name="Trazado 819591" d="M239.831,193.791c-1.849,0-1.849,0-1.849-1.83,0-2.092,0-2.092,2.073-2.092,1.849,0,1.849,0,1.849,1.83,0,2.092,0,2.092-2.073,2.092" transform="translate(-159.978 -127.636)"/>
          <path id="Trazado_819592" data-name="Trazado 819592" d="M239.846,170.005c-1.864,0-1.864,0-1.864-1.936,0-1.985,0-1.985,1.937-1.985,1.985,0,1.985,0,1.985,1.936,0,1.985,0,1.985-2.058,1.985" transform="translate(-159.978 -111.646)"/>
          <path id="Trazado_819593" data-name="Trazado 819593" d="M122.96,168.162c0,1.843,0,1.843-1.836,1.843-2.086,0-2.086,0-2.086-2.078,0-1.843,0-1.843,1.836-1.843,2.086,0,2.086,0,2.086,2.078" transform="translate(-80.021 -111.646)"/>
          <path id="Trazado_819594" data-name="Trazado 819594" d="M121.088,189.87c1.872,0,1.872,0,1.872,1.928,0,1.993,0,1.993-2.05,1.993-1.872,0-1.872,0-1.872-1.928,0-1.993,0-1.993,2.05-1.993" transform="translate(-80.021 -127.636)"/>
        </g>
      </g>
    </g>
  </g>
</svg>
