<svg xmlns="http://www.w3.org/2000/svg" xmlns:xlink="http://www.w3.org/1999/xlink" width="144" height="144" viewBox="0 0 144 144">
  <defs>
    <clipPath id="clip-path">
      <rect id="Rect치ngulo_377743" data-name="Rect치ngulo 377743" width="144" height="144" transform="translate(299 5683)" fill="none" stroke="#707070" stroke-width="1"/>
    </clipPath>
    <clipPath id="clip-path-2">
      <rect id="Rect치ngulo_377691" data-name="Rect치ngulo 377691" width="143.612" height="144.04" fill="none"/>
    </clipPath>
  </defs>
  <g id="Enmascarar_grupo_377" data-name="Enmascarar grupo 377" transform="translate(-299 -5683)" clip-path="url(#clip-path)">
    <g id="Grupo_1073437" data-name="Grupo 1073437" transform="translate(299.001 5682.973)">
      <g id="Grupo_1073436" data-name="Grupo 1073436" clip-path="url(#clip-path-2)">
        <path id="Trazado_821478" data-name="Trazado 821478" d="M48.623,116.563a6.509,6.509,0,0,1-.6,1.832,47.083,47.083,0,0,1-4.508,7.322q-2.138,2.668-4.384,5.253a50.775,50.775,0,0,1-5.516,5.351,48.151,48.151,0,0,1-9.9,6.7c-.5.245-.988.509-1.473.778a2.055,2.055,0,0,1-2.516-.662,2.221,2.221,0,0,1-.244-2.39,3.079,3.079,0,0,1,1.461-1.061,40.328,40.328,0,0,0,5.748-3.291c1.131-.761,2.192-1.64,3.256-2.507a70.529,70.529,0,0,0,5.554-5.028,50.134,50.134,0,0,0,4.733-5.7A69.3,69.3,0,0,0,44.11,117a3.178,3.178,0,0,0,.457-1.656c-.013-7.452.014-14.9-.041-22.356a6.87,6.87,0,0,1,1.245-4.159c3.931-5.748,7.762-11.566,11.651-17.343a2.044,2.044,0,0,0,.3-1.9,14.612,14.612,0,0,1-.586-4.468c-.358.073-.483.35-.661.528Q46.444,75.677,36.43,85.717A1.159,1.159,0,0,0,36,86.55l-.023.011.025,0c.013,6.329.018,12.656.051,18.985a4.412,4.412,0,0,1-.643,2.4c-.722,1.2-1.313,2.479-2.074,3.664-.536.833-1.2,1.607-1.66,2.445a31.439,31.439,0,0,1-2.62,3.719,55.078,55.078,0,0,1-14.57,13.016c-1.251.8-2.559,1.5-3.835,2.261a5.447,5.447,0,0,1-1.931.714,1.586,1.586,0,0,1-1.417-.537,2.083,2.083,0,0,1,.5-3.381c1.63-.917,3.293-1.775,4.843-2.827,1.6-1.088,3.2-2.18,4.737-3.368a54.084,54.084,0,0,0,6.3-5.941c1.083-1.156,2.052-2.431,3.039-3.682a51.563,51.563,0,0,0,4.561-6.843,5.614,5.614,0,0,0,.731-2.857c-.043-6.141-.034-12.282-.076-18.423a3.806,3.806,0,0,1,1.235-2.865c1.346-1.381,2.7-2.769,4.074-4.108C40,76.257,42.661,73.5,45.4,70.822c1.622-1.588,3.208-3.214,4.821-4.812.629-.622,1.287-1.213,1.927-1.823.111-.105.31-.214.186-.393-.054-.079-.257-.1-.378-.08-1.09.213-2.178.441-3.265.668-2.4.5-4.8,1.05-7.22,1.474-4.164.729-8.346.3-12.519.391-4.042.087-8.088-.006-12.132.031a2.038,2.038,0,0,1-2.057-2.13,2.132,2.132,0,0,1,1.88-2,8.118,8.118,0,0,1,1.4-.09q8.932,0,17.864,0a25.052,25.052,0,0,0,2.8-.042,53.24,53.24,0,0,0,6.139-.959c3.92-.916,7.851-1.787,11.781-2.658.34-.075.572-.171.6-.543l.042-.014-.042-.071q-.017-1.911-.034-3.821l.034,0h-.034c-.244-.44-.667-.335-1.047-.335Q32.411,53.6,8.678,53.6a4.273,4.273,0,0,0-2.8.881,4.21,4.21,0,0,0-1.446,4.557,3.96,3.96,0,0,0,3.6,2.991,2.92,2.92,0,0,1,2.017.79,4.173,4.173,0,0,1,.546,1.332c-.393,1.716-.952,2.169-2.687,2.1a7.881,7.881,0,0,1-6.775-4.442,8.07,8.07,0,0,1,.448-8.9A8.6,8.6,0,0,1,5.6,49.924a8.836,8.836,0,0,1,3.712-.479c14.261-.044,28.521-.029,42.782-.029.444,0,.886.008,1.328.013l.015.047.039-.031.469.029c.062.06.117.041.16-.023a.632.632,0,0,0-.078-.069,4.2,4.2,0,0,0-.928-1.04q-3.691-3.709-7.39-7.408a6.925,6.925,0,0,1-1.12-1.624c-.2-.366-.014-.613-.014-.9-.021-5.367-.009-10.734,0-16.1a3.008,3.008,0,0,0-.413-1.433,36.825,36.825,0,0,0-7.03-9.368,31.954,31.954,0,0,0-4.591-3.862c-.872-.564-1.745-1.2-2.6-1.81-1.077-.772-2.3-1.332-3.443-2.021a1.972,1.972,0,0,1-.955-2.288c.45-1.38,1.879-1.82,3.324-1.046a57.264,57.264,0,0,1,5.874,3.588A42.4,42.4,0,0,1,45.066,14.584c1.073,1.529,1.992,3.156,2.95,4.75a4.79,4.79,0,0,1,.7,2.875c-.049.535-.02,1.077-.026,1.615-.292.171-.292.3,0,.468q0,4.478,0,8.956c-.149-.046-.205.037-.205.164s.055.211.2.164c.013,1.077.106,2.161.014,3.229a2.458,2.458,0,0,0,.837,2.044c2.537,2.555,5.1,5.088,7.646,7.628.034.033.07.062.1.1.266.294.333.874.837.812.414-.05.5-.572.753-.865a10.241,10.241,0,0,1,1.789-1.77c.36-.254.335-.477.089-.806a7.493,7.493,0,0,1,1.4-10.508,23.421,23.421,0,0,0,2.131-1.8c.789-.756,1.754-1.327,2.532-2.093.882-.866,2.131-1.258,2.846-2.313.336-.076.329-.243.121-.462q0-.813-.007-1.626c.178-.122.181-.238-.012-.347.015-.162.042-.324.042-.485q0-9.159,0-18.318a4.784,4.784,0,0,0-.064-.548l.041-.026L69.741,5.4a.552.552,0,0,0,.016-.51,1.291,1.291,0,0,0-.033-1.32.267.267,0,0,0,0-.36l.033-.035-.034-.035c.046-.39.1-.779.136-1.17A2.117,2.117,0,0,1,71.368.015a2.331,2.331,0,0,1,2.483,1.706,5.029,5.029,0,0,1,.109,1.321q0,10.952,0,21.905a5.524,5.524,0,0,0,.055.55c-.191.075-.19.147,0,.217-.52,1.515.554,2.235,1.533,2.922,1.407.987,2.68,2.132,4.008,3.211.6.483,1.159,1.009,1.776,1.461a8.363,8.363,0,0,1,2.209,2.573c1.362,2.287,1.073,6.235-.573,8.071-.32.357-.293.614.15.881a7,7,0,0,1,1.936,1.973c.443.6.513.628,1.035.1,2.629-2.634,5.24-5.285,7.9-7.888a3.27,3.27,0,0,0,1.1-2.6c-.072-4.662.038-9.328-.079-13.988a8.449,8.449,0,0,1,1.556-4.607,46.7,46.7,0,0,1,4.078-5.946,53.873,53.873,0,0,1,3.8-4.048A48.711,48.711,0,0,1,110.4,3.07a33.213,33.213,0,0,1,4.64-2.665A2.212,2.212,0,0,1,117.5.562a2.081,2.081,0,0,1,.656,2.15,1.517,1.517,0,0,1-.827,1.074c-1.665.968-3.376,1.856-4.97,2.951a39.467,39.467,0,0,0-10.831,10.939c-.784,1.2-1.444,2.462-2.192,3.676a.987.987,0,0,0-.089.6c-.015,5.132.006,10.264-.056,15.4a5.269,5.269,0,0,1-.352,2.56,4.048,4.048,0,0,1-.867,1.071c-2.828,2.61-5.46,5.42-8.2,8.118-.044.043-.05.124-.074.187-.088.015-.131.091-.094.15a.207.207,0,0,0,.3.059c.84-.028,1.679-.079,2.519-.079q21.074-.006,42.149,0a8.893,8.893,0,0,1,5.895,1.828,8.333,8.333,0,0,1,3.116,5.977,7.777,7.777,0,0,1-.922,4.631,8.421,8.421,0,0,1-5.72,4.269,14.19,14.19,0,0,1-2.694.156c-9.654-.007-19.309-.045-28.962-.014a19.011,19.011,0,0,1-3.759-.347c-1.469-.293-2.943-.647-4.411-.992-1.849-.436-3.714-.8-5.573-1.194a2.311,2.311,0,0,0-.411.019c.591.571,1.1,1.043,1.585,1.533q9.177,9.195,18.353,18.391a1.911,1.911,0,0,1,.7,1.233l-.026.012.028.007q.005,5.414.009,10.827c0,2.883.036,5.768-.051,8.648a6.848,6.848,0,0,0,1.219,3.666,45.534,45.534,0,0,0,4.749,6.981,58.885,58.885,0,0,0,8.022,8.16,65.286,65.286,0,0,0,9.954,6.543,1.974,1.974,0,0,1,1.3,1.8,2.069,2.069,0,0,1-1.63,2.191,2.687,2.687,0,0,1-1.92-.56c-1.482-.8-2.97-1.6-4.393-2.508a76.748,76.748,0,0,1-7.256-5.416,45.353,45.353,0,0,1-6.262-6.352,63.679,63.679,0,0,1-7.31-11.04,5.382,5.382,0,0,1-.5-2.573q.026-9.1.044-18.208a1.886,1.886,0,0,0-.55-1.5q-9.175-9.145-18.3-18.341c-.569-.572-1.147-1.137-1.711-1.715a1.048,1.048,0,0,0-.706-.361,18.162,18.162,0,0,1-.128,2.493A8.857,8.857,0,0,1,86,69.676a2.022,2.022,0,0,0,.366,1.984c1.96,2.7,3.789,5.5,5.6,8.305.514.8,1.08,1.564,1.64,2.333,1.707,2.345,3.151,4.866,4.824,7.233a4.415,4.415,0,0,1,.8,2.694c-.033,7.8-.029,15.609-.028,23.414a4.76,4.76,0,0,0,1.012,2.506c.541.859,1.073,1.723,1.606,2.586a46.173,46.173,0,0,0,5.023,6.651,55.364,55.364,0,0,0,11.931,10.164,41.444,41.444,0,0,0,4.418,2.446,2.3,2.3,0,0,1,1.136,2.632,2.365,2.365,0,0,1-2.106,1.416,1.217,1.217,0,0,1-.583-.164c-2.424-1.331-4.811-2.723-7.141-4.22a54.508,54.508,0,0,1-5.785-4.625,53.471,53.471,0,0,1-7.916-8.636,57.136,57.136,0,0,1-5.353-8.592,8.926,8.926,0,0,1-.458-2.083.358.358,0,0,0,.008-.622,1.617,1.617,0,0,0,.065-.761q.018-10.966.034-21.934a1.712,1.712,0,0,0-.352-1.033C91.115,86.2,87.756,80.85,84.22,75.618c-.551-.815-.542-.812-1.209-.073a14.553,14.553,0,0,1-2.245,2.113,1.047,1.047,0,0,0-.481.979q.02,9.456.01,18.912c0,3.937.015,7.874-.006,11.811a10.247,10.247,0,0,1-2.039,6.431,7.316,7.316,0,0,1-2.274,1.81,8.246,8.246,0,0,1-11.685-3.835,9.013,9.013,0,0,1-.837-3.864q.018-15.642.015-31.285a1.135,1.135,0,0,0-.5-1.046,10.7,10.7,0,0,1-2.413-2.317c-.317-.449-.536-.416-.821.037-.675,1.075-1.372,2.135-2.041,3.215-.865,1.4-1.842,2.723-2.755,4.09-1.52,2.276-2.994,4.582-4.557,6.827a13.178,13.178,0,0,1-1.81,2.459.79.79,0,0,0-.088.86,5.3,5.3,0,0,1,.218,1.976q-.008,10.053-.012,20.105c-.1-.039-.178-.01-.177.094s.082.132.178.093q0,.542,0,1.083c-.341.107-.281.276-.072.469m27.489-23.3c.088-.035.108-.086.034-.156-.02-1.125-.047-2.25-.055-3.374,0-.315-.015-.554-.427-.553-2.525.006-5.05,0-7.574,0-.271,0-.452.083-.424.407.092,1.075-.135,2.137-.15,3.21-.006.45.111.616.577.612,2.618-.022,5.236-.019,7.855-.024a.107.107,0,0,0,.149-.093Zm-1.44-45.948c-3.085-.013-6.171-.074-9.255-.021a4.294,4.294,0,0,0-3.892,3.058,6.726,6.726,0,0,0-.194,2.02c0,4.523.032,9.047-.028,13.57a5.808,5.808,0,0,0,.11,1.857A12.371,12.371,0,0,0,65.8,74.414a9.606,9.606,0,0,0,8.735,1.665,2.779,2.779,0,0,0,.473-.084A10.691,10.691,0,0,0,82.362,65.9c.093-4.7.052-9.409.023-14.113a4.323,4.323,0,0,0-3.529-4.364,18.55,18.55,0,0,0-4.184-.112m35.08,6.3h-20.4c-.771,0-1.542.013-2.313,0-.364-.007-.468.11-.457.491.033,1.147.07,2.3-.011,3.442-.046.663.252.861.778.971,1.7.353,3.4.694,5.092,1.065,2.32.508,4.635,1.035,6.951,1.56a27.367,27.367,0,0,0,5.714.865c7.64.082,15.281.055,22.921.06,2.476,0,4.954.007,7.43-.051a3.91,3.91,0,0,0,3.624-2.348,4.022,4.022,0,0,0-.47-4.3,3.713,3.713,0,0,0-2.519-1.633,26.092,26.092,0,0,0-3.768-.1c-7.524-.025-15.048-.012-22.572-.014M74.7,43.043c.9-.147,1.851.069,2.768-.141a3.625,3.625,0,0,0,2.673-4.1,4.524,4.524,0,0,0-1.622-2.372c-2.107-1.664-4.23-3.311-6.217-5.122a.562.562,0,0,0-.859-.028c-.352.307-.706.612-1.069.906-1.8,1.457-3.618,2.883-5.383,4.377A3.412,3.412,0,0,0,63.6,40.26a4.038,4.038,0,0,0,1.052,1.667,2.979,2.979,0,0,0,2.292,1.12c2.585-.012,5.171,0,7.757,0m-2.819,63.015v-.005c-1.215,0-2.429.008-3.644-.005-.4,0-.587.1-.578.552.025,1.264-.01,2.529,0,3.794a3.666,3.666,0,0,0,.553,1.921,4.224,4.224,0,0,0,4.23,2.084,4.014,4.014,0,0,0,2.74-1.595,4.9,4.9,0,0,0,.933-3.461,19.723,19.723,0,0,1-.017-2.668c.026-.531-.185-.634-.648-.626-1.191.021-2.382.007-3.574.007M71.87,84.97c1.236,0,2.474-.014,3.71.007.419.007.576-.114.563-.555C76.1,83.16,76.1,81.9,76.1,80.633c0-.372-.078-.481-.485-.385a14.061,14.061,0,0,1-2.6.46,12.447,12.447,0,0,1-4.882-.488c-.37-.136-.489-.012-.484.385.014,1.286,0,2.573-.024,3.859-.009.41.154.517.534.511,1.237-.017,2.474-.006,3.71-.006m.033,16.878c1.212,0,2.425-.015,3.637.008.439.008.626-.1.6-.584-.045-1.05-.056-2.1-.038-3.155.007-.425-.172-.51-.54-.509-2.448.008-4.9.011-7.344-.005-.471,0-.582.169-.569.621.03,1,.027,2.012-.028,3.015-.028.529.176.627.64.618,1.212-.024,2.425-.008,3.638-.008" transform="translate(0 0)" fill="#060607"/>
        <path id="Trazado_821479" data-name="Trazado 821479" d="M60.488,95.607q.017,1.91.034,3.82l-.036.042.036.043c-.032.373-.263.468-.6.544-3.93.871-7.861,1.742-11.782,2.658a53.127,53.127,0,0,1-6.139.958,24.936,24.936,0,0,1-2.8.043q-8.932,0-17.864,0a8.17,8.17,0,0,0-1.395.089,2.134,2.134,0,0,0-1.88,2l-4.168,0a4.175,4.175,0,0,0-.546-1.332,2.918,2.918,0,0,0-2.016-.79,3.96,3.96,0,0,1-3.6-2.991,4.208,4.208,0,0,1,1.446-4.557,4.268,4.268,0,0,1,2.8-.881q23.732.006,47.464.01c.38,0,.8-.1,1.047.335v.005" transform="translate(-3.298 -41.657)" fill="#addceb"/>
        <path id="Trazado_821480" data-name="Trazado 821480" d="M123.829,6.34a1.292,1.292,0,0,1,.033,1.32,1.79,1.79,0,0,1-.033-1.32" transform="translate(-54.104 -2.773)" fill="#842d14"/>
        <path id="Trazado_821481" data-name="Trazado 821481" d="M168.727,204.552a.358.358,0,0,1-.008.622.484.484,0,0,1,.008-.622" transform="translate(-73.735 -89.453)" fill="#842d14"/>
        <path id="Trazado_821482" data-name="Trazado 821482" d="M123.905,47.579c.208.219.215.386-.121.462.024-.159-.123-.362.121-.462" transform="translate(-54.123 -20.807)" fill="#842d14"/>
        <path id="Trazado_821483" data-name="Trazado 821483" d="M86.354,42.808c-.293-.169-.293-.3,0-.468a.654.654,0,0,1,0,.468" transform="translate(-37.668 -18.516)" fill="#842d14"/>
        <path id="Trazado_821484" data-name="Trazado 821484" d="M86.28,206.79c-.209-.192-.27-.361.071-.469.027.165.109.337-.071.469" transform="translate(-37.657 -90.227)" fill="#842d14"/>
        <path id="Trazado_821485" data-name="Trazado 821485" d="M123.879,44.072c.192.109.189.226.012.348-.2-.11-.187-.226-.012-.348" transform="translate(-54.115 -19.273)" fill="#842d14"/>
        <path id="Trazado_821486" data-name="Trazado 821486" d="M86.365,59.405c-.149.048-.2-.037-.2-.164s.057-.21.205-.164c0,.11,0,.218,0,.327" transform="translate(-37.679 -25.83)" fill="#842d14"/>
        <path id="Trazado_821487" data-name="Trazado 821487" d="M159.526,87.791a.206.206,0,0,1-.3-.059c-.037-.059.006-.135.095-.15.125.014.221.057.208.209" transform="translate(-69.625 -38.301)" fill="#842d14"/>
        <path id="Trazado_821488" data-name="Trazado 821488" d="M131.428,45.53c-.192-.07-.194-.142,0-.217.154.071.154.143,0,.217" transform="translate(-57.412 -19.816)" fill="#842d14"/>
        <path id="Trazado_821489" data-name="Trazado 821489" d="M86.395,204.238c-.1.038-.178.011-.178-.093s.08-.133.177-.093c0,.062,0,.125,0,.187" transform="translate(-37.704 -89.227)" fill="#842d14"/>
        <path id="Trazado_821490" data-name="Trazado 821490" d="M95.95,87.761a.678.678,0,0,1,.078.069c-.043.064-.1.084-.16.023l.082-.092" transform="translate(-41.924 -38.379)" fill="#842d14"/>
        <path id="Trazado_821491" data-name="Trazado 821491" d="M63.971,153.828l-.025,0,.023-.011.026,0Z" transform="translate(-27.964 -67.266)" fill="#f38233"/>
        <path id="Trazado_821492" data-name="Trazado 821492" d="M198.613,150.9l-.029-.007.027-.012.032.007Z" transform="translate(-86.844 -65.983)" fill="#f38233"/>
        <path id="Trazado_821493" data-name="Trazado 821493" d="M123.867,5.575l.034.034-.033.036-.059-.062.058-.008" transform="translate(-54.143 -2.438)" fill="#842d14"/>
        <path id="Trazado_821494" data-name="Trazado 821494" d="M123.878,9.592l.042.024-.041.027-.084-.025.083-.026" transform="translate(-54.137 -4.195)" fill="#842d14"/>
        <path id="Trazado_821495" data-name="Trazado 821495" d="M94.992,87.84l-.039.031-.015-.047.039-.028Z" transform="translate(-41.518 -38.395)" fill="#842d14"/>
        <path id="Trazado_821496" data-name="Trazado 821496" d="M177.03,95.28c7.524,0,15.048-.013,22.572.012a26.1,26.1,0,0,1,3.769.1,3.714,3.714,0,0,1,2.519,1.633,4.023,4.023,0,0,1,.469,4.3,3.908,3.908,0,0,1-3.623,2.348c-2.476.058-4.953.052-7.43.051-7.641,0-15.281.022-22.922-.06a27.357,27.357,0,0,1-5.714-.865c-2.317-.525-4.632-1.053-6.953-1.56-1.694-.371-3.394-.712-5.091-1.065-.527-.11-.825-.308-.778-.971.081-1.142.043-2.295.01-3.442-.011-.381.093-.5.458-.491.77.016,1.542,0,2.313,0q10.2,0,20.4,0" transform="translate(-67.278 -41.665)" fill="#addceb"/>
        <path id="Trazado_821497" data-name="Trazado 821497" d="M122.167,112.817a9.608,9.608,0,0,1-8.735-1.665,12.378,12.378,0,0,1-4.388-6.619,5.856,5.856,0,0,1-.11-1.857c.06-4.523.029-9.046.028-13.57a6.732,6.732,0,0,1,.194-2.021,4.3,4.3,0,0,1,3.892-3.057c3.084-.053,6.17.008,9.255.021a.924.924,0,0,0,.081.335,7.938,7.938,0,0,1,1.336,5.11c-.1,5.219.142,10.44-.123,15.659a35.991,35.991,0,0,1-.524,3.94c-.2,1.267-.9,2.41-.905,3.722" transform="translate(-47.63 -36.738)" fill="#b73019"/>
        <path id="Trazado_821498" data-name="Trazado 821498" d="M132.466,112.8c.007-1.312.7-2.455.905-3.722a35.991,35.991,0,0,0,.524-3.94c.265-5.219.028-10.44.123-15.659a7.938,7.938,0,0,0-1.336-5.11.924.924,0,0,1-.081-.335,18.549,18.549,0,0,1,4.184.112,4.324,4.324,0,0,1,3.53,4.364c.029,4.7.07,9.41-.024,14.113a10.689,10.689,0,0,1-7.353,10.093,2.715,2.715,0,0,1-.473.085" transform="translate(-57.929 -36.722)" fill="#842d14"/>
        <path id="Trazado_821499" data-name="Trazado 821499" d="M124.022,67.213c-2.586,0-5.172-.008-7.757,0a2.98,2.98,0,0,1-2.291-1.12,4.044,4.044,0,0,1-1.053-1.667,3.415,3.415,0,0,1,1.394-3.692c1.765-1.494,3.588-2.919,5.383-4.377.362-.294.716-.6,1.069-.906a.562.562,0,0,1,.859.028c1.987,1.811,4.11,3.457,6.217,5.122a4.522,4.522,0,0,1,1.622,2.372,3.625,3.625,0,0,1-2.673,4.1c-.917.21-1.866-.006-2.768.141" transform="translate(-49.326 -24.17)" fill="#842d14"/>
        <path id="Trazado_821500" data-name="Trazado 821500" d="M124.459,188.477c1.191,0,2.383.014,3.574-.007.463-.008.674.095.647.626a19.917,19.917,0,0,0,.017,2.668,4.9,4.9,0,0,1-.933,3.46,4.015,4.015,0,0,1-2.74,1.6,4.225,4.225,0,0,1-4.23-2.085,3.671,3.671,0,0,1-.553-1.921c-.014-1.264.021-2.53,0-3.794-.01-.456.179-.556.578-.553,1.214.014,2.429.005,3.644.005Z" transform="translate(-52.581 -82.419)" fill="#f38233"/>
        <path id="Trazado_821501" data-name="Trazado 821501" d="M124.427,147.275c-1.237,0-2.474-.011-3.71.006-.381.006-.543-.1-.535-.511q.041-1.929.024-3.859c0-.4.115-.522.484-.385a12.437,12.437,0,0,0,4.882.488,14,14,0,0,0,2.6-.46c.407-.1.486.013.486.385,0,1.263,0,2.527.042,3.789.013.441-.145.562-.563.555-1.236-.021-2.473-.008-3.71-.008" transform="translate(-52.557 -62.305)" fill="#f38233"/>
        <path id="Trazado_821502" data-name="Trazado 821502" d="M128.422,162.69c-2.618.006-5.236,0-7.855.024-.466,0-.584-.162-.577-.612a32.037,32.037,0,0,0,.149-3.21c-.028-.324.153-.408.424-.407,2.525,0,5.05.006,7.574,0,.412,0,.425.238.427.553.007,1.124.035,2.249.055,3.373-.011.052-.022.1-.033.156l-.015.028-.149.093" transform="translate(-52.473 -69.308)" fill="#f38233"/>
        <path id="Trazado_821503" data-name="Trazado 821503" d="M124.458,177.7c-1.213,0-2.426-.016-3.638.008-.464.01-.668-.088-.64-.618.055-1,.058-2.01.028-3.015-.013-.452.1-.624.569-.621,2.448.017,4.9.013,7.344.005.367,0,.546.084.54.509-.017,1.052-.007,2.105.038,3.156.021.484-.165.592-.6.584-1.213-.023-2.425-.008-3.637-.008" transform="translate(-52.555 -75.856)" fill="#f38233"/>
        <path id="Trazado_821504" data-name="Trazado 821504" d="M101.67,102.754l-.036-.043.036-.043.042.072-.042.014" transform="translate(-44.446 -44.898)" fill="#842d14"/>
        <path id="Trazado_821505" data-name="Trazado 821505" d="M101.636,95.876v-.005h.034Z" transform="translate(-44.447 -41.926)" fill="#842d14"/>
        <path id="Trazado_821506" data-name="Trazado 821506" d="M134.975,165.885l.149-.093a.107.107,0,0,1-.149.093" transform="translate(-59.026 -72.503)" fill="#842d14"/>
        <path id="Trazado_821507" data-name="Trazado 821507" d="M135.266,165.621l.034-.156c.074.07.054.12-.034.156" transform="translate(-59.154 -72.36)" fill="#842d14"/>
      </g>
    </g>
  </g>
</svg>
