<svg xmlns="http://www.w3.org/2000/svg" xmlns:xlink="http://www.w3.org/1999/xlink" width="190" height="190" viewBox="0 0 190 190">
  <defs>
    <clipPath id="clip-path">
      <rect id="Rect치ngulo_377380" data-name="Rect치ngulo 377380" width="190" height="190" transform="translate(390 3210)" fill="none" stroke="#707070" stroke-width="1"/>
    </clipPath>
    <clipPath id="clip-path-2">
      <rect id="Rect치ngulo_377379" data-name="Rect치ngulo 377379" width="173.389" height="176.175" fill="none"/>
    </clipPath>
  </defs>
  <g id="Enmascarar_grupo_317" data-name="Enmascarar grupo 317" transform="translate(-390 -3210)" clip-path="url(#clip-path)">
    <g id="Grupo_1073006" data-name="Grupo 1073006" transform="translate(398 3217)">
      <g id="Grupo_1073005" data-name="Grupo 1073005" clip-path="url(#clip-path-2)">
        <path id="Trazado_819342" data-name="Trazado 819342" d="M24.223,79.707c-3.757,0-7.515.076-11.269-.027A9.98,9.98,0,0,1,6.51,76.914a11.634,11.634,0,0,1-3.627-6.433,10.326,10.326,0,0,1,.127-4.458,10.544,10.544,0,0,1,3.048-5.189A3.872,3.872,0,0,1,7.1,60.016c1.261-.541,1.4-1.668,1.671-2.752A10.432,10.432,0,0,1,17.665,49.6c.363-.039.7-.156,1.072-.191a12.589,12.589,0,0,1,4.449.766.944.944,0,0,0,.993-.207,12.581,12.581,0,0,1,5.371-2.838c4.872-1.048,9.212-.109,12.915,3.36A12.924,12.924,0,0,1,46.3,57.462a1.054,1.054,0,0,0,.733.744,9.877,9.877,0,0,1,2.3.92.778.778,0,0,0,1.269-.246c1.433-2.125,2.846-4.264,4.28-6.389,1.23-1.823,2.53-3.6,3.7-5.461.725-1.149,1.479-2.3,2.238-3.407.834-1.218,1.758-2.414,2.558-3.66,1.517-2.363,3.191-4.615,4.732-6.96a23.907,23.907,0,0,1,3.638-4.829,7.727,7.727,0,0,1,4-1.852,12.8,12.8,0,0,1,3.36.1,6.393,6.393,0,0,1,2.7,1.289,8.968,8.968,0,0,1,2.447,2.749c3.6,5.273,7.144,10.577,10.778,15.824,1.819,2.626,3.477,5.374,5.4,7.923a24.144,24.144,0,0,0,2.1,2.857,11.639,11.639,0,0,1,1.565,2.54c.316.578.581.647.965-.009,1.371-2.343,3.168-4.4,4.63-6.681,1.093-1.708,2.265-3.368,3.449-5.019a7.6,7.6,0,0,1,6.114-3.309,8.537,8.537,0,0,1,5.441,1.521,9.878,9.878,0,0,1,2.385,2.8c1.211,1.833,2.445,3.651,3.674,5.472q5.429,8.04,10.861,16.077c1.106,1.637,2.21,3.276,3.326,4.906,1.554,2.271,3.137,4.525,4.677,6.806,2.768,4.1,5.512,8.212,8.27,12.318a5.711,5.711,0,0,0,.677.873.852.852,0,0,0,.85.246,16.173,16.173,0,0,1,9.231.79A3.229,3.229,0,0,1,170.7,99.66c.033,2.558-.3,5.1-.472,7.644a54.525,54.525,0,0,1-.989,7.085q-.981,4.836-2.394,9.6A81.362,81.362,0,0,1,160.8,138.7a90.077,90.077,0,0,1-12.21,17.575,71.341,71.341,0,0,1-11.793,10.7c-2.288,1.652-4.567,3.311-6.985,4.758-2.273,1.36-4.624,2.591-6.965,3.835a43.54,43.54,0,0,1-5.525,2.466c-2.29.835-4.544,1.767-6.883,2.471a84.547,84.547,0,0,1-10.765,2.58c-2.436.4-4.894.723-7.365.951a90.765,90.765,0,0,1-10.586.281,76.213,76.213,0,0,1-8.339-.788,76.136,76.136,0,0,1-7.664-1.468,86.03,86.03,0,0,1-9.47-2.822,93.336,93.336,0,0,1-9.6-4.25,79.023,79.023,0,0,1-10.775-6.531,99.739,99.739,0,0,1-8.678-7.039,84.4,84.4,0,0,1-10.7-12.19,99.045,99.045,0,0,1-8.233-13.564c-.748-1.428-1.373-2.909-1.976-4.385A84.406,84.406,0,0,1,2.1,117.8c-.64-2.86-1.152-5.756-1.534-8.661-.186-1.416-.336-2.854-.412-4.3-.1-1.855-.14-3.707-.151-5.563a2.752,2.752,0,0,1,1.538-2.644,13.34,13.34,0,0,1,7.635-1.327,17.031,17.031,0,0,1,4.871,1.259,22.7,22.7,0,0,1,3.847,2.521,7.5,7.5,0,0,0,3.75,1.634,1,1,0,0,0,.972-.52q5.287-7.8,10.574-15.593c.929-1.369,1.867-2.731,2.792-4.1.136-.2.432-.393.3-.662s-.461-.132-.7-.133Q29.9,79.7,24.223,79.707m3.823,74.707a4.905,4.905,0,0,0,.308.4,68.935,68.935,0,0,0,10.128,8.834,80.322,80.322,0,0,0,19.287,10.256c1.479.546,2.982,1.033,4.491,1.493,1.7.518,3.412.991,5.149,1.379,2.2.492,4.416.893,6.648,1.24a76.052,76.052,0,0,0,8.97.785c2.2.079,4.4,0,6.6-.1s4.348-.434,6.526-.6a40.777,40.777,0,0,0,4.342-.756,77.484,77.484,0,0,0,16.421-5.03,79.029,79.029,0,0,0,22.446-14.544A74.336,74.336,0,0,0,152.943,141.3c.54-.9.973-1.9,1.536-2.751a39.725,39.725,0,0,0,2.461-4.253,79.119,79.119,0,0,0,5.787-15.684,86.038,86.038,0,0,0,1.95-10.778c.251-2.05.352-4.119.512-6.18.027-.34.072-.7-.428-.785a9.436,9.436,0,0,0-6.875,1.238c-1.139.713-2.236,1.492-3.353,2.241a16.671,16.671,0,0,1-8.667,1.674,14.553,14.553,0,0,1-4.042-.944,24.251,24.251,0,0,1-4.317-2.617,9.955,9.955,0,0,0-4.909-1.772,10.119,10.119,0,0,0-7.152,2.393,14.54,14.54,0,0,1-11.9,2.908,13.955,13.955,0,0,1-6.475-3.092,9.44,9.44,0,0,0-7.169-2.22,8.71,8.71,0,0,0-4.847,1.907,15.858,15.858,0,0,1-8.512,3.617,15.019,15.019,0,0,1-10.815-3.393A9.241,9.241,0,0,0,69.1,100.68a8.763,8.763,0,0,0-4.953,1.811,16.327,16.327,0,0,1-6.017,3.167,13.949,13.949,0,0,1-7.028.215,17.427,17.427,0,0,1-5.114-2.176c-1.446-.9-2.654-2.154-4.386-2.613a10.889,10.889,0,0,0-5.98.048,13.43,13.43,0,0,0-3.99,2.482,14.976,14.976,0,0,1-5.528,2.416,12.551,12.551,0,0,1-5.032.147,13.067,13.067,0,0,1-6.14-2.563c-2.668-2.138-5.543-3.356-9.036-2.628-.389.081-.45.235-.37.463A9.058,9.058,0,0,1,5.62,104c.193,3.016.632,5.994,1.114,8.964a64.766,64.766,0,0,0,2.105,9.006,79.639,79.639,0,0,0,12.068,24.126,64.805,64.805,0,0,0,7.138,8.32m3.337-57.583c.527.149.792-.125,1.09-.263a14.638,14.638,0,0,1,7.834-1.406,14.93,14.93,0,0,1,7.806,3.293,9.574,9.574,0,0,0,6.09,2.215,10.308,10.308,0,0,0,6.548-2.417,13.971,13.971,0,0,1,7.622-3.066,14.5,14.5,0,0,1,10.74,3.249,9.85,9.85,0,0,0,3.618,1.919,10.018,10.018,0,0,0,9.144-2.135,14.116,14.116,0,0,1,13.385-2.456,10.4,10.4,0,0,1,2.44.945c1.555.948,2.865,2.3,4.531,3.055a9.438,9.438,0,0,0,10.057-1.051c1.217-.888,1.221-.878.406-2.069-4.283-6.263-8.62-12.489-12.828-18.8q-5.193-7.789-10.511-15.491c-.788-1.143-1.618-2.28-2.368-3.435-1.168-1.8-2.4-3.559-3.538-5.374-.289-.46-.519-.594-.938-.069-1.215,1.523-2.47,3.015-3.735,4.5-1.535,1.8-2.782,1.95-4.674.55q-3.179-2.352-6.317-4.758a.955.955,0,0,0-1.36-.014c-2.04,1.579-4.109,3.119-6.17,4.671-2.016,1.519-3.2,1.415-4.877-.507-1.163-1.334-2.254-2.73-3.391-4.087-.786-.939-.79-.926-1.459.059-2.029,2.985-4.047,5.978-6.106,8.941a1.742,1.742,0,0,0-.226,1.824,10.625,10.625,0,0,1,.613,6.286,11.061,11.061,0,0,1-10.88,8.747,1.59,1.59,0,0,0-1.472.8c-2.181,3.264-4.4,6.5-6.606,9.75-1.477,2.176-2.948,4.355-4.466,6.6M28.664,74.2c5.074,0,10.148-.016,15.221.01a5.384,5.384,0,0,0,3.693-1.272,5.762,5.762,0,0,0,.4-8.016,6.158,6.158,0,0,0-4.151-1.744,2.685,2.685,0,0,1-1.877-1.051,5.037,5.037,0,0,1-.8-2.849,7.515,7.515,0,0,0-1.985-4.371A8.542,8.542,0,0,0,33.741,52.3a8.357,8.357,0,0,0-5.357,1.239c-.3.174-.478.4-.262.679a11.549,11.549,0,0,1,2.064,5.446,2.879,2.879,0,0,1-2.494,3.528,2.54,2.54,0,0,1-2.731-2.1,10.646,10.646,0,0,0-.679-2.817A5.775,5.775,0,0,0,20.3,55.049a5.452,5.452,0,0,0-6.539,5.172,4.979,4.979,0,0,1-.052,1.113,2.839,2.839,0,0,1-1.937,2.175,5.841,5.841,0,0,0-2.886,2.378,5.456,5.456,0,0,0-.5,3.976,5.305,5.305,0,0,0,5.4,4.346c4.959-.039,9.918-.011,14.878-.011M146.846,100.55a10.9,10.9,0,0,0,6.553-1.875c.514-.356.582-.6.21-1.141-2.1-3.037-4.169-6.1-6.243-9.159q-5.618-8.282-11.224-16.573c-.5-.744-.8-.23-1.1.116-1.169,1.374-2.328,2.758-3.461,4.162-1.594,1.975-2.863,2.149-4.911.618-2.11-1.577-4.228-3.143-6.314-4.754a.831.831,0,0,0-1.2.012c-1.177.913-2.368,1.807-3.564,2.694-.826.612-.845.685-.246,1.558q1.8,2.621,3.588,5.246,4.539,6.68,9.063,13.371a1.138,1.138,0,0,0,1.44.571,6.76,6.76,0,0,1,1.526-.213,14.651,14.651,0,0,1,10.1,3.15,10.264,10.264,0,0,0,5.784,2.217M77.092,31.689a3.156,3.156,0,0,0-2.823,1.827q-4.7,7.295-9.688,14.39c-.237.339-.165.438.041.674,1.013,1.159,2,2.336,3.015,3.5.752.863.763.862,1.722.142,1.924-1.442,3.839-2.9,5.767-4.333a2.747,2.747,0,0,1,3.555-.189c2.221,1.638,4.436,3.285,6.595,5,.509.405.684.234.976-.123C87.3,51.294,88.339,50.01,89.4,48.74a.849.849,0,0,0,.061-1.158q-1.994-2.909-3.972-5.83c-1.9-2.8-3.779-5.6-5.68-8.391a3.139,3.139,0,0,0-2.715-1.672m42.734,18.434a2.566,2.566,0,0,0-2.5,1.26c-1.286,1.685-2.357,3.508-3.564,5.241-1.914,2.749-3.664,5.611-5.715,8.265-.219.284-.087.422.068.646,1.04,1.506,2.074,3.015,3.082,4.541.39.592.723.646,1.292.178,1.57-1.294,3.2-2.516,4.785-3.789,1.236-.991,2.527-1.424,4-.525.34.208.666.443.985.682,1.877,1.407,3.76,2.807,5.619,4.239a.718.718,0,0,0,1.159-.13c.94-1.142,1.841-2.32,2.842-3.406a1.214,1.214,0,0,0,.053-1.792q-4.842-7.023-9.631-14.082a2.449,2.449,0,0,0-2.469-1.326" transform="translate(0 -8.173)"/>
        <path id="Trazado_819343" data-name="Trazado 819343" d="M187.975,29.676c-.152-1.583.83-2.631,1.513-3.786a7.987,7.987,0,0,0,.84-5.954c-.314-1.495-1.3-2.624-1.994-3.914a3.872,3.872,0,0,1,.4-4.015,4.743,4.743,0,0,1,3.359-1.722,8.183,8.183,0,0,0,6.038-5.642,6.875,6.875,0,0,1,1.424-3.459,4.076,4.076,0,0,1,5.136-.5,10.352,10.352,0,0,0,2.867,1.588A8,8,0,0,0,214.5,1.037a4.5,4.5,0,0,1,5.49-.2,3.237,3.237,0,0,1,1.364,1.99,11.673,11.673,0,0,0,1.55,4.256,8,8,0,0,0,5.329,3.331,4.141,4.141,0,0,1,3.7,3.884,4.075,4.075,0,0,1-.835,2.661,8.419,8.419,0,0,0-1.856,5.2,8.021,8.021,0,0,0,1.776,4.725,4.115,4.115,0,0,1-2.12,6.486,12.754,12.754,0,0,0-3.089.962,8.168,8.168,0,0,0-4.275,5.958,4.284,4.284,0,0,1-4.361,3.718,5.255,5.255,0,0,1-2.628-1.074,7.875,7.875,0,0,0-9.347-.02,4.073,4.073,0,0,1-4.09.9,4.33,4.33,0,0,1-2.833-3.726,7.2,7.2,0,0,0-3.348-5.25,13.2,13.2,0,0,0-3.62-1.332,4.874,4.874,0,0,1-2.836-2.017,2.542,2.542,0,0,1-.5-1.814M225.513,15.69c.02-.286-.093-.389-.635-.6a13.493,13.493,0,0,1-7.9-7.9c-.31-.8-.548-.848-1.186-.484a13.15,13.15,0,0,1-5.565,1.459,11.69,11.69,0,0,1-5.458-1.208c-1.321-.561-1.307-.567-1.9.728a13.58,13.58,0,0,1-7.817,7.415c-.308.116-.742.194-.466.765a13.743,13.743,0,0,1,1.357,4.343,12.292,12.292,0,0,1-1.406,7.808c-.275.485-.22.614.235.78A12.784,12.784,0,0,1,203,36.932c.185.542.473.7,1.026.431a13.17,13.17,0,0,1,11.768-.109c.62.295.845.262,1.11-.421a13.487,13.487,0,0,1,7.862-7.925c.675-.27.832-.443.513-1.126a12.861,12.861,0,0,1,.079-11.816c.052-.1.111-.2.154-.275" transform="translate(-58.554 0)"/>
        <path id="Trazado_819344" data-name="Trazado 819344" d="M59.342,6.978a2.7,2.7,0,0,1-2.721,2.447A8.359,8.359,0,0,0,50.4,12.451a7.716,7.716,0,0,0-1.912,4.473,3.809,3.809,0,0,1-.712,2.452,2.806,2.806,0,0,1-2.719,1.054c-1.3-.238-1.707-1.331-2.043-2.42-.277-.9-.262-1.846-.5-2.766a7.608,7.608,0,0,0-5.95-5.479c-.772-.119-1.539-.255-2.312-.365a3.043,3.043,0,0,1-2.26-3.506c.232-1.28,1.945-2.193,3.393-1.886.956.2,1.943.268,2.894.492a12.877,12.877,0,0,1,6.9,4.3c.388.45.549.538,1.025-.011a13.133,13.133,0,0,1,8.826-4.692,4.454,4.454,0,0,1,2.719.153,2.633,2.633,0,0,1,1.594,2.732" transform="translate(-9.952 -1.23)"/>
        <path id="Trazado_819345" data-name="Trazado 819345" d="M14.943,27.744a10.943,10.943,0,0,1,6.851-3.807c1.417-.28,3.389.436,3.84,1.543A2.764,2.764,0,0,1,23.17,29.4c-2.822.3-4.632,1.762-5.318,4.106a14.394,14.394,0,0,0-.242,1.566,2.871,2.871,0,0,1-2.785,2.6A2.868,2.868,0,0,1,12.259,34.8a5.272,5.272,0,0,0-3.828-5.138A23.1,23.1,0,0,0,6.1,29.343,3.179,3.179,0,0,1,4,25.806c.28-1.288,2.091-2.142,3.546-1.85a8.69,8.69,0,0,0,2.51.341c.335-.031.447.337.693.418a9.974,9.974,0,0,1,4.19,3.028" transform="translate(-1.232 -7.439)"/>
        <path id="Trazado_819346" data-name="Trazado 819346" d="M30.531,188.082a64.8,64.8,0,0,1-7.138-8.32,79.639,79.639,0,0,1-12.068-24.126,64.767,64.767,0,0,1-2.105-9.006c-.482-2.97-.921-5.948-1.115-8.964a9.032,9.032,0,0,0-.1-2.551c-.08-.228-.019-.382.37-.463,3.493-.728,6.368.49,9.036,2.628a13.064,13.064,0,0,0,6.14,2.563,12.538,12.538,0,0,0,5.032-.147,14.963,14.963,0,0,0,5.528-2.416A13.43,13.43,0,0,1,38.1,134.8a10.889,10.889,0,0,1,5.98-.048c1.732.459,2.94,1.715,4.386,2.614a17.427,17.427,0,0,0,5.114,2.176,13.949,13.949,0,0,0,7.028-.215,16.327,16.327,0,0,0,6.017-3.167,8.763,8.763,0,0,1,4.953-1.811,9.238,9.238,0,0,1,6.635,2.126,15.019,15.019,0,0,0,10.815,3.393,15.858,15.858,0,0,0,8.512-3.617,8.71,8.71,0,0,1,4.847-1.907,9.439,9.439,0,0,1,7.169,2.22,13.949,13.949,0,0,0,6.475,3.092,14.54,14.54,0,0,0,11.9-2.908,10.122,10.122,0,0,1,7.152-2.394,9.968,9.968,0,0,1,4.909,1.772,24.189,24.189,0,0,0,4.316,2.617,14.564,14.564,0,0,0,4.043.945,16.678,16.678,0,0,0,8.667-1.674,3.684,3.684,0,0,1-.163,1.095c-.468,2.02-1.227,3.952-1.793,5.939a62.885,62.885,0,0,1-2.854,7.512c-.843,1.966-1.833,3.861-2.863,5.743s-2.072,3.739-3.263,5.51a89.627,89.627,0,0,1-6.458,8.737,74.682,74.682,0,0,1-6.875,7.171,1.494,1.494,0,0,1-1.174.421,26.994,26.994,0,0,0-2.236-5.766,3.085,3.085,0,0,0-4.955-.971c-2.524,1.981-5.127,3.861-7.67,5.817-1.081.831-.976.785-1.955-.119a23.437,23.437,0,0,0-10.061-5.6,15.75,15.75,0,0,0-7.792-.428,18.5,18.5,0,0,0-6.955,2.856,33.767,33.767,0,0,0-4.525,3.462c-.549.571-1.183,1.074-1.755,1.622-1.419,1.362-2.1,3.129-.256,4.8.381.346.73.73,1.1,1.094a29.239,29.239,0,0,0,4.538,3.868,23.693,23.693,0,0,0,4.349,2.3,20.31,20.31,0,0,0,4.588,1.294,16.124,16.124,0,0,0,6.418-.573,23.928,23.928,0,0,0,10.805-6.163c.294-.294.559-.372.892-.117q1.362,1.041,2.719,2.088a4.53,4.53,0,0,1-1.662,1.4c-3.22,1.806-6.619,3.251-9.991,4.736-4.473,1.97-9.241,2.991-13.962,4.158-2.281.564-4.65.493-6.929,1.055a34.817,34.817,0,0,1-6.471.475,62.476,62.476,0,0,1-9.345-.158,14.1,14.1,0,0,1-2.178-.077,30.818,30.818,0,0,0-3.158-.545,106.508,106.508,0,0,1-12.98-3A70.359,70.359,0,0,1,37.971,191.7c-2.142-1.2-4.291-2.392-6.378-3.691-.359-.223-.748-.547-1.062.07m51.811-26.594a16.622,16.622,0,0,0-.344-2.86,17.289,17.289,0,0,0-2.754-7.012c-1.073-1.615-3.5-1.242-4.553-.357a47.913,47.913,0,0,1-4.367,3.309,7.782,7.782,0,0,0-1.422,1.078,24.734,24.734,0,0,1-2.331,2.013c-.326.273-.535.11-.813-.1-.741-.563-1.36-1.258-2.094-1.835a31.145,31.145,0,0,0-9.583-5.484,19.1,19.1,0,0,0-5.962-1.017,15.255,15.255,0,0,0-6.451.981,9.849,9.849,0,0,1-1.848.672,11.023,11.023,0,0,0-3.507,1.781,18.69,18.69,0,0,0-3.424,2.427c-1.559,1.634-3.561,2.811-4.938,4.677a2.977,2.977,0,0,0-.581,2.6c.211.923.967,1.4,1.551,2.037a33.869,33.869,0,0,0,5.948,5.132,24.08,24.08,0,0,0,7.326,3.519,19.668,19.668,0,0,0,3.987.867,21.618,21.618,0,0,0,4.345-.149,22.045,22.045,0,0,0,5.305-1.527,32.068,32.068,0,0,0,9.816-6.636c.329-.318.563-.375.947-.089,1.431,1.061,2.779,2.226,4.246,3.246,1.579,1.1,3.046,2.35,4.633,3.449a2.612,2.612,0,0,0,3.742-.684,18.716,18.716,0,0,0,3.123-10.045" transform="translate(-2.485 -41.841)" fill="#86a9ff"/>
        <path id="Trazado_819347" data-name="Trazado 819347" d="M45.585,109c1.518-2.243,2.989-4.423,4.465-6.6,2.2-3.249,4.425-6.486,6.606-9.75a1.592,1.592,0,0,1,1.472-.8,11.06,11.06,0,0,0,10.881-8.747,10.63,10.63,0,0,0-.613-6.286A1.745,1.745,0,0,1,68.622,75c2.06-2.963,4.078-5.956,6.106-8.941.669-.984.673-1,1.46-.059,1.137,1.357,2.228,2.753,3.391,4.087,1.675,1.921,2.86,2.025,4.877.506,2.06-1.552,4.129-3.092,6.169-4.67a.957.957,0,0,1,1.361.014q3.142,2.4,6.317,4.759c1.892,1.4,3.138,1.25,4.673-.55,1.265-1.482,2.52-2.974,3.735-4.5.42-.526.649-.392.938.068,1.141,1.816,2.37,3.576,3.539,5.375.75,1.155,1.58,2.293,2.368,3.435q5.315,7.7,10.511,15.492c4.208,6.312,8.546,12.539,12.828,18.8.814,1.192.811,1.181-.407,2.069a9.441,9.441,0,0,1-10.057,1.051c-1.665-.755-2.975-2.107-4.53-3.055a10.377,10.377,0,0,0-2.44-.945,14.119,14.119,0,0,0-13.385,2.455,10.016,10.016,0,0,1-9.143,2.136,9.855,9.855,0,0,1-3.618-1.919,14.5,14.5,0,0,0-10.74-3.249,13.968,13.968,0,0,0-7.622,3.066,10.3,10.3,0,0,1-6.548,2.416,9.573,9.573,0,0,1-6.09-2.215,14.937,14.937,0,0,0-7.806-3.294,14.637,14.637,0,0,0-7.834,1.407c-.3.138-.564.412-1.09.263" transform="translate(-14.202 -20.347)" fill="#5abd44"/>
        <path id="Trazado_819348" data-name="Trazado 819348" d="M40.738,188.111c.315-.617.7-.293,1.062-.07,2.087,1.3,4.235,2.487,6.378,3.691a70.437,70.437,0,0,0,14.172,5.955,106.5,106.5,0,0,0,12.98,3,30.6,30.6,0,0,1,3.158.545,14.1,14.1,0,0,0,2.178.077,62.475,62.475,0,0,0,9.345.158,34.87,34.87,0,0,0,6.471-.475c2.279-.562,4.649-.492,6.929-1.055,4.721-1.166,9.489-2.188,13.962-4.158,3.373-1.485,6.771-2.93,9.992-4.736a4.534,4.534,0,0,0,1.661-1.4c.3.213.606.421.9.642,1.747,1.3,3.5,2.587,5.235,3.9a2.7,2.7,0,0,0,4.082-.894,17.819,17.819,0,0,0,2.712-11.18,7.333,7.333,0,0,1-.176-1.935,1.494,1.494,0,0,0,1.174-.421,74.768,74.768,0,0,0,6.876-7.171,89.734,89.734,0,0,0,6.458-8.737c1.192-1.771,2.236-3.632,3.263-5.51s2.021-3.777,2.863-5.744a63.082,63.082,0,0,0,2.854-7.512c.566-1.987,1.325-3.919,1.792-5.938a3.684,3.684,0,0,0,.164-1.095c1.116-.749,2.213-1.528,3.352-2.242a9.444,9.444,0,0,1,6.875-1.238c.5.088.455.446.429.786-.16,2.06-.262,4.129-.512,6.18a86.187,86.187,0,0,1-1.95,10.778,79.135,79.135,0,0,1-5.787,15.684,39.677,39.677,0,0,1-2.461,4.253c-.562.851-1,1.851-1.535,2.751a74.358,74.358,0,0,1-13.583,16.478,79,79,0,0,1-22.446,14.543,77.487,77.487,0,0,1-16.421,5.03,40.775,40.775,0,0,1-4.342.755c-2.178.167-4.336.508-6.526.6s-4.406.176-6.6.1a76.08,76.08,0,0,1-8.97-.786c-2.232-.347-4.445-.747-6.648-1.239-1.737-.388-3.449-.861-5.149-1.379-1.508-.461-3.011-.947-4.491-1.493a80.359,80.359,0,0,1-19.287-10.256,68.971,68.971,0,0,1-10.128-8.834,4.91,4.91,0,0,1-.308-.4" transform="translate(-12.692 -41.87)" fill="#7e8bef"/>
        <path id="Trazado_819349" data-name="Trazado 819349" d="M32.383,85.969c-4.96,0-9.918-.028-14.877.011a5.305,5.305,0,0,1-5.4-4.346,5.459,5.459,0,0,1,.5-3.976,5.847,5.847,0,0,1,2.886-2.378,2.841,2.841,0,0,0,1.938-2.175,5.06,5.06,0,0,0,.052-1.113,5.452,5.452,0,0,1,6.538-5.172A5.775,5.775,0,0,1,28,70.039a10.652,10.652,0,0,1,.678,2.817,2.54,2.54,0,0,0,2.731,2.1,2.878,2.878,0,0,0,2.494-3.528,11.542,11.542,0,0,0-2.063-5.445c-.218-.284-.036-.505.261-.679a8.362,8.362,0,0,1,5.357-1.239,8.541,8.541,0,0,1,5.425,2.609,7.515,7.515,0,0,1,1.985,4.371,5.032,5.032,0,0,0,.8,2.849,2.683,2.683,0,0,0,1.877,1.051A6.151,6.151,0,0,1,51.7,76.693a5.762,5.762,0,0,1-.4,8.016A5.387,5.387,0,0,1,47.6,85.98c-5.074-.026-10.148-.01-15.221-.01" transform="translate(-3.719 -19.945)" fill="#f8f9fb"/>
        <path id="Trazado_819350" data-name="Trazado 819350" d="M198.86,121a10.26,10.26,0,0,1-5.784-2.217,14.649,14.649,0,0,0-10.1-3.149,6.749,6.749,0,0,0-1.526.212,1.137,1.137,0,0,1-1.44-.57q-4.518-6.7-9.063-13.372-1.785-2.628-3.587-5.245c-.6-.873-.58-.947.246-1.559q1.795-1.33,3.564-2.693a.831.831,0,0,1,1.2-.012c2.085,1.61,4.2,3.176,6.314,4.754,2.047,1.53,3.316,1.356,4.911-.619,1.133-1.4,2.291-2.788,3.46-4.162.294-.346.6-.859,1.1-.116q5.594,8.3,11.224,16.573c2.074,3.058,4.138,6.122,6.243,9.159.372.537.3.786-.21,1.141A10.9,10.9,0,0,1,198.86,121" transform="translate(-52.014 -28.624)" fill="#5abd44"/>
        <path id="Trazado_819351" data-name="Trazado 819351" d="M106.251,34.156a3.139,3.139,0,0,1,2.715,1.672c1.9,2.792,3.785,5.6,5.68,8.391q1.98,2.92,3.972,5.83a.849.849,0,0,1-.06,1.158c-1.061,1.269-2.1,2.555-3.148,3.837-.291.358-.466.529-.976.123-2.158-1.718-4.374-3.365-6.595-5a2.747,2.747,0,0,0-3.555.189c-1.928,1.436-3.843,2.891-5.766,4.334-.96.719-.971.721-1.722-.143-1.011-1.161-2-2.339-3.015-3.5-.207-.236-.279-.335-.041-.673q4.975-7.106,9.687-14.391a3.157,3.157,0,0,1,2.823-1.827" transform="translate(-29.16 -10.64)" fill="#f8f9fb"/>
        <path id="Trazado_819352" data-name="Trazado 819352" d="M168.669,60.922a2.449,2.449,0,0,1,2.469,1.326q4.806,7.048,9.631,14.082a1.214,1.214,0,0,1-.053,1.792c-1,1.086-1.9,2.264-2.842,3.406a.718.718,0,0,1-1.159.13c-1.859-1.431-3.742-2.832-5.619-4.239-.319-.239-.645-.474-.985-.682-1.47-.9-2.761-.466-4,.525-1.587,1.274-3.215,2.495-4.785,3.789-.569.469-.9.414-1.292-.178-1.008-1.526-2.043-3.035-3.082-4.541-.155-.224-.287-.363-.068-.646,2.051-2.653,3.8-5.516,5.715-8.265,1.207-1.733,2.278-3.556,3.564-5.241a2.566,2.566,0,0,1,2.5-1.26" transform="translate(-48.844 -18.972)" fill="#f8f9fb"/>
        <path id="Trazado_819353" data-name="Trazado 819353" d="M228.424,18.627c-.043.076-.1.173-.154.275a12.863,12.863,0,0,0-.079,11.816c.319.683.162.856-.513,1.126a13.487,13.487,0,0,0-7.862,7.925c-.265.683-.49.716-1.11.421a13.175,13.175,0,0,0-11.768.109c-.553.273-.841.111-1.026-.43a12.784,12.784,0,0,0-8.229-8.133c-.455-.167-.511-.3-.235-.78a12.292,12.292,0,0,0,1.406-7.808A13.738,13.738,0,0,0,197.5,18.8c-.276-.571.158-.649.466-.765a13.579,13.579,0,0,0,7.817-7.416c.591-1.295.576-1.289,1.9-.728a11.682,11.682,0,0,0,5.458,1.208A13.158,13.158,0,0,0,218.7,9.644c.638-.364.876-.311,1.186.484a13.489,13.489,0,0,0,7.9,7.894c.542.216.655.319.635.605m-15.8,17.3a10.873,10.873,0,0,0,11.23-10.967c0-6.225-4.5-10.836-10.912-11.016A10.916,10.916,0,0,0,201.89,24.7a11.069,11.069,0,0,0,10.732,11.222" transform="translate(-61.465 -2.937)" fill="#fcc638"/>
        <path id="Trazado_819354" data-name="Trazado 819354" d="M91.079,168.244a18.711,18.711,0,0,1-3.124,10.045,2.611,2.611,0,0,1-3.742.684c-1.587-1.1-3.054-2.351-4.633-3.449-1.467-1.02-2.815-2.184-4.246-3.246-.385-.286-.618-.229-.947.09A32.077,32.077,0,0,1,64.572,179a22.011,22.011,0,0,1-5.306,1.527,21.668,21.668,0,0,1-4.344.149,19.666,19.666,0,0,1-3.987-.868,24.1,24.1,0,0,1-7.326-3.519,33.951,33.951,0,0,1-5.948-5.133c-.584-.637-1.339-1.115-1.55-2.037a2.972,2.972,0,0,1,.581-2.6c1.376-1.866,3.378-3.044,4.938-4.677a18.629,18.629,0,0,1,3.424-2.426,10.993,10.993,0,0,1,3.506-1.781,9.883,9.883,0,0,0,1.848-.673,15.265,15.265,0,0,1,6.451-.981A19.1,19.1,0,0,1,62.82,157,31.134,31.134,0,0,1,72.4,162.48c.734.577,1.353,1.272,2.094,1.835.277.211.487.374.813.1a25.024,25.024,0,0,0,2.331-2.013,7.76,7.76,0,0,1,1.422-1.079,47.676,47.676,0,0,0,4.366-3.309c1.057-.885,3.48-1.258,4.553.357a17.283,17.283,0,0,1,2.754,7.012,16.558,16.558,0,0,1,.344,2.86m-34.7,6.97a14.977,14.977,0,0,0,4.342-.664,22.9,22.9,0,0,0,8.686-4.982c1.462-1.238,1.483-1.269,0-2.509a23.2,23.2,0,0,0-9.022-5.088,14.235,14.235,0,0,0-7.872.063,26.375,26.375,0,0,0-9.66,5.909c-.367.326-.329.462.019.768a34.77,34.77,0,0,0,4.281,3.306,17.9,17.9,0,0,0,9.229,3.2M85.6,168.282a19.965,19.965,0,0,0-.546-3.622c-.114-.473-.317-.655-.77-.31-1.572,1.2-3.143,2.4-4.733,3.567-.434.319-.406.484.016.8,1.564,1.16,3.106,2.35,4.641,3.548.452.352.724.272.845-.262a22.122,22.122,0,0,0,.546-3.718" transform="translate(-11.223 -48.597)"/>
        <path id="Trazado_819355" data-name="Trazado 819355" d="M165.208,197.456a7.312,7.312,0,0,0,.176,1.935,17.817,17.817,0,0,1-2.712,11.18,2.694,2.694,0,0,1-4.082.894c-1.736-1.311-3.488-2.6-5.235-3.9-.3-.22-.6-.428-.9-.642q-1.359-1.044-2.719-2.088c-.333-.255-.6-.177-.892.117a23.932,23.932,0,0,1-10.805,6.163,16.126,16.126,0,0,1-6.419.573,20.293,20.293,0,0,1-4.587-1.293,23.7,23.7,0,0,1-4.349-2.3,29.239,29.239,0,0,1-4.538-3.868c-.366-.364-.714-.748-1.1-1.095-1.844-1.675-1.163-3.442.256-4.8.571-.549,1.205-1.051,1.755-1.623a33.725,33.725,0,0,1,4.525-3.462,18.5,18.5,0,0,1,6.954-2.856,15.76,15.76,0,0,1,7.793.428,23.437,23.437,0,0,1,10.061,5.6c.98.9.874.951,1.955.119,2.543-1.957,5.146-3.837,7.67-5.817a3.085,3.085,0,0,1,4.955.971,27.044,27.044,0,0,1,2.236,5.766m-31.6,8.8a13.242,13.242,0,0,0,1.525-.166,17.756,17.756,0,0,0,9.587-4.679c.425-.384.419-.666,0-1.045A17.978,17.978,0,0,0,138,196.358a12.023,12.023,0,0,0-4.562-.777A17.783,17.783,0,0,0,123.2,200.2c-.607.529-.625.88.006,1.4a23.444,23.444,0,0,0,4.418,2.9,16.225,16.225,0,0,0,5.99,1.76m26.445-5.419a20.245,20.245,0,0,0-.545-3.592c-.114-.465-.308-.664-.765-.318-1.592,1.209-3.183,2.419-4.789,3.609-.425.315-.3.477.051.741q2.371,1.765,4.707,3.576c.441.342.651.2.786-.265a19.935,19.935,0,0,0,.556-3.751" transform="translate(-36.118 -59.155)"/>
        <path id="Trazado_819356" data-name="Trazado 819356" d="M214.708,37.965a11.07,11.07,0,0,1-10.732-11.222,10.917,10.917,0,0,1,11.049-10.761c6.416.18,10.909,4.791,10.912,11.016a10.872,10.872,0,0,1-11.23,10.967m5.622-11a5.241,5.241,0,0,0-5.477-5.5,5.317,5.317,0,0,0-5.375,5.335,5.352,5.352,0,0,0,5.389,5.641,5.2,5.2,0,0,0,5.463-5.479" transform="translate(-63.55 -4.978)"/>
        <path id="Trazado_819357" data-name="Trazado 819357" d="M59.356,177.689a17.906,17.906,0,0,1-9.229-3.2,34.807,34.807,0,0,1-4.281-3.305c-.348-.306-.386-.442-.019-.768a26.389,26.389,0,0,1,9.66-5.91,14.244,14.244,0,0,1,7.872-.063,23.2,23.2,0,0,1,9.022,5.088c1.485,1.241,1.464,1.272,0,2.509a22.9,22.9,0,0,1-8.686,4.982,14.938,14.938,0,0,1-4.342.664" transform="translate(-14.197 -51.072)" fill="#e1ebff"/>
        <path id="Trazado_819358" data-name="Trazado 819358" d="M105.158,171.99a22.123,22.123,0,0,1-.546,3.718c-.121.534-.393.614-.845.262-1.535-1.2-3.077-2.388-4.641-3.548-.422-.313-.45-.477-.016-.8,1.59-1.172,3.161-2.371,4.733-3.567.452-.345.655-.163.77.31a19.967,19.967,0,0,1,.546,3.622" transform="translate(-30.781 -52.304)" fill="#e1ebff"/>
        <path id="Trazado_819359" data-name="Trazado 819359" d="M136.693,208.835a16.218,16.218,0,0,1-5.992-1.76,23.506,23.506,0,0,1-4.417-2.9c-.632-.523-.613-.873-.006-1.4a17.786,17.786,0,0,1,10.243-4.619,12.03,12.03,0,0,1,4.562.777,17.981,17.981,0,0,1,6.72,4.013c.421.378.427.66,0,1.045a17.755,17.755,0,0,1-9.587,4.678,13.089,13.089,0,0,1-1.524.166" transform="translate(-39.199 -61.729)" fill="#e1ebff"/>
        <path id="Trazado_819360" data-name="Trazado 819360" d="M177.144,203.959a19.933,19.933,0,0,1-.556,3.751c-.136.461-.345.607-.786.265q-2.337-1.81-4.707-3.576c-.354-.264-.476-.426-.051-.741,1.606-1.19,3.2-2.4,4.789-3.609.456-.346.651-.147.765.318a20.244,20.244,0,0,1,.545,3.592" transform="translate(-53.206 -62.272)" fill="#e1ebff"/>
        <path id="Trazado_819361" data-name="Trazado 819361" d="M222.82,29.452a5.2,5.2,0,0,1-5.463,5.479,5.352,5.352,0,0,1-5.389-5.641,5.317,5.317,0,0,1,5.375-5.335,5.241,5.241,0,0,1,5.477,5.5" transform="translate(-66.04 -7.463)" fill="#fcc638"/>
      </g>
    </g>
  </g>
</svg>
