<svg xmlns="http://www.w3.org/2000/svg" xmlns:xlink="http://www.w3.org/1999/xlink" width="190" height="203" viewBox="0 0 190 203">
  <defs>
    <linearGradient id="linear-gradient" x1="0.5" x2="0.5" y2="1" gradientUnits="objectBoundingBox">
      <stop offset="0" stop-color="#defff8"/>
      <stop offset="0.803" stop-color="#eaf5ff"/>
      <stop offset="1" stop-color="#f0feff"/>
    </linearGradient>
    <clipPath id="clip-path">
      <rect id="Rectángulo_377398" data-name="Rectángulo 377398" width="136" height="136" transform="translate(319 1885.867)" fill="none" stroke="#707070" stroke-width="1"/>
    </clipPath>
    <clipPath id="clip-path-2">
      <rect id="Rectángulo_377402" data-name="Rectángulo 377402" width="116.012" height="116" fill="none"/>
    </clipPath>
  </defs>
  <g id="Grupo_1073530" data-name="Grupo 1073530" transform="translate(-1125 -3950)">
    <rect id="Rectángulo_377388" data-name="Rectángulo 377388" width="190" height="203" rx="20" transform="translate(1125 3950)" fill="url(#linear-gradient)"/>
    <path id="Trazado_822143" data-name="Trazado 822143" d="M-44.441-2.984A1.2,1.2,0,0,0-44.91-4a6.148,6.148,0,0,0-1.687-.75,11.962,11.962,0,0,1-1.93-.777,3.153,3.153,0,0,1-1.937-2.82A2.747,2.747,0,0,1-49.945-10a3.389,3.389,0,0,1,1.492-1.129,5.616,5.616,0,0,1,2.184-.406,5.112,5.112,0,0,1,2.172.441,3.458,3.458,0,0,1,1.48,1.246,3.261,3.261,0,0,1,.527,1.828h-2.344a1.534,1.534,0,0,0-.492-1.215,2.023,2.023,0,0,0-1.383-.434,2.162,2.162,0,0,0-1.336.363,1.146,1.146,0,0,0-.477.957,1.1,1.1,0,0,0,.559.93,6.311,6.311,0,0,0,1.645.7A7.106,7.106,0,0,1-43-5.219,2.972,2.972,0,0,1-42.09-3,2.737,2.737,0,0,1-43.207-.684a4.891,4.891,0,0,1-3.008.84,5.808,5.808,0,0,1-2.391-.48A3.783,3.783,0,0,1-50.25-1.641a3.371,3.371,0,0,1-.566-1.937h2.352q0,1.883,2.25,1.883a2.189,2.189,0,0,0,1.3-.34A1.106,1.106,0,0,0-44.441-2.984ZM-41-4.3a5.013,5.013,0,0,1,.484-2.242A3.546,3.546,0,0,1-39.125-8.07a4.069,4.069,0,0,1,2.113-.539,3.849,3.849,0,0,1,2.793,1.047,4.2,4.2,0,0,1,1.207,2.844l.016.578A4.418,4.418,0,0,1-34.082-1.02,3.775,3.775,0,0,1-37,.156a3.793,3.793,0,0,1-2.918-1.172A4.5,4.5,0,0,1-41-4.2Zm2.258.16A3.16,3.16,0,0,0-38.293-2.3a1.5,1.5,0,0,0,1.3.638,1.5,1.5,0,0,0,1.281-.63,3.457,3.457,0,0,0,.461-2.015,3.128,3.128,0,0,0-.461-1.831,1.5,1.5,0,0,0-1.3-.649,1.474,1.474,0,0,0-1.281.646A3.516,3.516,0,0,0-38.746-4.144Zm11.719,1.808a.727.727,0,0,0-.41-.652,4.659,4.659,0,0,0-1.316-.426q-3.016-.633-3.016-2.562a2.323,2.323,0,0,1,.934-1.879,3.766,3.766,0,0,1,2.441-.754,4.053,4.053,0,0,1,2.574.758,2.388,2.388,0,0,1,.965,1.969h-2.258a1.092,1.092,0,0,0-.312-.8A1.322,1.322,0,0,0-28.4-7a1.351,1.351,0,0,0-.883.258.814.814,0,0,0-.312.656.7.7,0,0,0,.355.605,3.657,3.657,0,0,0,1.2.4,9.8,9.8,0,0,1,1.422.379A2.336,2.336,0,0,1-24.832-2.43a2.2,2.2,0,0,1-.992,1.871,4.28,4.28,0,0,1-2.562.715,4.47,4.47,0,0,1-1.887-.379,3.166,3.166,0,0,1-1.293-1.039,2.414,2.414,0,0,1-.469-1.426h2.141a1.179,1.179,0,0,0,.445.922,1.766,1.766,0,0,0,1.109.32,1.635,1.635,0,0,0,.98-.246A.766.766,0,0,0-27.027-2.336Zm6.352-8.2v2.078h1.445V-6.8h-1.445v4.219a1.007,1.007,0,0,0,.18.672.9.9,0,0,0,.688.2,3.6,3.6,0,0,0,.664-.055V-.047a4.648,4.648,0,0,1-1.367.2,2.156,2.156,0,0,1-2.422-2.4V-6.8h-1.234V-8.453h1.234v-2.078ZM-14.082.156A4.15,4.15,0,0,1-17.109-.984a4.054,4.054,0,0,1-1.168-3.039v-.219a5.106,5.106,0,0,1,.492-2.277,3.612,3.612,0,0,1,1.395-1.547,3.914,3.914,0,0,1,2.059-.543A3.508,3.508,0,0,1-11.6-7.516a4.444,4.444,0,0,1,1,3.1v.922h-5.383a2.1,2.1,0,0,0,.66,1.328,2,2,0,0,0,1.395.5,2.437,2.437,0,0,0,2.039-.945l1.109,1.242A3.389,3.389,0,0,1-12.16-.246,4.511,4.511,0,0,1-14.082.156Zm-.258-6.945a1.411,1.411,0,0,0-1.09.455,2.357,2.357,0,0,0-.535,1.3h3.141v-.181a1.681,1.681,0,0,0-.406-1.165A1.456,1.456,0,0,0-14.34-6.789Zm7.094-1.664.07.977a2.951,2.951,0,0,1,2.43-1.133,2.453,2.453,0,0,1,2,.789,3.682,3.682,0,0,1,.672,2.359V0H-4.332V-5.406a1.465,1.465,0,0,0-.312-1.043,1.4,1.4,0,0,0-1.039-.324,1.553,1.553,0,0,0-1.43.813V0H-9.371V-8.453ZM2.02,0H-.246V-8.453H2.02Zm-2.4-10.641a1.112,1.112,0,0,1,.34-.836A1.277,1.277,0,0,1,.887-11.8a1.28,1.28,0,0,1,.922.328,1.105,1.105,0,0,1,.344.836A1.108,1.108,0,0,1,1.8-9.8a1.283,1.283,0,0,1-.918.328A1.283,1.283,0,0,1-.031-9.8,1.108,1.108,0,0,1-.379-10.641ZM11.5-4.148A5.119,5.119,0,0,1,10.629-.98,2.872,2.872,0,0,1,8.207.156,2.639,2.639,0,0,1,6.012-.9l-.1.9H3.879V-12H6.137v4.3a2.571,2.571,0,0,1,2.055-.914,2.9,2.9,0,0,1,2.426,1.137,5.126,5.126,0,0,1,.879,3.2ZM9.238-4.312a3.363,3.363,0,0,0-.406-1.871,1.374,1.374,0,0,0-1.211-.59,1.489,1.489,0,0,0-1.484.883v3.336a1.509,1.509,0,0,0,1.5.891A1.394,1.394,0,0,0,9.074-2.742,5.562,5.562,0,0,0,9.238-4.312ZM15.27,0H13V-8.453H15.27Zm-2.4-10.641a1.112,1.112,0,0,1,.34-.836,1.277,1.277,0,0,1,.926-.328,1.28,1.28,0,0,1,.922.328,1.105,1.105,0,0,1,.344.836,1.108,1.108,0,0,1-.348.844,1.283,1.283,0,0,1-.918.328,1.283,1.283,0,0,1-.918-.328A1.108,1.108,0,0,1,12.871-10.641ZM19.512,0H17.246V-12h2.266Zm4.242,0H21.488V-8.453h2.266Zm-2.4-10.641a1.112,1.112,0,0,1,.34-.836,1.277,1.277,0,0,1,.926-.328,1.28,1.28,0,0,1,.922.328,1.105,1.105,0,0,1,.344.836,1.108,1.108,0,0,1-.348.844,1.283,1.283,0,0,1-.918.328A1.283,1.283,0,0,1,21.7-9.8,1.108,1.108,0,0,1,21.355-10.641Zm3.906,6.352a5.094,5.094,0,0,1,.887-3.148,2.877,2.877,0,0,1,2.426-1.172,2.589,2.589,0,0,1,2.039.922V-12h2.266V0H30.84L30.73-.9A2.657,2.657,0,0,1,28.559.156,2.869,2.869,0,0,1,26.164-1.02,5.258,5.258,0,0,1,25.262-4.289Zm2.258.168A3.337,3.337,0,0,0,27.934-2.3a1.349,1.349,0,0,0,1.2.634,1.511,1.511,0,0,0,1.477-.884V-5.889a1.489,1.489,0,0,0-1.461-.884Q27.52-6.773,27.52-4.121ZM39.527,0A2.507,2.507,0,0,1,39.3-.758a2.732,2.732,0,0,1-2.133.914,3,3,0,0,1-2.059-.719,2.312,2.312,0,0,1-.816-1.812,2.389,2.389,0,0,1,1-2.062,4.915,4.915,0,0,1,2.879-.727h1.039v-.484a1.393,1.393,0,0,0-.3-.937,1.183,1.183,0,0,0-.949-.352,1.345,1.345,0,0,0-.895.273.929.929,0,0,0-.324.75H34.48a2.268,2.268,0,0,1,.453-1.359,3,3,0,0,1,1.281-.98,4.669,4.669,0,0,1,1.859-.355,3.689,3.689,0,0,1,2.48.785,2.747,2.747,0,0,1,.918,2.207v3.664a4.041,4.041,0,0,0,.336,1.82V0ZM37.66-1.57a1.945,1.945,0,0,0,.922-.223,1.462,1.462,0,0,0,.625-.6V-3.844h-.844q-1.7,0-1.8,1.172l-.008.133a.9.9,0,0,0,.3.7A1.153,1.153,0,0,0,37.66-1.57Zm5.2-2.719a5.094,5.094,0,0,1,.887-3.148,2.877,2.877,0,0,1,2.426-1.172,2.589,2.589,0,0,1,2.039.922V-12h2.266V0H48.434l-.109-.9A2.657,2.657,0,0,1,46.152.156,2.869,2.869,0,0,1,43.758-1.02,5.258,5.258,0,0,1,42.855-4.289Zm2.258.168A3.337,3.337,0,0,0,45.527-2.3a1.349,1.349,0,0,0,1.2.634,1.511,1.511,0,0,0,1.477-.884V-5.889a1.489,1.489,0,0,0-1.461-.884Q45.113-6.773,45.113-4.121Z" transform="translate(1220 4120.133)"/>
    <g id="Enmascarar_grupo_323" data-name="Enmascarar grupo 323" transform="translate(833 2072.133)" clip-path="url(#clip-path)">
      <g id="Grupo_1073027" data-name="Grupo 1073027" transform="translate(328.024 1895.867)">
        <g id="Grupo_1073026" data-name="Grupo 1073026" clip-path="url(#clip-path-2)">
          <path id="Trazado_819607" data-name="Trazado 819607" d="M.119,198.461c-.007-.935.047-1.875-.039-2.8-.076-.823.271-.929.982-.925,4.906.028,9.813-.02,14.719.043,1.018.013,1.17-.3,1.167-1.223-.033-11.685-.007-23.371-.048-35.056,0-1,.264-1.205,1.212-1.179,2.553.069,2.554.021,2.554-2.565,0-8.764.016-17.528-.024-26.292,0-.893.233-1.066,1.086-1.064q19.509.044,39.019,0c.869,0,1.132.193,1.081,1.075s-.415,2.044.179,2.551c.5.428,1.631.139,2.482.132a20.2,20.2,0,0,1,6.627.623c4.762,1.594,7.908,4.76,8.932,9.821.092.453.166,1.108.981.409a12.786,12.786,0,0,1,7.324-3.179c3.376-.316,6.742-.061,10.11-.188.392-.015.693-.062.753.552.561,5.749-3.743,12.262-9.226,13.885-2.406.712-4.88.512-7.336.523-2.156.01-2.156,0-2.156,2.172v5.369a13.993,13.993,0,0,1,6.295-3.43,10.512,10.512,0,0,1,2.477-.351c3.037-.041,6.075,0,9.112-.034.666-.008.838.183.828.839-.1,6.006-2.606,10.534-8.12,13.152a10.1,10.1,0,0,1-4.268.984c-1.869.01-3.738.021-5.607-.009-.542-.009-.731.12-.729.7q.03,10.517-.007,21.034c0,.822.423.725.938.724q8.645-.008,17.29,0c5.413,0,10.826.017,16.238-.019.817-.005,1.207.109,1.1,1.047a25.726,25.726,0,0,0-.041,2.684c-.311.01-.622.027-.933.027q-57.01,0-114.019,0c-.311,0-.622-.018-.933-.027m57.943-35.509c0-10.244-.012-20.487.021-30.731,0-.865-.193-1.088-1.075-1.085q-15.77.052-31.54,0c-.864,0-1.09.191-1.085,1.075q.058,12.035,0,24.07c0,.869.2,1.087,1.077,1.083,7.943-.038,15.887,0,23.83-.049,1.061-.007,1.321.259,1.317,1.318-.041,11.685-.015,23.369-.047,35.054,0,.87.2,1.122,1.079,1.083,1.749-.077,3.507-.089,5.254,0,.993.052,1.2-.252,1.191-1.209-.038-10.2-.024-20.409-.024-30.614m-37.4,14.908c0,5.3.02,10.6-.021,15.894-.006.823.2,1.019,1.019,1.016q12.092-.05,24.185,0c.823,0,1.017-.2,1.014-1.019q-.045-15.835,0-31.67c0-.822-.2-1.019-1.018-1.016q-12.092.05-24.185,0c-.823,0-1.021.2-1.015,1.02.04,5.259.02,10.518.02,15.777M61.8,161.026v5.324q0,13.67.008,27.34c0,.466-.29,1.087.689,1.077,4.516-.042,9.033-.027,13.549-.007.546,0,.726-.128.725-.7q-.027-14.254,0-28.508c0-.684-.272-.742-.816-.733-1.44.026-2.885-.062-4.321.023a12.959,12.959,0,0,1-9.839-3.812m0-18.731c0,2.31.041,4.373-.019,6.434-.025.866.145,1.2,1.108,1.159a30.1,30.1,0,0,1,6.7.259,12.67,12.67,0,0,1,6.6,3.222c.1.1.26.213.377.2.269-.034.19-.287.191-.462.006-1.323.012-2.646,0-3.969-.008-.966.33-2.265-.16-2.809-.575-.639-1.9-.155-2.894-.2A32.749,32.749,0,0,1,68.827,146a13.581,13.581,0,0,1-7.026-3.71m33.32.069c-2.287.157-4.561-.122-6.849.225-3.827.581-6.056,2.9-7.414,6.321-.276.694-.161.983.652.96,1.516-.043,3.033-.023,4.549-.01,4.141.035,8.422-3.13,9.063-7.5m-18.675.014a8.7,8.7,0,0,0-6.185-6.947c-2.525-.811-5.2-.521-7.814-.523-.6,0-.434.454-.373.747.643,3.058,4.7,6.584,7.81,6.706,2.173.085,4.353.016,6.562.016M95.1,161.068c-2.168.14-4.326.067-6.494.185-3.621.2-6.814,3.379-7.808,6.478-.175.545-.089.861.618.843,1.632-.041,3.267.01,4.9-.021,4.028-.077,8.216-3.194,8.784-7.485m-18.7.012a8.55,8.55,0,0,0-5.9-6.855c-2.623-.868-5.338-.567-8.025-.619-.6-.012-.464.428-.405.73.6,3.063,4.791,6.655,7.913,6.734,2.136.054,4.275.01,6.419.01" transform="translate(-0.052 -93.735)"/>
          <path id="Trazado_819608" data-name="Trazado 819608" d="M.257,396.356c.311.01.622.027.933.027q57.01,0,114.019,0c.311,0,.622-.018.933-.027q0,3.769,0,7.537c-.311-.009-.622-.027-.933-.027q-57.01,0-114.019,0c-.311,0-.622.017-.933.027q0-3.769,0-7.537" transform="translate(-0.189 -291.631)" fill="#aab2bd"/>
          <path id="Trazado_819609" data-name="Trazado 819609" d="M203.292,22.808a39.452,39.452,0,0,0-7.683-5.468,43.95,43.95,0,0,0-11.135-4.49,64.038,64.038,0,0,0-6.459-1.174,39.63,39.63,0,0,0-5.966-.367,44.54,44.54,0,0,0-9.07,1.006,19.472,19.472,0,0,1-6.443.815c-.528-.057-.731-.133-.726-.712.029-3.039.039-6.078,0-9.116a1.32,1.32,0,0,1,1.359-1.374c2.642-.279,5.168-1.16,7.8-1.432a22.826,22.826,0,0,1,2.744-.18c1.953.041,3.882-.659,5.856-.1a9.157,9.157,0,0,0,2.211.034,52.473,52.473,0,0,1,13,2.117,56.811,56.811,0,0,1,17.146,8.214c1.654,1.15,3.2,2.462,4.739,3.764.461.389.684.452,1.1-.015.674-.753,1.419-1.443,2.14-2.153.5-.492.795-.984,1.1.269,1.531,6.355,3.2,12.678,4.805,19.015.181.713.024,1.051-.848.831-3.974-1.005-7.962-1.958-11.943-2.937-2.349-.578-4.691-1.183-7.045-1.74-.346-.082-.727-.192-.845-.444-.148-.316.289-.5.493-.7,1.2-1.221,2.425-2.423,3.672-3.663m9.478-4.01c-.285.164-.587.241-.731.436-.63.846-1.084.58-1.7-.075a30.158,30.158,0,0,0-3.053-2.843,54.925,54.925,0,0,0-13.3-8.12,52.974,52.974,0,0,0-23.539-4.243c-2.566.145-5.1.456-7.647.747-3.279.376-3.408.559-3.235,3.779a.822.822,0,0,1,0,.117c-.041.458.1.586.6.5,1.233-.217,2.46-.493,3.679-.743a55.625,55.625,0,0,1,9.029-.8c1.082-.043,2.219.136,3.334.182a26.527,26.527,0,0,1,3.33.248,54.691,54.691,0,0,1,11.5,3.023,49.283,49.283,0,0,1,15.514,9.707c.674.635,1.95,1.094,1.946,1.851-.005.808-1.08,1.511-1.8,2.149-.532.47-.129.655.223.743,2.574.64,5.157,1.248,7.965,1.92L212.769,18.8" transform="translate(-114.641 0)"/>
          <path id="Trazado_819610" data-name="Trazado 819610" d="M11.451,45.79c5.519-1.373,10.873-2.7,16.224-4.04,1.311-.328,2.605-.725,3.921-1.033.6-.14.856-.084.636.772-1.645,6.407-3.191,12.838-4.777,19.26a5.073,5.073,0,0,1-.359.781c-1.306-1.322-2.576-2.577-3.805-3.873-.389-.41-.641-.453-1,.007a64.5,64.5,0,0,0-4.7,6.845A48.812,48.812,0,0,0,12.37,77.652a47.881,47.881,0,0,0-.98,14.236,42.024,42.024,0,0,0,1.476,8.26c.319,1.215.23,2.521.484,3.775.067.333-.113.867-.863.851-3.075-.068-6.153-.062-9.229,0-.695.014-.86-.379-.98-.82C1.663,101.7,1.256,99.395.791,97.1A54.42,54.42,0,0,1,.142,85.122,52.355,52.355,0,0,1,2.5,71.148,60.04,60.04,0,0,1,9.047,56.8a40.456,40.456,0,0,1,4.667-6.217c1.189-1.289,1.2-1.287-.067-2.558-.723-.726-1.437-1.461-2.2-2.235M18.9,47.8c1.08,1.409,1.071,1.4-.209,2.72-.425.438-.773.95-1.19,1.4A51.794,51.794,0,0,0,5.712,73.624,46.978,46.978,0,0,0,3.894,84.954a61.207,61.207,0,0,0,.169,8.365c.281,2.423.715,4.8,1.2,7.18.1.513.295.509.656.508C7,101,8.09,101,9.253,101a43.457,43.457,0,0,1-1.616-9.366,50.7,50.7,0,0,1,1.4-16.023,49.8,49.8,0,0,1,5.122-12.778,51.592,51.592,0,0,1,7.761-10.192c.632-.63,1.1-.672,1.736-.017.485.5.857,1.181,1.623,1.383.591-2.484,1.086-4.93,1.781-7.317.305-1.049-.045-.937-.752-.757-2.463.626-4.928,1.24-7.4,1.861" transform="translate(-0.07 -29.916)"/>
          <path id="Trazado_819611" data-name="Trazado 819611" d="M337.3,193.5c-6.744,1.7-13.274,3.34-19.8,4.995-1.405.356-1.422.374-1.08-1.006q2.322-9.393,4.672-18.78c.157-.629.395-.973,1.025-.286.973,1.061,2.052,2.024,3.038,3.074.437.465.726.566,1.167.018a44.885,44.885,0,0,0,5.768-8.722,41.524,41.524,0,0,0,2.479-5.654,44.618,44.618,0,0,0,2.138-7.9,27.931,27.931,0,0,0,.5-5.257c-.107-1.44.086-2.877.058-4.327a50.244,50.244,0,0,0-1.52-10.681,10.7,10.7,0,0,1-.447-3.814c.075-.6.266-.668.767-.665,3.077.017,6.154.03,9.231-.009a.894.894,0,0,1,1.033.778,48.492,48.492,0,0,1,1.352,6.031c.267,2.59.906,5.147.752,7.785-.084,1.438.1,2.874.04,4.331A62.254,62.254,0,0,1,346.69,165.8a56.324,56.324,0,0,1-8.59,18.807c-1.152,1.661-2.465,3.216-3.774,4.761-.463.547-.481.864.041,1.335.974.88,1.9,1.81,2.935,2.8m-8.777-3.519c1.891-1.41,3.074-3.411,4.616-5.093a33.475,33.475,0,0,0,3.6-5.131,51.038,51.038,0,0,0,6.144-14.028,54.431,54.431,0,0,0,1.84-15.927,74.991,74.991,0,0,0-.737-8.354c-.507-3.33-.5-3.341-3.747-3.2a1.351,1.351,0,0,1-.234,0c-.46-.06-.485.211-.462.564a13.966,13.966,0,0,0,.462,2.909,23.286,23.286,0,0,1,.888,5.442c.1,2.089.186,4.2.11,6.316a50.049,50.049,0,0,1-1.317,9.849,49.321,49.321,0,0,1-4.481,11.71,59.2,59.2,0,0,1-8.447,11.66c-.662.738-1.057.621-1.592-.045-.315-.392-.709-.721-1.062-1.083-.47-.482-.758-.429-.926.258q-.877,3.586-1.792,7.162c-.167.652-.076.664.583.483,2.038-.56,4.119-.967,6.174-1.468,1.887-.459,1.882-.48.383-2.022" transform="translate(-232.682 -98.954)"/>
          <path id="Trazado_819612" data-name="Trazado 819612" d="M.068,424.807c.311-.009.622-.027.933-.027q57.009,0,114.019,0c.311,0,.622.017.933.027.007.973-.032,1.95.036,2.919.05.707-.24.886-.861.8a3.317,3.317,0,0,0-.467,0q-56.651,0-113.3.021c-1,0-1.484-.158-1.332-1.284a19.808,19.808,0,0,0,.041-2.45" transform="translate(0 -312.544)"/>
          <path id="Trazado_819613" data-name="Trazado 819613" d="M125.767,173.366c0,10.2-.015,20.409.024,30.614,0,.957-.2,1.261-1.191,1.209-1.747-.092-3.505-.08-5.254,0-.882.039-1.081-.213-1.079-1.082.032-11.685.006-23.369.047-35.054,0-1.059-.257-1.325-1.317-1.318-7.943.049-15.887.011-23.83.049-.878,0-1.081-.214-1.077-1.083q.055-12.035,0-24.07c0-.883.222-1.077,1.085-1.075q15.77.049,31.54,0c.881,0,1.078.22,1.075,1.085-.033,10.244-.021,20.487-.021,30.731M114.548,147.24c0-1.926,0-1.926-1.93-1.926-1.81,0-1.81,0-1.81,1.814,0,1.926,0,1.926,1.93,1.926,1.809,0,1.809,0,1.809-1.814M99.59,162.178c0-1.9,0-1.9-1.954-1.9-1.785,0-1.785,0-1.785,1.838,0,1.9,0,1.9,1.954,1.9,1.785,0,1.785,0,1.785-1.839m7.479-14.984c0-1.88,0-1.88-1.86-1.88-1.879,0-1.879,0-1.879,1.861,0,1.88,0,1.88,1.86,1.88,1.879,0,1.879,0,1.879-1.861m5.541,16.823c1.938,0,1.938,0,1.938-1.918,0-1.823,0-1.823-1.8-1.823-1.939,0-1.939,0-1.939,1.918,0,1.823,0,1.823,1.8,1.823m7.479,0c1.938,0,1.938,0,1.938-1.918,0-1.823,0-1.823-1.8-1.823-1.939,0-1.939,0-1.939,1.918,0,1.823,0,1.823,1.8,1.823m-1.8-9.444c0,1.963,0,1.963,1.893,1.963,1.846,0,1.846,0,1.846-1.894,0-1.847,0-1.847-1.893-1.847-1.846,0-1.846,0-1.846,1.777m-20.468-9.259c-1.969,0-1.969,0-1.969,2,0,1.737,0,1.737,1.771,1.737,1.969,0,1.969,0,1.969-2,0-1.737,0-1.737-1.77-1.737m16.729,9.42c0-1.939,0-1.939-1.918-1.939-1.822,0-1.822,0-1.822,1.8,0,1.939,0,1.939,1.918,1.939,1.822,0,1.822,0,1.822-1.8m-7.479-.065c0-1.874,0-1.874-1.866-1.874s-1.873,0-1.873,1.866,0,1.874,1.866,1.874,1.873,0,1.873-1.867m-7.479.081c0-1.955,0-1.955-1.9-1.955-1.838,0-1.838,0-1.838,1.786,0,1.955,0,1.955,1.9,1.955,1.838,0,1.838,0,1.838-1.786m20.661-9.436c-1.963,0-1.963,0-1.963,1.894,0,1.847,0,1.847,1.893,1.847,1.846,0,1.846,0,1.846-1.894,0-1.847,0-1.847-1.777-1.847m-14.974,18.7c1.792,0,1.792,0,1.792-1.831,0-1.91,0-1.91-1.947-1.91-1.792,0-1.792,0-1.792,1.831,0,1.91,0,1.91,1.947,1.91" transform="translate(-67.756 -104.15)" fill="#ccd1d9"/>
          <path id="Trazado_819614" data-name="Trazado 819614" d="M77.962,271.611c0-5.259.02-10.518-.021-15.777-.006-.817.192-1.023,1.015-1.02q12.092.051,24.185,0c.818,0,1.02.194,1.018,1.016q-.046,15.835,0,31.671c0,.816-.191,1.023-1.014,1.02q-12.092-.051-24.185,0c-.817,0-1.025-.193-1.019-1.016.041-5.3.021-10.6.021-15.893m5.613-13.036c-1.874,0-1.874,0-1.874,1.867s0,1.874,1.866,1.874,1.874,0,1.874-1.866,0-1.874-1.866-1.874m9.345,1.771c0-1.771,0-1.771-1.736-1.771-2,0-2,0-2,1.97,0,1.771,0,1.771,1.736,1.771,2,0,2,0,2-1.969m5.694-1.771c-1.954,0-1.954,0-1.954,1.9,0,1.838,0,1.838,1.785,1.838,1.954,0,1.954,0,1.954-1.9,0-1.838,0-1.838-1.785-1.838M83.524,269.8c1.918,0,1.918,0,1.918-1.939,0-1.8,0-1.8-1.822-1.8-1.918,0-1.918,0-1.918,1.939,0,1.8,0,1.8,1.822,1.8m7.551-3.741c-1.894,0-1.894,0-1.894,1.846,0,1.894,0,1.894,1.846,1.894,1.894,0,1.894,0,1.894-1.846,0-1.894,0-1.894-1.846-1.894m9.325,1.926c0-1.926,0-1.926-1.93-1.926-1.809,0-1.809,0-1.809,1.814,0,1.926,0,1.926,1.93,1.926,1.809,0,1.809,0,1.809-1.814M85.442,275.5c0-1.963,0-1.963-1.894-1.963-1.846,0-1.846,0-1.846,1.894,0,1.846,0,1.846,1.894,1.846,1.846,0,1.846,0,1.846-1.778m3.74-.2c0,1.977,0,1.977,2,1.977,1.743,0,1.743,0,1.743-1.763,0-1.977,0-1.977-2-1.977-1.743,0-1.743,0-1.743,1.763m7.479,0c0,1.977,0,1.977,2,1.977,1.743,0,1.743,0,1.743-1.763,0-1.977,0-1.977-2-1.977-1.743,0-1.743,0-1.743,1.763m-11.219,7.592c0-1.874,0-1.874-1.866-1.874s-1.874,0-1.874,1.867,0,1.874,1.866,1.874,1.874,0,1.874-1.866m5.548,1.866c1.931,0,1.931,0,1.931-1.925,0-1.815,0-1.815-1.808-1.815-1.931,0-1.931,0-1.931,1.925,0,1.815,0,1.815,1.808,1.815m9.41-1.822c0-1.918,0-1.918-1.939-1.918-1.8,0-1.8,0-1.8,1.822,0,1.918,0,1.918,1.938,1.918,1.8,0,1.8,0,1.8-1.822" transform="translate(-57.348 -187.488)" fill="#e6e9ed"/>
          <path id="Trazado_819615" data-name="Trazado 819615" d="M319.72,184.043c-.641,4.367-4.922,7.532-9.063,7.5-1.516-.013-3.034-.032-4.549.01-.812.023-.927-.267-.652-.96,1.359-3.419,3.587-5.74,7.414-6.321,2.289-.347,4.562-.068,6.849-.225" transform="translate(-224.649 -135.415)" fill="#aaff48"/>
          <path id="Trazado_819616" data-name="Trazado 819616" d="M248.923,163.156c-2.209,0-4.388.069-6.561-.016-3.115-.122-7.167-3.648-7.811-6.706-.062-.294-.23-.748.373-.748,2.618,0,5.29-.288,7.814.523a8.7,8.7,0,0,1,6.185,6.947" transform="translate(-172.527 -114.515)" fill="#aaff48"/>
          <path id="Trazado_819617" data-name="Trazado 819617" d="M319.681,254.837c-.568,4.29-4.756,7.408-8.784,7.485-1.633.031-3.268-.021-4.9.021-.706.018-.793-.3-.618-.843.994-3.1,4.187-6.282,7.808-6.478,2.168-.117,4.326-.045,6.494-.185" transform="translate(-224.635 -187.504)" fill="#aaff48"/>
          <path id="Trazado_819618" data-name="Trazado 819618" d="M248.886,234.04c-2.144,0-4.283.044-6.419-.01-3.122-.079-7.313-3.671-7.913-6.734-.059-.3-.192-.741.405-.73,2.687.052,5.4-.249,8.025.619a8.55,8.55,0,0,1,5.9,6.855" transform="translate(-172.539 -166.695)" fill="#aaff48"/>
          <path id="Trazado_819619" data-name="Trazado 819619" d="M223.089,29.589l2.108,8.582c-2.809-.673-5.391-1.28-7.965-1.92-.352-.088-.755-.273-.223-.743.722-.638,1.8-1.341,1.8-2.149,0-.757-1.272-1.216-1.946-1.851A49.283,49.283,0,0,0,201.351,21.8a54.691,54.691,0,0,0-11.5-3.023,26.527,26.527,0,0,0-3.33-.248c-1.115-.046-2.252-.225-3.334-.182a55.625,55.625,0,0,0-9.029.8c-1.219.25-2.446.527-3.679.743-.494.087-.64-.041-.6-.5a.82.82,0,0,0,0-.117c-.173-3.22-.043-3.4,3.235-3.779,2.544-.292,5.08-.6,7.647-.747A52.974,52.974,0,0,1,204.3,18.987a54.926,54.926,0,0,1,13.3,8.12,30.158,30.158,0,0,1,3.053,2.843c.617.655,1.071.921,1.7.075.145-.194.446-.272.731-.436" transform="translate(-124.96 -10.79)" fill="#fee9a7"/>
          <path id="Trazado_819620" data-name="Trazado 819620" d="M29.315,62.171c2.473-.621,4.938-1.235,7.4-1.861.707-.18,1.058-.291.752.757-.695,2.387-1.19,4.832-1.781,7.317-.766-.2-1.138-.885-1.623-1.383-.638-.655-1.1-.613-1.736.017A51.592,51.592,0,0,0,24.567,77.21a49.8,49.8,0,0,0-5.122,12.778,50.7,50.7,0,0,0-1.4,16.023,43.456,43.456,0,0,0,1.616,9.366c-1.163,0-2.25,0-3.338,0-.361,0-.552.005-.656-.508-.481-2.381-.915-4.758-1.2-7.18a61.207,61.207,0,0,1-.169-8.365A46.978,46.978,0,0,1,16.123,88,51.794,51.794,0,0,1,27.916,66.29c.417-.448.765-.96,1.19-1.4,1.28-1.32,1.289-1.312.209-2.72" transform="translate(-10.482 -44.289)" fill="#fee9a7"/>
          <path id="Trazado_819621" data-name="Trazado 819621" d="M342.655,200.328c1.5,1.542,1.5,1.562-.383,2.022-2.056.5-4.136.907-6.174,1.468-.659.181-.75.168-.583-.483q.915-3.576,1.792-7.162c.168-.687.457-.74.926-.258.353.363.747.691,1.062,1.083.535.666.93.783,1.592.045a59.2,59.2,0,0,0,8.447-11.66,49.324,49.324,0,0,0,4.481-11.71,50.051,50.051,0,0,0,1.317-9.849c.076-2.116-.006-4.226-.11-6.316a23.286,23.286,0,0,0-.887-5.442,13.962,13.962,0,0,1-.462-2.909c-.023-.352,0-.624.462-.564a1.353,1.353,0,0,0,.234,0c3.25-.14,3.24-.129,3.747,3.2a75.013,75.013,0,0,1,.737,8.354,54.433,54.433,0,0,1-1.84,15.927,51.037,51.037,0,0,1-6.144,14.029,33.477,33.477,0,0,1-3.6,5.131c-1.542,1.682-2.725,3.683-4.616,5.093" transform="translate(-246.812 -109.3)" fill="#fee9a7"/>
          <path id="Trazado_819622" data-name="Trazado 819622" d="M166.68,157.719c0,1.814,0,1.814-1.809,1.814-1.93,0-1.93,0-1.93-1.926,0-1.814,0-1.814,1.809-1.814,1.93,0,1.93,0,1.93,1.926" transform="translate(-119.889 -114.629)"/>
          <path id="Trazado_819623" data-name="Trazado 819623" d="M110.068,214.323c0,1.839,0,1.839-1.785,1.839-1.954,0-1.954,0-1.954-1.9,0-1.838,0-1.838,1.785-1.839,1.954,0,1.954,0,1.954,1.9" transform="translate(-78.234 -156.295)"/>
          <path id="Trazado_819624" data-name="Trazado 819624" d="M138.374,157.672c0,1.861,0,1.861-1.879,1.861-1.86,0-1.86,0-1.86-1.88,0-1.861,0-1.861,1.879-1.861,1.86,0,1.86,0,1.86,1.88" transform="translate(-99.061 -114.629)"/>
          <path id="Trazado_819625" data-name="Trazado 819625" d="M164.742,216.162c-1.8,0-1.8,0-1.8-1.823,0-1.918,0-1.918,1.939-1.918,1.8,0,1.8,0,1.8,1.823,0,1.918,0,1.918-1.938,1.918" transform="translate(-119.889 -156.295)"/>
          <path id="Trazado_819626" data-name="Trazado 819626" d="M193.049,216.162c-1.8,0-1.8,0-1.8-1.823,0-1.918,0-1.918,1.939-1.918,1.8,0,1.8,0,1.8,1.823,0,1.918,0,1.918-1.938,1.918" transform="translate(-140.716 -156.295)"/>
          <path id="Trazado_819627" data-name="Trazado 819627" d="M191.247,185.884c0-1.777,0-1.777,1.846-1.777,1.893,0,1.893,0,1.893,1.847,0,1.894,0,1.894-1.846,1.894-1.893,0-1.893,0-1.893-1.963" transform="translate(-140.716 -135.462)"/>
          <path id="Trazado_819628" data-name="Trazado 819628" d="M108.3,155.793c1.771,0,1.771,0,1.771,1.737,0,2,0,2-1.969,2-1.771,0-1.771,0-1.771-1.737,0-2,0-2,1.969-2" transform="translate(-78.233 -114.629)"/>
          <path id="Trazado_819629" data-name="Trazado 819629" d="M166.68,186.046c0,1.8,0,1.8-1.822,1.8-1.917,0-1.917,0-1.917-1.939,0-1.8,0-1.8,1.822-1.8,1.918,0,1.918,0,1.918,1.939" transform="translate(-119.889 -135.462)"/>
          <path id="Trazado_819630" data-name="Trazado 819630" d="M138.374,185.981c0,1.867,0,1.867-1.873,1.867s-1.866,0-1.866-1.874,0-1.866,1.873-1.866,1.866,0,1.866,1.874" transform="translate(-99.061 -135.462)"/>
          <path id="Trazado_819631" data-name="Trazado 819631" d="M110.068,186.062c0,1.786,0,1.786-1.838,1.786-1.9,0-1.9,0-1.9-1.955,0-1.785,0-1.785,1.838-1.785,1.9,0,1.9,0,1.9,1.955" transform="translate(-78.234 -135.462)"/>
          <path id="Trazado_819632" data-name="Trazado 819632" d="M193.21,155.793c1.777,0,1.777,0,1.777,1.847,0,1.894,0,1.894-1.846,1.894-1.893,0-1.893,0-1.893-1.847,0-1.894,0-1.894,1.963-1.894" transform="translate(-140.716 -114.629)"/>
          <path id="Trazado_819633" data-name="Trazado 819633" d="M136.581,216.162c-1.947,0-1.947,0-1.947-1.91,0-1.831,0-1.831,1.792-1.831,1.947,0,1.947,0,1.947,1.91,0,1.831,0,1.831-1.792,1.831" transform="translate(-99.061 -156.295)"/>
          <path id="Trazado_819634" data-name="Trazado 819634" d="M94.048,269.049c1.866,0,1.866,0,1.866,1.874s0,1.866-1.874,1.866-1.866,0-1.866-1.874,0-1.867,1.874-1.867" transform="translate(-67.82 -197.961)"/>
          <path id="Trazado_819635" data-name="Trazado 819635" d="M124.221,270.82c0,1.97,0,1.97-2,1.97-1.736,0-1.736,0-1.736-1.771,0-1.97,0-1.97,2-1.97,1.736,0,1.736,0,1.736,1.771" transform="translate(-88.647 -197.961)"/>
          <path id="Trazado_819636" data-name="Trazado 819636" d="M150.741,269.049c1.785,0,1.785,0,1.785,1.838,0,1.9,0,1.9-1.954,1.9-1.785,0-1.785,0-1.785-1.838,0-1.9,0-1.9,1.954-1.9" transform="translate(-109.474 -197.961)"/>
          <path id="Trazado_819637" data-name="Trazado 819637" d="M94,301.1c-1.822,0-1.822,0-1.822-1.8,0-1.939,0-1.939,1.918-1.939,1.822,0,1.822,0,1.822,1.8,0,1.939,0,1.939-1.917,1.939" transform="translate(-67.82 -218.794)"/>
          <path id="Trazado_819638" data-name="Trazado 819638" d="M122.375,297.364c1.846,0,1.846,0,1.846,1.894,0,1.846,0,1.846-1.894,1.846-1.846,0-1.846,0-1.846-1.894,0-1.846,0-1.846,1.894-1.846" transform="translate(-88.647 -218.794)"/>
          <path id="Trazado_819639" data-name="Trazado 819639" d="M152.528,299.29c0,1.814,0,1.814-1.809,1.814-1.93,0-1.93,0-1.93-1.926,0-1.814,0-1.814,1.809-1.814,1.93,0,1.93,0,1.93,1.926" transform="translate(-109.475 -218.794)"/>
          <path id="Trazado_819640" data-name="Trazado 819640" d="M95.914,327.641c0,1.777,0,1.777-1.846,1.777-1.894,0-1.894,0-1.894-1.846,0-1.894,0-1.894,1.846-1.894,1.894,0,1.894,0,1.894,1.963" transform="translate(-67.82 -239.627)"/>
          <path id="Trazado_819641" data-name="Trazado 819641" d="M120.481,327.441c0-1.763,0-1.763,1.743-1.763,2,0,2,0,2,1.977,0,1.763,0,1.763-1.743,1.763-2,0-2,0-2-1.977" transform="translate(-88.647 -239.627)"/>
          <path id="Trazado_819642" data-name="Trazado 819642" d="M148.787,327.441c0-1.763,0-1.763,1.743-1.763,2,0,2,0,2,1.977,0,1.763,0,1.763-1.743,1.763-2,0-2,0-2-1.977" transform="translate(-109.474 -239.627)"/>
          <path id="Trazado_819643" data-name="Trazado 819643" d="M95.914,355.866c0,1.867,0,1.867-1.874,1.867s-1.866,0-1.866-1.874,0-1.867,1.873-1.867,1.866,0,1.866,1.874" transform="translate(-67.82 -260.46)"/>
          <path id="Trazado_819644" data-name="Trazado 819644" d="M122.289,357.733c-1.808,0-1.808,0-1.808-1.815,0-1.925,0-1.925,1.931-1.925,1.808,0,1.808,0,1.808,1.815,0,1.925,0,1.925-1.931,1.925" transform="translate(-88.647 -260.46)"/>
          <path id="Trazado_819645" data-name="Trazado 819645" d="M152.528,355.91c0,1.822,0,1.822-1.8,1.822-1.938,0-1.938,0-1.938-1.918,0-1.822,0-1.822,1.8-1.822,1.939,0,1.939,0,1.939,1.918" transform="translate(-109.475 -260.46)"/>
        </g>
      </g>
    </g>
  </g>
</svg>
