<svg xmlns="http://www.w3.org/2000/svg" xmlns:xlink="http://www.w3.org/1999/xlink" width="190" height="190" viewBox="0 0 190 190">
  <defs>
    <clipPath id="clip-path">
      <rect id="Rectángulo_377381" data-name="Rectángulo 377381" width="190" height="190" transform="translate(1020 3210)" fill="none" stroke="#707070" stroke-width="1"/>
    </clipPath>
    <clipPath id="clip-path-2">
      <path id="Trazado_819383" data-name="Trazado 819383" d="M.455,0V73.786h.73c.559,49.948,39.945,90.262,88.459,90.262s87.9-40.314,88.458-90.262h1.446V0Z" transform="translate(-0.455)" fill="none"/>
    </clipPath>
  </defs>
  <g id="Enmascarar_grupo_318" data-name="Enmascarar grupo 318" transform="translate(-1020 -3210)" clip-path="url(#clip-path)">
    <g id="Grupo_1073008" data-name="Grupo 1073008" transform="translate(1024.545 3230)">
      <g id="Grupo_1073007" data-name="Grupo 1073007" transform="translate(0.455)" clip-path="url(#clip-path-2)">
        <path id="Trazado_819362" data-name="Trazado 819362" d="M178.062,93.1q0,2.844,0,5.689c-.328,0-.656.013-.984.013q-22.327,0-44.655-.013c-.693,0-.922.082-.711.862q1.268,4.7,2.393,9.432c.2.863.506,1.176,1.451,1.173q21.254-.047,42.506-.013,0,2.844,0,5.689c-.149,0-.3.012-.447.012q-20.452,0-40.9-.014c-.734,0-.89.141-.693.878.844,3.154,1.671,6.314,2.4,9.5.206.893.571,1.091,1.426,1.089q19.109-.033,38.217-.006,0,2.844,0,5.689c-.328,0-.656.013-.984.013q-18.025,0-36.05-.012c-.681,0-.941.067-.717.856.89,3.138,1.736,6.29,2.36,9.494.163.837.5,1.118,1.4,1.115,11.33-.033,22.661-.016,33.992-.012q0,2.844,0,5.689c-.12,0-.239.013-.358.013q-16.2,0-32.4-.014c-.734,0-.889.139-.691.878.843,3.154,1.664,6.316,2.4,9.5.2.89.575,1.09,1.429,1.088,9.876-.026,19.752-.011,29.628-.007q0,2.845,0,5.689-14.229.006-28.457,0c-.716,0-.9.115-.7.871.805,2.979,1.543,5.977,2.3,8.969.4,1.6.4,1.593,2.074,1.594q12.393.005,24.786.017.01,2.409.019,4.818c0,.809-.4,1.219-1.182,1a4.971,4.971,0,0,0-1.4-.1q-86.988-.014-173.975.012c-.876,0-1.166-.166-1.108-1.087.1-1.541.039-3.092.046-4.638.357-.008.715-.022,1.072-.022,8.142,0,16.284-.011,24.425.017.724,0,1.028-.166,1.171-.905.586-3.03,1.34-6.024,2.141-9.005.406-1.509.393-1.512-1.165-1.513L.469,167.365v-5.694c.655-.007,1.312-.021,1.967-.021q13.96,0,27.918,0c.423,0,.869.127,1-.54.675-3.456,1.546-6.867,2.55-10.243.14-.469-.016-.641-.507-.633-1.222.021-2.446.006-3.669.006L.469,150.221v-5.693c.357-.007.715-.021,1.072-.021q16.155,0,32.308.009a3.5,3.5,0,0,0,1.575-.1c.4-.225.27-.909.376-1.392.067-.3.22-.6.3-.916.645-2.684,1.271-5.373,2-8.036.229-.837.075-1-.754-1-6.831.028-13.663.021-20.495.019q-8.188,0-16.377-.015-.016-2.85-.032-5.7c.358-.006.716-.016,1.074-.016q18.706,0,37.412.026c.682,0,.968-.153,1.121-.862.686-3.161,1.408-6.315,2.29-9.43.325-1.147.323-1.151-.874-1.151q-15.664,0-31.326,0-4.832,0-9.665-.011c.063-1.9-.212-3.793,0-5.689.388-.005.776-.014,1.163-.014H85.155a4.668,4.668,0,0,1,.625,0c.537.074.688-.186.622-.663a1.237,1.237,0,0,1,0-.178q0-13.435.016-26.871c0-.695-.166-.913-.878-.881-1.34.059-2.688.067-4.027,0-.753-.039-.868.247-.855.9.038,2.023-.029,4.048.042,6.069.019.534-.356.951-.22,1.485a2.13,2.13,0,0,1-.78,2.148,3.687,3.687,0,0,1-2.726.845q-30.213,0-60.426-.008c-.469,0-.941-.018-1.413-.057-2.159-.174-3.211-1.228-3.223-3.375-.013-2.411-.027-4.821.014-7.231.01-.645-.192-.779-.8-.775-3.551.024-7.1.005-10.652,0C.462,80.034.486,78.421.432,76.81c-.022-.668.122-.895.853-.885,3.252.046,6.506,0,9.758.036.674.007.888-.133.883-.854-.035-5.386-.057-10.774.011-16.16a2.757,2.757,0,0,0-1.173-2.572c-2.1-1.5-4.239-2.956-6.238-4.581A30.039,30.039,0,0,1,1.5,49.471C.172,48.087.024,46.706,1.262,45.261,2.689,43.594,4.207,42,5.652,40.353S8.471,37.02,9.9,35.375C10.966,34.16,12.09,33,13.154,31.786c1.385-1.578,2.724-3.2,4.111-4.775.895-1.019,1.875-1.965,2.752-3,2.413-2.846,5.828-4.283,8.842-6.276s6.13-3.889,9.207-5.815c2.146-1.343,4.29-2.69,6.463-3.988a2.831,2.831,0,0,1,3.525.105c.967.726,2.24,1.192,3.234,1.828,1.014.65,2.055,1.4,3.1,2.055,2.848,1.773,5.662,3.6,8.557,5.3,2.695,1.585,5.284,3.356,7.863,5.128,1.176.807,1.878,2.122,2.881,3.118,2.511,2.5,4.647,5.321,7.044,7.914,2.315,2.505,4.447,5.165,6.739,7.687.292.322.576.65.967,1.093.291-1.362.682-2.566.979-3.786.355-1.456.821-2.876,1.289-4.29a36.26,36.26,0,0,1,2.322-5.671c1.187-2.234,2.429-4.474,4.621-5.866a5.278,5.278,0,0,1,6.738.55c2.727,2.25,4.072,5.382,5.3,8.583,1.1,2.856,1.851,5.815,2.763,8.727a13.994,13.994,0,0,1,.391,1.877c.311,1.865.668,3.729,1.022,5.581.37,1.939.669,3.893.963,5.837a13.909,13.909,0,0,1-2.5,10.568,13.411,13.411,0,0,1-7.533,5.246c-.846.231-1.378.545-1.24,1.638a21.879,21.879,0,0,1,.019,3.833c-.037.751.125.982.945.978,7.64-.039,15.28-.023,22.92-.023.149,0,.3,0,.448,0,1.491.039,1.491.039,1.491-1.527,0-1.339-.006-2.679,0-4.017,0-.332-.059-.439-.448-.555-5.082-1.513-8.7-4.547-10.372-9.744a15.682,15.682,0,0,1-.323-7.595,6.954,6.954,0,0,0,.206-2.451,2.34,2.34,0,0,1,.238-1.211,26.074,26.074,0,0,0,.8-4.38c.3-1.676.724-3.315,1.164-4.939a83.716,83.716,0,0,1,2.68-8.434,23.325,23.325,0,0,1,3.59-6.461c1.5-1.822,3.33-3.227,5.906-2.951a6.284,6.284,0,0,1,3.851,2.085,21.965,21.965,0,0,1,4.555,8.045q1.338,3.709,2.377,7.5c.39,1.418.578,2.89,1.044,4.269a5.076,5.076,0,0,1,.376,2.656c-.381,1.23.7,1.836.7,2.854a16.7,16.7,0,0,0,.421,3.2c1.185,5.964-.408,11.819-6.03,15.556a13.965,13.965,0,0,1-4.295,1.848c-.493.126-.738.281-.721.86.047,1.576.03,3.154.007,4.732-.006.454.035.678.6.677q12.311-.03,24.622,0c.487,0,.59-.155.582-.6-.024-1.637-.017-3.274,0-4.911,0-.373-.07-.478-.5-.6A14.418,14.418,0,0,1,149.651,58.62a16.02,16.02,0,0,1-.083-5.087c.138-1.543.4-3.065.618-4.586.353-2.441.863-4.866,1.436-7.268a88.238,88.238,0,0,1,3.2-10.511,23.237,23.237,0,0,1,3.6-6.536c1.484-1.828,3.323-3.222,5.895-2.951a6.266,6.266,0,0,1,3.856,2.076,22.006,22.006,0,0,1,4.562,8.041c.892,2.469,1.656,4.969,2.36,7.493.638,2.29,1.065,4.623,1.555,6.945.083.4-.53.576-.186,1,.974,1.184.938,2.728,1.059,4.072.132,1.475,1.019,2.966.23,4.518-.126.247.128.666.144,1.008.208,4.356-3.31,9.809-7.293,11.551-1.172.512-2.34.991-3.552,1.385-.241.078-.45.169-.444.537.029,1.726.034,3.452,0,5.178-.011.629.4.46.713.46,3.343.007,6.685.017,10.027-.008.56,0,.767.1.747.716-.054,1.665-.032,3.332-.039,5-.239,0-.477.012-.716.012H128.384c-.209,0-.418.008-.627,0-.389-.02-.515.078-.4.516.888,3.449,1.748,6.907,2.612,10.362a.639.639,0,0,0,.746.565c.864-.035,1.73-.011,2.6-.01l44.753.012M17.638,72.179c0,4.791.014,9.582-.016,14.373,0,.655.143.845.827.84q7.787-.047,15.576,0c.7,0,.821-.208.818-.85-.024-6.159-.016-12.319-.014-18.479,0-2.4,1.148-3.545,3.568-3.546q7.878,0,15.755,0c2.477,0,3.6,1.115,3.6,3.588,0,6.1.014,12.2-.016,18.3,0,.742.118,1,.95.992q7.653-.071,15.307,0c.794.006.972-.195.969-.974q-.045-13.748,0-27.495a4.575,4.575,0,0,0-1.236-3.285c-4.733-5.353-9.44-10.73-13.953-16.271a8.22,8.22,0,0,0-2.251-1.87q-5.19-3.068-10.343-6.2a1.54,1.54,0,0,0-1.811-.041c-2.669,1.626-5.341,3.251-8.058,4.8a21.48,21.48,0,0,0-6.05,5.032C27.105,46.113,22.786,51,18.509,55.926a3.415,3.415,0,0,0-.885,2.416c.032,4.612.014,9.225.014,13.837M133.083,178.795c3.94,0,7.879-.009,11.819.008.685,0,.936-.1.719-.9-.78-2.865-1.476-5.754-2.2-8.635q-3.59-14.3-7.177-28.61-3.23-12.878-6.461-25.758Q127.1,104.229,124.4,93.559c-.943-3.744-1.9-7.486-2.824-11.234-.12-.484-.3-.68-.831-.676q-5.148.033-10.3.005c-.633,0-.85.238-.774.864q.655,5.432,1.275,10.867,1.089,9.645,2.152,19.294l1.436,12.895q.714,6.4,1.427,12.806c.372,3.368.722,6.738,1.1,10.106.571,5.079,1.171,10.155,1.734,15.236q.787,7.078,1.513,14.164c.071.691.3.937,1.038.929,3.909-.04,7.819-.019,11.728-.019M92.131,130.137h.009q0,23.874-.017,47.75c0,.746.191.93.933.926,6.593-.031,13.186-.018,19.78-.018,1.882,0,1.887,0,1.676-1.892-.294-2.635-.545-5.276-.929-7.9-.107-.729-.111-1.461-.227-2.189-.281-1.762-.425-3.547-.62-5.322-.193-1.748-.323-3.505-.591-5.241s-.227-3.5-.628-5.23a27.437,27.437,0,0,1-.36-3.855c-.075-.883-.345-1.744-.36-2.6-.033-1.875-.361-3.714-.518-5.572-.136-1.615-.416-3.216-.592-4.829-.292-2.672-.538-5.349-.83-8.022-.176-1.612-.426-3.216-.6-4.828-.292-2.672-.536-5.35-.827-8.022-.176-1.612-.521-3.214-.581-4.828-.072-1.931-.491-3.812-.616-5.737-.157-2.41-.572-4.8-.841-7.207-.3-2.7-.556-5.409-.85-8.112-.176-1.618-.453-3.228-.556-4.849-.044-.7-.2-.923-.907-.916-3.311.031-6.623.04-9.934-.006-.805-.011-1.031.185-1.029,1.013q.04,23.741.02,47.483M45.433,178.8v0c3.88,0,7.76-.024,11.639.02.822.009,1.091-.287,1.166-1.044.289-2.9.616-5.79.929-8.684.5-4.579.981-9.159,1.491-13.736.576-5.162,1.181-10.321,1.762-15.482q.594-5.27,1.161-10.543c.451-4.159.875-8.321,1.356-12.476.095-.815-.2-.926-.915-.922-4.864.026-9.729.034-14.593-.007-.751-.006-1.034.232-1.2.926-.655,2.8-1.349,5.6-2.049,8.394Q42.2,141.139,38.206,157.03c-1.748,6.938-3.353,13.912-5.3,20.8-.222.788.025.982.794.977,3.909-.026,7.819-.012,11.729-.012m40.959-30.161H86.4q0-15.985.014-31.97c0-.612-.206-.767-.767-.727s-1.133.009-1.7.009q-6.131,0-12.261,0c-.506,0-1.015,0-1.014.681a18.349,18.349,0,0,1-.208,2.023c-.4,3.656-.766,7.314-1.169,10.968-.309,2.791-.668,5.576-.979,8.367-.41,3.691-.774,7.386-1.2,11.076-.362,3.152-.747,6.305-1.078,9.458-.275,2.62-.587,5.24-.855,7.863-.388,3.81-.718,7.63-1.331,11.415-.128.791.108,1.022.924,1.018q10.337-.046,20.674.005c.834,0,.956-.256.954-1q-.035-14.592-.016-29.185M14.2,51.984a.991.991,0,0,0,.635-.41c.713-.83,1.443-1.645,2.156-2.475Q22.4,42.793,27.81,36.484a15.727,15.727,0,0,1,3.79-3.621q6.355-3.739,12.655-7.569a3.628,3.628,0,0,1,4.1.04c4.151,2.519,8.329,5,12.508,7.469a10.007,10.007,0,0,1,2.545,2.083q1.89,2.2,3.786,4.4,5.269,6.135,10.531,12.274c.337.393.592.557,1.1.168,1.886-1.456,3.8-2.877,5.729-4.28.5-.362.509-.635.1-1.063-.774-.812-1.524-1.648-2.264-2.492q-5.892-6.717-11.777-13.441c-1.759-2-3.4-4.026-5.826-5.442C58.757,21.5,52.905,17.685,47,13.971a1.1,1.1,0,0,0-1.376-.011c-1.133.754-2.3,1.464-3.45,2.183-4.1,2.555-8.207,5.083-12.283,7.668-1.955,1.241-4.194,2.153-5.685,3.977-2.075,2.536-4.316,4.921-6.442,7.409-3.209,3.754-6.505,7.435-9.774,11.139-.339.383-.558.652.009,1.062,1.955,1.416,3.878,2.874,5.814,4.315.14.1.284.2.388.272M97.822,63.866c.012-.2.029-.347.029-.494,0-4.136.019-8.271,0-12.407,0-.579.151-.766.744-.748,1.371.042,2.745.048,4.116,0,.678-.024.908.137.9.867-.039,4.016-.006,8.033-.032,12.049,0,.736.163.917.84.544a8.566,8.566,0,0,0,4.86-8.114,40.162,40.162,0,0,0-.511-6,81.229,81.229,0,0,0-4.912-17.1,14.956,14.956,0,0,0-2.458-4.425c-.7-.787-.9-.79-1.559.075a20.384,20.384,0,0,0-2.605,5.161,79.167,79.167,0,0,0-4.818,18.565,19.2,19.2,0,0,0-.1,5.684c.488,2.868,2.889,5.718,5.507,6.335m63.063-6.784h.009c0-2.053.018-4.106-.012-6.159-.008-.542.133-.721.7-.7,1.371.04,2.746.054,4.116,0,.724-.031.957.143.949.911-.042,4.016-.008,8.033-.031,12.049,0,.69.177.867.8.527a8.578,8.578,0,0,0,4.9-8.076,39.381,39.381,0,0,0-.516-6.086,79.474,79.474,0,0,0-5.348-18.073,12.738,12.738,0,0,0-2.143-3.583c-.482-.531-.849-.519-1.293.039a16.541,16.541,0,0,0-2.1,3.822,77.548,77.548,0,0,0-4.593,14.875,41.137,41.137,0,0,0-1.135,9.182,8.41,8.41,0,0,0,4.851,7.831c.565.291.885.371.865-.481-.046-2.022-.014-4.045-.014-6.068m-25.778.024c0,2.024,0,4.047,0,6.071,0,.812.13.888.86.469a15.29,15.29,0,0,0,1.511-1.058,8.026,8.026,0,0,0,3.315-7.035,42.38,42.38,0,0,0-.512-6,81.492,81.492,0,0,0-4.88-17.017,14.861,14.861,0,0,0-2.557-4.573c-.61-.667-.837-.674-1.391.027a19.7,19.7,0,0,0-2.709,5.307,80.354,80.354,0,0,0-5.054,20.625c-.448,4.333,1.127,7.717,4.747,9.662.874.469.928.441.929-.519.005-4.017.021-8.035,0-12.051,0-.616.144-.822.786-.8,1.37.049,2.746.048,4.117,0,.645-.023.876.12.858.82-.051,2.022-.018,4.047-.018,6.07M86.622,52.934c-2,1.28-3.66,2.629-5.374,3.9A1.265,1.265,0,0,0,80.659,58q.028,8.566,0,17.132c0,.652.133.835.816.83,4.742-.035,9.484-.024,14.226-.009a3.435,3.435,0,0,1,1.391.127c.375.153.786-.046.779-.633-.019-1.695,0-3.391-.01-5.086,0-.212.086-.452-.306-.5a10.959,10.959,0,0,1-2.368-.835,14.153,14.153,0,0,1-8.791-12.7c-.019-1.062.126-2.112.229-3.4M40.536,78.755c0,2.615.016,5.231-.013,7.846-.006.584.088.82.756.812,3.338-.037,6.676-.027,10.014-.006.544,0,.768-.087.765-.711q-.041-7.89,0-15.782c0-.613-.2-.722-.758-.718-3.338.023-6.677.03-10.014-.006-.658-.006-.77.213-.763.807.032,2.585.014,5.171.014,7.757" transform="translate(-0.436 -2.09)"/>
        <path id="Trazado_819363" data-name="Trazado 819363" d="M.381,111.051c3.551.005,7.1.024,10.652,0,.61,0,.813.13.8.775-.04,2.41-.027,4.82-.013,7.231.011,2.147,1.063,3.2,3.222,3.375.474.039.944.057,1.414.057q30.212.01,60.426.008a3.686,3.686,0,0,0,2.727-.845,2.131,2.131,0,0,0,.779-2.148c-.135-.534.239-.951.221-1.485-.072-2.021-.005-4.046-.043-6.069-.012-.656.1-.942.855-.9,1.34.069,2.686.062,4.027,0,.711-.032.88.186.878.881q-.037,13.435-.016,26.871a1.236,1.236,0,0,0,0,.178c.067.477-.085.736-.621.663a4.682,4.682,0,0,0-.626,0H1.544c-.388,0-.776.009-1.163.014-.236-.4-.517-.772-.069-1.254.138-.148.046-.514.046-.782q0-12.747,0-25.5c0-.356.014-.713.021-1.069" transform="translate(-0.347 -31.495)" fill="#bf9276"/>
        <path id="Trazado_819364" data-name="Trazado 819364" d="M228.316,122.51l-44.754-.012c-.865,0-1.731-.025-2.595.01a.639.639,0,0,1-.747-.564c-.863-3.456-1.724-6.912-2.612-10.362-.112-.437.014-.536.4-.515.208.011.418,0,.626,0H227.6c.239,0,.477-.009.716-.013q0,5.727,0,11.454" transform="translate(-50.69 -31.499)" fill="#a37664"/>
        <path id="Trazado_819365" data-name="Trazado 819365" d="M230.026,146.44q-21.254-.006-42.507.013c-.945,0-1.247-.31-1.451-1.173q-1.116-4.736-2.394-9.432c-.211-.781.019-.862.711-.862q22.328.025,44.656.012c.328,0,.655-.008.984-.012q0,5.727,0,11.454" transform="translate(-52.4 -38.286)" fill="#a37664"/>
        <path id="Trazado_819366" data-name="Trazado 819366" d="M231.731,170.37q-19.109-.006-38.217.006c-.855,0-1.22-.2-1.426-1.09-.731-3.181-1.558-6.341-2.4-9.5-.2-.736-.042-.878.693-.878q20.451.03,40.9.015c.149,0,.3-.009.447-.013q0,5.727,0,11.454" transform="translate(-54.105 -45.073)" fill="#a37664"/>
        <path id="Trazado_819367" data-name="Trazado 819367" d="M.359,158.92q4.832.005,9.665.011,15.663,0,31.326,0c1.2,0,1.2,0,.874,1.15-.882,3.115-1.6,6.27-2.29,9.431-.153.708-.439.863-1.121.862q-18.706-.038-37.412-.027c-.358,0-.716.011-1.073.016a.59.59,0,0,1-.318-.575c.715-2.653.138-5.352.31-8.022.061-.946.029-1.9.039-2.848" transform="translate(-0.326 -45.075)" fill="#a37664"/>
        <path id="Trazado_819368" data-name="Trazado 819368" d="M233.43,194.3c-11.331,0-22.661-.021-33.992.012-.9,0-1.236-.278-1.4-1.115-.624-3.2-1.47-6.356-2.36-9.494-.224-.789.036-.857.717-.856q18.025.025,36.049.012c.328,0,.656-.009.984-.013q0,5.727,0,11.454" transform="translate(-55.804 -51.861)" fill="#a37664"/>
        <path id="Trazado_819369" data-name="Trazado 819369" d="M.5,182.849q8.188.008,16.377.015c6.831,0,13.663.009,20.495-.019.829,0,.984.159.754,1-.727,2.662-1.353,5.352-2,8.036-.077.319-.229.612-.3.916-.106.483.026,1.167-.376,1.392a3.5,3.5,0,0,1-1.575.1q-16.154,0-32.308-.008c-.358,0-.716.014-1.073.021v-11.45" transform="translate(-0.468 -51.861)" fill="#a37664"/>
        <path id="Trazado_819370" data-name="Trazado 819370" d="M235.132,218.231c-9.876,0-19.752-.019-29.628.006-.855,0-1.224-.2-1.429-1.087-.732-3.181-1.554-6.343-2.4-9.5-.2-.739-.042-.88.691-.878q16.2.031,32.4.014c.12,0,.239-.008.357-.012q0,5.727,0,11.454" transform="translate(-57.506 -58.648)" fill="#a37664"/>
        <path id="Trazado_819371" data-name="Trazado 819371" d="M.5,206.781l29.259.015c1.223,0,2.446.015,3.669-.005.491-.009.647.163.507.633-1,3.376-1.875,6.786-2.55,10.243-.13.667-.575.54-1,.54q-13.958,0-27.918,0c-.655,0-1.312.014-1.967.021v-11.45" transform="translate(-0.468 -58.65)" fill="#a37664"/>
        <path id="Trazado_819372" data-name="Trazado 819372" d="M24.462,81.529c0-4.612.018-9.225-.014-13.837a3.411,3.411,0,0,1,.885-2.416c4.277-4.924,8.6-9.814,12.752-14.837a21.47,21.47,0,0,1,6.05-5.032c2.716-1.547,5.389-3.171,8.058-4.8a1.541,1.541,0,0,1,1.811.04q5.151,3.132,10.343,6.2a8.193,8.193,0,0,1,2.25,1.87c4.514,5.54,9.22,10.917,13.953,16.271a4.571,4.571,0,0,1,1.235,3.285q-.062,13.748,0,27.5c0,.779-.176.98-.97.974q-7.653-.06-15.307,0c-.831.008-.953-.249-.95-.992.03-6.1.019-12.2.016-18.3,0-2.474-1.12-3.588-3.6-3.588q-7.879,0-15.756,0c-2.419,0-3.568,1.142-3.568,3.547,0,6.159-.01,12.319.014,18.479,0,.642-.122.854-.818.849q-7.788-.048-15.577,0c-.683,0-.83-.186-.826-.84.029-4.791.016-9.581.016-14.372" transform="translate(-7.26 -11.441)" fill="#ff4c55"/>
        <path id="Trazado_819373" data-name="Trazado 819373" d="M176.349,208.2c-3.91,0-7.82-.022-11.729.019-.739.008-.967-.239-1.038-.929q-.728-7.086-1.512-14.164c-.564-5.08-1.163-10.157-1.734-15.236-.378-3.368-.729-6.738-1.1-10.106q-.707-6.4-1.427-12.806-.719-6.447-1.436-12.895-1.075-9.647-2.152-19.294-.615-5.436-1.275-10.867c-.076-.626.142-.867.774-.864q5.148.021,10.3-.005c.527,0,.711.193.83.676.926,3.748,1.88,7.49,2.825,11.234q2.691,10.671,5.378,21.344,3.235,12.877,6.461,25.758,3.588,14.306,7.177,28.61c.724,2.881,1.419,5.77,2.2,8.635.216.794-.034.9-.719.9-3.939-.016-7.879-.008-11.819-.007" transform="translate(-43.702 -31.5)" fill="#8cbe00"/>
        <path id="Trazado_819374" data-name="Trazado 819374" d="M128.447,159.543q0-23.741-.02-47.483c0-.828.225-1.024,1.029-1.013,3.311.046,6.623.037,9.935.006.709-.006.862.216.907.916.1,1.622.38,3.232.555,4.85.294,2.7.548,5.41.851,8.111.269,2.4.684,4.8.84,7.207.125,1.924.544,3.805.616,5.737.061,1.615.4,3.217.581,4.828.292,2.672.536,5.349.827,8.021.176,1.613.426,3.217.6,4.828.292,2.672.538,5.35.83,8.022.176,1.612.456,3.214.592,4.829.157,1.857.485,3.7.518,5.572.015.857.284,1.717.36,2.6a27.551,27.551,0,0,0,.36,3.855c.4,1.732.36,3.494.628,5.229s.4,3.494.591,5.241c.2,1.776.34,3.56.62,5.322.116.729.12,1.461.227,2.189.384,2.622.635,5.263.929,7.9.211,1.891.206,1.892-1.676,1.892-6.593,0-13.186-.013-19.78.018-.742,0-.933-.18-.933-.926q.034-23.874.017-47.75Z" transform="translate(-36.752 -31.496)" fill="#8cbe00"/>
        <path id="Trazado_819375" data-name="Trazado 819375" d="M58.279,221.776c-3.91,0-7.819-.014-11.729.012-.769.005-1.017-.189-.794-.977,1.944-6.888,3.548-13.862,5.3-20.8q4-15.889,7.979-31.785c.7-2.793,1.393-5.589,2.048-8.394.163-.694.446-.932,1.2-.926,4.864.041,9.729.034,14.594.007.711,0,1.009.107.914.922-.481,4.155-.9,8.317-1.356,12.476q-.572,5.273-1.16,10.543c-.582,5.161-1.187,10.321-1.763,15.482-.51,4.578-1,9.157-1.491,13.736-.314,2.894-.64,5.788-.929,8.684-.076.757-.345,1.053-1.167,1.044-3.879-.044-7.759-.02-11.639-.02Z" transform="translate(-13.281 -45.07)" fill="#8cbe00"/>
        <path id="Trazado_819376" data-name="Trazado 819376" d="M111.508,191.617q0,14.592.016,29.185c0,.743-.12,1-.954,1q-10.337-.06-20.674-.006c-.816,0-1.052-.227-.924-1.018.612-3.785.943-7.6,1.331-11.415.267-2.622.58-5.242.855-7.862.331-3.153.716-6.306,1.078-9.459.424-3.689.787-7.385,1.2-11.076.311-2.79.671-5.576.979-8.366.4-3.655.774-7.313,1.168-10.969a18.354,18.354,0,0,0,.209-2.023c0-.684.508-.682,1.013-.681q6.131.008,12.261,0c.567,0,1.136.031,1.7-.009s.769.116.767.728q-.028,15.984-.014,31.969Z" transform="translate(-25.552 -45.073)" fill="#8cbe00"/>
        <path id="Trazado_819377" data-name="Trazado 819377" d="M17.071,54.5c-.1-.072-.249-.168-.388-.272-1.936-1.441-3.859-2.9-5.814-4.315-.567-.41-.347-.678-.009-1.062,3.269-3.7,6.566-7.384,9.774-11.14C22.76,35.224,25,32.84,27.076,30.3c1.492-1.823,3.73-2.736,5.685-3.976,4.075-2.585,8.187-5.113,12.283-7.668,1.156-.721,2.318-1.429,3.451-2.183a1.1,1.1,0,0,1,1.375.01c5.909,3.714,11.76,7.528,17.785,11.046,2.424,1.416,4.065,3.441,5.826,5.442q5.9,6.708,11.776,13.441c.74.843,1.489,1.681,2.264,2.492.409.428.4.7-.1,1.062-1.927,1.4-3.842,2.823-5.729,4.28-.5.389-.759.225-1.1-.169q-5.257-6.143-10.531-12.274-1.891-2.2-3.787-4.4a9.968,9.968,0,0,0-2.545-2.083c-4.179-2.474-8.356-4.95-12.508-7.469a3.627,3.627,0,0,0-4.1-.041q-6.31,3.815-12.655,7.57A15.743,15.743,0,0,0,30.684,39q-5.418,6.3-10.823,12.614c-.713.83-1.443,1.645-2.156,2.476a.992.992,0,0,1-.634.41" transform="translate(-3.31 -4.606)" fill="#a37664"/>
        <path id="Trazado_819378" data-name="Trazado 819378" d="M134.15,71.822c-2.618-.617-5.019-3.466-5.507-6.335a19.206,19.206,0,0,1,.1-5.684,79.136,79.136,0,0,1,4.819-18.565,20.36,20.36,0,0,1,2.6-5.161c.66-.865.856-.863,1.559-.075a14.939,14.939,0,0,1,2.458,4.425,81.3,81.3,0,0,1,4.913,17.1,40.26,40.26,0,0,1,.51,6,8.568,8.568,0,0,1-4.859,8.114c-.678.372-.845.191-.84-.545.025-4.016-.009-8.033.031-12.049.007-.73-.223-.891-.9-.867-1.37.049-2.745.043-4.116,0-.592-.019-.746.169-.744.747.021,4.136.006,8.272,0,12.408,0,.147-.017.293-.029.493" transform="translate(-36.764 -10.046)" fill="#8cbe00"/>
        <path id="Trazado_819379" data-name="Trazado 819379" d="M222.172,65.05c0,2.023-.032,4.047.015,6.069.019.852-.3.772-.865.481a8.41,8.41,0,0,1-4.851-7.831,41.133,41.133,0,0,1,1.135-9.182A77.482,77.482,0,0,1,222.2,39.712a16.51,16.51,0,0,1,2.1-3.822c.444-.559.811-.57,1.293-.04a12.75,12.75,0,0,1,2.143,3.584,79.507,79.507,0,0,1,5.348,18.073,39.466,39.466,0,0,1,.517,6.085,8.579,8.579,0,0,1-4.9,8.077c-.62.34-.8.163-.8-.527.023-4.016-.011-8.033.031-12.049.009-.769-.225-.942-.949-.911-1.37.058-2.745.044-4.116,0-.562-.016-.7.164-.7.7.03,2.052.012,4.106.012,6.159Z" transform="translate(-61.723 -10.058)" fill="#8cbe00"/>
        <path id="Trazado_819380" data-name="Trazado 819380" d="M183.9,65.063c0-2.024-.033-4.048.018-6.07.018-.7-.214-.842-.858-.82-1.371.048-2.747.049-4.117,0-.642-.023-.79.183-.786.8.024,4.017.009,8.035,0,12.052,0,.96-.055.988-.929.519-3.62-1.945-5.2-5.329-4.747-9.662a80.369,80.369,0,0,1,5.054-20.625,19.7,19.7,0,0,1,2.709-5.306c.554-.7.781-.694,1.391-.027a14.862,14.862,0,0,1,2.557,4.573,81.494,81.494,0,0,1,4.88,17.017,42.371,42.371,0,0,1,.512,6,8.026,8.026,0,0,1-3.315,7.035,15.3,15.3,0,0,1-1.512,1.058c-.729.418-.857.342-.859-.469-.005-2.024,0-4.047,0-6.071" transform="translate(-49.226 -10.047)" fill="#8cbe00"/>
        <path id="Trazado_819382" data-name="Trazado 819382" d="M56.426,103.628c0-2.586.018-5.171-.014-7.757-.007-.594.1-.813.763-.807,3.338.036,6.676.029,10.014.006.554,0,.761.1.758.718q-.039,7.89,0,15.782c0,.625-.221.715-.765.711-3.338-.021-6.677-.031-10.014.006-.668.008-.762-.229-.756-.812.029-2.615.013-5.231.013-7.846" transform="translate(-16.326 -26.963)" fill="#bf9276"/>
      </g>
    </g>
  </g>
</svg>
