<svg xmlns="http://www.w3.org/2000/svg" xmlns:xlink="http://www.w3.org/1999/xlink" width="190" height="182" viewBox="0 0 190 182">
  <defs>
    <clipPath id="clip-path">
      <rect id="Rect치ngulo_377411" data-name="Rect치ngulo 377411" width="190" height="182" transform="translate(285 725.081)" fill="#fff" stroke="#707070" stroke-width="1"/>
    </clipPath>
    <clipPath id="clip-path-2">
      <rect id="Rect치ngulo_377410" data-name="Rect치ngulo 377410" width="125.839" height="160.546" fill="none"/>
    </clipPath>
  </defs>
  <g id="Enmascarar_grupo_325" data-name="Enmascarar grupo 325" transform="translate(-285 -725.081)" clip-path="url(#clip-path)">
    <g id="Grupo_1073036" data-name="Grupo 1073036" transform="translate(315.161 736.82)">
      <g id="Grupo_1073035" data-name="Grupo 1073035" clip-path="url(#clip-path-2)">
        <path id="Trazado_819649" data-name="Trazado 819649" d="M62.928,160.529c-9.747,0-19.494.048-29.24-.035a32.685,32.685,0,0,1-6.923-.957,17.82,17.82,0,0,1-1.97-.312c-.991-.361-2-.636-3.008-.919a47.2,47.2,0,0,1-7.719-3.122,2.44,2.44,0,0,1-1.437-2.292c0-3.082-.079-6.168.031-9.246a11.244,11.244,0,0,1,1.871-5.486,12.979,12.979,0,0,1,6.6-5.232c3.605-1.433,7.192-2.91,10.793-4.354,3.461-1.388,6.884-2.864,10.394-4.132,2.12-.765,4.193-1.655,6.294-2.475a2.524,2.524,0,0,0,1.761-2.639c-.038-3.709-.026-7.419,0-11.128a.877.877,0,0,0-.638-.97,32.363,32.363,0,0,1-4.8-2.711.619.619,0,0,0-.812-.023,19.475,19.475,0,0,1-7.669,2.974,17.724,17.724,0,0,1-7.321.056,13.406,13.406,0,0,1-5.693-3.041,1.989,1.989,0,0,0-2.051-.409,23.655,23.655,0,0,1-7.476.668,14.3,14.3,0,0,1-8.989-4.054,15.4,15.4,0,0,1-3.594-6.31A25.5,25.5,0,0,1,.091,88.337a47.7,47.7,0,0,1-.019-5.481A44.043,44.043,0,0,1,1.945,72.067a27.211,27.211,0,0,1,2.067-5.292,89.593,89.593,0,0,1,6.6-10.463,59.319,59.319,0,0,0,4.539-7.146,48.709,48.709,0,0,0,3.012-6.98,39.343,39.343,0,0,0,1.713-7.653c.277-2.2.57-4.405.95-6.592a35.041,35.041,0,0,1,3.713-10.655A30.057,30.057,0,0,1,39.459,3.871a50.447,50.447,0,0,1,9.1-2.716C50.094.841,51.667.7,53.223.484A59.413,59.413,0,0,1,62.391.011,16.406,16.406,0,0,1,70.72,2.182a16.233,16.233,0,0,1,2.23,1.7c.313.269.547.4.929.192,2.677-1.486,5.612-1.61,8.538-1.374A19.261,19.261,0,0,1,92.609,6.6c5.239,3.944,8.478,9.265,10.578,15.346a41.979,41.979,0,0,1,1.931,8.277c.275,2.1.438,4.224.77,6.316a37.715,37.715,0,0,0,1.094,4.428,43.986,43.986,0,0,0,4.21,9.37c.888,1.582,1.928,3.075,2.951,4.579,2.035,3,4.2,5.906,6.016,9.047a40.068,40.068,0,0,1,3.672,8.218,40.485,40.485,0,0,1,1.489,6.009,39.322,39.322,0,0,1,.39,4.388c.045,1.3.179,2.6.11,3.89-.216,4.02-.711,7.988-2.783,11.564a13.308,13.308,0,0,1-9.207,6.389,20.636,20.636,0,0,1-5.922.262,22.6,22.6,0,0,1-5.879-1.252,1,1,0,0,0-.948.089,13.1,13.1,0,0,1-6.645,1.823,15.578,15.578,0,0,1-5.371-.465,10.079,10.079,0,0,1-4.264-2.793c-.285-.313-.379-.328-.708-.065a39.711,39.711,0,0,1-7.987,5.037.875.875,0,0,0-.6.935q.034,5.761,0,11.521A2.286,2.286,0,0,0,77,121.832c1.647.7,3.312,1.353,4.972,2.019q4.231,1.7,8.466,3.388,4.1,1.643,8.193,3.289c2.8,1.118,5.664,2.083,8.347,3.457a10.748,10.748,0,0,1,5.03,5.7,14.988,14.988,0,0,1,1.132,4.924c.161,2.579.04,5.151.1,7.724.047,1.876-1.107,2.862-2.711,3.5-2.074.82-4.1,1.771-6.238,2.419a43.475,43.475,0,0,1-6.352,1.5c-1.718.25-3.431.535-5.151.768a11.234,11.234,0,0,1-1.492.008H62.928ZM70.5,112.865c-.006-.991-.025-1.983-.012-2.974.007-.491-.026-.654-.643-.493a25.681,25.681,0,0,1-5.815.979,26.8,26.8,0,0,1-8.014-.9c-.479-.135-.631-.053-.627.479.026,3.652.021,7.306.03,10.959a2.275,2.275,0,0,0,.108.662c.528,1.758,1.9,2.584,3.464,3.2a3.965,3.965,0,0,0,1.91.434,9.572,9.572,0,0,0,7.325-1.272,4.508,4.508,0,0,0,2.145-3.23,34.774,34.774,0,0,0,.108-3.651c.045-1.4.018-2.8.022-4.2M50.243,97.854a3.173,3.173,0,0,1-1.276,2.478c-.5.5-.345.765.178,1.034.715.368,1.427.742,2.14,1.113a24.2,24.2,0,0,0,10.755,2.855,18.626,18.626,0,0,0,4.523-.171,28.152,28.152,0,0,0,11.364-4.57c1.233-.863,2.438-1.755,3.586-2.723A43.673,43.673,0,0,0,90.285,87.42a2.219,2.219,0,0,0,.335-1.257c-.017-1.619-.047-3.239.011-4.856.026-.726-.3-.847-.855-.7a20.976,20.976,0,0,1-2.967.431c-2.117.259-4.261.327-6.36.674-2.788.46-5.606.428-8.4.713-2,.205-4.032.257-6.049.327-3.625.125-7.254,0-10.879-.133-.052,0-.105,0-.157,0-1.77-.155-3.538-.4-5.311-.442-1.5-.039-3-.187-4.476-.372-1.92-.239-3.851-.352-5.767-.6-1.359-.179-2.713-.387-4.125-.59A16.1,16.1,0,0,0,36.966,88a12.923,12.923,0,0,0,10.986,7.453,2.275,2.275,0,0,1,2.291,2.4M39.937,46.7a31.294,31.294,0,0,0-3.448,8.449,38.225,38.225,0,0,0-1.228,9.479c0,.493.133.613.611.6,1.23-.035,2.462.014,3.693-.023.542-.016.747.071.765.7a3.869,3.869,0,0,0,1.983,3.722,5.748,5.748,0,0,0,5.657-.2,5.039,5.039,0,0,0,2.38-3.816c.052-.3.116-.4.416-.394,1.415.011,2.829.007,4.243,0,.226,0,.423,0,.386.321A12.321,12.321,0,0,1,54.338,69.6a10.492,10.492,0,0,1-12.7,5.178,8.729,8.729,0,0,1-5.609-5.189c-.186-.439-.355-.886-.548-1.371-.092.125-.176.186-.177.247q-.022,3.408-.027,6.815a.4.4,0,0,0,.428.445c.846.065,1.686.213,2.526.287,2.412.216,4.81.565,7.219.778q3.819.338,7.645.623c3.06.228,6.138.211,9.206.341,1.779.075,3.545-.206,5.317-.156,2.043.059,4.068-.218,6.106-.259,1.375-.028,2.772-.239,4.154-.4.857-.1,1.717-.016,2.556-.15,1.737-.277,3.49-.389,5.232-.611q2.3-.293,4.6-.574a23.614,23.614,0,0,1,2.759-.3,3.417,3.417,0,0,1,2.359,1.13,9.7,9.7,0,0,0,.586-2.12,20.308,20.308,0,0,0,.933-3.457c.22-1.077.455-2.154.614-3.242.058-.4.194-.85-.271-1.208A28.521,28.521,0,0,1,90.6,58.429a113.283,113.283,0,0,1-7.535-15.074c-1.281-3-2.5-6.034-3.609-9.106-.2-.552-.428-.69-.967-.359-.6.367-1.252.642-1.882.957a2.342,2.342,0,0,1-2.442-.151c-1.37-.835-2.588-1.88-3.872-2.821q-2.428-1.78-4.81-3.646a1.267,1.267,0,0,0-1.219-.2,38.5,38.5,0,0,0-6.2,2.356,42.447,42.447,0,0,0-10.833,7.186A32.117,32.117,0,0,0,39.937,46.7M101,37.318c-.013-1.1-.372-2.153-.462-3.239a56.468,56.468,0,0,0-1.543-8.907A25.254,25.254,0,0,0,95.3,17.1a23.257,23.257,0,0,0-5.832-6.382c-3.725-2.589-7.733-3.939-12.311-2.577-.56.167-.6.348-.313.811a8.7,8.7,0,0,1,.976,2.38c.107.4.036.637-.413.75-1.162.291-2.327.578-3.467.941-.705.225-1.013.017-1.255-.652A12.175,12.175,0,0,0,70.335,8.4a10.521,10.521,0,0,0-8.063-3.361c-2.1-.053-4.19.2-6.286.294A59.413,59.413,0,0,0,45.822,6.957c-.447.1-.742.585-1.178.5a1.54,1.54,0,0,0-1.211.377,25.884,25.884,0,0,0-9.638,5.349,23.306,23.306,0,0,0-4.151,5.159A27.963,27.963,0,0,0,25.7,29.154c-.567,3.188-.727,6.439-1.43,9.611a48.864,48.864,0,0,1-5.507,14.3C16.372,57.136,13.487,60.888,11,64.9A39.784,39.784,0,0,0,6.137,75.957,38.714,38.714,0,0,0,5.2,82.51,25.071,25.071,0,0,0,6.541,93.731a8.309,8.309,0,0,0,4.459,5,13.9,13.9,0,0,0,7.514.947c.627-.086.686-.45.424-.957A35.331,35.331,0,0,1,16.3,91.793a36.032,36.032,0,0,1-1.169-8.248c-.024-.64.195-.825.8-.778.572.045,1.152.005,1.728,0l1.964.018c.266,0,.541-.026.538.375a27.926,27.926,0,0,0,.456,3.952,26.458,26.458,0,0,0,3.026,9.793,11.051,11.051,0,0,0,6.428,5.535,11.629,11.629,0,0,0,5.58.079,19.038,19.038,0,0,0,7.074-2.912,1.048,1.048,0,0,0-.649-.489,23.365,23.365,0,0,1-3.257-1.715A14.6,14.6,0,0,1,33.6,92.331a25.491,25.491,0,0,1-3.346-13.1c-.074-4.778-.014-9.558-.018-14.337a50.18,50.18,0,0,1,.455-6.538,38.265,38.265,0,0,1,6.343-16.619,42.564,42.564,0,0,1,7.079-7.979A41.813,41.813,0,0,1,49.005,30a61.487,61.487,0,0,1,9.782-5.288A36.458,36.458,0,0,1,63.9,22.953a3.537,3.537,0,0,1,3.222.308c2.67,2,5.387,3.929,8.04,5.946a1.092,1.092,0,0,0,1.334.164c.789-.408,1.573-.824,2.365-1.225,1.928-.977,3.4-.464,4.226,1.525.767,1.855,1.469,3.735,2.2,5.6.075.221.136.449.226.664a178.905,178.905,0,0,0,7.939,17.238,51.415,51.415,0,0,0,5.11,7.947,3.575,3.575,0,0,0,3.291,1.6,12.02,12.02,0,0,1,2.654.142,7.77,7.77,0,0,1,6.072,5.924,21.208,21.208,0,0,1-.163,6.917,18.625,18.625,0,0,1-6.76,11.55A13.112,13.112,0,0,1,95.3,90.3a1.363,1.363,0,0,0-1.194.75,55.659,55.659,0,0,1-5.123,6.6c-.757.809-.7,1.06.218,1.676a3.116,3.116,0,0,0,.841.411,13.213,13.213,0,0,0,6.028.381,4.241,4.241,0,0,0,3.062-1.61,1.694,1.694,0,0,1,1.68-.649,12.635,12.635,0,0,1,1.886.511,20.525,20.525,0,0,0,9.847,1.167,8.314,8.314,0,0,0,5.814-3.618c1.765-2.632,2.219-5.656,2.411-8.7A36.822,36.822,0,0,0,119.7,75.99a30.61,30.61,0,0,0-4.026-9.777c-2.237-3.366-4.482-6.724-6.819-10.023a27.075,27.075,0,0,1-1.889-3.169c-.477-.916-1.049-1.824-1.479-2.759-.572-1.244-1.208-2.462-1.741-3.731-.662-1.577-1.11-3.212-1.663-4.817a39.625,39.625,0,0,1-1.087-4.4M63.2,155.5c6.236,0,12.472.029,18.708-.011,3.579-.023,7.158.131,10.74-.12a44.844,44.844,0,0,0,6.507-.952,60.309,60.309,0,0,0,8.321-2.608.988.988,0,0,0,.744-1.152c-.091-2.1.045-4.207-.125-6.319A7.114,7.114,0,0,0,103.94,138c-2.1-.994-4.3-1.791-6.472-2.624-3.468-1.329-6.9-2.745-10.367-4.081-2.305-.889-4.6-1.827-6.883-2.8A48.819,48.819,0,0,1,74,125.879c-.373-.223-.543-.055-.775.177a10.9,10.9,0,0,1-2.6,2.314,15.771,15.771,0,0,1-5.892,1.975,16.923,16.923,0,0,1-6.16-.462,13.326,13.326,0,0,1-5.861-3.576c-.606-.635-.87-.472-1.464-.185-3.395,1.644-6.975,2.842-10.459,4.276-6.117,2.52-12.28,4.926-18.417,7.4a7.307,7.307,0,0,0-3.237,2.466,6.154,6.154,0,0,0-1.445,3.462c-.06,2.4-.016,4.806-.017,7.209a.847.847,0,0,0,.652.907,64.912,64.912,0,0,0,9.969,2.922,43.66,43.66,0,0,0,7,.709c9.3.077,18.6.031,27.9.032M97.586,84.777a1.561,1.561,0,0,0,1.016-.144A12.079,12.079,0,0,0,101.99,82a15.141,15.141,0,0,0,3.69-11.551c-.108-1.588-.7-2.315-2.495-2.7-.33-.071-.566-.04-.652.42-.165.874-.287,1.755-.445,2.629a57.6,57.6,0,0,1-2.622,9.509c-.552,1.515-1.241,2.971-1.88,4.465" transform="translate(0 0)" fill="#060707"/>
        <path id="Trazado_819650" data-name="Trazado 819650" d="M73.618,229.7c-9.3,0-18.6.045-27.9-.031a43.645,43.645,0,0,1-7-.71,64.986,64.986,0,0,1-9.969-2.921.848.848,0,0,1-.652-.908c0-2.4-.043-4.807.017-7.209a6.155,6.155,0,0,1,1.446-3.461,7.305,7.305,0,0,1,3.237-2.467c6.136-2.472,12.3-4.878,18.417-7.4,3.483-1.435,7.064-2.633,10.458-4.276.594-.287.859-.45,1.464.185a13.343,13.343,0,0,0,5.861,3.576,16.935,16.935,0,0,0,6.16.462,15.773,15.773,0,0,0,5.891-1.976,10.887,10.887,0,0,0,2.6-2.313c.232-.232.4-.4.776-.177a48.717,48.717,0,0,0,6.221,2.613c2.279.971,4.578,1.908,6.883,2.8,3.465,1.337,6.9,2.753,10.367,4.081,2.174.833,4.371,1.63,6.471,2.624a7.112,7.112,0,0,1,4.157,6.346c.17,2.112.034,4.215.125,6.319a.989.989,0,0,1-.744,1.152,60.312,60.312,0,0,1-8.321,2.607,44.908,44.908,0,0,1-6.506.953c-3.581.25-7.161.1-10.74.12-6.236.041-12.472.011-18.708.011" transform="translate(-10.416 -74.193)" fill="#55aa6e"/>
        <path id="Trazado_819651" data-name="Trazado 819651" d="M116.762,92.244a9.78,9.78,0,0,1-.586,2.121,3.416,3.416,0,0,0-2.359-1.13,23.485,23.485,0,0,0-2.759.3q-2.3.282-4.6.574c-1.742.222-3.5.333-5.232.611-.838.134-1.7.05-2.556.149-1.381.16-2.778.37-4.154.4-2.039.042-4.063.318-6.105.259-1.772-.05-3.538.231-5.317.156-3.068-.13-6.146-.113-9.206-.34q-3.823-.285-7.645-.624c-2.409-.213-4.807-.562-7.219-.778-.84-.075-1.68-.222-2.525-.287a.4.4,0,0,1-.429-.445q.007-3.408.028-6.815c0-.062.084-.123.176-.247.194.485.362.932.548,1.371a8.729,8.729,0,0,0,5.609,5.188,10.491,10.491,0,0,0,12.7-5.178,12.3,12.3,0,0,0,1.057-4.063c.038-.321-.16-.321-.386-.32-1.414,0-2.829.008-4.243,0-.3,0-.364.1-.415.394a5.04,5.04,0,0,1-2.381,3.816,5.746,5.746,0,0,1-5.657.2,3.868,3.868,0,0,1-1.983-3.721c-.018-.627-.223-.714-.765-.7-1.23.036-2.462-.012-3.693.023-.478.013-.613-.106-.611-.6a38.276,38.276,0,0,1,1.228-9.479,31.277,31.277,0,0,1,3.448-8.449,2.513,2.513,0,0,0,1.122-.615A23.539,23.539,0,0,0,63.919,61.6a67.889,67.889,0,0,1,8.515-7.154c2.019-1.433,4.1-2.727,6.239-3.957a32.773,32.773,0,0,1,4.191-2.062,1.152,1.152,0,0,1,1.49.5q1.236,1.8,2.469,3.6c2.2,3.192,4.319,6.439,6.438,9.685a.988.988,0,0,0,1.521.375c.918-.56,1.9-.994,2.855-1.477,1.162-.586,1.328-.515,1.778.654,1.284,3.332,2.712,6.6,4.234,9.83a3.736,3.736,0,0,1,.375,1.5c-2.3.03-4.607.223-6.807-.752-1.756-.778-3.1-1.876-3.4-3.883-.062-.416-.293-.35-.541-.351-1.31,0-2.622.039-3.93-.019-.632-.028-.637.3-.565.705a9.654,9.654,0,0,0,1.586,4.055c2.581,3.58,6.25,5.061,10.515,5.273,2.038.1,4.085.037,6.127.047a1.848,1.848,0,0,0,.376,1.168q1.064,1.9,2.14,3.787c-.68.01-1.36.026-2.04.03-1.184,0-1.126.008-1.265,1.21a3.663,3.663,0,0,1-2.374,3.417,13.039,13.039,0,0,1-1.812.344,5.009,5.009,0,0,1-5.7-4.4c-.013-.43-.111-.586-.566-.576-1.282.029-2.566.038-3.847,0-.542-.018-.659.177-.632.665a9.477,9.477,0,0,0,1.642,4.672,10.065,10.065,0,0,0,8.718,4.72,9.367,9.367,0,0,0,7.715-3.4,10.991,10.991,0,0,0,1.767-3.354,1.85,1.85,0,0,1,.93.654c1.364,1.9,2.657,3.868,4.7,5.151M62.843,78.135a36.966,36.966,0,0,0,5.992-.3c5.471-.974,8.558-3.827,9.82-9.155.108-.455.036-.6-.449-.589-1.334.025-2.669.015-4,0-.32,0-.475.036-.559.429a4.438,4.438,0,0,1-1.762,2.745,9.542,9.542,0,0,1-5.525,1.825c-2.38.054-4.762.035-7.143.009-.528-.006-.652.155-.638.654.034,1.251.04,2.505,0,3.756-.019.535.166.644.658.63,1.2-.033,2.407-.011,3.611-.009" transform="translate(-20.8 -17.928)" fill="#f8bca8"/>
        <path id="Trazado_819652" data-name="Trazado 819652" d="M71.054,145.371a2.275,2.275,0,0,0-2.291-2.4,12.921,12.921,0,0,1-10.986-7.453,16.1,16.1,0,0,1-1.685-7.394c1.411.2,2.766.411,4.125.59,1.916.253,3.847.365,5.767.6,1.478.184,2.973.333,4.476.372,1.773.046,3.541.286,5.311.442.052,0,.1,0,.157,0,3.625.133,7.254.258,10.879.133,2.016-.07,4.046-.122,6.048-.326,2.8-.286,5.616-.254,8.4-.714,2.1-.347,4.244-.415,6.36-.673a21.1,21.1,0,0,0,2.967-.432c.556-.15.881-.029.855.7-.057,1.617-.028,3.237-.011,4.856a2.229,2.229,0,0,1-.335,1.257,43.675,43.675,0,0,1-8.772,10.449c-1.149.968-2.353,1.86-3.586,2.723a28.159,28.159,0,0,1-11.364,4.57,18.627,18.627,0,0,1-4.523.171A24.183,24.183,0,0,1,72.1,149.995a2.709,2.709,0,0,1,.252-.949c.47-1,.848-2.051,1.259-3.083.172-.434.025-.633-.45-.619-.7.02-1.4.019-2.1.026" transform="translate(-20.811 -47.517)" fill="#f6f8fa"/>
        <path id="Trazado_819653" data-name="Trazado 819653" d="M122.7,78.956a30.62,30.62,0,0,0-4.026-9.777c-2.237-3.366-4.483-6.724-6.819-10.022a27.078,27.078,0,0,1-1.889-3.169c-.476-.916-1.049-1.824-1.478-2.759-.572-1.244-1.209-2.462-1.741-3.731-.662-1.577-1.11-3.212-1.663-4.817a39.485,39.485,0,0,1-1.087-4.4c-.013-1.1-.372-2.153-.462-3.239a56.467,56.467,0,0,0-1.542-8.907,25.254,25.254,0,0,0-3.691-8.07,23.267,23.267,0,0,0-5.832-6.382C88.74,11.1,84.732,9.748,80.153,11.11c-.56.167-.6.348-.313.811a8.7,8.7,0,0,1,.975,2.38c.108.4.036.637-.413.75-1.162.291-2.327.578-3.467.941-.705.225-1.013.017-1.255-.652a12.155,12.155,0,0,0-2.35-3.979A10.521,10.521,0,0,0,65.268,8c-2.1-.053-4.19.2-6.286.294A59.394,59.394,0,0,0,48.819,9.923c-.447.1-.742.585-1.178.5a1.54,1.54,0,0,0-1.212.377,25.884,25.884,0,0,0-9.638,5.349A23.321,23.321,0,0,0,32.64,21.3,27.943,27.943,0,0,0,28.7,32.12c-.567,3.188-.728,6.439-1.431,9.611a48.863,48.863,0,0,1-5.506,14.3C19.368,60.1,16.484,63.854,14,67.864A39.8,39.8,0,0,0,9.133,78.923a38.705,38.705,0,0,0-.938,6.553A25.081,25.081,0,0,0,9.538,96.7a8.307,8.307,0,0,0,4.459,5,13.9,13.9,0,0,0,7.514.947c.627-.086.686-.449.423-.957A35.351,35.351,0,0,1,19.3,94.759a36.1,36.1,0,0,1-1.169-8.248c-.024-.64.195-.825.8-.778.573.045,1.152.005,1.728,0l1.964.018c.266,0,.541-.026.538.376a27.927,27.927,0,0,0,.456,3.952,26.447,26.447,0,0,0,3.026,9.793,11.047,11.047,0,0,0,6.428,5.535,11.635,11.635,0,0,0,5.579.079,19.041,19.041,0,0,0,7.075-2.912,1.046,1.046,0,0,0-.649-.489,23.363,23.363,0,0,1-3.257-1.715A14.6,14.6,0,0,1,36.6,95.3a25.491,25.491,0,0,1-3.346-13.1c-.074-4.778-.014-9.558-.018-14.337a50.29,50.29,0,0,1,.454-6.538,38.274,38.274,0,0,1,6.344-16.619,42.564,42.564,0,0,1,7.079-7.979A41.814,41.814,0,0,1,52,32.97a61.563,61.563,0,0,1,9.781-5.288A36.544,36.544,0,0,1,66.9,25.919a3.537,3.537,0,0,1,3.222.308c2.67,1.994,5.387,3.929,8.04,5.946a1.092,1.092,0,0,0,1.334.164c.789-.408,1.573-.824,2.365-1.225,1.927-.977,3.4-.464,4.226,1.525.767,1.855,1.469,3.735,2.2,5.6.075.221.136.448.226.664a178.907,178.907,0,0,0,7.939,17.238,51.459,51.459,0,0,0,5.11,7.947,3.576,3.576,0,0,0,3.291,1.6,12.024,12.024,0,0,1,2.655.142,7.771,7.771,0,0,1,6.072,5.924,21.208,21.208,0,0,1-.163,6.917,18.63,18.63,0,0,1-6.76,11.55,13.113,13.113,0,0,1-8.363,3.043,1.361,1.361,0,0,0-1.194.75,55.657,55.657,0,0,1-5.123,6.6c-.757.808-.7,1.06.217,1.676a3.128,3.128,0,0,0,.842.411,13.2,13.2,0,0,0,6.028.381,4.242,4.242,0,0,0,3.062-1.61,1.694,1.694,0,0,1,1.68-.649,12.654,12.654,0,0,1,1.886.511,20.525,20.525,0,0,0,9.847,1.167,8.315,8.315,0,0,0,5.814-3.618c1.765-2.632,2.219-5.656,2.41-8.7A36.822,36.822,0,0,0,122.7,78.956" transform="translate(-2.996 -2.966)" fill="#302a29"/>
        <path id="Trazado_819654" data-name="Trazado 819654" d="M106.784,71.654a3.726,3.726,0,0,0-.375-1.5c-1.523-3.229-2.951-6.5-4.234-9.83-.45-1.169-.616-1.239-1.779-.654-.956.482-1.936.916-2.855,1.477a.988.988,0,0,1-1.521-.375c-2.119-3.246-4.239-6.493-6.438-9.684q-1.237-1.8-2.469-3.6a1.152,1.152,0,0,0-1.49-.5,32.855,32.855,0,0,0-4.191,2.062c-2.135,1.23-4.22,2.524-6.239,3.958a67.884,67.884,0,0,0-8.515,7.153,23.472,23.472,0,0,1-2.061,2.421A2.515,2.515,0,0,1,63.5,63.2a32.125,32.125,0,0,1,7.291-9.133A42.431,42.431,0,0,1,81.621,46.88a38.5,38.5,0,0,1,6.2-2.356,1.264,1.264,0,0,1,1.219.2q2.378,1.86,4.81,3.646c1.284.941,2.5,1.986,3.873,2.821a2.339,2.339,0,0,0,2.441.15c.63-.315,1.284-.589,1.883-.957.539-.331.767-.193.967.359,1.11,3.072,2.328,6.1,3.61,9.105a113.179,113.179,0,0,0,7.535,15.075A28.488,28.488,0,0,0,120.8,82.9c.464.358.328.812.27,1.208-.159,1.088-.394,2.164-.613,3.242a20.418,20.418,0,0,1-.933,3.456c-2.046-1.282-3.339-3.25-4.7-5.151a1.848,1.848,0,0,0-.93-.654,3.737,3.737,0,0,1,.268-1.413c.311-1.6.106-1.866-1.482-1.883-.13,0-.26-.016-.391-.025q-1.071-1.893-2.14-3.786a1.854,1.854,0,0,1-.376-1.168c.623.054,1.218-.336,1.892-.031,0-1.574-.016-3.057.01-4.541.008-.466-.221-.486-.576-.485-1.437,0-2.874-.011-4.311-.02" transform="translate(-23.559 -16.494)" fill="#dfa28f"/>
        <path id="Trazado_819655" data-name="Trazado 819655" d="M106.132,179.441c0,1.4.023,2.8-.022,4.2a35.092,35.092,0,0,1-.108,3.649,4.51,4.51,0,0,1-2.145,3.23,9.572,9.572,0,0,1-7.325,1.272A6.356,6.356,0,0,0,96.2,190.2a34.436,34.436,0,0,1-.116-5.377A5.311,5.311,0,0,1,97.552,181a5.226,5.226,0,0,1,3.8-1.544c1.593-.03,3.188-.012,4.782-.016" transform="translate(-35.63 -66.576)" fill="#f8bca8"/>
        <path id="Trazado_819656" data-name="Trazado 819656" d="M103.175,177.362c-1.594,0-3.189-.014-4.782.016a5.226,5.226,0,0,0-3.8,1.544,5.311,5.311,0,0,0-1.472,3.822,34.436,34.436,0,0,0,.116,5.377,6.355,6.355,0,0,1,.336,1.591,3.97,3.97,0,0,1-1.91-.434c-1.566-.614-2.936-1.44-3.464-3.2a2.275,2.275,0,0,1-.108-.662c-.009-3.653,0-7.306-.03-10.959,0-.532.149-.613.627-.479a26.786,26.786,0,0,0,8.014.9,25.721,25.721,0,0,0,5.815-.979c.618-.161.65,0,.643.493-.013.991.006,1.983.012,2.973" transform="translate(-32.673 -64.497)" fill="#dfa28f"/>
        <path id="Trazado_819657" data-name="Trazado 819657" d="M155.151,124.726c.639-1.494,1.328-2.95,1.88-4.465a57.6,57.6,0,0,0,2.622-9.509c.157-.874.28-1.755.445-2.629.086-.459.322-.491.652-.42,1.79.383,2.387,1.111,2.495,2.7a15.141,15.141,0,0,1-3.69,11.55,12.08,12.08,0,0,1-3.388,2.63,1.561,1.561,0,0,1-1.016.144" transform="translate(-57.565 -39.95)" fill="#fbb57b"/>
        <path id="Trazado_819658" data-name="Trazado 819658" d="M78.948,155.56c.7-.008,1.4-.007,2.1-.026.475-.014.622.185.45.619-.41,1.032-.789,2.079-1.259,3.083a2.71,2.71,0,0,0-.252.948c-.714-.371-1.426-.745-2.141-1.113-.523-.269-.676-.533-.179-1.034a3.172,3.172,0,0,0,1.277-2.478" transform="translate(-28.705 -57.707)" fill="#cecdcd"/>
        <path id="Trazado_819659" data-name="Trazado 819659" d="M130.3,103.645c.13.009.26.024.391.025,1.588.017,1.793.282,1.482,1.883a3.735,3.735,0,0,0-.268,1.413,10.977,10.977,0,0,1-1.767,3.354,9.367,9.367,0,0,1-7.715,3.4,10.064,10.064,0,0,1-8.718-4.72,9.465,9.465,0,0,1-1.642-4.672c-.028-.487.09-.682.631-.665,1.281.042,2.566.033,3.847,0,.456-.01.553.147.566.576a5.01,5.01,0,0,0,5.7,4.4,13.047,13.047,0,0,0,1.813-.344A3.662,3.662,0,0,0,127,104.884c.14-1.2.082-1.205,1.265-1.21.68,0,1.36-.02,2.04-.03" transform="translate(-41.578 -38.455)" fill="#060707"/>
        <path id="Trazado_819660" data-name="Trazado 819660" d="M64.325,89.8c-1.2,0-2.408-.023-3.61.011-.492.014-.677-.094-.659-.63.043-1.25.036-2.5,0-3.756-.014-.5.111-.66.638-.654,2.381.026,4.763.046,7.143-.008a9.546,9.546,0,0,0,5.525-1.826,4.438,4.438,0,0,0,1.762-2.745c.084-.392.238-.431.559-.429,1.334.011,2.669.021,4,0,.485-.009.557.134.449.589-1.262,5.328-4.349,8.182-9.82,9.155a36.752,36.752,0,0,1-5.992.3" transform="translate(-22.282 -29.591)" fill="#060707"/>
        <path id="Trazado_819661" data-name="Trazado 819661" d="M123.309,84.745c1.437.008,2.874.023,4.311.019.355,0,.584.019.576.485-.026,1.483-.01,2.967-.01,4.541-.674-.305-1.269.085-1.892.031-2.042-.011-4.089.053-6.127-.048-4.266-.211-7.934-1.693-10.516-5.272a9.657,9.657,0,0,1-1.586-4.056c-.072-.4-.066-.733.565-.705,1.307.058,2.619.016,3.929.019.248,0,.479-.065.541.351.3,2.006,1.645,3.1,3.4,3.883,2.2.975,4.507.782,6.807.752" transform="translate(-40.084 -29.585)" fill="#060707"/>
      </g>
    </g>
  </g>
</svg>
