<svg xmlns="http://www.w3.org/2000/svg" xmlns:xlink="http://www.w3.org/1999/xlink" width="169" height="169" viewBox="0 0 169 169">
  <defs>
    <clipPath id="clip-path">
      <rect id="Rect치ngulo_377602" data-name="Rect치ngulo 377602" width="105.96" height="105.96" fill="none"/>
    </clipPath>
  </defs>
  <g id="Grupo_1073333" data-name="Grupo 1073333" transform="translate(-719 -2877.811)">
    <g id="Grupo_1073327" data-name="Grupo 1073327" transform="translate(334 819.811)">
      <g id="Grupo_159182" data-name="Grupo 159182" transform="translate(385.001 2058)">
        <path id="Uni칩n_12" data-name="Uni칩n 12" d="M84.5,0A84.5,84.5,0,1,1,0,84.5,84.5,84.5,0,0,1,84.5,0Z" transform="translate(0 0)" fill="#ffae7e"/>
      </g>
    </g>
    <g id="Grupo_1073332" data-name="Grupo 1073332" transform="translate(750 2909.811)">
      <g id="Grupo_1073331" data-name="Grupo 1073331" clip-path="url(#clip-path)">
        <path id="Trazado_820908" data-name="Trazado 820908" d="M129.086,101.688c.533.29.931.674.778,1.344-.165.722-.775.86-1.382.96-.561.092-1.29-.264-1.664.185-.418.5-.134,1.261-.154,1.906-.03.962,0,1.926-.01,2.889,0,.331,0,.583.466.609,3.2.182,5.892,1.656,8.415,3.479.489.354.7.176,1.019-.133a32.915,32.915,0,0,1,3.119-2.98c.344-.252.195-.411-.021-.622-.442-.432-.881-.869-1.3-1.319a1.168,1.168,0,0,1-.081-1.727,1.128,1.128,0,0,1,1.783-.046c1.584,1.646,3.492,2.964,4.865,4.82a1.252,1.252,0,0,1-1.8,1.74c-1.419-1.236-1.386-1.19-2.848.1-.742.654-1.457,1.332-2.185,2-.36.33-.348.521-.022.9a13.381,13.381,0,0,1,3.191,7.638c.055.6.3.978,1.033.95,1.374-.053,2.752-.039,4.127,0,.591.016.813-.177.759-.765-.037-.409.008-.825,0-1.238-.019-.854.419-1.224,1.244-1.244a1.167,1.167,0,0,1,1.355,1.275c.026,2.059,0,4.119.021,6.178.01.8-.589,1.2-1.07,1.578-.526.417-1.341-.047-1.492-.727a3.01,3.01,0,0,1-.052-.409c-.165-2.038-.164-2.039-2.276-2.038-1,0-2,.007-2.993.011-.362-.146-.411.078-.416.353-.252,1.026-.484,2.059-.76,3.078a14.457,14.457,0,0,1-2.752,5.221c-.316.4-.306.628.031.94q1.581,1.461,3.15,2.934a.5.5,0,0,0,.8,0c.374-.34.771-.654,1.167-.968a1.161,1.161,0,0,1,1.721.108c.511.512.432.979-.006,1.528a63.014,63.014,0,0,1-4.751,4.891,1.355,1.355,0,0,1-1.584.3,1.154,1.154,0,0,1-.751-1.1c-.025-.632.628-.912.883-1.417a2.673,2.673,0,0,1,.645-.661c.427-.388.383-.6-.1-1a34.87,34.87,0,0,1-2.725-2.67c-.443-.46-.706-.616-1.313-.073a13.131,13.131,0,0,1-4.633,2.547c-1.143.384-2.356.572-3.5,1-.341-.037-.5.074-.345.431,0,1.342.015,2.685-.023,4.025-.016.548.17.71.705.7a10.056,10.056,0,0,1,1.4.114c.986.121,1.252.687,1.105,1.448-.13.673-.345,1.249-1.44,1.138a50.309,50.309,0,0,0-5.98-.045,1.445,1.445,0,0,1-1.67-1.24.969.969,0,0,1,.654-1.307,1.606,1.606,0,0,1,.583-.118c2.037-.121,2.038-.119,2.037-2.134,0-.723-.007-1.445-.011-2.168.084-.276.2-.582-.053-.8a.306.306,0,0,0-.484.125c-.907-.671-2.034-.586-3.044-.895a16.332,16.332,0,0,1-5.168-2.71.719.719,0,0,0-1.114.06c-.949.9-1.851,1.844-2.8,2.74-.36.339-.26.55.043.827.38.347.749.711,1.1,1.091a1.224,1.224,0,0,1-.055,1.926,1.333,1.333,0,0,1-1.837-.093c-.886-.834-1.8-1.657-2.69-2.471a15.077,15.077,0,0,1-2.164-2.523,1.127,1.127,0,0,1,.272-1.609,1.356,1.356,0,0,1,1.608-.072.832.832,0,0,1,.16.128c1.463,1.228,1.45,1.215,2.834-.13a9.061,9.061,0,0,1,1.9-1.707c.364-.2.377-.446.07-.8a15.331,15.331,0,0,1-3.755-8.508c-.04-.382-.211-.44-.524-.438-1.376.007-2.752.018-4.127-.006-.5-.008-.682.188-.655.668.021.377.011.757,0,1.134-.043,1.064-.42,1.4-1.411,1.444-1.034.045-1.195-.6-1.2-1.386q-.016-3.179,0-6.358c0-.8.2-1.4,1.222-1.367a1.256,1.256,0,0,1,1.391,1.367c.107,1.877.116,1.876,2.013,1.876.894,0,1.789-.013,2.682,0,.406.008.57-.078.625-.553a14.974,14.974,0,0,1,3.5-8.339c.337-.387.347-.573-.021-.855a30.939,30.939,0,0,1-3-2.786c-.328-.327-.6-.231-.872.06-.236.249-.5.475-.723.734a1.281,1.281,0,0,1-1.827.257c-.617-.488-.547-1.217-.07-1.911a14.2,14.2,0,0,1,2.4-2.518c.766-.679,1.51-1.374,2.234-2.095.578-.575,1.243-.763,1.864-.165a1.218,1.218,0,0,1-.053,1.876c-.023.025-.049.048-.072.073-1.366,1.494-1.368,1.5.064,2.918.509.5,1.076.958,1.576,1.458.608.607.968.481,1.563,0a13.991,13.991,0,0,1,7.284-2.949c.851-.1,1.473-.2,1.356-1.336a26.647,26.647,0,0,1-.016-3.4c.013-.495-.15-.65-.646-.652a4.209,4.209,0,0,1-1.611-.113c-.788-.306-1.293-.768-1.177-1.645.121-.917.843-1.046,1.6-1.049,2.13-.009,4.261-.008,6.391-.011.068.25.214.381.486.317m9.885,24.092c0-7.844-6.408-13.84-14.81-13.714-3.88.058-6.956,2.033-9.469,4.8a13.038,13.038,0,0,0-3.345,9.953,13.827,13.827,0,0,0,4.929,9.347,13.4,13.4,0,0,0,10.712,3.293c5.4-.488,11.95-5.9,11.985-13.684" transform="translate(-72.47 -72.801)" fill="#040405"/>
        <path id="Trazado_820909" data-name="Trazado 820909" d="M21.673,274.765c.516,0,1.033.02,1.548,0,.727-.034,1.375.05,1.559.909s-.325,1.336-1.023,1.67c-.367.176-.919-.017-.867.8.056.886.68.473,1.027.615A11.1,11.1,0,0,1,26.634,280c.3.228.578.316.876-.025.251-.287.556-.5.217-.952a1.138,1.138,0,0,1,.25-1.769,1.36,1.36,0,0,1,1.856.178c.676.675,1.367,1.335,2.092,1.964.492.427,1.034,1.185.473,1.829a1.327,1.327,0,0,1-2.051.185c-.527-.532-.7-.008-.963.229-.284.255-.635.426-.206.972a5.429,5.429,0,0,1,1.183,2.941c.041.539.375.57.785.57.435,0,.87.008.874-.589,0-.53.132-.953.731-1.043a2.146,2.146,0,0,1,1.822.421.334.334,0,0,1,.111.264c-.331,1.338.026,2.7-.115,4.026a1.455,1.455,0,0,1-1.582,1.153.932.932,0,0,1-.954-1.076c.045-.443-.222-.554-.565-.467-.366.093-.919-.337-1.083.328a7.906,7.906,0,0,1-1.265,2.95c-.249.33-.242.628.139.837.28.154.28.8.924.356a1.276,1.276,0,0,1,1.8.4c.445.621.16,1.179-.261,1.75a15.5,15.5,0,0,1-2.409,2.137,1.293,1.293,0,0,1-1.913-.11,1.166,1.166,0,0,1,.087-1.716c.192-.21.588-.3.19-.674-.27-.253-.487-.668-.934-.429a17.735,17.735,0,0,1-3.535,1.417c-.592.169-.176.825-.258,1.25s.283.373.545.37c.871-.01,1.325.382,1.3,1.286-.021.933-.565,1.246-1.4,1.188-1.131-.079-2.223.326-3.36.222a1.652,1.652,0,0,1-1.405-2.122.862.862,0,0,1,.88-.574c.344.012.8.144.742-.507-.049-.545.18-1.217-.66-1.342a6.652,6.652,0,0,1-2.2-.918c-.458-.251-.89-.526-1.344.026-.31.376-.828.592-.222,1.232a1.027,1.027,0,0,1-.239,1.389,1.351,1.351,0,0,1-1.6.171,14.375,14.375,0,0,1-2.809-2.694,1.2,1.2,0,0,1,.232-1.483,1.117,1.117,0,0,1,1.717-.163c.548.6.736.154,1.118-.119a.689.689,0,0,0,.081-1.184,4.228,4.228,0,0,1-1.276-2.765c-.06-.635-.389-.528-.74-.512s-.764-.21-.907.445a1.291,1.291,0,0,1-2.187.8.763.763,0,0,1-.322-.6c.018-1.375-.028-2.753.02-4.127.037-1.037.891-.929,1.524-.825.482.079,1.346.082.977,1.049-.1.268.047.392.211.5a.428.428,0,0,0,.633-.121c.415-.657,1.118-1.11,1.266-1.971.07-.406.445-.749.6-1.153.108-.285.6-.529.115-.95-.382-.332-.727-.7-1.231-.36a1.04,1.04,0,0,1-1.7-.354,1.407,1.407,0,0,1,.343-1.838c.617-.545,1.178-1.155,1.758-1.742a1.6,1.6,0,0,1,2.052-.36c.733.457.6,1.24.149,1.888-.262.377.044.5.214.661.191.18.3.566.735.282a10.962,10.962,0,0,1,3.307-1.364c.482-.125.343-.594.371-.959.037-.488-.317-.41-.609-.474-.861-.188-1.077-.822-1.043-1.6.035-.8.58-.892,1.22-.875.619.017,1.238,0,1.858,0M27.9,287.277c.511-3.255-2.991-5.932-5.786-6.173-3.738-.323-6.784,3.284-6.7,6.223a6.5,6.5,0,0,0,6.3,6.215c3.023-.079,6.554-2.49,6.187-6.264" transform="translate(-6.391 -197.318)" fill="#040405"/>
        <path id="Trazado_820910" data-name="Trazado 820910" d="M287.742,274.742c.585,0,1.17.01,1.754,0,.633-.014,1.168.055,1.238.87.069.8-.089,1.448-.981,1.605-.4.07-.736.035-.689.607.036.439.037.759.612.873a9.743,9.743,0,0,1,2.855,1.2c.322.182.733.491,1.077.007.232-.325.584-.554.124-1.1a1.09,1.09,0,0,1,.332-1.541,1.326,1.326,0,0,1,1.7-.013,23.4,23.4,0,0,1,2.351,2.309,1.235,1.235,0,0,1,.022,1.671c-.431.493-1.053.845-1.7.331-.466-.373-.717-.151-1.036.161-.341.334-.4.565-.1,1.037a5.482,5.482,0,0,1,1.011,2.622c.022.4.183.8.753.723.443-.058,1.012.172,1.108-.567.114-.877.73-.975,1.435-.878.754.1.937.691,1.015,1.317a21.328,21.328,0,0,1-.221,3.363c-.027.81-.8.91-1.43.977a.916.916,0,0,1-.98-.92c-.018-.964-.672-.517-1.078-.609-.634-.143-.557.294-.645.715a6.263,6.263,0,0,1-1.155,2.559c-.556.711.006.935.317,1.342.372.486.61.262.963-.047a1.27,1.27,0,0,1,1.68.063,1.084,1.084,0,0,1,.184,1.5,7.573,7.573,0,0,1-2.975,2.837,1.056,1.056,0,0,1-1.366-.287.965.965,0,0,1-.162-1.29c.382-.535.134-.836-.237-1.181a.875.875,0,0,0-1.294-.076,6.858,6.858,0,0,1-2.517.975c-.519.092-.711.344-.655.89.049.48.037.856.692.894.893.052,1.024.675.99,1.45a1.219,1.219,0,0,1-1.258,1.183,23.3,23.3,0,0,1-3.5.018A1.458,1.458,0,0,1,284.551,299c-.114-.793.3-1.2,1.107-1.395.329-.081,1.108.089.968-.813-.083-.536-.062-.777-.766-.841a5.442,5.442,0,0,1-2.639-1.114.868.868,0,0,0-1.318.151c-.5.526.015.675.187.989a1.089,1.089,0,0,1-.083,1.407,1.356,1.356,0,0,1-1.653.359c-1.272-.606-1.948-1.909-3.1-2.674-.172-.114-.12-1.1.244-1.5a1.182,1.182,0,0,1,1.645-.3c.545.423.815.2,1.2-.17.484-.463.138-.726-.1-1.124a7.384,7.384,0,0,1-1.1-2.574c-.058-.341-.219-.706-.741-.623-.4.064-.86-.143-.967.553a1.292,1.292,0,0,1-1.632.98,1.348,1.348,0,0,1-.949-1.515c.037-.962.013-1.926.008-2.889,0-.709.193-1.294.976-1.449a1.251,1.251,0,0,1,1.652,1.077c.073.407.126.619.592.577.415-.037.79.025.9-.569a8.113,8.113,0,0,1,1.272-3.023c.268-.393.279-.582-.064-.89s-.619-.68-1.111-.266a1.269,1.269,0,0,1-1.65.164,1.169,1.169,0,0,1-.211-1.829c.743-.762,1.519-1.492,2.252-2.264a1.39,1.39,0,0,1,.983-.427c1.35-.12,1.74.527,1.218,1.87-.225.58.147.627.327.864.2.262.377.5.822.19a7.444,7.444,0,0,1,3.227-1.294.658.658,0,0,0,.575-.8c-.043-.516-.362-.366-.641-.412a1.51,1.51,0,0,1-1.436-1.622c.137-.969.816-1.13,1.654-1.064.513.04,1.031.008,1.547.008m.023,18.783c3.362-.209,6.3-2.651,6.231-6.312-.063-3.188-2.159-6.322-7.089-6.058a6.275,6.275,0,0,0-5.455,6.92,6.559,6.559,0,0,0,6.314,5.449" transform="translate(-197.382 -197.295)" fill="#040405"/>
        <path id="Trazado_820911" data-name="Trazado 820911" d="M21.67,9.482c.585,0,1.169-.01,1.754,0a1.181,1.181,0,0,1,1.3,1.144c.08.822-.292,1.472-1.111,1.522-.681.042-.75.27-.762.844-.012.635.145.805.819.9a6.107,6.107,0,0,1,2.671,1.088c.525.382.768.3,1.2-.087s.41-.614.092-1.051a1.073,1.073,0,0,1,.174-1.548,1.191,1.191,0,0,1,1.576-.124,15.467,15.467,0,0,1,2.887,2.76.968.968,0,0,1-.212,1.375c-.494.363-1.068.717-1.638.177-.377-.356-.641-.434-1-.014-.3.353-.754.618-.342,1.191A7.006,7.006,0,0,1,30.314,20.6c.083.487.414.466.765.467.379,0,.8.055.877-.468.123-.861.607-1.324,1.459-1.179.881.15,1.023.878,1.022,1.641,0,.894.012,1.789,0,2.683-.012.686-.222,1.3-.986,1.44-.8.149-1.4-.067-1.49-1.041-.069-.769-.691-.286-1.049-.377-.267-.068-.563-.108-.612.41a6.006,6.006,0,0,1-1.115,2.889c-.2.286-.5.637-.052.969.312.233.417.8,1.1.338a1.271,1.271,0,0,1,1.7.484,1.217,1.217,0,0,1-.243,1.66c-.78.76-1.582,1.5-2.418,2.2a1.328,1.328,0,0,1-1.85-.007,1.187,1.187,0,0,1-.031-1.8c.211-.253.663-.424.2-.9-.4-.409-.705-.535-1.208-.187a7.348,7.348,0,0,1-3.2,1.338c-.5.068-.257.468-.3.728-.067.371.065.528.491.552.666.038,1.279.247,1.361,1.074A1.263,1.263,0,0,1,23.361,35.1c-1.134.03-2.271-.023-3.4.017a1.2,1.2,0,0,1-1.4-1.018,1.294,1.294,0,0,1,1.013-1.635c.428-.1.63-.119.652-.64A.707.707,0,0,0,19.548,31a7.8,7.8,0,0,1-2.556-1.109c-.4-.222-.646-.469-1,.013-.278.381-.869.6-.319,1.257a1.081,1.081,0,0,1-.153,1.559,1.314,1.314,0,0,1-1.677.107A11.069,11.069,0,0,1,11.3,30.2a1.144,1.144,0,0,1,.119-1.5,1.061,1.061,0,0,1,1.545-.235c.658.532.8-.132,1.144-.347.45-.28.315-.663.093-.96a7.31,7.31,0,0,1-1.192-2.96c-.164-.779-.681-.353-1.034-.428-.308-.067-.694-.128-.669.452.045,1.043-.716.951-1.423.987-.816.042-1-.492-1.025-1.1-.044-1.168-.036-2.339,0-3.508a1.118,1.118,0,0,1,1.129-1.2c.75-.053,1.276.263,1.329,1.05.041.614.41.612.846.613.4,0,.7-.025.824-.541A6.479,6.479,0,0,1,14.2,17.8c.565-.673-.015-.9-.315-1.29-.372-.487-.64-.379-1.046,0a.913.913,0,0,1-1.419-.18,1.293,1.293,0,0,1-.053-1.765,25.871,25.871,0,0,1,2.277-2.311,1.3,1.3,0,0,1,1.615-.1,1.17,1.17,0,0,1,.312,1.572c-.3.618.1.805.373,1.11.328.368.665.3,1.083.063a10.885,10.885,0,0,1,2.22-.919c.379-.115,1-.07.958-.816-.029-.567.015-.919-.767-1.09a1.3,1.3,0,0,1-.891-1.636,1.289,1.289,0,0,1,1.471-.964c.549.026,1.1.005,1.65.006m0,6.839c-3.813,0-6.478,2.75-6.4,6.891.048,2.518,3.031,5.532,6.1,5.46a6.27,6.27,0,0,0,6.455-6.233c.029-3.16-2.648-6.373-6.155-6.118" transform="translate(-6.337 -6.803)" fill="#040405"/>
        <path id="Trazado_820912" data-name="Trazado 820912" d="M287.667,9.475c.55,0,1.1.008,1.65,0,.72-.012,1.307.224,1.409,1,.1.74.027,1.451-.977,1.585a.7.7,0,0,0-.7.854c.048.534.09.876.735.99a8.8,8.8,0,0,1,2.666,1.119c.269.149.642.586.942.028.206-.384.918-.581.421-1.255a1.057,1.057,0,0,1,.232-1.535,1.182,1.182,0,0,1,1.58-.061,10.1,10.1,0,0,1,2.572,2.61,1.035,1.035,0,0,1-.1,1.456c-.5.427-1.108.788-1.715.211-.58-.552-.738.1-1.042.3a.592.592,0,0,0-.183.977,5.348,5.348,0,0,1,1.146,2.765c.032.455.306.587.7.546.434-.045,1.039.235,1.161-.491.154-.916.806-1.03,1.521-.933.76.1.87.756.951,1.377a24.716,24.716,0,0,1-.217,3.26,1.12,1.12,0,0,1-1.123,1.1A1.235,1.235,0,0,1,298,24.308c-.084-.886-.643-.494-1.022-.548-.462-.067-.652.171-.685.659a5.968,5.968,0,0,1-1.21,2.858c-.33.495-.1.663.181.9.305.265.523.8,1.088.37a1.181,1.181,0,0,1,1.787.19,1.3,1.3,0,0,1-.152,1.831,9.548,9.548,0,0,1-2.574,2.3,1.153,1.153,0,0,1-1.533-.274,1.037,1.037,0,0,1-.017-1.477c.55-.6-.008-.782-.267-1.1-.3-.372-.614-.638-1.1-.265A6.19,6.19,0,0,1,289.684,31c-.455.075-.655.341-.632.854.02.444.156.528.579.6a1.245,1.245,0,0,1,1.1,1.619c-.135.8-.743,1-1.413,1.024-1,.037-1.995.01-2.992.009a1.63,1.63,0,0,1-1.791-1.253c-.069-.871.379-1.313,1.554-1.415.405-.035.572-.15.506-.54-.049-.288.2-.694-.4-.76a7.2,7.2,0,0,1-3.244-1.292c-.6-.408-.683.059-.964.257-.339.239-.421.5-.088.831a1.077,1.077,0,0,1,.021,1.7,1.334,1.334,0,0,1-1.929.072c-.846-.753-1.642-1.566-2.409-2.4a1.138,1.138,0,0,1,0-1.581,1.06,1.06,0,0,1,1.539-.307c.725.605.846-.142,1.2-.369.519-.336.125-.584-.082-.893a8.6,8.6,0,0,1-1.24-2.95c-.113-.516-.369-.488-.7-.456s-.714-.2-.833.433a1.311,1.311,0,0,1-1.528,1.169,1.437,1.437,0,0,1-1.095-1.623c.041-.962-.017-1.927.019-2.889.027-.714.209-1.373,1.109-1.439a1.289,1.289,0,0,1,1.521,1.147c.052.28.01.558.43.515.388-.04.869.138,1.038-.4a12.856,12.856,0,0,1,1.556-3.376c.285-.427-.319-.587-.518-.861-.144-.2-.33-.479-.665-.189a2.357,2.357,0,0,1-.6.373,1.258,1.258,0,0,1-1.558-.365,1.1,1.1,0,0,1,.043-1.571A34.682,34.682,0,0,1,280,12.118a1.258,1.258,0,0,1,1.595.173,1.134,1.134,0,0,1,.132,1.5c-.578.713.13.88.359,1.242.324.514.694.118.948-.062A7.16,7.16,0,0,1,285.9,13.83c.67-.129.7-.546.714-1.1.019-.6-.33-.5-.708-.561a1.409,1.409,0,0,1-1.349-1.506,1.217,1.217,0,0,1,1.461-1.194c.548.034,1.1.006,1.65.005m6.36,12.992a6.087,6.087,0,0,0-5.835-6.134c-4.294-.119-6.64,2.32-6.758,6.852-.061,2.34,3.3,5.6,5.869,5.491,3.747-.159,6.459-2.223,6.724-6.209" transform="translate(-197.379 -6.798)" fill="#040405"/>
        <path id="Trazado_820913" data-name="Trazado 820913" d="M293.531,138.91c-.8-.242-1.377-.694-1.2-1.621.169-.866.837-1.025,1.623-1.019,2.409.02,4.817-.017,7.226.022.672.011.954-.17.848-.853a1.894,1.894,0,0,1,0-.618c.178-.977-.173-1.38-1.19-1.213a1.266,1.266,0,0,1-1.439-.743,1.414,1.414,0,0,1,.376-1.474c1.8-2.193,3.519-4.459,5.284-6.684.858-1.081,1.835-1.011,2.667.071,1.734,2.252,3.486,4.491,5.282,6.694a1.3,1.3,0,0,1,.3,1.406,1.248,1.248,0,0,1-1.222.758c-1.572.016-1.571.048-1.571,1.64q0,3.664,0,7.329c0,1.375-.54,1.928-1.918,1.93-4.886.008-9.772,0-14.658.009-.82,0-1.523-.109-1.613-1.1-.092-1.02.479-1.492,1.431-1.6l14.032-.012c.291-.195.171-.5.171-.749q.007-4.66-.006-9.319c.095-.435.332-.8.785-.82.786-.038.58-.369.279-.757-.727-.935-1.485-1.848-2.184-2.8-.447-.611-.741-.261-1.026.1-.833,1.057-1.646,2.131-2.485,3.222.534.326,1.306.432,1.409,1.263q0,2.892,0,5.784c-.061.534-.49.775-.851,1.07-.855,0-1.71-.006-2.564.009-2.6.046-5.195-.106-7.789.081" transform="translate(-209.92 -89.002)" fill="#040405"/>
        <path id="Trazado_820914" data-name="Trazado 820914" d="M183.9,293.022c-.1-.924.522-1.3,1.24-1.41.753-.115,1.165.242,1.336,1.116a19.132,19.132,0,0,1,.123,3.155c.048,1.546.05,3.1-.005,4.643-.024.671.208.859.815.768a3.532,3.532,0,0,1,.515,0c1.444,0,1.453,0,1.574-1.425a1.332,1.332,0,0,1,.691-1.174,1.306,1.306,0,0,1,1.414.225c2.194,1.777,4.442,3.488,6.667,5.228a1.2,1.2,0,0,1,.122,1.964c-2.313,2-4.641,3.977-7.009,5.908a1.249,1.249,0,0,1-2.079-.952c-.066-.537.154-1.319-.129-1.572-.456-.407-1.239-.139-1.882-.143-2.511-.018-5.022,0-7.533-.01-1.209,0-1.583-.371-1.585-1.6-.01-4.85,0-9.7-.005-14.551,0-.762.087-1.474,1.035-1.6,1.051-.135,1.4.187,1.66,1.434-.011,4.4-.011,8.8-.047,13.2-.005.6.252.65.734.647q4.177-.025,8.354,0c1.037,0,2.058.072,2.179,1.544,1.192-.956,2.263-1.831,3.354-2.681.394-.307.2-.517-.063-.721-.535-.417-1.092-.8-1.623-1.227-1.362-1.081-1.358-1.086-2.6.032l-6.193.023c-.866-.233-1.017-.876-1.017-1.662,0-3.051-.029-6.1-.047-9.152" transform="translate(-127.957 -209.388)" fill="#040405"/>
        <path id="Trazado_820915" data-name="Trazado 820915" d="M28.536,183.231c1.075.166,1.082,1.089,1.174,1.834.06.486-.433.71-.934.717-1.305.017-2.611.048-3.917.057-1.445.01-2.89.024-4.334-.009-.546-.013-.757.167-.69.7a4.974,4.974,0,0,1,0,.619c0,1.44,0,1.448,1.391,1.5.5.021,1.04.1,1.238.563a1.62,1.62,0,0,1-.231,1.671q-1.7,2.153-3.422,4.294c-.7.87-1.4,1.729-2.09,2.607a1.263,1.263,0,0,1-2.144,0q-2.612-3.494-5.254-6.967a1.255,1.255,0,0,1-.283-1.468,1.24,1.24,0,0,1,1.332-.7c1.34,0,1.34-.017,1.34-1.371,0-2.648-.008-5.3,0-7.946.006-1.425.328-1.755,1.756-1.758q7.223-.016,14.446,0c1.34,0,1.652.38,1.637,1.625-.01.758-.515.858-1.039,1.009-4.558-.011-9.116-.014-13.674-.046-.608,0-.755.234-.751.787.024,3.119.023,6.237.03,9.356-.164.754-.847.9-1.43,1.135.872,1.114,1.751,2.14,2.509,3.248.381.557.57.428.886.025.709-.9,1.42-1.805,2.147-2.694.291-.356.537-.638-.141-.833a1.045,1.045,0,0,1-.764-1.084q0-2.789-.006-5.578a1.165,1.165,0,0,1,1.064-1.283l10.144-.016" transform="translate(-6.399 -127.526)" fill="#040405"/>
        <path id="Trazado_820916" data-name="Trazado 820916" d="M138.778,29.617a1.468,1.468,0,0,1-.876,1.163c-1.072.408-1.752-.056-1.762-1.232-.023-2.511-.038-5.022.007-7.532.014-.78-.152-1.17-1-1.034a3.16,3.16,0,0,1-.926,0c-.836-.118-1.208.169-1.1,1.057a1.718,1.718,0,0,1-.952,1.683c-.621.373-1.069-.23-1.5-.566-2.129-1.668-4.233-3.369-6.355-5.047a1.232,1.232,0,0,1-.172-1.97c1.495-1.334,3.041-2.61,4.573-3.9a13.07,13.07,0,0,0,1.792-1.5,1.731,1.731,0,0,1,1.943-.518c.691.185.678.964.595,1.572-.125.912.2,1.145,1.107,1.122,2.716-.068,5.434-.029,8.151-.023,1.634,0,2.086.45,2.086,2.041q0,6.914,0,13.828a5.647,5.647,0,0,1-.012.722,1.373,1.373,0,0,1-1.219,1.3,1.122,1.122,0,0,1-1.241-1.185q.018-6.77.033-13.54c0-.186.065-.426-.226-.488-3.13-.008-6.26-.043-9.389,0a1.527,1.527,0,0,1-1.723-1.068c-.156-.53-.272-.424-.577-.161-.95.819-1.881,1.668-2.89,2.409-.4.291-.25.405-.025.586.94.752,1.9,1.483,2.835,2.237.381.306.616.2.785-.208a1.154,1.154,0,0,1,.873-.774h6.2a1.918,1.918,0,0,1,.884.883c0,1.2-.031,2.395-.007,3.591.044,2.185-.132,4.373.094,6.555" transform="translate(-88.854 -7.271)" fill="#040405"/>
        <path id="Trazado_820917" data-name="Trazado 820917" d="M190.65,296.742c.018,3.051.046,6.1.047,9.152,0,.786.151,1.429,1.017,1.662a13.859,13.859,0,0,0,3.771.141,4.98,4.98,0,0,0,2.423-.164c1.24-1.117,1.236-1.112,2.6-.032.531.422,1.088.81,1.623,1.227.262.2.457.414.063.721-1.091.85-2.163,1.726-3.354,2.681-.121-1.473-1.143-1.541-2.179-1.544q-4.177-.015-8.354,0c-.482,0-.74-.048-.734-.647.036-4.4.036-8.8.047-13.2l3.034,0" transform="translate(-134.705 -213.109)" fill="#cce1f6"/>
        <path id="Trazado_820918" data-name="Trazado 820918" d="M307.566,146.764c.361-.295.79-.536.851-1.07a21.6,21.6,0,0,0,0-5.784c-.1-.831-.876-.936-1.409-1.263.839-1.091,1.652-2.164,2.485-3.222.285-.362.579-.712,1.026-.1.7.956,1.457,1.868,2.184,2.8.3.388.507.719-.279.757-.452.022-.69.386-.785.82-.26.25-.169.574-.169.87q-.005,4.6,0,9.2l-14.031.012q-.007-1.4-.014-2.795c2.986-.012,5.972-.018,8.958-.041.4,0,.83.14,1.181-.186" transform="translate(-213.601 -96.946)" fill="#cce1f6"/>
        <path id="Trazado_820919" data-name="Trazado 820919" d="M146.774,29.656a1.919,1.919,0,0,0-.884-.882c-.288-.281-.654-.182-.981-.165-1.737.089-3.487-.227-5.214.164a1.153,1.153,0,0,0-.873.774c-.169.408-.4.514-.785.208-.939-.754-1.9-1.485-2.835-2.237-.226-.181-.373-.295.025-.586,1.01-.74,1.94-1.589,2.89-2.409.306-.263.421-.369.577.161a1.527,1.527,0,0,0,1.723,1.068c3.129-.039,6.259,0,9.389,0q.014,6.9.029,13.807l-2.857.023c-.01-2.95-.016-5.9-.037-8.849,0-.363.127-.76-.167-1.083" transform="translate(-96.936 -17.456)" fill="#cce1f6"/>
        <path id="Trazado_820920" data-name="Trazado 820920" d="M26.982,197.219a1.045,1.045,0,0,0,.764,1.084c.678.2.432.477.141.833-.727.888-1.438,1.791-2.147,2.694-.317.4-.505.533-.886-.025-.758-1.108-1.637-2.134-2.509-3.248.582-.234,1.266-.382,1.429-1.135.286-.328.155-.724.157-1.088.012-2.646.03-5.293-.009-7.939-.011-.733.233-.926.94-.921,4.365.032,8.73.023,13.094.027q.008,1.331.015,2.663c-2.948.01-5.9.017-8.844.037-.364,0-.759-.121-1.087.158a1.165,1.165,0,0,0-1.064,1.283,21.3,21.3,0,0,0,.006,5.578" transform="translate(-16.047 -134.636)" fill="#cce1f6"/>
        <path id="Trazado_820921" data-name="Trazado 820921" d="M41.523,187c-4.365,0-8.73.005-13.094-.027-.708-.005-.951.188-.94.921.039,2.646.021,5.293.009,7.939,0,.364.129.76-.157,1.088-.007-3.119-.006-6.238-.03-9.356,0-.554.143-.791.751-.787,4.558.032,9.116.034,13.674.046Z" transform="translate(-19.613 -134.139)" fill="#8f8db4"/>
        <path id="Trazado_820922" data-name="Trazado 820922" d="M187.618,43.261q-.015-6.9-.029-13.807c.291.061.227.3.226.488q-.011,6.77-.033,13.54l-.165-.221" transform="translate(-134.719 -21.153)" fill="#8f8db4"/>
        <path id="Trazado_820923" data-name="Trazado 820923" d="M307.018,176.746c-.351.326-.785.183-1.181.186-2.986.023-5.972.03-8.958.041l-.215-.137c2.595-.187,5.193-.035,7.789-.081.855-.015,1.71-.007,2.564-.009" transform="translate(-213.053 -126.928)" fill="#8f8db4"/>
        <path id="Trazado_820924" data-name="Trazado 820924" d="M42.553,197.211c.329-.28.723-.156,1.087-.158,2.948-.02,5.9-.027,8.844-.037l.212.179-10.144.016" transform="translate(-30.56 -141.489)" fill="#8f8db4"/>
        <path id="Trazado_820925" data-name="Trazado 820925" d="M176.751,43.288c.294.323.164.72.167,1.083.021,2.95.027,5.9.037,8.849l-.118.214c-.225-2.182-.05-4.37-.094-6.555-.024-1.2,0-2.394.007-3.591" transform="translate(-126.914 -31.088)" fill="#8f8db4"/>
        <path id="Trazado_820926" data-name="Trazado 820926" d="M244.889,192.538c.006-.275.054-.5.416-.353-.021.257-.189.339-.416.353" transform="translate(-175.87 -137.987)" fill="#8f8db4"/>
        <path id="Trazado_820927" data-name="Trazado 820927" d="M165.467,153.031c-.035,7.781-6.581,13.2-11.985,13.684a13.4,13.4,0,0,1-10.712-3.293,13.826,13.826,0,0,1-4.928-9.347,13.036,13.036,0,0,1,3.345-9.953c2.513-2.771,5.589-4.746,9.469-4.8,8.4-.126,14.812,5.869,14.81,13.714m-3.933-2.813c.186-.53-.153-.847-.445-1.185-.621-.718-1.243-1.435-1.857-2.159a3.5,3.5,0,0,0-1.022-.982,1.147,1.147,0,0,0-1.559.246,1.266,1.266,0,0,0-.132,1.6c.91,1.18,1.927,2.28,2.938,3.38.34.37.8.769,1.342.512a1.2,1.2,0,0,0,.736-1.415M150.4,155.574a1.3,1.3,0,0,0-1.781-1.127c-1.024.338-2.015.782-3.017,1.187a1.813,1.813,0,0,0-.922,1.052c-.239.536.081.906.45,1.243a.815.815,0,0,0,1.072.2c.933-.46,1.938-.771,2.91-1.155a1.776,1.776,0,0,0,1.289-1.4m6.4,4.005c.009-1.126-.278-1.486-1.186-1.49-1.642-.006-2.106.317-2.118,1.48-.01.955.477,1.4,1.53,1.412,1.24.008,1.765-.408,1.774-1.4m-7.829-15.324c-1.248,0-1.854.394-1.873,1.221a1.639,1.639,0,0,0,1.744,1.463,1.576,1.576,0,0,0,1.764-1.418c.014-.975-.36-1.265-1.635-1.267" transform="translate(-98.965 -100.051)" fill="#eb6f6a"/>
        <path id="Trazado_820928" data-name="Trazado 820928" d="M44.482,303.4c.366,3.774-3.164,6.185-6.187,6.264a6.5,6.5,0,0,1-6.3-6.215c-.08-2.939,2.965-6.546,6.7-6.223,2.8.242,6.3,2.918,5.786,6.173" transform="translate(-22.975 -213.446)" fill="#eb6f6a"/>
        <path id="Trazado_820929" data-name="Trazado 820929" d="M304.539,309.878a6.559,6.559,0,0,1-6.314-5.449,6.275,6.275,0,0,1,5.455-6.92c4.93-.264,7.026,2.87,7.089,6.058.073,3.661-2.869,6.1-6.231,6.312" transform="translate(-214.157 -213.648)" fill="#8f8db4"/>
        <path id="Trazado_820930" data-name="Trazado 820930" d="M38.1,33.734c3.507-.255,6.184,2.958,6.155,6.118A6.27,6.27,0,0,1,37.8,46.085c-3.066.072-6.049-2.942-6.1-5.46-.08-4.141,2.585-6.893,6.4-6.891" transform="translate(-22.766 -24.216)" fill="#4aaa86"/>
        <path id="Trazado_820931" data-name="Trazado 820931" d="M310.831,39.959c-.265,3.986-2.977,6.05-6.724,6.209-2.571.109-5.93-3.151-5.869-5.491.118-4.533,2.464-6.972,6.758-6.852a6.087,6.087,0,0,1,5.835,6.134" transform="translate(-214.182 -24.288)" fill="#eb6f6a"/>
        <path id="Trazado_820932" data-name="Trazado 820932" d="M347.212,161.785q0-4.6,0-9.2c0-.3-.091-.62.169-.869q.006,4.66.007,9.32c0,.253.12.554-.171.749" transform="translate(-249.341 -108.957)" fill="#8f8db4"/>
        <path id="Trazado_820933" data-name="Trazado 820933" d="M336.417,152.442a21.606,21.606,0,0,1,0,5.785q0-2.892,0-5.785" transform="translate(-241.602 -109.478)" fill="#8f8db4"/>
        <path id="Trazado_820934" data-name="Trazado 820934" d="M208.469,335.032a4.979,4.979,0,0,1-2.422.164,13.861,13.861,0,0,1-3.771-.141l6.193-.023" transform="translate(-145.267 -240.607)" fill="#8f8db4"/>
        <path id="Trazado_820935" data-name="Trazado 820935" d="M38.324,207.84a21.3,21.3,0,0,1-.006-5.578q0,2.789.006,5.578" transform="translate(-27.389 -145.257)" fill="#8f8db4"/>
        <path id="Trazado_820936" data-name="Trazado 820936" d="M151.713,39.641c1.727-.391,3.477-.075,5.214-.164.327-.017.694-.116.981.165h-6.2" transform="translate(-108.954 -28.324)" fill="#8f8db4"/>
        <path id="Trazado_820937" data-name="Trazado 820937" d="M208.641,166.479a1.2,1.2,0,0,1-.736,1.415c-.544.257-1-.142-1.342-.512-1.011-1.1-2.028-2.2-2.938-3.38a1.266,1.266,0,0,1,.132-1.6,1.147,1.147,0,0,1,1.558-.246,3.488,3.488,0,0,1,1.022.982c.614.723,1.236,1.441,1.858,2.158.292.338.631.654.445,1.185" transform="translate(-146.072 -116.312)" fill="#040405"/>
        <path id="Trazado_820938" data-name="Trazado 820938" d="M167.711,193.931a1.776,1.776,0,0,1-1.289,1.4c-.971.384-1.977.7-2.91,1.155a.815.815,0,0,1-1.072-.2c-.369-.337-.688-.707-.45-1.243a1.81,1.81,0,0,1,.922-1.052c1-.4,1.992-.849,3.017-1.187a1.3,1.3,0,0,1,1.781,1.127" transform="translate(-116.277 -138.408)" fill="#040405"/>
        <path id="Trazado_820939" data-name="Trazado 820939" d="M196.778,207.418c-.008.994-.534,1.409-1.774,1.4-1.053-.006-1.541-.457-1.531-1.411.013-1.162.476-1.486,2.119-1.48.908,0,1.195.364,1.186,1.49" transform="translate(-138.945 -147.889)" fill="#040405"/>
        <path id="Trazado_820940" data-name="Trazado 820940" d="M172.644,156.843c1.274,0,1.649.291,1.635,1.267a1.576,1.576,0,0,1-1.764,1.418,1.639,1.639,0,0,1-1.744-1.463c.019-.827.625-1.223,1.873-1.221" transform="translate(-122.64 -112.639)" fill="#040405"/>
      </g>
    </g>
  </g>
</svg>
