<svg xmlns="http://www.w3.org/2000/svg" xmlns:xlink="http://www.w3.org/1999/xlink" width="169" height="169" viewBox="0 0 169 169">
  <defs>
    <clipPath id="clip-path">
      <rect id="Rect치ngulo_377613" data-name="Rect치ngulo 377613" width="106.679" height="107.131" fill="none"/>
    </clipPath>
  </defs>
  <g id="Grupo_1073345" data-name="Grupo 1073345" transform="translate(-385.5 -2057.999)">
    <g id="Grupo_159182" data-name="Grupo 159182" transform="translate(385.5 2057.999)">
      <path id="Uni칩n_12" data-name="Uni칩n 12" d="M84.5,0A84.5,84.5,0,1,1,0,84.5,84.5,84.5,0,0,1,84.5,0Z" transform="translate(0 0)" fill="#ffae7e"/>
    </g>
    <g id="Grupo_1073349" data-name="Grupo 1073349" transform="translate(403.07 2074.591)">
      <g id="Grupo_1073348" data-name="Grupo 1073348" transform="translate(12 10.03)" clip-path="url(#clip-path)">
        <path id="Trazado_821145" data-name="Trazado 821145" d="M3.48,77.286q0-10.735.005-21.469c0-.394-.038-.589-.532-.652A3.268,3.268,0,0,1,.011,51.847c-.024-1.1,0-2.194-.008-3.291a3.976,3.976,0,0,1,1.015-2.6,3.047,3.047,0,0,1,2.552-1.068q7.526-.024,15.051,0a.7.7,0,0,0,.626-.268,8.3,8.3,0,0,1,4.3-2.832,9.956,9.956,0,0,1,2.894-.388q15.729,0,31.457.01c.511,0,.645-.136.611-.639a22.4,22.4,0,0,1-.008-2.3c.013-.377-.133-.491-.477-.486-.485.008-.972-.02-1.457-.01a8.368,8.368,0,0,1-3.582-.916,7.955,7.955,0,0,1-4.119-4.434,6.6,6.6,0,0,1-.51-2.006c-.057-.621-.089-1.25-.11-1.874a5.091,5.091,0,0,1,.6-2.52A2.472,2.472,0,0,0,48.93,24.5c-.206-1.093-.367-2.2-.566-3.287a19.835,19.835,0,0,1-.178-3.352,10.078,10.078,0,0,1,.352-2.444,22.01,22.01,0,0,1,.862-3.191,20.24,20.24,0,0,1,3.209-5.355A26.238,26.238,0,0,1,55.992,3.6,11.308,11.308,0,0,1,58.83,1.92,22.3,22.3,0,0,1,63.326.4,20.02,20.02,0,0,1,67.2.011C74.059.03,80.918-.041,87.774.041a18.315,18.315,0,0,1,11.818,4.2,18.542,18.542,0,0,1,2.563,2.55,22.639,22.639,0,0,1,3.324,5.552,16.275,16.275,0,0,1,.772,2.727,18.128,18.128,0,0,1,.427,3.864,19.083,19.083,0,0,1-.558,4.463c-.133.577-.262,1.155-.372,1.737a1.834,1.834,0,0,0,.2,1.04,8.5,8.5,0,0,1-2.835,10.161,9.317,9.317,0,0,1-5.618,1.66c-.379-.005-.832-.154-1.119.078-.311.252-.044.708-.066,1.073-.047.816,0,1.637-.031,2.454a.755.755,0,0,0,.409.756,6.075,6.075,0,0,1,2.849,3.66,4.02,4.02,0,0,1-.883,4.128c-2.186,2.191-4.358,4.4-6.551,6.579-.265.264-.282.387.01.642a24.177,24.177,0,0,1,4.416,5.362,19.307,19.307,0,0,1,1.96,4.132,20.742,20.742,0,0,1,1,3.975c.548,4.15.176,8.32.277,12.48.03,1.235.047,2.475-.02,3.708a3.087,3.087,0,0,0,.688,2.084c1.121,1.528,2.182,3.1,3.25,4.664.638.936,1.308,1.849,1.932,2.8a6.262,6.262,0,0,1,.942,2.906,6.945,6.945,0,0,1-.681,3.745,6.339,6.339,0,0,1-2.61,2.761,8.915,8.915,0,0,1-4.252,1.065c-3.291.133-6.581.066-9.871.079q-7.119.029-14.239,0c-1.621,0-3.244-.131-4.861-.075-1.465.051-2.928,0-4.393.055-1.6.059-3.2-.112-4.8-.056s-3.207.1-4.8.044c-3.79-.126-7.578-.05-11.366-.059q-16.041-.036-32.082-.007a9.464,9.464,0,0,1-4.182-.813,8.678,8.678,0,0,1-4.366-4.565,8.923,8.923,0,0,1-.6-3.619q-.011-10.369,0-20.738ZM61.91,56.2c-.012-.01-.022-.027-.035-.029s-.028.011-.041.017l.078.007c.005.07.01.14.015.21a.183.183,0,0,0,.053.2c-.008.225-.022.451-.022.676q0,8.651.008,17.3c0,.833.008,1.667.012,2.5a.429.429,0,0,0-.009.475c0,.043-.022.061-.064.056l-.04,0,.041-.006c.009.073.018.146.027.219-.028.079-.066.186.05.2s.1-.1.092-.184a13.62,13.62,0,0,0,1.267-1.705c2.4-3.431,4.786-6.871,7.188-10.3a8.394,8.394,0,0,1,4.818-3.409.539.539,0,0,0,.383-.291c0-.068,0-.136-.007-.2q0-.421-.008-.841c0-.067,0-.135,0-.2,0-.591.008-1.181,0-1.772,0-.188,0-.412-.222-.479s-.395.074-.526.249-.272.36-.4.547a6.2,6.2,0,0,1-3.413,2.49,3.929,3.929,0,0,1-4.375-1.061c-.583-.618-1.184-1.219-1.792-1.812-.98-.954-1.882-1.987-2.927-2.873-.02-.031-.041-.089-.061-.089-.051,0-.071.039-.041.09a.083.083,0,0,1-.056.016M31.018,67.052c0-.141,0-.282-.005-.423,0-.065-.009-.13-.013-.2-.015-1.2-.047-2.4-.033-3.6,0-.357-.1-.46-.433-.428a9.657,9.657,0,0,0-2.12.523c-.271.092-.163.2-.065.37.824,1.407,1.635,2.821,2.45,4.233.04.058.085.115.163.071s.079-.138.056-.223c0-.041-.009-.082-.013-.123,0-.067.009-.135.013-.2M44.5,72.031a11.608,11.608,0,0,0-3.156-6.145c-.069,1.523-.074,3.014-.067,4.5a4.564,4.564,0,0,1-.236,1.664c-.144.377-.051.494.337.486.935-.02,1.87-.019,2.8-.026l.044.02.044-.018.215-.025c.2-.147.09-.3.014-.459m-.271,3.945a.142.142,0,0,0-.211,0c-1.753,0-3.507.037-5.257-.033-.836-.033-1.44.109-1.694.986a.825.825,0,0,1-.2.3.553.553,0,0,0-.041.75c.694,1.186,1.34,2.4,2.055,3.573a15.811,15.811,0,0,0,1.022,1.826c.107.133.3.3.332.207.156-.393.588-.4.817-.68.456-.549.969-1.055,1.387-1.631a14.14,14.14,0,0,0,1.058-1.77,11.218,11.218,0,0,0,.973-3.011c.032-.158.214-.533-.245-.523M25.16,83.617c.185.061.232-.066.292-.2a17.268,17.268,0,0,1,1.185-2.16c.353-.556.579-1.177.971-1.714.38-.52.677-1.1,1.03-1.641a.457.457,0,0,0,0-.567c-.278-.436-.535-.885-.8-1.328a.372.372,0,0,0-.487-.028l-6.145,0c-.136-.082-.264-.117-.36.056a7.654,7.654,0,0,0,.852,3.256A12.627,12.627,0,0,0,24.649,83.3l.156.148a.127.127,0,0,0,.059.056c.062.133.176.131.3.116m71.323-49.1c.554,0,1.109.015,1.662,0a5.118,5.118,0,0,0,4.885-6.41,4.7,4.7,0,0,0-3.13-3.537,7.223,7.223,0,0,0-3.1-.37l-.142,0c-.192,0-.447-.015-.388.265a20.649,20.649,0,0,1,.1,2.843c.01.134-.172.308.024.4.17.076.325-.036.473-.138.527-.365,1.063-.717,1.591-1.079.256-.176.454-.189.644.111.463.732.943,1.455,1.428,2.174.166.247.113.37-.134.53-1.247.812-2.479,1.65-3.72,2.472-.164.109-.321.2-.317.431.013.761.023,1.523.035,2.285.012.059.043.066.09.034M58.3,27.744l.091.153.11-.195c0-1.06-.013-2.119-.011-3.178,0-.255-.133-.33-.353-.344a8.9,8.9,0,0,0-2.379.109,5.021,5.021,0,0,0-4.182,4.973,4.671,4.671,0,0,0,.465,2.171,5.1,5.1,0,0,0,2.7,2.746,8.379,8.379,0,0,0,3.5.338c.255,0,.207-.176.208-.323,0-.609-.019-1.219.009-1.826a.673.673,0,0,0-.363-.672c-.861-.548-1.711-1.115-2.562-1.679-.386-.256-.773-.512-1.142-.79-.109-.083-.326-.168-.124-.405A19.736,19.736,0,0,0,55.7,26.656c.233-.359.422-.375.745-.149.61.426,1.238.827,1.859,1.238m-54.8,24c.484.019.969.053,1.453.054,3.937.006,7.874,0,11.811.018.376,0,.441-.134.435-.447a16.346,16.346,0,0,1,.093-2.449c.056-.425-.047-.559-.5-.556-2.775.02-5.55.01-8.325.01-1.526,0-3.052.014-4.578-.007-.384-.005-.479.13-.457.482.026.416-.013.836.013,1.252a6.352,6.352,0,0,0,.062,1.647l-.012.026,0-.028M58.486,82.858c.074.007.131-.015.115-.1,0-.018-.072-.024-.111-.036,0-.452,0-.9,0-1.356q.01-11.7.02-23.4,0-1.149.005-2.3c0-.245-.019-.456-.353-.445-.933.03-1.867.063-2.8.065-.317,0-.345.112-.342.4.017,1.654.057,3.31-.009,4.961a4.8,4.8,0,0,1-1.934,3.831,4.877,4.877,0,0,1-5.736.422,5.1,5.1,0,0,1-2.55-4.181c-.086-1.444-.054-2.889-.065-4.334-.008-.975,0-1.951-.029-2.925a1.73,1.73,0,0,0-1.4-1.6,1.671,1.671,0,0,0-1.815.92,2.929,2.929,0,0,0-.2,1.278c-.005,2.263,0,4.527-.019,6.79a.894.894,0,0,0,.418.828,14.8,14.8,0,0,1,4.61,5.167,15.327,15.327,0,0,1,1.775,5.829,17.166,17.166,0,0,1-.2,4.652,13.092,13.092,0,0,1-1.678,4.415,14.4,14.4,0,0,1-2.651,3.525c-.348.314-.679.648-1.089,1.042.251.013.385.025.519.025,4.272,0,8.545,0,12.817.016a.752.752,0,0,0,.693-.366c.637-1.063,1.464-2,2.02-3.118M51.6,55.766v0l.015-.419c.039-.011.1-.013.112-.034.017-.051-.015-.089-.079-.078a3.357,3.357,0,0,1,2.375-3.244,5.478,5.478,0,0,1,2.52-.158,2.588,2.588,0,0,0,1.063-.15,11.825,11.825,0,0,0-1.2-1.277,3.377,3.377,0,0,1-1.283-2.285,5.36,5.36,0,0,1,.4-2.741c.058-.142.281-.335-.025-.474l-.017-.024-.022.018q-5.963-.009-11.925-.016-8.7-.005-17.393,0a5.17,5.17,0,0,0-5.368,4.077,4.822,4.822,0,0,0-.122,1.035q-.014,5.119,0,10.237a1.666,1.666,0,0,0,1.7,1.879,1.688,1.688,0,0,0,1.734-1.9c.008-.958-.021-1.916.008-2.873a5.927,5.927,0,0,1,.548-2.656,5.113,5.113,0,0,1,7.434-1.994,5.438,5.438,0,0,1,2.354,4.93c-.021,4.23-.013,8.461-.015,12.692a5.885,5.885,0,0,0,.043.728,1.72,1.72,0,0,0,1.5,1.493A1.834,1.834,0,0,0,37.737,71.3a5.143,5.143,0,0,0,.115-1.124c0-5.328-.01-10.656,0-15.984a6.737,6.737,0,0,1,.287-2.3,5.117,5.117,0,0,1,7.678-2.666A5.278,5.278,0,0,1,48.2,53.885c.008,2.019,0,4.039-.005,6.059a3.6,3.6,0,0,0,.084,1.037,1.658,1.658,0,0,0,1.89,1.112A1.677,1.677,0,0,0,51.6,60.378l.017-.006-.018,0c.051-1.37.053-2.741,0-4.111a.1.1,0,0,0,0-.148v-.345M61.96,22.72q0,2.351,0,4.7c-.005,4.441,0,8.881-.029,13.322,0,.538.056.913.652,1.025a1.344,1.344,0,0,1,.408.223,12.312,12.312,0,0,1,2.363,2.244c.285.3.358.165.484-.061.665-1.195,1.344-2.382,1.98-3.592a17.554,17.554,0,0,1,1.336-2.19,7.339,7.339,0,0,1,1.674-1.581,10.766,10.766,0,0,1,9.211-1.895,10.245,10.245,0,0,1,6.431,4.741c.873,1.434,1.668,2.917,2.491,4.382.191.341.332.46.65.084a18.989,18.989,0,0,1,1.455-1.492,3.041,3.041,0,0,1,1.359-.908c.418-.093.522-.277.521-.7q-.024-8.855-.008-17.711c0-2.087-.678-2.615-2.575-2.607-5.382.023-10.765.008-16.147.007a7.628,7.628,0,0,1-1.352-.019,8.329,8.329,0,0,1-5.053-2.76,1.661,1.661,0,0,0-1.79-.54,5.1,5.1,0,0,0-4.039,4.659c-.345.213-.417.433-.017.665M77.4,103.589v.02H99.061a5.359,5.359,0,0,0,1.838-.177,3.6,3.6,0,0,0,1.79-5.27c-1.273-1.884-2.56-3.757-3.888-5.6-1.6-2.231-3.133-4.516-4.7-6.775q-2.467-3.562-4.942-7.119Q85.3,73.129,81.425,67.6a5.031,5.031,0,0,0-8.1.186c-2.946,4.264-5.893,8.527-8.912,12.739-2.081,2.9-4.067,5.879-6.116,8.808q-1.907,2.726-3.856,5.422c-.74,1.019-1.481,2.055-2.155,3.129a3.6,3.6,0,0,0-.563,3.09,3.5,3.5,0,0,0,2.529,2.485,6.376,6.376,0,0,0,1.8.123q10.675.005,21.35,0m.012-100.1c-3.315,0-6.63.011-9.945-.007a15.586,15.586,0,0,0-13.423,7.129,13.851,13.851,0,0,0-1.8,3.928,10.04,10.04,0,0,0-.562,2.583,40.009,40.009,0,0,0,.089,4.472c.063.533.163.637.627.385a9.6,9.6,0,0,1,5.761-1.236c.4.015.63-.113.678-.521a4.648,4.648,0,0,1,.466-1.364,8.559,8.559,0,0,1,3.433-3.785,8.471,8.471,0,0,1,2.515-.992c.191-.046.414-.066.333-.39a12.973,12.973,0,0,1-.17-2.8c-.013-.406.156-.512.516-.507.8.01,1.6.017,2.395-.005.382-.01.53.118.513.51-.021.486,0,.975.018,1.461a5.112,5.112,0,0,0,4.936,4.917c2.221.05,4.443.023,6.664.028.116,0,.266.048.338-.068.092-.15-.057-.255-.13-.364A9.546,9.546,0,0,1,79.5,14.385a12.177,12.177,0,0,1-.329-3.5c-.009-.411.158-.51.514-.507.8.007,1.6.016,2.395-.012.423-.014.539.156.529.555a8.648,8.648,0,0,0,.045,1.979,5.185,5.185,0,0,0,5.316,4.378c.972.007,1.945-.016,2.916.015a5.32,5.32,0,0,1,2.186.385,5.263,5.263,0,0,1,2.7,2.6.7.7,0,0,0,.77.456,13.717,13.717,0,0,1,2.75.115,8.668,8.668,0,0,1,3.259,1.223c.133.084.39.173.339-.013-.071-.262.136-.346.158-.528a19.6,19.6,0,0,0,.173-2.485,16.223,16.223,0,0,0-.483-3.7,13.142,13.142,0,0,0-.779-2.555,18.411,18.411,0,0,0-2.392-3.663,15.81,15.81,0,0,0-11.585-5.62c-3.521-.077-7.046-.02-10.57-.021M6.887,70.764H6.873c0,4.98.007,9.959-.012,14.938,0,.495.113.645.624.643,4.478-.023,8.956-.019,13.435-.017a3.9,3.9,0,0,1,1.232.089c.17.055.464.126.572-.088s-.127-.363-.269-.507a24.454,24.454,0,0,1-1.9-2,15.1,15.1,0,0,1-3.224-7.484,15.417,15.417,0,0,1,.084-4.635,16.015,16.015,0,0,1,2.141-5.64c.176-.289.531-.558.535-.84.005-.336-.484-.412-.748-.614-.081-.062-.138-.158-.221-.216a4.53,4.53,0,0,1-1.889-3.48c-.134-1.67-.044-3.36-.019-5.041.007-.484-.169-.633-.633-.631-3.055.009-6.109.01-9.164-.015-.448,0-.544.124-.543.55q.021,7.5.009,14.99M27.975,96.67v.011H8.443c-.4,0-.8.006-1.2-.008-.263-.009-.375.076-.364.36.022.539.005,1.079.015,1.619a5.072,5.072,0,0,0,1.5,3.441,5.213,5.213,0,0,0,4.033,1.473q18.126,0,36.251.016c.467,0,.428-.122.268-.459a6.646,6.646,0,0,1-.082-5.923c.235-.5.215-.529-.314-.529H27.975m2.4-6.91v.005H15.007c-2.534,0-5.069.007-7.6-.008-.4,0-.552.091-.534.52.031.747,0,1.5-.005,2.246-.008.71-.011.71.686.71H50.831c.121,0,.243,0,.365,0a.51.51,0,0,0,.477-.252c.581-.865,1.179-1.72,1.756-2.588.111-.167.354-.356.269-.529-.107-.218-.405-.1-.617-.1q-11.354-.008-22.709,0m65.874-6.872.117-.043c0-.169,0-.338,0-.506-.08-2.821.15-5.645-.12-8.465-.054-.561-.028-1.132-.068-1.7a17.055,17.055,0,0,0-1.121-4.784,20.188,20.188,0,0,0-5.362-7.656c-.24-.224-.393-.181-.6.038q-.741.77-1.521,1.5a3.222,3.222,0,0,1-2.35.908,5.918,5.918,0,0,1-4.5-2.213c-.288-.347-.535-.727-.8-1.09-.117-.158-.252-.312-.474-.235s-.253.261-.253.467c0,.975,0,1.95,0,2.925,0,.3.136.414.422.474a5.931,5.931,0,0,1,1.123.349,8.188,8.188,0,0,1,3.544,2.894Q88.587,71.92,92.894,78.1c.754,1.081,1.485,2.179,2.237,3.261.359.518.742,1.02,1.114,1.528m-18.9-44.841a5.386,5.386,0,0,0-1.844.222,6.215,6.215,0,0,0-3.956,2.706c-.667,1.076-1.255,2.192-1.877,3.292-.372.658-.8,1.286-1.149,1.953-.4.761-.38.774.245,1.4Q71.6,50.462,74.432,53.3a3.342,3.342,0,0,1,.983,1.547c.079.328.268.4.556.4a18.629,18.629,0,0,1,2.961.043.333.333,0,0,0,.4-.257,5.626,5.626,0,0,1,1.719-2.314q2.709-2.711,5.418-5.423a.469.469,0,0,0,.115-.671c-.95-1.635-1.869-3.289-2.817-4.926a7.188,7.188,0,0,0-6.417-3.657m-18.9,9.412a.433.433,0,0,0,.132.388q5.347,5.341,10.668,10.706a.476.476,0,0,0,.45.194,3.086,3.086,0,0,0,2.2-1.506c.52-.922.455-1.261-.307-1.993-.1-.1-.2-.2-.3-.295q-4.82-4.835-9.639-9.672a.912.912,0,0,0-.706-.344,2.618,2.618,0,0,0-2.5,2.523m24.149,8.793a2.728,2.728,0,0,0,1.586,2.221c.821.412,1.048.391,1.686-.248q1.861-1.862,3.718-3.729l6.41-6.421c.209-.21.448-.413.366-.757A2.946,2.946,0,0,0,94.572,45.1a1.194,1.194,0,0,0-1.473.287c-3.376,3.432-6.791,6.825-10.193,10.231a.737.737,0,0,0-.313.633M32.6,86.3a13.494,13.494,0,0,0,4.134-.679c.4-.131.4-.278.225-.584-.828-1.436-1.655-2.872-2.468-4.317-.844-1.5-.881-1.525-2.581-1.392a.4.4,0,0,0-.372.252c-1.025,1.836-2.051,3.674-3.146,5.468-.278.454-.043.552.235.627A14.306,14.306,0,0,0,32.6,86.3m-8.325-13.77v-.019a26.267,26.267,0,0,1,2.649.022,1.255,1.255,0,0,0,1.331-.737,1.523,1.523,0,0,0,0-1.935c-.972-1.535-1.826-3.146-2.732-4.723-.129-.224-.234-.495-.574-.186a13.638,13.638,0,0,0-2.88,3.6,14.01,14.01,0,0,0-1.22,3.347c-.133.532-.023.64.52.637.97,0,1.94,0,2.91,0M27.527,58.1h-.019c0,.382.011.766,0,1.147-.012.32.087.386.395.277a13.58,13.58,0,0,1,2.755-.677c.206-.028.317-.107.312-.327-.013-.556.019-1.117-.039-1.668a1.734,1.734,0,0,0-1.753-1.586A1.69,1.69,0,0,0,27.532,56.9c-.034.4-.005.8-.005,1.2m3.848,15.041c-.169-.019-.2.071-.248.2a1.807,1.807,0,0,0,.332,2.113,1.931,1.931,0,0,0,2.084.329c.125-.035.28-.08.312-.229s-.092-.242-.217-.316A5.3,5.3,0,0,1,31.77,73.4c-.093-.154-.2-.284-.4-.259" transform="translate(0 0)" fill="#060607"/>
        <path id="Trazado_821146" data-name="Trazado 821146" d="M43.176,20.805A10.246,10.246,0,0,1,33.01,11.138C32.678,4.292,37.644.268,42.891.162A10.024,10.024,0,0,1,53.541,10.714,10.156,10.156,0,0,1,43.176,20.805m6.978-10.313a7.012,7.012,0,0,0-1.944-4.884,7.008,7.008,0,0,0-5.853-1.953A6.834,6.834,0,0,0,36.411,10.9a6.878,6.878,0,0,0,13.743-.41" transform="translate(-19.202 -0.093)" fill="#060607"/>
        <path id="Trazado_821147" data-name="Trazado 821147" d="M14.923,79.87c-3.77.11-6.847-3.493-6.661-7.15a6.728,6.728,0,0,1,6.815-6.614,6.882,6.882,0,1,1-.153,13.764m.139-10.24c-2.076,0-3.386,1.415-3.36,3.7a3.351,3.351,0,0,0,3.427,3.107,3.318,3.318,0,0,0,2.426-1,3.817,3.817,0,0,0,.951-3.156c-.111-1.314-1.72-2.644-3.444-2.644" transform="translate(-4.804 -38.472)" fill="#060607"/>
        <path id="Trazado_821148" data-name="Trazado 821148" d="M87.413,49.769A5.111,5.111,0,1,1,82.322,54.8a5.041,5.041,0,0,1,5.091-5.027m.031,3.448a1.608,1.608,0,0,0-1.7,1.634,1.786,1.786,0,0,0,1.8,1.719,1.688,1.688,0,0,0,1.633-1.617c.051-.784-.808-1.894-1.736-1.736" transform="translate(-47.909 -28.956)" fill="#060607"/>
        <path id="Trazado_821149" data-name="Trazado 821149" d="M149.208,194.977q-10.675,0-21.35,0a6.38,6.38,0,0,1-1.8-.123,3.5,3.5,0,0,1-2.529-2.485,3.594,3.594,0,0,1,.563-3.09c.674-1.074,1.415-2.11,2.155-3.129q1.955-2.692,3.857-5.421c2.049-2.929,4.034-5.9,6.116-8.808,3.019-4.213,5.966-8.476,8.911-12.74a5.032,5.032,0,0,1,8.1-.186q3.885,5.519,7.736,11.061,2.479,3.554,4.942,7.119c1.565,2.259,3.093,4.545,4.7,6.775,1.328,1.846,2.616,3.72,3.889,5.6a3.6,3.6,0,0,1-1.79,5.27,5.35,5.35,0,0,1-1.839.177H149.208v-.02m-5.093-25.94h0c0,1.792-.018,3.585.005,5.377a3.434,3.434,0,0,0,2.9,3.218,20.66,20.66,0,0,0,2.6.07,6.876,6.876,0,0,0,1.811-.023,3.485,3.485,0,0,0,2.914-3.542c.029-3.376.061-6.754-.009-10.128a3.339,3.339,0,0,0-3.216-3.546,17.412,17.412,0,0,0-4.1.023,3.539,3.539,0,0,0-2.9,3.226c.008,1.775,0,3.55,0,5.325m5.13,12.234c-2.5-.277-5.019,2.18-5.14,4.771a5.259,5.259,0,0,0,4.9,5.451,5.154,5.154,0,0,0,5.32-5.489,4.994,4.994,0,0,0-5.084-4.733" transform="translate(-71.808 -91.389)" fill="#ffd65d"/>
        <path id="Trazado_821150" data-name="Trazado 821150" d="M149.34,8.308c3.524,0,7.048-.057,10.57.02a15.812,15.812,0,0,1,11.585,5.62,18.409,18.409,0,0,1,2.392,3.663,13.114,13.114,0,0,1,.78,2.555,16.267,16.267,0,0,1,.483,3.7,19.6,19.6,0,0,1-.173,2.485c-.022.182-.229.266-.158.528.051.187-.206.1-.339.013a8.67,8.67,0,0,0-3.259-1.223,13.717,13.717,0,0,0-2.75-.115.7.7,0,0,1-.77-.456,5.262,5.262,0,0,0-2.7-2.6,5.321,5.321,0,0,0-2.186-.385c-.971-.031-1.943-.008-2.915-.015a5.185,5.185,0,0,1-5.316-4.378,8.673,8.673,0,0,1-.046-1.979c.01-.4-.107-.569-.529-.555-.8.028-1.6.019-2.395.012-.355,0-.523.1-.514.507a12.191,12.191,0,0,0,.329,3.5,9.538,9.538,0,0,0,1.169,2.468c.074.109.222.214.13.364-.071.117-.221.068-.337.068-2.222,0-4.444.023-6.665-.028a5.111,5.111,0,0,1-4.935-4.917c-.021-.487-.04-.975-.019-1.461.018-.392-.13-.521-.513-.51-.8.022-1.6.016-2.4.005-.36,0-.528.1-.516.507a13,13,0,0,0,.171,2.8c.082.324-.142.345-.333.39a8.472,8.472,0,0,0-2.515.992,8.563,8.563,0,0,0-3.434,3.785,4.66,4.66,0,0,0-.465,1.364c-.048.408-.277.536-.678.521a9.6,9.6,0,0,0-5.761,1.237c-.464.252-.564.148-.627-.385a39.919,39.919,0,0,1-.089-4.472,10.023,10.023,0,0,1,.562-2.583,13.85,13.85,0,0,1,1.8-3.928,15.732,15.732,0,0,1,5.32-5.055A16.243,16.243,0,0,1,139.4,8.3c3.315.018,6.63.007,9.945.008" transform="translate(-71.929 -4.823)" fill="#a46332"/>
        <path id="Trazado_821151" data-name="Trazado 821151" d="M148.189,46.188a5.1,5.1,0,0,1,4.039-4.659,1.661,1.661,0,0,1,1.79.54,8.332,8.332,0,0,0,5.053,2.76,7.628,7.628,0,0,0,1.352.019c5.382,0,10.764.017,16.146-.007,1.9-.008,2.578.52,2.575,2.607q-.013,8.855.008,17.711c0,.42-.1.6-.521.7a3.043,3.043,0,0,0-1.359.908,19.071,19.071,0,0,0-1.456,1.492c-.317.376-.459.257-.65-.084-.822-1.465-1.617-2.948-2.491-4.382a10.243,10.243,0,0,0-6.431-4.74,10.763,10.763,0,0,0-9.211,1.895,7.338,7.338,0,0,0-1.674,1.581,17.523,17.523,0,0,0-1.336,2.19c-.636,1.21-1.315,2.4-1.98,3.592-.126.226-.2.365-.484.061a12.322,12.322,0,0,0-2.363-2.244,1.34,1.34,0,0,0-.408-.223c-.6-.113-.655-.487-.652-1.025.028-4.44.024-8.881.029-13.322q0-2.351,0-4.7a1.4,1.4,0,0,0,.017-.665m20.159,2.73a.357.357,0,0,0-.3.146c-.665.662-1.321,1.333-1.991,1.989-.189.185-.084.273.054.408.584.571,1.152,1.157,1.736,1.728.226.221.272.382,0,.627-.565.514-1.081,1.081-1.647,1.595-.253.229-.226.36,0,.58q.831.823,1.622,1.687c.385.419.5.442.9.045.489-.483.989-.957,1.446-1.469.229-.257.393-.236.6-.023a15.969,15.969,0,0,1,1.572,1.495c.3.4.579.277.84.025.582-.561,1.131-1.156,1.71-1.72.222-.216.255-.368.015-.6-.579-.551-1.125-1.136-1.71-1.68-.2-.187-.236-.275-.024-.479.6-.578,1.171-1.188,1.767-1.771.176-.171.192-.287.012-.462q-.936-.906-1.853-1.832c-.271-.274-.472-.237-.729.043-.482.524-1.015,1-1.5,1.519-.252.268-.415.26-.663-.012-.5-.552-1.04-1.073-1.566-1.6-.1-.1-.208-.175-.287-.241m-9.291,9.114c.022-.019.071-.06.116-.1.628-.615,1.25-1.236,1.886-1.842a.424.424,0,0,0,0-.719c-.537-.519-1.042-1.071-1.589-1.578-.249-.23-.219-.365,0-.579.572-.557,1.12-1.14,1.69-1.7.166-.163.218-.269.023-.456q-.959-.919-1.888-1.868c-.233-.236-.4-.246-.636.014-.506.548-1.061,1.051-1.573,1.594-.235.248-.388.255-.624,0-.517-.562-1.073-1.088-1.6-1.643-.238-.252-.422-.288-.678-.014-.594.633-1.2,1.258-1.827,1.855-.244.232-.163.331.032.518.565.539,1.105,1.1,1.661,1.654a.408.408,0,0,1-.008.7c-.547.507-1.054,1.059-1.605,1.561-.253.231-.217.367,0,.584q.905.9,1.775,1.83c.194.207.333.25.55.031.561-.565,1.159-1.094,1.7-1.678.212-.229.324-.177.5-.012.573.549,1.149,1.094,1.72,1.645.1.1.172.222.378.215" transform="translate(-86.213 -24.134)" fill="#f9b698"/>
        <path id="Trazado_821152" data-name="Trazado 821152" d="M84.247,107.379c.306.139.083.333.025.474a5.364,5.364,0,0,0-.4,2.741,3.378,3.378,0,0,0,1.283,2.285,11.871,11.871,0,0,1,1.2,1.277,2.581,2.581,0,0,1-1.063.15,5.483,5.483,0,0,0-2.52.158,3.357,3.357,0,0,0-2.375,3.243c-.062.022-.069.061-.033.112-.005.14-.01.28-.015.42v.5c.054,1.37.051,2.741,0,4.111l0,.008a1.677,1.677,0,0,1-1.432,1.715,1.658,1.658,0,0,1-1.891-1.112,3.592,3.592,0,0,1-.084-1.037c0-2.019.013-4.039.005-6.059a5.277,5.277,0,0,0-2.384-4.665,5.116,5.116,0,0,0-7.678,2.666,6.726,6.726,0,0,0-.287,2.3c-.01,5.328,0,10.656,0,15.984a5.143,5.143,0,0,1-.115,1.124,1.833,1.833,0,0,1-1.777,1.234,1.719,1.719,0,0,1-1.5-1.493,5.886,5.886,0,0,1-.044-.728c0-4.231-.006-8.462.015-12.692a5.439,5.439,0,0,0-2.354-4.93,5.114,5.114,0,0,0-7.434,1.995,5.932,5.932,0,0,0-.548,2.656c-.029.957,0,1.915-.008,2.873a1.688,1.688,0,0,1-1.734,1.9,1.666,1.666,0,0,1-1.7-1.879q-.017-5.119,0-10.237a4.848,4.848,0,0,1,.122-1.035,5.17,5.17,0,0,1,5.369-4.077q8.7-.008,17.393,0,5.963,0,11.924.016l.039.006" transform="translate(-28.744 -62.476)" fill="#31b6e7"/>
        <path id="Trazado_821153" data-name="Trazado 821153" d="M16.439,147.644q0-7.5-.009-14.99c0-.426.095-.554.543-.55,3.055.026,6.109.025,9.164.015.463,0,.64.147.633.632-.025,1.681-.115,3.371.019,5.041a4.529,4.529,0,0,0,1.889,3.48c.083.058.14.154.221.216.265.2.753.278.748.614,0,.282-.359.551-.535.839a16.017,16.017,0,0,0-2.142,5.641,15.431,15.431,0,0,0-.084,4.635A15.1,15.1,0,0,0,30.11,160.7a24.593,24.593,0,0,0,1.9,2c.142.144.377.291.269.507s-.4.143-.572.089a3.9,3.9,0,0,0-1.232-.089c-4.478,0-8.957-.006-13.435.017-.511,0-.625-.147-.623-.642.019-4.979.011-9.959.011-14.938Z" transform="translate(-9.552 -76.881)" fill="#848d9a"/>
        <path id="Trazado_821154" data-name="Trazado 821154" d="M115.921,155.013c-.556,1.115-1.382,2.055-2.019,3.118a.753.753,0,0,1-.693.366c-4.272-.017-8.544-.013-12.817-.016-.134,0-.268-.013-.519-.025.41-.393.741-.727,1.089-1.042a14.4,14.4,0,0,0,2.651-3.525,13.092,13.092,0,0,0,1.678-4.415,17.166,17.166,0,0,0,.2-4.652,15.333,15.333,0,0,0-1.775-5.829,14.807,14.807,0,0,0-4.61-5.167A.893.893,0,0,1,98.69,133c.015-2.263.014-4.527.019-6.79a2.929,2.929,0,0,1,.2-1.278,1.671,1.671,0,0,1,1.816-.92,1.731,1.731,0,0,1,1.4,1.6c.033.974.022,1.95.029,2.925.011,1.445-.02,2.889.065,4.334a5.1,5.1,0,0,0,2.55,4.181,4.877,4.877,0,0,0,5.736-.422,4.8,4.8,0,0,0,1.934-3.831c.066-1.652.026-3.307.009-4.961,0-.284.026-.4.342-.4.934,0,1.868-.035,2.8-.065.334-.011.354.2.353.445q0,1.149-.005,2.3-.01,11.7-.02,23.4c0,.452,0,.9,0,1.356l0,.136" transform="translate(-57.435 -72.155)" fill="#848d9a"/>
        <path id="Trazado_821155" data-name="Trazado 821155" d="M37.554,231.251H58.128c.529,0,.549.026.314.529a6.645,6.645,0,0,0,.082,5.923c.159.337.2.459-.268.459Q40.13,238.14,22,238.147a5.215,5.215,0,0,1-4.033-1.473,5.073,5.073,0,0,1-1.5-3.441c-.01-.54.006-1.08-.015-1.619-.011-.284.1-.368.364-.359.4.013.8.008,1.2.008H37.554Z" transform="translate(-9.579 -134.582)" fill="#848d9a"/>
        <path id="Trazado_821156" data-name="Trazado 821156" d="M39.924,214.681q11.354,0,22.709,0c.212,0,.51-.119.617.1.085.173-.158.362-.268.529-.577.868-1.174,1.723-1.756,2.588a.508.508,0,0,1-.477.252c-.121,0-.243,0-.365,0H17.1c-.7,0-.693,0-.685-.71.009-.749.037-1.5.005-2.246-.018-.428.138-.522.534-.52,2.535.015,5.069.008,7.6.008H39.924Z" transform="translate(-9.553 -124.923)" fill="#848d9a"/>
        <path id="Trazado_821157" data-name="Trazado 821157" d="M206.479,164.5c-.372-.509-.755-1.01-1.114-1.528-.752-1.083-1.484-2.18-2.238-3.262q-4.307-6.178-8.625-12.348a8.191,8.191,0,0,0-3.544-2.894,5.931,5.931,0,0,0-1.123-.349c-.287-.06-.424-.174-.422-.474.007-.975,0-1.95,0-2.925,0-.206.04-.393.253-.467s.357.077.474.235c.269.363.516.743.8,1.09a5.918,5.918,0,0,0,4.5,2.213,3.222,3.222,0,0,0,2.35-.908q.778-.732,1.521-1.5c.21-.219.363-.261.6-.038A20.188,20.188,0,0,1,205.286,149a17.054,17.054,0,0,1,1.121,4.784c.04.57.015,1.142.068,1.7.27,2.82.039,5.645.12,8.465,0,.168,0,.337,0,.506l-.117.043" transform="translate(-110.233 -81.61)" fill="#bfc6ce"/>
        <path id="Trazado_821158" data-name="Trazado 821158" d="M172.363,90.994a7.188,7.188,0,0,1,6.417,3.657c.948,1.636,1.867,3.29,2.817,4.926a.469.469,0,0,1-.115.671q-2.716,2.705-5.418,5.423a5.626,5.626,0,0,0-1.719,2.314.333.333,0,0,1-.4.257,18.629,18.629,0,0,0-2.961-.043c-.288,0-.477-.072-.556-.4a3.334,3.334,0,0,0-.983-1.546q-2.835-2.84-5.667-5.684c-.625-.628-.648-.64-.245-1.4.353-.667.777-1.3,1.149-1.953.621-1.1,1.209-2.216,1.877-3.292a6.215,6.215,0,0,1,3.956-2.706,5.386,5.386,0,0,1,1.844-.222m.076,3.457c-2.572-.254-5.338,2.249-5.1,5.51a5.119,5.119,0,0,0,5.014,4.811,5.23,5.23,0,0,0,5.208-5.51,5.165,5.165,0,0,0-5.119-4.812" transform="translate(-95.018 -52.948)" fill="#bfc6ce"/>
        <path id="Trazado_821159" data-name="Trazado 821159" d="M148.114,156.037c-.009-.073-.018-.146-.027-.219v0c.042.005.064-.013.064-.056.116-.156.053-.316.009-.475,0-.834-.012-1.667-.012-2.5q0-8.651-.007-17.3c0-.226.014-.451.022-.677a.147.147,0,0,0-.053-.2c0-.07-.01-.14-.014-.21l0,0a.083.083,0,0,0,.056-.016h.1c1.046.886,1.948,1.919,2.927,2.873.609.592,1.209,1.194,1.792,1.812a3.929,3.929,0,0,0,4.375,1.061,6.2,6.2,0,0,0,3.413-2.49c.125-.187.263-.367.4-.547s.3-.319.526-.249.22.291.222.479c0,.591,0,1.181,0,1.772-.091.067-.091.135,0,.2q0,.421.008.842c-.09.071-.068.138.007.2a.538.538,0,0,1-.383.291,8.391,8.391,0,0,0-4.817,3.409c-2.4,3.429-4.789,6.869-7.189,10.3a13.509,13.509,0,0,1-1.267,1.706l-.142-.014" transform="translate(-86.182 -78.21)" fill="#bfc6ce"/>
        <path id="Trazado_821160" data-name="Trazado 821160" d="M139.8,110.017a2.618,2.618,0,0,1,2.5-2.522.913.913,0,0,1,.706.344q4.816,4.84,9.639,9.672c.1.1.194.2.295.295.762.732.827,1.071.307,1.993a3.088,3.088,0,0,1-2.2,1.506.475.475,0,0,1-.45-.194q-5.327-5.36-10.668-10.706a.434.434,0,0,1-.132-.388" transform="translate(-81.361 -62.559)" fill="#848d9a"/>
        <path id="Trazado_821161" data-name="Trazado 821161" d="M197.569,118.85a.736.736,0,0,1,.313-.632c3.4-3.407,6.817-6.8,10.193-10.231a1.193,1.193,0,0,1,1.473-.287,2.947,2.947,0,0,1,1.786,2.217c.082.344-.156.547-.366.757l-6.41,6.421q-1.86,1.864-3.718,3.729c-.638.639-.866.66-1.686.248a2.729,2.729,0,0,1-1.586-2.221" transform="translate(-114.976 -62.6)" fill="#848d9a"/>
        <path id="Trazado_821162" data-name="Trazado 821162" d="M8.287,119.077a6.351,6.351,0,0,1-.062-1.647c-.027-.416.013-.836-.013-1.252-.022-.352.073-.487.457-.482,1.526.021,3.052.007,4.579.007,2.775,0,5.55.011,8.325-.01.45,0,.553.131.5.556a16.283,16.283,0,0,0-.093,2.448c.006.313-.059.449-.435.447-3.937-.019-7.874-.012-11.811-.018-.484,0-.969-.035-1.453-.054l.008,0" transform="translate(-4.771 -67.331)" fill="#848d9a"/>
        <path id="Trazado_821163" data-name="Trazado 821163" d="M130.1,61.365c-.62-.411-1.248-.811-1.858-1.238-.323-.226-.512-.21-.745.149a19.8,19.8,0,0,1-1.437,2.166c-.2.237.015.323.124.405.369.279.756.535,1.142.79.851.564,1.7,1.131,2.562,1.679a.673.673,0,0,1,.362.672c-.028.607-.006,1.217-.009,1.826,0,.146.047.326-.208.323a8.372,8.372,0,0,1-3.5-.338,5.1,5.1,0,0,1-2.7-2.745,4.672,4.672,0,0,1-.464-2.171,5.02,5.02,0,0,1,4.181-4.973,8.917,8.917,0,0,1,2.379-.11c.22.015.353.089.353.344,0,1.059.007,2.119.012,3.178l-.2.042" transform="translate(-71.799 -33.621)" fill="#f9b698"/>
        <path id="Trazado_821164" data-name="Trazado 821164" d="M230.822,57.834a7.219,7.219,0,0,1,3.1.37,4.7,4.7,0,0,1,3.13,3.537,5.118,5.118,0,0,1-4.885,6.41c-.553.019-1.108,0-1.662,0a.077.077,0,0,0-.09-.034q-.017-1.142-.035-2.285c0-.228.154-.322.317-.431,1.241-.823,2.472-1.66,3.72-2.472.247-.161.3-.283.134-.53-.485-.719-.964-1.441-1.428-2.174-.19-.3-.387-.287-.644-.111-.528.363-1.064.714-1.591,1.079-.148.1-.3.215-.474.138-.2-.089-.014-.263-.024-.4a20.647,20.647,0,0,0-.1-2.843c-.059-.28.2-.265.388-.265q.069.109.142,0" transform="translate(-134.019 -33.64)" fill="#f9b698"/>
        <path id="Trazado_821165" data-name="Trazado 821165" d="M71.959,196.679a14.312,14.312,0,0,1-3.973-.625c-.277-.075-.512-.172-.235-.627,1.095-1.795,2.121-3.632,3.146-5.468a.4.4,0,0,1,.372-.252c1.7-.133,1.737-.107,2.581,1.392.813,1.444,1.64,2.88,2.468,4.316.176.306.176.453-.225.584a13.481,13.481,0,0,1-4.134.679" transform="translate(-39.357 -110.375)" fill="#bfc6ce"/>
        <path id="Trazado_821166" data-name="Trazado 821166" d="M53.227,162.771c-.97,0-1.94,0-2.911,0-.543,0-.652-.106-.52-.638a14.027,14.027,0,0,1,1.22-3.347,13.655,13.655,0,0,1,2.88-3.6c.34-.308.446-.037.574.186.907,1.577,1.76,3.188,2.733,4.723a1.523,1.523,0,0,1,0,1.935,1.255,1.255,0,0,1-1.331.737,26.27,26.27,0,0,0-2.649-.022v.019" transform="translate(-28.951 -90.236)" fill="#bfc6ce"/>
        <path id="Trazado_821167" data-name="Trazado 821167" d="M53.668,189.068a12.627,12.627,0,0,1-2.952-4.007,7.654,7.654,0,0,1-.852-3.257l.36-.056,6.145,0,.487.027c.265.444.523.893.8,1.328a.457.457,0,0,1,0,.567c-.353.541-.65,1.121-1.03,1.641-.392.537-.618,1.159-.971,1.714a17.291,17.291,0,0,0-1.185,2.16c-.06.134-.107.262-.292.2a.279.279,0,0,0-.3-.116.13.13,0,0,1-.059-.056.163.163,0,0,0-.156-.148" transform="translate(-29.019 -105.772)" fill="#ffd65d"/>
        <path id="Trazado_821168" data-name="Trazado 821168" d="M95.326,181.7c.459-.01.277.365.245.523a11.218,11.218,0,0,1-.973,3.011A14.191,14.191,0,0,1,93.54,187c-.418.576-.931,1.081-1.387,1.631-.229.276-.661.287-.817.68-.037.093-.225-.074-.332-.206a15.75,15.75,0,0,1-1.022-1.826c-.715-1.173-1.362-2.387-2.055-3.573a.552.552,0,0,1,.041-.75.826.826,0,0,0,.2-.3c.254-.877.858-1.019,1.694-.986,1.75.07,3.5.029,5.257.033l.212,0" transform="translate(-51.097 -105.724)" fill="#ffd65d"/>
        <path id="Trazado_821169" data-name="Trazado 821169" d="M101.534,164.216l-.215.024c-.028-.05-.058-.053-.088,0-.935.007-1.87.006-2.8.026-.388.008-.48-.109-.337-.486a4.556,4.556,0,0,0,.236-1.664c-.008-1.491,0-2.981.067-4.5a11.6,11.6,0,0,1,3.156,6.145l-.014.46" transform="translate(-57.048 -91.725)" fill="#bfc6ce"/>
        <path id="Trazado_821170" data-name="Trazado 821170" d="M65.816,135.04c0-.4-.029-.8.006-1.2a1.689,1.689,0,0,1,1.641-1.634,1.734,1.734,0,0,1,1.753,1.586c.058.551.026,1.111.039,1.667.005.22-.106.3-.312.327a13.578,13.578,0,0,0-2.755.677c-.308.109-.407.043-.395-.277.014-.382,0-.765,0-1.147Z" transform="translate(-38.29 -76.941)" fill="#848d9a"/>
        <path id="Trazado_821171" data-name="Trazado 821171" d="M70.323,154.122c0,.041.009.082.013.123l-.219.152c-.815-1.412-1.627-2.825-2.45-4.233-.1-.168-.207-.279.065-.37a9.656,9.656,0,0,1,2.12-.523c.334-.033.436.071.433.428-.014,1.2.018,2.4.033,3.6-.083.071-.074.136.013.2,0,.141,0,.283.005.424-.1.061-.107.128-.013.2" transform="translate(-39.318 -86.869)" fill="#ffd65d"/>
        <path id="Trazado_821172" data-name="Trazado 821172" d="M74.441,174.961c.191-.025.3.105.4.259A5.3,5.3,0,0,0,76.7,177.06c.125.074.25.157.217.316s-.187.194-.312.229a1.931,1.931,0,0,1-2.084-.329,1.807,1.807,0,0,1-.332-2.113c.05-.131.079-.222.248-.2" transform="translate(-43.066 -101.82)" fill="#a46332"/>
        <path id="Trazado_821173" data-name="Trazado 821173" d="M147.857,52.759a1.4,1.4,0,0,1-.017.665c-.4-.232-.329-.452.017-.665" transform="translate(-85.881 -30.704)" fill="#a46332"/>
        <path id="Trazado_821174" data-name="Trazado 821174" d="M106.419,172.77l.014-.46c.076.156.184.313-.014.46" transform="translate(-61.933 -100.28)" fill="#848d9a"/>
        <path id="Trazado_821175" data-name="Trazado 821175" d="M123.448,132.232c-.036-.051-.029-.09.033-.112s.1.027.079.079c-.007.021-.073.023-.112.034" transform="translate(-71.831 -76.889)" fill="#848d9a"/>
        <path id="Trazado_821176" data-name="Trazado 821176" d="M139.909,198.021l0-.136c.039.012.108.018.112.036.016.085-.041.107-.115.1" transform="translate(-81.423 -115.164)" fill="#a46332"/>
        <path id="Trazado_821177" data-name="Trazado 821177" d="M148.112,186.177l.142.014c.009.083.025.2-.092.184s-.078-.119-.05-.2" transform="translate(-86.18 -108.35)" fill="#a46332"/>
        <path id="Trazado_821178" data-name="Trazado 821178" d="M148.155,184.394c.043.159.107.319-.009.475a.429.429,0,0,1,.009-.475" transform="translate(-86.178 -107.312)" fill="#a46332"/>
        <path id="Trazado_821179" data-name="Trazado 821179" d="M65.913,181.672l-.487-.027a.372.372,0,0,1,.487.027" transform="translate(-38.076 -105.667)" fill="#a46332"/>
        <path id="Trazado_821180" data-name="Trazado 821180" d="M123.438,134.374c0-.05,0-.1,0-.148a.1.1,0,0,1,0,.148" transform="translate(-71.838 -78.116)" fill="#848d9a"/>
        <path id="Trazado_821181" data-name="Trazado 821181" d="M139.476,66.311l.2-.042-.111.2-.091-.153" transform="translate(-81.171 -38.567)" fill="#848d9a"/>
        <path id="Trazado_821182" data-name="Trazado 821182" d="M50.226,181.654l-.36.056c.1-.173.224-.138.36-.056" transform="translate(-29.021 -105.678)" fill="#a46332"/>
        <path id="Trazado_821183" data-name="Trazado 821183" d="M73.677,161.33l.219-.152c.023.085.036.171-.056.223s-.123-.013-.163-.071" transform="translate(-42.878 -93.801)" fill="#a46332"/>
        <path id="Trazado_821184" data-name="Trazado 821184" d="M148.315,134.264h-.1c-.031-.051-.01-.089.041-.09.02,0,.041.058.061.089" transform="translate(-86.248 -78.086)" fill="#a46332"/>
        <path id="Trazado_821185" data-name="Trazado 821185" d="M59.479,199.739a.28.28,0,0,1,.3.116c-.119.015-.234.017-.3-.116" transform="translate(-34.615 -116.239)" fill="#a46332"/>
        <path id="Trazado_821186" data-name="Trazado 821186" d="M231.375,57.874q-.073.107-.142,0l.142,0" transform="translate(-134.571 -33.679)" fill="#a46332"/>
        <path id="Trazado_821187" data-name="Trazado 821187" d="M105.51,181.686l-.212,0a.143.143,0,0,1,.212,0" transform="translate(-61.281 -105.71)" fill="#a46332"/>
        <path id="Trazado_821188" data-name="Trazado 821188" d="M148.126,134.92a.147.147,0,0,1,.053.2.183.183,0,0,1-.053-.2" transform="translate(-86.199 -78.52)" fill="#a46332"/>
        <path id="Trazado_821189" data-name="Trazado 821189" d="M105.695,173.415c.03-.052.059-.049.088,0l-.044.018Z" transform="translate(-61.512 -100.901)" fill="#848d9a"/>
        <path id="Trazado_821190" data-name="Trazado 821190" d="M74.079,160.6c-.093-.074-.084-.14.013-.2,0,.067-.009.134-.013.2" transform="translate(-43.074 -93.349)" fill="#a46332"/>
        <path id="Trazado_821191" data-name="Trazado 821191" d="M148.031,185.658v0l-.04.007.039,0" transform="translate(-86.127 -108.045)" fill="#a46332"/>
        <path id="Trazado_821192" data-name="Trazado 821192" d="M74.09,159.115c-.088-.059-.1-.124-.013-.2,0,.065.009.13.013.2" transform="translate(-43.077 -92.486)" fill="#a46332"/>
        <path id="Trazado_821193" data-name="Trazado 821193" d="M181.069,148.359c-.074-.066-.1-.133-.007-.2,0,.068,0,.135.007.2" transform="translate(-105.339 -86.222)" fill="#a46332"/>
        <path id="Trazado_821194" data-name="Trazado 821194" d="M181.031,145.86q-.135-.1,0-.2c0,.067,0,.135,0,.2" transform="translate(-105.316 -84.769)" fill="#a46332"/>
        <path id="Trazado_821195" data-name="Trazado 821195" d="M58.965,199.259a.163.163,0,0,1,.156.148l-.156-.148" transform="translate(-34.316 -115.963)" fill="#a46332"/>
        <path id="Trazado_821196" data-name="Trazado 821196" d="M123.442,144.423l0-.008.018,0Z" transform="translate(-71.839 -84.046)" fill="#848d9a"/>
        <path id="Trazado_821197" data-name="Trazado 821197" d="M147.994,134.389l0,0-.078-.007c.014-.006.029-.019.041-.017s.023.018.035.029" transform="translate(-86.084 -78.194)" fill="#a46332"/>
        <path id="Trazado_821198" data-name="Trazado 821198" d="M123.441,133.4v0" transform="translate(-71.839 -77.632)" fill="#848d9a"/>
        <path id="Trazado_821199" data-name="Trazado 821199" d="M8.394,123.782l-.008,0,0,.028Z" transform="translate(-4.878 -72.036)" fill="#a46332"/>
        <path id="Trazado_821200" data-name="Trazado 821200" d="M132.717,107.381l-.039-.006.023-.018Z" transform="translate(-77.215 -62.479)" fill="#848d9a"/>
        <path id="Trazado_821201" data-name="Trazado 821201" d="M230.591,82.481a.076.076,0,0,1,.09.034c-.046.032-.078.024-.09-.034" transform="translate(-134.198 -48)" fill="#a46332"/>
        <path id="Trazado_821202" data-name="Trazado 821202" d="M54.9,15.3a6.878,6.878,0,0,1-13.743.41A6.834,6.834,0,0,1,47.1,8.468,6.785,6.785,0,0,1,54.9,15.3" transform="translate(-23.946 -4.906)" fill="#31b6e7"/>
        <path id="Trazado_821203" data-name="Trazado 821203" d="M19.863,74.535c1.724,0,3.333,1.33,3.444,2.644a3.817,3.817,0,0,1-.951,3.156,3.318,3.318,0,0,1-2.426,1A3.351,3.351,0,0,1,16.5,78.233c-.026-2.282,1.284-3.7,3.36-3.7" transform="translate(-9.604 -43.377)" fill="#31b6e7"/>
        <path id="Trazado_821204" data-name="Trazado 821204" d="M92.211,58.016c.928-.158,1.787.952,1.736,1.736a1.688,1.688,0,0,1-1.633,1.617,1.786,1.786,0,0,1-1.8-1.719,1.608,1.608,0,0,1,1.7-1.634" transform="translate(-52.677 -33.755)" fill="#31b6e7"/>
        <path id="Trazado_821205" data-name="Trazado 821205" d="M172.968,173.66c0-1.775.006-3.55,0-5.325a3.54,3.54,0,0,1,2.9-3.226,17.408,17.408,0,0,1,4.1-.023,3.339,3.339,0,0,1,3.216,3.546c.07,3.375.038,6.752.009,10.128a3.484,3.484,0,0,1-2.913,3.542,6.879,6.879,0,0,1-1.812.023,20.655,20.655,0,0,1-2.6-.07,3.433,3.433,0,0,1-2.9-3.218c-.023-1.792-.005-3.585-.005-5.377h0m6.882.079c0-1.584,0-3.169,0-4.753,0-.3-.043-.508-.413-.5-.885.015-1.77.026-2.655.014-.358-.005-.424.152-.428.475-.033,3.113.107,6.227-.078,9.338-.029.488.2.6.612.591.833-.011,1.667-.021,2.5.007.37.013.472-.1.467-.469-.018-1.567-.008-3.134-.008-4.7" transform="translate(-100.661 -96.011)" fill="#060607"/>
        <path id="Trazado_821206" data-name="Trazado 821206" d="M178.079,214.985a4.994,4.994,0,0,1,5.084,4.733,5.153,5.153,0,0,1-5.32,5.489,5.258,5.258,0,0,1-4.9-5.451c.121-2.591,2.637-5.047,5.14-4.771m-.052,3.333a1.772,1.772,0,0,0-1.743,1.762,1.794,1.794,0,0,0,1.794,1.713,1.769,1.769,0,0,0,1.748-1.7,1.816,1.816,0,0,0-1.8-1.775" transform="translate(-100.642 -125.103)" fill="#060607"/>
        <path id="Trazado_821207" data-name="Trazado 821207" d="M193.145,59.287a3.627,3.627,0,0,1,.287.241c.526.53,1.063,1.051,1.566,1.6.247.272.411.28.662.012.487-.519,1.02-1,1.5-1.519.258-.28.459-.317.729-.043q.917.925,1.853,1.832c.181.175.164.291-.011.462-.6.584-1.166,1.193-1.767,1.771-.212.2-.178.292.024.479.585.543,1.131,1.129,1.71,1.68.24.228.207.38-.015.6-.579.564-1.128,1.16-1.71,1.721-.261.251-.542.378-.84-.025a15.975,15.975,0,0,0-1.572-1.495c-.207-.214-.371-.234-.6.023-.457.512-.957.986-1.446,1.469-.4.4-.515.375-.9-.045q-.791-.862-1.622-1.686c-.223-.221-.249-.352,0-.581.566-.513,1.082-1.081,1.647-1.595.269-.245.223-.406,0-.627-.584-.571-1.152-1.158-1.736-1.728-.138-.135-.243-.223-.054-.408.67-.657,1.326-1.327,1.991-1.989a.358.358,0,0,1,.3-.146" transform="translate(-111.01 -34.503)" fill="#060607"/>
        <path id="Trazado_821208" data-name="Trazado 821208" d="M164.72,68.438c-.206.008-.279-.119-.378-.215-.571-.551-1.147-1.1-1.72-1.645-.172-.165-.284-.217-.5.012-.54.584-1.138,1.112-1.7,1.678-.217.218-.356.176-.55-.031q-.871-.931-1.775-1.83c-.219-.217-.255-.353,0-.584.551-.5,1.058-1.054,1.605-1.561a.408.408,0,0,0,.008-.7c-.556-.55-1.1-1.114-1.661-1.654-.2-.186-.276-.286-.032-.518.629-.6,1.233-1.222,1.827-1.855.257-.274.44-.238.678.014.525.555,1.081,1.081,1.6,1.643.237.258.39.251.624,0,.513-.542,1.067-1.045,1.573-1.594.24-.26.4-.25.636-.014q.932.946,1.888,1.868c.2.187.143.293-.023.456-.57.56-1.117,1.142-1.69,1.7-.22.214-.25.349,0,.579.547.507,1.052,1.059,1.589,1.578a.424.424,0,0,1,0,.719c-.636.607-1.258,1.227-1.886,1.842-.046.045-.094.086-.116.1" transform="translate(-91.875 -34.54)" fill="#060607"/>
        <path id="Trazado_821209" data-name="Trazado 821209" d="M178.081,99.256a5.164,5.164,0,0,1,5.119,4.812,5.23,5.23,0,0,1-5.208,5.51,5.119,5.119,0,0,1-5.014-4.812c-.235-3.261,2.532-5.764,5.1-5.51m-.038,6.787c1.109,0,1.691-.628,1.687-1.812a1.546,1.546,0,0,0-1.713-1.522,1.667,1.667,0,0,0,.026,3.334" transform="translate(-100.66 -57.754)" fill="#060607"/>
        <path id="Trazado_821210" data-name="Trazado 821210" d="M184.46,178.623c0,1.567-.01,3.134.008,4.7,0,.364-.1.482-.467.469-.832-.028-1.666-.018-2.5-.007-.415.005-.641-.1-.612-.591.186-3.111.045-6.225.078-9.338,0-.323.07-.48.428-.475.885.012,1.77,0,2.655-.014.37-.007.415.2.413.5-.008,1.584,0,3.169,0,4.753" transform="translate(-105.271 -100.895)" fill="#a46332"/>
        <path id="Trazado_821211" data-name="Trazado 821211" d="M182.691,222.986a1.816,1.816,0,0,1,1.8,1.775,1.769,1.769,0,0,1-1.748,1.7,1.794,1.794,0,0,1-1.794-1.713,1.772,1.772,0,0,1,1.743-1.762" transform="translate(-105.306 -129.771)" fill="#a46332"/>
        <path id="Trazado_821212" data-name="Trazado 821212" d="M182.806,110.876a1.667,1.667,0,0,1-.026-3.334,1.546,1.546,0,0,1,1.713,1.522c0,1.184-.578,1.809-1.687,1.812" transform="translate(-105.423 -62.586)" fill="#bfc6ce"/>
      </g>
    </g>
  </g>
</svg>
