<svg xmlns="http://www.w3.org/2000/svg" xmlns:xlink="http://www.w3.org/1999/xlink" width="169" height="169" viewBox="0 0 169 169">
  <defs>
    <clipPath id="clip-path">
      <rect id="Rect치ngulo_377601" data-name="Rect치ngulo 377601" width="118.168" height="118.154" fill="none"/>
    </clipPath>
  </defs>
  <g id="Grupo_1073326" data-name="Grupo 1073326" transform="translate(-385.5 -2057.999)">
    <g id="Grupo_159182" data-name="Grupo 159182" transform="translate(385.5 2057.999)">
      <path id="Uni칩n_12" data-name="Uni칩n 12" d="M84.5,0A84.5,84.5,0,1,1,0,84.5,84.5,84.5,0,0,1,84.5,0Z" transform="translate(0 0)" fill="#ffae7e"/>
    </g>
    <g id="Grupo_1073330" data-name="Grupo 1073330" transform="translate(408.501 2079)">
      <g id="Grupo_1073329" data-name="Grupo 1073329" clip-path="url(#clip-path)">
        <path id="Trazado_820883" data-name="Trazado 820883" d="M60.992.027c1.091,0,2.184.021,3.274-.022.463-.018.541.128.54.557-.016,5.14-.01,10.28-.01,15.42,0,10.121-.018,20.242.019,30.363a9.407,9.407,0,0,0,1.451,4.334,12.2,12.2,0,0,0,1.911,2.57.54.54,0,0,0,.429.253v-.521c0-4.6-.027-9.208.022-13.811a7.305,7.305,0,0,1,.8-3.085,9.087,9.087,0,0,1,6.365-5.252,9.362,9.362,0,0,1,7.237,1.182c.251.156.394.155.6-.06.52-.545,1.062-1.07,1.6-1.6a.423.423,0,0,0,.11-.574A11.642,11.642,0,0,1,84.1,26.9c-.06-.245-.2-.2-.342-.2-1.29,0-2.58,0-3.87-.006-.21,0-.283.076-.377.265a5.961,5.961,0,0,1-6.128,3.526,5.532,5.532,0,0,1-4.152-3.113,5.655,5.655,0,0,1,1.292-6.939c2.375-2.076,6.818-1.585,8.407,1.224a4.088,4.088,0,0,1,.614,1.05c.047.208.166.181.3.181,1.31,0,2.62-.01,3.929.01a.349.349,0,0,0,.4-.32,6.422,6.422,0,0,1,1-2.56.673.673,0,0,0-.162-.993c-.776-.7-1.508-1.458-2.277-2.171-.237-.22-.219-.344.006-.559.673-.642,1.337-1.3,1.972-1.974.3-.317.492-.283.763.016.678.746,1.462,1.39,2.093,2.183.265.333.533.4.955.115a8.182,8.182,0,0,1,2.407-1,.648.648,0,0,0,.53-.709q-.013-1.786,0-3.572c0-.23-.066-.322-.294-.414A5.62,5.62,0,0,1,87.7,6.43,5.437,5.437,0,0,1,90.285.861,5.908,5.908,0,0,1,94.637.17a5.576,5.576,0,0,1,4.351,5.1,5.679,5.679,0,0,1-3.513,5.678c-.226.093-.192.207-.193.348,0,1.29,0,2.58-.006,3.87,0,.279.064.4.381.463a7.612,7.612,0,0,1,2.431.971c.337.2.486.243.852-.107.756-.721,1.488-1.468,2.233-2.2.307-.3.447-.357.77.03a21.486,21.486,0,0,0,1.879,1.888c.274.256.329.4.017.685-.715.657-1.366,1.385-2.078,2.046-.432.4-.553.742-.171,1.264a5.545,5.545,0,0,1,.944,2.339c.054.3.226.332.457.332q1.875,0,3.751,0a.437.437,0,0,0,.471-.312,5.188,5.188,0,0,1,3.4-3.173c2.827-.723,5.814.2,7.065,3.2a5.668,5.668,0,0,1-1.944,6.811,5.5,5.5,0,0,1-5.33.725,5.277,5.277,0,0,1-3.076-3.008c-.152-.349-.316-.508-.683-.436a16.777,16.777,0,0,1-2.259-.006c-.553.035-1.213-.16-1.631.083-.335.2-.356.9-.554,1.366a9.448,9.448,0,0,1-.768,1.569c-.208.311-.168.434.072.664.8.769,1.567,1.572,2.364,2.345.214.208.257.333.021.562-.678.658-1.327,1.348-2,2.014-.216.215-.384.3-.68-.025-.7-.773-1.5-1.449-2.219-2.2a.574.574,0,0,0-.809-.157,9.456,9.456,0,0,1-2.556,1.07.431.431,0,0,0-.357.5c.024,1.21.02,2.421,0,3.631a.547.547,0,0,0,.377.582,5.72,5.72,0,0,1,2.476,2.157,3.517,3.517,0,0,0,1,.918,46.33,46.33,0,0,1,12.253,13.611,43.282,43.282,0,0,1,4.352,9.619,47.857,47.857,0,0,1,1.83,7.746,41.021,41.021,0,0,1,.47,4.787c.254,7.83.066,15.661.087,23.491a18.376,18.376,0,0,1-1.046,5.73,14.531,14.531,0,0,1-2.22,4.234,17.265,17.265,0,0,1-3.638,3.694,17.706,17.706,0,0,1-6.913,3.093,20.058,20.058,0,0,1-4.02.381c-6.271,0-12.542.031-18.813-.018a12.311,12.311,0,0,1-6.747-2.165,13.484,13.484,0,0,1-5.432-7.069,13.894,13.894,0,0,1-.689-4.531c.006-11.729-.01-23.457.03-35.186a1.652,1.652,0,0,0-1.169-1.746,26.306,26.306,0,0,1-4.755-2.6,23.085,23.085,0,0,1-3.2-2.727c-.322-.327-.528-.338-.872-.008a26.686,26.686,0,0,1-5.757,4.269,24.678,24.678,0,0,1-3.08,1.407.339.339,0,0,0-.246.352c0,.159,0,.318,0,.476,0,11.768.018,23.536-.02,35.3a16.393,16.393,0,0,1-.781,5.083,13.279,13.279,0,0,1-2.78,4.7A13.981,13.981,0,0,1,38.094,118a10.982,10.982,0,0,1-2.285.152c-6.51-.015-13.019.02-19.528-.029a15.829,15.829,0,0,1-4.763-.969,16.8,16.8,0,0,1-8.395-6.392,13.148,13.148,0,0,1-1.533-2.581,19.989,19.989,0,0,1-1.259-4.058,40.2,40.2,0,0,1-.3-7.421c-.035-6.509-.042-13.019.012-19.527a32.5,32.5,0,0,1,.433-4.127A47.686,47.686,0,0,1,1.48,68.1,43.924,43.924,0,0,1,6.744,55.461a47.83,47.83,0,0,1,9.678-11.671,64.572,64.572,0,0,1,10-6.827c1.688-.952,3.331-1.983,5.028-2.918,1.373-.757,2.7-1.6,4.074-2.345a9.591,9.591,0,0,1,6.644-.858A8.964,8.964,0,0,1,48.4,35.58a6.589,6.589,0,0,1,.891,2.65c.091,1.077.293,2.14.278,3.237-.051,3.829-.02,7.66-.02,11.49v.531c.229.068.293-.12.391-.221a11.5,11.5,0,0,0,3.321-6.94,21.207,21.207,0,0,0,.095-2.3q.009-21.671-.007-43.342c0-.52.1-.709.659-.68,1.05.054,2.1.021,3.155.024q.012,1.749.023,3.5c0,.238-.05.361.353.325a10.7,10.7,0,0,1,2.833.029c.488.088.6-.032.6-.472,0-1.126.012-2.253.02-3.379M45.742,85.169q0-9.914,0-19.826c0-.293.079-.567-.422-.559-2,.032-4.009.014-6.013.012a1.063,1.063,0,0,0-.767.25q-.838.8-1.648,1.635-1.4,1.435-2.785,2.886c-.272.283-.471.308-.766-.018a24.639,24.639,0,0,0-1.817-1.8c-.363-.326-.421-.547-.041-.9.8-.747,1.544-1.542,2.334-2.295.288-.274.289-.454-.081-.589a12.108,12.108,0,0,1-4.231-3.2c-.285-.283-.269-.457.009-.72.648-.614,1.3-1.229,1.893-1.893.316-.353.528-.324.818-.023.4.414.8.827,1.217,1.223a5.341,5.341,0,0,0,3.646,1.621c2.7.039,5.4,0,8.1.031.5.006.565-.171.564-.6-.012-6.787,0-13.575-.017-20.362a5.868,5.868,0,0,0-.2-1.568,5.563,5.563,0,0,0-8.217-3.385q-5.973,3.384-11.886,6.876A43.221,43.221,0,0,0,8.9,59.3,43.924,43.924,0,0,0,4.328,73.074a32.593,32.593,0,0,0-.486,4.941c-.032,7.5,0,15-.035,22.5a14.366,14.366,0,0,0,.178,2.773,14.2,14.2,0,0,0,2.554,5.8,13.492,13.492,0,0,0,4.012,3.542,13.106,13.106,0,0,0,4.655,1.562,6.587,6.587,0,0,0,1.044.127q9.913.011,19.825.006a7.087,7.087,0,0,0,1.13-.01,9.962,9.962,0,0,0,6.381-3.567,9.487,9.487,0,0,0,2.139-6.06c.049-6.509.017-13.019.017-19.528M72.416,76.2q0,5.477-.006,10.954c0,.348.03.535.465.521,1.05-.034,2.1-.02,3.155-.006.311,0,.486-.1.54-.409a7.081,7.081,0,0,1,.934-2.361.778.778,0,0,0-.151-1.1c-.727-.675-1.4-1.4-2.128-2.08-.3-.28-.258-.459.016-.716A25.493,25.493,0,0,0,77.1,79.15c.352-.407.581-.364.9-.029.676.7,1.383,1.368,2.037,2.087a.7.7,0,0,0,1.046.108,7.024,7.024,0,0,1,2.359-.94.442.442,0,0,0,.414-.52c-.018-1.051.006-2.1-.012-3.155-.006-.357.1-.488.471-.48q1.458.034,2.917,0c.335-.007.443.089.436.431-.021,1.031.007,2.064-.015,3.1a.555.555,0,0,0,.507.656,7.451,7.451,0,0,1,2.4.991.566.566,0,0,0,.824-.109c.715-.744,1.456-1.463,2.175-2.2a.465.465,0,0,1,.792.005c.586.619,1.184,1.229,1.807,1.811.354.331.375.574.012.917-.749.708-1.46,1.457-2.2,2.178-.229.223-.311.412-.1.71a6.431,6.431,0,0,1,1.046,2.439c.082.418.313.531.713.523,1.012-.022,2.024.006,3.036-.015.343-.007.44.1.43.437-.023.753-.007,1.508-.007,2.262,0,.916-.2,1.115-1.141,1.12a16.247,16.247,0,0,0-2.714.114c-.158.028-.3-.006-.319.235a5.77,5.77,0,0,1-.975,2.519c-.252.424-.116.675.21.977.726.674,1.421,1.382,2.111,2.093.165.17.326.383.066.64-.734.725-1.456,1.46-2.181,2.193-.194.2-.352.176-.546-.025-.7-.727-1.479-1.393-2.118-2.172a.732.732,0,0,0-1.138-.193,6.872,6.872,0,0,1-2.269.9c-.3.056-.444.194-.432.556.036,1.05,0,2.1.019,3.155,0,.319-.061.458-.42.449q-1.487-.036-2.976,0c-.343.008-.436-.1-.428-.435.021-.893,0-1.786.009-2.679a.987.987,0,0,0-.794-1.084,7.763,7.763,0,0,1-2.1-.907.734.734,0,0,0-1.04.145c-.62.688-1.273,1.346-1.9,2.025a.561.561,0,0,1-.934.029c-.655-.664-1.312-1.325-1.979-1.978-.177-.173-.182-.273-.014-.48a26.557,26.557,0,0,1,2.278-2.336c.267-.257.431-.515.214-.878a8.953,8.953,0,0,1-1.029-2.36.623.623,0,0,0-.716-.508c-.992.017-1.985.026-2.976,0-.393-.012-.447.137-.446.478.013,4.485.006,8.969.022,13.454a7.865,7.865,0,0,0,.634,2.879,10.116,10.116,0,0,0,2.991,4.07,8.113,8.113,0,0,0,5.11,1.949c6.468.1,12.937.041,19.406.043a15.239,15.239,0,0,0,3.323-.344A13.071,13.071,0,0,0,114.3,101.2c.071-7.831.172-15.664-.07-23.5a40.861,40.861,0,0,0-.531-5.329,41.771,41.771,0,0,0-2.505-8.938,44.1,44.1,0,0,0-12.177-17c-.313-.272-.458-.263-.66.1a5.594,5.594,0,0,1-4.63,3,5.794,5.794,0,0,1-6.049-5.249A5.277,5.277,0,0,1,88.9,40.372c.321-.4.219-.592-.188-.8-.495-.248-.973-.53-1.455-.8-2.221-1.264-4.431-2.546-6.665-3.788a5.246,5.246,0,0,0-3.1-.651,5.584,5.584,0,0,0-4.771,3.773,5.275,5.275,0,0,0-.3,1.69q-.008,10.359-.013,20.717c0,.41.137.482.506.48,2.58-.015,5.159,0,7.739-.01a5.633,5.633,0,0,0,3.982-1.57c.462-.435.9-.891,1.354-1.339.215-.214.419-.265.659-.019.679.7,1.369,1.381,2.056,2.069a.347.347,0,0,1,0,.56,11.961,11.961,0,0,1-4.2,3.244c-.485.188-.464.346-.128.668.788.754,1.551,1.534,2.333,2.294.278.27.335.469.005.774-.669.619-1.3,1.277-1.928,1.942-.268.286-.436.341-.744.022-1.42-1.469-2.876-2.9-4.3-4.367a1.453,1.453,0,0,0-1.152-.476q-2.8.034-5.6,0c-.452-.006-.6.093-.593.575.022,3.611.012,7.223.012,10.834m-11.429-34h0c0-1.171-.027-2.342.013-3.51.017-.491-.152-.588-.6-.572-.891.032-1.786.034-2.677,0-.437-.017-.547.1-.564.547-.108,2.926.29,5.864-.308,8.783a22.159,22.159,0,0,1-.71,2.907,13.313,13.313,0,0,1-3.035,4.862A11.41,11.41,0,0,1,50.12,57.8c-.209.1-.567.24-.567.616q0,2.588,0,5.177c0,.219.082.294.286.2.161-.076.319-.16.478-.239a29.688,29.688,0,0,0,8.244-6.638c.363-.386.541-.387.923-.02a44.042,44.042,0,0,0,4.134,3.928,36.856,36.856,0,0,0,4.471,2.892c.43.231.53.123.524-.334-.019-1.408-.041-2.817.009-4.224a1.313,1.313,0,0,0-.713-1.35,14.421,14.421,0,0,1-4.065-4.027A15.671,15.671,0,0,1,61,45.527c-.064-1.107-.01-2.22-.01-3.331M86.8,83.976a1.3,1.3,0,0,0,.186.655,7.347,7.347,0,0,1-.82,7.452,8.653,8.653,0,0,1-2.546,2.237c-.13.082-.317.109-.331.3a.268.268,0,0,0,.184.277,4.893,4.893,0,0,0,1.216.362,10.212,10.212,0,0,0,2.187-.105,5.211,5.211,0,0,0,3.825-2.795,6.312,6.312,0,0,0,.693-3.422,5.629,5.629,0,0,0-4.592-4.96m.864-59.209A5.648,5.648,0,0,0,93.354,30.5c.18,0,.449.129.528-.1.069-.2-.178-.326-.308-.469a7.352,7.352,0,0,1,.08-10.35c.116-.122.327-.247.222-.438-.079-.144-.291-.062-.443-.064a5.683,5.683,0,0,0-5.774,5.693m11.432.013a6.176,6.176,0,0,0-.955-3.22c-.218-.343-.429-.378-.779-.19a3.846,3.846,0,0,0-.252,6.688c.711.44.8.406,1.206-.345a6.978,6.978,0,0,0,.78-2.933M80.042,89.654c0,.08,0,.159,0,.238.012.546-.07,1.232.42,1.509.526.3,1.064-.175,1.535-.473a3.849,3.849,0,0,0,1.078-5.594c-.435-.6-.48-.6-1.029-.124a5.568,5.568,0,0,0-2,4.444M57.19,32.4c0,.475.02.952-.007,1.426-.019.347.061.489.449.477.97-.03,1.942-.024,2.912,0,.341.008.438-.1.431-.434A24.9,24.9,0,0,1,61,30.96c.047-.484-.276-.556-.466-.523a21.9,21.9,0,0,1-3.009.074c-.261.011-.343.093-.336.346.014.515,0,1.03,0,1.545m1.863-20.953c.5,0,.994-.027,1.487.009.389.029.459-.126.452-.474q-.032-1.458,0-2.917c.007-.334-.085-.444-.429-.436q-1.488.033-2.976,0c-.353-.008-.425.123-.42.444q.026,1.488,0,2.976c-.005.308.078.421.4.4.495-.025.992-.007,1.488-.007m-.028,15.207v.035c.516,0,1.032-.013,1.548.005.289.01.426-.048.419-.384-.021-1.011-.019-2.024,0-3.036.005-.311-.085-.409-.4-.4q-1.518.028-3.036,0c-.332-.007-.4.122-.387.416.02.515-.01,1.032.01,1.547.024.606-.266,1.42.124,1.759.337.293,1.131.061,1.724.061m.007-7.6c.515,0,1.031-.009,1.546,0,.254.006.4-.028.4-.345-.017-1.03-.012-2.061,0-3.091,0-.246-.06-.354-.331-.351-1.03.013-2.061.014-3.091,0-.291,0-.369.1-.366.377.014,1.01.019,2.021,0,3.032-.007.34.139.39.423.38.475-.017.951,0,1.427,0M76.161,24.89a1.952,1.952,0,0,0-1.806-2A2.054,2.054,0,0,0,72.3,24.741a1.978,1.978,0,0,0,1.857,1.951,1.76,1.76,0,0,0,2.007-1.8M95.206,43.955a1.877,1.877,0,1,0-2.017,1.789,1.732,1.732,0,0,0,2.017-1.789m-.031-38.3a1.866,1.866,0,0,0-1.984-1.819,1.914,1.914,0,1,0,.4,3.807,1.694,1.694,0,0,0,1.584-1.988M114.26,24.9a1.915,1.915,0,0,0-1.732-2.014,1.9,1.9,0,0,0-2.005,1.7,1.922,1.922,0,0,0,1.72,2.108,1.735,1.735,0,0,0,2.018-1.79M91.469,36.882c0-.865-.036-1.617.015-2.364.026-.385-.169-.473-.441-.529a6.9,6.9,0,0,1-2.606-1.106.422.422,0,0,0-.62.022c-.253.251-.5.507-.754.757s-.262.5.066.694c1.411.826,2.825,1.645,4.341,2.527" transform="translate(0 0)" fill="#060607"/>
        <path id="Trazado_820884" data-name="Trazado 820884" d="M123.822.056c-.008,1.126-.023,2.252-.02,3.379,0,.44-.108.561-.6.473a10.684,10.684,0,0,0-2.833-.029c-.4.036-.351-.088-.353-.325Q120.01,1.8,120,.056h3.825" transform="translate(-62.831 -0.029)" fill="#c4895f"/>
        <path id="Trazado_820885" data-name="Trazado 820885" d="M49.926,122.878c0,6.51.031,13.02-.017,19.529a9.487,9.487,0,0,1-2.139,6.06,9.96,9.96,0,0,1-6.381,3.566,6.977,6.977,0,0,1-1.13.01q-9.913,0-19.825-.005a6.589,6.589,0,0,1-1.044-.127,13.107,13.107,0,0,1-4.655-1.563,13.5,13.5,0,0,1-4.012-3.542A14.2,14.2,0,0,1,8.169,141a14.358,14.358,0,0,1-.178-2.773c.034-7.5,0-15,.035-22.505a32.587,32.587,0,0,1,.486-4.941A43.924,43.924,0,0,1,13.08,97.006a43.221,43.221,0,0,1,16.532-17.34q5.915-3.486,11.886-6.876a5.563,5.563,0,0,1,8.217,3.385,5.866,5.866,0,0,1,.2,1.568c.013,6.787.005,13.575.017,20.362,0,.432-.063.609-.565.6-2.7-.031-5.4.008-8.1-.031a5.343,5.343,0,0,1-3.646-1.621c-.417-.4-.818-.808-1.217-1.223-.29-.3-.5-.331-.818.023-.595.664-1.245,1.279-1.893,1.893-.278.263-.294.437-.009.72a12.108,12.108,0,0,0,4.231,3.2c.37.134.369.314.081.588-.79.753-1.539,1.549-2.334,2.3-.38.357-.322.578.041.9a24.64,24.64,0,0,1,1.817,1.8c.3.326.495.3.766.018q1.386-1.449,2.784-2.886.811-.831,1.649-1.635a1.062,1.062,0,0,1,.767-.25c2,0,4.009.02,6.013-.012.5-.008.422.266.422.559q0,9.913,0,19.826M32.413,141.459c-.063-.123-.137-.282-.223-.433-.647-1.147-1.283-2.3-1.948-3.435a32.306,32.306,0,0,0-3.48-4.974q-.993-1.136-2.073-2.181a.743.743,0,0,1-.137-1.111c1.335-2.1,2.6-4.237,3.9-6.354.207-.337.143-.509-.191-.7-.809-.459-1.6-.947-2.395-1.437-.362-.223-.539-.111-.744.241-1.148,1.968-2.33,3.916-3.485,5.88-.249.424-.5.487-.89.183a15.719,15.719,0,0,0-2.82-1.8c-1-.485-1.975-1-2.963-1.5-.366-.185-.6-.136-.754.309-.293.84-.626,1.668-.985,2.483-.165.374-.125.581.259.74a25.866,25.866,0,0,1,6.092,3.583,25.439,25.439,0,0,1,2.855,2.45c.5.527.935,1.11,1.423,1.642a22.918,22.918,0,0,1,3.156,4.586c.663,1.216,1.372,2.407,2.069,3.6.079.135.148.337.4.142a19.393,19.393,0,0,1,2.578-1.523c.16-.089.323-.142.359-.391" transform="translate(-4.184 -37.709)" fill="#e65a73"/>
        <path id="Trazado_820886" data-name="Trazado 820886" d="M151.995,113.9c0-3.612.01-7.223-.012-10.835,0-.482.141-.581.593-.575q2.8.037,5.6,0a1.453,1.453,0,0,1,1.152.475c1.424,1.465,2.881,2.9,4.3,4.367.308.319.475.264.744-.022.625-.665,1.259-1.323,1.928-1.942.33-.305.273-.5,0-.774-.783-.76-1.545-1.541-2.334-2.295-.336-.322-.356-.479.129-.668a11.956,11.956,0,0,0,4.2-3.244.347.347,0,0,0,0-.56c-.687-.687-1.377-1.373-2.056-2.068-.241-.247-.444-.2-.659.019-.45.448-.893.9-1.355,1.339a5.634,5.634,0,0,1-3.982,1.57c-2.58.007-5.159,0-7.739.01-.369,0-.506-.07-.505-.48q.02-10.358.013-20.717a5.272,5.272,0,0,1,.3-1.69,5.582,5.582,0,0,1,4.772-3.773,5.237,5.237,0,0,1,3.1.651c2.233,1.242,4.444,2.524,6.665,3.787.482.274.96.557,1.455.8.406.2.509.393.188.8a5.275,5.275,0,0,0-1.222,3.915,5.793,5.793,0,0,0,6.049,5.249,5.593,5.593,0,0,0,4.63-3c.2-.361.346-.37.66-.1a44.1,44.1,0,0,1,12.177,17,41.783,41.783,0,0,1,2.505,8.938,40.845,40.845,0,0,1,.531,5.329c.243,7.832.141,15.666.071,23.5a13.072,13.072,0,0,1-10.4,12.786,15.211,15.211,0,0,1-3.323.343c-6.469,0-12.939.061-19.406-.043a8.115,8.115,0,0,1-5.111-1.949,10.114,10.114,0,0,1-2.991-4.07,7.87,7.87,0,0,1-.634-2.879c-.016-4.484-.009-8.969-.022-13.454,0-.342.053-.491.446-.478.991.031,1.984.021,2.976,0a.622.622,0,0,1,.716.508,8.957,8.957,0,0,0,1.029,2.36c.217.362.053.62-.213.878a26.626,26.626,0,0,0-2.278,2.335c-.167.207-.162.306.015.48.667.652,1.324,1.313,1.979,1.978a.561.561,0,0,0,.934-.029c.63-.679,1.284-1.336,1.9-2.025a.734.734,0,0,1,1.04-.145,7.775,7.775,0,0,0,2.1.907.986.986,0,0,1,.794,1.083c-.005.893.013,1.786-.009,2.679-.008.335.085.443.429.435q1.487-.034,2.976,0c.359.008.424-.131.419-.449-.017-1.052.017-2.1-.019-3.155-.012-.363.128-.5.432-.556a6.866,6.866,0,0,0,2.269-.9.732.732,0,0,1,1.138.193c.638.779,1.413,1.445,2.117,2.172.195.2.353.221.546.025.726-.733,1.448-1.469,2.182-2.193.26-.256.1-.47-.066-.639-.691-.711-1.385-1.419-2.111-2.094-.325-.3-.463-.553-.21-.976a5.772,5.772,0,0,0,.975-2.519c.018-.241.161-.207.318-.234a16.25,16.25,0,0,1,2.714-.114c.937-.005,1.141-.2,1.141-1.12,0-.754-.016-1.508.007-2.262.01-.335-.088-.444-.431-.436-1.011.021-2.024-.007-3.036.015-.4.009-.631-.1-.714-.522a6.416,6.416,0,0,0-1.046-2.439c-.208-.3-.126-.487.1-.71.737-.721,1.449-1.47,2.2-2.178.363-.343.342-.586-.013-.918-.623-.582-1.22-1.192-1.807-1.811a.465.465,0,0,0-.791-.005c-.719.74-1.461,1.458-2.175,2.2a.566.566,0,0,1-.824.109,7.441,7.441,0,0,0-2.4-.991.555.555,0,0,1-.507-.656c.023-1.031-.006-2.064.016-3.1.007-.343-.1-.438-.436-.431-.972.02-1.945.022-2.917,0-.372-.009-.477.122-.471.48.018,1.051-.006,2.1.012,3.155a.441.441,0,0,1-.413.521,7.026,7.026,0,0,0-2.36.94.7.7,0,0,1-1.046-.108c-.653-.719-1.361-1.388-2.036-2.087-.324-.335-.553-.378-.9.029a25.6,25.6,0,0,1-1.854,1.847c-.273.257-.315.436-.015.716.724.678,1.4,1.405,2.128,2.08a.777.777,0,0,1,.151,1.1,7.1,7.1,0,0,0-.935,2.361c-.054.313-.229.414-.54.409-1.052-.014-2.1-.029-3.155.006-.435.014-.466-.173-.465-.521q.014-5.477.006-10.953m36.2-5.689a7.618,7.618,0,1,0-7.61,7.626,7.623,7.623,0,0,0,7.61-7.626m-3.834,38.126a5.8,5.8,0,0,0,3.8-1.49,5.167,5.167,0,0,0,1.946-3.615c.084-3.934-2.529-6.293-5.791-6.338a5.962,5.962,0,0,0-5.689,5.7c.07,3.059,2.833,5.871,5.73,5.746m5.74-22.73c0-.612-.012-1.128,0-1.642.01-.288-.047-.426-.383-.42-1.009.021-2.019.017-3.028,0-.317,0-.411.116-.407.418q.018,1.514,0,3.028c0,.277.072.386.364.374.534-.02,1.069,0,1.6-.007.591-.007,1.378.2,1.721-.1.4-.344.07-1.152.128-1.659M178.669,94.885c0-.515-.013-1.03.006-1.544.01-.286-.091-.373-.373-.369q-1.514.021-3.028,0c-.3,0-.423.091-.418.407.014,1.009.01,2.019,0,3.029,0,.263.046.391.353.386,1.029-.017,2.059-.02,3.088,0,.341.007.389-.143.38-.425-.016-.495,0-.989,0-1.484m-19.053-7.593c0-.515-.018-1.03.007-1.544.015-.318-.1-.4-.4-.4q-1.484.026-2.969,0c-.332-.006-.453.1-.447.439.016.989.014,1.979,0,2.969,0,.291.051.423.384.416,1.009-.021,2.019-.018,3.028,0,.3,0,.425-.074.409-.4-.024-.494-.006-.989-.006-1.484" transform="translate(-79.578 -37.707)" fill="#e65a73"/>
        <path id="Trazado_820887" data-name="Trazado 820887" d="M115.448,84.081c0,1.11-.053,2.224.01,3.331a15.673,15.673,0,0,0,2.847,8.255A14.422,14.422,0,0,0,122.37,99.7a1.312,1.312,0,0,1,.713,1.349c-.05,1.406-.028,2.816-.009,4.224.006.457-.094.565-.524.334a36.912,36.912,0,0,1-4.471-2.892,43.985,43.985,0,0,1-4.134-3.929c-.382-.367-.561-.365-.923.02a29.688,29.688,0,0,1-8.244,6.638c-.16.08-.317.164-.478.239-.2.1-.287.02-.286-.2q0-2.588,0-5.176c0-.375.358-.513.567-.616a11.41,11.41,0,0,0,2.987-2.592,13.3,13.3,0,0,0,3.034-4.862,22.008,22.008,0,0,0,.71-2.907c.6-2.919.2-5.857.308-8.782.017-.452.127-.565.564-.548.891.035,1.785.033,2.676,0,.446-.016.615.081.6.572-.04,1.169-.013,2.34-.013,3.51Z" transform="translate(-54.461 -41.886)" fill="#c4895f"/>
        <path id="Trazado_820888" data-name="Trazado 820888" d="M178.33,176.272a5.629,5.629,0,0,1,4.592,4.96,6.312,6.312,0,0,1-.693,3.422,5.212,5.212,0,0,1-3.825,2.795,10.211,10.211,0,0,1-2.187.105,4.894,4.894,0,0,1-1.216-.362.269.269,0,0,1-.184-.277c.014-.192.2-.219.331-.3a8.651,8.651,0,0,0,2.546-2.236,7.347,7.347,0,0,0,.82-7.452,1.3,1.3,0,0,1-.186-.655" transform="translate(-91.535 -92.296)" fill="#39a584"/>
        <path id="Trazado_820889" data-name="Trazado 820889" d="M184,45.705a5.683,5.683,0,0,1,5.774-5.693c.151,0,.363-.081.443.064.1.192-.106.316-.222.438a7.352,7.352,0,0,0-.08,10.35c.131.143.377.271.308.47-.08.23-.349.1-.529.1A5.649,5.649,0,0,1,184,45.705" transform="translate(-96.343 -20.939)" fill="#39a584"/>
        <path id="Trazado_820890" data-name="Trazado 820890" d="M203.81,48.143a6.977,6.977,0,0,1-.78,2.933c-.406.751-.495.785-1.206.345a3.845,3.845,0,0,1,.252-6.688c.35-.188.561-.153.779.19a6.18,6.18,0,0,1,.955,3.22" transform="translate(-104.72 -23.363)" fill="#60b498"/>
        <path id="Trazado_820891" data-name="Trazado 820891" d="M168.013,182.931a5.567,5.567,0,0,1,2-4.444c.549-.478.594-.471,1.029.124a3.848,3.848,0,0,1-1.078,5.594c-.471.3-1.009.77-1.535.473-.49-.277-.408-.963-.42-1.509,0-.079,0-.159,0-.238" transform="translate(-87.972 -93.277)" fill="#60b498"/>
        <path id="Trazado_820892" data-name="Trazado 820892" d="M120.037,65.847c0-.515.01-1.03,0-1.545-.007-.253.075-.335.336-.346a21.966,21.966,0,0,0,3.008-.074c.191-.034.514.039.466.523a24.9,24.9,0,0,0-.021,2.91c.007.336-.091.442-.431.434-.97-.021-1.942-.027-2.912,0-.388.012-.468-.13-.449-.477.027-.474.007-.951.007-1.426" transform="translate(-62.847 -33.445)" fill="#c4895f"/>
        <path id="Trazado_820893" data-name="Trazado 820893" d="M121.885,19.835c-.5,0-.993-.019-1.488.007-.32.016-.4-.1-.4-.4q.026-1.488,0-2.976c-.006-.322.066-.453.42-.444q1.488.035,2.976,0c.344-.008.436.1.429.436q-.031,1.458,0,2.917c.008.348-.062.5-.451.474-.494-.036-.992-.009-1.488-.009" transform="translate(-62.831 -8.386)" fill="#c4895f"/>
        <path id="Trazado_820894" data-name="Trazado 820894" d="M121.779,51.8c-.592,0-1.387.232-1.724-.061-.39-.339-.1-1.152-.124-1.759-.02-.515.01-1.032-.01-1.547-.011-.294.055-.423.387-.416q1.518.031,3.036,0c.316-.006.406.092.4.4-.018,1.011-.02,2.024,0,3.036.007.336-.13.394-.419.384-.515-.018-1.032-.005-1.548-.005V51.8" transform="translate(-62.754 -25.139)" fill="#c4895f"/>
        <path id="Trazado_820895" data-name="Trazado 820895" d="M121.881,35.837c-.475,0-.952-.012-1.427,0-.284.01-.43-.04-.423-.38.021-1.01.016-2.021,0-3.032,0-.278.075-.381.366-.376,1.03.015,2.061.013,3.091,0,.271,0,.333.1.331.35-.01,1.03-.015,2.061,0,3.091.006.317-.142.352-.4.345-.515-.012-1.03,0-1.546,0" transform="translate(-62.848 -16.783)" fill="#c4895f"/>
        <path id="Trazado_820896" data-name="Trazado 820896" d="M155.622,50.041a1.76,1.76,0,0,1-2.007,1.8,1.979,1.979,0,0,1-1.858-1.951,2.054,2.054,0,0,1,2.059-1.855,1.952,1.952,0,0,1,1.806,2" transform="translate(-79.46 -25.152)" fill="#60b498"/>
        <path id="Trazado_820897" data-name="Trazado 820897" d="M195.735,90.047a1.732,1.732,0,0,1-2.017,1.789A1.922,1.922,0,0,1,192,89.728a1.875,1.875,0,0,1,3.737.319" transform="translate(-100.528 -46.092)" fill="#60b498"/>
        <path id="Trazado_820898" data-name="Trazado 820898" d="M195.7,9.859a1.694,1.694,0,0,1-1.584,1.988,1.914,1.914,0,1,1-.4-3.807A1.866,1.866,0,0,1,195.7,9.859" transform="translate(-100.528 -4.207)" fill="#60b498"/>
        <path id="Trazado_820899" data-name="Trazado 820899" d="M235.729,50.052a1.735,1.735,0,0,1-2.018,1.79,1.923,1.923,0,0,1-1.72-2.109,1.875,1.875,0,0,1,3.737.318" transform="translate(-121.469 -25.15)" fill="#60b498"/>
        <path id="Trazado_820900" data-name="Trazado 820900" d="M38.063,194.985c-.036.249-.2.3-.359.391a19.394,19.394,0,0,0-2.578,1.523c-.251.2-.32-.007-.4-.142-.7-1.2-1.406-2.388-2.069-3.6a22.918,22.918,0,0,0-3.156-4.586c-.488-.533-.924-1.115-1.423-1.642a25.442,25.442,0,0,0-2.855-2.45,25.866,25.866,0,0,0-6.092-3.583c-.384-.159-.424-.366-.259-.74.36-.814.693-1.642.985-2.483.155-.445.388-.494.754-.309.988.5,1.968,1.016,2.963,1.5a15.72,15.72,0,0,1,2.82,1.8c.386.3.641.241.89-.183,1.155-1.964,2.337-3.912,3.485-5.88.2-.352.383-.464.744-.241.792.49,1.585.978,2.395,1.437.334.19.4.362.191.7-1.3,2.117-2.564,4.259-3.9,6.354a.743.743,0,0,0,.137,1.111q1.084,1.045,2.073,2.181a32.307,32.307,0,0,1,3.48,4.974c.666,1.136,1.3,2.289,1.948,3.435.086.152.16.31.223.433" transform="translate(-9.834 -91.235)" fill="#060607"/>
        <path id="Trazado_820901" data-name="Trazado 820901" d="M211.249,139.651a7.618,7.618,0,1,1-15.236-.05,7.618,7.618,0,0,1,15.236.05m-3.928,0a3.615,3.615,0,0,0-3.723-3.805,3.8,3.8,0,0,0-3.792,3.7,3.875,3.875,0,0,0,3.814,3.932,3.636,3.636,0,0,0,3.7-3.832" transform="translate(-102.632 -69.143)" fill="#060607"/>
        <path id="Trazado_820902" data-name="Trazado 820902" d="M213.649,215.452c-2.9.125-5.661-2.686-5.73-5.745a5.962,5.962,0,0,1,5.689-5.7c3.261.045,5.875,2.4,5.791,6.338a5.167,5.167,0,0,1-1.946,3.616,5.8,5.8,0,0,1-3.8,1.489m1.816-5.494a1.866,1.866,0,0,0-1.681-2.135,1.909,1.909,0,0,0-2.014,1.626,1.951,1.951,0,0,0,1.648,2.177,1.708,1.708,0,0,0,2.046-1.667" transform="translate(-108.866 -106.819)" fill="#060607"/>
        <path id="Trazado_820903" data-name="Trazado 820903" d="M227.8,178.052c-.058.506.268,1.315-.128,1.659-.343.3-1.13.09-1.721.1-.535.006-1.07-.013-1.6.007-.292.011-.368-.1-.364-.375q.021-1.514,0-3.028c0-.3.09-.423.407-.418,1.009.015,2.019.019,3.028,0,.336-.007.393.131.383.42-.017.514,0,1.029,0,1.641" transform="translate(-117.279 -92.149)" fill="#060607"/>
        <path id="Trazado_820904" data-name="Trazado 820904" d="M203.806,117.918c0,.495-.011.99,0,1.484.01.283-.039.432-.379.425-1.029-.02-2.059-.018-3.088,0-.306.005-.355-.122-.352-.386.012-1.009.015-2.019,0-3.029,0-.315.115-.411.418-.406q1.514.019,3.029,0c.282,0,.383.083.372.369-.019.514-.005,1.03-.005,1.544" transform="translate(-104.715 -60.74)" fill="#060607"/>
        <path id="Trazado_820905" data-name="Trazado 820905" d="M163.811,101.948c0,.495-.018.991.007,1.484.016.322-.107.4-.41.4-1.009-.016-2.019-.02-3.028,0-.333.007-.389-.125-.384-.416.015-.989.018-1.979,0-2.969-.006-.34.115-.445.447-.439q1.485.025,2.969,0c.308-.006.42.081.4.4-.024.514-.007,1.029-.007,1.544" transform="translate(-83.773 -52.363)" fill="#060607"/>
        <path id="Trazado_820906" data-name="Trazado 820906" d="M211.489,143.816a3.636,3.636,0,0,1-3.7,3.832,3.875,3.875,0,0,1-3.814-3.932,3.8,3.8,0,0,1,3.792-3.7,3.615,3.615,0,0,1,3.723,3.8" transform="translate(-106.801 -73.31)" fill="#60b498"/>
        <path id="Trazado_820907" data-name="Trazado 820907" d="M219.687,214.144a1.708,1.708,0,0,1-2.046,1.667,1.951,1.951,0,0,1-1.648-2.177,1.909,1.909,0,0,1,2.014-1.626,1.866,1.866,0,0,1,1.681,2.135" transform="translate(-113.089 -111.005)" fill="#60b498"/>
      </g>
    </g>
  </g>
</svg>
