<svg xmlns="http://www.w3.org/2000/svg" xmlns:xlink="http://www.w3.org/1999/xlink" width="169" height="169" viewBox="0 0 169 169">
  <defs>
    <clipPath id="clip-path">
      <rect id="Rect치ngulo_377615" data-name="Rect치ngulo 377615" width="87.398" height="125.333" fill="none"/>
    </clipPath>
  </defs>
  <g id="Grupo_1073346" data-name="Grupo 1073346" transform="translate(-384.743 -2057.999)">
    <g id="Grupo_159182" data-name="Grupo 159182" transform="translate(384.743 2057.999)">
      <path id="Uni칩n_12" data-name="Uni칩n 12" d="M84.5,0A84.5,84.5,0,1,1,0,84.5,84.5,84.5,0,0,1,84.5,0Z" transform="translate(0 0)" fill="#ffae7e"/>
    </g>
    <g id="Grupo_1073353" data-name="Grupo 1073353" transform="translate(420.959 2079.911)">
      <g id="Grupo_1073352" data-name="Grupo 1073352" clip-path="url(#clip-path)">
        <path id="Trazado_821319" data-name="Trazado 821319" d="M26.371,31.713c.589-.389.707-1.105,1.114-1.629a9.59,9.59,0,0,1,1.655-2.13c.059-.044.045-.185.065-.281a1.947,1.947,0,0,0,2.728-.784,7.658,7.658,0,0,1,1.762-2.1c.079-.05.183-.166.172-.236-.058-.378.213-.585.4-.822.948-1.169,1.9-2.337,2.828-3.521,1.627-2.082,3.37-4.058,5.125-6.024,1.108-1.241,2.316-2.4,3.514-3.552.273-.263.482-.637.9-.74a34.539,34.539,0,0,0,2.645,3.4c1.171,1.451,2.347,2.9,3.492,4.372q2.352,3.027,4.527,6.187c1.188,1.721,2.372,3.446,3.517,5.2,1.312,2.005,2.537,4.066,3.768,6.122,1.629,2.72,3.237,5.452,4.635,8.3.851,1.733,1.7,3.469,2.452,5.247,1.345,3.161,2.662,6.333,3.787,9.58a82.607,82.607,0,0,1,2.549,9.023,56.391,56.391,0,0,1,1.059,5.858,35.2,35.2,0,0,1,.431,4.967,8.568,8.568,0,0,1-.154,3.1,4.382,4.382,0,0,0-1.5-.1,5.383,5.383,0,0,0-5.2,4.025,5.19,5.19,0,0,0,.928,4.886,5.519,5.519,0,0,0,4.541,2.274,3.333,3.333,0,0,1-.1,1.085,42.176,42.176,0,0,1-4.7,10.528A44.894,44.894,0,0,1,69,109.681a42.364,42.364,0,0,1-8.1,6.979c-.69.447-1.37.91-2.055,1.365a6.815,6.815,0,0,0-1.76-.323,5.9,5.9,0,0,1-2.236-1.144,7.618,7.618,0,0,0-6.058-1.046,8.852,8.852,0,0,0-3.059,1.51,3.8,3.8,0,0,1-3.156.611,7.454,7.454,0,0,1-2.208-1.185,7.121,7.121,0,0,0-3.9-1.139,1.793,1.793,0,0,0-1.4.531,1.873,1.873,0,0,0-.446,1.853,1.8,1.8,0,0,0,1.774,1.265,2.947,2.947,0,0,1,1.423.269c.688.376,1.34.817,2.016,1.217a7.09,7.09,0,0,0,7.179.065,14.432,14.432,0,0,1,2.275-1.341,4.551,4.551,0,0,1,4.575,1.145,2.99,2.99,0,0,1-1,.631,53.731,53.731,0,0,1-5.892,1.642,24.659,24.659,0,0,1-4.238.667c-1.177.052-2.339.251-3.522.31a47.976,47.976,0,0,1-5.323-.142c-.416-.025-.914-.319-1.262.195a6.7,6.7,0,0,1-1.546-.6c-1.446-.709-2.883-1.424-4.257-2.273a40.522,40.522,0,0,1-9.061-7.706,38.569,38.569,0,0,1-6.122-9.425,41.056,41.056,0,0,1-2.548-7.1,34.075,34.075,0,0,1-1.074-6.667A56.081,56.081,0,0,1,8.6,77.576c.23-1.359.393-2.732.743-4.067.256-.977.48-1.968.708-2.945s.538-1.917.756-2.889a25.622,25.622,0,0,1,.831-2.669c.462-1.35.845-2.727,1.388-4.05.615-1.5,1.189-3.013,1.825-4.5.469-1.1.969-2.186,1.475-3.267.455-.972.866-1.989,1.349-2.949.827-1.644,1.709-3.265,2.568-4.892,1.046-1.977,2.167-3.909,3.259-5.858.967-1.727,2.109-3.355,3.155-5.039a1.818,1.818,0,0,0-.283-2.736M67.273,74.4q-.14-.912-.279-1.824c.026-.075.029-.174.081-.222,1.033-.969.745-1.767.073-2.807a6.541,6.541,0,0,0-1.079-1.173,9.552,9.552,0,0,0-6.08-2.5,9.954,9.954,0,0,0-6.252,2.236c-1.615,1.345-3.014,2.918-4.493,4.4-.336.339-.8.524-1.029,1.016-.2.433-.517.5-.922.079-1.331-1.391-2.729-2.717-4.052-4.114a12.123,12.123,0,0,0-4.8-3.175,8.156,8.156,0,0,0-3-.509,10.674,10.674,0,0,0-2.43.487,8.987,8.987,0,0,0-5.224,3.885,8.4,8.4,0,0,0-1.444,3.932,10.821,10.821,0,0,0,.076,2.818,10.4,10.4,0,0,0,.961,2.748c.3.618.8,1.089,1.095,1.7a1.145,1.145,0,0,0-.074.943,7.079,7.079,0,0,0,1.135,2.264c1.11,1.419,2.51,2.569,3.707,3.909-1.24,1.262-2.458,2.546-3.726,3.779a10.031,10.031,0,0,0-2.569,3.641,10.186,10.186,0,0,0-.587,4.851,10.72,10.72,0,0,0,2.134,4.806,1.45,1.45,0,0,0,.014,1.118,7.381,7.381,0,0,0,3.213,4.078,7.207,7.207,0,0,0,7.971,0,12.531,12.531,0,0,0,2.209-1.806c1.617-1.579,3.2-3.2,4.794-4.794a1.32,1.32,0,0,1,2.032-.059c.7.645,1.4,1.3,2.08,1.968,1.246,1.231,2.441,2.514,3.72,3.708a7.278,7.278,0,0,0,6.942,1.937,7.565,7.565,0,0,0,5.7-5.525c.086-.278.091-.476-.215-.586a.592.592,0,0,1,.073-.167,9.048,9.048,0,0,0,2.156-5.773,9.164,9.164,0,0,0-1.062-4.53,11.946,11.946,0,0,0-2.308-2.967q-1.858-1.894-3.72-3.787c.187-.117.383-.222.56-.353a21.318,21.318,0,0,0,2.36-2.266,8.633,8.633,0,0,0,1.992-3.29c.132-.378.07-.624-.323-.752l.093-.084L66.9,81.5q.425-.615.85-1.23a1.723,1.723,0,0,0,.022-2.1c-.187-.278-.407-.533-.613-.8-.1-.465.195-.9.111-1.362.181-.181.1-.4.089-.61,0-.085,0-.169,0-.254l-.006-.236q-.03-.2-.059-.4c.008-.013.025-.029.022-.038a.49.49,0,0,0-.041-.075M21.658,89.54a6.858,6.858,0,0,0-1.437-4.389,4.058,4.058,0,0,1,.014-5.382,7.288,7.288,0,0,0,1.416-4.587,1.783,1.783,0,0,0-1.381-1.635c-1.128-.119-2.046.347-2.131,1.26a8.61,8.61,0,0,1-1.476,3.82,6.933,6.933,0,0,0-.737,6.118,17.859,17.859,0,0,0,1.516,2.859,3.863,3.863,0,0,1,.079,3.928,11.046,11.046,0,0,0-1.919,4.6,2.341,2.341,0,0,0,.519,1.891,1.607,1.607,0,0,0,1.995.443,1.71,1.71,0,0,0,1.1-1.585,4.872,4.872,0,0,1,.972-2.8,6.7,6.7,0,0,0,1.47-4.548m7.259-40.813a1.3,1.3,0,0,0,1.165-.527A4.337,4.337,0,0,1,32.6,47.086,8.107,8.107,0,0,0,35.773,45.8a7.389,7.389,0,0,0,3.1-4.777,5.1,5.1,0,0,1,1.237-2.873,4.41,4.41,0,0,1,2.507-1.2,7.567,7.567,0,0,0,4.365-2.233,1.623,1.623,0,0,0,.468-1.543,1.739,1.739,0,0,0-2.9-1.06,6.107,6.107,0,0,1-2.576,1.232,7.568,7.568,0,0,0-6.556,6.587,3.954,3.954,0,0,1-3.077,3.481,14.324,14.324,0,0,0-2.055.48,7.685,7.685,0,0,0-2.735,1.765,1.631,1.631,0,0,0-.381,1.973,1.655,1.655,0,0,0,1.748,1.1m20.4,1.923c-.178.01-.321.007-.462.026a1.834,1.834,0,0,0-1.593,1.913,1.88,1.88,0,0,0,1.6,1.73,4.6,4.6,0,0,1,2.871.989,7.465,7.465,0,0,0,4.2,1.474,7.815,7.815,0,0,0,4.751-1.513,4.485,4.485,0,0,1,1.554-.81,4.106,4.106,0,0,1,3.342.567,9.743,9.743,0,0,0,3.979,1.713,2.739,2.739,0,0,0,1.912-.318,1.678,1.678,0,0,0,.793-1.784,1.78,1.78,0,0,0-1.307-1.424c-.423-.148-.836-.031-1.244-.141a7.444,7.444,0,0,1-2.227-1.17,7.461,7.461,0,0,0-6.051-1.014,9.756,9.756,0,0,0-3.016,1.533,3.8,3.8,0,0,1-4.255.1q-.729-.441-1.444-.9a7.074,7.074,0,0,0-3.4-.968M41.9,56.4a5.52,5.52,0,0,0-5.476-5.741,5.618,5.618,0,0,0-5.64,5.238,5.816,5.816,0,0,0,5.448,6.042c2.974.014,5.841-2.485,5.668-5.539M57.329,31.692a5.616,5.616,0,0,0-5.645,5.5,5.615,5.615,0,1,0,11.212-.28,5.539,5.539,0,0,0-5.566-5.216M24.94,62.072a1.774,1.774,0,0,0-3.545-.113,1.87,1.87,0,0,0,1.773,1.918,1.755,1.755,0,0,0,1.773-1.805m-1.881,51.023a1.659,1.659,0,0,0,1.76-1.659,1.721,1.721,0,0,0-1.808-1.872,1.608,1.608,0,0,0-1.734,1.744,1.691,1.691,0,0,0,1.783,1.787" transform="translate(-4.039 -5.049)" fill="#9ebde5"/>
        <path id="Trazado_821320" data-name="Trazado 821320" d="M42.748,4.845c-.413.1-.623.477-.9.74-1.2,1.157-2.406,2.31-3.514,3.552-1.755,1.966-3.5,3.942-5.125,6.024-.925,1.184-1.88,2.352-2.828,3.521-.192.237-.462.444-.4.822.011.07-.093.186-.172.236a7.644,7.644,0,0,0-1.762,2.1,1.946,1.946,0,0,1-2.727.783c-1.059-.816-1.03-1.78-.195-2.941,1.694-2.355,3.489-4.633,5.25-6.936.905-1.184,1.912-2.3,2.888-3.434,1.431-1.661,2.944-3.238,4.45-4.827A24.917,24.917,0,0,1,41.959.718,3.156,3.156,0,0,1,43.283.006,3.174,3.174,0,0,1,45.17.421,33.069,33.069,0,0,1,48.239,2.8,34.856,34.856,0,0,1,51.55,6.161c1.238,1.333,2.426,2.713,3.63,4.079,1.269,1.441,2.471,2.94,3.619,4.466,1.544,2.053,3.137,4.073,4.6,6.191.722,1.046,1.518,2.052,2.226,3.1.844,1.253,1.683,2.516,2.5,3.792,2.638,4.13,5.162,8.327,7.448,12.664a119.125,119.125,0,0,1,6.253,13.963c.565,1.517,1.117,3.039,1.611,4.577.618,1.926,1.14,3.883,1.665,5.838A48.717,48.717,0,0,1,86.383,71c.174,1.3.457,2.582.578,3.9.2,2.152.251,4.308.408,6.46a.324.324,0,0,0,0,.363q-.027.622-.054,1.245a.052.052,0,0,0,0,.086,58.852,58.852,0,0,1-.717,6.182,52.268,52.268,0,0,1-2.139,8,40.047,40.047,0,0,1-5.167,9.6,40.925,40.925,0,0,1-5.577,6.466,43.518,43.518,0,0,1-20.146,10.858c-1.693.4-3.427.646-5.154.909a37.978,37.978,0,0,1-7.011.207,32.553,32.553,0,0,1-4.445-.552,45.1,45.1,0,0,1-6.435-1.57,44.018,44.018,0,0,1-7.8-3.425,46.342,46.342,0,0,1-6.61-4.564,41.871,41.871,0,0,1-3.8-3.594A43.151,43.151,0,0,1,5.662,102.4,44.7,44.7,0,0,1,2.533,95.25,33.713,33.713,0,0,1,1.557,91.8C1.216,90.267.99,88.7.68,87.161a16.246,16.246,0,0,1-.246-3.167c0-.713-.064-1.426-.1-2.138A.493.493,0,0,0,.3,81.26c.158-1.192.035-2.4.168-3.586.1-.92.134-1.847.185-2.761.123-2.192.722-4.293,1.053-6.442A60.435,60.435,0,0,1,3.2,62.382c.691-2.631,1.624-5.188,2.54-7.744.47-1.312.987-2.623,1.558-3.908.489-1.1.923-2.238,1.426-3.341.649-1.425,1.3-2.849,1.972-4.262,1.432-3.013,3.141-5.877,4.785-8.773q2.118-3.731,4.539-7.29c.462-.681,1.209-.832,2.246-.476l.226.076a1.818,1.818,0,0,1,.283,2.736c-1.046,1.684-2.188,3.311-3.155,5.039-1.091,1.949-2.213,3.88-3.259,5.858-.859,1.626-1.742,3.248-2.568,4.891-.483.96-.894,1.977-1.349,2.95-.506,1.081-1.006,2.168-1.475,3.267-.636,1.489-1.211,3-1.825,4.5-.543,1.323-.926,2.7-1.387,4.05a25.6,25.6,0,0,0-.832,2.669c-.217.972-.528,1.92-.755,2.888s-.452,1.968-.708,2.945c-.35,1.335-.513,2.708-.743,4.067A56.025,56.025,0,0,0,4.127,84.8,34.08,34.08,0,0,0,5.2,91.462a41.051,41.051,0,0,0,2.548,7.1,38.551,38.551,0,0,0,6.122,9.425,40.509,40.509,0,0,0,9.061,7.706c1.375.849,2.811,1.564,4.257,2.273a6.732,6.732,0,0,0,1.546.6,10.075,10.075,0,0,0,2.813,1.162,34.831,34.831,0,0,0,5.308,1.329,33.107,33.107,0,0,0,4.3.544,46.549,46.549,0,0,0,8.684-.438,40.841,40.841,0,0,0,9.786-2.792,38.929,38.929,0,0,0,15.041-11.347,33.461,33.461,0,0,0,3.32-4.747,34.393,34.393,0,0,0,2.262-4.406A25.036,25.036,0,0,0,81.283,95.4c.214-.806.454-1.619.727-2.388a36.356,36.356,0,0,0,1.017-4.063c.157-.685.164-1.4.266-2.09a33.477,33.477,0,0,0,.434-5.593c-.024-1.175-.107-2.348-.192-3.522-.084-1.145-.158-2.295-.292-3.431-.205-1.724-.514-3.437-.84-5.144a71.994,71.994,0,0,0-2.054-8.035C79.742,59.2,79.073,57.3,78.37,55.4c-.607-1.636-1.267-3.254-1.967-4.853-.754-1.722-1.569-3.417-2.379-5.113q-.861-1.8-1.784-3.576c-1.548-2.989-3.226-5.905-4.984-8.774A165.149,165.149,0,0,0,56.168,17.165q-3.026-3.839-6.3-7.466c-1.725-1.908-3.505-3.754-5.408-5.482-.175-.159-.368-.457-.6-.325-.423.238-.935.409-1.108.953" transform="translate(-0.154 0)" fill="#060708"/>
        <path id="Trazado_821321" data-name="Trazado 821321" d="M.148,165.937a.493.493,0,0,1,.034.595c-.257-.184-.218-.385-.034-.595" transform="translate(0 -84.677)" fill="#649dd5"/>
        <path id="Trazado_821322" data-name="Trazado 821322" d="M178.032,166.507a.324.324,0,0,1,0-.363c.244.124.245.245,0,.363" transform="translate(-90.821 -84.782)" fill="#649dd5"/>
        <path id="Trazado_821323" data-name="Trazado 821323" d="M177.951,169.514a.052.052,0,0,1,0-.086l.1.026-.106.06" transform="translate(-90.796 -86.458)" fill="#649dd5"/>
        <path id="Trazado_821324" data-name="Trazado 821324" d="M72.376,8.867c.173-.544.686-.715,1.108-.953.235-.132.428.166.6.325,1.9,1.728,3.683,3.574,5.408,5.482q3.278,3.627,6.3,7.466A165.083,165.083,0,0,1,96.885,37.108c1.759,2.869,3.436,5.785,4.984,8.774q.919,1.774,1.784,3.576c.81,1.7,1.625,3.391,2.379,5.113.7,1.6,1.36,3.217,1.967,4.853.7,1.893,1.372,3.8,1.977,5.729a72.03,72.03,0,0,1,2.054,8.035c.327,1.706.635,3.42.84,5.144.135,1.136.208,2.286.292,3.431.086,1.174.168,2.347.192,3.522a33.485,33.485,0,0,1-.434,5.593c-.1.69-.109,1.405-.266,2.09a36.391,36.391,0,0,1-1.017,4.063c-.272.769-.512,1.583-.727,2.388a25.152,25.152,0,0,1-1.034,2.476,34.492,34.492,0,0,1-2.262,4.406,33.49,33.49,0,0,1-3.32,4.747A38.934,38.934,0,0,1,89.253,122.4a40.817,40.817,0,0,1-9.786,2.792,46.546,46.546,0,0,1-8.683.438,33.018,33.018,0,0,1-4.3-.544,34.829,34.829,0,0,1-5.308-1.328,10.062,10.062,0,0,1-2.813-1.163c.348-.514.846-.22,1.262-.195a47.982,47.982,0,0,0,5.324.142c1.183-.058,2.344-.257,3.521-.31a24.606,24.606,0,0,0,4.238-.667,53.66,53.66,0,0,0,5.893-1.642,2.981,2.981,0,0,0,1-.631,7.643,7.643,0,0,0,3.785,1.094,1.839,1.839,0,0,0,1.932-2.107A2.19,2.19,0,0,0,84.584,117c.685-.456,1.365-.918,2.055-1.365a42.378,42.378,0,0,0,8.1-6.979,44.894,44.894,0,0,0,4.311-5.735,42.137,42.137,0,0,0,4.7-10.527,3.321,3.321,0,0,0,.1-1.085,5.968,5.968,0,0,0,2.86-.847,5.641,5.641,0,0,0-1.635-10.239,8.569,8.569,0,0,0,.153-3.1,35.208,35.208,0,0,0-.431-4.968,56.148,56.148,0,0,0-1.059-5.858,82.5,82.5,0,0,0-2.549-9.023c-1.125-3.247-2.443-6.419-3.787-9.58-.757-1.778-1.6-3.514-2.451-5.247-1.4-2.848-3.006-5.58-4.636-8.3-1.232-2.056-2.456-4.117-3.768-6.123-1.145-1.75-2.329-3.474-3.517-5.2q-2.178-3.156-4.527-6.187c-1.144-1.473-2.32-2.921-3.491-4.372a34.544,34.544,0,0,1-2.646-3.4m31.246,94.016a1.826,1.826,0,0,0-3.65-.082,2.108,2.108,0,0,0,1.793,1.914,1.855,1.855,0,0,0,1.857-1.832" transform="translate(-29.782 -4.022)" fill="#649dd5"/>
        <path id="Trazado_821325" data-name="Trazado 821325" d="M47.63,139.64c-.292-.612-.79-1.083-1.095-1.7a10.4,10.4,0,0,1-.961-2.747,10.824,10.824,0,0,1-.076-2.819,8.4,8.4,0,0,1,1.444-3.932,8.987,8.987,0,0,1,5.224-3.885,10.686,10.686,0,0,1,2.43-.487,8.171,8.171,0,0,1,3,.509,12.13,12.13,0,0,1,4.8,3.175c1.324,1.4,2.721,2.724,4.052,4.114.4.423.725.354.922-.079.224-.492.692-.677,1.029-1.016,1.479-1.487,2.878-3.06,4.493-4.405a9.961,9.961,0,0,1,6.252-2.236,9.55,9.55,0,0,1,6.08,2.5,6.508,6.508,0,0,1,1.079,1.173c.671,1.04.959,1.837-.073,2.806-.051.048-.055.147-.081.222-.133.041-.263.091-.4.121-1.4.317-2.189-.621-2.98-1.493a4.577,4.577,0,0,0-2.9-1.519,5.9,5.9,0,0,0-3.586.5c-.081-.044-.093.019-.11.072h0c-.178.124-.37.22-.545.36-.938.754-1.739,1.649-2.609,2.473-1.577,1.493-3.052,3.089-4.659,4.554-1.156,1.054-1.947,1.142-3.073.081-.378-.356-.756-.71-1.119-1.085-1.9-1.966-3.8-3.947-5.817-5.794a5.3,5.3,0,0,0-5.433-.942,5.03,5.03,0,0,0-2.429,1.8,5.578,5.578,0,0,0-1.125,1.851,5.766,5.766,0,0,0,1.681,6.016q3.109,3.148,6.236,6.28a2.114,2.114,0,0,1-.067,3.1c-2.2,2.224-4.478,4.363-6.595,6.665a5.342,5.342,0,0,0-1.474,2.872,5.916,5.916,0,0,0,1.337,4.766,5.654,5.654,0,0,0,3.76,1.992,5.828,5.828,0,0,0,4.8-1.831c2.135-2.095,4.248-4.212,6.368-6.323a1.909,1.909,0,0,1,1.449-.642,3.22,3.22,0,0,1,2.192,1.209q2.511,2.535,5.035,5.058c.2.2.392.4.6.6a5.708,5.708,0,0,0,9.769-5.267,7.05,7.05,0,0,0-2.208-3.3c-1.955-1.954-3.977-3.843-5.845-5.885a1.934,1.934,0,0,1-.543-1.957,3.131,3.131,0,0,1,.865-1.237c2.417-2.5,5.028-4.811,7.228-7.523a1.666,1.666,0,0,1,1.487-.677,1.234,1.234,0,0,0,.867-.091c.2.265.425.521.612.8a1.721,1.721,0,0,1-.022,2.1q-.426.615-.85,1.231l-.113.138-.093.084q-2.353,2.337-4.705,4.676c-1.033,1.033-1.028,1.039.116,1.986q1.86,1.894,3.72,3.787a11.944,11.944,0,0,1,2.308,2.967,9.165,9.165,0,0,1,1.062,4.53,9.048,9.048,0,0,1-2.156,5.773.593.593,0,0,0-.073.167c-.2.2-.41.391-.611.592a9.14,9.14,0,0,1-5.1,2.6,9.35,9.35,0,0,1-8.283-2.8c-1.61-1.545-3.142-3.172-4.678-4.792-.417-.44-.683-.412-1.087,0q-2.493,2.556-5.032,5.068a9.116,9.116,0,0,1-3.5,2.129,8.944,8.944,0,0,1-6.285-.093,10.957,10.957,0,0,1-3.891-2.737,10.716,10.716,0,0,1-2.134-4.805,10.19,10.19,0,0,1,.587-4.851,10.033,10.033,0,0,1,2.569-3.642c1.268-1.233,2.486-2.517,3.726-3.779a3.286,3.286,0,0,0,.941-.832.387.387,0,0,0-.026-.627q-2.843-2.827-5.682-5.657" transform="translate(-23.186 -63.309)" fill="#060708"/>
        <path id="Trazado_821326" data-name="Trazado 821326" d="M111.847,139.6a1.234,1.234,0,0,1-.867.091,1.666,1.666,0,0,0-1.486.677c-2.2,2.712-4.811,5.023-7.228,7.523a3.131,3.131,0,0,0-.865,1.237,1.934,1.934,0,0,0,.543,1.957c1.868,2.042,3.889,3.93,5.845,5.885a7.048,7.048,0,0,1,2.208,3.3,5.708,5.708,0,0,1-9.769,5.266c-.206-.191-.4-.4-.6-.6.069-.41.515-.288.737-.542a7.823,7.823,0,0,0-.658-10.973c-1.016-1.027-2.047-2.04-3.057-3.074a5.027,5.027,0,0,1-.594-5.524,18.321,18.321,0,0,1,3.449-3.919,7.392,7.392,0,0,0,2.467-3.728,7.949,7.949,0,0,0,.279-3.121c-.092-.583-.591-.978-.54-1.576h0l.111-.072a5.893,5.893,0,0,1,3.586-.5,4.574,4.574,0,0,1,2.9,1.519c.79.872,1.584,1.811,2.98,1.494.135-.031.265-.081.4-.121q.139.912.278,1.824a.155.155,0,0,0,.02.113l.059.4c-.1.081-.092.16.006.236,0,.085,0,.169,0,.254-.157.185-.073.4-.089.611.083.464-.211.9-.111,1.362" transform="translate(-48.728 -67.275)" fill="#d60045"/>
        <path id="Trazado_821327" data-name="Trazado 821327" d="M49.843,200.388a10.951,10.951,0,0,0,3.891,2.737,8.939,8.939,0,0,0,6.284.093,9.123,9.123,0,0,0,3.5-2.129q2.531-2.52,5.032-5.068c.4-.414.669-.441,1.087,0,1.536,1.62,3.068,3.247,4.678,4.792a9.351,9.351,0,0,0,8.283,2.8,9.139,9.139,0,0,0,5.1-2.6c.2-.2.407-.395.611-.592.306.11.3.309.214.586a7.563,7.563,0,0,1-5.7,5.525,7.276,7.276,0,0,1-6.942-1.937c-1.28-1.193-2.474-2.477-3.72-3.708-.679-.67-1.377-1.323-2.08-1.968a1.319,1.319,0,0,0-2.032.059c-1.6,1.6-3.178,3.215-4.794,4.794a12.547,12.547,0,0,1-2.209,1.805,7.208,7.208,0,0,1-7.971,0,7.382,7.382,0,0,1-3.213-4.079,1.45,1.45,0,0,1-.014-1.118" transform="translate(-25.38 -99.864)" fill="#649dd5"/>
        <path id="Trazado_821328" data-name="Trazado 821328" d="M29.591,155.85a6.692,6.692,0,0,1-1.47,4.548,4.868,4.868,0,0,0-.971,2.8,1.713,1.713,0,0,1-1.1,1.585,1.608,1.608,0,0,1-1.995-.443,2.34,2.34,0,0,1-.519-1.891,11.039,11.039,0,0,1,1.919-4.6,3.863,3.863,0,0,0-.079-3.928,17.8,17.8,0,0,1-1.515-2.859,6.933,6.933,0,0,1,.736-6.118,8.6,8.6,0,0,0,1.476-3.82c.085-.914,1-1.38,2.131-1.261a1.783,1.783,0,0,1,1.381,1.635,7.29,7.29,0,0,1-1.415,4.587,4.057,4.057,0,0,0-.014,5.383,6.859,6.859,0,0,1,1.436,4.388" transform="translate(-11.973 -71.359)" fill="#060708"/>
        <path id="Trazado_821329" data-name="Trazado 821329" d="M86.589,227.873a2.19,2.19,0,0,1,.739,1.276,1.839,1.839,0,0,1-1.932,2.108,7.646,7.646,0,0,1-3.786-1.1,4.554,4.554,0,0,0-4.576-1.145,14.451,14.451,0,0,0-2.274,1.341,7.091,7.091,0,0,1-7.179-.065c-.675-.4-1.328-.842-2.016-1.218a2.95,2.95,0,0,0-1.422-.269,1.8,1.8,0,0,1-1.774-1.265,1.874,1.874,0,0,1,.446-1.853,1.792,1.792,0,0,1,1.4-.531,7.119,7.119,0,0,1,3.9,1.139,7.463,7.463,0,0,0,2.208,1.185,3.8,3.8,0,0,0,3.156-.611,8.845,8.845,0,0,1,3.059-1.511,7.623,7.623,0,0,1,6.058,1.046,5.9,5.9,0,0,0,2.236,1.145,6.814,6.814,0,0,1,1.76.322" transform="translate(-31.787 -114.896)" fill="#060708"/>
        <path id="Trazado_821330" data-name="Trazado 821330" d="M48.8,71.409a1.656,1.656,0,0,1-1.749-1.1,1.631,1.631,0,0,1,.381-1.973,7.688,7.688,0,0,1,2.735-1.764,14.309,14.309,0,0,1,2.055-.48A3.955,3.955,0,0,0,55.3,62.612a7.567,7.567,0,0,1,6.556-6.588,6.108,6.108,0,0,0,2.576-1.231,1.738,1.738,0,0,1,2.9,1.06,1.62,1.62,0,0,1-.468,1.542,7.566,7.566,0,0,1-4.365,2.234,4.4,4.4,0,0,0-2.507,1.2A5.1,5.1,0,0,0,58.749,63.7a7.39,7.39,0,0,1-3.1,4.777,8.113,8.113,0,0,1-3.176,1.287,4.338,4.338,0,0,0-2.515,1.114,1.3,1.3,0,0,1-1.165.527" transform="translate(-23.919 -27.73)" fill="#060708"/>
        <path id="Trazado_821331" data-name="Trazado 821331" d="M90.321,93.12a7.072,7.072,0,0,1,3.4.968q.714.464,1.443.9a3.8,3.8,0,0,0,4.255-.1,9.756,9.756,0,0,1,3.016-1.533,7.461,7.461,0,0,1,6.051,1.014,7.447,7.447,0,0,0,2.228,1.17c.408.11.821-.007,1.244.141a1.78,1.78,0,0,1,1.307,1.424,1.679,1.679,0,0,1-.793,1.784,2.738,2.738,0,0,1-1.912.318,9.748,9.748,0,0,1-3.978-1.713,4.106,4.106,0,0,0-3.342-.567,4.482,4.482,0,0,0-1.554.81,7.808,7.808,0,0,1-4.751,1.513,7.452,7.452,0,0,1-4.2-1.474,4.6,4.6,0,0,0-2.872-.988,1.881,1.881,0,0,1-1.6-1.73,1.834,1.834,0,0,1,1.593-1.913c.14-.019.283-.017.462-.026" transform="translate(-45.041 -47.519)" fill="#060708"/>
        <path id="Trazado_821332" data-name="Trazado 821332" d="M65.708,98.873c.174,3.053-2.694,5.552-5.668,5.539a5.816,5.816,0,0,1-5.448-6.042,5.618,5.618,0,0,1,5.64-5.238,5.519,5.519,0,0,1,5.476,5.741m-3.659-.162a1.82,1.82,0,0,0-1.864-1.9,2.021,2.021,0,0,0-1.95,2,2.148,2.148,0,0,0,1.606,1.889,1.924,1.924,0,0,0,2.207-1.991" transform="translate(-27.852 -47.524)" fill="#060708"/>
        <path id="Trazado_821333" data-name="Trazado 821333" d="M146.546,155.482a5.641,5.641,0,0,1,1.635,10.238,5.962,5.962,0,0,1-2.86.847,5.521,5.521,0,0,1-4.542-2.273,5.191,5.191,0,0,1-.928-4.887,5.384,5.384,0,0,1,5.2-4.025,4.383,4.383,0,0,1,1.5.1m-1.325,3.587a1.864,1.864,0,0,0-1.951,1.78,2.113,2.113,0,0,0,1.974,2.074,1.9,1.9,0,0,0,1.9-2,1.788,1.788,0,0,0-1.926-1.852" transform="translate(-71.242 -79.283)" fill="#060708"/>
        <path id="Trazado_821334" data-name="Trazado 821334" d="M102.938,54.395A5.538,5.538,0,0,1,108.5,59.61a5.615,5.615,0,1,1-11.212.28,5.616,5.616,0,0,1,5.645-5.5m-.011,3.678a1.891,1.891,0,0,0-1.98,1.86,2.074,2.074,0,0,0,1.965,2.026,1.969,1.969,0,0,0,2.01-2.036,1.916,1.916,0,0,0-2-1.851" transform="translate(-49.648 -27.751)" fill="#060708"/>
        <path id="Trazado_821335" data-name="Trazado 821335" d="M49.769,155.87q2.84,2.829,5.682,5.657a.387.387,0,0,1,.026.627,3.286,3.286,0,0,1-.941.832c-1.2-1.34-2.6-2.49-3.707-3.909a7.071,7.071,0,0,1-1.135-2.263,1.146,1.146,0,0,1,.074-.943" transform="translate(-25.325 -79.539)" fill="#649dd5"/>
        <path id="Trazado_821336" data-name="Trazado 821336" d="M117.658,163.237c-1.144-.948-1.149-.953-.116-1.986q2.346-2.345,4.705-4.676c.393.128.454.375.323.752a8.627,8.627,0,0,1-1.992,3.29,21.275,21.275,0,0,1-2.36,2.266c-.177.131-.373.236-.56.353" transform="translate(-59.594 -79.9)" fill="#649dd5"/>
        <path id="Trazado_821337" data-name="Trazado 821337" d="M38.986,114.541a1.755,1.755,0,0,1-1.772,1.806,1.871,1.871,0,0,1-1.773-1.919,1.773,1.773,0,0,1,3.545.113" transform="translate(-18.085 -57.518)" fill="#060708"/>
        <path id="Trazado_821338" data-name="Trazado 821338" d="M36.982,216.955a1.691,1.691,0,0,1-1.783-1.787,1.608,1.608,0,0,1,1.734-1.744,1.721,1.721,0,0,1,1.808,1.872,1.659,1.659,0,0,1-1.76,1.659" transform="translate(-17.962 -108.909)" fill="#060708"/>
        <path id="Trazado_821339" data-name="Trazado 821339" d="M129.109,144.267c.015-.206-.068-.426.089-.61.013.21.092.429-.089.61" transform="translate(-65.879 -73.307)" fill="#db0054"/>
        <path id="Trazado_821340" data-name="Trazado 821340" d="M129.219,142.892c-.1-.076-.1-.155-.006-.237,0,.079,0,.158.006.237" transform="translate(-65.901 -72.796)" fill="#db0054"/>
        <path id="Trazado_821341" data-name="Trazado 821341" d="M128.131,156.26l.113-.138-.113.138" transform="translate(-65.384 -79.668)" fill="#649dd5"/>
        <path id="Trazado_821342" data-name="Trazado 821342" d="M129.141,141.731a.152.152,0,0,1-.019-.113.467.467,0,0,1,.041.075c0,.008-.014.024-.022.037" transform="translate(-65.888 -72.267)" fill="#db0054"/>
        <path id="Trazado_821343" data-name="Trazado 821343" d="M146.977,199.952a1.855,1.855,0,0,1-1.857,1.832,2.108,2.108,0,0,1-1.793-1.914,1.826,1.826,0,0,1,3.65.082" transform="translate(-73.137 -101.09)" fill="#060708"/>
        <path id="Trazado_821344" data-name="Trazado 821344" d="M79.968,132.425c-.051.6.448.994.54,1.576a7.96,7.96,0,0,1-.279,3.122,7.4,7.4,0,0,1-2.467,3.728,18.3,18.3,0,0,0-3.449,3.919,5.027,5.027,0,0,0,.594,5.524c1.01,1.034,2.041,2.046,3.057,3.074a7.822,7.822,0,0,1,.658,10.972c-.222.255-.667.132-.737.542q-2.518-2.528-5.035-5.058a3.219,3.219,0,0,0-2.192-1.209,1.91,1.91,0,0,0-1.449.642c-2.12,2.11-4.233,4.228-6.368,6.323a5.827,5.827,0,0,1-4.8,1.832,5.654,5.654,0,0,1-3.759-1.992,5.919,5.919,0,0,1-1.337-4.766,5.343,5.343,0,0,1,1.474-2.872c2.117-2.3,4.4-4.442,6.6-6.665a2.114,2.114,0,0,0,.067-3.1q-3.133-3.126-6.236-6.28a5.767,5.767,0,0,1-1.681-6.016,5.572,5.572,0,0,1,1.124-1.851,5.03,5.03,0,0,1,2.429-1.8,5.3,5.3,0,0,1,5.433.942c2.016,1.847,3.913,3.828,5.816,5.794.363.375.741.729,1.119,1.085,1.127,1.061,1.917.973,3.073-.081,1.607-1.465,3.082-3.062,4.659-4.554.87-.824,1.671-1.719,2.609-2.473.174-.14.366-.237.545-.36" transform="translate(-26.985 -67.221)" fill="#db0054"/>
        <path id="Trazado_821345" data-name="Trazado 821345" d="M108.3,132.986l-.111.072c.018-.054.03-.117.111-.072" transform="translate(-55.21 -67.854)" fill="#db0054"/>
        <path id="Trazado_821346" data-name="Trazado 821346" d="M65.857,102.549a1.924,1.924,0,0,1-2.207,1.991,2.148,2.148,0,0,1-1.606-1.889,2.021,2.021,0,0,1,1.95-2,1.82,1.82,0,0,1,1.864,1.9" transform="translate(-31.661 -51.362)" fill="#db0054"/>
        <path id="Trazado_821347" data-name="Trazado 821347" d="M149.036,162.926a1.788,1.788,0,0,1,1.927,1.852,1.9,1.9,0,0,1-1.9,2,2.113,2.113,0,0,1-1.974-2.074,1.864,1.864,0,0,1,1.951-1.78" transform="translate(-75.056 -83.14)" fill="#649dd5"/>
        <path id="Trazado_821348" data-name="Trazado 821348" d="M106.733,61.906a1.916,1.916,0,0,1,2,1.851,1.969,1.969,0,0,1-2.01,2.036,2.074,2.074,0,0,1-1.965-2.026,1.891,1.891,0,0,1,1.98-1.86" transform="translate(-53.453 -31.585)" fill="#649dd5"/>
      </g>
    </g>
  </g>
</svg>
