<svg xmlns="http://www.w3.org/2000/svg" xmlns:xlink="http://www.w3.org/1999/xlink" width="135" height="135" viewBox="0 0 135 135">
  <defs>
    <clipPath id="clip-path">
      <rect id="Rect치ngulo_377699" data-name="Rect치ngulo 377699" width="135" height="135" transform="translate(1180 2584)" fill="#fff" stroke="#707070" stroke-width="1"/>
    </clipPath>
    <clipPath id="clip-path-2">
      <rect id="Rect치ngulo_377700" data-name="Rect치ngulo 377700" width="124.375" height="124.341" fill="none"/>
    </clipPath>
  </defs>
  <g id="Enmascarar_grupo_369" data-name="Enmascarar grupo 369" transform="translate(-1180 -2584)" clip-path="url(#clip-path)">
    <g id="Grupo_1073449" data-name="Grupo 1073449" transform="translate(1180 2595.107)">
      <g id="Grupo_1073451" data-name="Grupo 1073451" transform="translate(3 -4.107)">
        <g id="Grupo_1073450" data-name="Grupo 1073450" clip-path="url(#clip-path-2)">
          <path id="Trazado_821644" data-name="Trazado 821644" d="M48.212,9.83a3.136,3.136,0,0,0,1.539.223,22.29,22.29,0,0,1,3.035.425,18.656,18.656,0,0,1,3.413.805,32.131,32.131,0,0,1,6.478,2.665,34.719,34.719,0,0,1,4.173,2.671,37.966,37.966,0,0,1,6.006,5.7,27.572,27.572,0,0,1,2.125,2.76,12.74,12.74,0,0,1,1.733,3.088,1.835,1.835,0,0,1-.7,1.917c-.949.418-1.615.372-2.168-.234a7.1,7.1,0,0,1-1.174-1.516,21.2,21.2,0,0,0-2.926-4.12A30.238,30.238,0,0,0,57.676,15.6a30.973,30.973,0,0,0-8.884-2c-.452-.038-.64-.04-.619.634.091,2.95.048,5.907,0,8.86-.007.436.142.517.475.563.688.095,1.386.15,2.061.3a20.307,20.307,0,0,1,13.3,9.37c2.324,3.773,4.465,7.658,6.678,11.5.155.268.215.45.64.363a13.312,13.312,0,0,1,1.548-.152c.68-.057.726-.121.369-.735q-1.818-3.126-3.628-6.255a3.312,3.312,0,0,1-.508-1.221,1.771,1.771,0,0,1,1.145-1.914,1.963,1.963,0,0,1,2.27.947c1.41,2.467,2.882,4.9,4.249,7.391.485.883.945,1.3,2.051,1.113.924-.159,1.621-.3,1.942-1.3A1.118,1.118,0,0,0,80.7,42q-1.455-2.446-2.85-4.927a1.814,1.814,0,0,1,.727-2.819c.06-.005.122-.005.181-.017a2.1,2.1,0,0,1,2.395,1.4c.67,1.269,1.427,2.491,2.114,3.75.168.31.333.388.607.206a8.443,8.443,0,0,1,5.533-1.452,2.019,2.019,0,0,0,2.026-1.086,12.106,12.106,0,0,1,4.408-4.012A13.954,13.954,0,0,1,99.876,31.8a14.481,14.481,0,0,1,4.891.179,10.845,10.845,0,0,1,4.618,2.166,11.077,11.077,0,0,1,3.254,3.578,9.853,9.853,0,0,1,1.435,4.9c-.015.636.109,1.288.058,1.935-.024.308.176.288.344.246.657-.163,1.345-.027,2-.234a14.139,14.139,0,0,1,1.936-.217,31.658,31.658,0,0,1,3.686-.374,2.019,2.019,0,0,1,2.17,1.973,26.674,26.674,0,0,1,.1,3.553q.014,32.721-.013,65.442a8.925,8.925,0,0,1-1.247,5.408,8.448,8.448,0,0,1-6.665,3.89c-1.876.109-3.747.083-5.619.083q-50.883.018-101.767.017a8.535,8.535,0,0,1-4.433-.873,8.468,8.468,0,0,1-3.748-3.9A10.017,10.017,0,0,1,0,115.481q.025-34.451,0-68.9A3.029,3.029,0,0,1,.437,44.73,2.176,2.176,0,0,1,2.7,43.983a2.406,2.406,0,0,0,1.673-.077c.071-.042.127-.03.143.008.3.7,1,.431,1.469.484,1.463.165,2.914.436,4.385.526a17.6,17.6,0,0,1,2.139.2c1.433.274,2.879.43,4.316.6a40.357,40.357,0,0,0,6.519.211c.065,0,.126-.087.188-.133.107.208.207.138.3-.009.161.181.374.124.57.114,1.567-.075,3.122-.259,4.675-.481,1.129-.162,2.268-.248,3.4-.37a.812.812,0,0,0,.84-.746,12.645,12.645,0,0,1,1.456-3.7,15.472,15.472,0,0,1,2.343-3.192,12.1,12.1,0,0,1,3.351-2.494,16.246,16.246,0,0,1,4.83-1.539,14.443,14.443,0,0,1,9.573,2.1,12.306,12.306,0,0,1,3.548,3.337,1.322,1.322,0,0,0,1.534.619,8.953,8.953,0,0,1,2.681-.207c.421,0,.52-.172.345-.493-1.506-2.764-2.941-5.571-5.531-7.554a23.237,23.237,0,0,0-4.877-2.89A20.723,20.723,0,0,0,48.5,27.212c-.314-.066-.362.109-.364.382a4.646,4.646,0,0,1-.125,1.727A2.12,2.12,0,0,1,45.9,30.841q-6.586,0-13.173-.016A5.578,5.578,0,0,1,30.7,30.72,2.161,2.161,0,0,1,29.158,28.5c-.011-1.329-.011-1.34-1.367-1.341q-6.345-.006-12.688,0c-.3,0-.607-.005-.91-.014-1.227-.036-1.733-.581-1.946-1.891.272-1.31.847-1.787,2.384-1.791q6.952-.018,13.9.038c.546,0,.62-.155.618-.634q-.021-9.288.005-18.576c0-.559-.166-.651-.68-.65q-10.5.022-21.008,0c-1.113,0-2.226.016-3.34,0-.366-.006-.477.1-.476.481q.017,9.469,0,18.939c0,.351.116.476.459.439a6.776,6.776,0,0,1,1.635.018,1.688,1.688,0,0,1,1.58,1.736A1.749,1.749,0,0,1,5.584,27.1a33.428,33.428,0,0,1-3.97.027A1.846,1.846,0,0,1,.021,25.235Q.013,13.61.022,1.984A2.172,2.172,0,0,1,2.128.013C2.369-.007,2.613,0,2.856,0Q24.17,0,45.483,0a2.454,2.454,0,0,1,2.46,1.24,2.671,2.671,0,0,1,.217,1.291c-.027,2.366-.067,4.732.032,7.1-.062.073-.077.14.02.2m8.4,32.3c-.4-.453-.809-.9-1.191-1.362a10.258,10.258,0,0,0-7.707-3.839,10.087,10.087,0,0,0-4.727.857,9.6,9.6,0,0,0-4,3.132,9.621,9.621,0,0,0-1.774,3.06c-.124.305-.077.51.338.45.575-.083,1.154-.131,1.73-.21a15.093,15.093,0,0,1,4.327-.162c.841.127,1.68.306,2.525.352,1.765.1,3.507.376,5.252.607,1.944.258,3.9.377,5.84.717a25.872,25.872,0,0,0,4.394.184,37.364,37.364,0,0,0,4.891-.165c.176-.023.543.071.345-.33a3.579,3.579,0,0,0-2.554-2.35,7.357,7.357,0,0,1-.813-.185,7.559,7.559,0,0,0-2.361-.079c-.535.014-1.111.241-1.666.289a5.064,5.064,0,0,1-2.855-.968M4.032,117.772a2.351,2.351,0,0,0,.147.389,5.111,5.111,0,0,0,4.832,2.554q53.056-.04,106.11-.015a6.809,6.809,0,0,0,2.735-.437,4.563,4.563,0,0,0,2.617-2.868,10.823,10.823,0,0,0,.269-3.572q0-32.623-.007-65.246c0-.782-.1-.833-.865-.719-1.221.182-2.449.311-3.674.47-1.124.146-2.258.23-3.367.478-.682.043-1.369.046-2.043.138a52.246,52.246,0,0,1-6.414.613c-.482.006-.962.054-1.443.082a.343.343,0,0,0-.571.007c-1.485-.144-2.977-.09-4.465-.206-1.607-.126-3.2-.379-4.8-.523-1.9-.172-3.779-.479-5.67-.71-1.188-.146-2.386-.225-3.57-.4a14.209,14.209,0,0,0-3.2-.048c-1.548.123-3.086.375-4.628.568-1.244.155-2.492.284-3.734.461-1.694.241-3.406.324-5.1.619a28.182,28.182,0,0,1-3.731.168,52.5,52.5,0,0,1-6.706-.178,12.419,12.419,0,0,1-1.542-.129,25.469,25.469,0,0,0-3.387-.448c-.77-.06-1.522-.231-2.3-.28-1.115-.071-2.215-.362-3.33-.448-.97-.075-1.935-.2-2.9-.276a15.34,15.34,0,0,0-4.076.13c-1.36.251-2.754.253-4.124.486-1.19.2-2.421.178-3.6.406-1.532.3-3.094.285-4.625.569a20.242,20.242,0,0,1-2.94.15,61.53,61.53,0,0,1-7.371-.16,8.922,8.922,0,0,1-1.542-.133,18.256,18.256,0,0,0-3.141-.435c-1.2-.1-2.393-.288-3.59-.417-1.467-.158-2.939-.333-4.4-.566-.263-.042-.237.144-.238.3-.006.668-.013,1.335-.013,2q0,31.871,0,63.74c0,.526.035,1.056-.01,1.578a4.985,4.985,0,0,0,.406,2.3m98.32-71.783a53.675,53.675,0,0,0,7.619-.577c.2-.029.386,0,.436-.3a8.28,8.28,0,0,0-.984-5.688c-2.076-3.575-6.978-5.021-10.954-3.548a8.378,8.378,0,0,0-4.221,3.486,4.776,4.776,0,0,1-3.308,2.314,23.582,23.582,0,0,1-2.584.1A5.406,5.406,0,0,0,84.514,43.8c-.168.2-.213.354.13.4.992.119,1.984.252,2.977.367,1.642.19,3.294.314,4.925.573,1.655.262,3.324.387,4.983.611,1.59.215,3.214.175,4.824.247M38.628,20.882c1.82,0,3.641-.012,5.46.01.4,0,.513-.1.5-.5-.031-.908-.017-1.819-.009-2.728,0-.291-.059-.432-.406-.431q-5.46.02-10.92,0c-.355,0-.493.074-.481.469.026.868.02,1.74-.033,2.607-.028.457.086.589.551.582,1.779-.026,3.559-.011,5.339-.011m.023-7.285q2.73,0,5.46,0c.23,0,.486.08.475-.332-.025-.97-.016-1.94-.006-2.911,0-.317-.112-.407-.43-.406q-5.429.017-10.859,0c-.441,0-.532.147-.519.557a18.123,18.123,0,0,1-.036,2.424c-.063.616.18.689.7.681,1.739-.026,3.478-.01,5.217-.01m.038-7.285c1.842,0,3.683,0,5.525,0,.318,0,.477-.041.437-.43A15.439,15.439,0,0,1,44.6,4.13c0-.386-.111-.514-.524-.505-1.436.03-2.874.007-4.31.008-2.1,0-4.21.02-6.314,0-.5,0-.753.075-.682.65a9.19,9.19,0,0,1-.013,1.273c-.013.757-.013.757.776.757h5.16M38.727,27.2h4.614c1.285,0,1.285,0,1.263-1.25-.024-1.421-.024-1.425-1.419-1.425-3.279,0-6.557.006-9.836,0-.357,0-.625-.007-.582.5a9.05,9.05,0,0,1-.028,1.636c-.043.438.1.552.524.547,1.821-.02,3.643-.008,5.464-.009" transform="translate(0 0)"/>
          <path id="Trazado_821645" data-name="Trazado 821645" d="M11.179,29.1A1.687,1.687,0,0,0,9.6,27.365a6.776,6.776,0,0,0-1.635-.018c-.343.037-.459-.088-.459-.439q.014-9.469,0-18.939c0-.381.11-.487.476-.481,1.113.016,2.226,0,3.339,0q10.5,0,21.008,0c.514,0,.682.091.68.65q-.034,9.288,0,18.576c0,.479-.073.638-.618.634q-6.952-.06-13.9-.038c-1.537,0-2.112.481-2.384,1.791l-4.918,0" transform="translate(-3.85 -3.84)" fill="#b0e4f9"/>
          <path id="Trazado_821646" data-name="Trazado 821646" d="M129.328,48.572a1.814,1.814,0,0,0-.727,2.82q1.39,2.483,2.851,4.927a1.117,1.117,0,0,1,.062,1.056c-.321,1-1.018,1.144-1.942,1.3-1.105.19-1.566-.229-2.051-1.112-1.367-2.491-2.839-4.923-4.249-7.391A1.963,1.963,0,0,0,121,49.227a1.771,1.771,0,0,0-1.145,1.914,3.322,3.322,0,0,0,.508,1.222q1.806,3.131,3.628,6.255c.357.613.311.677-.369.734a13.418,13.418,0,0,0-1.549.152c-.425.087-.485-.094-.639-.363-2.213-3.841-4.354-7.726-6.679-11.5a20.309,20.309,0,0,0-13.3-9.37c-.675-.154-1.373-.209-2.061-.3-.333-.046-.482-.126-.475-.562.045-2.953.089-5.909,0-8.86-.021-.674.168-.672.62-.634a30.954,30.954,0,0,1,8.883,2,30.225,30.225,0,0,1,12.065,8.615,21.207,21.207,0,0,1,2.926,4.119,7.122,7.122,0,0,0,1.174,1.517c.553.605,1.22.653,2.168.234a14.071,14.071,0,0,0,1.6,2.989c.276.43.4.992.971,1.181M103.455,30.94a1.793,1.793,0,0,0-1.835.943,1.676,1.676,0,0,0,.138,1.913,2.253,2.253,0,0,0,1.386.8,24.418,24.418,0,0,1,12.22,7.245c.834.9,1.559,1.907,2.369,2.835a1.613,1.613,0,0,0,2.081.255,1.593,1.593,0,0,0,.794-1.966,6.906,6.906,0,0,0-1.63-2.466A27.9,27.9,0,0,0,106.34,31.75a16.116,16.116,0,0,0-2.885-.81" transform="translate(-50.75 -14.313)" fill="#fdeead"/>
          <path id="Trazado_821647" data-name="Trazado 821647" d="M48.627,94.03c-.1.147-.2.218-.3.009l.3-.009" transform="translate(-24.792 -48.241)" fill="#fdcf63"/>
          <path id="Trazado_821648" data-name="Trazado 821648" d="M98.932,19.979c-.1-.056-.083-.124-.02-.2.006.066.013.131.02.2" transform="translate(-50.72 -10.149)" fill="#b0e4f9"/>
          <path id="Trazado_821649" data-name="Trazado 821649" d="M106.734,99.883c.481-.028.962-.075,1.443-.082a52.331,52.331,0,0,0,6.414-.612c.675-.093,1.362-.094,2.043-.138,0,1.943.045,3.886-.117,5.826-.363.01-.726.027-1.089.027q-6.942,0-13.884,0a4.9,4.9,0,0,0-1.2.1,1.933,1.933,0,0,0-1.432,1.861,2.119,2.119,0,0,0,1.846,1.656q3.82.005,7.639.006,4.061.007,8.123.021c-.006.766.133,1.519.132,2.289q-.023,15.919-.018,31.839,0,2.115-.077,4.232a21.787,21.787,0,0,1-1.4,6.756,20.461,20.461,0,0,1-2.481,4.645c-.66.95-1.451,1.8-2.163,2.712-.372.476-.891.814-.793,1.515a7.113,7.113,0,0,0-1.907-.089q-21.455-.007-42.909-.008a7.153,7.153,0,0,0-1.566.119,1.625,1.625,0,0,0-1.32,1.28,1.925,1.925,0,0,0,.7,1.9,2.534,2.534,0,0,0,1.844.381q17.419.008,34.838,0c.768,0,1.536.008,2.3.012.035.065.207.1.131.158-.271.223-.444.534-.832.654a19.8,19.8,0,0,1-5.875.943q-42.4.012-84.8,0a3.562,3.562,0,0,1-.66-.055,2.808,2.808,0,0,0-1.831.173,4.992,4.992,0,0,1-.406-2.3c.045-.522.01-1.051.01-1.577q0-31.871,0-63.74c0-.668.007-1.336.013-2,0-.16-.024-.345.238-.3,1.461.233,2.933.408,4.4.566,1.2.129,2.388.317,3.589.417a18.256,18.256,0,0,1,3.141.435,8.977,8.977,0,0,0,1.542.133,61.43,61.43,0,0,0,7.371.16,20.171,20.171,0,0,0,2.94-.15c1.531-.284,3.092-.273,4.625-.569,1.183-.228,2.414-.2,3.6-.406,1.37-.233,2.764-.235,4.125-.486a15.34,15.34,0,0,1,4.076-.13c.969.078,1.934.2,2.9.276,1.115.086,2.215.377,3.33.448.776.05,1.529.22,2.3.281a25.462,25.462,0,0,1,3.386.447,12.327,12.327,0,0,0,1.542.129,52.5,52.5,0,0,0,6.706.178A28.257,28.257,0,0,0,71,99.651c1.69-.3,3.4-.378,5.1-.619,1.241-.177,2.489-.305,3.733-.461,1.543-.192,3.08-.444,4.628-.568a14.237,14.237,0,0,1,3.2.048c1.184.173,2.382.253,3.57.4,1.89.232,3.774.539,5.669.71,1.6.145,3.193.4,4.8.523,1.489.117,2.981.062,4.465.206l.571-.007m-45.59,20.874a21.477,21.477,0,0,0-4.521,1.512c-.809-1.2-1.347-1.449-2.7-.968a3.661,3.661,0,0,1-2.3-.1c-.229-.06-.462-.107-.691-.169-2.49-.673-5-1.262-7.5-1.889-2.263-.568-3.977-.089-5.04,1.9a14.349,14.349,0,0,0-1.675,4.84c-.048.355-.212.492-.6.512a4.025,4.025,0,0,1-2.108-.692c-.9-.475-1.757-1.028-2.633-1.548l-.1-.078c-.708-.409-1.347-.918-2.059-1.329-1.757-1.014-3.467-2.109-5.2-3.164-.924-.562-1.835-1.15-2.791-1.65a2.142,2.142,0,0,0-2.814.92,3.829,3.829,0,0,0-.27,1.9c.03,6.11.019,12.221.02,18.331,0,1.576.019,3.152,0,4.727a2.268,2.268,0,0,0,3.548,1.932c3.517-2.279,7.124-4.421,10.675-6.649a11.218,11.218,0,0,1,3.391-1.4c.261-.062.535-.18.637.374a20.552,20.552,0,0,0,.789,3.47,12.652,12.652,0,0,0,1.481,3.331,3.66,3.66,0,0,0,3.628,1.744c3.249-.664,6.45-1.564,9.672-2.361.268-.066.649-.156.792.063.349.536.891.874,1.266,1.363a34.451,34.451,0,0,0,3.334,3.395,20.636,20.636,0,0,0,2.152,1.752c.977.734,1.937,1.506,2.971,2.147a42.545,42.545,0,0,0,9.027,4.407,45.092,45.092,0,0,0,6.342,1.675c1.156.2,2.318.325,3.478.452a8.22,8.22,0,0,0,2.717-.045c1.826-.43,2.416-1.321,2.538-3.19a27.3,27.3,0,0,0,.013-2.73c-.015-.409.152-.512.508-.571.745-.124,1.49-.263,2.222-.448a30.114,30.114,0,0,0,5.586-1.943,47.36,47.36,0,0,0,4.747-2.539,47.229,47.229,0,0,0,9.526-8.223,21.794,21.794,0,0,0,4.1-5.824,4.047,4.047,0,0,0-.118-3.923,14.1,14.1,0,0,0-1.232-1.869,40.637,40.637,0,0,0-11.607-9.336,35.362,35.362,0,0,0-10.425-3.89,34.031,34.031,0,0,0-5.913-.722,9.48,9.48,0,0,0-2.108.1,3.94,3.94,0,0,1-2.692-.86c-4.145-2.3-8.378-4.427-12.579-6.618a3.366,3.366,0,0,0-2.859-.308,3.08,3.08,0,0,0-1.909,2.976c.138.928.117,1.879.266,2.8a10.066,10.066,0,0,0,.494,2.3,6.162,6.162,0,0,0,2.41,2.769q0,.156,0,.311a13.537,13.537,0,0,0-2.2.593,2.4,2.4,0,0,0-1.139.528,2.438,2.438,0,0,0-.549,1.912m-35.005-7.767V113q5.188,0,10.375,0a5.656,5.656,0,0,0,1.084-.1,1.759,1.759,0,0,0,1.437-1.615,1.683,1.683,0,0,0-1.338-1.8,4.211,4.211,0,0,0-1.305-.149q-10.256-.005-20.512,0a10.147,10.147,0,0,0-1.27.074,1.674,1.674,0,0,0-1.426,1.124,1.865,1.865,0,0,0,1.556,2.36,8.133,8.133,0,0,0,1.45.094q4.975.012,9.95,0m-3.2,46.649v.015q4.067,0,8.134,0a10.449,10.449,0,0,0,1.313-.1,1.7,1.7,0,0,0,1.42-1.623,1.79,1.79,0,0,0-1.148-1.754,3.7,3.7,0,0,0-1.316-.159q-8.225.005-16.451,0a4.429,4.429,0,0,0-1.143.118,1.861,1.861,0,0,0-1.326,1.477,1.94,1.94,0,0,0,1.9,2.043c2.873-.035,5.747-.013,8.62-.013m22.138,0v0c1.557,0,3.114.032,4.669-.01a1.766,1.766,0,0,0,1.908-1.82,1.829,1.829,0,0,0-1.86-1.778c-.161-.014-.323-.013-.485-.013q-4.124,0-8.249,0a4.081,4.081,0,0,0-.9.1,1.736,1.736,0,0,0-1.369,2.041,1.97,1.97,0,0,0,1.8,1.486c1.5-.023,2.992-.006,4.488-.006m42.56-51.113c1.477,0,2.955.017,4.432-.005a1.775,1.775,0,0,0,1.9-1.7,1.721,1.721,0,0,0-1.726-1.887c-.161-.015-.323-.021-.485-.021q-4.1,0-8.2,0a4.35,4.35,0,0,0-.9.1,1.739,1.739,0,0,0-.489,3.211,2.324,2.324,0,0,0,1.216.31c1.417-.006,2.833,0,4.25,0" transform="translate(-3.805 -50.245)" fill="#d2eefb"/>
          <path id="Trazado_821650" data-name="Trazado 821650" d="M8.28,168.145a2.806,2.806,0,0,1,1.83-.173,3.613,3.613,0,0,0,.661.055q42.4,0,84.8,0a19.772,19.772,0,0,0,5.875-.943c.389-.12.562-.431.833-.654.076-.063-.1-.094-.13-.158q3.731-.011,7.463-.022c.849,0,1.7.024,2.548-.04.936-.072,1.469-.634,1.639-1.767a1.733,1.733,0,0,0-1.247-1.641,13.006,13.006,0,0,0-2.392-.131c-.1-.7.422-1.039.793-1.515.712-.911,1.5-1.763,2.163-2.712a20.443,20.443,0,0,0,2.482-4.645,21.8,21.8,0,0,0,1.4-6.756q.072-2.117.077-4.232.019-15.919.018-31.839c0-.769-.138-1.523-.132-2.289l2.052-.021a2.136,2.136,0,0,0,1.4-.471,1.725,1.725,0,0,0,.511-1.867,1.8,1.8,0,0,0-1.728-1.274c-.742-.043-1.487-.028-2.23-.039.162-1.94.12-3.884.117-5.826,1.11-.248,2.243-.332,3.367-.478,1.225-.159,2.453-.288,3.674-.469.762-.114.865-.062.865.719q0,32.623.006,65.245a10.822,10.822,0,0,1-.269,3.572,4.562,4.562,0,0,1-2.617,2.868,6.8,6.8,0,0,1-2.734.437q-53.056-.007-106.111.015a5.109,5.109,0,0,1-4.831-2.554,2.308,2.308,0,0,1-.147-.389" transform="translate(-4.248 -50.373)" fill="#b0e4f9"/>
          <path id="Trazado_821651" data-name="Trazado 821651" d="M191.258,83.185c-1.609-.072-3.234-.033-4.824-.247-1.659-.224-3.328-.349-4.983-.611-1.631-.258-3.283-.382-4.925-.572-.993-.115-1.984-.248-2.977-.368-.342-.041-.3-.2-.13-.395a5.406,5.406,0,0,1,3.842-2.024,23.582,23.582,0,0,0,2.584-.1,4.776,4.776,0,0,0,3.308-2.314,8.376,8.376,0,0,1,4.221-3.486c3.977-1.473,8.878-.027,10.954,3.548a8.279,8.279,0,0,1,.984,5.688c-.05.3-.239.269-.436.3a53.748,53.748,0,0,1-7.619.577" transform="translate(-88.906 -37.196)" fill="#fdeead"/>
          <path id="Trazado_821652" data-name="Trazado 821652" d="M95.759,85.246a5.064,5.064,0,0,0,2.855.968c.555-.049,1.132-.275,1.666-.289a7.574,7.574,0,0,1,2.361.078,7.248,7.248,0,0,0,.813.185,3.579,3.579,0,0,1,2.554,2.35c.2.4-.169.307-.345.329a37.365,37.365,0,0,1-4.891.166,25.921,25.921,0,0,1-4.394-.184c-1.938-.34-3.9-.46-5.84-.717-1.745-.231-3.488-.511-5.252-.607-.846-.046-1.684-.226-2.525-.353a15.11,15.11,0,0,0-4.327.162c-.576.079-1.155.128-1.73.21-.415.059-.462-.145-.338-.451a9.615,9.615,0,0,1,1.774-3.059,2.394,2.394,0,0,0,1.234.21,16.743,16.743,0,0,1,5.094.1q2.694.286,5.377.667c1.272.179,2.557.23,3.829.434.685.11,1.456.514,2.086-.2" transform="translate(-39.148 -43.113)" fill="#b0e4f9"/>
          <path id="Trazado_821653" data-name="Trazado 821653" d="M97.691,81.025c-.629.713-1.4.308-2.086.2-1.272-.2-2.557-.255-3.829-.434q-2.682-.378-5.377-.667a16.743,16.743,0,0,0-5.094-.1,2.393,2.393,0,0,1-1.234-.21,9.593,9.593,0,0,1,4-3.132,10.081,10.081,0,0,1,4.727-.857A10.253,10.253,0,0,1,96.5,79.663c.382.467.793.909,1.191,1.362" transform="translate(-41.08 -38.893)" fill="#fdeead"/>
          <path id="Trazado_821654" data-name="Trazado 821654" d="M73.115,39.038c-1.78,0-3.56-.016-5.339.011-.465.007-.579-.126-.551-.582.054-.866.059-1.738.033-2.607-.012-.4.126-.47.481-.469q5.46.015,10.92,0c.347,0,.409.14.406.431-.008.909-.021,1.82.009,2.728.014.4-.1.506-.5.5-1.82-.021-3.64-.01-5.46-.009" transform="translate(-34.487 -18.155)" fill="#d2eefb"/>
          <path id="Trazado_821655" data-name="Trazado 821655" d="M73.129,24.078c-1.739,0-3.478-.016-5.217.01-.518.008-.761-.064-.7-.68a18.13,18.13,0,0,0,.036-2.424c-.014-.41.077-.558.519-.556q5.429.025,10.859,0c.319,0,.434.09.43.406-.011.97-.019,1.941.006,2.911.011.411-.245.331-.475.331q-2.73,0-5.46,0" transform="translate(-34.478 -10.48)" fill="#d2eefb"/>
          <path id="Trazado_821656" data-name="Trazado 821656" d="M73.193,10.131H68.032c-.788,0-.788,0-.775-.757A9.192,9.192,0,0,0,67.27,8.1c-.071-.576.186-.655.682-.65,2.1.02,4.209,0,6.314,0,1.437,0,2.874.021,4.31-.008.413-.009.529.119.524.5A15.432,15.432,0,0,0,79.155,9.7c.04.39-.118.432-.437.43-1.841-.01-3.683,0-5.525,0" transform="translate(-34.504 -3.818)" fill="#d2eefb"/>
          <path id="Trazado_821657" data-name="Trazado 821657" d="M73.211,53.031c-1.821,0-3.643-.011-5.464.008-.424,0-.567-.109-.524-.547a9.056,9.056,0,0,0,.028-1.637c-.043-.506.225-.5.582-.5,3.278,0,6.557,0,9.836,0,1.4,0,1.4,0,1.419,1.425.022,1.25.022,1.25-1.263,1.25H73.211" transform="translate(-34.484 -25.835)" fill="#d2eefb"/>
          <path id="Trazado_821658" data-name="Trazado 821658" d="M210.77,101.777l-.571.007a.343.343,0,0,1,.571-.007" transform="translate(-107.84 -52.139)" fill="#b0e4f9"/>
          <path id="Trazado_821659" data-name="Trazado 821659" d="M106.05,34.144a16.116,16.116,0,0,1,2.885.81A27.9,27.9,0,0,1,121.572,43.7a6.906,6.906,0,0,1,1.63,2.466,1.593,1.593,0,0,1-.794,1.966,1.613,1.613,0,0,1-2.081-.255c-.81-.927-1.535-1.93-2.369-2.835a24.417,24.417,0,0,0-12.22-7.245,2.253,2.253,0,0,1-1.386-.8,1.676,1.676,0,0,1-.138-1.913,1.793,1.793,0,0,1,1.835-.943" transform="translate(-53.345 -17.516)"/>
          <path id="Trazado_821660" data-name="Trazado 821660" d="M76.327,126.3a6.169,6.169,0,0,1-2.409-2.769,10.05,10.05,0,0,1-.494-2.3c-.149-.925-.128-1.877-.266-2.8a3.079,3.079,0,0,1,1.908-2.976,3.365,3.365,0,0,1,2.86.308c4.2,2.19,8.433,4.321,12.579,6.617a3.937,3.937,0,0,0,2.692.86,9.478,9.478,0,0,1,2.108-.1,33.982,33.982,0,0,1,5.913.721,35.362,35.362,0,0,1,10.425,3.89,40.637,40.637,0,0,1,11.607,9.336,14.1,14.1,0,0,1,1.232,1.87,4.046,4.046,0,0,1,.118,3.922,21.8,21.8,0,0,1-4.1,5.824,47.26,47.26,0,0,1-9.526,8.223,47.457,47.457,0,0,1-4.747,2.538,30.057,30.057,0,0,1-5.586,1.942c-.731.186-1.476.325-2.222.448-.356.059-.523.163-.508.571a27.162,27.162,0,0,1-.012,2.73c-.122,1.869-.712,2.759-2.538,3.19a8.206,8.206,0,0,1-2.717.045c-1.159-.127-2.322-.248-3.478-.452a45.091,45.091,0,0,1-6.342-1.675,42.592,42.592,0,0,1-9.027-4.407c-1.034-.642-1.994-1.414-2.971-2.148a20.692,20.692,0,0,1-2.152-1.752,34.51,34.51,0,0,1-3.334-3.4c-.375-.49-.917-.827-1.266-1.363-.143-.22-.523-.13-.792-.064-3.222.8-6.424,1.7-9.673,2.362a3.661,3.661,0,0,1-3.627-1.744,12.662,12.662,0,0,1-1.481-3.332,20.558,20.558,0,0,1-.789-3.469c-.1-.555-.376-.437-.637-.375a11.217,11.217,0,0,0-3.391,1.4c-3.551,2.228-7.157,4.37-10.675,6.649a2.268,2.268,0,0,1-3.548-1.932c.023-1.576,0-3.152,0-4.727,0-6.11.01-12.221-.02-18.332a3.831,3.831,0,0,1,.27-1.9,2.142,2.142,0,0,1,2.814-.92c.956.5,1.867,1.089,2.791,1.651,1.734,1.055,3.444,2.149,5.2,3.163.712.411,1.351.921,2.059,1.329-.005.075.009.125.1.078.876.52,1.734,1.072,2.633,1.548a4.029,4.029,0,0,0,2.108.691c.384-.02.548-.156.6-.512a14.35,14.35,0,0,1,1.675-4.839c1.063-1.987,2.777-2.466,5.04-1.9,2.5.628,5.013,1.216,7.5,1.89.228.062.461.109.691.169a3.661,3.661,0,0,0,2.3.1c1.351-.481,1.889-.227,2.7.968.092,1.348-.217,1.925-1.4,2.348-4.313,1.541-8.58,3.2-12.839,4.881a12.168,12.168,0,0,1-6.728.6,13.121,13.121,0,0,1-4.712-1.976c-2.856-1.835-5.747-3.614-8.626-5.413-.145-.091-.3-.3-.467-.168-.086.065-.058.3-.059.454,0,.991.019,1.983-.012,2.974-.013.4.112.565.505.635,1.519.269,3.034.564,4.549.856a1.6,1.6,0,0,1,1.342,1.093,1.8,1.8,0,0,1-.377,1.931,2.153,2.153,0,0,1-2.091.456c-1.15-.216-2.3-.448-3.444-.681-.3-.061-.493-.063-.481.351.028.889.019,1.78.005,2.671,0,.31.068.437.407.368,1.326-.272,2.661-.5,3.981-.795a1.759,1.759,0,0,1,2.191,2.141c-.195.987-.9,1.274-1.717,1.442q-2.217.458-4.447.845c-.346.06-.423.189-.418.506.016,1.031,0,2.064.011,3.1,0,.144-.1.346.1.428.145.06.26-.081.375-.153,2.468-1.541,4.947-3.064,7.4-4.633a14.7,14.7,0,0,1,6.159-2.5,13.018,13.018,0,0,1,7.409,1.312c6.716,3.265,13.471,6.445,20.427,9.177,3.176,1.247,6.39,2.386,9.659,3.373,1.622.49,3.266.847,4.919,1.2a24.924,24.924,0,0,0,5.307.524,17.592,17.592,0,0,0,4.133-.354c-.046-.231-.21-.287-.351-.348-1.672-.723-3.217-1.687-4.819-2.542a7.414,7.414,0,0,1-3.134-2.955,7.541,7.541,0,0,1-1.009-4.9,6.439,6.439,0,0,0,.374-1.747.88.88,0,0,0-.576.285c-.665.561-1.344,1.105-2,1.678a13.573,13.573,0,0,1-4.182,2.717,12.758,12.758,0,0,1-7.932.309,8,8,0,0,1-5.627-9.694A13.107,13.107,0,0,1,81.322,131q2.455-.214,4.9-.554a5.94,5.94,0,0,1,2.665.025,3.666,3.666,0,0,1,2.476,2.541,7.815,7.815,0,0,0,2.228,3.547c.329.3.467.244.676-.086.5-.785.992-1.573,1.537-2.325a29.773,29.773,0,0,1,5.657-6.052c.115-.091.243-.168.189-.337-.061-.193-.267-.194-.4-.216-1.339-.214-2.66-.525-4.012-.67a28.38,28.38,0,0,0-5.5.037,61.4,61.4,0,0,0-9.046,1.644c-2.59.623-5.135,1.4-7.693,2.14a1.761,1.761,0,0,1-2.29-.831.443.443,0,0,0-.271-.22,2.438,2.438,0,0,1,.549-1.912,2.4,2.4,0,0,1,1.139-.528,13.572,13.572,0,0,1,2.2-.593c.078.02.181.02.19-.061a.23.23,0,0,0-.19-.249m27.213,28.876a10.01,10.01,0,0,0,6.306-1.843c.707-.468,1.383-.984,2.055-1.5a44.03,44.03,0,0,0,8.308-8.454c.107-.142.266-.283.169-.484s-.289-.1-.436-.1a17.162,17.162,0,0,1-5.1-1,19.43,19.43,0,0,1-8.881-6.779,1.681,1.681,0,0,1,.216-2.353,1.73,1.73,0,0,1,2.411.043c.612.587,1.165,1.234,1.737,1.861a14.074,14.074,0,0,0,9.3,4.577c.135.014.336.107.422-.1.055-.131-.058-.215-.14-.306a37.032,37.032,0,0,0-11.985-8.8,3.336,3.336,0,0,0-3.857.572,32.182,32.182,0,0,0-6.561,7.581,47.8,47.8,0,0,0-4.147,9.369,2.165,2.165,0,0,0-.164.749,4,4,0,0,0,2.025,3.671c1.215.718,2.459,1.389,3.7,2.069a8.147,8.147,0,0,0,4.626,1.23m-24.835-7.716a7.887,7.887,0,0,0,4.946-1.464c.841-.613,1.632-1.295,2.441-1.952,1.545-1.256,3.1-2.5,4.614-3.792.232-.2.626-.3.68-.624.065-.383-.409-.4-.6-.636a12.422,12.422,0,0,1-2.685-4.536c-.149-.541-.465-.6-.89-.513-1.5.3-3.04.349-4.552.587-.782.123-1.591.117-2.353.307a8.979,8.979,0,0,0-7.163,7.594c-.035.188-.221.417-.029.56s.427.01.623-.1c2.09-1.139,4.2-2.246,6.253-3.445a6.572,6.572,0,0,1,1.414-.693,1.754,1.754,0,0,1,2.35,1.026,1.8,1.8,0,0,1-.915,2.262c-2.491,1.359-4.995,2.692-7.494,4.035-.158.085-.381.147-.4.33-.024.22.232.255.38.327a7.544,7.544,0,0,0,3.386.723m-5.984,9.093a30.937,30.937,0,0,0,3.351,2.466,42.065,42.065,0,0,0,4.076,2.21,34.918,34.918,0,0,0,3.98,1.687,29.349,29.349,0,0,0,5.541,1.379,27.067,27.067,0,0,0,4.091.488c.394-.011.585-.066.545-.52a9.833,9.833,0,0,1,0-1.515c.033-.491-.107-.689-.642-.656a18.365,18.365,0,0,1-4.872-.522,54.54,54.54,0,0,1-6.573-1.733c-.558-.192-1.124-.361-1.691-.529A42.087,42.087,0,0,1,75,157.318a9.182,9.182,0,0,0-2.278-.77M51.339,147c.07.309.145.617.207.927a15.275,15.275,0,0,0,1.2,3.506c.119.25.233.544.607.452,1.859-.458,3.717-.921,5.633-1.4-1.325-.946-7.143-3.577-7.649-3.488m34.645-22.853c-.6-.6-1.357-.665-1.968-1.026-1.747-1.031-3.548-1.97-5.34-2.925a8.956,8.956,0,0,0-1.57-.752c-.292-.09-.343-.013-.281.21.193.694.223,1.413.346,2.117a1.764,1.764,0,0,0,1.182,1.482,9.387,9.387,0,0,0,1.635.346c1.077.161,2.16.29,3.239.434a8.392,8.392,0,0,0,2.757.112m-32.6,7.334a.534.534,0,0,0-.6.305,16.184,16.184,0,0,0-1.106,2.891c-.122.427.089.548.479.425.153-.049.3-.118.451-.175,1.75-.663,3.465-1.422,5.256-1.977.112-.035.248-.009.244-.191s-.151-.168-.247-.217a5.336,5.336,0,0,0-1.333-.36c-1.051-.227-2.1-.466-3.15-.7" transform="translate(-15.102 -59.128)"/>
          <path id="Trazado_821661" data-name="Trazado 821661" d="M76.268,141.757a.443.443,0,0,1,.271.22,1.761,1.761,0,0,0,2.29.831c2.558-.739,5.1-1.517,7.693-2.14a61.455,61.455,0,0,1,9.046-1.645,28.453,28.453,0,0,1,5.495-.037c1.352.146,2.673.456,4.012.671.137.022.343.023.4.216.054.169-.074.247-.189.337a29.745,29.745,0,0,0-5.657,6.052c-.545.751-1.04,1.541-1.538,2.325-.21.331-.347.387-.676.086a7.815,7.815,0,0,1-2.228-3.547,3.666,3.666,0,0,0-2.476-2.541,5.93,5.93,0,0,0-2.664-.025q-2.446.338-4.9.554a13.107,13.107,0,0,0-11.6,9.946,8,8,0,0,0,5.628,9.694,12.762,12.762,0,0,0,7.932-.309,13.578,13.578,0,0,0,4.181-2.718c.655-.572,1.335-1.116,2-1.677a.878.878,0,0,1,.576-.285,6.443,6.443,0,0,1-.374,1.747,7.541,7.541,0,0,0,1.009,4.9,7.417,7.417,0,0,0,3.134,2.955c1.6.855,3.147,1.819,4.82,2.542.14.06.3.116.351.348a17.592,17.592,0,0,1-4.133.354,24.928,24.928,0,0,1-5.307-.524c-1.653-.354-3.3-.71-4.918-1.2-3.269-.988-6.482-2.126-9.659-3.373-6.956-2.731-13.711-5.912-20.427-9.177a13.012,13.012,0,0,0-7.409-1.312,14.7,14.7,0,0,0-6.16,2.5c-2.45,1.569-4.929,3.093-7.4,4.633-.116.073-.231.213-.375.153-.2-.082-.1-.283-.1-.428-.01-1.032,0-2.064-.011-3.1,0-.317.072-.447.418-.506q2.231-.384,4.447-.845c.814-.168,1.522-.455,1.717-1.442a1.759,1.759,0,0,0-2.191-2.141c-1.32.295-2.655.523-3.98.794-.339.07-.412-.057-.407-.368.014-.89.023-1.781,0-2.671-.013-.414.18-.411.48-.351,1.147.232,2.294.465,3.445.681a2.153,2.153,0,0,0,2.091-.456,1.8,1.8,0,0,0,.377-1.931,1.6,1.6,0,0,0-1.341-1.093c-1.515-.292-3.03-.587-4.549-.856-.394-.07-.519-.232-.506-.634.032-.99.008-1.983.013-2.974,0-.156-.027-.389.058-.453.17-.129.322.077.467.168,2.878,1.8,5.77,3.578,8.625,5.413a13.121,13.121,0,0,0,4.712,1.976,12.168,12.168,0,0,0,6.728-.6c4.259-1.682,8.527-3.34,12.84-4.881,1.183-.423,1.493-1,1.4-2.348a21.514,21.514,0,0,1,4.521-1.512" transform="translate(-18.928 -71.245)" fill="#fdcf63"/>
          <path id="Trazado_821662" data-name="Trazado 821662" d="M167.187,230.484a13.005,13.005,0,0,1,2.391.131,1.732,1.732,0,0,1,1.247,1.641c-.169,1.133-.7,1.7-1.639,1.767-.845.064-1.7.037-2.548.04q-3.731.015-7.463.022c-.768,0-1.536-.012-2.3-.012q-17.419,0-34.837,0a2.533,2.533,0,0,1-1.844-.381,1.925,1.925,0,0,1-.7-1.9,1.627,1.627,0,0,1,1.321-1.28,7.15,7.15,0,0,1,1.565-.119q21.454,0,42.909.007a7.133,7.133,0,0,1,1.907.089" transform="translate(-61.28 -118.192)"/>
          <path id="Trazado_821663" data-name="Trazado 821663" d="M32.153,124.994q-4.975,0-9.95,0a8.084,8.084,0,0,1-1.45-.095,1.865,1.865,0,0,1-1.557-2.359,1.673,1.673,0,0,1,1.427-1.124,9.96,9.96,0,0,1,1.27-.074q10.256-.008,20.512,0a4.222,4.222,0,0,1,1.305.149,1.683,1.683,0,0,1,1.339,1.8,1.759,1.759,0,0,1-1.438,1.615,5.647,5.647,0,0,1-1.083.1q-5.188.011-10.375,0v-.007" transform="translate(-9.819 -62.249)"/>
          <path id="Trazado_821664" data-name="Trazado 821664" d="M212.9,112.19c.744.011,1.489,0,2.23.039a1.8,1.8,0,0,1,1.727,1.274,1.724,1.724,0,0,1-.51,1.867,2.136,2.136,0,0,1-1.4.471l-2.051.021q-4.062-.01-8.123-.021-3.82-.006-7.639-.006a2.119,2.119,0,0,1-1.846-1.656,1.935,1.935,0,0,1,1.432-1.861,4.9,4.9,0,0,1,1.2-.1q6.943,0,13.885,0c.363,0,.726-.018,1.089-.027" transform="translate(-100.185 -57.558)"/>
          <path id="Trazado_821665" data-name="Trazado 821665" d="M28.206,220.826c-2.874,0-5.747-.022-8.62.013a1.94,1.94,0,0,1-1.9-2.043,1.861,1.861,0,0,1,1.326-1.477,4.431,4.431,0,0,1,1.143-.118q8.226,0,16.451,0a3.7,3.7,0,0,1,1.317.159,1.79,1.79,0,0,1,1.148,1.754,1.7,1.7,0,0,1-1.42,1.622,10.376,10.376,0,0,1-1.313.105q-4.067.007-8.135,0Z" transform="translate(-9.069 -111.432)"/>
          <path id="Trazado_821666" data-name="Trazado 821666" d="M78.128,220.829c-1.5,0-2.992-.017-4.488.006a1.97,1.97,0,0,1-1.8-1.487,1.737,1.737,0,0,1,1.369-2.04,4.1,4.1,0,0,1,.9-.1q4.124-.01,8.249,0c.162,0,.324,0,.485.013A1.828,1.828,0,0,1,84.7,219a1.764,1.764,0,0,1-1.908,1.82c-1.555.042-3.113.011-4.669.011v0" transform="translate(-36.852 -111.434)"/>
          <path id="Trazado_821667" data-name="Trazado 821667" d="M165.475,115.871c-1.417,0-2.833,0-4.25,0a2.324,2.324,0,0,1-1.216-.31,1.739,1.739,0,0,1,.489-3.211,4.318,4.318,0,0,1,.9-.1q4.1-.009,8.2,0c.162,0,.324.007.485.021a1.721,1.721,0,0,1,1.726,1.887,1.774,1.774,0,0,1-1.9,1.7c-1.477.022-2.954.006-4.432.006" transform="translate(-81.639 -57.589)"/>
          <path id="Trazado_821668" data-name="Trazado 821668" d="M125.728,137.932a.23.23,0,0,1,.189.25c-.009.082-.112.082-.19.061q0-.155,0-.311" transform="translate(-64.503 -70.765)" fill="#b0e4f9"/>
          <path id="Trazado_821669" data-name="Trazado 821669" d="M56.519,151.685c-.091.047-.105,0-.1-.078l.1.078" transform="translate(-28.945 -77.78)" fill="#b0e4f9"/>
          <path id="Trazado_821670" data-name="Trazado 821670" d="M170.71,170.246a8.155,8.155,0,0,1-4.626-1.23c-1.238-.68-2.482-1.35-3.7-2.069a4,4,0,0,1-2.025-3.671,2.167,2.167,0,0,1,.164-.749,47.815,47.815,0,0,1,4.147-9.368,32.194,32.194,0,0,1,6.561-7.581,3.335,3.335,0,0,1,3.857-.572,37.03,37.03,0,0,1,11.985,8.8c.082.091.195.175.14.307-.085.207-.286.113-.422.1a14.076,14.076,0,0,1-9.3-4.577c-.573-.626-1.126-1.274-1.737-1.861a1.73,1.73,0,0,0-2.411-.043,1.681,1.681,0,0,0-.216,2.353,19.433,19.433,0,0,0,8.881,6.78,17.171,17.171,0,0,0,5.1,1c.146,0,.344-.083.435.1s-.062.341-.169.484a44.032,44.032,0,0,1-8.308,8.455c-.672.517-1.348,1.033-2.055,1.5a10.013,10.013,0,0,1-6.306,1.844m3.165-3.535a1.943,1.943,0,0,0,1.773-1.121,1.678,1.678,0,0,0-.374-1.9c-.416-.467-.868-.9-1.321-1.335-.3-.282-.326-.5.006-.793.467-.415.872-.9,1.327-1.327a1.869,1.869,0,0,0-.024-2.428,1.763,1.763,0,0,0-2.477-.079c-.487.455-.962.924-1.414,1.413-.239.258-.416.244-.642.009-.421-.436-.841-.874-1.28-1.291a1.869,1.869,0,0,0-1.22-.6,1.783,1.783,0,0,0-1.7,1.02,1.579,1.579,0,0,0,.275,1.9,13.015,13.015,0,0,0,1.317,1.336c.353.322.431.555.011.9a11.426,11.426,0,0,0-1.287,1.282,1.655,1.655,0,0,0,.03,2.437,1.588,1.588,0,0,0,2.44.059,11.263,11.263,0,0,0,1.375-1.364c.269-.3.444-.313.716-.017a11.346,11.346,0,0,0,1.561,1.52c.268.2.528.447.912.379" transform="translate(-82.273 -74.202)" fill="#fdeead"/>
          <path id="Trazado_821671" data-name="Trazado 821671" d="M124.628,167.11a7.54,7.54,0,0,1-3.385-.723c-.149-.072-.405-.107-.381-.327.02-.183.243-.245.4-.33,2.5-1.343,5-2.677,7.494-4.035a1.8,1.8,0,0,0,.915-2.262,1.753,1.753,0,0,0-2.35-1.026,6.564,6.564,0,0,0-1.414.693c-2.054,1.2-4.163,2.307-6.253,3.445-.2.107-.436.236-.623.1s-.006-.372.029-.56a8.978,8.978,0,0,1,7.163-7.594c.763-.19,1.572-.184,2.354-.307,1.512-.239,3.047-.288,4.551-.587.425-.085.741-.028.89.513a12.422,12.422,0,0,0,2.685,4.536c.195.235.669.253.6.636-.054.32-.448.427-.68.624-1.514,1.291-3.069,2.536-4.614,3.792-.808.657-1.6,1.34-2.441,1.952a7.887,7.887,0,0,1-4.946,1.464" transform="translate(-61.025 -78.783)" fill="#fdeead"/>
          <path id="Trazado_821672" data-name="Trazado 821672" d="M118.326,200.058a9.167,9.167,0,0,1,2.278.77,42.181,42.181,0,0,0,5.525,1.983c.566.168,1.133.337,1.691.53a54.648,54.648,0,0,0,6.573,1.733,18.372,18.372,0,0,0,4.873.522c.535-.032.674.166.642.656a9.9,9.9,0,0,0,0,1.515c.04.454-.15.509-.545.52a27.068,27.068,0,0,1-4.09-.488,29.348,29.348,0,0,1-5.541-1.379,34.83,34.83,0,0,1-3.98-1.687,42.065,42.065,0,0,1-4.076-2.21,30.866,30.866,0,0,1-3.35-2.466" transform="translate(-60.706 -102.638)" fill="#fdeead"/>
          <path id="Trazado_821673" data-name="Trazado 821673" d="M74.415,180.44c.5-.089,6.324,2.542,7.649,3.488-1.916.476-3.774.938-5.633,1.4-.374.093-.489-.2-.607-.452a15.214,15.214,0,0,1-1.2-3.506c-.063-.31-.138-.618-.207-.927" transform="translate(-38.178 -92.572)" fill="#fdeead"/>
          <path id="Trazado_821674" data-name="Trazado 821674" d="M135.886,128.519a8.378,8.378,0,0,1-2.757-.112c-1.08-.145-2.162-.273-3.24-.434a9.379,9.379,0,0,1-1.635-.346,1.762,1.762,0,0,1-1.182-1.482c-.124-.7-.153-1.423-.346-2.117-.062-.224-.011-.3.281-.211a8.957,8.957,0,0,1,1.57.752c1.791.955,3.592,1.894,5.339,2.925.611.361,1.364.423,1.968,1.026" transform="translate(-65.004 -63.504)" fill="#fdeead"/>
          <path id="Trazado_821675" data-name="Trazado 821675" d="M76.781,148.569c1.05.235,2.1.474,3.15.7a5.336,5.336,0,0,1,1.333.36c.1.049.243.048.247.217s-.133.157-.244.191c-1.792.554-3.506,1.313-5.256,1.977-.151.057-.3.126-.451.175-.391.123-.6,0-.479-.425a16.185,16.185,0,0,1,1.106-2.891.534.534,0,0,1,.6-.305" transform="translate(-38.501 -76.22)" fill="#fdeead"/>
          <path id="Trazado_821676" data-name="Trazado 821676" d="M180.148,180.006c-.384.067-.643-.181-.912-.379a11.345,11.345,0,0,1-1.561-1.52c-.273-.3-.448-.287-.716.017a11.263,11.263,0,0,1-1.375,1.364,1.588,1.588,0,0,1-2.44-.059,1.655,1.655,0,0,1-.03-2.437,11.467,11.467,0,0,1,1.287-1.282c.42-.348.342-.581-.011-.9a13.015,13.015,0,0,1-1.317-1.336,1.579,1.579,0,0,1-.275-1.9,1.782,1.782,0,0,1,1.7-1.02,1.869,1.869,0,0,1,1.22.6c.439.417.859.855,1.279,1.291.226.235.4.249.642-.009.452-.488.927-.958,1.414-1.412a1.763,1.763,0,0,1,2.477.078,1.869,1.869,0,0,1,.024,2.428c-.456.429-.861.912-1.327,1.327-.332.3-.3.511-.006.793.453.432.9.868,1.321,1.335a1.679,1.679,0,0,1,.374,1.9,1.944,1.944,0,0,1-1.773,1.12" transform="translate(-88.545 -87.497)"/>
        </g>
      </g>
    </g>
  </g>
</svg>
