<svg xmlns="http://www.w3.org/2000/svg" xmlns:xlink="http://www.w3.org/1999/xlink" width="135" height="135" viewBox="0 0 135 135">
  <defs>
    <clipPath id="clip-path">
      <rect id="Rect치ngulo_377702" data-name="Rect치ngulo 377702" width="135" height="135" transform="translate(0.098)" fill="#fff" stroke="#707070" stroke-width="1"/>
    </clipPath>
    <clipPath id="clip-path-2">
      <rect id="Rect치ngulo_377703" data-name="Rect치ngulo 377703" width="128.909" height="129" fill="none"/>
    </clipPath>
  </defs>
  <g id="Enmascarar_grupo_370" data-name="Enmascarar grupo 370" transform="translate(-0.098)" clip-path="url(#clip-path)">
    <g id="Grupo_1073455" data-name="Grupo 1073455" transform="translate(1.71 6)">
      <g id="Grupo_1073454" data-name="Grupo 1073454" clip-path="url(#clip-path-2)">
        <path id="Trazado_821724" data-name="Trazado 821724" d="M.015,63.258H.005q0,16.38.005,32.761a3.268,3.268,0,0,0,.082,1.113C.5,98.314,1.3,98.84,2.828,98.841q14,0,27.993-.011a23.178,23.178,0,0,0,3.219.012c.255-.036.346.057.344.33-.014,1.387.032,2.777-.027,4.161a7.665,7.665,0,0,0,0,1.479,2.749,2.749,0,0,1-.892,2.691,11.277,11.277,0,0,0-2.673,4.012,9.977,9.977,0,0,0-.688,3.174,12.635,12.635,0,0,0,.989,6.3c2.146,4.773,5.834,7.534,11.034,7.883,3.742.251,7.515.064,11.274.037a2.214,2.214,0,0,0,2.2-1.327,3.611,3.611,0,0,0,.255-1.415q0-2.92,0-5.84c0-4.834.018-9.668-.015-14.5a2.31,2.31,0,0,0-1.356-2.435,3.9,3.9,0,0,0-1.419-.252c-1.768,0-3.536-.015-5.3.012-.425.006-.522-.115-.51-.522.03-1.051.044-2.1,0-3.154-.025-.542.151-.645.66-.644q11.681.025,23.361.011c3.267,0,6.534.011,9.8-.012.482,0,.593.13.577.592-.037,1.073-.036,2.149,0,3.222.015.434-.128.509-.525.505-1.924-.018-3.853-.081-5.772.023-1.61.087-2.268.727-2.28,2.278-.054,7.071-.016,14.142-.032,21.214a2.43,2.43,0,0,0,2.251,2.245c3.8,0,7.608.029,11.411,0a9.386,9.386,0,0,0,3.212-.581,13.92,13.92,0,0,0,5.86-4.05,12.464,12.464,0,0,0,2.88-10.079,12.087,12.087,0,0,0-3.7-7.2,1.353,1.353,0,0,1-.438-1.057c.017-2.126.039-4.252-.009-6.377-.015-.646.2-.737.774-.735q15.407.025,30.813.012a3.068,3.068,0,0,0,1.576-.308,2.633,2.633,0,0,0,1.224-2.591q.009-31.452,0-62.9a3.594,3.594,0,0,0,0-.47,2.371,2.371,0,0,0-1.5-2.266,4.286,4.286,0,0,0-1.358-.217c-2.439.01-4.878,0-7.317.011-.388,0-.586-.024-.58-.517.03-2.529.025-5.057,0-7.586,0-.429.121-.512.523-.507,1.835.022,3.669.018,5.5.007a2.376,2.376,0,0,0,2.589-2.581c-.047-2.572.017-5.147-.023-7.72a2.291,2.291,0,0,0-2.6-2.586c-1.79-.005-3.58-.018-5.37.011-.479.008-.644-.079-.633-.606.039-1.812.054-3.626,0-5.437C118.1.9,117.393.068,115.8.032c-2.707-.061-5.415-.015-8.122-.018a2.286,2.286,0,0,0-2.41,2.467c.018,1.79-.034,3.582.024,5.37.022.679-.193.774-.809.772Q91.292,8.59,78.1,8.609c-.246,0-.494-.008-.738.016A2.164,2.164,0,0,0,75.2,10.967c-.013,2.73,0,5.46,0,8.191a2.263,2.263,0,0,0,1.791,2.312c.334.1.36.2.36.463-.006,1.857-.012,3.715,0,5.572,0,.344-.1.421-.436.463a6.8,6.8,0,0,0-3.9,1.576,6.5,6.5,0,0,0,2.723,11.085c1.788.45,3.635.151,5.455.189.311.006.455-.285.451-.624-.011-1.007,0-2.014-.008-3.021,0-.133.084-.377-.163-.355-.63.057-1.165-.348-1.807-.3-.822.066-1.654.026-2.482.013a2.06,2.06,0,0,1-1.977-1.729,2.181,2.181,0,0,1,1.332-2.425,9.226,9.226,0,0,1,2.511-.138,2.641,2.641,0,0,0,2.07-.851,2.7,2.7,0,0,0,.51-1.805c.026-2.506.017-5.013,0-7.519,0-.385.019-.582.515-.581q11.311.028,22.622,0c.424,0,.513.114.51.52-.019,2.506-.024,5.013,0,7.519.005.481-.13.581-.591.577-2.506-.024-5.012-.011-7.518-.013-.268,0-.539-.064-.5.38.094,1.17-.078,2.343.092,3.523.059.41.167.394.428.394,3.219,0,6.438.011,9.657-.011.469,0,.588.11.583.581q-.038,3.692,0,7.384c.006.522-.124.656-.651.654-4.609-.023-9.219-.005-13.828-.025-.471,0-.6.112-.584.584.038,1.1.027,2.193,0,3.289-.008.356.1.447.448.443,1.831-.017,3.663,0,5.495-.018.4,0,.528.077.522.5q-.04,2.685,0,5.37c.008.459-.092.6-.575.593-1.9-.029-3.8-.025-5.706,0a2.311,2.311,0,0,0-2.318,2.315c-.009,1.768-.007,3.536,0,5.3,0,.32-.026.65-.447.544-1.866-.469-3.766-.753-5.652-1.111-1.759-.334-3.521-.668-5.278-1.021-1.706-.342-3.416-.662-5.126-.983-.539-.1-.7-.376-.7-.946q.04-8.09.008-16.179a4.717,4.717,0,0,0-.2-1.49c-.372-1.084-1.1-1.437-2.438-1.467-2.662-.059-5.325-.026-7.988,0a2.082,2.082,0,0,0-2.079,1.45,3.045,3.045,0,0,0-.178,1.229q0,7.083,0,14.165c0,.448,0,.689-.606.522a15.991,15.991,0,0,0-2.525-.47c-1.122-.121-1.17-.2-1.17-1.336,0-4.274.037-8.548-.016-12.822-.026-2.054-.959-2.7-2.7-2.738-2.5-.058-5.012-.021-7.518-.012a2.4,2.4,0,0,0-2.65,2.669q0,5.438,0,10.876c0,.372-.01.685-.508.546a20.9,20.9,0,0,0-2.976-.537c-.608-.078-.849-.334-.842-1.047.046-5.393.025-10.786.025-16.179,0-4.319.009-8.638-.006-12.957a2.567,2.567,0,0,0-1.325-2.473C35.8,18.762,34.3,17.827,32.7,17.129c-1.7-.743-3.283-1.714-4.981-2.458-1.22-.534-2.379-1.193-3.542-1.848-1.084-.609-2.258-1.053-3.384-1.588-1.58-.753-3.145-1.538-4.729-2.28a2.241,2.241,0,0,0-2.806.589,2.992,2.992,0,0,0-.374,1.92c.013,5.281,0,10.563.02,15.844,0,.528-.134.654-.654.65q-4.934-.035-9.868,0A2.214,2.214,0,0,0,0,30.095Q.036,46.677.015,63.258m103.1,52.848a9.98,9.98,0,0,0,.267,2.49,14.94,14.94,0,0,0,3.582,7.135c.23.258.391.252.649.048a26.138,26.138,0,0,0,1.954-1.932c.738-.721.7-.712.036-1.531a9.816,9.816,0,0,1-1.952-8.606A9.074,9.074,0,0,1,110,109.3c.193-.2.3-.348.036-.6-.691-.66-1.352-1.351-2.029-2.027-.739-.74-.723-.723-1.407.057a14.172,14.172,0,0,0-3.487,9.379m-81.624-.128a10.177,10.177,0,0,1-.227,1.961,9.212,9.212,0,0,1-2.369,4.846c-.233.249-.234.4.017.638.742.711,1.487,1.425,2.173,2.189.43.478.682.376,1.053-.056a14.579,14.579,0,0,0,3.222-6.319,11.96,11.96,0,0,0,.4-3.594,18.487,18.487,0,0,0-.631-3.674,15.093,15.093,0,0,0-3.255-5.718c-.146-.168-.288-.253-.5-.041-.79.806-1.581,1.612-2.4,2.386-.3.284-.263.443-.006.734a10.353,10.353,0,0,1,2.519,6.648m89.406.3a6.531,6.531,0,0,0,.485,2.756,11.224,11.224,0,0,0,1.6,2.485c.161.235.318.355.63.087.866-.743,1.622-1.595,2.451-2.374a.481.481,0,0,0,.045-.748,3.864,3.864,0,0,1-.025-4.906c.176-.248.236-.457-.035-.712-.789-.744-1.587-1.484-2.312-2.289-.351-.39-.6-.217-.791.027a8.9,8.9,0,0,0-2.051,5.675m-93.008.12a8.437,8.437,0,0,0-2-5.673c-.374-.426-.594-.37-.9-.061-.758.757-1.5,1.531-2.256,2.289-.2.2-.266.3-.03.575a3.966,3.966,0,0,1-.016,5.053c-.251.286-.15.353.054.55.823.789,1.657,1.571,2.416,2.419.309.345.427.241.656-.008a7.646,7.646,0,0,0,2.076-5.143" transform="translate(0 0)" fill="#f8f9fb"/>
        <path id="Trazado_821725" data-name="Trazado 821725" d="M.015,63.259Q.015,46.676,0,30.095a2.214,2.214,0,0,1,2.386-2.137q4.933-.036,9.868,0c.519,0,.656-.122.654-.65-.021-5.281-.007-10.562-.02-15.844a2.992,2.992,0,0,1,.374-1.92,2.241,2.241,0,0,1,2.806-.589c1.585.742,3.149,1.528,4.729,2.28,1.126.536,2.3.98,3.384,1.589,1.163.654,2.322,1.314,3.542,1.848,1.7.744,3.278,1.715,4.981,2.458,1.6.7,3.1,1.633,4.639,2.459a2.567,2.567,0,0,1,1.325,2.473c.015,4.319.006,8.638.006,12.957,0,5.393.022,10.786-.025,16.179-.006.713.234.968.842,1.047a20.886,20.886,0,0,1,2.976.536c.5.14.509-.175.508-.546q-.012-5.438,0-10.876a2.4,2.4,0,0,1,2.65-2.669c2.506-.009,5.013-.045,7.518.012,1.745.04,2.678.684,2.7,2.738.053,4.273.016,8.548.016,12.822,0,1.13.048,1.215,1.17,1.336a15.99,15.99,0,0,1,2.525.47c.6.166.607-.074.606-.522q-.011-7.083,0-14.166a3.054,3.054,0,0,1,.178-1.229A2.081,2.081,0,0,1,62.416,38.7c2.663-.023,5.327-.056,7.988,0,1.338.03,2.066.384,2.438,1.467a4.713,4.713,0,0,1,.2,1.49q.019,8.09-.008,16.179c0,.57.162.844.7.946,1.71.321,3.42.641,5.126.983,1.757.353,3.519.687,5.278,1.021,1.886.358,3.786.642,5.652,1.111.421.106.448-.225.447-.545,0-1.768-.006-3.536,0-5.3a2.312,2.312,0,0,1,2.318-2.315c1.9-.025,3.8-.03,5.706,0,.483.008.583-.133.576-.592q-.043-2.685,0-5.37c.007-.428-.121-.51-.522-.5-1.831.022-3.663,0-5.495.017-.348,0-.455-.087-.448-.443.023-1.1.034-2.194,0-3.289-.017-.473.113-.586.584-.584,4.61.019,9.219,0,13.829.024.526,0,.657-.131.65-.653q-.044-3.692,0-7.385c0-.47-.114-.584-.583-.581-3.218.023-6.438.012-9.657.011-.261,0-.369.016-.428-.394-.17-1.18,0-2.353-.092-3.523-.036-.445.234-.38.5-.38,2.506,0,5.012-.012,7.518.012.461,0,.6-.1.591-.577-.027-2.506-.023-5.013,0-7.519,0-.406-.086-.521-.51-.519q-11.311.022-22.622,0c-.5,0-.517.2-.515.581.013,2.506.022,5.013,0,7.519a2.693,2.693,0,0,1-.51,1.805,2.639,2.639,0,0,1-2.07.851,9.205,9.205,0,0,0-2.511.139,2.179,2.179,0,0,0-1.332,2.425,2.06,2.06,0,0,0,1.977,1.73c.828.012,1.66.052,2.482-.013.641-.052,1.176.354,1.807.3.247-.023.162.221.163.354.008,1.007,0,2.014.009,3.021,0,.338-.141.63-.452.624-1.82-.038-3.667.26-5.455-.189a6.5,6.5,0,0,1-2.723-11.085,6.8,6.8,0,0,1,3.9-1.576c.34-.043.44-.12.436-.464-.017-1.857-.011-3.715,0-5.572,0-.266-.026-.365-.36-.463A2.262,2.262,0,0,1,75.2,19.157c0-2.73-.01-5.46,0-8.19a2.164,2.164,0,0,1,2.163-2.342c.244-.024.492-.016.738-.016q13.191,0,26.382.015c.615,0,.831-.094.809-.773-.058-1.788-.006-3.58-.024-5.37a2.286,2.286,0,0,1,2.41-2.466c2.708,0,5.416-.044,8.122.017,1.594.036,2.3.869,2.35,2.545.051,1.812.036,3.626,0,5.437-.011.527.154.613.633.606,1.789-.029,3.58-.016,5.37-.01a2.29,2.29,0,0,1,2.6,2.585c.039,2.573-.025,5.147.023,7.72a2.376,2.376,0,0,1-2.589,2.581c-1.835.011-3.67.015-5.5-.007-.4,0-.527.079-.523.508.023,2.528.027,5.057,0,7.586-.006.494.192.519.58.517,2.439-.013,4.878,0,7.317-.011a4.277,4.277,0,0,1,1.359.217,2.371,2.371,0,0,1,1.5,2.266,3.586,3.586,0,0,1,0,.469q0,31.452,0,62.9a2.634,2.634,0,0,1-1.224,2.591,3.066,3.066,0,0,1-1.576.308q-15.407,0-30.813-.013c-.573,0-.789.09-.774.736.048,2.125.026,4.251.01,6.377A1.351,1.351,0,0,0,94.958,107a12.087,12.087,0,0,1,3.7,7.2,12.465,12.465,0,0,1-2.88,10.079,13.924,13.924,0,0,1-5.86,4.05,9.387,9.387,0,0,1-3.212.581c-3.8.03-7.607,0-11.411,0a2.43,2.43,0,0,1-2.251-2.245c.017-7.071-.022-14.142.032-21.213.012-1.551.67-2.191,2.28-2.278,1.919-.1,3.848-.041,5.772-.023.4,0,.54-.072.525-.506q-.053-1.609,0-3.222c.016-.462-.1-.595-.577-.591-3.266.024-6.534.012-9.8.012q-11.681,0-23.361-.012c-.509,0-.685.1-.66.644.048,1.05.034,2.1,0,3.154-.012.407.085.528.51.521,1.767-.027,3.535-.01,5.3-.012a3.9,3.9,0,0,1,1.419.252,2.309,2.309,0,0,1,1.356,2.435c.032,4.833.015,9.667.015,14.5q0,2.92,0,5.84a3.612,3.612,0,0,1-.255,1.415,2.214,2.214,0,0,1-2.2,1.327c-3.759.028-7.532.214-11.274-.037-5.2-.349-8.888-3.11-11.034-7.882a12.63,12.63,0,0,1-.989-6.3,9.973,9.973,0,0,1,.688-3.173,11.272,11.272,0,0,1,2.673-4.012,2.749,2.749,0,0,0,.892-2.691,7.67,7.67,0,0,1,0-1.48c.059-1.385.013-2.774.027-4.161,0-.273-.088-.365-.344-.329a23.261,23.261,0,0,1-3.219-.012q-14,.031-27.993.011C1.3,98.841.5,98.314.093,97.132A3.265,3.265,0,0,1,.011,96.02Q0,79.639.005,63.259Zm51.5-18.151c.008-.555,0-1.111.029-1.665.022-.366-.13-.447-.464-.442q-1.666.024-3.333,0c-.331,0-.488.072-.466.44.032.554.022,1.11.03,1.665q-.019,4.057-.042,8.113a.432.432,0,0,0,.408.5c1.14.21,2.275.441,3.412.664.289.056.471,0,.469-.357q-.029-4.459-.043-8.918m12.981,0a2.033,2.033,0,0,0-.036.265c0,3.688.007,7.376-.017,11.065,0,.481.262.554.6.621,1.027.2,2.064.362,3.079.609.51.124.627,0,.623-.49-.016-2.056,0-4.113-.008-6.17-.006-1.966-.024-3.932-.037-5.9.008-.555,0-1.111.029-1.665.022-.365-.13-.447-.464-.442q-1.666.024-3.333,0c-.331,0-.488.072-.466.44.032.554.022,1.11.03,1.665m21.451,70.868c-.031.6-.09,1.2-.087,1.8.008,2.088.059,4.177.044,6.265,0,.528.163.654.644.6a8.862,8.862,0,0,0,4.5-1.662,8.36,8.36,0,0,0,3.26-5.179,8.642,8.642,0,0,0-4.346-9.351,12.624,12.624,0,0,0-3.675-.994c-.335-.072-.343.144-.342.393q.007,4.063,0,8.126m-42.994,0q0-3.646,0-7.292c0-1.262,0-1.283-1.288-1.1a8.159,8.159,0,0,0-6.5,4.911.689.689,0,0,0-.124.151A8.611,8.611,0,0,0,42.5,124.637c.308.023.493-.016.489-.412-.024-2.75-.026-5.5-.036-8.25M12.91,91.85c-.154,1.912.572,2.714,2.46,2.714H33.614c.178,0,.357,0,.536-.005.157,0,.255-.082.247-.246a9.859,9.859,0,0,0,.113-1.919,26.716,26.716,0,0,1,1-4.651,22.414,22.414,0,0,1,2.518-5.366c.118-.18.329-.364.214-.6-.125-.254-.4-.12-.6-.12q-6.5-.011-13.006,0a8.894,8.894,0,0,0-1.775.185,7.211,7.211,0,0,0-4.572,3.087,10.563,10.563,0,0,1-3.807,3.6,2.56,2.56,0,0,0-1.588,2.91,3.828,3.828,0,0,1,.017.4m67.413.549A14.221,14.221,0,0,0,72.8,85.009a15.729,15.729,0,0,0-3.436-.986c-.771-.145-.615.2-.614.6,0,1.007-.012,2.014.008,3.021.006.336-.066.469-.437.461-1.14-.024-2.282-.021-3.423,0-.346.006-.459-.089-.452-.446.022-1.118,0-2.237.015-3.355.005-.343-.031-.525-.454-.513q-1.676.046-3.355,0c-.447-.012-.509.176-.5.555.02,1.051-.027,2.1.022,3.154.024.53-.157.625-.636.608-1.05-.036-2.1-.028-3.154,0-.393.01-.56-.065-.531-.5.041-.646-.009-1.3.018-1.946.02-.492-.1-.578-.55-.337a15.121,15.121,0,0,0-5.743,5.215,4.4,4.4,0,0,0-.862,1.712A3.972,3.972,0,0,0,48,93.731c-.357.79-.3.833.574.833h30.6c.526,0,1.052-.009,1.578,0,.367.008.443-.2.316-.468a9.2,9.2,0,0,0-.747-1.7m13.946-.006a3.394,3.394,0,0,1,.112,1.251c-.016.884.018.92.877.92h28.615c.112,0,.224-.01.335,0,.323.033.426-.115.421-.428-.014-.826-.018-1.653,0-2.479.006-.262-.157-.4-.274-.584a1.11,1.11,0,0,0,.249-.921c0-2.594-.019-5.188.013-7.781.007-.569-.106-.736-.714-.735q-16.367.034-32.733.02a.968.968,0,0,0-.7.116,22.051,22.051,0,0,1,2.324,4.4,20.213,20.213,0,0,1,1.472,6.223M23.631,55.859a10.707,10.707,0,0,0,1.34.013c.63-.068.824.116.821.788-.028,6.668-.01,13.337-.029,20.006,0,.545.122.723.7.715,2.371-.033,4.744-.046,7.115.005.707.015.83-.2.829-.858q-.027-25.813.026-51.627c.006-1.534-.25-2.569-1.82-2.992a3.723,3.723,0,0,1-.66-.324q-5.658-2.84-11.316-5.681c-1.13-.568-2.254-1.148-3.392-1.728a.943.943,0,0,0-.053.187c0,4.363,0,8.727-.015,13.091,0,.445.183.507.559.5q2.82-.02,5.639,0a2.226,2.226,0,0,1,2.336,1.957,6.538,6.538,0,0,1,.065,1.136q.006,7.015,0,14.031c0,1.925-.03,3.85.017,5.773.015.621-.184.773-.754.721a12.915,12.915,0,0,0-1.407.018,12.926,12.926,0,0,0-1.408-.008c-.577.056-.753-.112-.751-.725.026-5.974.009-11.949.029-17.924,0-.549-.126-.712-.7-.71-5.214.023-10.427.011-15.64.016-.974,0-.862-.13-.862.849q0,30.31,0,60.619c0,.157.008.314,0,.47-.013.248.084.366.347.365q1.913-.009,3.826,0c.329,0,.46-.15.366-.461a10.457,10.457,0,0,1-.231-3.464,5.94,5.94,0,0,1,2.861-5.165,10.455,10.455,0,0,0,3.67-3.365A5.949,5.949,0,0,1,16.2,80.861a11.66,11.66,0,0,1,4.531-2.788c.662-.2.773-.536.771-1.145-.022-4.766-.012-9.532-.012-14.3,0-2.036.021-4.073-.013-6.109-.01-.549.168-.7.681-.656.489.038.983,0,1.475-.005m100.975,6.472c0-4.809-.008-9.618.011-14.427,0-.5-.135-.639-.636-.636-3.467.022-6.934.014-10.4.008a3.786,3.786,0,0,1-.991-.08c-.576-.152-.873.142-.873.758,0,2.55.007,5.1,0,7.65a2.174,2.174,0,0,1-2.07,2.371,35.161,35.161,0,0,1-5.617-.046c-.637-.07-.9.111-.9.74,0,1.767,0,3.534,0,5.3a2.353,2.353,0,0,1-2.648,2.646c-1.745,0-3.489.021-5.233-.011-.532-.01-.732.1-.726.685.031,3.131.024,6.263,0,9.394,0,.5.092.69.651.689q14.392-.027,28.784,0c.545,0,.662-.168.661-.68-.018-4.787-.011-9.573-.011-14.36M42.982,100.066a21.779,21.779,0,0,1,1.491-9.023,10.809,10.809,0,0,1,.774-1.935c.469-.7.964-1.4,1.507-2.067a19.441,19.441,0,0,1,10.343-6.9,25.864,25.864,0,0,1,6.369-.637,34.962,34.962,0,0,1,7.442.453A18.784,18.784,0,0,1,83.192,88.67a19.217,19.217,0,0,1,2.738,9.966c.04,1.237.023,2.477,0,3.715a.732.732,0,0,0,.71.853,16.209,16.209,0,0,1,3.2.592c.22.086.381.036.391-.264.056-1.713.086-3.437.062-5.14-.02-1.448-.075-2.925-.15-4.383a21.46,21.46,0,0,0-2.226-8.177,14.091,14.091,0,0,0-1.073-1.766,19.4,19.4,0,0,0-10.133-7.828A21.35,21.35,0,0,0,69.983,75.2c-4-.034-8.009-.006-12.014-.011a15.346,15.346,0,0,0-2.4.22,19.638,19.638,0,0,0-12.995,7.76A18.8,18.8,0,0,0,38.718,93.51c-.21,3.251-.036,6.527-.052,9.791,0,.521.16.632.627.446a15.318,15.318,0,0,1,2.808-.6c.314-.061,1.233.372.695-.65.407-.82.033-1.694.186-2.43M64.554,68.743q11.912,0,23.822-.005c.6,0,1.411.265,1.727-.115.3-.361.05-1.152.122-1.745.066-.553-.23-.69-.663-.766-1.046-.182-2.092-.372-3.138-.557-2.211-.389-4.4-.873-6.617-1.248-2.522-.427-4.995-1.1-7.533-1.476-1.7-.251-3.4-.588-5.088-.954-1.986-.431-3.984-.8-5.981-1.15-1.755-.311-3.507-.655-5.254-.992-1.911-.369-3.819-.78-5.733-1.137-1.864-.348-3.738-.67-5.606-1-1.764-.314-3.53-.659-5.273-1.074-.721-.171-.643.126-.643.556v10.6c0,1.061,0,1.061,1.029,1.061H64.554m12.79,47.278h.006c0,2.662.009,5.325-.009,7.987,0,.448.093.637.584.621,1.073-.034,2.148-.025,3.221,0,.383.007.5-.123.5-.5q-.012-8.088.008-16.176c0-.426-.15-.515-.543-.524a23.31,23.31,0,0,1-2.8-.073c-.823-.118-.96.086-.96.95v7.719m-30.076.009h.006c0,2.66.009,5.319-.009,7.979,0,.448.093.637.584.621,1.049-.034,2.1-.031,3.15,0,.438.012.569-.122.568-.564q-.018-8.013.006-16.025c0-.454-.1-.63-.589-.613-1.027.036-2.057.036-3.084,0-.491-.017-.65.111-.646.627.026,2.659.012,5.319.012,7.978m73.042-77.343c0,1.252.012,2.5-.007,3.755-.005.386.078.562.513.551q1.642-.041,3.285,0c.436.011.514-.168.512-.552-.013-2.5-.017-5.007,0-7.51,0-.461-.165-.559-.584-.55-1.05.025-2.1.034-3.15,0-.5-.017-.591.177-.581.621.025,1.229.009,2.458.009,3.688m-8.612,0c0,1.275.012,2.551-.007,3.826-.006.38.116.5.5.5q1.677-.031,3.356,0c.38.007.5-.116.5-.5q-.021-3.827,0-7.653c0-.379-.115-.5-.5-.5q-1.678.031-3.356,0c-.38-.007-.5.117-.5.5.019,1.275.007,2.551.007,3.826M113.864,25.8c0-1.275-.014-2.55.009-3.825.007-.376-.093-.491-.477-.483q-1.676.039-3.355,0c-.377-.009-.484.1-.482.478q.025,3.825,0,7.651c0,.375.093.491.477.483q1.677-.039,3.355,0c.377.008.489-.1.482-.478-.024-1.275-.009-2.55-.009-3.826m-6.426,24.738c0-.94-.012-1.88.006-2.819.007-.352-.114-.467-.463-.461q-1.711.025-3.423,0c-.352-.005-.463.114-.46.463q.02,2.786,0,5.572c0,.352.114.466.463.461q1.711-.025,3.423,0c.352.005.468-.113.461-.463-.019-.917-.006-1.835-.006-2.752M43.4,73.085v0c-1.386,0-2.773.01-4.159-.006-.376,0-.571.058-.559.5.029,1.095.025,2.191,0,3.286-.009.4.159.487.517.477.738-.02,1.477-.03,2.213,0a1.789,1.789,0,0,0,1.336-.48,21.287,21.287,0,0,1,4.863-3.292c.172-.081.47-.1.41-.348s-.344-.137-.531-.138c-1.364-.008-2.728,0-4.091,0m37.15,0a3.412,3.412,0,0,0,.4.274,20.143,20.143,0,0,1,5.243,3.417,1.689,1.689,0,0,0,1.17.571c.78-.026,1.563-.03,2.343,0,.437.018.518-.167.511-.551-.02-1.026-.032-2.055,0-3.08.018-.492-.112-.657-.627-.645-1.495.035-2.991.012-4.486.012H80.554m31.161-64.5c.7-.048,1.65.348,2.049-.108.346-.4.112-1.32.094-2.009-.017-.706.308-1.652-.134-2.049-.387-.348-1.318-.112-2.007-.095-.706.018-1.652-.307-2.049.134-.348.387-.112,1.318-.095,2.007.017.706-.307,1.655.135,2.048.385.343,1.317.072,2.007.072M96.5,62.337c.716,0,1.321-.012,1.924.005.323.009.426-.116.423-.431q-.019-1.745,0-3.49c0-.322-.116-.426-.431-.423q-1.745.019-3.49,0c-.322,0-.431.117-.422.431.016.6-.008,1.209.008,1.812.017.667-.28,1.539.107,1.947.424.448,1.312.082,1.882.149m12.038-45.16a.884.884,0,0,0-.384-.61c-.846-.817-1.72-1.607-2.532-2.457-.3-.316-.452-.307-.731-.017-.66.685-1.347,1.343-2.021,2.014a4.132,4.132,0,0,0-.993,1.07Zm1.836-4.263c1.04,1.2,2.218,2.116,3.247,3.182.219.226.364.154.549-.027.889-.872,1.785-1.736,2.676-2.606.152-.148.323-.293.271-.55ZM91.473,17.177l.1-.157c-1.009-.979-2.027-1.948-3.02-2.943-.3-.3-.49-.247-.764.033-.826.847-1.679,1.668-2.521,2.5-.16.158-.4.26-.443.565Zm1.893-4.25c1.063,1.079,2.107,2.106,3.106,3.175.273.291.385.08.525-.053.884-.845,1.758-1.7,2.635-2.555a.783.783,0,0,0,.323-.567ZM118.946,17.2c1.206,0,2.225,0,3.244,0,.2,0,.27-.076.269-.274-.005-1.037,0-2.074,0-3.252L118.946,17.2M82.84,12.907H79.7a.176.176,0,0,0-.2.2c0,1.053,0,2.107,0,3.281l3.346-3.48" transform="translate(0 0)"/>
        <path id="Trazado_821726" data-name="Trazado 821726" d="M191.366,206.942a14.172,14.172,0,0,1,3.488-9.379c.684-.78.668-.8,1.407-.057.676.676,1.337,1.368,2.029,2.027.265.252.157.4-.036.6a9.071,9.071,0,0,0-2.351,4.412,9.814,9.814,0,0,0,1.951,8.606c.664.82.7.81-.036,1.531a26.24,26.24,0,0,1-1.954,1.932c-.258.2-.42.21-.649-.048a14.941,14.941,0,0,1-3.582-7.135,10,10,0,0,1-.267-2.489" transform="translate(-88.25 -90.836)"/>
        <path id="Trazado_821727" data-name="Trazado 821727" d="M37.517,206.776A10.348,10.348,0,0,0,35,200.129c-.256-.292-.294-.45.006-.735.82-.775,1.611-1.581,2.4-2.386.207-.212.349-.127.5.042a15.086,15.086,0,0,1,3.256,5.718,18.566,18.566,0,0,1,.631,3.673,11.983,11.983,0,0,1-.4,3.6,14.573,14.573,0,0,1-3.222,6.319c-.371.432-.622.535-1.053.056-.685-.764-1.429-1.477-2.173-2.189-.251-.24-.249-.389-.017-.638a9.207,9.207,0,0,0,2.369-4.846,10.13,10.13,0,0,0,.227-1.961" transform="translate(-16.025 -90.797)"/>
        <path id="Trazado_821728" data-name="Trazado 821728" d="M205.792,210.717a8.9,8.9,0,0,1,2.051-5.675c.193-.245.44-.417.792-.027.725.8,1.522,1.545,2.311,2.289.272.255.211.464.036.712a3.863,3.863,0,0,0,.025,4.906.482.482,0,0,1-.045.749c-.828.779-1.585,1.63-2.451,2.374-.311.267-.468.148-.63-.087a11.215,11.215,0,0,1-1.6-2.485,6.532,6.532,0,0,1-.485-2.756" transform="translate(-94.895 -94.442)"/>
        <path id="Trazado_821729" data-name="Trazado 821729" d="M28.621,210.9a7.646,7.646,0,0,1-2.076,5.143c-.23.249-.348.353-.656.008-.759-.848-1.593-1.629-2.416-2.419-.2-.2-.3-.264-.054-.55a3.966,3.966,0,0,0,.016-5.053c-.236-.274-.168-.378.03-.575.757-.758,1.5-1.532,2.256-2.289.309-.308.53-.364.9.061a8.437,8.437,0,0,1,2,5.673" transform="translate(-10.731 -94.505)"/>
        <path id="Trazado_821730" data-name="Trazado 821730" d="M27.311,83.443c-.492,0-.987.043-1.475.005-.513-.04-.69.106-.681.656.034,2.036.014,4.072.014,6.109,0,4.766-.01,9.532.011,14.3,0,.609-.108.943-.771,1.145a11.668,11.668,0,0,0-4.531,2.788,5.965,5.965,0,0,0-1.058,1.231,10.458,10.458,0,0,1-3.67,3.365,5.938,5.938,0,0,0-2.861,5.165,10.444,10.444,0,0,0,.231,3.464c.094.31-.037.462-.366.461q-1.913-.006-3.826,0c-.263,0-.359-.116-.346-.364.008-.156,0-.314,0-.47q0-30.31,0-60.619c0-.979-.112-.849.862-.85,5.214,0,10.427.007,15.64-.016.57,0,.7.161.7.71-.02,5.974,0,11.949-.028,17.924,0,.612.173.781.75.725a12.79,12.79,0,0,1,1.408.008v4.265" transform="translate(-3.68 -27.583)" fill="#035f9c"/>
        <path id="Trazado_821731" data-name="Trazado 821731" d="M205.5,102.691c0,4.786-.008,9.573.011,14.36,0,.512-.115.681-.661.68q-14.392-.026-28.784,0c-.56,0-.655-.19-.651-.689.019-3.131.026-6.263,0-9.394-.005-.588.195-.694.726-.685,1.744.032,3.488.015,5.233.011a2.354,2.354,0,0,0,2.648-2.646c0-1.767,0-3.534,0-5.3,0-.629.266-.809.9-.74a35.162,35.162,0,0,0,5.617.047,2.175,2.175,0,0,0,2.07-2.372c.011-2.55,0-5.1,0-7.649,0-.616.3-.911.873-.759a3.81,3.81,0,0,0,.991.081c3.466.006,6.933.014,10.4-.008.5,0,.639.133.636.636-.019,4.808-.011,9.617-.011,14.426" transform="translate(-80.896 -40.36)" fill="#296277"/>
        <path id="Trazado_821732" data-name="Trazado 821732" d="M38.329,67.994V63.729a12.782,12.782,0,0,1,1.407-.018c.57.051.769-.1.754-.721-.046-1.924-.017-3.849-.017-5.773q0-7.015,0-14.031a6.485,6.485,0,0,0-.066-1.136,2.226,2.226,0,0,0-2.336-1.958q-2.819-.016-5.639,0c-.376,0-.56-.06-.559-.5.016-4.363.011-8.727.014-13.091a.972.972,0,0,1,.053-.186c1.137.58,2.262,1.16,3.392,1.728q5.657,2.844,11.316,5.681a3.742,3.742,0,0,0,.66.324c1.57.423,1.826,1.458,1.82,2.992q-.1,25.813-.026,51.627c0,.653-.122.873-.829.857-2.371-.051-4.744-.038-7.116,0-.573.008-.7-.17-.695-.716.018-6.668,0-13.337.029-20.006,0-.671-.191-.856-.821-.788a10.707,10.707,0,0,1-1.34-.013" transform="translate(-14.698 -12.135)" fill="#296277"/>
        <path id="Trazado_821733" data-name="Trazado 821733" d="M76.031,164.418c-.154.735.221,1.61-.186,2.43.539,1.022-.381.589-.695.65a15.279,15.279,0,0,0-2.809.6c-.466.185-.629.074-.626-.446.016-3.265-.159-6.54.052-9.791a18.8,18.8,0,0,1,3.856-10.337,19.643,19.643,0,0,1,13-7.76,15.475,15.475,0,0,1,2.4-.22c4,0,8.009-.023,12.014.011a21.348,21.348,0,0,1,6.732,1.034,19.4,19.4,0,0,1,10.133,7.828,14.032,14.032,0,0,1,1.074,1.766,21.457,21.457,0,0,1,2.226,8.177c.074,1.458.129,2.934.15,4.383.024,1.7-.006,3.427-.062,5.14-.01.3-.171.35-.391.264a16.217,16.217,0,0,0-3.2-.592.732.732,0,0,1-.71-.853c.024-1.238.041-2.478,0-3.715a19.217,19.217,0,0,0-2.738-9.966,18.784,18.784,0,0,0-12.284-8.718,35,35,0,0,0-7.443-.454,25.886,25.886,0,0,0-6.368.638,19.441,19.441,0,0,0-10.343,6.9c-.543.662-1.038,1.369-1.507,2.067a10.792,10.792,0,0,0-.774,1.935,21.777,21.777,0,0,0-1.491,9.023" transform="translate(-33.049 -64.353)" fill="#c08322"/>
        <path id="Trazado_821734" data-name="Trazado 821734" d="M97.671,117.079H72.842c-1.029,0-1.029,0-1.029-1.061q0-5.3,0-10.6c0-.431-.078-.727.643-.556,1.743.415,3.51.76,5.273,1.074,1.868.332,3.741.654,5.606,1,1.913.357,3.822.768,5.733,1.137,1.748.337,3.5.681,5.255.991,2,.354,4,.72,5.981,1.15,1.684.365,3.383.7,5.088.953,2.538.374,5.011,1.05,7.533,1.477,2.214.375,4.406.859,6.617,1.248,1.046.184,2.092.374,3.139.557.433.075.729.213.663.766-.071.592.18,1.384-.122,1.745-.317.38-1.132.115-1.727.115q-11.911.011-23.822.005" transform="translate(-33.117 -48.336)" fill="#95d5e3"/>
        <path id="Trazado_821735" data-name="Trazado 821735" d="M171.705,162.267a20.2,20.2,0,0,0-1.472-6.223,22.02,22.02,0,0,0-2.323-4.4.968.968,0,0,1,.7-.116q16.367-.006,32.733-.02c.609,0,.722.166.715.735-.032,2.593-.015,5.187-.013,7.781a1.108,1.108,0,0,1-.249.92,3.708,3.708,0,0,0-.684.236,9.243,9.243,0,0,1-4.741,1.113q-11.866.015-23.731,0c-.311,0-.622-.022-.933-.033m23.892-8.556c-.7.045-1.647-.351-2.045.107-.346.4-.115,1.318-.1,2.007.018.7-.309,1.648.137,2.045.391.347,1.316.115,2,.1.7-.018,1.648.309,2.045-.137.347-.391.115-1.316.1-2-.018-.705.309-1.651-.137-2.044-.389-.342-1.316-.071-2-.071m-6.479,2.114c-.027-.7.341-1.648-.109-2.045-.393-.346-1.317-.115-2-.1-.705.018-1.649-.31-2.045.137-.347.391-.115,1.316-.1,2,.018.705-.309,1.649.137,2.045.391.347,1.316.115,2,.1.7-.018,1.651.31,2.043-.137.342-.389.071-1.316.071-2m-10.68-2.148c-.58,0-1.161.011-1.741,0-.285-.008-.449.022-.442.384.022,1.183.017,2.367,0,3.55,0,.3.1.376.385.373q1.775-.02,3.55,0c.3,0,.376-.1.373-.385q-.02-1.775,0-3.55c0-.3-.1-.381-.385-.373-.58.018-1.161.005-1.741.005" transform="translate(-77.436 -69.874)" fill="#95d5e3"/>
        <path id="Trazado_821736" data-name="Trazado 821736" d="M90.409,163.966a4.4,4.4,0,0,1,.861-1.712,15.12,15.12,0,0,1,5.743-5.215c.453-.241.57-.155.55.337-.026.647.024,1.3-.018,1.945-.028.44.139.515.532.5,1.051-.025,2.1-.033,3.154,0,.48.017.661-.079.636-.608-.048-1.049,0-2.1-.021-3.154-.008-.379.054-.567.5-.555q1.676.045,3.355,0c.423-.012.459.17.454.513-.017,1.118.008,2.237-.015,3.356-.007.356.105.452.452.446,1.141-.02,2.282-.023,3.423,0,.371.008.443-.125.436-.461-.019-1.007-.006-2.014-.007-3.021,0-.407-.156-.748.614-.6a15.7,15.7,0,0,1,3.435.986,14.222,14.222,0,0,1,7.524,7.39c-.112.008-.223.024-.334.024-10.11,0-20.221.008-30.332-.041-.267,0-.7.3-.943-.135" transform="translate(-41.695 -71.718)" fill="#95d5e3"/>
        <path id="Trazado_821737" data-name="Trazado 821737" d="M23.912,161.712a3.985,3.985,0,0,0-.016-.4,2.559,2.559,0,0,1,1.588-2.909,10.561,10.561,0,0,0,3.807-3.6,7.21,7.21,0,0,1,4.573-3.087,8.886,8.886,0,0,1,1.775-.186q6.5-.023,13.006,0c.2,0,.477-.135.6.12.115.233-.1.417-.214.6a22.448,22.448,0,0,0-2.518,5.366,26.71,26.71,0,0,0-1,4.65.26.26,0,0,1-.065.017c-6.465.005-12.93.027-19.395-.01a2.88,2.88,0,0,1-2.14-.55M34.639,153.7c-.7.027-1.648-.341-2.045.109-.346.393-.115,1.317-.1,2,.018.705-.309,1.649.137,2.045.391.348,1.316.115,2,.1.705-.018,1.649.309,2.045-.137.347-.391.115-1.316.1-2-.018-.7.309-1.651-.137-2.044-.388-.342-1.315-.071-2-.071m6.445,2.1c0,.58.014,1.161-.006,1.741-.01.3.06.433.4.427,1.16-.02,2.321-.016,3.482,0,.306,0,.433-.066.427-.4-.019-1.161-.016-2.322,0-3.482,0-.307-.066-.43-.4-.424-1.16.019-2.321.024-3.481,0-.385-.008-.435.152-.424.471.02.558.005,1.116.005,1.674" transform="translate(-11.002 -69.862)" fill="#95d5e3"/>
        <path id="Trazado_821738" data-name="Trazado 821738" d="M143.54,207.877v-7.719c0-.865.137-1.068.96-.951a23.315,23.315,0,0,0,2.8.073c.393.009.544.1.543.524q-.023,8.087-.008,16.175c0,.377-.112.508-.5.5-1.073-.02-2.148-.029-3.221.005-.491.016-.587-.174-.584-.622.018-2.662.009-5.325.009-7.987Z" transform="translate(-66.196 -91.856)" fill="#296277"/>
        <path id="Trazado_821739" data-name="Trazado 821739" d="M87.713,207.973c0-2.66.014-5.319-.012-7.979,0-.515.155-.644.646-.627,1.027.036,2.057.036,3.084,0,.487-.017.591.159.589.613q-.024,8.013-.006,16.025c0,.442-.13.576-.568.565-1.05-.027-2.1-.031-3.15,0-.491.016-.587-.174-.584-.621.018-2.66.009-5.319.009-7.979Z" transform="translate(-40.446 -91.943)" fill="#296277"/>
        <path id="Trazado_821740" data-name="Trazado 821740" d="M89.624,171.2c.245.432.676.134.943.135,10.11.048,20.221.041,30.332.041.111,0,.223-.016.334-.024a9.229,9.229,0,0,1,.746,1.7c.127.271.051.476-.316.468-.525-.011-1.052,0-1.578,0h-30.6c-.877,0-.931-.043-.574-.832a3.968,3.968,0,0,1,.71-1.483" transform="translate(-40.91 -78.955)" fill="#296277"/>
        <path id="Trazado_821741" data-name="Trazado 821741" d="M72.322,212.26c.009,2.75.012,5.5.036,8.25,0,.4-.182.436-.49.412a8.611,8.611,0,0,1-7.459-11.989.7.7,0,0,1,.124-.15,3.454,3.454,0,0,0,1.385,1.306,10.83,10.83,0,0,0,6.4,2.172" transform="translate(-29.365 -96.286)" fill="#c08322"/>
        <path id="Trazado_821742" data-name="Trazado 821742" d="M167.212,208.756a8.521,8.521,0,0,1,.59,5.317,8.358,8.358,0,0,1-3.261,5.179,8.86,8.86,0,0,1-4.5,1.662c-.481.051-.648-.075-.644-.6.015-2.088-.036-4.177-.045-6.265,0-.6.057-1.2.088-1.8a10.736,10.736,0,0,0,5.05-1.306,7.82,7.82,0,0,0,2.721-2.185" transform="translate(-73.49 -96.274)" fill="#c08322"/>
        <path id="Trazado_821743" data-name="Trazado 821743" d="M174.954,170.344c.311.012.622.033.933.033q11.866,0,23.731,0a9.241,9.241,0,0,0,4.741-1.113,3.63,3.63,0,0,1,.684-.236c.117.182.281.322.274.584-.02.826-.017,1.653,0,2.479.005.313-.1.461-.421.428-.111-.011-.224,0-.335,0H175.943c-.859,0-.893-.036-.877-.92a3.4,3.4,0,0,0-.112-1.251" transform="translate(-80.685 -77.951)" fill="#296277"/>
        <path id="Trazado_821744" data-name="Trazado 821744" d="M123.866,83.713c.013,1.966.031,3.932.037,5.9.006,2.057-.008,4.113.008,6.17,0,.487-.113.614-.623.49-1.016-.248-2.052-.408-3.079-.61-.338-.066-.6-.139-.6-.62.024-3.688.015-7.376.017-11.065a1.936,1.936,0,0,1,.036-.265l4.2,0" transform="translate(-55.161 -38.606)" fill="#296277"/>
        <path id="Trazado_821745" data-name="Trazado 821745" d="M73.056,207.983a10.83,10.83,0,0,1-6.4-2.172,3.454,3.454,0,0,1-1.385-1.306,8.16,8.16,0,0,1,6.5-4.911c1.285-.186,1.288-.165,1.288,1.1q0,3.645,0,7.291" transform="translate(-30.1 -92.009)" fill="#f8f9fb"/>
        <path id="Trazado_821746" data-name="Trazado 821746" d="M167.285,204.441a7.821,7.821,0,0,1-2.721,2.185,10.736,10.736,0,0,1-5.05,1.306q0-4.063,0-8.126c0-.248.007-.466.342-.393a12.59,12.59,0,0,1,3.675.994,8.6,8.6,0,0,1,3.756,4.034" transform="translate(-73.563 -91.958)" fill="#f8f9fb"/>
        <path id="Trazado_821747" data-name="Trazado 821747" d="M23.943,170.464a2.883,2.883,0,0,0,2.14.55c6.465.037,12.93.015,19.394.01a.283.283,0,0,0,.065-.017,9.859,9.859,0,0,1-.113,1.919c.008.164-.089.242-.247.246-.179,0-.358.006-.536.006H26.4c-1.887,0-2.614-.8-2.46-2.714" transform="translate(-11.033 -78.614)" fill="#296277"/>
        <path id="Trazado_821748" data-name="Trazado 821748" d="M91.979,83.713q.019,4.459.043,8.918c0,.358-.181.413-.469.356-1.137-.223-2.272-.454-3.412-.664a.431.431,0,0,1-.408-.5q.027-4.057.042-8.113l4.2,0" transform="translate(-40.46 -38.606)" fill="#296277"/>
        <path id="Trazado_821749" data-name="Trazado 821749" d="M223.274,68.11c0-1.229.017-2.459-.009-3.688-.009-.444.085-.638.582-.621,1.049.037,2.1.027,3.15,0,.418-.01.587.088.583.55-.021,2.5-.016,5.006,0,7.51,0,.384-.076.563-.512.552q-1.642-.042-3.285,0c-.435.011-.519-.165-.513-.551.019-1.251.007-2.5.007-3.755" transform="translate(-102.964 -29.423)" fill="#296277"/>
        <path id="Trazado_821750" data-name="Trazado 821750" d="M207.292,68.1c0-1.275.012-2.551-.008-3.826-.005-.38.117-.5.5-.5q1.678.031,3.356,0c.381-.007.5.119.5.5q-.02,3.826,0,7.653c0,.38-.117.5-.5.5q-1.677-.031-3.356,0c-.38.007-.5-.117-.5-.5.019-1.275.008-2.551.008-3.826" transform="translate(-95.595 -29.411)" fill="#296277"/>
        <path id="Trazado_821751" data-name="Trazado 821751" d="M207.636,44.19c0,1.275-.015,2.551.009,3.825.007.383-.105.487-.482.478q-1.676-.037-3.355,0c-.384.009-.48-.108-.477-.483q.024-3.825,0-7.651c0-.381.1-.486.482-.478q1.676.037,3.355,0c.384-.009.484.107.477.483-.023,1.274-.009,2.55-.009,3.825" transform="translate(-93.772 -18.393)" fill="#f8f9fb"/>
        <path id="Trazado_821752" data-name="Trazado 821752" d="M195.68,90.98c0,.918-.012,1.836.006,2.752.007.35-.109.469-.461.463q-1.712-.026-3.424,0c-.349.005-.465-.109-.463-.461q.021-2.787,0-5.571c0-.35.107-.469.46-.463q1.711.026,3.423,0c.349-.005.47.109.463.461-.019.939-.006,1.879-.006,2.819" transform="translate(-88.241 -40.445)" fill="#296277"/>
        <path id="Trazado_821753" data-name="Trazado 821753" d="M76.515,135.622c1.364,0,2.728,0,4.091,0,.187,0,.473-.1.531.137s-.238.266-.41.348a21.321,21.321,0,0,0-4.863,3.292,1.789,1.789,0,0,1-1.336.48c-.737-.032-1.476-.022-2.213,0-.357.01-.525-.073-.517-.477.024-1.095.028-2.191,0-3.286-.012-.447.184-.508.559-.5,1.386.016,2.772.006,4.159.006Z" transform="translate(-33.111 -62.538)" fill="#296277"/>
        <path id="Trazado_821754" data-name="Trazado 821754" d="M149.5,135.622h4.555c1.5,0,2.992.023,4.486-.012.516-.012.644.153.627.644-.036,1.026-.024,2.054,0,3.08.008.384-.074.569-.511.551-.78-.032-1.563-.029-2.343,0a1.688,1.688,0,0,1-1.17-.571A20.142,20.142,0,0,0,149.9,135.9a3.32,3.32,0,0,1-.4-.274" transform="translate(-68.947 -62.54)" fill="#296277"/>
        <path id="Trazado_821755" data-name="Trazado 821755" d="M205.414,12.188c-.69,0-1.622.272-2.007-.072-.442-.393-.117-1.341-.135-2.046-.017-.69-.252-1.621.1-2.008.4-.441,1.342-.116,2.048-.135.69-.016,1.62-.252,2.007.1.442.4.117,1.342.135,2.049.017.69.252,1.614-.095,2.009-.4.456-1.344.06-2.049.108" transform="translate(-93.699 -3.611)" fill="#f8f9fb"/>
        <path id="Trazado_821756" data-name="Trazado 821756" d="M177.318,111.978c-.57-.067-1.459.3-1.882-.149-.387-.409-.091-1.28-.107-1.947-.015-.6.009-1.209-.007-1.813-.009-.314.1-.434.422-.431q1.745.019,3.49,0c.314,0,.434.1.431.423q-.019,1.745,0,3.49c0,.314-.1.44-.423.43-.6-.017-1.208,0-1.924,0" transform="translate(-80.815 -49.641)" fill="#296277"/>
        <path id="Trazado_821757" data-name="Trazado 821757" d="M195.742,29.051h-6.66a4.132,4.132,0,0,1,.992-1.07c.674-.671,1.361-1.329,2.02-2.014.28-.29.429-.3.732.017.812.85,1.685,1.641,2.532,2.457a.885.885,0,0,1,.384.61" transform="translate(-87.2 -11.874)" fill="#f8f9fb"/>
        <path id="Trazado_821758" data-name="Trazado 821758" d="M204.85,23.967h6.743c.052.257-.119.4-.271.55-.892.869-1.788,1.734-2.677,2.606-.184.181-.329.253-.549.026-1.029-1.066-2.206-1.981-3.246-3.182" transform="translate(-94.472 -11.053)" fill="#f8f9fb"/>
        <path id="Trazado_821759" data-name="Trazado 821759" d="M164.077,29.051h-6.644c.044-.306.283-.407.444-.565.841-.832,1.694-1.654,2.521-2.5.273-.28.46-.338.763-.033.993.994,2.011,1.963,3.02,2.943l-.1.157" transform="translate(-72.605 -11.874)" fill="#f8f9fb"/>
        <path id="Trazado_821760" data-name="Trazado 821760" d="M173.277,23.99h6.59a.783.783,0,0,1-.323.567c-.877.852-1.751,1.709-2.635,2.555-.14.133-.252.344-.525.053-1-1.068-2.043-2.1-3.106-3.175" transform="translate(-79.911 -11.064)" fill="#f8f9fb"/>
        <path id="Trazado_821761" data-name="Trazado 821761" d="M123.883,81.911l-4.2,0c-.008-.555,0-1.111-.03-1.665-.022-.368.135-.445.467-.44q1.666.024,3.333,0c.334,0,.486.077.464.442-.032.554-.021,1.11-.029,1.665" transform="translate(-55.178 -36.804)" fill="#c08322"/>
        <path id="Trazado_821762" data-name="Trazado 821762" d="M91.987,81.911l-4.2,0c-.008-.555,0-1.111-.03-1.665-.022-.368.135-.445.467-.44q1.666.024,3.333,0c.334,0,.486.077.464.442-.032.554-.021,1.11-.029,1.665" transform="translate(-40.469 -36.804)" fill="#c08322"/>
        <path id="Trazado_821763" data-name="Trazado 821763" d="M220.752,28.909l3.511-3.523c0,1.178,0,2.215,0,3.252,0,.2-.068.274-.27.273-1.019-.006-2.038,0-3.244,0" transform="translate(-101.806 -11.707)" fill="#f8f9fb"/>
        <path id="Trazado_821764" data-name="Trazado 821764" d="M150.879,23.955l-3.346,3.48c0-1.175,0-2.228,0-3.281a.176.176,0,0,1,.2-.2h3.145" transform="translate(-68.039 -11.048)" fill="#f8f9fb"/>
        <path id="Trazado_821765" data-name="Trazado 821765" d="M217.378,155.493c.689,0,1.616-.27,2,.072.446.392.119,1.339.137,2.044.018.688.249,1.614-.1,2-.4.446-1.34.119-2.044.137-.689.017-1.614.249-2-.1-.446-.4-.119-1.34-.137-2.045-.017-.688-.248-1.608.1-2.006.4-.459,1.342-.062,2.045-.108" transform="translate(-99.216 -71.657)"/>
        <path id="Trazado_821766" data-name="Trazado 821766" d="M203.543,157.6c0,.689.27,1.616-.071,2-.392.447-1.339.12-2.044.137-.688.018-1.614.249-2-.1-.446-.4-.119-1.34-.137-2.045-.018-.688-.249-1.614.1-2,.4-.446,1.34-.119,2.044-.137.689-.017,1.613-.249,2.005.1.449.4.081,1.341.109,2.045" transform="translate(-91.861 -71.647)"/>
        <path id="Trazado_821767" data-name="Trazado 821767" d="M185.581,155.525c.58,0,1.161.012,1.741-.005.285-.009.389.071.385.372q-.023,1.775,0,3.55c0,.284-.072.39-.373.385q-1.775-.023-3.55,0c-.284,0-.389-.072-.385-.373.016-1.183.02-2.367,0-3.55-.007-.362.157-.391.442-.384.58.015,1.161,0,1.741,0" transform="translate(-84.579 -71.722)"/>
        <path id="Trazado_821768" data-name="Trazado 821768" d="M41.95,155.494c.689,0,1.616-.27,2,.071.446.393.119,1.339.137,2.044.018.688.249,1.614-.1,2-.4.446-1.34.119-2.045.137-.688.017-1.614.249-2-.1-.446-.4-.119-1.34-.137-2.045-.017-.688-.249-1.612.1-2,.4-.449,1.341-.082,2.045-.109" transform="translate(-18.313 -71.657)"/>
        <path id="Trazado_821769" data-name="Trazado 821769" d="M55.823,157.657c0-.558.015-1.116-.005-1.674-.012-.32.039-.48.424-.471,1.16.026,2.321.022,3.481,0,.337-.006.406.117.4.424-.015,1.161-.018,2.322,0,3.482.005.337-.122.407-.427.4-1.161-.015-2.322-.018-3.482,0-.339.006-.41-.122-.4-.427.02-.58.006-1.161.006-1.741" transform="translate(-25.741 -71.718)"/>
      </g>
    </g>
  </g>
</svg>
