<svg xmlns="http://www.w3.org/2000/svg" xmlns:xlink="http://www.w3.org/1999/xlink" width="135" height="135" viewBox="0 0 135 135">
  <defs>
    <clipPath id="clip-path">
      <rect id="Rect치ngulo_377705" data-name="Rect치ngulo 377705" width="135" height="135" transform="translate(-0.036)" fill="#fff" stroke="#707070" stroke-width="1"/>
    </clipPath>
    <clipPath id="clip-path-2">
      <rect id="Rect치ngulo_377706" data-name="Rect치ngulo 377706" width="129.667" height="109" fill="none"/>
    </clipPath>
  </defs>
  <g id="Enmascarar_grupo_371" data-name="Enmascarar grupo 371" transform="translate(0.036)" clip-path="url(#clip-path)">
    <g id="Grupo_1073462" data-name="Grupo 1073462" transform="translate(2.027 17)">
      <g id="Grupo_1073461" data-name="Grupo 1073461" clip-path="url(#clip-path-2)">
        <path id="Trazado_821805" data-name="Trazado 821805" d="M52.959,50.168Q52.951,36,52.933,21.837a6.254,6.254,0,0,1,1.287-3.857,5.85,5.85,0,0,1,2.509-1.744c1.21-.576,2.449-.214,3.669-.331.4-.039.647-.1.789-.595.351-1.235.782-2.449,1.244-3.646a5.352,5.352,0,0,1,4.49-3.477,31.843,31.843,0,0,1,3.405-.081c6.433-.009,12.866,0,19.3-.01a8.2,8.2,0,0,1,3.986.774,6.613,6.613,0,0,1,1.84,1.792,5.821,5.821,0,0,1,.872,2.019,17.02,17.02,0,0,1,.8,2.576.733.733,0,0,0,.818.679,18.41,18.41,0,0,1,3.569.189,4.172,4.172,0,0,1,1.679.906,5.375,5.375,0,0,1,2.252,3.934c.007.07-.065.149-.1.223-.033.165,0,.286.194.3q.008.5.016.995c-.293.142-.294.285,0,.427q0,26.605,0,53.211c0,1.256.039,2.512.013,3.768-.009.436.144.485.506.483q3-.015,6.01.016a6.268,6.268,0,0,1,3.96,1.253,5.907,5.907,0,0,1,2.164,4.874c.024,3.7.008,7.407.008,11.11a2.161,2.161,0,0,0,.556,1.745,1.865,1.865,0,0,0,2.143.314,1.991,1.991,0,0,0,1.123-1.838,3.43,3.43,0,0,0,0-.389q0-27.905.012-55.809a.876.876,0,0,0-.527-.924,5.935,5.935,0,0,1-3.261-4.568,12.965,12.965,0,0,1,.006-2.069c.245-.1.25-.194,0-.292q-.014-1.162-.029-2.324c.16-.1.12-.245.075-.378-.008-.022-.138,0-.212,0-.181-.208-.422-.147-.647-.146-.8,0-1.6-.022-2.4.013-2.339.1-4.4-2.548-4.426-4.652a4.87,4.87,0,0,1,2.031-4.1c.941-.756,1.8-1.621,2.705-2.424.195-.172.052-.24-.041-.347-1.079-1.235-2.283-2.347-3.391-3.546a3.153,3.153,0,0,1-.108-4.641c.365-.421.37-.662.009-1.043-1.6-1.686-3.179-3.388-4.763-5.087A14.527,14.527,0,0,1,105.2,3.134a1.846,1.846,0,0,1,.059-2.581,1.858,1.858,0,0,1,2.528-.118,13.073,13.073,0,0,1,1.43,1.544c1.269,1.3,2.592,2.543,3.8,3.9.562.631,1.138,1.254,1.689,1.9.27.315.438.31.75.023a3.158,3.158,0,0,1,4.557-.131c.583.53,1.06,1.181,1.623,1.736a60.327,60.327,0,0,1,4.747,5.012,10.9,10.9,0,0,1,1.8,2.753,15.862,15.862,0,0,1,1.207,4.006c.486,4.56.192,9.139.233,13.709a6.652,6.652,0,0,1-1.428,4.5,4.951,4.951,0,0,1-1.8,1.332.884.884,0,0,0-.594.952q.025,26.843-.013,53.685a12.635,12.635,0,0,1-.333,4.576,5.5,5.5,0,0,1-4.308,3.7,5.689,5.689,0,0,1-6.681-5.432c-.03-3.9-.021-7.8-.017-11.7,0-1.556-.731-2.264-2.212-2.253-2.025.015-4.05.006-6.076.017-.2,0-.424-.1-.589.11-.092.034-.128.081-.03.155q.007,3.574.014,7.148c0,1.776.016,3.553-.018,5.329a.535.535,0,0,0,.455.587c2.627.794,3.774,2.734,4.032,5.4.079.818.293,1.623.364,2.442a3.08,3.08,0,0,1-3.039,3.509c-3.965.051-7.932,0-11.9,0q-21.866.007-43.733.019a3.322,3.322,0,0,1-2.034-.4.9.9,0,0,0-.817-.025,8.606,8.606,0,0,1-5.942-.117A9.619,9.619,0,0,1,37,101.553c-.084-.329-.182-.424-.483-.419-1.2.024-2.4.034-3.6.05-.073-.034-.12-.007-.148.066a20.527,20.527,0,0,0-.7,1.945,9.476,9.476,0,0,1-4.459,4.756,8.315,8.315,0,0,1-5.286.928,7.007,7.007,0,0,1-2.337-.539,11.067,11.067,0,0,1-2.2-1.275,9.916,9.916,0,0,1-2.248-2.392,11.354,11.354,0,0,1-1.326-3.142c-.053-.244-.146-.257-.327-.259a7.566,7.566,0,0,1-3.187-.654A5.411,5.411,0,0,1,7.62,96.539c-.34-1.692-.616-3.4-.924-5.1-.232-1.283-.537-2.557-.685-3.85-.129-1.132-.53-2.2-.616-3.332a33.889,33.889,0,0,1-.532-3.825,3.018,3.018,0,0,0-.287-1.3,4.8,4.8,0,0,1-.325-1.808,8.452,8.452,0,0,0-.295-1.052c-.154-.831-.308-1.666-.394-2.507-.079-.778-.707-.792-1.185-.938a3.512,3.512,0,0,1-2.361-3.04C0,68.17-.018,66.545.032,64.922a3.514,3.514,0,0,1,2.359-3.338,5.772,5.772,0,0,1,1.541-.194q1.961-.04,3.923,0a.819.819,0,0,0,.832-.525c.8-1.505,1.616-3,2.44-4.487a4.052,4.052,0,0,1,2.026-1.792c1.387-.6,2.736-1.292,4.122-1.892,2.287-.989,4.505-2.145,6.875-2.933a3.576,3.576,0,0,1,2.439.376c2.177.78,4.4,1.465,6.5,2.427,1.413.647,2.363-.157,3.483-.6,1.782-.7,3.464-1.638,5.3-2.21a3.6,3.6,0,0,1,2.387.347c2.056.735,4.093,1.528,6.141,2.289.832.309,1.672.594,2.508.89l.111-.022-.053-.1,0-1.526c.1-.018.2-.055.17-.177-.013-.052-.11-.082-.169-.122q0-.37,0-.741.443-.215,0-.43M117.6,27.061c.045.055.089.055.134,0,.2-.041.5.129.5-.285-.005-1.016.043-2.036-.04-3.045-.024-.294.084-.8-.258-.928-.387-.144-.585.337-.848.557-.793.662-1.563,1.355-2.337,2.04a.945.945,0,0,0-.24,1.118.8.8,0,0,0,.879.556c.736-.026,1.473-.011,2.21-.013M64.93,69.206c.056.077.111.076.166,0l.467.011c.109.077.208.116.252-.066.008-1.122.015-2.243.027-3.365,0-.229,0-.369-.311-.41a39.476,39.476,0,0,0-5.265-.065c-.3-.008-.59-.024-.884-.024q-16.923,0-33.845,0-10.5,0-21-.027c-.6,0-.761.186-.733.778.043.885-.005,1.775,0,2.663,0,.2-.121.436.123.584a.093.093,0,0,0,.151-.025c2.421-.134,4.844-.067,7.265-.043a2.028,2.028,0,0,1,2.015.886,6.81,6.81,0,0,1,.359,1.008,1.91,1.91,0,0,1-2.068,1.956c-1.033.016-2.067.006-3.1.01-1.257.005-1.255.006-1.079,1.295.026.192,0,.39.039.579.452,2.5.916,5,1.365,7.495.352,1.959.64,3.932,1.044,5.879.462,2.221.848,4.457,1.22,6.692.3,1.812,1.25,2.378,2.359,2.348.317-.008.646-.011.74-.546a6.456,6.456,0,0,1,.673-1.8c1.789-3.457,4.5-5.4,8.413-5.454a9.02,9.02,0,0,1,5.218,1.482A9.421,9.421,0,0,1,32.56,96.7a.669.669,0,0,0,.806.577c.948-.034,1.9-.041,2.847,0,.517.023.753-.1.9-.664A9.378,9.378,0,0,1,54.04,93.763a9.672,9.672,0,0,1,1.3,2.891c.082.283.085.652.493.717a2.481,2.481,0,0,0,2.509-1.648,13.2,13.2,0,0,0,.17-1.345c.3-1.824.68-3.635.988-5.458.131-.778.267-1.562.417-2.331.339-1.736.662-3.476.988-5.214.466-2.488.9-4.983,1.359-7.474.122-.663.026-.816-.641-.818q-3.069-.01-6.138-.008-17.242,0-34.484,0a2.077,2.077,0,0,1-2.273-1.96,2.275,2.275,0,0,1,1.256-1.729,4.22,4.22,0,0,1,1.6-.2q17.7.006,35.408.008c1.1,0,2.19-.019,3.286-.029l3.133.037c.054.069.109.07.164,0l1.354.006M21.4,104.676a4.52,4.52,0,0,0,3.186.305,5.646,5.646,0,0,0,4.445-4.737,5.936,5.936,0,0,0-3.117-6.266,5.712,5.712,0,0,0-4.13-.348,5.308,5.308,0,0,0-1.518.709,5.851,5.851,0,0,0-1.776,7.79,5.044,5.044,0,0,0,2.909,2.546m22.785,0a4.41,4.41,0,0,0,3.244.283,5.5,5.5,0,0,0,4.378-4.73A5.818,5.818,0,0,0,48.757,94a5.544,5.544,0,0,0-4.185-.366,5.308,5.308,0,0,0-1.518.709,5.851,5.851,0,0,0-1.776,7.79,5.044,5.044,0,0,0,2.909,2.546M82.951,17.842a2.028,2.028,0,0,1-1.475,1.874,4.339,4.339,0,0,1-1.132.072q-10.63,0-21.261-.009c-1.743,0-2.381.958-2.376,2.439.03,9.184.015,18.368.015,27.552,0,1.43.005,2.859,0,4.288,0,.318.01.625.308.794a5.617,5.617,0,0,1,2.088,2.6c.424.837.429.832,1.194.317q6-4.034,11.99-8.072c.156-.105.392-.17.41-.519h-.686c-2.847-.008-5.694-.005-8.541-.028a3.238,3.238,0,0,1-2.942-3.076c-.013-3.791.008-7.581-.025-11.372-.02-2.265.072-4.53-.048-6.8a4.224,4.224,0,0,1,.126-1.763,3.243,3.243,0,0,1,3.467-2.46q15-.016,29.992,0a6.052,6.052,0,0,1,1.726.218,3.162,3.162,0,0,1,2.21,3.134c.02,1.71,0,3.421,0,5.153a2.171,2.171,0,0,0,.968-.448c.791-.537,1.572-1.091,2.386-1.588a.768.768,0,0,0,.442-.754c-.014-2.513,0-5.025-.011-7.538a1.9,1.9,0,0,0-1.9-2.054c-3.11-.1-6.221.06-9.334-.1-1.7-.087-2.237-.343-2.57-1.981.372-1.543,1.462-1.911,2.834-1.848.716.032,1.434,0,2.15.033.38.016.508-.087.363-.478-.195-.523-.36-1.058-.544-1.585-.515-1.476-1.049-1.86-2.572-1.86H70.538c-.865,0-1.729-.011-2.593,0a2.021,2.021,0,0,0-2.134,1.562c-.142.407-.288.813-.429,1.219-.355,1.02-.286,1.126.741,1.133.147,0,.3,0,.442,0q6.989,0,13.977,0a2.128,2.128,0,0,1,2.407,1.956M78.119,97.255q1.445-.975,2.891-1.95Q84.7,92.832,88.4,90.363c2.65-1.765,5.341-3.467,7.947-5.3,1.622-1.139,3.315-2.158,4.946-3.278a.966.966,0,0,0,.5-.918q-.017-22.513-.012-45.025c0-.229-.073-.47-.087-.681-.05-.745-.384-.432-.676-.237-.861.573-1.7,1.179-2.572,1.735a.9.9,0,0,0-.465.882c.021,2.686.011,5.371.015,8.057a4.024,4.024,0,0,1-.4,1.782,3,3,0,0,1-2.883,1.767q-7.117.009-14.234,0a1.562,1.562,0,0,0-.932.263q-4.957,3.353-9.928,6.684-3.806,2.56-7.609,5.125c-.1.01-.237.021-.176.158.068.156.214.15.347.053a37.636,37.636,0,0,1,4.6.065,3.4,3.4,0,0,1,2.76,2.932c.141,1.574.057,3.144.076,4.715a5.137,5.137,0,0,1-.2,1.511A3.359,3.359,0,0,1,66.6,73.062c-.179.034-.337-.016-.389.28-.272,1.54-.6,3.069-.873,4.608-.5,2.809-.976,5.623-1.476,8.433-.251,1.415-.538,2.822-.8,4.235-.33,1.784-.613,3.578-.989,5.351-.283,1.334-.334,1.323.981,1.3h.126l14.8-.007c.052.063.1.049.14-.011m1.222-69.724v-.01c-4.809,0-9.617.011-14.425-.015-.529,0-.611.168-.609.65.015,5.285.006,10.57.014,15.856,0,.446-.194,1.007.1,1.31.25.255.756-.006,1.15-.041.062-.006.126,0,.189,0q13.826,0,27.652.006c.606,0,.795-.153.792-.8-.025-5.285-.014-10.57-.013-15.856a1.439,1.439,0,0,1,.025-.576c.238-.491.028-.533-.389-.533q-7.244.016-14.488.007M53.81,105.054h.7q25.208,0,50.416-.015c.521,0,1.225.238,1.514-.114s-.035-1.02-.1-1.55a2.2,2.2,0,0,0-2.4-2.2q-2.182-.014-4.365-.014-21.317,0-42.635-.006c-1.31,0-1.3,0-1.753,1.264a12.916,12.916,0,0,1-1.369,2.633M43.7,61.384V61.37q6.012,0,12.024,0c1.2,0,1.2,0,.65-1.062-.059-.114-.1-.236-.157-.352-.431-.9-.853-1.78-1.933-2.089a54.874,54.874,0,0,1-5.3-1.954c-.728-.292-1.47-.563-2.2-.841-.878-.334-1.761-.658-2.64-.992-.559-.213-1.189-.616-1.8-.388a21.957,21.957,0,0,0-3.831,1.561c-1.6.968-3.423,1.443-5.074,2.307-.514.269-1.2.348-1.475.9-.388.764-.821,1.5-1.2,2.271-.31.633-.3.652.4.652H43.7m82.15-32.006h-.006c0-1.906.018-3.812,0-5.717a11.2,11.2,0,0,0-2.7-7.232c-1.562-1.867-3.357-3.507-5.009-5.287-.26-.28-.439-.225-.679.012-.694.687-1.388,1.375-2.112,2.026-.328.294-.311.5-.014.781.649.618,1.295,1.241,1.921,1.884a44.466,44.466,0,0,1,3.115,3.318c1.441,1.817,1.617,4,1.657,6.187.06,3.334.019,6.67.013,10.005a2.084,2.084,0,0,0,.874,1.839,1.944,1.944,0,0,0,2.952-1.579c-.047-2.077-.012-4.157-.012-6.236M85.293,97.268h3.824c4.028,0,8.055-.008,12.083.029.5,0,.594-.1.592-.578-.018-3.248-.008-6.5-.014-9.745,0-.272.129-.672-.082-.789-.292-.162-.478.258-.725.4-.11.063-.209.145-.314.217q-7.109,4.78-14.217,9.563a3.746,3.746,0,0,0-1.146.9M19.529,61.373v0c1.981,0,3.963-.024,5.944.016a.971.971,0,0,0,1.055-.681,26.817,26.817,0,0,1,2.721-4.962c.275-.381.25-.506-.191-.654-1.211-.4-2.409-.848-3.61-1.284a1.9,1.9,0,0,0-.8-.123,4.968,4.968,0,0,0-2.176.873c-.71.43-1.513.569-2.246.922a10.572,10.572,0,0,0-1.55.683,28.436,28.436,0,0,1-3.106,1.464c-.449.258-1.089.2-1.324.809a21.394,21.394,0,0,1-1.213,2.335c-.274.514-.145.611.367.606,2.045-.017,4.089-.007,6.134-.007" transform="translate(0 0)"/>
        <path id="Trazado_821806" data-name="Trazado 821806" d="M56.3,32.815a18.925,18.925,0,0,1-4.552,11.592A16.858,16.858,0,0,1,43.1,49.7a17.675,17.675,0,0,1-5.741.6A17.734,17.734,0,0,1,23.28,40.936a20.25,20.25,0,0,1-1.637-4.357,17.587,17.587,0,0,1-.463-4.688,10.159,10.159,0,0,0-.091-1.335,4.652,4.652,0,0,1,.208-1.265,23.784,23.784,0,0,1,1.508-5.577,38.867,38.867,0,0,1,1.615-3.643,2.87,2.87,0,0,1,3.248-1.689c1.587.2,2.331,1.32,2.739,2.824a40.21,40.21,0,0,0,1.326,4.447c.06.151.07.387.3.345.2-.036.1-.249.128-.382.412-1.778.934-3.524,1.414-5.282.452-1.657.914-3.316,1.412-4.955.388-1.277.544-2.691,1.489-3.758a2.71,2.71,0,0,1,1.83-.957,3.174,3.174,0,0,1,3.176,1.541,2.016,2.016,0,0,1,.228.732c.4,1.266.722,2.557,1.083,3.836q1.2,4.243,2.405,8.482a2.914,2.914,0,0,0,.169.473c.043.089.113.194.244.162.11-.027.074-.128.093-.206.421-1.648.9-3.278,1.4-4.9a3.231,3.231,0,0,1,1.25-1.9,3.149,3.149,0,0,1,4.652,1.284,34.429,34.429,0,0,1,2.914,8.1,22.389,22.389,0,0,1,.376,4.546m-3.811-.4L52.481,32c.011-.014.033-.03.03-.04a.543.543,0,0,0-.042-.087q-.02-.264-.04-.527c.01-.01.03-.023.028-.029a.528.528,0,0,0-.034-.074,19.161,19.161,0,0,0-.878-4.844,20.4,20.4,0,0,0-1.015-2.439c-.054-.117-.094-.253-.25-.25-.107,0-.105.1-.129.186-.34,1.151-.724,2.29-1.018,3.454a3.61,3.61,0,0,1-7.084.344c-.569-1.786-1.044-3.6-1.539-5.4s-1-3.6-1.538-5.395c-.045-.152.029-.469-.206-.471-.263,0-.211.332-.26.5-.359,1.215-.66,2.447-1.009,3.665-.672,2.345-1.4,4.674-2.034,7.028a3.723,3.723,0,0,1-3.13,2.833,3.574,3.574,0,0,1-3.775-2.419,33.5,33.5,0,0,1-.97-3.276,2.8,2.8,0,0,0-.515-1.138,18.051,18.051,0,0,0-2.054,9.554c-.012.014-.038.033-.035.042a.657.657,0,0,0,.049.1,12.528,12.528,0,0,0,2.88,7.753c3.669,4.493,8.35,6.264,14.01,4.994a13.913,13.913,0,0,0,10.513-12.63,1.776,1.776,0,0,0,.051-1.009" transform="translate(-10.371 -5.085)"/>
        <path id="Trazado_821807" data-name="Trazado 821807" d="M232.489,59.556c.074,0,.2-.023.212,0,.045.133.084.282-.075.378-.224-.057-.1-.248-.137-.377" transform="translate(-114.386 -28.464)" fill="#6e6470"/>
        <path id="Trazado_821808" data-name="Trazado 821808" d="M104.21,96.114c.3.143.3.286,0,.43a.553.553,0,0,1,0-.43" transform="translate(-51.251 -45.946)" fill="#6e6470"/>
        <path id="Trazado_821809" data-name="Trazado 821809" d="M207.568,43.5c-.294-.143-.293-.286,0-.427a.557.557,0,0,1,0,.427" transform="translate(-102.018 -20.588)" fill="#6e6470"/>
        <path id="Trazado_821810" data-name="Trazado 821810" d="M232.817,64.74c.249.1.245.2,0,.293,0-.1,0-.2,0-.293" transform="translate(-114.548 -30.948)" fill="#6e6470"/>
        <path id="Trazado_821811" data-name="Trazado 821811" d="M104.252,98.355c.058.04.157.07.17.123.03.122-.072.159-.171.176,0-.1,0-.2,0-.3" transform="translate(-51.293 -47.017)" fill="#6e6470"/>
        <path id="Trazado_821812" data-name="Trazado 821812" d="M207.552,40.89c-.192-.011-.226-.132-.194-.3.168.028.29.087.194.3" transform="translate(-102.017 -19.405)" fill="#6e6470"/>
        <path id="Trazado_821813" data-name="Trazado 821813" d="M207.7,161.791c-.1-.074-.062-.121.03-.156l-.03.156" transform="translate(-102.163 -77.267)" fill="#6e6470"/>
        <path id="Trazado_821814" data-name="Trazado 821814" d="M104.2,101.851l.053.1-.111.022.058-.12" transform="translate(-51.238 -48.688)" fill="#6e6470"/>
        <path id="Trazado_821815" data-name="Trazado 821815" d="M64.5,193.9c.028-.073.075-.1.148-.066l-.148.066" transform="translate(-31.736 -92.654)" fill="#ffd3d8"/>
        <path id="Trazado_821816" data-name="Trazado 821816" d="M121.971,92.987q3.8-2.563,7.608-5.125,4.965-3.34,9.928-6.684a1.563,1.563,0,0,1,.933-.263q7.117.009,14.234,0a3,3,0,0,0,2.883-1.766,4.019,4.019,0,0,0,.4-1.783c0-2.686.007-5.371-.015-8.057a.9.9,0,0,1,.465-.881c.871-.557,1.711-1.163,2.572-1.736.293-.195.626-.508.676.237.014.211.088.452.088.68q0,22.513.012,45.026a.967.967,0,0,1-.5.918c-1.631,1.121-3.324,2.139-4.945,3.278-2.606,1.831-5.3,3.533-7.948,5.3q-3.7,2.463-7.388,4.944c-.966.647-1.928,1.3-2.891,1.949l-.14.011-14.8.007h-.126c-1.314.018-1.263.029-.98-1.3.376-1.773.659-3.567.989-5.351.262-1.412.548-2.821.8-4.235.5-2.81.973-5.624,1.475-8.433.275-1.539.6-3.069.873-4.608.052-.3.209-.245.389-.28a3.356,3.356,0,0,0,2.824-2.413,5.117,5.117,0,0,0,.2-1.511c-.018-1.571.066-3.142-.076-4.715a3.4,3.4,0,0,0-2.76-2.932,37.634,37.634,0,0,0-4.6-.064l-.171-.211m27.938,3.531v0q1.138,0,2.277,0,1.17,0,2.341.007a3.1,3.1,0,0,0,3.382-3.15,31.694,31.694,0,0,0-.081-5.946,3.166,3.166,0,0,0-1.951-2.349,8.535,8.535,0,0,0-2.109-.239c-2.509.013-5.019.005-7.529,0a10.059,10.059,0,0,0-1.637.1,3.164,3.164,0,0,0-2.6,3.081q0,2.6,0,5.2a3.206,3.206,0,0,0,3.223,3.312c1.557-.07,3.121-.015,4.681-.015" transform="translate(-59.959 -31.772)" fill="#ffd3d8"/>
        <path id="Trazado_821817" data-name="Trazado 821817" d="M25.879,136.229a2.077,2.077,0,0,0,2.273,1.96q17.243-.006,34.485,0,3.069,0,6.138.008c.667,0,.763.156.641.818-.459,2.49-.892,4.985-1.359,7.474-.326,1.739-.649,3.478-.988,5.214-.15.769-.285,1.553-.417,2.331-.308,1.823-.685,3.634-.988,5.458a13.2,13.2,0,0,1-.169,1.345,2.481,2.481,0,0,1-2.509,1.648c-.408-.064-.411-.434-.493-.717a9.673,9.673,0,0,0-1.3-2.891,9.378,9.378,0,0,0-16.924,2.854c-.149.567-.387.688-.9.664-.947-.044-1.9-.038-2.847,0a.67.67,0,0,1-.806-.577,9.421,9.421,0,0,0-4.02-5.658,9.02,9.02,0,0,0-5.218-1.482c-3.91.055-6.624,2-8.413,5.454a6.472,6.472,0,0,0-.673,1.8c-.094.536-.423.538-.74.547-1.109.029-2.058-.537-2.359-2.348-.372-2.236-.758-4.471-1.219-6.692-.405-1.947-.693-3.92-1.045-5.879-.45-2.5-.912-5-1.365-7.495-.034-.189-.012-.388-.038-.579-.176-1.289-.178-1.29,1.078-1.295,1.034,0,2.068.006,3.1-.01a1.911,1.911,0,0,0,2.069-1.956,2.56,2.56,0,0,0,.739.1,37.49,37.49,0,0,1,4.27-.1" transform="translate(-7.154 -65.114)" fill="#c3aef0"/>
        <path id="Trazado_821818" data-name="Trazado 821818" d="M141.579,52.722q7.244,0,14.488-.006c.417,0,.626.042.389.532a1.441,1.441,0,0,0-.026.577c0,5.285-.011,10.57.013,15.855,0,.644-.185.8-.792.8q-13.825-.025-27.651-.006c-.063,0-.127,0-.19,0-.393.035-.9.3-1.149.041-.3-.3-.1-.863-.1-1.31-.008-5.285,0-10.57-.015-15.855,0-.483.08-.654.609-.65,4.809.026,9.617.015,14.425.015Z" transform="translate(-62.238 -25.191)" fill="#f8f9fb"/>
        <path id="Trazado_821819" data-name="Trazado 821819" d="M142.9,33.947c.333,1.637.87,1.894,2.57,1.981,3.113.159,6.224,0,9.334.1a1.9,1.9,0,0,1,1.9,2.054c.011,2.513,0,5.025.011,7.538a.768.768,0,0,1-.442.755c-.814.5-1.6,1.051-2.386,1.588a2.168,2.168,0,0,1-.968.448c0-1.732.015-3.442-.005-5.153a3.161,3.161,0,0,0-2.209-3.134,6.056,6.056,0,0,0-1.727-.219q-15-.016-29.992,0a3.243,3.243,0,0,0-3.467,2.46,4.214,4.214,0,0,0-.127,1.763c.12,2.268.028,4.534.048,6.8.033,3.79.011,7.581.024,11.372a3.239,3.239,0,0,0,2.942,3.076c2.847.022,5.694.02,8.541.027h.686c-.018.35-.254.414-.41.519q-5.989,4.045-11.989,8.073c-.766.515-.771.52-1.194-.317a5.618,5.618,0,0,0-2.088-2.595c-.3-.169-.311-.476-.309-.794.01-1.43,0-2.859,0-4.289,0-9.184.015-18.368-.015-27.552,0-1.48.633-2.442,2.376-2.438q10.63.027,21.261.009a4.339,4.339,0,0,0,1.132-.072,2.029,2.029,0,0,0,1.475-1.874,41.953,41.953,0,0,0,5.026-.124" transform="translate(-54.923 -16.228)" fill="#fb8c93"/>
        <path id="Trazado_821820" data-name="Trazado 821820" d="M22.381,130.879a37.493,37.493,0,0,0-4.27.1,2.559,2.559,0,0,1-.739-.1,6.81,6.81,0,0,0-.359-1.008A2.029,2.029,0,0,0,15,128.978c-2.421-.025-4.844-.091-7.264.043-.063-.07-.108-.029-.151.025-.244-.148-.12-.388-.122-.584-.009-.888.039-1.778,0-2.663-.029-.591.129-.78.733-.778q10.5.04,21,.027,16.922,0,33.844,0c.295,0,.59.016.884.024a12.9,12.9,0,0,0,.013,3.853c-1.1.01-2.19.029-3.286.029q-17.7,0-35.408-.008a4.22,4.22,0,0,0-1.6.2,2.276,2.276,0,0,0-1.256,1.729" transform="translate(-3.656 -59.765)" fill="#f8f9fb"/>
        <path id="Trazado_821821" data-name="Trazado 821821" d="M105.927,197.7a12.933,12.933,0,0,0,1.369-2.633c.452-1.268.443-1.264,1.753-1.264q21.317,0,42.635.005,2.182,0,4.365.014a2.2,2.2,0,0,1,2.4,2.2c.069.53.382,1.211.1,1.55s-.993.114-1.514.114q-25.207.015-50.415.016h-.7" transform="translate(-52.117 -92.643)" fill="#6e6470"/>
        <path id="Trazado_821822" data-name="Trazado 821822" d="M73.308,110.495H60.778c-.706,0-.714-.02-.4-.652.377-.769.81-1.507,1.2-2.271.28-.552.961-.631,1.475-.9,1.651-.864,3.474-1.34,5.074-2.307a21.957,21.957,0,0,1,3.831-1.561c.61-.228,1.24.175,1.8.388.879.335,1.762.659,2.64.992.73.278,1.472.549,2.2.84a54.741,54.741,0,0,0,5.3,1.954c1.08.309,1.5,1.186,1.933,2.089.055.116.1.238.157.352.549,1.066.55,1.063-.65,1.062q-6.012,0-12.024,0Z" transform="translate(-29.609 -49.111)" fill="#6e6470"/>
        <path id="Trazado_821823" data-name="Trazado 821823" d="M151.114,28.686a41.954,41.954,0,0,1-5.026.124,2.129,2.129,0,0,0-2.407-1.956q-6.989-.006-13.977,0c-.147,0-.3,0-.442,0-1.027-.007-1.1-.113-.741-1.133.142-.407.288-.813.429-1.22a2.021,2.021,0,0,1,2.134-1.561c.864-.009,1.729,0,2.593,0h19.669c1.523,0,2.057.385,2.572,1.861.184.527.35,1.061.544,1.585.146.391.017.493-.362.478-.716-.029-1.434,0-2.15-.033-1.373-.062-2.462.306-2.834,1.849" transform="translate(-63.138 -10.967)" fill="#6e6470"/>
        <path id="Trazado_821824" data-name="Trazado 821824" d="M237.333,39.407c0,2.079-.035,4.159.012,6.236a1.944,1.944,0,0,1-2.952,1.578,2.086,2.086,0,0,1-.874-1.839c.006-3.335.047-6.671-.013-10-.039-2.188-.215-4.37-1.657-6.187a44.559,44.559,0,0,0-3.114-3.318c-.626-.643-1.272-1.266-1.921-1.884-.3-.283-.313-.486.014-.78.725-.651,1.418-1.34,2.112-2.027.24-.237.419-.292.679-.012,1.651,1.78,3.447,3.42,5.009,5.287a11.2,11.2,0,0,1,2.7,7.232c.022,1.906,0,3.811,0,5.717Z" transform="translate(-111.483 -10.03)" fill="#6e6470"/>
        <path id="Trazado_821825" data-name="Trazado 821825" d="M167.9,176.164a3.738,3.738,0,0,1,1.146-.9q7.105-4.786,14.217-9.563c.106-.071.2-.154.314-.217.247-.14.433-.561.725-.4.211.117.082.517.082.789.006,3.248,0,6.5.014,9.745,0,.478-.1.583-.592.578-4.027-.037-8.055-.026-12.083-.029H167.9" transform="translate(-82.61 -78.897)" fill="#fb8c93"/>
        <path id="Trazado_821826" data-name="Trazado 821826" d="M32.011,110.539c-2.045,0-4.089-.01-6.134.007-.512,0-.641-.092-.367-.606a21.394,21.394,0,0,0,1.213-2.335c.236-.613.876-.551,1.324-.809a28.436,28.436,0,0,0,3.106-1.464,10.573,10.573,0,0,1,1.55-.683c.734-.353,1.536-.492,2.246-.922a4.968,4.968,0,0,1,2.176-.873,1.9,1.9,0,0,1,.8.123c1.2.436,2.4.88,3.61,1.284.441.147.466.272.191.653a26.817,26.817,0,0,0-2.721,4.962.971.971,0,0,1-1.055.681c-1.981-.04-3.963-.016-5.944-.016v0" transform="translate(-12.482 -49.165)" fill="#6e6470"/>
        <path id="Trazado_821827" data-name="Trazado 821827" d="M87.369,179.158a5.546,5.546,0,0,1,4.186.365,5.819,5.819,0,0,1,3.051,6.233,5.505,5.505,0,0,1-4.378,4.73,4.413,4.413,0,0,1-3.244-.283c.091-.518.591-.705.839-1.1a8.122,8.122,0,0,0-.072-8.643,1.762,1.762,0,0,1-.382-1.305" transform="translate(-42.797 -85.527)" fill="#ffd3d8"/>
        <path id="Trazado_821828" data-name="Trazado 821828" d="M42.516,179.171a5.709,5.709,0,0,1,4.13.348,5.935,5.935,0,0,1,3.117,6.266,5.646,5.646,0,0,1-4.445,4.737,4.522,4.522,0,0,1-3.186-.305,1.044,1.044,0,0,1,.145-.346,6.513,6.513,0,0,0,1.8-4.011,7.428,7.428,0,0,0-1.147-5.331,1.78,1.78,0,0,1-.418-1.358" transform="translate(-20.729 -85.54)" fill="#ffd3d8"/>
        <path id="Trazado_821829" data-name="Trazado 821829" d="M83.769,179.381a1.762,1.762,0,0,0,.382,1.305,8.122,8.122,0,0,1,.072,8.643c-.247.392-.748.579-.839,1.1a5.047,5.047,0,0,1-2.909-2.546,5.851,5.851,0,0,1,1.776-7.79,5.3,5.3,0,0,1,1.518-.709" transform="translate(-39.197 -85.75)" fill="#f8f9fb"/>
        <path id="Trazado_821830" data-name="Trazado 821830" d="M38.916,179.381a1.78,1.78,0,0,0,.418,1.358,7.428,7.428,0,0,1,1.147,5.331,6.513,6.513,0,0,1-1.8,4.011,1.045,1.045,0,0,0-.145.346,5.048,5.048,0,0,1-2.909-2.546,5.851,5.851,0,0,1,1.776-7.79,5.3,5.3,0,0,1,1.518-.709" transform="translate(-17.129 -85.75)" fill="#f8f9fb"/>
        <path id="Trazado_821831" data-name="Trazado 821831" d="M118.515,128.922a12.908,12.908,0,0,1-.013-3.853,39.561,39.561,0,0,1,5.265.066c.316.041.313.181.311.41-.012,1.122-.018,2.243-.027,3.365l-.252.066-.466-.011h-.166l-1.354-.006h-.164l-3.133-.037" transform="translate(-58.235 -59.76)" fill="#c3aef0"/>
        <path id="Trazado_821832" data-name="Trazado 821832" d="M228.437,47.92c-.737,0-1.474-.013-2.21.013a.805.805,0,0,1-.879-.556.946.946,0,0,1,.24-1.118c.775-.685,1.544-1.377,2.337-2.04.263-.22.461-.7.849-.557.342.127.233.634.257.928.083,1.009.035,2.029.04,3.045,0,.413-.3.244-.5.284h-.134" transform="translate(-110.833 -20.86)" fill="#f8f9fb"/>
        <path id="Trazado_821833" data-name="Trazado 821833" d="M121.887,117.278l.171.211c-.134.1-.279.1-.347-.053-.06-.137.079-.148.176-.158" transform="translate(-59.876 -56.063)" fill="#6e6470"/>
        <path id="Trazado_821834" data-name="Trazado 821834" d="M129.063,132.547l.252-.066c-.045.182-.144.143-.252.066" transform="translate(-63.5 -63.33)" fill="#6e6470"/>
        <path id="Trazado_821835" data-name="Trazado 821835" d="M124.831,132.575h.164c-.054.069-.109.069-.164,0" transform="translate(-61.418 -63.375)" fill="#6e6470"/>
        <path id="Trazado_821836" data-name="Trazado 821836" d="M127.818,132.586h.166c-.055.077-.11.077-.166,0" transform="translate(-62.888 -63.38)" fill="#6e6470"/>
        <path id="Trazado_821837" data-name="Trazado 821837" d="M231.51,51.844h.134c-.045.055-.089.056-.134,0" transform="translate(-113.906 -24.783)" fill="#6e6470"/>
        <path id="Trazado_821838" data-name="Trazado 821838" d="M153.505,186.336l.14-.011c-.042.06-.088.074-.14.011" transform="translate(-75.526 -89.07)" fill="#6e6470"/>
        <path id="Trazado_821839" data-name="Trazado 821839" d="M7.73,132.675c.043-.054.088-.1.151-.026a.092.092,0,0,1-.151.026" transform="translate(-3.803 -63.393)" fill="#6e6470"/>
        <path id="Trazado_821840" data-name="Trazado 821840" d="M56.257,37.292l.006.415a2.09,2.09,0,0,0-.051,1.009A13.912,13.912,0,0,1,45.7,51.347c-5.661,1.27-10.341-.5-14.01-4.994A12.526,12.526,0,0,1,28.81,38.6c-.005-.046-.01-.092-.015-.138a18.049,18.049,0,0,1,2.054-9.554,2.8,2.8,0,0,1,.515,1.138,33.64,33.64,0,0,0,.97,3.276,3.574,3.574,0,0,0,3.775,2.419,3.725,3.725,0,0,0,3.131-2.833c.639-2.354,1.362-4.684,2.034-7.028.349-1.218.651-2.45,1.009-3.665.049-.165,0-.5.26-.5.235,0,.161.319.206.471.535,1.791,1.043,3.591,1.538,5.394s.97,3.619,1.539,5.4a3.61,3.61,0,0,0,7.084-.344c.293-1.163.677-2.3,1.018-3.454.024-.081.022-.184.129-.186.156,0,.2.133.25.249a20.522,20.522,0,0,1,1.015,2.44,19.157,19.157,0,0,1,.878,4.844.075.075,0,0,0,.005.1q.021.264.04.527c-.011.014-.033.031-.03.04a.54.54,0,0,0,.042.087" transform="translate(-14.148 -10.382)" fill="#ffb53e"/>
        <path id="Trazado_821841" data-name="Trazado 821841" d="M82.772,53.362a2.093,2.093,0,0,1,.051-1.01,1.777,1.777,0,0,1-.051,1.01" transform="translate(-40.707 -25.026)" fill="#6e6470"/>
        <path id="Trazado_821842" data-name="Trazado 821842" d="M82.771,50.21a.076.076,0,0,1-.005-.1.509.509,0,0,1,.034.074c0,.006-.018.019-.028.029" transform="translate(-40.713 -23.953)" fill="#6e6470"/>
        <path id="Trazado_821843" data-name="Trazado 821843" d="M82.854,51.44a.54.54,0,0,1-.042-.087c0-.009.019-.027.03-.04a.527.527,0,0,1,.042.087c0,.009-.02.026-.03.04" transform="translate(-40.745 -24.529)" fill="#6e6470"/>
        <path id="Trazado_821844" data-name="Trazado 821844" d="M28.8,53.8c.005.046.01.092.015.138a.662.662,0,0,1-.049-.1c0-.009.022-.028.035-.042" transform="translate(-14.153 -25.717)" fill="#6e6470"/>
        <path id="Trazado_821845" data-name="Trazado 821845" d="M169.41,113.347c-1.561,0-3.123-.056-4.681.015a3.205,3.205,0,0,1-3.223-3.312q-.01-2.6,0-5.2a3.164,3.164,0,0,1,2.6-3.081,10.057,10.057,0,0,1,1.637-.1c2.509,0,5.019.01,7.529,0a8.528,8.528,0,0,1,2.109.239,3.167,3.167,0,0,1,1.952,2.349,31.658,31.658,0,0,1,.08,5.947,3.1,3.1,0,0,1-3.382,3.149q-1.17-.006-2.341-.007-1.139,0-2.278,0Zm3.72-3.848c.042.056.088.066.14.013l.243.008c.084.041.115,0,.117-.081.008-1,.019-1.992.024-2.988,0-.85,0-.884-.868-.891-2.341-.019-4.683,0-7.024-.015-.423,0-.486.183-.479.545.018.845.012,1.69.012,2.535,0,.866,0,.854.812.854,2.341,0,4.682.013,7.023.02" transform="translate(-79.46 -48.6)"/>
        <path id="Trazado_821846" data-name="Trazado 821846" d="M177.176,113.071l-.242-.008-.141-.014c-2.341-.007-4.682-.019-7.023-.02-.814,0-.812.011-.812-.854,0-.845.007-1.69-.011-2.534-.008-.362.055-.549.478-.545,2.341.019,4.683,0,7.024.016.869.007.872.041.868.89,0,1-.016,1.992-.024,2.988l-.117.081" transform="translate(-83.123 -52.151)" fill="#fb8c93"/>
        <path id="Trazado_821847" data-name="Trazado 821847" d="M185.147,116.637l.117-.081c0,.084-.033.123-.117.081" transform="translate(-91.094 -55.718)" fill="#6e6470"/>
        <path id="Trazado_821848" data-name="Trazado 821848" d="M184.393,116.671l.141.013c-.052.053-.1.043-.141-.013" transform="translate(-90.723 -55.773)" fill="#6e6470"/>
      </g>
    </g>
  </g>
</svg>
