<svg xmlns="http://www.w3.org/2000/svg" xmlns:xlink="http://www.w3.org/1999/xlink" width="135" height="135" viewBox="0 0 135 135">
  <defs>
    <clipPath id="clip-path">
      <rect id="Rect치ngulo_377708" data-name="Rect치ngulo 377708" width="135" height="135" transform="translate(1180 2584)" fill="#fff" stroke="#707070" stroke-width="1"/>
    </clipPath>
    <clipPath id="clip-path-2">
      <rect id="Rect치ngulo_377709" data-name="Rect치ngulo 377709" width="127.35" height="127.488" fill="none"/>
    </clipPath>
  </defs>
  <g id="Grupo_372" data-name="Grupo 372" transform="translate(-1180 -2584)" clip-path="url(#clip-path)">
    <g id="Grupo_1073464" data-name="Grupo 1073464" transform="translate(1183.65 2589)">
      <g id="Grupo_1073463" data-name="Grupo 1073463" clip-path="url(#clip-path-2)">
        <path id="Trazado_821849" data-name="Trazado 821849" d="M143.837,19.726a1.823,1.823,0,0,1,.775.2c.824.405,1.674.761,2.484,1.194,1.192.639,2.4,1.245,3.564,1.942a39.642,39.642,0,0,1,4.544,3.214,40.506,40.506,0,0,1,6.006,5.979,43.843,43.843,0,0,1,5.822,9.393,44.805,44.805,0,0,1,2.635,7.736,41.538,41.538,0,0,1,1.016,6.815,5.53,5.53,0,0,1-.01,1.4c-.635,0-.921.5-1.255.906a23.94,23.94,0,0,1-17.573,9.214,22.945,22.945,0,0,1-14.116-3.482,7.8,7.8,0,0,0-3.449-1.376,7.055,7.055,0,0,0-6.8,3.005,13.65,13.65,0,0,1-2.855,3.017,14.1,14.1,0,0,1-10.093,2.882A6.568,6.568,0,0,0,110.063,73a7.515,7.515,0,0,0-2.729,3.758,8.921,8.921,0,0,1-2.313,3.488.961.961,0,0,1-.708.3q-5.731-.014-11.462-.007a.689.689,0,0,1-.549-.189A9.429,9.429,0,0,1,89.87,69.9a8.879,8.879,0,0,1,6.76-5.688,8.842,8.842,0,0,0,3.429-1.2,5.437,5.437,0,0,0,2.452-4.5,15.076,15.076,0,0,1,1.05-5.483,13.514,13.514,0,0,1,5.884-6.7,10.545,10.545,0,0,1,1.67-.909,11.82,11.82,0,0,1,2.395-.571,4.043,4.043,0,0,1,2.168-.108c.185.024.391.148.519-.107a.982.982,0,0,1,.241-.046c.97.056,1.92.272,2.877.394a6.333,6.333,0,0,0,3.04-.2,5.646,5.646,0,0,0,3.826-4.222,37.874,37.874,0,0,1,1.424-5.558,24.493,24.493,0,0,1,10.735-12.592,22.485,22.485,0,0,1,3.935-1.781,2.784,2.784,0,0,0,1.564-.909M157.042,55l-.026.038.038.029a1.136,1.136,0,0,0,1.207.952q1.555.016,3.111-.021c.822-.019,1.316-.4,1.332-.994.027-.967-.316-1.379-1.271-1.451-.516-.039-1.037,0-1.555-.013-.149,0-.332.038-.417-.176a.741.741,0,0,1,.761-1.108h.374a2.119,2.119,0,0,0,2.109-1.773,10.164,10.164,0,0,0,.085-2.651c-.056-1.088-.492-1.452-1.469-1.48a24.789,24.789,0,0,0-3.048.027c-.784.074-1.217.514-1.2,1.206a1.2,1.2,0,0,0,1.248,1.195c.518.029,1.037.024,1.555.05.249.012.5.019.469.41-.026.335-.06.618-.467.646-.207.014-.415,0-.623,0a2.129,2.129,0,0,0-2.18,1.943,18.9,18.9,0,0,0-.037,3.17m-15.872-5.151.026.026.025-.029a3.488,3.488,0,0,0,3.354-2.731c.283-1.129-.07-2.034-1.208-1.962a1.2,1.2,0,0,0-1.1,1.071c-.2.985-.372,1.129-1.36,1.145-.394.007-.789,0-1.183,0-1.092-.013-1.4-.337-1.4-1.425.008-1.951.014-3.9,0-5.852-.01-2.014.073-2.1,2.076-2.126,1.712-.021,1.759.223,1.946,1.384a.544.544,0,0,0,.05.18,1.161,1.161,0,0,0,1.227.66,1.007,1.007,0,0,0,.98-.816,3.337,3.337,0,0,0-2.4-3.674,8.123,8.123,0,0,0-3.128-.17,3.478,3.478,0,0,0-3.184,3.435c-.026,2.553-.015,5.106.017,7.658a3.579,3.579,0,0,0,3.011,3.158c.747.068,1.492.063,2.239.069m14.19-6.946h.011c0-1.307.038-2.617-.01-3.923a3.418,3.418,0,0,0-2.663-3.3,7.74,7.74,0,0,0-3.444-.089,3.3,3.3,0,0,0-2.648,2.971c-.185,2.61-.1,5.228-.047,7.839a3.33,3.33,0,0,0,2.234,3.151,7.648,7.648,0,0,0,3.488.228,3.564,3.564,0,0,0,3.077-3.266c.007-1.2,0-2.408,0-3.611" transform="translate(-44.597 -9.863)" fill="#fce3bd"/>
        <path id="Trazado_821850" data-name="Trazado 821850" d="M110.441,17.986a2.791,2.791,0,0,1-1.564.909,22.467,22.467,0,0,0-3.935,1.781A24.493,24.493,0,0,0,94.206,33.267a37.953,37.953,0,0,0-1.424,5.558,5.646,5.646,0,0,1-3.826,4.222,6.333,6.333,0,0,1-3.04.2c-.958-.122-1.907-.339-2.877-.394a.981.981,0,0,0-.24.046c-.195-.07-.4-.2-.52.107a4.038,4.038,0,0,0-2.168.108,11.769,11.769,0,0,0-2.395.571,10.439,10.439,0,0,0-1.669.909,13.508,13.508,0,0,0-5.884,6.7,15.066,15.066,0,0,0-1.051,5.483,5.438,5.438,0,0,1-2.451,4.5,8.832,8.832,0,0,1-3.429,1.2,8.88,8.88,0,0,0-6.76,5.688,9.429,9.429,0,0,0,2.433,10.444.687.687,0,0,0,.549.189q5.731,0,11.462.007a.958.958,0,0,0,.708-.3,8.914,8.914,0,0,0,2.313-3.488,7.513,7.513,0,0,1,2.729-3.757,6.567,6.567,0,0,1,4.473-1.239,14.1,14.1,0,0,0,10.094-2.882,13.673,13.673,0,0,0,2.855-3.017,7.054,7.054,0,0,1,6.8-3.005,7.8,7.8,0,0,1,3.449,1.377,22.936,22.936,0,0,0,14.116,3.482,23.94,23.94,0,0,0,17.572-9.214c.335-.411.619-.905,1.255-.906a1.1,1.1,0,0,1,1.167.645,1.275,1.275,0,0,1-.192,1.336,21.592,21.592,0,0,1-4.4,4.554c-.661.472-1.257,1.032-1.97,1.451a41.677,41.677,0,0,1-3.754,2.243,28.823,28.823,0,0,1-6.951,2.09,23.808,23.808,0,0,1-5.233.31,26.455,26.455,0,0,1-7.9-1.532,28.043,28.043,0,0,1-5.326-2.589,5.153,5.153,0,0,0-5.823.228A19.079,19.079,0,0,0,95,66.871a15.832,15.832,0,0,1-3.791,3.316,14.042,14.042,0,0,1-2.384,1.222,20.217,20.217,0,0,1-3.456.924,54.548,54.548,0,0,1-5.483.252,3.816,3.816,0,0,0-3.081,2.088A33.013,33.013,0,0,1,75.186,77.9a5.443,5.443,0,0,1-.308.466,1.719,1.719,0,0,0-.562,1.657c.164.764-.335,1.189-1.276,1.252-.414.028-.467.169-.436.527.178,2,.378,3.994.486,6,.079,1.459.254,2.91.284,4.375.027,1.3.23,2.6.341,3.9.053.614.1,1.234.112,1.843.037,1.544.232,3.074.289,4.616.065,1.752.2,3.5.37,5.248.167,1.692.229,3.391.383,5.081.145,1.593.274,3.185.347,4.781.065,1.437.267,2.858.375,4.289.041.552.073,1.109.1,1.656.042.9.182,1.8.171,2.712a38.433,38.433,0,0,0,.358,4.15,2.54,2.54,0,0,1,.014.436,11.662,11.662,0,0,0,.23,2.911,1.6,1.6,0,0,1-.362,1.441,1.14,1.14,0,0,1-1.2.319,1.383,1.383,0,0,1-.9-1.016,2.414,2.414,0,0,1-.043-.432c-.215-1.007-.064-2.036-.193-3.055-.1-.807-.116-1.643-.186-2.457-.161-1.873-.212-3.754-.451-5.623-.138-1.079-.062-2.185-.166-3.271-.055-.575-.045-1.152-.116-1.722-.19-1.527-.266-3.061-.351-4.6-.043-.78-.068-1.57-.171-2.334-.239-1.787-.249-3.589-.434-5.379-.055-.543-.208-.624-.687-.621-3.134.021-6.268.013-9.4.014-1.287,0-2.574.006-3.861,0-.309,0-.474,0-.562.418a13.869,13.869,0,0,0-.181,2.012c-.118,1.821-.233,3.64-.4,5.458-.164,1.756-.2,3.52-.359,5.279-.153,1.671-.308,3.348-.373,5.024-.079,2.053-.335,4.091-.411,6.142a19.716,19.716,0,0,1-.133,1.968c-.139,1-.1,2-.18,2.994-.243.915-.657,1.216-1.543,1.123a1.3,1.3,0,0,1-.985-1.436c.1-1.508.156-3.02.348-4.524.1-.811.047-1.636.138-2.458.183-1.646.259-3.3.374-4.956.088-1.267.13-2.538.263-3.8.155-1.483.065-2.981.351-4.458.095-.493.071-1.018.117-1.529.1-1.064.037-2.144.161-3.2.153-1.312.134-2.639.414-3.942a13.477,13.477,0,0,0,.035-1.6c.064-.752.15-1.512.177-2.273.051-1.427.237-2.85.347-4.276.05-.654.066-1.311.113-1.965.118-1.655.276-3.307.371-4.962.046-.8.115-1.6.162-2.4.083-1.4.136-2.815.342-4.213.086-.586.088-1.184.143-1.775.03-.319-.075-.427-.409-.435a1.457,1.457,0,0,1-1.446-1.093,1.19,1.19,0,0,1,.707-1.238c.327-.205.193-.347.084-.49a11.363,11.363,0,0,1-2.177-5.689c-.024-.2-.065-.3-.3-.28a15.012,15.012,0,0,1-4.227-.312c-1.746-.365-2.362-.024-2.689,1.873a9.8,9.8,0,0,1-2.17,4.787.666.666,0,0,0-.163.724,1.269,1.269,0,0,1-1.309,1.717c-.455.011-.59.106-.419.574a7.5,7.5,0,0,1,.149,1.463c.125.809.094,1.642.159,2.462.11,1.425.249,2.848.364,4.274.045.551.04,1.1.109,1.657.119.957.084,1.931.153,2.9a20.948,20.948,0,0,0,.291,2.553c.053.268-.081.45-.057.686.14,1.375.326,2.753.346,4.131.013.887.146,1.761.2,2.638a34.23,34.23,0,0,0,.315,4.341c.1.539.041,1.1.122,1.655.121.825.079,1.672.151,2.506a45.462,45.462,0,0,0,.444,4.622c.091.482-.038,1.014.023,1.545.158,1.366.12,2.756.291,4.119.248,1.97.262,3.955.435,5.929a23.6,23.6,0,0,1,.214,2.7c-.019.746.074,1.516.08,2.277a1.213,1.213,0,0,1-1.055,1.295,1.391,1.391,0,0,1-1.3-.852,4.928,4.928,0,0,1-.158-.639,1.808,1.808,0,0,0,.021-.185c.022-1.751-.272-3.481-.354-5.223-.082-1.724-.269-3.439-.368-5.158-.137-2.377-.346-4.747-.513-7.121-.117-1.659-.2-3.319-.367-4.977-.2-1.937-.277-3.887-.378-5.832-.019-.374-.066-.557-.5-.555q-6.758.025-13.517.015c-.286,0-.418.053-.481.387a30.26,30.26,0,0,0-.31,3.413c-.128,1.7-.226,3.393-.383,5.088-.114,1.225-.172,2.457-.252,3.686-.14,2.19-.375,4.374-.482,6.561-.1,2.053-.329,4.094-.439,6.146a14.772,14.772,0,0,1-.189,2.324,9.722,9.722,0,0,0-.042,1.919c-.32.483-.565,1.038-1.306,1a1.165,1.165,0,0,1-1.166-1.137,36.2,36.2,0,0,1,.234-4.056c.085-.815.032-1.641.121-2.465.212-1.968.435-3.943.481-5.92.035-1.525.29-3.024.322-4.55a25.526,25.526,0,0,1,.319-4.272,15.24,15.24,0,0,0,.138-2.211c.059-1.414.184-2.826.285-4.236q.175-2.417.345-4.835c.09-1.28.326-2.557.333-3.836a24.2,24.2,0,0,0,.112-3.372,4.817,4.817,0,0,1,.21-1.646,16.94,16.94,0,0,0,.168-2.009,21.5,21.5,0,0,0,.172-2.515,13.989,13.989,0,0,1,.244-2.681.125.125,0,0,0,0-.062c-.29-.811.138-1.584.122-2.38-.011-.554.182-1.087.145-1.65-.024-.344-.12-.49-.467-.485a1.341,1.341,0,0,1-1.25-1.018.986.986,0,0,1,.492-1.186c.355-.249.29-.451.062-.783a11.053,11.053,0,0,1-1.969-4.672,17.055,17.055,0,0,1-.241-1.812,12.131,12.131,0,0,1,8.765-11.64,5.133,5.133,0,0,1,2.288-.327,2.42,2.42,0,0,0,1.642-.3,1.917,1.917,0,0,0,.71-2.129,10.408,10.408,0,0,1,.1-3.243,15.9,15.9,0,0,1,2.943-7.058,19.58,19.58,0,0,1,1.779-2.178A15.344,15.344,0,0,1,48.432,40.8a17.494,17.494,0,0,1,5.135-.349,12.839,12.839,0,0,1,3.685.761c1.77.617,2.439-.312,2.532-1.725a26.237,26.237,0,0,1,5.112-13.542,28.7,28.7,0,0,1,4.158-4.534c.757-.684,1.744-.207,2.1.956a1.927,1.927,0,0,1-.842,1.324A22.713,22.713,0,0,0,66.176,28.4,23.482,23.482,0,0,0,62.395,38.5a14.61,14.61,0,0,1-.327,2.291c-.734,2.567-2.936,3.488-5.327,2.84a16.7,16.7,0,0,0-2.42-.554c-.561-.064-1.143-.4-1.726-.062-.211-.254-.388-.255-.59,0a1.3,1.3,0,0,0-1.1-.17,30.29,30.29,0,0,0-3.52.9,13.638,13.638,0,0,0-8.182,8.828c-.274.83-.295,1.694-.484,2.532a5.325,5.325,0,0,0-.1,2.023,7.472,7.472,0,0,1,.005,1.753,4.079,4.079,0,0,1-3.941,3.361,7.886,7.886,0,0,0-1.715.142A9.34,9.34,0,0,0,25.388,72.7a9.865,9.865,0,0,0,2.737,5.6,1.482,1.482,0,0,0,1.2.5c3.53-.02,7.06-.048,10.589.016a2.045,2.045,0,0,0,1.822-1c.1-.131.192-.265.3-.391a9.126,9.126,0,0,0,1.8-3.864,5.107,5.107,0,0,1,1.444-3,3.627,3.627,0,0,1,2.665-.951,38.384,38.384,0,0,0,4.815.487c.548-.022.743-.264.8-.685a9.506,9.506,0,0,1,1.261-3.531,6.154,6.154,0,0,1,.54-1.014c.332-.384.7-.758,1.006-1.152a10.018,10.018,0,0,1,4.36-3.084,16.44,16.44,0,0,1,3.026-.782,3.3,3.3,0,0,0,2.886-3.388,16.425,16.425,0,0,1,1.167-5.933,15.181,15.181,0,0,1,4.026-5.811,15.649,15.649,0,0,1,9.088-4.2,19.042,19.042,0,0,1,5.329.241c2.2.371,3.821-.6,4.2-2.842A27.051,27.051,0,0,1,91.9,32.465a26.587,26.587,0,0,1,4.276-7.439,29.058,29.058,0,0,1,2.67-2.893,26.4,26.4,0,0,1,7.765-4.994c.614-.254,1.225-.511,1.85-.736,1.459-.525,2.279.319,1.985,1.582m-82.4,73.7v.033l.032,0c1.741-.014,3.483-.038,5.224-.039q3.329,0,6.657.037c.314,0,.577-.012.5-.4a27.986,27.986,0,0,1-.33-3.711c-.114-1.987-.342-3.967-.387-5.957-.006-.271-.1-.356-.361-.355q-5.2.008-10.391.006c-.148,0-.389-.063-.351.207.078.564-.177,1.1-.127,1.653a18.315,18.315,0,0,1-.164,2.83c-.042.654-.014,1.316-.1,1.965a17.584,17.584,0,0,0-.2,3.738m36.535.014v.022c1.951,0,3.9-.015,5.854.013.384.006.427-.111.45-.443.036-.545-.146-1.057-.148-1.6,0-.822-.065-1.645-.132-2.464-.13-1.614-.3-3.224-.35-4.844a4.4,4.4,0,0,0-.038-.619.5.5,0,0,0-.595-.493c-1.432.036-2.865.015-4.3.015H59.651c-.317,0-.67-.041-.622.45.1.993-.186,1.964-.133,2.96a16.435,16.435,0,0,1-.13,2.155q-.173,2.171-.364,4.342c-.035.391.071.524.505.517,1.889-.031,3.778-.013,5.667-.013m.126,2.459V94.15q-2.924,0-5.847,0c-.334,0-.671-.032-.7.473-.151,2.423-.3,4.847-.5,7.266-.054.637.174.711.711.708,4.065-.016,8.131-.01,12.2,0,1.125,0,1.125.012,1.056-1.176,0-.062,0-.125-.009-.187-.16-2.127-.346-4.253-.462-6.383-.03-.552-.2-.706-.72-.7-1.907.018-3.815.007-5.723.007M34.207,102.59v.012c2.18,0,4.359-.01,6.538.01.391,0,.543-.106.477-.492a7.929,7.929,0,0,1-.132-.847c-.092-1.457-.108-2.921-.281-4.368-.09-.753-.022-1.512-.187-2.266-.094-.428-.273-.49-.61-.49-1.017,0-2.034,0-3.051,0l-8.529,0c-.319,0-.685-.012-.67.423s-.119.813-.139,1.224c-.071,1.418-.115,2.839-.272,4.248-.067.6-.01,1.2-.122,1.783-.142.742-.141.76.625.761q3.176,0,6.352,0" transform="translate(-11.201 -8.123)" fill="#010101"/>
        <path id="Trazado_821851" data-name="Trazado 821851" d="M55.509,49.109c.583-.341,1.165,0,1.727.062a16.545,16.545,0,0,1,2.419.555c2.392.646,4.593-.274,5.328-2.842a14.663,14.663,0,0,0,.327-2.29A23.49,23.49,0,0,1,69.09,34.5a22.726,22.726,0,0,1,4.133-4.714,1.927,1.927,0,0,0,.843-1.324c2.644,0,5.289-.064,7.93.023a12.29,12.29,0,0,1,7.077,2.467A13.229,13.229,0,0,1,94.2,38.233c.112.422.375.284.61.33a27.01,27.01,0,0,0-1.456,5.458c-.382,2.239-2,3.213-4.2,2.842a19.046,19.046,0,0,0-5.33-.241,15.649,15.649,0,0,0-9.088,4.2,15.187,15.187,0,0,0-4.026,5.81,16.438,16.438,0,0,0-1.167,5.933,3.3,3.3,0,0,1-2.886,3.388,16.439,16.439,0,0,0-3.026.782,10.021,10.021,0,0,0-4.36,3.084c-.306.394-.673.768-1,1.152a6.111,6.111,0,0,0-.54,1.014,9.5,9.5,0,0,0-1.261,3.532c-.052.421-.247.662-.8.685a38.575,38.575,0,0,1-4.815-.488,3.624,3.624,0,0,0-2.665.951,5.106,5.106,0,0,0-1.444,3,9.123,9.123,0,0,1-1.8,3.864c-.1.126-.2.259-.3.39a2.046,2.046,0,0,1-1.823,1c-3.529-.063-7.059-.035-10.588-.015a1.483,1.483,0,0,1-1.2-.5A9.867,9.867,0,0,1,28.3,78.8a9.341,9.341,0,0,1,7.583-10.323,7.919,7.919,0,0,1,1.715-.142,4.079,4.079,0,0,0,3.941-3.361,7.5,7.5,0,0,0-.006-1.753,5.323,5.323,0,0,1,.1-2.022c.189-.838.21-1.7.485-2.532A13.633,13.633,0,0,1,50.3,49.842a30.073,30.073,0,0,1,3.521-.9,1.293,1.293,0,0,1,1.1.17,1.035,1.035,0,0,0,.59,0" transform="translate(-14.115 -14.22)" fill="#fce3bd"/>
        <path id="Trazado_821852" data-name="Trazado 821852" d="M27.318,223.4a9.766,9.766,0,0,1,.042-1.919,14.767,14.767,0,0,0,.189-2.324c.111-2.051.339-4.093.439-6.146.106-2.188.342-4.372.482-6.561.078-1.229.137-2.462.251-3.686.158-1.694.256-3.391.383-5.087a30.143,30.143,0,0,1,.309-3.414c.064-.334.2-.386.482-.386q6.759,0,13.518-.015c.438,0,.484.181.5.555.1,1.946.182,3.9.378,5.833.168,1.658.25,3.317.367,4.977.167,2.374.375,4.743.513,7.121.1,1.719.287,3.434.368,5.159.083,1.742.376,3.471.354,5.222,0,.062-.014.123-.021.185a12.622,12.622,0,0,1-4.106.235c-4.07.032-8.14,0-12.209.02a7.359,7.359,0,0,0-2.243.234" transform="translate(-13.645 -96.932)" fill="#d9e5f0"/>
        <path id="Trazado_821853" data-name="Trazado 821853" d="M88.268,223.16c.084-1,.041-2,.18-2.993a19.567,19.567,0,0,0,.133-1.968c.077-2.051.332-4.09.411-6.142.064-1.676.219-3.353.373-5.024.162-1.758.195-3.522.358-5.279.17-1.818.286-3.637.4-5.458a13.938,13.938,0,0,1,.181-2.011c.09-.421.254-.421.563-.419,1.287.008,2.574,0,3.86,0,3.134,0,6.269.007,9.4-.014.478,0,.631.079.687.621.184,1.79.194,3.591.433,5.379.1.764.128,1.555.171,2.334.085,1.534.161,3.069.35,4.6.071.57.062,1.147.117,1.722.1,1.086.028,2.191.166,3.27.239,1.869.29,3.75.451,5.623.07.814.083,1.65.186,2.456.129,1.02-.022,2.049.193,3.056-6.2.565-12.414.087-18.619.251" transform="translate(-44.134 -96.927)" fill="#d9e5f0"/>
        <path id="Trazado_821854" data-name="Trazado 821854" d="M161.488,133.045c1.355-.02,2.686.313,4.021.357a17.094,17.094,0,0,1,2.7.619,11.629,11.629,0,0,1,2.475.958,22.2,22.2,0,0,1,4.586,2.809,22.748,22.748,0,0,1,4.376,4.662,20.116,20.116,0,0,1,1.761,2.945c.323.663.64,1.335.962,2a13.134,13.134,0,0,1,.716,2.339,24.474,24.474,0,0,1,.65,4.683,21.9,21.9,0,0,1-9.131,18.9,23.23,23.23,0,0,1-9.655,3.964,21.029,21.029,0,0,1-5.571.163,23.559,23.559,0,0,1-8.765-2.757,20.885,20.885,0,0,1-5.326-4.2,22.216,22.216,0,0,1-5.943-13.26,19.775,19.775,0,0,1-.077-3.463,24.439,24.439,0,0,1,.846-4.617,22.284,22.284,0,0,1,3.135-6.56,21.971,21.971,0,0,1,4.576-4.827,18.943,18.943,0,0,1,3.711-2.4,20.283,20.283,0,0,1,7.139-2.059c.936-.076,1.868-.248,2.814-.262m.05,2.487c-.76.049-1.439.1-2.116.143a16.815,16.815,0,0,0-5.354,1.314,19.637,19.637,0,0,0-11.18,11.665,17.8,17.8,0,0,0-1.057,8.393,21.983,21.983,0,0,0,1.351,5.622,19.133,19.133,0,0,0,6.325,8.368,20.664,20.664,0,0,0,7.442,3.54,19.921,19.921,0,0,0,7.418.325,19.573,19.573,0,0,0,8.483-3.348,26.1,26.1,0,0,0,4.056-3.732,10.063,10.063,0,0,0,.782-1.1A18.015,18.015,0,0,0,180.8,159.9a18.968,18.968,0,0,0,.478-6.128,21.627,21.627,0,0,0-1.223-5.519,19.339,19.339,0,0,0-9.945-10.8,20.376,20.376,0,0,0-8.568-1.919" transform="translate(-69.612 -66.522)" fill="#010101"/>
        <path id="Trazado_821855" data-name="Trazado 821855" d="M54.288,19.458c.079-1.347-.045-2.7.074-4.042a3.028,3.028,0,0,1,2.573-2.949,6.561,6.561,0,0,1,4.294.3,3.408,3.408,0,0,1,1.786,2.152,4.168,4.168,0,0,1,.137,1.262c.006,2.344.055,4.69-.008,7.032a3.178,3.178,0,0,1-2.219,3.149,6.318,6.318,0,0,1-4.517-.076,3.5,3.5,0,0,1-2.123-3.342c.017-1.161,0-2.323,0-3.484m6.4.021h-.016c0-1.161.013-2.321-.006-3.481-.009-.55-.125-1.062-.82-1.14a10.061,10.061,0,0,0-2.232-.008.821.821,0,0,0-.823.849c-.015,2.507-.02,5.013,0,7.52a.9.9,0,0,0,.944.949c.516.026,1.035.03,1.553.017,1.1-.028,1.389-.323,1.4-1.412s0-2.2,0-3.295" transform="translate(-27.142 -6.125)" fill="#010101"/>
        <path id="Trazado_821856" data-name="Trazado 821856" d="M33.014,19.661c0-1.328-.032-2.656.008-3.983a3.378,3.378,0,0,1,3.157-3.273,9.515,9.515,0,0,1,3.152.139,3.321,3.321,0,0,1,2.425,3.55,1.126,1.126,0,0,1-1.1.962,1.207,1.207,0,0,1-1.26-.949c-.2-1.163-.3-1.256-1.476-1.257-.559,0-1.117,0-1.678.039a.742.742,0,0,0-.715.619,3.43,3.43,0,0,0-.1,1.111q.016,3.112.035,6.224c.008,1.109.273,1.38,1.357,1.4.394.009.788.022,1.182.016,1.055-.017,1.17-.114,1.406-1.137a1.23,1.23,0,0,1,1.315-1.107A1.142,1.142,0,0,1,41.761,23.1,3.308,3.308,0,0,1,38.8,26.695c-1.59.182-3.314.316-4.711-.9a2.986,2.986,0,0,1-1.025-1.9,30.044,30.044,0,0,1-.048-4.228" transform="translate(-16.481 -6.171)" fill="#010101"/>
        <path id="Trazado_821857" data-name="Trazado 821857" d="M78.125,43.712c-.6,0-1.2.013-1.8,0a.947.947,0,0,1-.973-.919,13.276,13.276,0,0,1,.031-3.6c.134-.86.983-1.757,2.64-1.7.462.016.629-.1.585-.576-.031-.327-.161-.428-.466-.422-.581.01-1.162.007-1.742-.006a1,1,0,0,1-1.006-.774,1.185,1.185,0,0,1,.592-1.523,3.519,3.519,0,0,1,1.087-.154c.87-.021,1.743-.035,2.613,0A1.3,1.3,0,0,1,81.071,35.5a19.586,19.586,0,0,1-.106,2.834,2.372,2.372,0,0,1-2.232,1.764,1.978,1.978,0,0,1-.373,0c-.4-.037-.692-.04-.659.545.032.541.218.664.72.623a7.483,7.483,0,0,1,1.551.038c.865.112,1.009.567,1.056,1.249a1.131,1.131,0,0,1-1.1,1.161c-.6.049-1.2.01-1.8.01v-.007" transform="translate(-37.621 -17.007)" fill="#010101"/>
        <path id="Trazado_821858" data-name="Trazado 821858" d="M217.474,225.767a1.62,1.62,0,0,1,1.607,1.505,2.164,2.164,0,0,1,.006.249c0,.96-.156.984.971.979a1.5,1.5,0,0,1,1.652,1.765,1.358,1.358,0,0,1-1.225,1.266c-.1.011-.226-.019-.306.028-.323.188-.771-.066-1,.19s-.052.676-.094,1.022a1.806,1.806,0,0,1-1.754,1.62c-.7,0-1.435-.873-1.514-1.8a1.573,1.573,0,0,1,0-.372c.076-.488-.155-.622-.6-.574a2.056,2.056,0,0,1-1.315-.275,1.518,1.518,0,0,1-.688-1.721,1.571,1.571,0,0,1,1.444-1.148,2.383,2.383,0,0,1,.435,0c.585.086.743-.171.736-.737a1.766,1.766,0,0,1,1.648-2" transform="translate(-106.58 -112.883)" fill="#fce3bd"/>
        <path id="Trazado_821859" data-name="Trazado 821859" d="M144.141,3.41a5.948,5.948,0,0,0,4.407,4.376.56.56,0,0,1-.478.406,4.758,4.758,0,0,0-3.758,3.6c-.047.147-.066.377-.266.366s-.3-.223-.347-.394a4.7,4.7,0,0,0-3.446-3.483c-.282-.075-.79-.078-.787-.437,0-.305.491-.246.76-.36a5.614,5.614,0,0,0,3.611-3.61c.039-.134-.008-.3.141-.394a1.521,1.521,0,0,1,.163-.071" transform="translate(-69.732 -1.705)" fill="#fc647e"/>
        <path id="Trazado_821860" data-name="Trazado 821860" d="M3.156,203.5a.415.415,0,0,1-.315-.3,3.675,3.675,0,0,0-2.6-2.444c-.127-.029-.239-.1-.239-.246,0-.2.182-.2.308-.25a4.059,4.059,0,0,0,2.55-2.622c.03-.1.06-.2.191-.2a.236.236,0,0,1,.212.2,4.163,4.163,0,0,0,2.6,2.667c.148.064.329.169.285.358s-.247.094-.378.116a3.389,3.389,0,0,0-2.418,2.415c-.028.142-.015.295-.189.31" transform="translate(0 -98.717)" fill="#6fd6f8"/>
        <path id="Trazado_821861" data-name="Trazado 821861" d="M184.21,248.251a1.834,1.834,0,0,1,1.583,1.624,1.774,1.774,0,0,1-1.648,1.7,1.737,1.737,0,0,1-1.622-1.621,1.6,1.6,0,0,1,1.687-1.7" transform="translate(-91.261 -124.125)" fill="#fc647e"/>
        <path id="Trazado_821862" data-name="Trazado 821862" d="M112.791,1.616A1.51,1.51,0,0,1,114.4,0a1.708,1.708,0,0,1,1.656,1.68A1.685,1.685,0,0,1,114.3,3.26c-.964-.122-1.6-.565-1.512-1.645" transform="translate(-56.39 0)" fill="#fc647e"/>
        <path id="Trazado_821863" data-name="Trazado 821863" d="M212.659,58.624c0,1.2.005,2.408,0,3.611A3.564,3.564,0,0,1,209.58,65.5a7.648,7.648,0,0,1-3.488-.228,3.33,3.33,0,0,1-2.233-3.151c-.053-2.612-.139-5.23.047-7.839a3.3,3.3,0,0,1,2.648-2.971A7.74,7.74,0,0,1,210,51.4a3.418,3.418,0,0,1,2.663,3.3c.048,1.306.009,2.615.009,3.923h-.01m-6.36-.239c0,1.2,0,2.408,0,3.612,0,.525.384,1.1.785,1.107a20.983,20.983,0,0,0,2.113-.033c.736-.053.974-.273.994-1.012.067-2.469.044-4.939-.036-7.408a.858.858,0,0,0-.794-.888,7.22,7.22,0,0,0-2.233-.008.892.892,0,0,0-.84,1.018c.031,1.2.009,2.407.008,3.611" transform="translate(-101.896 -25.581)" fill="#010101"/>
        <path id="Trazado_821864" data-name="Trazado 821864" d="M187.866,65.584c-.747-.006-1.492,0-2.239-.068a3.58,3.58,0,0,1-3.011-3.159c-.032-2.552-.044-5.106-.017-7.658a3.478,3.478,0,0,1,3.184-3.435,8.126,8.126,0,0,1,3.129.17,3.337,3.337,0,0,1,2.4,3.674,1.007,1.007,0,0,1-.98.816,1.163,1.163,0,0,1-1.227-.66.566.566,0,0,1-.05-.18c-.187-1.16-.234-1.4-1.946-1.383-2,.025-2.087.111-2.076,2.125.01,1.951,0,3.9,0,5.853,0,1.089.3,1.412,1.4,1.425.395.005.789.007,1.183,0,.988-.016,1.157-.16,1.36-1.145a1.205,1.205,0,0,1,1.1-1.071c1.138-.072,1.492.833,1.208,1.962a3.487,3.487,0,0,1-3.353,2.731l-.028-.032Z" transform="translate(-91.292 -25.596)" fill="#010101"/>
        <path id="Trazado_821865" data-name="Trazado 821865" d="M224.841,81.6a19.006,19.006,0,0,1,.037-3.17,2.129,2.129,0,0,1,2.181-1.943c.207,0,.416.013.622,0,.408-.029.442-.312.467-.646.03-.39-.219-.4-.469-.41-.517-.026-1.037-.021-1.555-.05a1.2,1.2,0,0,1-1.249-1.195c-.021-.693.413-1.132,1.2-1.206a24.783,24.783,0,0,1,3.047-.026c.977.027,1.414.392,1.469,1.48a10.159,10.159,0,0,1-.085,2.65,2.12,2.12,0,0,1-2.11,1.774h-.374a.742.742,0,0,0-.762,1.108c.085.214.268.172.417.176.519.014,1.04-.026,1.555.013.956.072,1.3.484,1.272,1.451-.017.591-.51.976-1.332.994q-1.556.034-3.111.021a1.136,1.136,0,0,1-1.207-.951l.019-.039Z" transform="translate(-112.396 -36.458)" fill="#010101"/>
        <path id="Trazado_821866" data-name="Trazado 821866" d="M142.158,69.58c.118-.305.325-.177.52-.107-.129.256-.335.131-.52.107" transform="translate(-71.079 -34.692)" fill="#fc647e"/>
        <path id="Trazado_821867" data-name="Trazado 821867" d="M193.147,79.941l.023-.035.028.032-.025.029Z" transform="translate(-96.573 -39.953)" fill="#fc647e"/>
        <path id="Trazado_821868" data-name="Trazado 821868" d="M224.864,90.278l.031.03-.019.038-.038-.03Z" transform="translate(-112.419 -45.139)" fill="#fc647e"/>
        <path id="Trazado_821869" data-name="Trazado 821869" d="M100.569,156.721c-1.889,0-3.779-.018-5.667.013-.434.007-.539-.126-.5-.517q.193-2.17.363-4.342a16.435,16.435,0,0,0,.13-2.154c-.053-1,.23-1.968.133-2.96-.048-.491.3-.449.622-.449h5.668c1.433,0,2.866.022,4.3-.014a.5.5,0,0,1,.6.493,4.4,4.4,0,0,1,.037.619c.048,1.62.22,3.23.351,4.844.066.82.128,1.642.132,2.464,0,.539.184,1.051.148,1.6-.022.332-.065.449-.45.444-1.951-.029-3.9-.013-5.854-.013v-.022" transform="translate(-47.195 -73.148)" fill="#d9e5f0"/>
        <path id="Trazado_821870" data-name="Trazado 821870" d="M33.645,156.718a17.547,17.547,0,0,1,.2-3.737c.09-.649.062-1.311.1-1.965a18.319,18.319,0,0,0,.164-2.83c-.05-.554.2-1.089.127-1.653-.038-.27.2-.207.351-.208q5.2-.005,10.391-.006c.266,0,.355.085.361.356.045,1.99.273,3.97.387,5.957a27.993,27.993,0,0,0,.33,3.711c.075.391-.188.408-.5.4q-3.329-.035-6.657-.037c-1.742,0-3.483.025-5.223.039l0-.033Z" transform="translate(-16.806 -73.159)" fill="#d9e5f0"/>
        <path id="Trazado_821871" data-name="Trazado 821871" d="M99.941,172.056c1.908,0,3.815.011,5.723-.007.516,0,.689.149.719.7.116,2.13.3,4.255.462,6.383.005.062.006.124.009.187.069,1.188.069,1.178-1.056,1.176-4.066-.006-8.131-.011-12.2,0-.536,0-.764-.071-.71-.709.205-2.419.35-4.843.5-7.266.031-.5.368-.472.7-.473q2.924,0,5.847,0Z" transform="translate(-46.442 -86.024)" fill="#fc647e"/>
        <path id="Trazado_821872" data-name="Trazado 821872" d="M38.964,180.49q-3.176,0-6.352,0c-.765,0-.767-.02-.625-.761.112-.587.055-1.186.122-1.783.157-1.409.2-2.83.272-4.248.021-.411.154-.8.14-1.223s.351-.423.67-.423l8.529,0c1.017,0,2.034,0,3.051,0,.337,0,.516.062.61.49.165.754.1,1.513.187,2.266.172,1.446.188,2.911.28,4.368a7.931,7.931,0,0,0,.132.848c.066.386-.085.495-.477.492-2.179-.02-4.359-.01-6.538-.01v-.012" transform="translate(-15.958 -86.023)" fill="#fc647e"/>
        <path id="Trazado_821873" data-name="Trazado 821873" d="M82.2,69.586a1.035,1.035,0,0,1-.59,0c.2-.254.379-.254.59,0" transform="translate(-40.803 -34.698)" fill="#fc647e"/>
        <path id="Trazado_821874" data-name="Trazado 821874" d="M33.677,167.115l.035,0,0,.034h-.033Z" transform="translate(-16.838 -83.556)" fill="#6fd6f8"/>
        <path id="Trazado_821875" data-name="Trazado 821875" d="M164.028,138.019a20.369,20.369,0,0,1,8.568,1.92,19.338,19.338,0,0,1,9.945,10.8,21.63,21.63,0,0,1,1.223,5.52,18.951,18.951,0,0,1-.478,6.127,18.011,18.011,0,0,1-3.107,6.824,10.134,10.134,0,0,1-.781,1.1,26.15,26.15,0,0,1-4.057,3.733,19.585,19.585,0,0,1-8.483,3.348,19.921,19.921,0,0,1-7.418-.325,20.676,20.676,0,0,1-7.442-3.54,19.132,19.132,0,0,1-6.325-8.368,21.979,21.979,0,0,1-1.35-5.621,17.8,17.8,0,0,1,1.056-8.393,19.636,19.636,0,0,1,11.18-11.665,16.819,16.819,0,0,1,5.354-1.315c.677-.047,1.356-.093,2.116-.143M160.3,152.693h0c0,1.43-.02,2.862.009,4.292.012.62-.213.569-.652.368a3.761,3.761,0,0,0-3.073-.249,3.919,3.919,0,0,0-2.494,3.592,3.708,3.708,0,0,0,.848,2.1c.742.871,1.579,1.647,2.388,2.45,1.471,1.462,2.862,3.01,4.436,4.362a3.308,3.308,0,0,0,4.184.251,9.535,9.535,0,0,0,1.823-1.611c1.647-1.668,3.321-3.309,4.966-4.98A3.695,3.695,0,0,0,168.5,157.3c-.729.368-.734.336-.73-.5.01-2.552.034-5.1-.01-7.655a4.548,4.548,0,0,0-.257-1.8,3.908,3.908,0,0,0-2.467-2.258,3.791,3.791,0,0,0-4.731,3.259c-.011,1.451,0,2.9,0,4.354" transform="translate(-72.101 -69.009)" fill="#6fd6f8"/>
        <path id="Trazado_821876" data-name="Trazado 821876" d="M208.8,60.9c0-1.2.022-2.408-.009-3.611a.892.892,0,0,1,.84-1.018,7.22,7.22,0,0,1,2.233.009.858.858,0,0,1,.794.887c.079,2.469.1,4.939.036,7.408-.02.738-.259.958-.994,1.012a21.131,21.131,0,0,1-2.114.032c-.4-.011-.782-.582-.784-1.107-.005-1.2,0-2.408,0-3.612" transform="translate(-104.394 -28.092)" fill="#fce3bd"/>
        <path id="Trazado_821877" data-name="Trazado 821877" d="M170.179,159.605c0-1.451-.009-2.9,0-4.354a3.791,3.791,0,0,1,4.73-3.258,3.905,3.905,0,0,1,2.468,2.258,4.554,4.554,0,0,1,.257,1.8c.044,2.551.021,5.1.01,7.654,0,.835,0,.867.73.5a3.695,3.695,0,0,1,4.232,5.971c-1.644,1.671-3.318,3.312-4.965,4.979a9.566,9.566,0,0,1-1.824,1.612,3.308,3.308,0,0,1-4.184-.251c-1.574-1.352-2.964-2.9-4.436-4.361-.809-.8-1.646-1.579-2.387-2.45a3.707,3.707,0,0,1-.847-2.1,3.919,3.919,0,0,1,2.494-3.592,3.759,3.759,0,0,1,3.073.25c.439.2.665.251.653-.368-.029-1.43-.01-2.862-.01-4.292h0m5.021,1.532h-.027v-5.6a1.182,1.182,0,0,0-.9-1.2,1.282,1.282,0,0,0-1.487.613,2.46,2.46,0,0,0-.176,1.462c.044,3.5.07,6.995-.056,10.492a1.258,1.258,0,0,1-.895,1.269,1.438,1.438,0,0,1-1.652-.278c-.422-.456-.875-.885-1.333-1.306a1.341,1.341,0,0,0-1.506-.21,1.181,1.181,0,0,0-.237,2.025c.788.792,1.594,1.565,2.387,2.352,1.222,1.215,2.428,2.446,3.663,3.648a1.268,1.268,0,0,0,2-.019c.636-.616,1.23-1.276,1.872-1.885,1.411-1.337,2.8-2.695,4.127-4.113a1.393,1.393,0,0,0,.188-1.51c-.165-.487-.61-.6-1.112-.614a1.416,1.416,0,0,0-1.053.438c-.454.425-.875.89-1.358,1.279a1.407,1.407,0,0,1-1.566.17,1.558,1.558,0,0,1-.883-1.473c-.005-1.847,0-3.693,0-5.54" transform="translate(-81.978 -75.922)" fill="#010101"/>
        <path id="Trazado_821878" data-name="Trazado 821878" d="M177.716,163.573c0,1.847,0,3.694,0,5.541a1.558,1.558,0,0,0,.883,1.473,1.407,1.407,0,0,0,1.566-.17c.483-.389.9-.854,1.358-1.279a1.416,1.416,0,0,1,1.053-.438c.5.012.947.127,1.112.614a1.393,1.393,0,0,1-.188,1.51c-1.328,1.418-2.717,2.776-4.127,4.113-.643.609-1.236,1.268-1.872,1.884a1.268,1.268,0,0,1-2,.019c-1.235-1.2-2.441-2.433-3.663-3.648-.792-.787-1.6-1.56-2.387-2.352a1.181,1.181,0,0,1,.237-2.025,1.341,1.341,0,0,1,1.506.21c.458.421.911.85,1.333,1.306a1.438,1.438,0,0,0,1.652.278,1.258,1.258,0,0,0,.895-1.269c.126-3.5.1-6.994.056-10.492a2.46,2.46,0,0,1,.176-1.461,1.282,1.282,0,0,1,1.487-.613,1.182,1.182,0,0,1,.9,1.2v5.6Z" transform="translate(-84.493 -78.357)" fill="#f8f9fb"/>
      </g>
    </g>
  </g>
</svg>
