<svg xmlns="http://www.w3.org/2000/svg" xmlns:xlink="http://www.w3.org/1999/xlink" width="135" height="135" viewBox="0 0 135 135">
  <defs>
    <clipPath id="clip-path">
      <rect id="Rect치ngulo_377711" data-name="Rect치ngulo 377711" width="135" height="135" transform="translate(1180 2584)" fill="#fff" stroke="#707070" stroke-width="1"/>
    </clipPath>
    <clipPath id="clip-path-2">
      <rect id="Rect치ngulo_377712" data-name="Rect치ngulo 377712" width="128.818" height="128.847" fill="none"/>
    </clipPath>
  </defs>
  <g id="Enmascarar_grupo_373" data-name="Enmascarar grupo 373" transform="translate(-1180 -2584)" clip-path="url(#clip-path)">
    <g id="Grupo_1073468" data-name="Grupo 1073468" transform="translate(1183 2587.153)">
      <g id="Grupo_1073467" data-name="Grupo 1073467" clip-path="url(#clip-path-2)">
        <path id="Trazado_821923" data-name="Trazado 821923" d="M48.9,25.118c.125-.736.737-1.033,1.287-1.338.606-.336,1.267-.573,1.9-.853a4.788,4.788,0,0,1,.545.941c.155.493.355.472.761.272a27.457,27.457,0,0,1,11.588-2.694c1.186-.031,2.36.154,3.538.212a24.158,24.158,0,0,1,5.939,1.213,25.732,25.732,0,0,1,6.171,2.962,26.845,26.845,0,0,1,9.189,9.623,1.883,1.883,0,0,0,1.838,1.057A17.379,17.379,0,0,1,97.329,37.6a20.589,20.589,0,0,1,8.892,6.108,20.2,20.2,0,0,1,4.361,9.09,25.777,25.777,0,0,1,.337,6.083,21.226,21.226,0,0,1-.836,4.1,22.5,22.5,0,0,1-1.516,3.664,10.945,10.945,0,0,1-.763,1.249,19.8,19.8,0,0,1-4.8,5.315,20.858,20.858,0,0,1-6.444,3.454c-.176.064-.379.2-.523.063s-.087-.347-.034-.533a14.826,14.826,0,0,0,.412-3.732c.027-1.2-.217-2.406-.166-3.6a14.22,14.22,0,0,0-.37-2.565,17.737,17.737,0,0,0-.75-2.753,27.356,27.356,0,0,0-2.412-5.6,30.909,30.909,0,0,0-3.526-4.985,20.224,20.224,0,0,0-3.729-3.42c-1.131-.773-2.218-1.617-3.41-2.291a27.331,27.331,0,0,0-10.088-3.313,24.977,24.977,0,0,0-5.244-.259A27.074,27.074,0,0,0,60.061,44.8c-1.077.367-2.18.673-3.227,1.115a23.791,23.791,0,0,0-7.01,4.419,33.234,33.234,0,0,0-5.568,6.436,29.4,29.4,0,0,0-4.033,10.683,31.954,31.954,0,0,0-.335,6.034,17.7,17.7,0,0,0,.493,3.4c.11.532.061.653-.508.652-6.394-.021-12.788-.013-19.182-.015a13.111,13.111,0,0,1-12.5-17.114,12.811,12.811,0,0,1,5.795-7.237,12.021,12.021,0,0,1,4.325-1.6,23.39,23.39,0,0,1,3.673-.211c.26,0,.412,0,.406-.356a21.776,21.776,0,0,1,.093-2.743,11.434,11.434,0,0,1,.6-2.934,13.9,13.9,0,0,1,4.643-6.305,12.879,12.879,0,0,1,11.683-2.1.889.889,0,0,0,1.231-.525A28.425,28.425,0,0,1,49.3,26.553c.3-.211.306-.4.091-.66a2.311,2.311,0,0,1-.5-.775m31.294,9.507v.006c.46,0,.922-.024,1.381.008.415.03.559-.123.552-.533-.015-.9-.012-1.8.016-2.7.012-.382-.122-.524-.5-.52-.942.01-1.883,0-2.825-.007-.347,0-.473.128-.462.487.026.92.033,1.842.008,2.761-.011.4.139.52.51.5.439-.02.879,0,1.319,0m-9.38-5.666h.058c0,.481.014.962-.005,1.441-.014.341.089.481.459.469.876-.027,1.755-.038,2.631,0,.49.019.605-.252.612-.626.016-.9,0-1.8.009-2.695,0-.3-.134-.427-.409-.427-.981,0-1.963,0-2.945,0-.3,0-.443.12-.418.459.034.457.009.918.009,1.377" transform="translate(-3.732 -10.618)" fill="#e2ecf6"/>
        <path id="Trazado_821924" data-name="Trazado 821924" d="M45.165,14.5a2.314,2.314,0,0,0,.5.775c.216.264.214.449-.091.66A28.408,28.408,0,0,0,36.9,25.791a.889.889,0,0,1-1.232.525,12.88,12.88,0,0,0-11.683,2.095,13.9,13.9,0,0,0-4.643,6.306,11.4,11.4,0,0,0-.6,2.934,21.768,21.768,0,0,0-.093,2.743c.006.352-.146.357-.406.357a23.272,23.272,0,0,0-3.673.211,12.031,12.031,0,0,0-4.325,1.6A12.811,12.811,0,0,0,4.455,49.8a13.111,13.111,0,0,0,12.5,17.114c6.394,0,12.788-.007,19.182.014.57,0,.618-.119.508-.651a17.737,17.737,0,0,1-.493-3.4,31.956,31.956,0,0,1,.335-6.034,29.392,29.392,0,0,1,4.033-10.683,33.2,33.2,0,0,1,5.568-6.436A23.778,23.778,0,0,1,53.1,35.3c1.046-.441,2.15-.748,3.226-1.115a27.1,27.1,0,0,1,6.657-1.135,24.916,24.916,0,0,1,5.245.259,27.322,27.322,0,0,1,10.087,3.312c1.191.674,2.279,1.518,3.41,2.292a20.239,20.239,0,0,1,3.729,3.419,30.931,30.931,0,0,1,3.526,4.985,27.378,27.378,0,0,1,2.413,5.6,17.728,17.728,0,0,1,.749,2.753,14.219,14.219,0,0,1,.37,2.565c-.051,1.2.193,2.4.166,3.6a14.85,14.85,0,0,1-.412,3.732c-.053.186-.1.411.034.533s.347,0,.523-.063A20.86,20.86,0,0,0,99.27,62.59a19.8,19.8,0,0,0,4.8-5.314,10.958,10.958,0,0,0,.763-1.25,22.453,22.453,0,0,0,1.516-3.663,21.231,21.231,0,0,0,.836-4.1,25.751,25.751,0,0,0-.337-6.083,20.2,20.2,0,0,0-4.361-9.09A20.589,20.589,0,0,0,93.6,26.981a17.392,17.392,0,0,0-5.671-1.086,1.883,1.883,0,0,1-1.838-1.057A26.851,26.851,0,0,0,76.9,15.215a25.77,25.77,0,0,0-6.171-2.962,24.128,24.128,0,0,0-5.939-1.212c-1.178-.058-2.352-.244-3.538-.212a27.459,27.459,0,0,0-11.588,2.694c-.406.2-.606.221-.761-.272a4.811,4.811,0,0,0-.544-.941,7.616,7.616,0,0,0-.695-1.512c-.131-.225-.148-.337.172-.493a31.722,31.722,0,0,1,8.514-2.749,26.1,26.1,0,0,1,5.414-.519A33.9,33.9,0,0,1,69.454,8.1c.409.111.813.2,1.168-.251a19.459,19.459,0,0,1,7.2-5.689A24.235,24.235,0,0,1,84.974.111,21.5,21.5,0,0,1,105.212,9.63a.8.8,0,0,0,.851.4,11.449,11.449,0,0,1,7.508,1.854,11.62,11.62,0,0,1,4.479,5.71c.236.66.394,1.333.586,2a.634.634,0,0,0,.529.517,12.166,12.166,0,0,1,4.811,2.007,11.807,11.807,0,0,1,4.573,7.072,11.545,11.545,0,0,1-2.418,9.94,12.038,12.038,0,0,1-9.87,4.359c-1.531-.01-3.061.02-4.591,0-.562-.008-.8.08-.735.757a19.6,19.6,0,0,1-.089,4.872A25,25,0,0,1,106.6,60.354a25.592,25.592,0,0,1-6.263,6.111,23.472,23.472,0,0,1-7.113,3.283,8.1,8.1,0,0,0-1.821.425.744.744,0,0,0-.4.442,23.561,23.561,0,0,1-3.422,6.9c-.416.591-.889,1.141-1.319,1.723-.212.286-.379.316-.647.054a4.408,4.408,0,0,0-1.018-.825,8.588,8.588,0,0,0-1.181-1.026c-.25-.192-.34-.345-.046-.639a10.663,10.663,0,0,0,1.042-1.333,22.621,22.621,0,0,0,3.3-6.568,27.707,27.707,0,0,0,1.14-5.9,24.224,24.224,0,0,0-.386-6.429,21.5,21.5,0,0,0-1.508-4.99,24.152,24.152,0,0,0-13.18-12.933c-.355-.146-.686-.345-1.058-.467a27.61,27.61,0,0,0-7.637-1.441,22.69,22.69,0,0,0-5.327.453,24.712,24.712,0,0,0-8.983,3.754,25.465,25.465,0,0,0-7.322,7.61,21.755,21.755,0,0,0-2.488,5.68,24.827,24.827,0,0,0-1.008,5.026,23.077,23.077,0,0,0,.119,5.185,24.755,24.755,0,0,0,1.5,5.62A24.446,24.446,0,0,0,57.39,84.7a22.97,22.97,0,0,0,6.791,1.075,24.668,24.668,0,0,0,6.6-.866,23.39,23.39,0,0,0,9.355-4.853c.293-.248.492-.242.732.041.338.4.694.778,1.042,1.167.275.339.543.686.829,1.015.143.164.233.3.015.462a24.29,24.29,0,0,1-3.044,2.221c-.679.351-1.322.837-2.016,1.193a27.841,27.841,0,0,1-6.614,2.527,24.489,24.489,0,0,1-4.838.781c-.932.02-1.871.069-2.808.085a21.374,21.374,0,0,1-5-.648,28.209,28.209,0,0,1-13.059-6.739,29.192,29.192,0,0,1-7.221-10.3c-.173-.4-.033-1.011-.5-1.184a4,4,0,0,0-1.306-.018c-6.959.008-13.917.024-20.876.011a10,10,0,0,1-2.763-.515,17.9,17.9,0,0,1-5.292-2.39,17.13,17.13,0,0,1-5.021-5.329A17.508,17.508,0,0,1,.145,55.79,16.336,16.336,0,0,1,3.2,44.11a16.4,16.4,0,0,1,4.916-4.6A13.674,13.674,0,0,1,12.088,37.7a9.862,9.862,0,0,1,2.445-.48c.414,0,.517-.328.583-.638.183-.876.308-1.765.518-2.634a12.855,12.855,0,0,1,1.224-2.881,17.456,17.456,0,0,1,3.333-4.4A16.116,16.116,0,0,1,27.815,22.5c1.164-.284,2.354-.319,3.528-.5a1.883,1.883,0,0,0,1.013.038c.711.177,1.447-.019,2.164.152.163.038.283-.176.38-.345a29.9,29.9,0,0,1,4.01-5.088,25.883,25.883,0,0,1,4.566-3.917c.3-.2.4-.163.574.1.357.528.742,1.037,1.115,1.555m68.7,25.228v.014c.985,0,1.97.023,2.954-.006a8.682,8.682,0,0,0,3.345-.689,7.781,7.781,0,0,0,4.876-7.464,7.735,7.735,0,0,0-4.007-6.854,9.231,9.231,0,0,0-5.01-1.092c-.849.019-.855,0-.829-.847a10.151,10.151,0,0,0-.5-3.8,8.276,8.276,0,0,0-10.374-4.876c-.541.174-.74.019-.959-.415A17.646,17.646,0,0,0,91.8,4.387,17.728,17.728,0,0,0,74.372,9.154c-.281.271-.263.411.089.569.7.316,1.415.623,2.093.99A31.472,31.472,0,0,1,88.39,21.519a1.416,1.416,0,0,0,1.157.71,21.05,21.05,0,0,1,4.558.931,23.978,23.978,0,0,1,11.586,7.985,20.774,20.774,0,0,1,4.181,7.986.693.693,0,0,0,.786.612c1.067-.049,2.137-.015,3.206-.015" transform="translate(0 0)" fill="#010000"/>
        <path id="Trazado_821925" data-name="Trazado 821925" d="M121.022,117.289c-.348-.388-.7-.769-1.042-1.167-.241-.283-.439-.289-.732-.041a23.39,23.39,0,0,1-9.355,4.853,24.65,24.65,0,0,1-6.6.866,22.97,22.97,0,0,1-6.791-1.075A24.446,24.446,0,0,1,80.69,106.086a24.754,24.754,0,0,1-1.5-5.62,23.077,23.077,0,0,1-.119-5.185,24.822,24.822,0,0,1,1.008-5.025,21.741,21.741,0,0,1,2.488-5.68,25.459,25.459,0,0,1,7.322-7.61,24.721,24.721,0,0,1,8.983-3.754,22.66,22.66,0,0,1,5.327-.453,27.591,27.591,0,0,1,7.637,1.44c.372.122.7.321,1.058.467A24.155,24.155,0,0,1,126.076,87.6a21.494,21.494,0,0,1,1.508,4.991,24.22,24.22,0,0,1,.386,6.429,27.7,27.7,0,0,1-1.14,5.9,22.61,22.61,0,0,1-3.3,6.568,10.618,10.618,0,0,1-1.042,1.333c-.294.294-.2.447.046.639a8.62,8.62,0,0,1,1.181,1.026c-.1.034-.23.038-.284.105-.753.945-1.719,1.7-2.409,2.7M89.547,95.252v-.177c-2.054,0-4.108.024-6.161-.018-.472-.01-.642.067-.635.548a25.465,25.465,0,0,0,.258,4.782,22.485,22.485,0,0,0,1.548,5.43,22.107,22.107,0,0,0,10.132,10.308c.355.182.5.084.636-.168.853-1.541,1.689-3.092,2.542-4.632,1.166-2.106,2.353-4.2,3.5-6.314a.483.483,0,0,1,.594-.3,6.56,6.56,0,0,0,2.583.017,1.094,1.094,0,0,1,1.372.6c.818,1.623,1.732,3.2,2.611,4.79,1.061,1.921,2.132,3.836,3.183,5.761.193.352.361.436.722.2.488-.32,1.025-.563,1.528-.862a20.575,20.575,0,0,0,9.563-12.384,23.792,23.792,0,0,0,.788-7.265c-.01-.375-.121-.534-.512-.509-.5.032-1.005.021-1.508.029q-5.439.082-10.877.168c-.355.006-.68.007-.8-.419a6.223,6.223,0,0,0-1.487-2.582.413.413,0,0,1-.061-.6c.6-.934,1.152-1.893,1.723-2.844q2.343-3.9,4.687-7.8c.251-.417.205-.69-.255-.959a29.11,29.11,0,0,0-4.917-2.392,17.311,17.311,0,0,0-4.364-.984,18.84,18.84,0,0,0-3.91-.082,29.9,29.9,0,0,0-3.827.615,25.142,25.142,0,0,0-6.687,3.049c-.341.206-.2.353-.061.579Q94.69,86.182,97.9,91.533a.7.7,0,0,1-.112.912,6.475,6.475,0,0,0-1.367,2.369c-.145.42-.317.444-.655.442-2.074-.008-4.148,0-6.222,0" transform="translate(-39.112 -36.022)" fill="#ffda40"/>
        <path id="Trazado_821926" data-name="Trazado 821926" d="M121.691,203.821c-3.351.166-6.148-3.077-6.072-6.059a6.743,6.743,0,0,1,1.6-3.987c1.171-1.553,2.808-2.624,4.147-4a.344.344,0,0,1,.573,0c1.727,1.711,3.807,3.1,5,5.3a5.4,5.4,0,0,1,.485,4.377,6.343,6.343,0,0,1-4.717,4.356,3.4,3.4,0,0,1-1.014.014m-.1-3.759a2.1,2.1,0,0,0,2.024-1.108,2.205,2.205,0,0,0-.124-2.323,10.7,10.7,0,0,0-1.576-1.774c-.169-.166-.277-.183-.458-.01a10.429,10.429,0,0,0-1.655,1.87,1.982,1.982,0,0,0-.045,2.27,2.127,2.127,0,0,0,1.835,1.074" transform="translate(-57.252 -93.896)" fill="#010000"/>
        <path id="Trazado_821927" data-name="Trazado 821927" d="M95.637,226.984c1.207,1.273,2.638,2.312,3.815,3.615a6.749,6.749,0,0,1,1.86,3.232,5.821,5.821,0,0,1-.589,4.316,6.023,6.023,0,0,1-6.215,3.007,6.141,6.141,0,0,1-4.751-7.762,6.844,6.844,0,0,1,1.469-2.433c.817-.913,1.763-1.688,2.595-2.584a17.588,17.588,0,0,1,1.7-1.437l.117.046M95.6,237.351a2.153,2.153,0,0,0,1.9-2.987,7.776,7.776,0,0,0-1.748-2.118c-.171-.163-.3-.183-.473-.01a11.355,11.355,0,0,0-1.61,1.835,2.137,2.137,0,0,0,1.936,3.28" transform="translate(-44.297 -112.376)" fill="#010000"/>
        <path id="Trazado_821928" data-name="Trazado 821928" d="M206.1,235.214c.282,2.657-2.08,5.215-4.27,5.786a5.638,5.638,0,0,1-6.488-2.295,5.775,5.775,0,0,1-1.188-3.684,6.97,6.97,0,0,1,1.8-4.09c1.125-1.425,2.621-2.452,3.862-3.747.427-.445.664.023.868.2,1.052.934,2.076,1.9,3.085,2.881a9.064,9.064,0,0,1,2.047,2.926,4.543,4.543,0,0,1,.281,2.019m-8.153-.119a2.251,2.251,0,0,0,1.432,2.19,2.3,2.3,0,0,0,2.469-.6,2.236,2.236,0,0,0,.288-2.452,8.977,8.977,0,0,0-1.6-1.92c-.275-.292-.475-.246-.712.02-.432.482-.9.937-1.3,1.439a2.361,2.361,0,0,0-.577,1.319" transform="translate(-96.142 -112.406)" fill="#010000"/>
        <path id="Trazado_821929" data-name="Trazado 821929" d="M37.166,235.292a5.591,5.591,0,0,1,1.7-4.119,47.621,47.621,0,0,1,3.753-3.67c.423-.381.675-.376,1.15.051a46.791,46.791,0,0,1,3.634,3.554,5.984,5.984,0,0,1-.034,8.479,6.058,6.058,0,0,1-6.667,1.233,6.745,6.745,0,0,1-3.5-4.46,2.479,2.479,0,0,1-.03-.56c0-.168,0-.335,0-.508m6,2.249a2.117,2.117,0,0,0,2.166-2.644c-.26-1.158-1.187-1.823-1.942-2.613-.184-.193-.335-.032-.475.1a9.374,9.374,0,0,0-1.6,1.832,1.922,1.922,0,0,0-.1,2.108,2.172,2.172,0,0,0,1.954,1.22" transform="translate(-18.399 -112.518)" fill="#010000"/>
        <path id="Trazado_821930" data-name="Trazado 821930" d="M206.107,160.37a5.926,5.926,0,0,1-5,6.029,5.977,5.977,0,0,1-5.024-10.285A45.969,45.969,0,0,1,199.9,152.5c.218-.191.349-.224.568-.015a40.678,40.678,0,0,1,4.262,4.142,5,5,0,0,1,1.377,3.746m-5.957,2.345a2.14,2.14,0,0,0,2.18-2.575c-.229-1.208-1.2-1.916-2.013-2.713-.122-.12-.246-.023-.328.058a7.955,7.955,0,0,0-1.8,2.147,2.145,2.145,0,0,0,1.964,3.082" transform="translate(-96.138 -75.436)" fill="#010000"/>
        <path id="Trazado_821931" data-name="Trazado 821931" d="M141.824,235.229a5.729,5.729,0,0,1,1.791-4.154,50.64,50.64,0,0,1,3.669-3.579c.425-.389.686-.353,1.149.069a47.26,47.26,0,0,1,3.535,3.448,6.368,6.368,0,0,1,1.809,4.881,6.272,6.272,0,0,1-3.99,5.083,5.805,5.805,0,0,1-6.112-1.331,5.52,5.52,0,0,1-1.852-4.418m8.259.078a2.228,2.228,0,0,0-.041-.3,6.158,6.158,0,0,0-1.984-2.675c-.161-.164-.343-.042-.488.1a10.173,10.173,0,0,0-1.481,1.694,2.212,2.212,0,0,0-.449,1.266,2.349,2.349,0,0,0,2.309,2.108,2.23,2.23,0,0,0,2.134-2.2" transform="translate(-70.224 -112.518)" fill="#010000"/>
        <path id="Trazado_821932" data-name="Trazado 821932" d="M68.967,203.975a6.164,6.164,0,0,1-5.057-3.519c-1.173-2.282-.545-4.331.815-6.276a14.485,14.485,0,0,1,2.859-2.856,15.111,15.111,0,0,0,1.241-1.238.581.581,0,0,1,.956.012c1.146,1.123,2.388,2.141,3.5,3.308a6.469,6.469,0,0,1,2.075,4.665,5.983,5.983,0,0,1-2.882,4.978,7.628,7.628,0,0,1-3.5.925m-1.828-6.161a2.225,2.225,0,0,0,3.83,1.613,2.195,2.195,0,0,0,.287-2.46,8.221,8.221,0,0,0-1.647-1.958c-.194-.193-.343-.165-.522.016a11.589,11.589,0,0,0-1.462,1.632,2.616,2.616,0,0,0-.485,1.157" transform="translate(-31.342 -94.007)" fill="#010000"/>
        <path id="Trazado_821933" data-name="Trazado 821933" d="M179.93,197.752a5.62,5.62,0,0,1-2.676,5.18,5.912,5.912,0,0,1-8.774-2.6c-1.09-2.28-.442-4.272.919-6.153a15.075,15.075,0,0,1,2.86-2.86,12.615,12.615,0,0,0,1.148-1.157.642.642,0,0,1,1.055-.026,37.059,37.059,0,0,1,4.262,4.214,4.618,4.618,0,0,1,1.205,3.4M174,200.14a2.079,2.079,0,0,0,2.108-2.4c-.176-1.283-1.156-1.974-1.959-2.8-.142-.146-.266-.038-.372.067a10.9,10.9,0,0,0-1.679,1.936,2.152,2.152,0,0,0,1.9,3.2" transform="translate(-83.156 -94.022)" fill="#010000"/>
        <path id="Trazado_821934" data-name="Trazado 821934" d="M49.117,160.463a5.789,5.789,0,0,1-3.468,5.471,5.883,5.883,0,0,1-7.919-2.925,5.566,5.566,0,0,1,.935-6.367,52.27,52.27,0,0,1,4.234-4.16c.216-.2.365-.217.577-.024a38.995,38.995,0,0,1,3.972,3.894,6.243,6.243,0,0,1,1.668,4.11m-5.969,2.243a2.148,2.148,0,0,0,2.176-2.7,6.521,6.521,0,0,0-2-2.584c-.144-.141-.263-.02-.374.08a8.422,8.422,0,0,0-1.684,1.927,2.176,2.176,0,0,0,1.876,3.273" transform="translate(-18.38 -75.428)" fill="#010000"/>
        <path id="Trazado_821935" data-name="Trazado 821935" d="M63.1,43.462a1.88,1.88,0,0,1-1.014-.039.761.761,0,0,1,1.014.039" transform="translate(-30.745 -21.416)" fill="#e2ecf6"/>
        <path id="Trazado_821936" data-name="Trazado 821936" d="M101.587,226.945l-.118-.046c.074-.073.106-.039.118.046" transform="translate(-50.246 -112.337)" fill="#e2ecf6"/>
        <path id="Trazado_821937" data-name="Trazado 821937" d="M149.657,43.879c-.44,0-.88-.015-1.319,0-.371.016-.521-.1-.51-.5.025-.92.019-1.842-.008-2.762-.01-.359.116-.491.463-.487.941.011,1.883.017,2.825.007.376,0,.51.138.5.52-.028.9-.031,1.8-.016,2.7.007.41-.137.563-.553.534-.458-.033-.92-.008-1.381-.008Z" transform="translate(-73.198 -19.873)" fill="#010000"/>
        <path id="Trazado_821938" data-name="Trazado 821938" d="M132.867,34.525c0-.459.026-.92-.009-1.377-.025-.339.113-.458.418-.459.982,0,1.964-.007,2.945,0,.275,0,.412.13.409.427-.011.9.007,1.8-.009,2.695-.007.374-.122.645-.612.626-.876-.035-1.755-.024-2.631,0-.371.011-.473-.128-.459-.469.019-.48.005-.961.005-1.441h-.058" transform="translate(-65.788 -16.185)" fill="#010000"/>
        <path id="Trazado_821939" data-name="Trazado 821939" d="M186.625,43.416c-1.069,0-2.139-.034-3.206.015a.693.693,0,0,1-.786-.612,20.775,20.775,0,0,0-4.181-7.986,23.978,23.978,0,0,0-11.586-7.985,21.051,21.051,0,0,0-4.558-.931,1.416,1.416,0,0,1-1.157-.71A31.472,31.472,0,0,0,149.316,14.4c-.678-.366-1.389-.674-2.093-.99-.352-.158-.37-.3-.089-.569a17.728,17.728,0,0,1,17.432-4.767,17.646,17.646,0,0,1,11.551,9.305c.219.434.417.589.959.415a8.276,8.276,0,0,1,10.374,4.876,10.152,10.152,0,0,1,.5,3.8c-.026.85-.02.866.829.847a9.231,9.231,0,0,1,5.01,1.092,8.017,8.017,0,0,1-.869,14.318,8.682,8.682,0,0,1-3.345.689c-.984.029-1.969.006-2.954.006v-.014" transform="translate(-72.762 -3.689)" fill="#e2ecf6"/>
        <path id="Trazado_821940" data-name="Trazado 821940" d="M93.242,98.958c2.074,0,4.149,0,6.222,0,.338,0,.509-.023.655-.442a6.461,6.461,0,0,1,1.367-2.369.7.7,0,0,0,.111-.911q-3.209-5.353-6.439-10.693c-.137-.226-.28-.373.061-.579a25.121,25.121,0,0,1,6.687-3.048,29.891,29.891,0,0,1,3.826-.615,18.844,18.844,0,0,1,3.91.082,17.315,17.315,0,0,1,4.364.984,29.149,29.149,0,0,1,4.917,2.392c.46.269.506.542.255.959q-2.347,3.9-4.687,7.8c-.571.951-1.127,1.91-1.723,2.844a.414.414,0,0,0,.061.6,6.224,6.224,0,0,1,1.487,2.582c.115.426.44.425.795.419q5.438-.091,10.877-.168c.5-.008,1.007,0,1.508-.029.391-.025.5.134.512.509a23.807,23.807,0,0,1-.788,7.265,20.577,20.577,0,0,1-9.563,12.384c-.5.3-1.04.542-1.529.862-.361.237-.53.152-.722-.2-1.051-1.926-2.123-3.841-3.183-5.761-.879-1.592-1.793-3.167-2.611-4.79a1.094,1.094,0,0,0-1.372-.6,6.56,6.56,0,0,1-2.583-.017.483.483,0,0,0-.594.3c-1.15,2.114-2.337,4.208-3.5,6.314-.854,1.541-1.689,3.091-2.542,4.632-.14.252-.281.35-.636.168a22.106,22.106,0,0,1-10.132-10.308,22.486,22.486,0,0,1-1.548-5.43,25.464,25.464,0,0,1-.258-4.782c-.007-.482.163-.558.635-.548,2.053.042,4.107.018,6.161.018,0,.059,0,.118,0,.177m26.312,3.811c-.314,0-.628.007-.942,0-.232-.007-.336.075-.341.324a5.956,5.956,0,0,1-.5,1.8,12.484,12.484,0,0,1-3.1,4.591c-.308.316-.23.51-.069.8.744,1.33,1.5,2.655,2.215,4,.222.413.412.435.763.158a17.08,17.08,0,0,0,4.744-5.768,16.086,16.086,0,0,0,1.623-5.143c.116-.879.136-.857-.773-.88-1.21-.03-2.413.059-3.619.123M92.5,102.65c-.63,0-1.092.022-1.551-.006-.443-.027-.605.117-.52.574a21.043,21.043,0,0,0,1.014,3.86,16.52,16.52,0,0,0,5.538,7.368c.21.157.393.354.594-.008.8-1.442,1.6-2.879,2.4-4.323.076-.137.178-.345.012-.452a5.32,5.32,0,0,1-.876-.964,10.733,10.733,0,0,1-2.9-5.651c-.049-.275-.2-.283-.391-.27-1.168.083-2.321-.233-3.32-.129m14.838-18.629a18.936,18.936,0,0,0-6.179,1.137c-.968.368-.965.349-.418,1.242.708,1.158,1.386,2.334,2.112,3.481.147.232.226.718.716.478a6.217,6.217,0,0,1,1.5-.393,11.226,11.226,0,0,1,5.564.239.7.7,0,0,0,.948-.352c.766-1.236,1.522-2.479,2.327-3.689.3-.457.255-.665-.25-.871a20.058,20.058,0,0,0-6.32-1.273m-3.829,16.9a3.714,3.714,0,1,0,7.428.08,3.6,3.6,0,0,0-3.772-3.724,3.664,3.664,0,0,0-3.656,3.643" transform="translate(-42.807 -39.728)" fill="#010000"/>
        <path id="Trazado_821941" data-name="Trazado 821941" d="M126.554,203.954a2.071,2.071,0,0,1-1.787-1.046,1.93,1.93,0,0,1,.044-2.211,10.166,10.166,0,0,1,1.612-1.822c.177-.168.282-.152.446.01a10.425,10.425,0,0,1,1.535,1.728,2.148,2.148,0,0,1,.121,2.262,2.045,2.045,0,0,1-1.972,1.079" transform="translate(-61.621 -98.421)" fill="#6fd6f8"/>
        <path id="Trazado_821942" data-name="Trazado 821942" d="M101.291,240.337a2.081,2.081,0,0,1-1.885-3.194,11.018,11.018,0,0,1,1.568-1.787c.167-.168.294-.149.46.01a7.577,7.577,0,0,1,1.7,2.063,2.1,2.1,0,0,1-1.846,2.909" transform="translate(-49.057 -116.486)" fill="#6fd6f8"/>
        <path id="Trazado_821943" data-name="Trazado 821943" d="M200.9,238.084a2.3,2.3,0,0,1,.561-1.285c.4-.488.849-.931,1.27-1.4.231-.258.426-.3.694-.019a8.73,8.73,0,0,1,1.554,1.87,2.176,2.176,0,0,1-.28,2.387,2.239,2.239,0,0,1-2.4.581,2.192,2.192,0,0,1-1.394-2.133" transform="translate(-99.484 -116.459)" fill="#6fd6f8"/>
        <path id="Trazado_821944" data-name="Trazado 821944" d="M46.891,242.415a2.172,2.172,0,0,1-1.954-1.22,1.922,1.922,0,0,1,.1-2.108,9.376,9.376,0,0,1,1.6-1.832c.14-.129.291-.29.475-.1.754.791,1.682,1.455,1.942,2.613a2.117,2.117,0,0,1-2.166,2.644" transform="translate(-22.119 -117.392)" fill="#6fd6f8"/>
        <path id="Trazado_821945" data-name="Trazado 821945" d="M203.07,167.511a2.089,2.089,0,0,1-1.912-3,7.736,7.736,0,0,1,1.755-2.091c.08-.079.2-.173.32-.057.8.776,1.738,1.466,1.96,2.642a2.084,2.084,0,0,1-2.123,2.507" transform="translate(-99.505 -80.372)" fill="#6fd6f8"/>
        <path id="Trazado_821946" data-name="Trazado 821946" d="M154.312,238.2a2.172,2.172,0,0,1-2.079,2.139,2.288,2.288,0,0,1-2.248-2.053,2.15,2.15,0,0,1,.437-1.233,9.93,9.93,0,0,1,1.443-1.65c.14-.14.319-.259.475-.1a6,6,0,0,1,1.932,2.6,2.084,2.084,0,0,1,.04.291" transform="translate(-74.27 -116.483)" fill="#6fd6f8"/>
        <path id="Trazado_821947" data-name="Trazado 821947" d="M73.555,201.7a2.547,2.547,0,0,1,.472-1.127,11.277,11.277,0,0,1,1.424-1.589c.175-.176.32-.2.509-.016a8.013,8.013,0,0,1,1.6,1.907,2.137,2.137,0,0,1-.279,2.4,2.167,2.167,0,0,1-3.73-1.571" transform="translate(-36.423 -98.46)" fill="#6fd6f8"/>
        <path id="Trazado_821948" data-name="Trazado 821948" d="M177.65,203.925a2.1,2.1,0,0,1-1.853-3.114,10.642,10.642,0,0,1,1.635-1.885c.1-.1.225-.207.362-.065.782.806,1.737,1.48,1.908,2.729a2.024,2.024,0,0,1-2.053,2.335" transform="translate(-86.908 -98.439)" fill="#6fd6f8"/>
        <path id="Trazado_821949" data-name="Trazado 821949" d="M50.195,167.51a2.12,2.12,0,0,1-1.827-3.188,8.208,8.208,0,0,1,1.64-1.876c.109-.1.224-.215.364-.078a6.351,6.351,0,0,1,1.944,2.517,2.093,2.093,0,0,1-2.12,2.626" transform="translate(-23.804 -80.371)" fill="#6fd6f8"/>
        <path id="Trazado_821950" data-name="Trazado 821950" d="M147.031,124.753c1.205-.064,2.409-.153,3.618-.123.909.023.889,0,.773.88a16.111,16.111,0,0,1-1.623,5.143,17.073,17.073,0,0,1-4.744,5.768c-.351.278-.542.256-.763-.157-.719-1.343-1.471-2.668-2.215-4-.162-.288-.24-.483.068-.8a12.482,12.482,0,0,0,3.1-4.591,5.961,5.961,0,0,0,.5-1.8c0-.249.109-.331.341-.324.314.009.628,0,.942,0" transform="translate(-70.284 -61.712)" fill="#ff0037"/>
        <path id="Trazado_821951" data-name="Trazado 821951" d="M96.382,124.623c1-.1,2.152.213,3.32.129.191-.014.341-.006.391.27a10.736,10.736,0,0,0,2.9,5.651,5.32,5.32,0,0,0,.876.964c.167.107.064.315-.012.452-.8,1.444-1.6,2.881-2.4,4.323-.2.362-.384.164-.594.008a16.52,16.52,0,0,1-5.538-7.368,21,21,0,0,1-1.014-3.86c-.086-.457.076-.6.519-.574.459.028.921.006,1.551.006" transform="translate(-46.691 -61.701)" fill="#ff0037"/>
        <path id="Trazado_821952" data-name="Trazado 821952" d="M120.994,87.742a20.046,20.046,0,0,1,6.32,1.272c.505.206.554.413.25.871-.8,1.211-1.561,2.453-2.327,3.689a.7.7,0,0,1-.948.352,11.229,11.229,0,0,0-5.565-.239,6.237,6.237,0,0,0-1.5.393c-.49.24-.57-.246-.716-.478-.725-1.147-1.4-2.323-2.112-3.481-.546-.894-.549-.875.418-1.242a18.92,18.92,0,0,1,6.179-1.137" transform="translate(-56.465 -43.448)" fill="#ff0037"/>
        <path id="Trazado_821953" data-name="Trazado 821953" d="M120.242,117.638a3.664,3.664,0,0,1,3.656-3.643,3.6,3.6,0,0,1,3.772,3.724,3.714,3.714,0,1,1-7.428-.08" transform="translate(-59.541 -56.448)" fill="#ffb53e"/>
      </g>
    </g>
  </g>
</svg>
